<?xml version="1.0" encoding="utf-8" standalone="no"?>
<!DOCTYPE svg PUBLIC "-//W3C//DTD SVG 1.1//EN"
  "http://www.w3.org/Graphics/SVG/1.1/DTD/svg11.dtd">
<svg xmlns:xlink="http://www.w3.org/1999/xlink" width="648pt" height="324pt" viewBox="0 0 648 324" xmlns="http://www.w3.org/2000/svg" version="1.1">
 <metadata>
  <rdf:RDF xmlns:dc="http://purl.org/dc/elements/1.1/" xmlns:cc="http://creativecommons.org/ns#" xmlns:rdf="http://www.w3.org/1999/02/22-rdf-syntax-ns#">
   <cc:Work>
    <dc:type rdf:resource="http://purl.org/dc/dcmitype/StillImage"/>
    <dc:date>2026-06-26T00:17:38.432823</dc:date>
    <dc:format>image/svg+xml</dc:format>
    <dc:creator>
     <cc:Agent>
      <dc:title>Matplotlib v3.11.0, https://matplotlib.org/</dc:title>
     </cc:Agent>
    </dc:creator>
   </cc:Work>
  </rdf:RDF>
 </metadata>
 <defs>
  <style type="text/css">*{stroke-linejoin: round; stroke-linecap: butt}</style>
 </defs>
 <g id="figure_1">
  <g id="patch_1">
   <path d="M 0 324 
L 648 324 
L 648 0 
L 0 0 
z
" style="fill: #ffffff"/>
  </g>
  <g id="axes_1">
   <g id="patch_2">
    <path d="M 51.24 296.2 
L 626.904583 296.2 
L 626.904583 25.917188 
L 51.24 25.917188 
z
" style="fill: #ffffff"/>
   </g>
   <g id="matplotlib.axis_1">
    <g id="xtick_1">
     <g id="line2d_1">
      <defs>
       <path id="m5a1ffa7b15" d="M 0 0 
L 0 3.5 
" style="stroke: #000000; stroke-width: 0.8"/>
      </defs>
      <g>
       <use xlink:href="#m5a1ffa7b15" x="91.027527" y="296.2" style="stroke: #000000; stroke-width: 0.8"/>
      </g>
     </g>
     <g id="text_1">
      <!-- 2024-07 -->
      <g transform="translate(70.136121 310.797656) scale(0.1 -0.1)">
       <defs>
        <path id="DejaVuSans-15" d="M 1228 531 
L 3431 531 
L 3431 0 
L 469 0 
L 469 531 
Q 828 903 1448 1529 
Q 2069 2156 2228 2338 
Q 2531 2678 2651 2914 
Q 2772 3150 2772 3378 
Q 2772 3750 2511 3984 
Q 2250 4219 1831 4219 
Q 1534 4219 1204 4116 
Q 875 4013 500 3803 
L 500 4441 
Q 881 4594 1212 4672 
Q 1544 4750 1819 4750 
Q 2544 4750 2975 4387 
Q 3406 4025 3406 3419 
Q 3406 3131 3298 2873 
Q 3191 2616 2906 2266 
Q 2828 2175 2409 1742 
Q 1991 1309 1228 531 
z
" transform="scale(0.015625)"/>
        <path id="DejaVuSans-13" d="M 2034 4250 
Q 1547 4250 1301 3770 
Q 1056 3291 1056 2328 
Q 1056 1369 1301 889 
Q 1547 409 2034 409 
Q 2525 409 2770 889 
Q 3016 1369 3016 2328 
Q 3016 3291 2770 3770 
Q 2525 4250 2034 4250 
z
M 2034 4750 
Q 2819 4750 3233 4129 
Q 3647 3509 3647 2328 
Q 3647 1150 3233 529 
Q 2819 -91 2034 -91 
Q 1250 -91 836 529 
Q 422 1150 422 2328 
Q 422 3509 836 4129 
Q 1250 4750 2034 4750 
z
" transform="scale(0.015625)"/>
        <path id="DejaVuSans-17" d="M 2419 4116 
L 825 1625 
L 2419 1625 
L 2419 4116 
z
M 2253 4666 
L 3047 4666 
L 3047 1625 
L 3713 1625 
L 3713 1100 
L 3047 1100 
L 3047 0 
L 2419 0 
L 2419 1100 
L 313 1100 
L 313 1709 
L 2253 4666 
z
" transform="scale(0.015625)"/>
        <path id="DejaVuSans-10" d="M 313 2009 
L 1997 2009 
L 1997 1497 
L 313 1497 
L 313 2009 
z
" transform="scale(0.015625)"/>
        <path id="DejaVuSans-1a" d="M 525 4666 
L 3525 4666 
L 3525 4397 
L 1831 0 
L 1172 0 
L 2766 4134 
L 525 4134 
L 525 4666 
z
" transform="scale(0.015625)"/>
       </defs>
       <use xlink:href="#DejaVuSans-15"/>
       <use xlink:href="#DejaVuSans-13" transform="translate(63.625 0)"/>
       <use xlink:href="#DejaVuSans-15" transform="translate(127.25 0)"/>
       <use xlink:href="#DejaVuSans-17" transform="translate(190.875 0)"/>
       <use xlink:href="#DejaVuSans-10" transform="translate(254.5 0)"/>
       <use xlink:href="#DejaVuSans-13" transform="translate(290.578125 0)"/>
       <use xlink:href="#DejaVuSans-1a" transform="translate(354.203125 0)"/>
      </g>
     </g>
    </g>
    <g id="xtick_2">
     <g id="line2d_2">
      <g>
       <use xlink:href="#m5a1ffa7b15" x="156.981626" y="296.2" style="stroke: #000000; stroke-width: 0.8"/>
      </g>
     </g>
     <g id="text_2">
      <!-- 2024-10 -->
      <g transform="translate(136.09022 310.797656) scale(0.1 -0.1)">
       <defs>
        <path id="DejaVuSans-14" d="M 794 531 
L 1825 531 
L 1825 4091 
L 703 3866 
L 703 4441 
L 1819 4666 
L 2450 4666 
L 2450 531 
L 3481 531 
L 3481 0 
L 794 0 
L 794 531 
z
" transform="scale(0.015625)"/>
       </defs>
       <use xlink:href="#DejaVuSans-15"/>
       <use xlink:href="#DejaVuSans-13" transform="translate(63.625 0)"/>
       <use xlink:href="#DejaVuSans-15" transform="translate(127.25 0)"/>
       <use xlink:href="#DejaVuSans-17" transform="translate(190.875 0)"/>
       <use xlink:href="#DejaVuSans-10" transform="translate(254.5 0)"/>
       <use xlink:href="#DejaVuSans-14" transform="translate(290.578125 0)"/>
       <use xlink:href="#DejaVuSans-13" transform="translate(354.203125 0)"/>
      </g>
     </g>
    </g>
    <g id="xtick_3">
     <g id="line2d_3">
      <g>
       <use xlink:href="#m5a1ffa7b15" x="222.935726" y="296.2" style="stroke: #000000; stroke-width: 0.8"/>
      </g>
     </g>
     <g id="text_3">
      <!-- 2025-01 -->
      <g transform="translate(202.044319 310.797656) scale(0.1 -0.1)">
       <defs>
        <path id="DejaVuSans-18" d="M 691 4666 
L 3169 4666 
L 3169 4134 
L 1269 4134 
L 1269 2991 
Q 1406 3038 1543 3061 
Q 1681 3084 1819 3084 
Q 2600 3084 3056 2656 
Q 3513 2228 3513 1497 
Q 3513 744 3044 326 
Q 2575 -91 1722 -91 
Q 1428 -91 1123 -41 
Q 819 9 494 109 
L 494 744 
Q 775 591 1075 516 
Q 1375 441 1709 441 
Q 2250 441 2565 725 
Q 2881 1009 2881 1497 
Q 2881 1984 2565 2268 
Q 2250 2553 1709 2553 
Q 1456 2553 1204 2497 
Q 953 2441 691 2322 
L 691 4666 
z
" transform="scale(0.015625)"/>
       </defs>
       <use xlink:href="#DejaVuSans-15"/>
       <use xlink:href="#DejaVuSans-13" transform="translate(63.625 0)"/>
       <use xlink:href="#DejaVuSans-15" transform="translate(127.25 0)"/>
       <use xlink:href="#DejaVuSans-18" transform="translate(190.875 0)"/>
       <use xlink:href="#DejaVuSans-10" transform="translate(254.5 0)"/>
       <use xlink:href="#DejaVuSans-13" transform="translate(290.578125 0)"/>
       <use xlink:href="#DejaVuSans-14" transform="translate(354.203125 0)"/>
      </g>
     </g>
    </g>
    <g id="xtick_4">
     <g id="line2d_4">
      <g>
       <use xlink:href="#m5a1ffa7b15" x="287.45604" y="296.2" style="stroke: #000000; stroke-width: 0.8"/>
      </g>
     </g>
     <g id="text_4">
      <!-- 2025-04 -->
      <g transform="translate(266.564634 310.797656) scale(0.1 -0.1)">
       <use xlink:href="#DejaVuSans-15"/>
       <use xlink:href="#DejaVuSans-13" transform="translate(63.625 0)"/>
       <use xlink:href="#DejaVuSans-15" transform="translate(127.25 0)"/>
       <use xlink:href="#DejaVuSans-18" transform="translate(190.875 0)"/>
       <use xlink:href="#DejaVuSans-10" transform="translate(254.5 0)"/>
       <use xlink:href="#DejaVuSans-13" transform="translate(290.578125 0)"/>
       <use xlink:href="#DejaVuSans-17" transform="translate(354.203125 0)"/>
      </g>
     </g>
    </g>
    <g id="xtick_5">
     <g id="line2d_5">
      <g>
       <use xlink:href="#m5a1ffa7b15" x="352.693247" y="296.2" style="stroke: #000000; stroke-width: 0.8"/>
      </g>
     </g>
     <g id="text_5">
      <!-- 2025-07 -->
      <g transform="translate(331.80184 310.797656) scale(0.1 -0.1)">
       <use xlink:href="#DejaVuSans-15"/>
       <use xlink:href="#DejaVuSans-13" transform="translate(63.625 0)"/>
       <use xlink:href="#DejaVuSans-15" transform="translate(127.25 0)"/>
       <use xlink:href="#DejaVuSans-18" transform="translate(190.875 0)"/>
       <use xlink:href="#DejaVuSans-10" transform="translate(254.5 0)"/>
       <use xlink:href="#DejaVuSans-13" transform="translate(290.578125 0)"/>
       <use xlink:href="#DejaVuSans-1a" transform="translate(354.203125 0)"/>
      </g>
     </g>
    </g>
    <g id="xtick_6">
     <g id="line2d_6">
      <g>
       <use xlink:href="#m5a1ffa7b15" x="418.647346" y="296.2" style="stroke: #000000; stroke-width: 0.8"/>
      </g>
     </g>
     <g id="text_6">
      <!-- 2025-10 -->
      <g transform="translate(397.75594 310.797656) scale(0.1 -0.1)">
       <use xlink:href="#DejaVuSans-15"/>
       <use xlink:href="#DejaVuSans-13" transform="translate(63.625 0)"/>
       <use xlink:href="#DejaVuSans-15" transform="translate(127.25 0)"/>
       <use xlink:href="#DejaVuSans-18" transform="translate(190.875 0)"/>
       <use xlink:href="#DejaVuSans-10" transform="translate(254.5 0)"/>
       <use xlink:href="#DejaVuSans-14" transform="translate(290.578125 0)"/>
       <use xlink:href="#DejaVuSans-13" transform="translate(354.203125 0)"/>
      </g>
     </g>
    </g>
    <g id="xtick_7">
     <g id="line2d_7">
      <g>
       <use xlink:href="#m5a1ffa7b15" x="484.601445" y="296.2" style="stroke: #000000; stroke-width: 0.8"/>
      </g>
     </g>
     <g id="text_7">
      <!-- 2026-01 -->
      <g transform="translate(463.710039 310.797656) scale(0.1 -0.1)">
       <defs>
        <path id="DejaVuSans-19" d="M 2113 2584 
Q 1688 2584 1439 2293 
Q 1191 2003 1191 1497 
Q 1191 994 1439 701 
Q 1688 409 2113 409 
Q 2538 409 2786 701 
Q 3034 994 3034 1497 
Q 3034 2003 2786 2293 
Q 2538 2584 2113 2584 
z
M 3366 4563 
L 3366 3988 
Q 3128 4100 2886 4159 
Q 2644 4219 2406 4219 
Q 1781 4219 1451 3797 
Q 1122 3375 1075 2522 
Q 1259 2794 1537 2939 
Q 1816 3084 2150 3084 
Q 2853 3084 3261 2657 
Q 3669 2231 3669 1497 
Q 3669 778 3244 343 
Q 2819 -91 2113 -91 
Q 1303 -91 875 529 
Q 447 1150 447 2328 
Q 447 3434 972 4092 
Q 1497 4750 2381 4750 
Q 2619 4750 2861 4703 
Q 3103 4656 3366 4563 
z
" transform="scale(0.015625)"/>
       </defs>
       <use xlink:href="#DejaVuSans-15"/>
       <use xlink:href="#DejaVuSans-13" transform="translate(63.625 0)"/>
       <use xlink:href="#DejaVuSans-15" transform="translate(127.25 0)"/>
       <use xlink:href="#DejaVuSans-19" transform="translate(190.875 0)"/>
       <use xlink:href="#DejaVuSans-10" transform="translate(254.5 0)"/>
       <use xlink:href="#DejaVuSans-13" transform="translate(290.578125 0)"/>
       <use xlink:href="#DejaVuSans-14" transform="translate(354.203125 0)"/>
      </g>
     </g>
    </g>
    <g id="xtick_8">
     <g id="line2d_8">
      <g>
       <use xlink:href="#m5a1ffa7b15" x="549.121759" y="296.2" style="stroke: #000000; stroke-width: 0.8"/>
      </g>
     </g>
     <g id="text_8">
      <!-- 2026-04 -->
      <g transform="translate(528.230353 310.797656) scale(0.1 -0.1)">
       <use xlink:href="#DejaVuSans-15"/>
       <use xlink:href="#DejaVuSans-13" transform="translate(63.625 0)"/>
       <use xlink:href="#DejaVuSans-15" transform="translate(127.25 0)"/>
       <use xlink:href="#DejaVuSans-19" transform="translate(190.875 0)"/>
       <use xlink:href="#DejaVuSans-10" transform="translate(254.5 0)"/>
       <use xlink:href="#DejaVuSans-13" transform="translate(290.578125 0)"/>
       <use xlink:href="#DejaVuSans-17" transform="translate(354.203125 0)"/>
      </g>
     </g>
    </g>
    <g id="xtick_9">
     <g id="line2d_9">
      <g>
       <use xlink:href="#m5a1ffa7b15" x="614.358966" y="296.2" style="stroke: #000000; stroke-width: 0.8"/>
      </g>
     </g>
     <g id="text_9">
      <!-- 2026-07 -->
      <g transform="translate(593.46756 310.797656) scale(0.1 -0.1)">
       <use xlink:href="#DejaVuSans-15"/>
       <use xlink:href="#DejaVuSans-13" transform="translate(63.625 0)"/>
       <use xlink:href="#DejaVuSans-15" transform="translate(127.25 0)"/>
       <use xlink:href="#DejaVuSans-19" transform="translate(190.875 0)"/>
       <use xlink:href="#DejaVuSans-10" transform="translate(254.5 0)"/>
       <use xlink:href="#DejaVuSans-13" transform="translate(290.578125 0)"/>
       <use xlink:href="#DejaVuSans-1a" transform="translate(354.203125 0)"/>
      </g>
     </g>
    </g>
   </g>
   <g id="matplotlib.axis_2">
    <g id="ytick_1">
     <g id="line2d_10">
      <defs>
       <path id="m389e705163" d="M 0 0 
L -3.5 0 
" style="stroke: #000000; stroke-width: 0.8"/>
      </defs>
      <g>
       <use xlink:href="#m389e705163" x="51.24" y="283.299542" style="stroke: #000000; stroke-width: 0.8"/>
      </g>
     </g>
     <g id="text_10">
      <!-- 75 -->
      <g transform="translate(31.515 287.09837) scale(0.1 -0.1)">
       <use xlink:href="#DejaVuSans-1a"/>
       <use xlink:href="#DejaVuSans-18" transform="translate(63.625 0)"/>
      </g>
     </g>
    </g>
    <g id="ytick_2">
     <g id="line2d_11">
      <g>
       <use xlink:href="#m389e705163" x="51.24" y="248.363594" style="stroke: #000000; stroke-width: 0.8"/>
      </g>
     </g>
     <g id="text_11">
      <!-- 100 -->
      <g transform="translate(25.1525 252.162422) scale(0.1 -0.1)">
       <use xlink:href="#DejaVuSans-14"/>
       <use xlink:href="#DejaVuSans-13" transform="translate(63.625 0)"/>
       <use xlink:href="#DejaVuSans-13" transform="translate(127.25 0)"/>
      </g>
     </g>
    </g>
    <g id="ytick_3">
     <g id="line2d_12">
      <g>
       <use xlink:href="#m389e705163" x="51.24" y="213.427646" style="stroke: #000000; stroke-width: 0.8"/>
      </g>
     </g>
     <g id="text_12">
      <!-- 125 -->
      <g transform="translate(25.1525 217.226474) scale(0.1 -0.1)">
       <use xlink:href="#DejaVuSans-14"/>
       <use xlink:href="#DejaVuSans-15" transform="translate(63.625 0)"/>
       <use xlink:href="#DejaVuSans-18" transform="translate(127.25 0)"/>
      </g>
     </g>
    </g>
    <g id="ytick_4">
     <g id="line2d_13">
      <g>
       <use xlink:href="#m389e705163" x="51.24" y="178.491698" style="stroke: #000000; stroke-width: 0.8"/>
      </g>
     </g>
     <g id="text_13">
      <!-- 150 -->
      <g transform="translate(25.1525 182.290526) scale(0.1 -0.1)">
       <use xlink:href="#DejaVuSans-14"/>
       <use xlink:href="#DejaVuSans-18" transform="translate(63.625 0)"/>
       <use xlink:href="#DejaVuSans-13" transform="translate(127.25 0)"/>
      </g>
     </g>
    </g>
    <g id="ytick_5">
     <g id="line2d_14">
      <g>
       <use xlink:href="#m389e705163" x="51.24" y="143.55575" style="stroke: #000000; stroke-width: 0.8"/>
      </g>
     </g>
     <g id="text_14">
      <!-- 175 -->
      <g transform="translate(25.1525 147.354578) scale(0.1 -0.1)">
       <use xlink:href="#DejaVuSans-14"/>
       <use xlink:href="#DejaVuSans-1a" transform="translate(63.625 0)"/>
       <use xlink:href="#DejaVuSans-18" transform="translate(127.25 0)"/>
      </g>
     </g>
    </g>
    <g id="ytick_6">
     <g id="line2d_15">
      <g>
       <use xlink:href="#m389e705163" x="51.24" y="108.619802" style="stroke: #000000; stroke-width: 0.8"/>
      </g>
     </g>
     <g id="text_15">
      <!-- 200 -->
      <g transform="translate(25.1525 112.41863) scale(0.1 -0.1)">
       <use xlink:href="#DejaVuSans-15"/>
       <use xlink:href="#DejaVuSans-13" transform="translate(63.625 0)"/>
       <use xlink:href="#DejaVuSans-13" transform="translate(127.25 0)"/>
      </g>
     </g>
    </g>
    <g id="ytick_7">
     <g id="line2d_16">
      <g>
       <use xlink:href="#m389e705163" x="51.24" y="73.683854" style="stroke: #000000; stroke-width: 0.8"/>
      </g>
     </g>
     <g id="text_16">
      <!-- 225 -->
      <g transform="translate(25.1525 77.482682) scale(0.1 -0.1)">
       <use xlink:href="#DejaVuSans-15"/>
       <use xlink:href="#DejaVuSans-15" transform="translate(63.625 0)"/>
       <use xlink:href="#DejaVuSans-18" transform="translate(127.25 0)"/>
      </g>
     </g>
    </g>
    <g id="ytick_8">
     <g id="line2d_17">
      <g>
       <use xlink:href="#m389e705163" x="51.24" y="38.747906" style="stroke: #000000; stroke-width: 0.8"/>
      </g>
     </g>
     <g id="text_17">
      <!-- 250 -->
      <g transform="translate(25.1525 42.546734) scale(0.1 -0.1)">
       <use xlink:href="#DejaVuSans-15"/>
       <use xlink:href="#DejaVuSans-18" transform="translate(63.625 0)"/>
       <use xlink:href="#DejaVuSans-13" transform="translate(127.25 0)"/>
      </g>
     </g>
    </g>
    <g id="text_18">
     <!-- Price (CAD) -->
     <g transform="translate(18.750156 189.508594) rotate(-90) scale(0.1 -0.1)">
      <defs>
       <path id="DejaVuSans-33" d="M 1259 4147 
L 1259 2394 
L 2053 2394 
Q 2494 2394 2734 2622 
Q 2975 2850 2975 3272 
Q 2975 3691 2734 3919 
Q 2494 4147 2053 4147 
L 1259 4147 
z
M 628 4666 
L 2053 4666 
Q 2838 4666 3239 4311 
Q 3641 3956 3641 3272 
Q 3641 2581 3239 2228 
Q 2838 1875 2053 1875 
L 1259 1875 
L 1259 0 
L 628 0 
L 628 4666 
z
" transform="scale(0.015625)"/>
       <path id="DejaVuSans-55" d="M 2631 2963 
Q 2534 3019 2420 3045 
Q 2306 3072 2169 3072 
Q 1681 3072 1420 2755 
Q 1159 2438 1159 1844 
L 1159 0 
L 581 0 
L 581 3500 
L 1159 3500 
L 1159 2956 
Q 1341 3275 1631 3429 
Q 1922 3584 2338 3584 
Q 2397 3584 2469 3576 
Q 2541 3569 2628 3553 
L 2631 2963 
z
" transform="scale(0.015625)"/>
       <path id="DejaVuSans-4c" d="M 603 3500 
L 1178 3500 
L 1178 0 
L 603 0 
L 603 3500 
z
M 603 4863 
L 1178 4863 
L 1178 4134 
L 603 4134 
L 603 4863 
z
" transform="scale(0.015625)"/>
       <path id="DejaVuSans-46" d="M 3122 3366 
L 3122 2828 
Q 2878 2963 2633 3030 
Q 2388 3097 2138 3097 
Q 1578 3097 1268 2742 
Q 959 2388 959 1747 
Q 959 1106 1268 751 
Q 1578 397 2138 397 
Q 2388 397 2633 464 
Q 2878 531 3122 666 
L 3122 134 
Q 2881 22 2623 -34 
Q 2366 -91 2075 -91 
Q 1284 -91 818 406 
Q 353 903 353 1747 
Q 353 2603 823 3093 
Q 1294 3584 2113 3584 
Q 2378 3584 2631 3529 
Q 2884 3475 3122 3366 
z
" transform="scale(0.015625)"/>
       <path id="DejaVuSans-48" d="M 3597 1894 
L 3597 1613 
L 953 1613 
Q 991 1019 1311 708 
Q 1631 397 2203 397 
Q 2534 397 2845 478 
Q 3156 559 3463 722 
L 3463 178 
Q 3153 47 2828 -22 
Q 2503 -91 2169 -91 
Q 1331 -91 842 396 
Q 353 884 353 1716 
Q 353 2575 817 3079 
Q 1281 3584 2069 3584 
Q 2775 3584 3186 3129 
Q 3597 2675 3597 1894 
z
M 3022 2063 
Q 3016 2534 2758 2815 
Q 2500 3097 2075 3097 
Q 1594 3097 1305 2825 
Q 1016 2553 972 2059 
L 3022 2063 
z
" transform="scale(0.015625)"/>
       <path id="DejaVuSans-3" transform="scale(0.015625)"/>
       <path id="DejaVuSans-b" d="M 1984 4856 
Q 1566 4138 1362 3434 
Q 1159 2731 1159 2009 
Q 1159 1288 1364 580 
Q 1569 -128 1984 -844 
L 1484 -844 
Q 1016 -109 783 600 
Q 550 1309 550 2009 
Q 550 2706 781 3412 
Q 1013 4119 1484 4856 
L 1984 4856 
z
" transform="scale(0.015625)"/>
       <path id="DejaVuSans-26" d="M 4122 4306 
L 4122 3641 
Q 3803 3938 3442 4084 
Q 3081 4231 2675 4231 
Q 1875 4231 1450 3742 
Q 1025 3253 1025 2328 
Q 1025 1406 1450 917 
Q 1875 428 2675 428 
Q 3081 428 3442 575 
Q 3803 722 4122 1019 
L 4122 359 
Q 3791 134 3420 21 
Q 3050 -91 2638 -91 
Q 1578 -91 968 557 
Q 359 1206 359 2328 
Q 359 3453 968 4101 
Q 1578 4750 2638 4750 
Q 3056 4750 3426 4639 
Q 3797 4528 4122 4306 
z
" transform="scale(0.015625)"/>
       <path id="DejaVuSans-24" d="M 2188 4044 
L 1331 1722 
L 3047 1722 
L 2188 4044 
z
M 1831 4666 
L 2547 4666 
L 4325 0 
L 3669 0 
L 3244 1197 
L 1141 1197 
L 716 0 
L 50 0 
L 1831 4666 
z
" transform="scale(0.015625)"/>
       <path id="DejaVuSans-27" d="M 1259 4147 
L 1259 519 
L 2022 519 
Q 2988 519 3436 956 
Q 3884 1394 3884 2338 
Q 3884 3275 3436 3711 
Q 2988 4147 2022 4147 
L 1259 4147 
z
M 628 4666 
L 1925 4666 
Q 3281 4666 3915 4102 
Q 4550 3538 4550 2338 
Q 4550 1131 3912 565 
Q 3275 0 1925 0 
L 628 0 
L 628 4666 
z
" transform="scale(0.015625)"/>
       <path id="DejaVuSans-c" d="M 513 4856 
L 1013 4856 
Q 1481 4119 1714 3412 
Q 1947 2706 1947 2009 
Q 1947 1309 1714 600 
Q 1481 -109 1013 -844 
L 513 -844 
Q 928 -128 1133 580 
Q 1338 1288 1338 2009 
Q 1338 2731 1133 3434 
Q 928 4138 513 4856 
z
" transform="scale(0.015625)"/>
      </defs>
      <use xlink:href="#DejaVuSans-33"/>
      <use xlink:href="#DejaVuSans-55" transform="translate(58.546875 0)"/>
      <use xlink:href="#DejaVuSans-4c" transform="translate(99.65625 0)"/>
      <use xlink:href="#DejaVuSans-46" transform="translate(127.4375 0)"/>
      <use xlink:href="#DejaVuSans-48" transform="translate(182.421875 0)"/>
      <use xlink:href="#DejaVuSans-3" transform="translate(243.953125 0)"/>
      <use xlink:href="#DejaVuSans-b" transform="translate(275.734375 0)"/>
      <use xlink:href="#DejaVuSans-26" transform="translate(314.75 0)"/>
      <use xlink:href="#DejaVuSans-24" transform="translate(384.578125 0)"/>
      <use xlink:href="#DejaVuSans-27" transform="translate(452.984375 0)"/>
      <use xlink:href="#DejaVuSans-c" transform="translate(529.984375 0)"/>
     </g>
    </g>
   </g>
   <g id="line2d_18">
    <path d="M 77.406572 262.491692 
L 78.123464 263.88913 
L 78.840357 258.229502 
L 80.991034 260.479378 
L 81.707926 264.937208 
L 83.141711 265.943365 
L 83.858603 263.651568 
L 86.009281 265.384388 
L 86.726173 264.476051 
L 88.159958 261.024378 
L 88.87685 261.765018 
L 91.74442 261.876816 
L 92.461312 259.766692 
L 93.895097 259.27758 
L 96.045774 259.668861 
L 96.762666 262.15631 
L 97.479559 263.24631 
L 98.196451 263.623613 
L 98.913343 264.43413 
L 101.064021 265.384388 
L 101.780913 254.903603 
L 102.497805 264.140669 
L 103.214698 267.145163 
L 103.93159 266.865669 
L 106.082267 267.564388 
L 106.79916 267.410669 
L 107.516052 273.699139 
L 108.232944 273.237993 
L 108.949837 272.217858 
L 111.100514 272.203881 
L 111.817406 273.517476 
L 112.534299 269.940038 
L 113.251191 275.417993 
L 113.968083 282.726587 
L 116.835653 283.914418 
L 117.552545 265.314512 
L 118.269438 256.538603 
L 118.98633 255.16912 
L 121.137007 256.887963 
L 121.8539 254.17694 
L 122.570792 250.851031 
L 123.287684 244.478718 
L 124.004577 245.512819 
L 126.155254 244.91192 
L 126.872146 245.582695 
L 127.589039 243.416662 
L 128.305931 246.728594 
L 129.022823 244.311022 
L 131.173501 246.826414 
L 131.890393 248.070133 
L 132.607285 251.493852 
L 133.324178 249.914751 
L 134.04107 248.62911 
L 136.90864 253.142829 
L 137.625532 255.490525 
L 138.342424 255.71412 
L 139.059317 261.094254 
L 141.209994 258.98412 
L 141.926886 258.467074 
L 142.643779 252.458087 
L 143.360671 252.779503 
L 144.077563 250.543593 
L 146.228241 248.391538 
L 147.662025 244.869999 
L 148.378918 238.944865 
L 149.09581 238.91691 
L 151.246487 236.862675 
L 151.96338 237.239989 
L 152.680272 238.735247 
L 153.397164 236.010248 
L 154.114057 238.427809 
L 156.264734 236.694989 
L 156.981626 240.00691 
L 157.698519 238.81909 
L 158.415411 240.00691 
L 159.132304 231.720103 
L 161.282981 234.123698 
L 161.999873 230.532283 
L 162.716765 228.240485 
L 163.433658 229.064979 
L 164.15055 227.97498 
L 167.735012 230.867676 
L 168.451904 230.686002 
L 169.168797 228.519979 
L 171.319474 228.310362 
L 172.036366 230.490361 
L 172.753259 234.137675 
L 173.470151 233.592675 
L 174.187044 234.61281 
L 176.337721 233.033698 
L 177.054613 231.524462 
L 177.771505 232.642417 
L 178.488398 235.89845 
L 179.20529 234.025878 
L 181.355967 235.702809 
L 182.07286 234.193574 
L 183.506644 222.259453 
L 184.223537 218.668038 
L 186.374214 212.91059 
L 187.091106 175.333496 
L 187.807999 162.840397 
L 188.524891 173.698496 
L 189.241784 174.481058 
L 191.392461 180.601821 
L 192.109353 184.095416 
L 192.826245 185.003764 
L 193.543138 180.154652 
L 194.26003 179.218371 
L 196.410707 171.141182 
L 197.1276 167.773352 
L 197.844492 167.591678 
L 199.278277 161.946038 
L 202.145846 168.052835 
L 202.862739 165.034364 
L 203.579631 164.405521 
L 204.296524 153.966658 
L 206.447201 159.738083 
L 207.164093 163.385397 
L 207.880985 155.699489 
L 208.597878 158.690005 
L 209.31477 160.017567 
L 211.465447 157.082939 
L 212.18234 149.313187 
L 212.899232 166.809116 
L 213.616125 172.776182 
L 214.333017 169.100913 
L 216.483694 168.639756 
L 217.200586 165.216038 
L 219.351264 170.065149 
L 221.501941 174.019901 
L 222.218833 174.313351 
L 223.652618 171.630272 
L 224.36951 167.493868 
L 226.520187 159.388724 
L 227.23708 173.796306 
L 227.953972 171.672194 
L 229.387757 178.882979 
L 231.538434 183.424652 
L 232.255326 184.332978 
L 232.972219 179.302214 
L 233.689111 179.875169 
L 234.406004 179.120541 
L 237.990466 174.257463 
L 238.707358 174.774508 
L 239.42425 172.245149 
L 241.574927 172.412834 
L 242.29182 151.660894 
L 243.008712 152.694984 
L 243.725605 146.965502 
L 244.442497 151.087939 
L 246.593174 155.336141 
L 248.026959 144.422155 
L 248.743851 150.584861 
L 249.460744 153.798972 
L 251.611421 148.376906 
L 252.328313 141.361762 
L 253.045206 147.636266 
L 253.762098 135.143168 
L 254.47899 133.885482 
L 257.34656 131.747404 
L 258.063452 134.234842 
L 258.780345 143.597671 
L 259.497237 158.256803 
L 261.647914 158.047174 
L 262.364807 166.222195 
L 263.081699 160.967836 
L 263.798591 164.419488 
L 264.515484 161.666555 
L 266.666161 172.133351 
L 267.383053 182.348619 
L 268.099946 175.45926 
L 268.816838 183.18709 
L 269.53373 187.085932 
L 271.684407 200.948535 
L 272.4013 200.906593 
L 273.118192 194.08711 
L 273.835085 205.434299 
L 274.551977 197.594672 
L 276.702654 195.232998 
L 277.419547 200.319671 
L 278.136439 184.766202 
L 278.853331 184.500685 
L 279.570224 179.120541 
L 281.720901 169.338475 
L 282.437793 168.947194 
L 283.154686 180.224528 
L 283.871578 183.215045 
L 284.58847 194.911593 
L 286.739148 196.798143 
L 287.45604 192.857358 
L 288.172932 186.624797 
L 288.889825 226.172283 
L 289.606717 235.199731 
L 291.757394 231.161136 
L 292.474287 234.61281 
L 293.191179 207.71213 
L 293.908071 222.846374 
L 294.624964 225.459587 
L 296.775641 227.611643 
L 297.492533 224.090093 
L 298.209426 225.19407 
L 298.926318 225.962666 
L 302.51078 222.538936 
L 303.227672 211.624949 
L 303.944565 203.966985 
L 304.661457 199.914424 
L 306.812134 197.8043 
L 307.529027 196.854031 
L 308.245919 204.875332 
L 308.962811 200.389547 
L 309.679704 196.644424 
L 311.830381 198.265436 
L 312.547273 207.502501 
L 313.264166 204.637771 
L 313.981058 205.210704 
L 314.69795 209.263276 
L 316.848628 184.081449 
L 317.56552 178.337979 
L 318.282412 170.344632 
L 318.999305 172.999777 
L 319.716197 171.630272 
L 322.583767 181.244652 
L 323.300659 189.92273 
L 324.017551 188.008247 
L 324.734444 193.150829 
L 327.602013 181.971326 
L 328.318906 180.895293 
L 329.035798 180.434136 
L 329.75269 183.18709 
L 331.903368 184.17928 
L 332.62026 186.680685 
L 333.337152 190.076449 
L 334.054045 187.533123 
L 334.770937 174.886305 
L 336.921614 181.915416 
L 337.638507 177.387731 
L 338.355399 170.10707 
L 339.072291 180.504012 
L 339.789184 188.022235 
L 341.939861 182.586181 
L 342.656753 184.947854 
L 343.373646 185.101573 
L 344.80743 183.760045 
L 346.958108 177.108227 
L 347.675 168.667711 
L 348.391892 169.869508 
L 349.108785 172.608475 
L 349.825677 170.484384 
L 351.976354 168.625789 
L 353.410139 170.162958 
L 354.127031 165.509509 
L 356.994601 165.453599 
L 357.711493 172.915913 
L 358.428386 169.422318 
L 359.145278 168.108744 
L 359.86217 173.712463 
L 362.012848 164.587195 
L 362.72974 167.507835 
L 363.446632 158.759881 
L 364.163525 144.659716 
L 364.880417 144.450109 
L 367.031094 142.451783 
L 367.747987 152.708972 
L 368.464879 156.048848 
L 369.181771 155.406017 
L 369.898664 149.676535 
L 372.049341 144.729593 
L 372.766233 147.789985 
L 373.483126 150.067816 
L 374.200018 151.423332 
L 374.916911 159.444612 
L 377.78448 143.332155 
L 378.501372 90.704638 
L 379.218265 98.055175 
L 379.935157 100.486703 
L 382.085834 103.896455 
L 382.802727 100.514658 
L 383.519619 99.145175 
L 384.236511 109.374409 
L 384.953404 114.76852 
L 387.104081 111.833913 
L 387.820973 118.318024 
L 388.537866 121.993293 
L 389.254758 122.454429 
L 389.971651 113.48288 
L 392.122328 115.788665 
L 392.83922 115.802632 
L 393.556112 118.359946 
L 394.273005 115.91443 
L 394.989897 117.032384 
L 397.857467 120.204553 
L 398.574359 117.717115 
L 399.291252 107.529802 
L 400.008144 103.952364 
L 402.158821 105.964678 
L 402.875713 110.254802 
L 403.592606 112.504678 
L 404.309498 107.711476 
L 405.026391 110.729926 
L 407.177068 103.491207 
L 407.89396 105.349802 
L 408.610852 103.630938 
L 409.327745 95.008749 
L 412.195314 84.486043 
L 412.912207 98.180939 
L 413.629099 99.061332 
L 414.345992 108.67569 
L 415.062884 115.048025 
L 417.213561 98.194906 
L 417.930453 99.173129 
L 418.647346 96.573894 
L 419.364238 92.912592 
L 420.081131 73.837573 
L 422.231808 67.367429 
L 422.9487 73.544102 
L 423.665592 63.314867 
L 424.382485 66.86435 
L 425.099377 92.702985 
L 427.966947 87.881828 
L 428.683839 81.48156 
L 429.400732 80.531291 
L 430.117624 79.371437 
L 432.268301 64.810115 
L 432.985193 69.547428 
L 433.702086 71.503854 
L 434.418978 61.791665 
L 435.135871 49.759724 
L 437.286548 45.497534 
L 438.00344 39.600344 
L 438.720333 39.153154 
L 439.437225 48.599848 
L 440.154117 47.328174 
L 442.304794 48.58586 
L 443.021687 70.567573 
L 443.738579 65.816272 
L 444.455472 80.209887 
L 445.172364 88.748233 
L 447.323041 76.911932 
L 448.039933 76.883977 
L 448.756826 81.383729 
L 449.473718 100.40286 
L 450.190611 101.74441 
L 452.341288 112.965835 
L 453.05818 113.762363 
L 453.775073 101.129534 
L 454.491965 103.141848 
L 455.208857 97.049018 
L 457.359534 81.872841 
L 458.076427 77.890134 
L 458.793319 75.262966 
L 460.227104 76.171292 
L 462.377781 95.889142 
L 463.094674 81.565403 
L 464.528458 71.350135 
L 465.245351 76.786168 
L 467.396028 81.118234 
L 468.11292 78.211561 
L 468.829813 63.217036 
L 469.546705 71.014742 
L 470.263597 72.076809 
L 472.414274 80.363606 
L 473.131167 74.59218 
L 473.848059 76.450775 
L 474.564952 66.836417 
L 475.281844 61.386396 
L 477.432521 61.973317 
L 478.149414 63.734103 
L 478.866306 64.237181 
L 482.450768 66.906272 
L 483.16766 74.787821 
L 483.884553 79.273606 
L 485.318337 86.079122 
L 488.185907 62.504351 
L 488.902799 65.131541 
L 489.619692 61.889475 
L 490.336584 68.052181 
L 492.487261 62.448463 
L 493.204154 63.314867 
L 493.921046 82.613481 
L 494.637938 81.118234 
L 495.354831 84.821436 
L 498.2224 108.535959 
L 498.939293 120.386227 
L 499.656185 123.027383 
L 502.523755 126.744573 
L 503.240647 127.038023 
L 503.957539 124.564574 
L 504.674432 117.661227 
L 505.391324 138.427155 
L 507.542001 135.702156 
L 508.258894 160.073476 
L 508.975786 169.100913 
L 509.692678 175.123867 
L 510.409571 174.215541 
L 512.560248 163.622959 
L 513.27714 146.993457 
L 513.994033 163.944364 
L 514.710925 177.723103 
L 515.427817 173.069632 
L 518.295387 171.783992 
L 519.012279 155.336141 
L 520.446064 146.504345 
L 522.596741 163.581038 
L 523.313634 163.874488 
L 524.030526 158.033208 
L 524.747418 147.538456 
L 525.464311 157.991286 
L 527.614988 159.877814 
L 528.33188 155.19641 
L 529.048773 141.110234 
L 529.765665 130.615482 
L 530.482557 141.068312 
L 532.633235 134.584201 
L 533.350127 142.46575 
L 534.067019 142.200233 
L 534.783912 147.831906 
L 535.500804 152.177939 
L 537.651481 146.057154 
L 538.368374 143.360109 
L 539.085266 150.459097 
L 539.802158 152.974489 
L 540.519051 163.622959 
L 542.669728 155.881163 
L 543.38662 164.740914 
L 544.103513 159.318848 
L 544.820405 164.587195 
L 545.537297 170.917587 
L 547.687975 170.414508 
L 548.404867 157.446286 
L 549.121759 157.949365 
L 549.838652 158.11705 
L 552.706221 157.013084 
L 553.423114 160.35296 
L 554.140006 155.755377 
L 554.856898 170.90362 
L 555.573791 173.530789 
L 557.724468 166.417835 
L 558.44136 161.680521 
L 559.158253 143.290233 
L 559.875145 144.785502 
L 560.592037 137.281246 
L 562.742715 130.238168 
L 563.459607 137.700482 
L 564.176499 135.702156 
L 564.893392 150.165625 
L 565.610284 147.915749 
L 567.760961 151.255625 
L 568.477854 154.497691 
L 569.911638 157.697815 
L 570.628531 145.679861 
L 572.779208 145.83358 
L 573.4961 183.690169 
L 574.212993 186.499011 
L 574.929885 174.900272 
L 575.646777 177.54145 
L 578.514347 196.840064 
L 579.231239 205.448266 
L 579.948132 201.283907 
L 580.665024 195.344796 
L 583.532594 193.849548 
L 584.249486 186.429135 
L 584.966378 186.16364 
L 585.683271 188.972482 
L 588.55084 185.632606 
L 589.267733 182.027214 
L 589.984625 166.73924 
L 590.701518 158.354612 
L 592.852195 148.209221 
L 593.569087 161.792319 
L 594.285979 168.597835 
L 595.002872 162.365274 
L 595.719764 174.592855 
L 597.870441 171.99362 
L 598.587334 172.720272 
L 599.304226 177.192091 
L 600.021118 172.594508 
L 600.738011 176.325665 
L 600.738011 176.325665 
" clip-path="url(#p46f09d710c)" style="fill: none; stroke: #1f77b4; stroke-width: 1.5; stroke-linecap: square"/>
   </g>
   <g id="line2d_19">
    <path d="M 77.406572 262.263445 
L 78.123464 264.061046 
L 78.840357 258.185337 
L 80.991034 260.448761 
L 81.707926 264.981992 
L 83.141711 265.757992 
L 83.858603 263.747149 
L 86.009281 264.974867 
L 86.726173 264.46784 
L 87.443065 263.159813 
L 88.159958 261.000946 
L 88.87685 261.661781 
L 91.74442 261.28723 
L 92.461312 260.569815 
L 93.895097 259.431868 
L 96.045774 259.769075 
L 96.762666 262.153684 
L 97.479559 263.139501 
L 98.913343 264.56167 
L 101.064021 265.662531 
L 101.780913 254.862976 
L 102.497805 264.305527 
L 103.214698 267.47178 
L 103.93159 267.170543 
L 106.082267 268.026688 
L 106.79916 267.609558 
L 107.516052 273.924921 
L 108.232944 273.393916 
L 108.949837 272.353576 
L 111.100514 272.415971 
L 111.817406 273.480675 
L 112.534299 269.66117 
L 113.968083 282.528008 
L 116.835653 283.505894 
L 117.552545 265.018335 
L 118.269438 256.345095 
L 118.98633 255.090401 
L 121.137007 256.985887 
L 122.570792 250.958016 
L 123.287684 244.643594 
L 124.004577 245.03211 
L 126.155254 244.442232 
L 126.872146 245.501902 
L 127.589039 243.21806 
L 128.305931 247.072469 
L 129.022823 243.365955 
L 131.890393 247.689911 
L 132.607285 251.806648 
L 134.04107 248.484108 
L 137.625532 255.208584 
L 138.342424 255.762619 
L 139.059317 261.689316 
L 141.209994 258.986097 
L 141.926886 258.892185 
L 142.643779 252.086566 
L 143.360671 252.796881 
L 144.077563 250.660055 
L 146.228241 248.496741 
L 147.662025 245.23364 
L 148.378918 238.457171 
L 149.09581 238.90912 
L 151.246487 236.257857 
L 151.96338 236.230371 
L 152.680272 239.455141 
L 153.397164 235.970045 
L 154.114057 238.943446 
L 156.264734 236.821427 
L 156.981626 239.810038 
L 157.698519 238.941665 
L 158.415411 240.63956 
L 159.132304 232.044572 
L 161.282981 234.666726 
L 161.999873 230.955092 
L 162.716765 228.97926 
L 163.433658 229.652437 
L 164.15055 228.213643 
L 167.735012 230.478761 
L 168.451904 231.200185 
L 169.168797 228.711633 
L 171.319474 228.705147 
L 172.036366 230.343362 
L 172.753259 234.30556 
L 173.470151 233.767999 
L 174.187044 235.073485 
L 176.337721 233.013917 
L 177.054613 232.069324 
L 177.771505 232.549744 
L 178.488398 236.101823 
L 179.20529 234.285604 
L 181.355967 235.536415 
L 182.07286 233.539758 
L 182.789752 229.749824 
L 183.506644 221.355511 
L 186.374214 213.209251 
L 187.091106 176.209715 
L 187.807999 163.820341 
L 188.524891 174.813107 
L 189.241784 174.923742 
L 191.392461 179.691401 
L 192.109353 183.158748 
L 192.826245 185.411444 
L 193.543138 180.264656 
L 194.26003 179.148387 
L 196.410707 171.987909 
L 197.1276 167.291413 
L 197.844492 167.097566 
L 199.278277 161.829728 
L 202.145846 168.590847 
L 202.862739 165.146861 
L 203.579631 163.734753 
L 204.296524 156.171115 
L 206.447201 160.171295 
L 207.164093 163.425452 
L 207.880985 155.622705 
L 208.597878 160.114034 
L 209.31477 160.364467 
L 211.465447 157.620834 
L 212.18234 150.416563 
L 212.899232 168.741208 
L 213.616125 171.736579 
L 214.333017 168.818957 
L 216.483694 168.853277 
L 217.200586 166.788238 
L 219.351264 170.258402 
L 221.501941 173.363267 
L 222.218833 174.884303 
L 223.652618 172.105314 
L 224.36951 168.216657 
L 226.520187 157.582461 
L 227.23708 174.14908 
L 227.953972 172.042296 
L 229.387757 179.387465 
L 232.255326 184.164713 
L 232.972219 179.050631 
L 233.689111 180.900632 
L 234.406004 180.195754 
L 237.273573 175.685615 
L 237.990466 174.909634 
L 238.707358 174.696127 
L 239.42425 171.746808 
L 241.574927 172.249076 
L 242.29182 151.74511 
L 243.008712 153.493722 
L 243.725605 148.29685 
L 244.442497 151.551543 
L 246.593174 152.851848 
L 247.310067 147.940132 
L 248.026959 144.271535 
L 248.743851 150.891148 
L 249.460744 153.382651 
L 251.611421 147.974057 
L 252.328313 140.500895 
L 253.045206 147.578757 
L 253.762098 133.007264 
L 254.47899 133.556235 
L 257.34656 131.780623 
L 258.063452 134.976399 
L 258.780345 142.401161 
L 259.497237 159.182096 
L 261.647914 158.766075 
L 262.364807 166.764086 
L 263.081699 161.82468 
L 263.798591 166.074234 
L 264.515484 162.047763 
L 266.666161 173.024667 
L 267.383053 182.11557 
L 268.099946 174.543625 
L 268.816838 182.745084 
L 269.53373 188.138512 
L 271.684407 201.851834 
L 272.4013 200.687723 
L 273.118192 193.421989 
L 273.835085 206.297029 
L 274.551977 196.897751 
L 276.702654 194.154034 
L 277.419547 200.308159 
L 278.136439 185.203416 
L 278.853331 184.306416 
L 279.570224 179.53019 
L 281.720901 169.229844 
L 282.437793 168.403028 
L 283.154686 180.114349 
L 283.871578 183.309604 
L 284.58847 194.806914 
L 286.739148 197.184824 
L 288.172932 187.085958 
L 288.889825 224.624503 
L 289.606717 236.808446 
L 291.757394 231.247275 
L 292.474287 234.725734 
L 293.191179 206.059766 
L 293.908071 221.338128 
L 294.624964 224.909247 
L 296.775641 227.63363 
L 297.492533 225.117352 
L 298.209426 224.351455 
L 298.926318 226.093468 
L 302.51078 222.407877 
L 303.227672 212.09559 
L 303.944565 203.686875 
L 304.661457 200.027747 
L 306.812134 197.043427 
L 307.529027 196.927606 
L 308.245919 204.547477 
L 308.962811 201.168046 
L 309.679704 196.062361 
L 311.830381 198.078491 
L 312.547273 206.872415 
L 313.264166 206.271596 
L 313.981058 206.382488 
L 314.69795 209.535602 
L 317.56552 177.829039 
L 318.282412 171.124207 
L 318.999305 172.81452 
L 319.716197 172.135718 
L 322.583767 180.527374 
L 323.300659 189.224074 
L 324.017551 188.038711 
L 324.734444 191.526208 
L 328.318906 181.399881 
L 329.035798 179.642702 
L 329.75269 181.252026 
L 331.903368 183.747549 
L 333.337152 189.587384 
L 334.054045 187.335253 
L 334.770937 175.3325 
L 336.921614 181.866963 
L 337.638507 177.032679 
L 338.355399 170.112239 
L 339.789184 187.958608 
L 341.939861 182.390821 
L 342.656753 186.02508 
L 344.80743 184.472564 
L 346.958108 176.94777 
L 347.675 168.594161 
L 348.391892 169.642777 
L 349.108785 171.446399 
L 349.825677 171.429281 
L 351.976354 167.570798 
L 353.410139 169.27473 
L 354.127031 166.869357 
L 356.994601 166.339441 
L 357.711493 173.310988 
L 358.428386 169.747722 
L 359.145278 167.892205 
L 359.86217 174.15854 
L 362.012848 164.870855 
L 362.72974 167.769742 
L 363.446632 158.093576 
L 364.163525 145.635308 
L 364.880417 144.19567 
L 367.031094 141.798711 
L 367.747987 151.684194 
L 368.464879 155.771943 
L 369.181771 156.066856 
L 369.898664 150.920253 
L 372.049341 145.236261 
L 373.483126 151.335644 
L 374.200018 151.999396 
L 374.916911 158.446821 
L 377.78448 143.760345 
L 378.501372 90.022528 
L 379.218265 98.057821 
L 379.935157 101.001069 
L 382.085834 104.633851 
L 382.802727 100.73638 
L 383.519619 99.301783 
L 384.236511 110.853524 
L 384.953404 115.028551 
L 387.104081 111.824881 
L 387.820973 119.52786 
L 388.537866 122.082281 
L 389.254758 123.134408 
L 389.971651 112.059471 
L 392.122328 116.534721 
L 392.83922 115.31598 
L 393.556112 117.681572 
L 394.273005 115.520452 
L 397.857467 120.995729 
L 398.574359 118.001829 
L 399.291252 108.330767 
L 400.008144 104.662489 
L 402.158821 105.432608 
L 402.875713 111.588674 
L 403.592606 112.953754 
L 404.309498 107.196056 
L 405.026391 110.928921 
L 407.177068 102.100776 
L 407.89396 104.752994 
L 408.610852 104.209995 
L 409.327745 95.408492 
L 410.044637 92.649485 
L 412.195314 85.502295 
L 412.912207 98.4317 
L 413.629099 100.28085 
L 414.345992 109.544746 
L 415.062884 114.876811 
L 417.213561 97.888604 
L 417.930453 99.105118 
L 418.647346 97.085629 
L 419.364238 93.381238 
L 420.081131 73.731441 
L 422.231808 67.082005 
L 422.9487 73.794114 
L 423.665592 63.599336 
L 424.382485 68.549644 
L 425.099377 92.253119 
L 427.966947 88.177741 
L 428.683839 81.513762 
L 429.400732 80.785294 
L 430.117624 78.449538 
L 432.268301 65.500598 
L 432.985193 69.16632 
L 433.702086 70.698355 
L 434.418978 61.589124 
L 435.135871 50.069613 
L 437.286548 45.779179 
L 438.00344 38.20277 
L 438.720333 39.418328 
L 439.437225 49.878616 
L 440.154117 48.42458 
L 442.304794 49.393123 
L 443.021687 71.996284 
L 443.738579 67.071392 
L 444.455472 80.578256 
L 445.172364 87.549297 
L 447.323041 76.300004 
L 448.039933 76.58871 
L 448.756826 81.406938 
L 449.473718 101.615707 
L 450.190611 101.668335 
L 452.341288 113.990648 
L 453.05818 112.338008 
L 453.775073 102.775088 
L 454.491965 104.429741 
L 455.208857 97.06588 
L 458.076427 77.829605 
L 458.793319 74.096854 
L 460.227104 77.16561 
L 462.377781 96.692386 
L 463.094674 81.283125 
L 463.811566 75.761002 
L 464.528458 71.625756 
L 465.245351 73.875504 
L 467.396028 81.853397 
L 468.11292 78.670386 
L 468.829813 62.24457 
L 469.546705 70.63692 
L 470.263597 72.030368 
L 472.414274 80.561623 
L 473.131167 74.199901 
L 473.848059 77.209033 
L 474.564952 66.817156 
L 475.281844 61.64269 
L 477.432521 61.134828 
L 478.149414 62.390184 
L 478.866306 64.040449 
L 482.450768 67.446498 
L 483.16766 74.921665 
L 483.884553 80.051146 
L 485.318337 86.798071 
L 487.469014 68.815287 
L 488.185907 63.904922 
L 488.902799 66.194092 
L 489.619692 62.223836 
L 490.336584 69.440246 
L 492.487261 61.587483 
L 493.204154 63.434027 
L 493.921046 82.451036 
L 494.637938 81.561491 
L 495.354831 85.708594 
L 498.2224 107.949993 
L 498.939293 120.299085 
L 499.656185 121.84264 
L 500.373077 122.497833 
L 502.523755 127.107075 
L 503.240647 124.634443 
L 503.957539 124.252775 
L 504.674432 116.363833 
L 505.391324 140.683297 
L 507.542001 136.197853 
L 508.258894 160.166294 
L 508.975786 170.782827 
L 509.692678 175.618324 
L 510.409571 173.39776 
L 512.560248 162.111799 
L 513.27714 146.957908 
L 514.710925 178.176747 
L 515.427817 173.750768 
L 518.295387 171.748472 
L 519.012279 156.287829 
L 520.446064 146.731558 
L 522.596741 164.420038 
L 523.313634 164.347392 
L 524.030526 157.770063 
L 524.747418 147.422416 
L 525.464311 157.379288 
L 527.614988 160.082752 
L 528.33188 155.282386 
L 529.048773 140.363038 
L 529.765665 131.108102 
L 530.482557 139.388457 
L 532.633235 134.349387 
L 533.350127 142.484465 
L 534.067019 142.26211 
L 535.500804 153.859823 
L 537.651481 145.564274 
L 538.368374 143.721315 
L 539.085266 151.370834 
L 539.802158 153.328506 
L 540.519051 163.949029 
L 542.669728 156.096805 
L 543.38662 165.24107 
L 544.103513 160.446922 
L 544.820405 165.275693 
L 545.537297 171.597442 
L 547.687975 171.008814 
L 548.404867 157.22618 
L 549.121759 157.841527 
L 549.838652 158.803986 
L 552.706221 156.586962 
L 553.423114 160.535754 
L 554.140006 155.793939 
L 554.856898 170.593496 
L 555.573791 174.10138 
L 557.724468 165.223818 
L 558.44136 161.489438 
L 559.158253 143.005312 
L 559.875145 144.526805 
L 560.592037 137.014699 
L 562.742715 129.288805 
L 563.459607 138.086472 
L 564.176499 136.253156 
L 564.893392 150.796319 
L 565.610284 147.235238 
L 567.760961 150.686945 
L 568.477854 155.782757 
L 569.194746 156.312176 
L 569.911638 156.691028 
L 570.628531 145.832518 
L 572.779208 145.908731 
L 573.4961 183.237532 
L 574.212993 187.665443 
L 574.929885 175.167591 
L 575.646777 177.334898 
L 578.514347 197.266074 
L 579.231239 205.501037 
L 579.948132 201.533789 
L 580.665024 195.79022 
L 583.532594 194.178475 
L 584.249486 186.37563 
L 584.966378 186.654995 
L 585.683271 189.822455 
L 588.55084 185.751372 
L 589.267733 182.416894 
L 589.984625 165.583311 
L 590.701518 159.463055 
L 592.852195 148.810577 
L 593.569087 161.816801 
L 594.285979 169.604297 
L 595.002872 162.817061 
L 595.719764 175.240807 
L 597.870441 172.23668 
L 598.587334 172.754566 
L 599.304226 177.122053 
L 600.021118 172.803694 
L 600.738011 176.454342 
L 600.738011 176.454342 
" clip-path="url(#p46f09d710c)" style="fill: none; stroke: #ff7f0e; stroke-width: 1.5; stroke-linecap: square"/>
   </g>
   <g id="patch_3">
    <path d="M 51.24 296.2 
L 51.24 25.917188 
" style="fill: none; stroke: #000000; stroke-width: 0.8; stroke-linejoin: miter; stroke-linecap: square"/>
   </g>
   <g id="patch_4">
    <path d="M 626.904583 296.2 
L 626.904583 25.917188 
" style="fill: none; stroke: #000000; stroke-width: 0.8; stroke-linejoin: miter; stroke-linecap: square"/>
   </g>
   <g id="patch_5">
    <path d="M 51.24 296.2 
L 626.904583 296.2 
" style="fill: none; stroke: #000000; stroke-width: 0.8; stroke-linejoin: miter; stroke-linecap: square"/>
   </g>
   <g id="patch_6">
    <path d="M 51.24 25.917188 
L 626.904583 25.917188 
" style="fill: none; stroke: #000000; stroke-width: 0.8; stroke-linejoin: miter; stroke-linecap: square"/>
   </g>
   <g id="text_19">
    <!-- SHOP.TO vs SHOP Adjusted to CAD -->
    <g transform="translate(234.982604 19.917188) scale(0.12 -0.12)">
     <defs>
      <path id="DejaVuSans-36" d="M 3425 4513 
L 3425 3897 
Q 3066 4069 2747 4153 
Q 2428 4238 2131 4238 
Q 1616 4238 1336 4038 
Q 1056 3838 1056 3469 
Q 1056 3159 1242 3001 
Q 1428 2844 1947 2747 
L 2328 2669 
Q 3034 2534 3370 2195 
Q 3706 1856 3706 1288 
Q 3706 609 3251 259 
Q 2797 -91 1919 -91 
Q 1588 -91 1214 -16 
Q 841 59 441 206 
L 441 856 
Q 825 641 1194 531 
Q 1563 422 1919 422 
Q 2459 422 2753 634 
Q 3047 847 3047 1241 
Q 3047 1584 2836 1778 
Q 2625 1972 2144 2069 
L 1759 2144 
Q 1053 2284 737 2584 
Q 422 2884 422 3419 
Q 422 4038 858 4394 
Q 1294 4750 2059 4750 
Q 2388 4750 2728 4690 
Q 3069 4631 3425 4513 
z
" transform="scale(0.015625)"/>
      <path id="DejaVuSans-2b" d="M 628 4666 
L 1259 4666 
L 1259 2753 
L 3553 2753 
L 3553 4666 
L 4184 4666 
L 4184 0 
L 3553 0 
L 3553 2222 
L 1259 2222 
L 1259 0 
L 628 0 
L 628 4666 
z
" transform="scale(0.015625)"/>
      <path id="DejaVuSans-32" d="M 2522 4238 
Q 1834 4238 1429 3725 
Q 1025 3213 1025 2328 
Q 1025 1447 1429 934 
Q 1834 422 2522 422 
Q 3209 422 3611 934 
Q 4013 1447 4013 2328 
Q 4013 3213 3611 3725 
Q 3209 4238 2522 4238 
z
M 2522 4750 
Q 3503 4750 4090 4092 
Q 4678 3434 4678 2328 
Q 4678 1225 4090 567 
Q 3503 -91 2522 -91 
Q 1538 -91 948 565 
Q 359 1222 359 2328 
Q 359 3434 948 4092 
Q 1538 4750 2522 4750 
z
" transform="scale(0.015625)"/>
      <path id="DejaVuSans-11" d="M 684 794 
L 1344 794 
L 1344 0 
L 684 0 
L 684 794 
z
" transform="scale(0.015625)"/>
      <path id="DejaVuSans-37" d="M -19 4666 
L 3928 4666 
L 3928 4134 
L 2272 4134 
L 2272 0 
L 1638 0 
L 1638 4134 
L -19 4134 
L -19 4666 
z
" transform="scale(0.015625)"/>
      <path id="DejaVuSans-59" d="M 191 3500 
L 800 3500 
L 1894 563 
L 2988 3500 
L 3597 3500 
L 2284 0 
L 1503 0 
L 191 3500 
z
" transform="scale(0.015625)"/>
      <path id="DejaVuSans-56" d="M 2834 3397 
L 2834 2853 
Q 2591 2978 2328 3040 
Q 2066 3103 1784 3103 
Q 1356 3103 1142 2972 
Q 928 2841 928 2578 
Q 928 2378 1081 2264 
Q 1234 2150 1697 2047 
L 1894 2003 
Q 2506 1872 2764 1633 
Q 3022 1394 3022 966 
Q 3022 478 2636 193 
Q 2250 -91 1575 -91 
Q 1294 -91 989 -36 
Q 684 19 347 128 
L 347 722 
Q 666 556 975 473 
Q 1284 391 1588 391 
Q 1994 391 2212 530 
Q 2431 669 2431 922 
Q 2431 1156 2273 1281 
Q 2116 1406 1581 1522 
L 1381 1569 
Q 847 1681 609 1914 
Q 372 2147 372 2553 
Q 372 3047 722 3315 
Q 1072 3584 1716 3584 
Q 2034 3584 2315 3537 
Q 2597 3491 2834 3397 
z
" transform="scale(0.015625)"/>
      <path id="DejaVuSans-47" d="M 2906 2969 
L 2906 4863 
L 3481 4863 
L 3481 0 
L 2906 0 
L 2906 525 
Q 2725 213 2448 61 
Q 2172 -91 1784 -91 
Q 1150 -91 751 415 
Q 353 922 353 1747 
Q 353 2572 751 3078 
Q 1150 3584 1784 3584 
Q 2172 3584 2448 3432 
Q 2725 3281 2906 2969 
z
M 947 1747 
Q 947 1113 1208 752 
Q 1469 391 1925 391 
Q 2381 391 2643 752 
Q 2906 1113 2906 1747 
Q 2906 2381 2643 2742 
Q 2381 3103 1925 3103 
Q 1469 3103 1208 2742 
Q 947 2381 947 1747 
z
" transform="scale(0.015625)"/>
      <path id="DejaVuSans-4d" d="M 603 3500 
L 1178 3500 
L 1178 -63 
Q 1178 -731 923 -1031 
Q 669 -1331 103 -1331 
L -116 -1331 
L -116 -844 
L 38 -844 
Q 366 -844 484 -692 
Q 603 -541 603 -63 
L 603 3500 
z
M 603 4863 
L 1178 4863 
L 1178 4134 
L 603 4134 
L 603 4863 
z
" transform="scale(0.015625)"/>
      <path id="DejaVuSans-58" d="M 544 1381 
L 544 3500 
L 1119 3500 
L 1119 1403 
Q 1119 906 1312 657 
Q 1506 409 1894 409 
Q 2359 409 2629 706 
Q 2900 1003 2900 1516 
L 2900 3500 
L 3475 3500 
L 3475 0 
L 2900 0 
L 2900 538 
Q 2691 219 2414 64 
Q 2138 -91 1772 -91 
Q 1169 -91 856 284 
Q 544 659 544 1381 
z
M 1991 3584 
L 1991 3584 
z
" transform="scale(0.015625)"/>
      <path id="DejaVuSans-57" d="M 1172 4494 
L 1172 3500 
L 2356 3500 
L 2356 3053 
L 1172 3053 
L 1172 1153 
Q 1172 725 1289 603 
Q 1406 481 1766 481 
L 2356 481 
L 2356 0 
L 1766 0 
Q 1100 0 847 248 
Q 594 497 594 1153 
L 594 3053 
L 172 3053 
L 172 3500 
L 594 3500 
L 594 4494 
L 1172 4494 
z
" transform="scale(0.015625)"/>
      <path id="DejaVuSans-52" d="M 1959 3097 
Q 1497 3097 1228 2736 
Q 959 2375 959 1747 
Q 959 1119 1226 758 
Q 1494 397 1959 397 
Q 2419 397 2687 759 
Q 2956 1122 2956 1747 
Q 2956 2369 2687 2733 
Q 2419 3097 1959 3097 
z
M 1959 3584 
Q 2709 3584 3137 3096 
Q 3566 2609 3566 1747 
Q 3566 888 3137 398 
Q 2709 -91 1959 -91 
Q 1206 -91 779 398 
Q 353 888 353 1747 
Q 353 2609 779 3096 
Q 1206 3584 1959 3584 
z
" transform="scale(0.015625)"/>
     </defs>
     <use xlink:href="#DejaVuSans-36"/>
     <use xlink:href="#DejaVuSans-2b" transform="translate(63.484375 0)"/>
     <use xlink:href="#DejaVuSans-32" transform="translate(138.6875 0)"/>
     <use xlink:href="#DejaVuSans-33" transform="translate(217.40625 0)"/>
     <use xlink:href="#DejaVuSans-11" transform="translate(262.125 0)"/>
     <use xlink:href="#DejaVuSans-37" transform="translate(293.90625 0)"/>
     <use xlink:href="#DejaVuSans-32" transform="translate(354.984375 0)"/>
     <use xlink:href="#DejaVuSans-3" transform="translate(433.703125 0)"/>
     <use xlink:href="#DejaVuSans-59" transform="translate(465.484375 0)"/>
     <use xlink:href="#DejaVuSans-56" transform="translate(524.671875 0)"/>
     <use xlink:href="#DejaVuSans-3" transform="translate(576.765625 0)"/>
     <use xlink:href="#DejaVuSans-36" transform="translate(608.546875 0)"/>
     <use xlink:href="#DejaVuSans-2b" transform="translate(672.03125 0)"/>
     <use xlink:href="#DejaVuSans-32" transform="translate(747.234375 0)"/>
     <use xlink:href="#DejaVuSans-33" transform="translate(825.953125 0)"/>
     <use xlink:href="#DejaVuSans-3" transform="translate(886.25 0)"/>
     <use xlink:href="#DejaVuSans-24" transform="translate(918.03125 0)"/>
     <use xlink:href="#DejaVuSans-47" transform="translate(984.6875 0)"/>
     <use xlink:href="#DejaVuSans-4d" transform="translate(1048.171875 0)"/>
     <use xlink:href="#DejaVuSans-58" transform="translate(1075.953125 0)"/>
     <use xlink:href="#DejaVuSans-56" transform="translate(1139.328125 0)"/>
     <use xlink:href="#DejaVuSans-57" transform="translate(1191.421875 0)"/>
     <use xlink:href="#DejaVuSans-48" transform="translate(1230.625 0)"/>
     <use xlink:href="#DejaVuSans-47" transform="translate(1292.15625 0)"/>
     <use xlink:href="#DejaVuSans-3" transform="translate(1355.640625 0)"/>
     <use xlink:href="#DejaVuSans-57" transform="translate(1387.421875 0)"/>
     <use xlink:href="#DejaVuSans-52" transform="translate(1426.625 0)"/>
     <use xlink:href="#DejaVuSans-3" transform="translate(1487.8125 0)"/>
     <use xlink:href="#DejaVuSans-26" transform="translate(1519.59375 0)"/>
     <use xlink:href="#DejaVuSans-24" transform="translate(1589.421875 0)"/>
     <use xlink:href="#DejaVuSans-27" transform="translate(1657.828125 0)"/>
    </g>
   </g>
   <g id="legend_1">
    <g id="line2d_20">
     <path d="M 60.24 39.015625 
L 70.24 39.015625 
L 80.24 39.015625 
" style="fill: none; stroke: #1f77b4; stroke-width: 1.5; stroke-linecap: square"/>
    </g>
    <g id="text_20">
     <!-- SHOP.TO -->
     <g transform="translate(88.24 42.515625) scale(0.1 -0.1)">
      <use xlink:href="#DejaVuSans-36"/>
      <use xlink:href="#DejaVuSans-2b" transform="translate(63.484375 0)"/>
      <use xlink:href="#DejaVuSans-32" transform="translate(138.6875 0)"/>
      <use xlink:href="#DejaVuSans-33" transform="translate(217.40625 0)"/>
      <use xlink:href="#DejaVuSans-11" transform="translate(262.125 0)"/>
      <use xlink:href="#DejaVuSans-37" transform="translate(293.90625 0)"/>
      <use xlink:href="#DejaVuSans-32" transform="translate(354.984375 0)"/>
     </g>
    </g>
    <g id="line2d_21">
     <path d="M 60.24 54.016406 
L 70.24 54.016406 
L 80.24 54.016406 
" style="fill: none; stroke: #ff7f0e; stroke-width: 1.5; stroke-linecap: square"/>
    </g>
    <g id="text_21">
     <!-- SHOP adjusted to CAD -->
     <g transform="translate(88.24 57.516406) scale(0.1 -0.1)">
      <defs>
       <path id="DejaVuSans-44" d="M 2194 1759 
Q 1497 1759 1228 1600 
Q 959 1441 959 1056 
Q 959 750 1161 570 
Q 1363 391 1709 391 
Q 2188 391 2477 730 
Q 2766 1069 2766 1631 
L 2766 1759 
L 2194 1759 
z
M 3341 1997 
L 3341 0 
L 2766 0 
L 2766 531 
Q 2569 213 2275 61 
Q 1981 -91 1556 -91 
Q 1019 -91 701 211 
Q 384 513 384 1019 
Q 384 1609 779 1909 
Q 1175 2209 1959 2209 
L 2766 2209 
L 2766 2266 
Q 2766 2663 2505 2880 
Q 2244 3097 1772 3097 
Q 1472 3097 1187 3025 
Q 903 2953 641 2809 
L 641 3341 
Q 956 3463 1253 3523 
Q 1550 3584 1831 3584 
Q 2591 3584 2966 3190 
Q 3341 2797 3341 1997 
z
" transform="scale(0.015625)"/>
      </defs>
      <use xlink:href="#DejaVuSans-36"/>
      <use xlink:href="#DejaVuSans-2b" transform="translate(63.484375 0)"/>
      <use xlink:href="#DejaVuSans-32" transform="translate(138.6875 0)"/>
      <use xlink:href="#DejaVuSans-33" transform="translate(217.40625 0)"/>
      <use xlink:href="#DejaVuSans-3" transform="translate(277.703125 0)"/>
      <use xlink:href="#DejaVuSans-44" transform="translate(309.484375 0)"/>
      <use xlink:href="#DejaVuSans-47" transform="translate(370.765625 0)"/>
      <use xlink:href="#DejaVuSans-4d" transform="translate(434.25 0)"/>
      <use xlink:href="#DejaVuSans-58" transform="translate(462.03125 0)"/>
      <use xlink:href="#DejaVuSans-56" transform="translate(525.40625 0)"/>
      <use xlink:href="#DejaVuSans-57" transform="translate(577.5 0)"/>
      <use xlink:href="#DejaVuSans-48" transform="translate(616.703125 0)"/>
      <use xlink:href="#DejaVuSans-47" transform="translate(678.234375 0)"/>
      <use xlink:href="#DejaVuSans-3" transform="translate(741.71875 0)"/>
      <use xlink:href="#DejaVuSans-57" transform="translate(773.5 0)"/>
      <use xlink:href="#DejaVuSans-52" transform="translate(812.703125 0)"/>
      <use xlink:href="#DejaVuSans-3" transform="translate(873.890625 0)"/>
      <use xlink:href="#DejaVuSans-26" transform="translate(905.671875 0)"/>
      <use xlink:href="#DejaVuSans-24" transform="translate(975.5 0)"/>
      <use xlink:href="#DejaVuSans-27" transform="translate(1043.90625 0)"/>
     </g>
    </g>
   </g>
  </g>
 </g>
 <defs>
  <clipPath id="p46f09d710c">
   <rect x="51.24" y="25.917188" width="575.664583" height="270.282812"/>
  </clipPath>
 </defs>
</svg>
