<?xml version="1.0" encoding="utf-8" standalone="no"?>
<!DOCTYPE svg PUBLIC "-//W3C//DTD SVG 1.1//EN"
  "http://www.w3.org/Graphics/SVG/1.1/DTD/svg11.dtd">
<svg xmlns:xlink="http://www.w3.org/1999/xlink" width="648pt" height="324pt" viewBox="0 0 648 324" xmlns="http://www.w3.org/2000/svg" version="1.1">
 <metadata>
  <rdf:RDF xmlns:dc="http://purl.org/dc/elements/1.1/" xmlns:cc="http://creativecommons.org/ns#" xmlns:rdf="http://www.w3.org/1999/02/22-rdf-syntax-ns#">
   <cc:Work>
    <dc:type rdf:resource="http://purl.org/dc/dcmitype/StillImage"/>
    <dc:date>2026-06-25T23:15:37.609067</dc:date>
    <dc:format>image/svg+xml</dc:format>
    <dc:creator>
     <cc:Agent>
      <dc:title>Matplotlib v3.11.0, https://matplotlib.org/</dc:title>
     </cc:Agent>
    </dc:creator>
   </cc:Work>
  </rdf:RDF>
 </metadata>
 <defs>
  <style type="text/css">*{stroke-linejoin: round; stroke-linecap: butt}</style>
 </defs>
 <g id="figure_1">
  <g id="patch_1">
   <path d="M 0 324 
L 648 324 
L 648 0 
L 0 0 
z
" style="fill: #ffffff"/>
  </g>
  <g id="axes_1">
   <g id="patch_2">
    <path d="M 51.24 296.2 
L 637.2 296.2 
L 637.2 25.917188 
L 51.24 25.917188 
z
" style="fill: #ffffff"/>
   </g>
   <g id="matplotlib.axis_1">
    <g id="xtick_1">
     <g id="line2d_1">
      <defs>
       <path id="m7e293a786f" d="M 0 0 
L 0 3.5 
" style="stroke: #000000; stroke-width: 0.8"/>
      </defs>
      <g>
       <use xlink:href="#m7e293a786f" x="135.667861" y="296.2" style="stroke: #000000; stroke-width: 0.8"/>
      </g>
     </g>
     <g id="text_1">
      <!-- 2022 -->
      <g transform="translate(122.942861 310.797656) scale(0.1 -0.1)">
       <defs>
        <path id="DejaVuSans-15" d="M 1228 531 
L 3431 531 
L 3431 0 
L 469 0 
L 469 531 
Q 828 903 1448 1529 
Q 2069 2156 2228 2338 
Q 2531 2678 2651 2914 
Q 2772 3150 2772 3378 
Q 2772 3750 2511 3984 
Q 2250 4219 1831 4219 
Q 1534 4219 1204 4116 
Q 875 4013 500 3803 
L 500 4441 
Q 881 4594 1212 4672 
Q 1544 4750 1819 4750 
Q 2544 4750 2975 4387 
Q 3406 4025 3406 3419 
Q 3406 3131 3298 2873 
Q 3191 2616 2906 2266 
Q 2828 2175 2409 1742 
Q 1991 1309 1228 531 
z
" transform="scale(0.015625)"/>
        <path id="DejaVuSans-13" d="M 2034 4250 
Q 1547 4250 1301 3770 
Q 1056 3291 1056 2328 
Q 1056 1369 1301 889 
Q 1547 409 2034 409 
Q 2525 409 2770 889 
Q 3016 1369 3016 2328 
Q 3016 3291 2770 3770 
Q 2525 4250 2034 4250 
z
M 2034 4750 
Q 2819 4750 3233 4129 
Q 3647 3509 3647 2328 
Q 3647 1150 3233 529 
Q 2819 -91 2034 -91 
Q 1250 -91 836 529 
Q 422 1150 422 2328 
Q 422 3509 836 4129 
Q 1250 4750 2034 4750 
z
" transform="scale(0.015625)"/>
       </defs>
       <use xlink:href="#DejaVuSans-15"/>
       <use xlink:href="#DejaVuSans-13" transform="translate(63.625 0)"/>
       <use xlink:href="#DejaVuSans-15" transform="translate(127.25 0)"/>
       <use xlink:href="#DejaVuSans-15" transform="translate(190.875 0)"/>
      </g>
     </g>
    </g>
    <g id="xtick_2">
     <g id="line2d_2">
      <g>
       <use xlink:href="#m7e293a786f" x="242.206042" y="296.2" style="stroke: #000000; stroke-width: 0.8"/>
      </g>
     </g>
     <g id="text_2">
      <!-- 2023 -->
      <g transform="translate(229.481042 310.797656) scale(0.1 -0.1)">
       <defs>
        <path id="DejaVuSans-16" d="M 2597 2516 
Q 3050 2419 3304 2112 
Q 3559 1806 3559 1356 
Q 3559 666 3084 287 
Q 2609 -91 1734 -91 
Q 1441 -91 1130 -33 
Q 819 25 488 141 
L 488 750 
Q 750 597 1062 519 
Q 1375 441 1716 441 
Q 2309 441 2620 675 
Q 2931 909 2931 1356 
Q 2931 1769 2642 2001 
Q 2353 2234 1838 2234 
L 1294 2234 
L 1294 2753 
L 1863 2753 
Q 2328 2753 2575 2939 
Q 2822 3125 2822 3475 
Q 2822 3834 2567 4026 
Q 2313 4219 1838 4219 
Q 1578 4219 1281 4162 
Q 984 4106 628 3988 
L 628 4550 
Q 988 4650 1302 4700 
Q 1616 4750 1894 4750 
Q 2613 4750 3031 4423 
Q 3450 4097 3450 3541 
Q 3450 3153 3228 2886 
Q 3006 2619 2597 2516 
z
" transform="scale(0.015625)"/>
       </defs>
       <use xlink:href="#DejaVuSans-15"/>
       <use xlink:href="#DejaVuSans-13" transform="translate(63.625 0)"/>
       <use xlink:href="#DejaVuSans-15" transform="translate(127.25 0)"/>
       <use xlink:href="#DejaVuSans-16" transform="translate(190.875 0)"/>
      </g>
     </g>
    </g>
    <g id="xtick_3">
     <g id="line2d_3">
      <g>
       <use xlink:href="#m7e293a786f" x="348.744224" y="296.2" style="stroke: #000000; stroke-width: 0.8"/>
      </g>
     </g>
     <g id="text_3">
      <!-- 2024 -->
      <g transform="translate(336.019224 310.797656) scale(0.1 -0.1)">
       <defs>
        <path id="DejaVuSans-17" d="M 2419 4116 
L 825 1625 
L 2419 1625 
L 2419 4116 
z
M 2253 4666 
L 3047 4666 
L 3047 1625 
L 3713 1625 
L 3713 1100 
L 3047 1100 
L 3047 0 
L 2419 0 
L 2419 1100 
L 313 1100 
L 313 1709 
L 2253 4666 
z
" transform="scale(0.015625)"/>
       </defs>
       <use xlink:href="#DejaVuSans-15"/>
       <use xlink:href="#DejaVuSans-13" transform="translate(63.625 0)"/>
       <use xlink:href="#DejaVuSans-15" transform="translate(127.25 0)"/>
       <use xlink:href="#DejaVuSans-17" transform="translate(190.875 0)"/>
      </g>
     </g>
    </g>
    <g id="xtick_4">
     <g id="line2d_4">
      <g>
       <use xlink:href="#m7e293a786f" x="455.574291" y="296.2" style="stroke: #000000; stroke-width: 0.8"/>
      </g>
     </g>
     <g id="text_4">
      <!-- 2025 -->
      <g transform="translate(442.849291 310.797656) scale(0.1 -0.1)">
       <defs>
        <path id="DejaVuSans-18" d="M 691 4666 
L 3169 4666 
L 3169 4134 
L 1269 4134 
L 1269 2991 
Q 1406 3038 1543 3061 
Q 1681 3084 1819 3084 
Q 2600 3084 3056 2656 
Q 3513 2228 3513 1497 
Q 3513 744 3044 326 
Q 2575 -91 1722 -91 
Q 1428 -91 1123 -41 
Q 819 9 494 109 
L 494 744 
Q 775 591 1075 516 
Q 1375 441 1709 441 
Q 2250 441 2565 725 
Q 2881 1009 2881 1497 
Q 2881 1984 2565 2268 
Q 2250 2553 1709 2553 
Q 1456 2553 1204 2497 
Q 953 2441 691 2322 
L 691 4666 
z
" transform="scale(0.015625)"/>
       </defs>
       <use xlink:href="#DejaVuSans-15"/>
       <use xlink:href="#DejaVuSans-13" transform="translate(63.625 0)"/>
       <use xlink:href="#DejaVuSans-15" transform="translate(127.25 0)"/>
       <use xlink:href="#DejaVuSans-18" transform="translate(190.875 0)"/>
      </g>
     </g>
    </g>
    <g id="xtick_5">
     <g id="line2d_5">
      <g>
       <use xlink:href="#m7e293a786f" x="562.112473" y="296.2" style="stroke: #000000; stroke-width: 0.8"/>
      </g>
     </g>
     <g id="text_5">
      <!-- 2026 -->
      <g transform="translate(549.387473 310.797656) scale(0.1 -0.1)">
       <defs>
        <path id="DejaVuSans-19" d="M 2113 2584 
Q 1688 2584 1439 2293 
Q 1191 2003 1191 1497 
Q 1191 994 1439 701 
Q 1688 409 2113 409 
Q 2538 409 2786 701 
Q 3034 994 3034 1497 
Q 3034 2003 2786 2293 
Q 2538 2584 2113 2584 
z
M 3366 4563 
L 3366 3988 
Q 3128 4100 2886 4159 
Q 2644 4219 2406 4219 
Q 1781 4219 1451 3797 
Q 1122 3375 1075 2522 
Q 1259 2794 1537 2939 
Q 1816 3084 2150 3084 
Q 2853 3084 3261 2657 
Q 3669 2231 3669 1497 
Q 3669 778 3244 343 
Q 2819 -91 2113 -91 
Q 1303 -91 875 529 
Q 447 1150 447 2328 
Q 447 3434 972 4092 
Q 1497 4750 2381 4750 
Q 2619 4750 2861 4703 
Q 3103 4656 3366 4563 
z
" transform="scale(0.015625)"/>
       </defs>
       <use xlink:href="#DejaVuSans-15"/>
       <use xlink:href="#DejaVuSans-13" transform="translate(63.625 0)"/>
       <use xlink:href="#DejaVuSans-15" transform="translate(127.25 0)"/>
       <use xlink:href="#DejaVuSans-19" transform="translate(190.875 0)"/>
      </g>
     </g>
    </g>
   </g>
   <g id="matplotlib.axis_2">
    <g id="ytick_1">
     <g id="line2d_6">
      <defs>
       <path id="m23552e39f9" d="M 0 0 
L -3.5 0 
" style="stroke: #000000; stroke-width: 0.8"/>
      </defs>
      <g>
       <use xlink:href="#m23552e39f9" x="51.24" y="267.185964" style="stroke: #000000; stroke-width: 0.8"/>
      </g>
     </g>
     <g id="text_6">
      <!-- 50 -->
      <g transform="translate(31.515 270.984792) scale(0.1 -0.1)">
       <use xlink:href="#DejaVuSans-18"/>
       <use xlink:href="#DejaVuSans-13" transform="translate(63.625 0)"/>
      </g>
     </g>
    </g>
    <g id="ytick_2">
     <g id="line2d_7">
      <g>
       <use xlink:href="#m23552e39f9" x="51.24" y="210.051605" style="stroke: #000000; stroke-width: 0.8"/>
      </g>
     </g>
     <g id="text_7">
      <!-- 100 -->
      <g transform="translate(25.1525 213.850433) scale(0.1 -0.1)">
       <defs>
        <path id="DejaVuSans-14" d="M 794 531 
L 1825 531 
L 1825 4091 
L 703 3866 
L 703 4441 
L 1819 4666 
L 2450 4666 
L 2450 531 
L 3481 531 
L 3481 0 
L 794 0 
L 794 531 
z
" transform="scale(0.015625)"/>
       </defs>
       <use xlink:href="#DejaVuSans-14"/>
       <use xlink:href="#DejaVuSans-13" transform="translate(63.625 0)"/>
       <use xlink:href="#DejaVuSans-13" transform="translate(127.25 0)"/>
      </g>
     </g>
    </g>
    <g id="ytick_3">
     <g id="line2d_8">
      <g>
       <use xlink:href="#m23552e39f9" x="51.24" y="152.917246" style="stroke: #000000; stroke-width: 0.8"/>
      </g>
     </g>
     <g id="text_8">
      <!-- 150 -->
      <g transform="translate(25.1525 156.716074) scale(0.1 -0.1)">
       <use xlink:href="#DejaVuSans-14"/>
       <use xlink:href="#DejaVuSans-18" transform="translate(63.625 0)"/>
       <use xlink:href="#DejaVuSans-13" transform="translate(127.25 0)"/>
      </g>
     </g>
    </g>
    <g id="ytick_4">
     <g id="line2d_9">
      <g>
       <use xlink:href="#m23552e39f9" x="51.24" y="95.782887" style="stroke: #000000; stroke-width: 0.8"/>
      </g>
     </g>
     <g id="text_9">
      <!-- 200 -->
      <g transform="translate(25.1525 99.581716) scale(0.1 -0.1)">
       <use xlink:href="#DejaVuSans-15"/>
       <use xlink:href="#DejaVuSans-13" transform="translate(63.625 0)"/>
       <use xlink:href="#DejaVuSans-13" transform="translate(127.25 0)"/>
      </g>
     </g>
    </g>
    <g id="ytick_5">
     <g id="line2d_10">
      <g>
       <use xlink:href="#m23552e39f9" x="51.24" y="38.648529" style="stroke: #000000; stroke-width: 0.8"/>
      </g>
     </g>
     <g id="text_10">
      <!-- 250 -->
      <g transform="translate(25.1525 42.447357) scale(0.1 -0.1)">
       <use xlink:href="#DejaVuSans-15"/>
       <use xlink:href="#DejaVuSans-18" transform="translate(63.625 0)"/>
       <use xlink:href="#DejaVuSans-13" transform="translate(127.25 0)"/>
      </g>
     </g>
    </g>
    <g id="text_11">
     <!-- Price (CAD) -->
     <g transform="translate(18.750156 189.508594) rotate(-90) scale(0.1 -0.1)">
      <defs>
       <path id="DejaVuSans-33" d="M 1259 4147 
L 1259 2394 
L 2053 2394 
Q 2494 2394 2734 2622 
Q 2975 2850 2975 3272 
Q 2975 3691 2734 3919 
Q 2494 4147 2053 4147 
L 1259 4147 
z
M 628 4666 
L 2053 4666 
Q 2838 4666 3239 4311 
Q 3641 3956 3641 3272 
Q 3641 2581 3239 2228 
Q 2838 1875 2053 1875 
L 1259 1875 
L 1259 0 
L 628 0 
L 628 4666 
z
" transform="scale(0.015625)"/>
       <path id="DejaVuSans-55" d="M 2631 2963 
Q 2534 3019 2420 3045 
Q 2306 3072 2169 3072 
Q 1681 3072 1420 2755 
Q 1159 2438 1159 1844 
L 1159 0 
L 581 0 
L 581 3500 
L 1159 3500 
L 1159 2956 
Q 1341 3275 1631 3429 
Q 1922 3584 2338 3584 
Q 2397 3584 2469 3576 
Q 2541 3569 2628 3553 
L 2631 2963 
z
" transform="scale(0.015625)"/>
       <path id="DejaVuSans-4c" d="M 603 3500 
L 1178 3500 
L 1178 0 
L 603 0 
L 603 3500 
z
M 603 4863 
L 1178 4863 
L 1178 4134 
L 603 4134 
L 603 4863 
z
" transform="scale(0.015625)"/>
       <path id="DejaVuSans-46" d="M 3122 3366 
L 3122 2828 
Q 2878 2963 2633 3030 
Q 2388 3097 2138 3097 
Q 1578 3097 1268 2742 
Q 959 2388 959 1747 
Q 959 1106 1268 751 
Q 1578 397 2138 397 
Q 2388 397 2633 464 
Q 2878 531 3122 666 
L 3122 134 
Q 2881 22 2623 -34 
Q 2366 -91 2075 -91 
Q 1284 -91 818 406 
Q 353 903 353 1747 
Q 353 2603 823 3093 
Q 1294 3584 2113 3584 
Q 2378 3584 2631 3529 
Q 2884 3475 3122 3366 
z
" transform="scale(0.015625)"/>
       <path id="DejaVuSans-48" d="M 3597 1894 
L 3597 1613 
L 953 1613 
Q 991 1019 1311 708 
Q 1631 397 2203 397 
Q 2534 397 2845 478 
Q 3156 559 3463 722 
L 3463 178 
Q 3153 47 2828 -22 
Q 2503 -91 2169 -91 
Q 1331 -91 842 396 
Q 353 884 353 1716 
Q 353 2575 817 3079 
Q 1281 3584 2069 3584 
Q 2775 3584 3186 3129 
Q 3597 2675 3597 1894 
z
M 3022 2063 
Q 3016 2534 2758 2815 
Q 2500 3097 2075 3097 
Q 1594 3097 1305 2825 
Q 1016 2553 972 2059 
L 3022 2063 
z
" transform="scale(0.015625)"/>
       <path id="DejaVuSans-3" transform="scale(0.015625)"/>
       <path id="DejaVuSans-b" d="M 1984 4856 
Q 1566 4138 1362 3434 
Q 1159 2731 1159 2009 
Q 1159 1288 1364 580 
Q 1569 -128 1984 -844 
L 1484 -844 
Q 1016 -109 783 600 
Q 550 1309 550 2009 
Q 550 2706 781 3412 
Q 1013 4119 1484 4856 
L 1984 4856 
z
" transform="scale(0.015625)"/>
       <path id="DejaVuSans-26" d="M 4122 4306 
L 4122 3641 
Q 3803 3938 3442 4084 
Q 3081 4231 2675 4231 
Q 1875 4231 1450 3742 
Q 1025 3253 1025 2328 
Q 1025 1406 1450 917 
Q 1875 428 2675 428 
Q 3081 428 3442 575 
Q 3803 722 4122 1019 
L 4122 359 
Q 3791 134 3420 21 
Q 3050 -91 2638 -91 
Q 1578 -91 968 557 
Q 359 1206 359 2328 
Q 359 3453 968 4101 
Q 1578 4750 2638 4750 
Q 3056 4750 3426 4639 
Q 3797 4528 4122 4306 
z
" transform="scale(0.015625)"/>
       <path id="DejaVuSans-24" d="M 2188 4044 
L 1331 1722 
L 3047 1722 
L 2188 4044 
z
M 1831 4666 
L 2547 4666 
L 4325 0 
L 3669 0 
L 3244 1197 
L 1141 1197 
L 716 0 
L 50 0 
L 1831 4666 
z
" transform="scale(0.015625)"/>
       <path id="DejaVuSans-27" d="M 1259 4147 
L 1259 519 
L 2022 519 
Q 2988 519 3436 956 
Q 3884 1394 3884 2338 
Q 3884 3275 3436 3711 
Q 2988 4147 2022 4147 
L 1259 4147 
z
M 628 4666 
L 1925 4666 
Q 3281 4666 3915 4102 
Q 4550 3538 4550 2338 
Q 4550 1131 3912 565 
Q 3275 0 1925 0 
L 628 0 
L 628 4666 
z
" transform="scale(0.015625)"/>
       <path id="DejaVuSans-c" d="M 513 4856 
L 1013 4856 
Q 1481 4119 1714 3412 
Q 1947 2706 1947 2009 
Q 1947 1309 1714 600 
Q 1481 -109 1013 -844 
L 513 -844 
Q 928 -128 1133 580 
Q 1338 1288 1338 2009 
Q 1338 2731 1133 3434 
Q 928 4138 513 4856 
z
" transform="scale(0.015625)"/>
      </defs>
      <use xlink:href="#DejaVuSans-33"/>
      <use xlink:href="#DejaVuSans-55" transform="translate(58.546875 0)"/>
      <use xlink:href="#DejaVuSans-4c" transform="translate(99.65625 0)"/>
      <use xlink:href="#DejaVuSans-46" transform="translate(127.4375 0)"/>
      <use xlink:href="#DejaVuSans-48" transform="translate(182.421875 0)"/>
      <use xlink:href="#DejaVuSans-3" transform="translate(243.953125 0)"/>
      <use xlink:href="#DejaVuSans-b" transform="translate(275.734375 0)"/>
      <use xlink:href="#DejaVuSans-26" transform="translate(314.75 0)"/>
      <use xlink:href="#DejaVuSans-24" transform="translate(384.578125 0)"/>
      <use xlink:href="#DejaVuSans-27" transform="translate(452.984375 0)"/>
      <use xlink:href="#DejaVuSans-c" transform="translate(529.984375 0)"/>
     </g>
    </g>
   </g>
   <g id="line2d_11">
    <path d="M 77.874545 119.778167 
L 78.166431 116.308974 
L 79.042087 115.928468 
L 79.333973 112.882063 
L 79.625858 113.141442 
L 79.917743 116.026737 
L 80.209629 117.217408 
L 81.085285 113.532253 
L 81.377171 114.206434 
L 81.669056 117.16599 
L 82.252827 117.693917 
L 83.420369 105.340321 
L 83.712254 107.362882 
L 84.004139 114.290999 
L 84.296025 111.441133 
L 85.171681 111.524547 
L 85.463567 107.225765 
L 85.755452 115.204001 
L 86.047337 116.946592 
L 86.339223 116.393539 
L 87.214879 110.052772 
L 87.79865 98.981264 
L 88.090535 95.381807 
L 88.382421 87.961192 
L 90.425619 110.295011 
L 91.593161 106.057935 
L 91.885046 101.232359 
L 92.468817 105.443159 
L 93.344473 101.625454 
L 93.636359 105.788253 
L 93.928244 112.06618 
L 94.22013 109.322587 
L 94.512015 110.106475 
L 95.679557 110.540685 
L 95.971442 108.722683 
L 96.263328 109.369437 
L 96.555213 111.557675 
L 97.430869 109.916789 
L 97.722755 102.660718 
L 98.01464 101.104379 
L 98.306526 104.87525 
L 98.598411 103.308623 
L 99.474067 101.267789 
L 99.765953 104.171358 
L 100.057838 102.346486 
L 100.349724 103.216073 
L 100.641609 101.898555 
L 101.809151 102.09281 
L 102.101036 110.035633 
L 102.392922 107.001782 
L 102.684807 109.289458 
L 103.560463 111.017194 
L 103.852349 114.18701 
L 104.144234 111.619382 
L 104.43612 110.604675 
L 104.728005 107.754827 
L 105.603661 114.568667 
L 105.895547 113.688793 
L 106.187432 110.418423 
L 106.479318 110.952053 
L 106.771203 115.403975 
L 107.646859 116.04501 
L 107.938745 126.075518 
L 108.23063 128.016949 
L 108.522516 127.867261 
L 108.814401 129.255622 
L 109.690057 135.234155 
L 109.981943 135.090186 
L 110.565714 123.571897 
L 110.857599 128.08209 
L 112.025141 131.101068 
L 112.317026 125.416192 
L 112.608912 125.306502 
L 112.900797 122.822288 
L 114.068339 114.429249 
L 114.360224 114.745782 
L 114.65211 112.856921 
L 114.943995 122.712598 
L 115.819651 122.5389 
L 116.111537 131.36273 
L 116.403422 132.15804 
L 116.695308 118.632063 
L 116.987193 117.834469 
L 117.862849 108.37187 
L 118.154735 115.061165 
L 118.44662 112.763219 
L 118.738506 104.965516 
L 119.030391 106.916084 
L 119.906047 105.982507 
L 120.197933 103.176075 
L 120.489818 113.742496 
L 120.781704 109.763666 
L 121.073589 84.926208 
L 121.949245 87.461842 
L 122.241131 83.822386 
L 122.533016 88.242296 
L 122.824902 82.245472 
L 123.116787 79.805841 
L 124.284329 96.475359 
L 124.576214 88.926764 
L 125.159985 95.331521 
L 126.035641 95.782887 
L 126.619412 110.266451 
L 126.911298 112.477548 
L 127.203183 117.531658 
L 128.078839 115.947892 
L 128.370725 104.413596 
L 128.66261 104.662705 
L 128.954496 107.310313 
L 129.246381 112.098175 
L 130.122037 119.533644 
L 130.413923 125.439051 
L 130.705808 123.939849 
L 130.997694 130.784534 
L 131.289579 129.449877 
L 132.165235 134.381725 
L 132.457121 122.046402 
L 132.749006 121.302512 
L 133.040892 114.065882 
L 134.792204 120.754027 
L 135.08409 120.749458 
L 135.375975 125.299633 
L 136.835402 151.38033 
L 137.127288 154.34904 
L 137.419173 159.067193 
L 138.294829 160.471542 
L 138.586715 157.857081 
L 138.8786 157.2766 
L 139.170486 171.993266 
L 139.462371 166.392955 
L 140.629913 173.366771 
L 140.921798 176.934251 
L 141.213684 177.806122 
L 141.505569 197.436337 
L 142.381225 188.516522 
L 142.673111 195.222956 
L 142.964996 198.491042 
L 143.256882 205.47743 
L 143.548767 197.027253 
L 144.424423 184.11832 
L 144.716309 181.756384 
L 145.30008 206.881788 
L 145.591965 196.540475 
L 146.467621 199.031533 
L 146.759507 196.844428 
L 147.051392 190.603073 
L 147.635163 199.818839 
L 148.510819 201.030093 
L 148.802705 194.897286 
L 149.09459 217.032282 
L 149.386476 228.667122 
L 149.678361 228.677409 
L 150.845903 232.810505 
L 151.137788 232.994481 
L 151.429674 227.12107 
L 151.721559 226.054936 
L 152.597215 223.772996 
L 153.472872 231.439284 
L 153.764757 236.944752 
L 154.640413 242.202253 
L 154.932299 248.460748 
L 155.224184 238.150278 
L 155.51607 243.519771 
L 156.683611 249.229781 
L 156.975497 243.531201 
L 157.267382 234.140595 
L 157.851153 226.085789 
L 158.726809 225.984093 
L 159.018695 220.050118 
L 159.31058 223.26335 
L 159.602466 223.467892 
L 159.894351 227.574712 
L 160.770007 223.915832 
L 161.061893 218.098408 
L 161.645664 227.709553 
L 161.937549 225.396752 
L 162.813205 220.58604 
L 163.105091 223.938682 
L 163.396976 230.343447 
L 163.688862 231.634681 
L 163.980747 237.706924 
L 164.856403 235.188439 
L 165.148289 238.935309 
L 165.440174 237.57094 
L 165.73206 240.683619 
L 166.899601 240.512214 
L 167.191487 236.947036 
L 167.483372 249.125792 
L 167.775258 255.235741 
L 168.067143 257.463982 
L 168.9428 257.559967 
L 169.234685 261.578796 
L 169.52657 263.34425 
L 169.818456 259.398552 
L 170.110341 261.526235 
L 171.277883 256.0859 
L 171.569768 253.667972 
L 171.861654 263.80018 
L 172.153539 268.777729 
L 173.029196 273.768986 
L 173.321081 274.396321 
L 173.612966 276.966221 
L 174.196737 264.931442 
L 175.072394 271.440187 
L 175.364279 269.752437 
L 175.656164 271.199082 
L 175.94805 266.995135 
L 176.239935 271.036818 
L 177.407477 276.761683 
L 177.699362 275.552718 
L 178.283133 270.691729 
L 179.450675 270.059821 
L 179.74256 272.061808 
L 180.034446 267.055699 
L 180.326331 273.455888 
L 181.201988 272.609155 
L 181.493873 269.868993 
L 181.785758 268.199528 
L 182.369529 273.487883 
L 183.537071 279.407003 
L 183.828956 276.302323 
L 184.120842 279.237886 
L 184.412727 277.145625 
L 185.580269 275.88867 
L 185.872154 274.197494 
L 186.455925 267.518486 
L 187.331582 269.39135 
L 188.207238 278.361443 
L 189.666665 273.630719 
L 189.95855 275.116211 
L 190.250436 271.950967 
L 190.542321 271.665295 
L 191.417978 276.327461 
L 191.709863 276.156056 
L 192.001748 276.658841 
L 192.293634 278.418581 
L 193.461176 276.053214 
L 193.753061 273.779269 
L 194.044946 267.574477 
L 194.336832 264.86631 
L 194.628717 269.197091 
L 195.504374 270.488329 
L 195.796259 277.824383 
L 196.088144 272.705145 
L 196.38003 271.699579 
L 196.671915 273.345047 
L 197.839457 268.785727 
L 198.131342 262.78662 
L 198.423228 264.043574 
L 198.715113 264.054999 
L 199.59077 265.91758 
L 199.882655 270.282645 
L 200.17454 265.014856 
L 200.466426 265.289103 
L 200.758311 264.900589 
L 201.633968 265.540496 
L 201.925853 266.226106 
L 202.217738 269.322787 
L 202.509624 269.779864 
L 202.801509 273.550731 
L 203.677166 274.899102 
L 203.969051 276.258898 
L 204.552822 273.607864 
L 204.844707 276.064644 
L 205.720364 276.841671 
L 206.012249 277.367306 
L 206.304134 276.807388 
L 206.59602 277.298743 
L 206.887905 279.13847 
L 208.055447 279.469851 
L 208.639218 276.521716 
L 208.931103 272.545165 
L 209.80676 272.145226 
L 210.098645 275.047653 
L 210.390531 273.630719 
L 210.682416 273.127938 
L 210.974301 276.144631 
L 211.849958 274.476309 
L 212.141843 277.070209 
L 212.433729 277.367306 
L 212.725614 280.304012 
L 213.017499 279.641256 
L 213.893156 279.972632 
L 214.185041 280.53255 
L 214.476927 278.772811 
L 214.768812 282.406556 
L 215.060697 281.823788 
L 215.936354 281.126748 
L 216.228239 275.630421 
L 216.81201 277.104489 
L 217.103895 281.640958 
L 218.271437 283.903478 
L 218.563323 283.263572 
L 219.147093 282.932192 
L 220.02275 280.761088 
L 220.314635 279.161325 
L 220.606521 279.709814 
L 220.898406 277.538711 
L 222.065948 279.195604 
L 222.357833 277.892941 
L 222.649719 279.229888 
L 222.941604 271.50532 
L 223.233489 271.128235 
L 224.109146 270.945405 
L 224.401031 270.122669 
L 224.692917 271.790992 
L 224.984802 271.32249 
L 225.276687 274.807685 
L 226.152344 274.602005 
L 226.444229 273.939245 
L 226.736115 276.590279 
L 227.028 268.72859 
L 227.319885 264.512075 
L 228.195542 265.906155 
L 228.487427 263.483655 
L 228.779313 265.654763 
L 229.363083 268.305797 
L 230.23874 270.202657 
L 230.530625 270.385487 
L 230.822511 268.1801 
L 231.406281 268.122967 
L 232.281938 265.654763 
L 232.573823 266.671754 
L 233.157594 257.713086 
L 233.449479 258.090175 
L 234.325136 260.946893 
L 234.617021 263.517939 
L 234.908907 264.317821 
L 235.492677 264.443513 
L 236.368334 264.580638 
L 236.660219 264.272112 
L 236.952105 265.106273 
L 237.24399 267.517344 
L 238.411532 268.934274 
L 238.703417 268.317226 
L 238.995303 268.031554 
L 239.579073 271.950967 
L 241.038501 273.58501 
L 241.330386 269.974119 
L 241.622271 270.6026 
L 242.789813 268.568614 
L 243.081699 266.488924 
L 243.373584 268.522906 
L 243.665469 267.688744 
L 244.541126 267.403073 
L 244.833011 268.317226 
L 245.124897 268.420068 
L 245.416782 268.202955 
L 245.708667 264.797747 
L 246.876209 263.152279 
L 247.168095 263.883598 
L 247.45998 265.711896 
L 247.751866 262.432385 
L 248.627522 257.004621 
L 248.919407 259.084311 
L 249.211293 251.942517 
L 249.503178 250.708417 
L 249.795064 248.148791 
L 250.67072 252.091067 
L 250.962605 249.394325 
L 251.254491 248.000245 
L 251.546376 242.743886 
L 251.838262 243.269521 
L 253.005803 245.680591 
L 253.297689 247.783132 
L 253.589574 247.920257 
L 253.88146 250.685558 
L 254.757116 250.011377 
L 255.049001 247.965966 
L 255.340887 242.686748 
L 255.632772 255.313445 
L 255.924658 257.244584 
L 257.092199 260.261278 
L 257.384085 259.175728 
L 257.67597 258.752931 
L 257.967856 260.981172 
L 258.843512 261.541091 
L 259.135397 260.124157 
L 259.427283 261.998163 
L 259.719168 260.36412 
L 260.011054 256.913204 
L 260.88671 256.673241 
L 261.178595 257.58739 
L 261.470481 255.47342 
L 261.762366 256.364715 
L 262.054252 258.810065 
L 262.929908 258.752931 
L 263.221793 255.896213 
L 263.513679 255.850509 
L 263.805564 254.250745 
L 264.09745 254.205037 
L 264.973106 255.83908 
L 265.264991 252.639556 
L 265.556877 253.827952 
L 265.848762 252.570994 
L 266.140648 253.782244 
L 267.016304 253.953644 
L 267.308189 255.47342 
L 267.600075 251.976796 
L 267.89196 252.433872 
L 268.183846 250.27419 
L 269.059502 251.222622 
L 269.351387 251.165493 
L 269.643273 254.78781 
L 269.935158 254.410721 
L 271.1027 254.342158 
L 271.394585 255.382003 
L 271.686471 254.742101 
L 271.978356 254.62783 
L 273.437783 248.994386 
L 273.729669 248.89154 
L 274.021554 250.559862 
L 274.31344 248.594447 
L 275.189096 250.022806 
L 275.480981 251.942517 
L 275.772867 252.011079 
L 276.356638 249.314337 
L 277.816065 252.273897 
L 278.10795 235.590662 
L 278.399836 229.431578 
L 279.275492 225.900679 
L 279.567377 226.620569 
L 279.859263 227.671839 
L 280.151148 227.2719 
L 280.443034 229.340161 
L 281.31869 229.443008 
L 281.610575 231.602686 
L 282.194346 230.380011 
L 282.486232 231.408431 
L 283.653773 234.310857 
L 283.945659 232.699664 
L 284.237544 234.425124 
L 284.52943 232.116891 
L 285.696971 233.88806 
L 285.988857 235.567812 
L 286.280742 235.327848 
L 286.572628 234.905051 
L 287.448284 232.265446 
L 287.740169 226.791974 
L 288.032055 233.282437 
L 288.32394 233.853781 
L 288.615826 230.7571 
L 289.491482 224.952247 
L 289.783367 227.203342 
L 290.075253 223.935256 
L 290.367138 224.403753 
L 290.659024 226.58629 
L 291.826565 227.157633 
L 292.118451 229.294453 
L 292.410336 228.940222 
L 292.702222 228.208903 
L 293.577878 229.305882 
L 293.869763 228.220333 
L 294.161649 226.449164 
L 294.453534 227.808965 
L 294.74542 226.483443 
L 296.204847 226.540581 
L 296.496732 229.877226 
L 296.788618 230.734241 
L 297.664274 230.402861 
L 297.956159 228.791676 
L 298.248045 225.009376 
L 298.53993 218.91886 
L 298.831816 220.849995 
L 299.707472 220.758587 
L 299.999357 223.11252 
L 300.291243 221.581314 
L 300.583128 225.809262 
L 300.875014 225.237918 
L 301.75067 224.735133 
L 302.042555 226.483443 
L 302.334441 226.734836 
L 302.626326 227.580422 
L 302.918212 224.449462 
L 304.085753 221.912695 
L 304.669524 234.173732 
L 304.96141 235.739216 
L 306.128951 238.241695 
L 306.420837 239.635775 
L 306.712722 237.567514 
L 307.004608 239.430091 
L 307.880264 238.195987 
L 308.172149 238.961594 
L 308.464035 238.721622 
L 308.75592 241.978287 
L 309.047806 242.069696 
L 309.923462 240.8356 
L 310.215347 240.675625 
L 310.507233 236.527665 
L 310.799118 238.253125 
L 311.091004 237.967453 
L 311.96666 236.744778 
L 312.258545 233.16817 
L 312.550431 231.522698 
L 312.842316 221.604173 
L 313.134202 220.644311 
L 314.301743 221.764148 
L 314.593629 221.69559 
L 314.885514 223.021103 
L 315.1774 226.060655 
L 316.053056 224.118081 
L 316.344941 226.711986 
L 316.636827 227.306179 
L 316.928712 226.346326 
L 317.220598 227.2719 
L 318.680025 236.630511 
L 318.97191 241.57834 
L 319.263796 242.538202 
L 320.139452 241.921149 
L 320.431337 244.743588 
L 320.723223 244.286512 
L 321.306994 239.601496 
L 322.18265 239.944306 
L 322.474535 243.829435 
L 322.766421 241.784024 
L 323.058306 242.60676 
L 323.350192 240.595637 
L 324.517733 238.847318 
L 325.101504 240.85845 
L 325.39339 243.840864 
L 326.269046 241.441223 
L 326.560932 239.875738 
L 327.144702 243.075266 
L 327.436588 244.217953 
L 328.312244 244.492196 
L 328.60413 242.195392 
L 328.896015 247.874549 
L 329.1879 250.58272 
L 329.479786 250.788404 
L 330.355442 250.205632 
L 330.647328 249.485742 
L 330.939213 247.006104 
L 331.231098 230.528557 
L 331.522984 228.266041 
L 332.39864 229.71725 
L 332.982411 225.375044 
L 333.274296 228.985931 
L 333.566182 227.569001 
L 334.441838 225.980667 
L 335.025609 218.22182 
L 335.317494 218.404645 
L 335.60938 217.056274 
L 336.485036 215.250835 
L 336.776922 215.147989 
L 337.068807 213.33112 
L 337.652578 214.325252 
L 338.528234 209.468832 
L 338.82012 210.24586 
L 339.112005 210.371556 
L 339.40389 211.365697 
L 339.695776 210.371556 
L 340.571432 212.108445 
L 340.863318 208.246157 
L 341.155203 213.811047 
L 341.738974 211.662798 
L 342.61463 211.331418 
L 342.906516 211.719927 
L 343.198401 210.360127 
L 343.490286 205.572273 
L 343.782172 206.589264 
L 344.657828 206.280734 
L 344.949714 204.909513 
L 345.241599 209.148881 
L 345.533484 208.760372 
L 345.82537 207.914777 
L 347.284797 206.07505 
L 347.576682 204.760966 
L 347.868568 206.440709 
L 349.03611 211.891332 
L 349.327995 214.713771 
L 349.911766 210.531531 
L 350.787422 205.755099 
L 351.079308 201.721414 
L 351.371193 200.384472 
L 351.663078 199.881687 
L 351.954964 199.618874 
L 353.122506 198.864696 
L 353.414391 200.338764 
L 353.706276 204.783816 
L 353.998162 201.481451 
L 354.873818 200.613006 
L 355.165704 199.41319 
L 355.457589 199.481749 
L 355.749474 200.350193 
L 356.04136 198.990393 
L 356.917016 196.30508 
L 357.208902 198.247644 
L 357.500787 201.332905 
L 357.792672 206.966353 
L 358.084558 196.785006 
L 358.960214 198.40762 
L 359.2521 198.659012 
L 359.83587 189.220414 
L 360.127756 184.786791 
L 361.003412 187.323558 
L 361.295298 204.509574 
L 361.879068 195.162392 
L 362.170954 199.058951 
L 363.338496 202.852672 
L 363.630381 207.674813 
L 363.922267 208.703234 
L 364.214152 206.703531 
L 365.089808 204.589562 
L 365.673579 207.092049 
L 365.965465 205.835086 
L 366.25735 205.629402 
L 367.133006 206.783519 
L 367.424892 210.200151 
L 367.716777 209.971617 
L 368.300548 206.852077 
L 369.176204 208.817501 
L 369.46809 206.600693 
L 369.759975 203.229761 
L 370.051861 203.115494 
L 370.343746 204.932363 
L 371.511288 204.121056 
L 371.803173 198.978963 
L 372.095059 201.275767 
L 372.386944 201.904248 
L 373.2626 202.646988 
L 373.554486 202.57843 
L 373.846371 202.395604 
L 374.138257 204.909513 
L 375.305798 203.024077 
L 375.597684 203.184053 
L 375.889569 207.343433 
L 376.181455 208.48612 
L 376.47334 207.43485 
L 377.348996 208.908918 
L 377.640882 208.166169 
L 377.932767 211.811344 
L 378.224653 212.462676 
L 378.516538 214.130998 
L 379.392194 216.324955 
L 379.68408 215.856458 
L 379.975965 215.056572 
L 380.267851 214.862317 
L 380.559736 214.828038 
L 381.435392 213.879605 
L 381.727278 208.794651 
L 382.311049 214.245265 
L 382.602934 212.942602 
L 383.47859 211.160013 
L 383.770476 213.879605 
L 384.062361 213.651071 
L 384.354247 211.777065 
L 384.646132 207.926206 
L 385.521788 203.561141 
L 385.813674 203.481154 
L 386.105559 225.866391 
L 386.397445 226.746265 
L 386.68933 232.242588 
L 387.564986 232.562539 
L 387.856872 233.830922 
L 388.148757 232.928198 
L 388.440643 234.356557 
L 388.732528 233.328146 
L 389.90007 235.362128 
L 390.191955 232.436842 
L 390.775726 235.339269 
L 391.943268 233.57953 
L 392.235153 232.85964 
L 392.527039 232.802511 
L 392.818924 232.151171 
L 393.69458 231.317014 
L 393.986466 229.511566 
L 394.278351 228.517434 
L 394.570237 228.32317 
L 396.029664 223.969535 
L 396.321549 221.604173 
L 396.613435 222.74686 
L 396.90532 218.118974 
L 397.780976 219.958701 
L 398.072862 223.603875 
L 398.656633 224.426612 
L 398.948518 222.552605 
L 399.824174 223.969535 
L 400.11606 223.226787 
L 400.699831 220.404348 
L 400.991716 221.009971 
L 402.159258 221.101388 
L 402.451143 219.375936 
L 403.034914 218.975989 
L 403.91057 219.29594 
L 404.202456 221.32993 
L 404.494341 222.221225 
L 404.786227 222.529747 
L 405.078112 223.192507 
L 405.953768 223.969535 
L 406.245654 215.399381 
L 406.537539 222.952544 
L 406.829425 225.409323 
L 407.12131 225.180781 
L 407.996966 225.752124 
L 408.288852 225.626428 
L 408.580737 230.76852 
L 408.872623 230.39144 
L 409.164508 229.557275 
L 410.040164 229.545845 
L 410.33205 230.619974 
L 410.623935 227.694698 
L 411.207706 238.150278 
L 412.375248 239.121569 
L 412.667133 223.912397 
L 412.959019 216.736323 
L 413.250904 215.616495 
L 414.12656 217.021995 
L 414.710331 212.085587 
L 415.002217 206.874936 
L 415.294102 207.720522 
L 416.169758 207.229166 
L 416.461644 207.77766 
L 416.753529 206.006491 
L 417.045415 208.714663 
L 417.3373 206.73781 
L 418.212956 208.794651 
L 418.504842 209.811642 
L 418.796727 212.611222 
L 419.380498 210.268718 
L 420.54804 213.959593 
L 420.839925 215.879308 
L 421.131811 216.062142 
L 421.423696 220.461486 
L 422.591238 218.313237 
L 422.883123 213.399679 
L 423.175009 213.662501 
L 423.466894 211.834194 
L 424.34255 210.074455 
L 424.926321 207.194887 
L 425.218207 202.349896 
L 425.510092 202.327037 
L 426.385748 200.647286 
L 426.677634 200.955816 
L 426.969519 202.178491 
L 427.261405 199.950254 
L 427.55329 201.927098 
L 428.428946 200.510169 
L 428.720832 203.218332 
L 429.012717 202.247049 
L 429.304603 203.218332 
L 429.596488 196.442196 
L 430.472144 198.40762 
L 431.055915 193.596908 
L 431.347801 194.271098 
L 431.639686 193.379803 
L 433.099113 195.745165 
L 433.390999 195.59661 
L 433.682884 193.82545 
L 434.55854 193.654046 
L 434.850426 195.436635 
L 435.142311 198.419049 
L 435.434197 197.973402 
L 435.726082 198.807567 
L 436.601738 197.516325 
L 436.893624 196.282221 
L 437.185509 197.196374 
L 437.477395 199.858837 
L 437.76928 198.327632 
L 438.644936 199.698862 
L 438.936822 198.464758 
L 439.812478 185.769502 
L 440.688134 181.061628 
L 440.98002 150.334779 
L 441.271905 140.119153 
L 441.563791 148.997837 
L 441.855676 149.63774 
L 442.731333 154.642697 
L 443.023218 157.499415 
L 443.315103 158.242173 
L 443.606989 154.277047 
L 443.898874 153.511448 
L 445.066416 144.152838 
L 445.358301 144.004283 
L 445.942072 139.387834 
L 447.109614 144.381372 
L 447.401499 141.913163 
L 447.693385 141.398957 
L 447.98527 132.863083 
L 448.860927 137.582386 
L 449.152812 140.564801 
L 449.444697 134.280021 
L 449.736583 136.725371 
L 450.028468 137.81092 
L 450.904125 135.41127 
L 451.19601 129.057932 
L 451.487895 143.364381 
L 451.779781 148.24366 
L 452.071666 145.238387 
L 452.947323 144.861298 
L 453.239208 142.061718 
L 454.114864 146.026844 
L 454.990521 149.260651 
L 455.282406 149.500605 
L 455.866177 147.306648 
L 456.158062 143.924304 
L 457.033719 137.296715 
L 457.325604 149.077817 
L 457.617489 147.340927 
L 458.20126 153.237197 
L 459.076917 156.95093 
L 459.368802 157.69367 
L 459.660687 153.580007 
L 459.952573 154.048513 
L 460.244458 153.431452 
L 461.703885 149.454905 
L 461.995771 149.877694 
L 462.287656 147.809433 
L 463.163313 147.94655 
L 463.455198 130.977656 
L 463.747083 131.823233 
L 464.038969 127.138226 
L 464.330854 130.50915 
L 465.206511 133.982911 
L 465.790281 125.058527 
L 466.082167 130.097782 
L 466.374052 132.725966 
L 467.249709 128.292334 
L 467.541594 122.55604 
L 467.833479 127.686711 
L 468.125365 117.471085 
L 468.41725 116.442674 
L 469.584792 114.694364 
L 469.876677 116.728345 
L 470.168563 124.384346 
L 470.460448 136.371141 
L 471.336105 136.199727 
L 471.62799 142.884454 
L 471.919875 138.587957 
L 472.211761 141.410378 
L 472.503646 139.1593 
L 473.379303 147.718016 
L 473.671188 156.071056 
L 473.963073 150.437617 
L 474.254959 156.756676 
L 474.546844 159.944765 
L 475.422501 171.280237 
L 475.714386 171.245941 
L 476.006271 165.669639 
L 476.298157 174.948253 
L 476.590042 168.537778 
L 477.465699 166.606634 
L 477.757584 170.766014 
L 478.049469 158.047918 
L 478.341355 157.830804 
L 478.63324 153.431452 
L 479.508897 145.432642 
L 479.800782 145.112691 
L 480.092667 154.334185 
L 480.384553 156.779534 
L 480.676438 166.34382 
L 481.552095 167.886455 
L 481.84398 164.664069 
L 482.135866 159.567694 
L 482.427751 191.905736 
L 482.719636 199.287494 
L 483.595293 195.985129 
L 483.887178 198.807567 
L 484.179064 176.810839 
L 484.470949 189.186135 
L 484.762834 191.322963 
L 485.638491 193.082702 
L 485.930376 190.203126 
L 486.514147 191.734331 
L 487.973574 188.934742 
L 488.557345 173.748428 
L 488.84923 170.434643 
L 490.016772 167.932155 
L 490.308658 174.491186 
L 490.892428 167.760759 
L 491.768085 169.086263 
L 492.05997 176.639426 
L 492.351856 174.296931 
L 492.643741 174.765419 
L 492.935626 178.079214 
L 494.395054 146.255378 
L 494.686939 148.426494 
L 494.978824 147.306648 
L 496.146366 155.168341 
L 496.438252 162.264419 
L 496.730137 160.698943 
L 497.022022 164.904041 
L 498.189564 155.762543 
L 498.48145 154.882669 
L 498.773335 154.505581 
L 499.06522 156.756676 
L 499.940877 157.567991 
L 500.524648 162.390115 
L 500.816533 160.310434 
L 501.108418 149.969111 
L 501.984075 155.716826 
L 502.27596 152.014531 
L 502.567846 146.061123 
L 503.151616 160.710381 
L 504.027273 156.265311 
L 504.319158 158.196455 
L 504.611044 158.322152 
L 505.194814 157.225182 
L 506.070471 151.78598 
L 506.362356 144.884157 
L 506.654242 145.866868 
L 506.946127 148.106525 
L 507.238012 146.369654 
L 508.113669 144.849877 
L 508.69744 146.106823 
L 508.989325 142.30169 
L 510.156867 142.255973 
L 510.448752 148.357918 
L 510.740638 145.5012 
L 511.032523 144.427089 
L 511.324408 149.009258 
L 512.200065 141.547512 
L 512.49195 143.935724 
L 512.783836 136.782509 
L 513.075721 125.252782 
L 513.367606 125.081386 
L 514.243263 123.447352 
L 514.535148 131.834671 
L 514.827034 134.565693 
L 515.118919 134.040049 
L 515.410804 129.355042 
L 516.286461 125.30992 
L 516.870232 129.674993 
L 517.162117 130.783401 
L 517.454002 137.342414 
L 518.621544 124.167233 
L 518.91343 81.133629 
L 519.205315 87.144175 
L 519.4972 89.13244 
L 520.372857 91.920599 
L 520.664742 89.155298 
L 520.956628 88.03547 
L 521.248513 96.399931 
L 521.540399 100.810704 
L 522.416055 98.411071 
L 522.70794 103.713139 
L 522.999826 106.718412 
L 523.291711 107.095483 
L 523.583597 99.759434 
L 524.459253 101.644878 
L 524.751138 101.656299 
L 525.043024 103.747418 
L 525.334909 101.747716 
L 525.626795 102.661869 
L 526.794336 105.255756 
L 527.086222 103.221775 
L 527.378107 94.891593 
L 527.669993 91.966316 
L 528.545649 93.611789 
L 528.837534 97.119829 
L 529.12942 98.959556 
L 529.421305 95.040148 
L 529.713191 97.508339 
L 530.588847 91.589228 
L 530.880732 93.109004 
L 531.172618 91.703486 
L 531.464503 84.653108 
L 532.632045 76.048675 
L 532.92393 87.247013 
L 533.215816 87.966911 
L 533.799587 101.039255 
L 534.675243 87.258433 
L 534.967128 88.058328 
L 535.259014 85.93293 
L 535.550899 82.939077 
L 535.842785 67.341404 
L 536.718441 62.050757 
L 537.010326 67.101432 
L 537.302212 58.736971 
L 537.594097 61.639389 
L 537.885983 82.767681 
L 539.053524 78.825414 
L 539.34541 73.591905 
L 539.929181 71.866453 
L 540.804837 59.959637 
L 541.096722 63.833346 
L 541.388608 65.433119 
L 541.972379 47.652909 
L 542.848035 44.16771 
L 543.13992 39.345569 
L 543.431806 38.9799 
L 543.723691 46.704477 
L 544.015577 45.664627 
L 544.891233 46.693039 
L 545.183118 64.66752 
L 545.475004 60.782374 
L 545.766889 72.552055 
L 546.058775 79.533874 
L 546.934431 69.855313 
L 547.226316 69.832454 
L 547.518202 73.511908 
L 547.810087 89.063881 
L 548.101973 90.160869 
L 548.977629 99.336645 
L 549.269514 99.987968 
L 549.5614 89.658083 
L 549.853285 91.303556 
L 550.145171 86.321439 
L 551.312712 70.65519 
L 551.604598 68.50695 
L 552.188369 69.24969 
L 553.064025 85.373007 
L 553.35591 73.660463 
L 553.939681 65.307423 
L 554.231567 69.752475 
L 555.107223 73.294812 
L 555.399108 70.918021 
L 555.690994 58.656975 
L 555.982879 65.033171 
L 556.274765 65.901625 
L 557.150421 72.677751 
L 557.442306 67.958448 
L 557.734192 69.478224 
L 558.026077 61.616548 
L 558.317963 57.160057 
L 559.193619 57.639984 
L 559.485504 59.079781 
L 561.236817 61.673668 
L 561.528702 68.118423 
L 561.820588 71.786457 
L 562.404359 77.351338 
L 563.5719 58.074211 
L 563.863786 60.222468 
L 564.155671 57.571425 
L 564.447557 62.61068 
L 565.323213 58.028511 
L 565.615098 58.736971 
L 565.906984 74.517478 
L 566.198869 73.294812 
L 566.490755 76.322926 
L 567.658296 95.714329 
L 567.950182 105.404311 
L 568.242067 107.563989 
L 569.409609 110.603541 
L 569.701494 110.843496 
L 569.99338 108.820952 
L 570.285265 103.176075 
L 570.577151 120.156407 
L 571.452807 117.92817 
L 571.744692 137.856638 
L 572.328463 150.163366 
L 572.620349 149.420626 
L 573.496005 140.759055 
L 573.78789 127.161085 
L 574.371661 152.288765 
L 574.663547 148.483614 
L 575.831088 147.432344 
L 576.122974 133.982911 
L 576.706745 126.761137 
L 577.582401 140.724776 
L 577.874286 140.964731 
L 578.166172 136.188307 
L 578.458057 127.606732 
L 578.749943 136.154027 
L 579.625599 137.696645 
L 579.917484 133.868653 
L 580.501255 113.76879 
L 580.793141 122.316085 
L 581.668797 117.014017 
L 581.960682 123.458772 
L 582.252568 123.241659 
L 582.836339 131.400445 
L 584.00388 124.190091 
L 584.295766 129.994944 
L 584.587651 132.051785 
L 584.879537 140.759055 
L 585.755193 134.428576 
L 586.047078 141.673209 
L 586.338964 137.239577 
L 586.922735 146.723884 
L 587.798391 146.312516 
L 588.090276 135.70838 
L 588.382162 136.119748 
L 588.674047 136.256865 
L 589.841589 135.35415 
L 590.133474 138.085171 
L 590.42536 134.325721 
L 590.717245 146.712463 
L 591.009131 148.860703 
L 591.884787 143.04443 
L 592.176672 139.170721 
L 592.468558 124.132953 
L 592.760443 125.355637 
L 593.052329 119.219395 
L 593.927985 113.460259 
L 594.21987 119.562205 
L 594.511756 117.92817 
L 594.803641 129.754972 
L 595.095527 127.915245 
L 595.971183 130.646267 
L 596.263068 133.297309 
L 596.846839 135.914055 
L 597.138725 126.086956 
L 598.014381 126.212652 
L 598.306267 157.168044 
L 598.598152 159.464839 
L 598.890037 149.980532 
L 599.181923 152.140227 
L 600.349465 167.920734 
L 600.64135 174.959674 
L 600.933235 171.554471 
L 601.225121 166.698051 
L 602.392663 165.475384 
L 602.684548 159.407701 
L 602.976433 159.190605 
L 603.268319 161.4874 
L 604.435861 158.756378 
L 604.727746 155.808243 
L 605.019631 143.307243 
L 605.311517 136.45112 
L 606.187173 128.155217 
L 606.479059 139.262138 
L 606.770944 144.827019 
L 607.062829 139.730644 
L 607.354715 149.729157 
L 608.230371 147.603758 
L 608.522257 148.197943 
L 608.814142 151.854555 
L 609.106027 148.095105 
L 609.397913 151.237495 
L 610.565455 143.215826 
L 610.565455 143.215826 
" clip-path="url(#p1841626bec)" style="fill: none; stroke: #1f77b4; stroke-width: 1.5; stroke-linecap: square"/>
   </g>
   <g id="line2d_12">
    <path d="M 77.874545 120.98899 
L 78.166431 117.393363 
L 79.042087 113.737765 
L 79.333973 111.101725 
L 79.625858 113.248599 
L 79.917743 116.391739 
L 80.209629 116.838024 
L 81.085285 114.337074 
L 81.377171 115.309149 
L 81.669056 117.372814 
L 82.252827 116.093965 
L 83.420369 107.448186 
L 83.712254 107.906192 
L 84.004139 115.608842 
L 84.296025 110.303766 
L 85.171681 111.723055 
L 85.463567 108.490291 
L 85.755452 115.000332 
L 86.047337 118.167081 
L 86.339223 116.793823 
L 87.214879 112.098129 
L 87.506765 102.240831 
L 87.79865 97.019311 
L 88.090535 95.371998 
L 88.382421 88.393436 
L 89.258077 97.093518 
L 89.549963 101.485444 
L 89.841848 103.035914 
L 90.133733 106.152282 
L 90.425619 110.945451 
L 91.593161 106.824953 
L 91.885046 101.544324 
L 92.176932 102.765564 
L 92.468817 106.464342 
L 93.344473 101.670375 
L 93.636359 105.074496 
L 93.928244 111.853717 
L 94.22013 109.4926 
L 95.387671 111.365449 
L 95.679557 111.477548 
L 95.971442 109.45935 
L 96.263328 112.174772 
L 96.555213 111.616312 
L 97.430869 107.203298 
L 97.722755 101.911236 
L 98.01464 100.901952 
L 98.306526 106.30496 
L 98.598411 102.34295 
L 99.474067 101.102793 
L 99.765953 104.629589 
L 100.057838 102.449813 
L 100.641609 101.397638 
L 101.809151 104.222102 
L 102.101036 110.763781 
L 102.392922 106.149429 
L 102.684807 109.580086 
L 103.560463 110.341023 
L 103.852349 114.571069 
L 104.144234 110.443683 
L 104.43612 111.506986 
L 104.728005 108.942231 
L 105.603661 115.090401 
L 105.895547 114.077653 
L 106.187432 109.563572 
L 106.479318 108.584875 
L 106.771203 115.392245 
L 107.646859 115.627588 
L 107.938745 126.759059 
L 108.23063 129.261188 
L 108.522516 126.734311 
L 109.690057 134.627231 
L 109.981943 134.698652 
L 110.273828 130.233353 
L 110.565714 123.186792 
L 110.857599 126.748107 
L 112.025141 130.76457 
L 112.317026 124.879254 
L 112.608912 124.401843 
L 112.900797 122.880487 
L 113.776453 117.164477 
L 114.068339 114.273009 
L 114.360224 114.337804 
L 114.65211 113.539631 
L 114.943995 122.770948 
L 115.819651 122.852187 
L 116.111537 131.420531 
L 116.403422 131.592618 
L 116.695308 118.377797 
L 116.987193 117.398013 
L 117.862849 108.165463 
L 118.154735 115.530847 
L 118.44662 112.304099 
L 118.738506 106.424245 
L 119.030391 106.914085 
L 119.906047 106.105205 
L 120.197933 103.258858 
L 120.489818 114.858186 
L 120.781704 111.676181 
L 121.073589 84.164598 
L 121.949245 86.855203 
L 122.241131 84.756475 
L 122.533016 89.152679 
L 122.824902 82.033956 
L 123.116787 80.842515 
L 123.992443 93.697944 
L 124.284329 96.012485 
L 124.576214 88.409829 
L 125.159985 96.161618 
L 126.035641 96.468324 
L 126.619412 111.246032 
L 126.911298 112.474195 
L 127.203183 117.802957 
L 128.078839 115.16042 
L 128.370725 102.584741 
L 128.66261 104.635462 
L 130.413923 126.120363 
L 130.705808 123.170564 
L 130.997694 129.692176 
L 132.165235 135.341924 
L 132.457121 121.79338 
L 132.749006 119.705081 
L 133.040892 112.956131 
L 134.792204 120.502417 
L 135.08409 120.086209 
L 135.375975 123.732902 
L 136.835402 151.564727 
L 137.127288 153.880945 
L 137.419173 157.836981 
L 138.294829 160.849852 
L 138.586715 156.832881 
L 138.8786 156.3444 
L 139.170486 172.272051 
L 139.462371 166.686883 
L 140.629913 173.4878 
L 140.921798 177.093097 
L 141.213684 177.935972 
L 141.505569 198.318894 
L 142.381225 189.616092 
L 142.673111 195.57525 
L 142.964996 199.056578 
L 143.256882 206.323048 
L 143.548767 197.28571 
L 144.424423 183.737406 
L 144.716309 181.296286 
L 145.30008 206.979151 
L 145.591965 197.409302 
L 146.467621 198.067403 
L 146.759507 197.24897 
L 147.051392 190.030426 
L 147.635163 200.074482 
L 148.510819 201.10973 
L 148.802705 194.944253 
L 149.09459 215.734247 
L 149.386476 228.574976 
L 149.678361 228.957025 
L 150.845903 233.050507 
L 151.137788 232.905432 
L 151.429674 227.705485 
L 151.721559 225.233456 
L 152.597215 223.130516 
L 152.889101 226.847645 
L 153.180986 228.387766 
L 153.472872 231.728512 
L 153.764757 237.329568 
L 154.640413 242.845956 
L 154.932299 248.993457 
L 155.224184 237.770671 
L 155.51607 243.419505 
L 156.683611 249.731081 
L 156.975497 243.240025 
L 157.267382 233.510452 
L 157.559268 229.019658 
L 157.851153 211.735381 
L 158.726809 225.872866 
L 159.018695 219.746146 
L 159.31058 223.156714 
L 159.602466 223.144096 
L 159.894351 227.100636 
L 160.770007 224.21007 
L 161.061893 217.898542 
L 161.645664 227.905685 
L 161.937549 225.346915 
L 162.813205 220.216977 
L 163.105091 224.028952 
L 163.396976 230.654174 
L 163.688862 231.868809 
L 163.980747 237.566991 
L 164.856403 235.600142 
L 165.148289 238.949508 
L 165.440174 237.007224 
L 165.73206 241.107113 
L 166.899601 240.569181 
L 167.191487 237.121186 
L 167.483372 248.70937 
L 167.775258 255.692103 
L 168.067143 258.151784 
L 168.9428 257.56899 
L 169.234685 262.021214 
L 169.52657 263.416256 
L 169.818456 259.413524 
L 170.110341 261.869504 
L 170.985998 257.791339 
L 171.277883 255.884958 
L 171.569768 253.123124 
L 171.861654 264.196582 
L 172.153539 268.990678 
L 173.029196 274.125444 
L 173.321081 274.466166 
L 173.612966 276.880406 
L 173.904852 271.829265 
L 174.196737 264.425945 
L 175.072394 271.232513 
L 175.364279 269.603619 
L 175.656164 271.541236 
L 175.94805 266.706335 
L 176.239935 271.020692 
L 177.407477 276.85582 
L 177.699362 275.513069 
L 178.283133 270.456929 
L 179.450675 270.074463 
L 179.74256 272.10663 
L 180.034446 266.593953 
L 180.326331 273.522901 
L 181.201988 272.460988 
L 181.493873 269.588929 
L 181.785758 268.240635 
L 182.369529 273.744969 
L 183.537071 279.611193 
L 183.828956 276.094432 
L 184.120842 279.420164 
L 184.412727 277.41382 
L 185.580269 275.627269 
L 185.872154 274.293873 
L 186.455925 267.151451 
L 187.331582 269.319056 
L 187.915352 275.704395 
L 188.207238 278.330104 
L 189.666665 274.367957 
L 189.95855 275.108237 
L 190.250436 271.700575 
L 190.542321 271.619518 
L 191.417978 276.504916 
L 191.709863 276.239287 
L 192.001748 276.446722 
L 192.293634 278.75709 
L 192.585519 277.483042 
L 193.461176 275.947413 
L 193.753061 273.337358 
L 194.044946 267.711493 
L 194.336832 264.846512 
L 194.628717 269.357838 
L 195.504374 270.104153 
L 195.796259 277.991266 
L 196.088144 272.480127 
L 196.38003 271.726767 
L 196.671915 273.348723 
L 197.839457 268.934434 
L 198.131342 262.570689 
L 198.423228 264.071609 
L 198.715113 264.302638 
L 199.59077 265.494466 
L 199.882655 270.328954 
L 200.17454 264.523914 
L 200.466426 265.320519 
L 200.758311 264.875928 
L 201.633968 266.142084 
L 201.925853 265.96049 
L 202.217738 269.570359 
L 202.509624 269.91126 
L 202.801509 273.723182 
L 203.677166 275.030516 
L 203.969051 275.907886 
L 204.260936 275.028017 
L 204.552822 273.425026 
L 204.844707 276.391801 
L 205.720364 276.649933 
L 206.012249 277.730591 
L 206.304134 276.980775 
L 206.59602 277.364409 
L 206.887905 279.093226 
L 208.055447 279.553342 
L 208.639218 276.399566 
L 208.931103 272.288903 
L 209.80676 271.99797 
L 210.098645 275.819796 
L 210.390531 273.64809 
L 210.682416 273.415562 
L 210.974301 276.290059 
L 211.849958 274.416308 
L 212.141843 277.48349 
L 212.433729 277.671302 
L 212.725614 280.316986 
L 213.017499 280.049323 
L 214.185041 280.68793 
L 214.476927 278.470469 
L 214.768812 282.632937 
L 215.060697 282.224749 
L 215.936354 280.585631 
L 216.228239 275.21974 
L 216.520125 276.742086 
L 216.81201 277.613003 
L 217.103895 281.596097 
L 218.271437 283.914418 
L 218.855208 282.895176 
L 219.147093 283.34491 
L 220.314635 279.301692 
L 220.606521 279.854047 
L 220.898406 277.531245 
L 221.190291 277.484469 
L 222.065948 279.489479 
L 222.357833 277.638376 
L 222.649719 279.104044 
L 222.941604 271.514095 
L 223.233489 271.325894 
L 224.109146 271.093352 
L 224.401031 270.212225 
L 224.692917 272.175034 
L 224.984802 271.442373 
L 225.276687 273.834323 
L 226.152344 274.539953 
L 226.444229 273.746498 
L 226.736115 276.951842 
L 227.028 267.88843 
L 227.319885 264.238475 
L 228.195542 266.162847 
L 228.487427 263.386011 
L 228.779313 265.910442 
L 229.071198 266.841437 
L 229.363083 268.622319 
L 230.23874 270.499683 
L 230.530625 270.112906 
L 230.822511 268.17563 
L 231.406281 268.253973 
L 232.281938 266.047039 
L 232.573823 267.054577 
L 232.865709 260.867179 
L 233.157594 257.806692 
L 233.449479 258.212141 
L 234.325136 261.657552 
L 234.617021 263.812247 
L 234.908907 264.287489 
L 235.200792 264.055302 
L 235.492677 264.68579 
L 236.368334 264.43318 
L 236.660219 263.919819 
L 236.952105 265.088155 
L 237.24399 267.975356 
L 237.535875 267.994476 
L 238.411532 268.791977 
L 238.703417 268.213057 
L 238.995303 268.081569 
L 239.579073 271.791391 
L 241.038501 273.875713 
L 241.330386 269.775414 
L 241.622271 270.569467 
L 242.789813 269.038814 
L 243.081699 265.663253 
L 243.373584 268.924065 
L 243.665469 267.222266 
L 244.541126 267.225376 
L 244.833011 268.45777 
L 245.124897 268.386375 
L 245.416782 267.907365 
L 245.708667 264.878577 
L 246.876209 263.112968 
L 247.45998 265.626177 
L 247.751866 262.042199 
L 248.627522 257.032174 
L 248.919407 259.099218 
L 249.211293 251.984878 
L 249.503178 250.426732 
L 249.795064 248.11791 
L 250.67072 252.584938 
L 250.962605 248.969262 
L 251.254491 247.902028 
L 251.546376 242.968049 
L 251.838262 243.778284 
L 252.713918 245.358066 
L 253.005803 245.452588 
L 253.297689 248.122858 
L 253.589574 248.056265 
L 253.88146 250.094544 
L 254.757116 249.987907 
L 255.049001 247.974917 
L 255.340887 242.931899 
L 255.632772 255.602336 
L 255.924658 257.180874 
L 257.092199 260.647138 
L 257.384085 259.31607 
L 257.67597 258.7239 
L 257.967856 261.257085 
L 258.843512 261.441339 
L 259.135397 260.508749 
L 259.427283 261.795626 
L 259.719168 260.373293 
L 260.011054 256.900141 
L 260.88671 256.735128 
L 261.178595 258.256572 
L 261.470481 255.669094 
L 261.762366 256.516211 
L 262.054252 258.794841 
L 262.929908 258.60992 
L 263.221793 255.576061 
L 263.513679 256.214484 
L 263.805564 254.058996 
L 264.09745 254.277098 
L 264.973106 255.577856 
L 265.264991 252.866775 
L 265.556877 253.891069 
L 265.848762 252.549543 
L 266.140648 253.817592 
L 267.016304 253.622958 
L 267.308189 255.186241 
L 267.600075 251.781723 
L 267.89196 252.237356 
L 268.183846 250.246785 
L 269.059502 250.758023 
L 269.351387 251.267214 
L 269.643273 254.929138 
L 269.935158 254.598981 
L 271.1027 254.341435 
L 271.394585 255.224057 
L 272.270242 253.605975 
L 273.437783 249.030219 
L 273.729669 249.265929 
L 274.021554 250.449714 
L 274.31344 248.931496 
L 275.189096 250.032631 
L 275.480981 252.470932 
L 275.772867 252.161321 
L 276.064752 250.195919 
L 276.356638 249.028043 
L 277.816065 252.311113 
L 278.10795 235.064127 
L 278.399836 228.468099 
L 279.275492 225.888747 
L 280.151148 228.208318 
L 280.443034 229.760015 
L 281.31869 228.945325 
L 281.610575 231.817986 
L 281.902461 230.748561 
L 282.194346 230.682974 
L 283.653773 234.319522 
L 283.945659 233.355611 
L 284.237544 234.711669 
L 284.52943 231.934515 
L 285.696971 233.883239 
L 285.988857 235.445909 
L 286.280742 234.503508 
L 286.572628 234.780215 
L 287.448284 232.37701 
L 287.740169 226.494913 
L 288.032055 233.13153 
L 288.32394 233.743114 
L 288.615826 230.632279 
L 289.491482 225.24644 
L 289.783367 226.838373 
L 290.075253 224.086955 
L 290.367138 223.663859 
L 290.659024 226.553249 
L 291.826565 227.324176 
L 292.118451 228.853257 
L 292.410336 228.853351 
L 292.702222 228.497212 
L 293.577878 229.172501 
L 293.869763 228.452296 
L 294.161649 226.867913 
L 294.453534 227.770706 
L 294.74542 226.51201 
L 296.204847 226.949387 
L 296.496732 230.452313 
L 296.788618 230.134998 
L 297.664274 230.417095 
L 297.956159 228.534219 
L 298.248045 224.651195 
L 298.53993 218.316239 
L 298.831816 221.758374 
L 299.707472 220.530849 
L 299.999357 222.857367 
L 300.291243 221.66932 
L 300.583128 225.890757 
L 300.875014 225.611314 
L 301.75067 224.331532 
L 302.042555 226.481483 
L 302.334441 226.85578 
L 302.626326 227.81283 
L 302.918212 224.505327 
L 303.793868 221.992394 
L 304.085753 222.64397 
L 304.669524 234.300072 
L 304.96141 235.944865 
L 306.128951 238.467064 
L 306.420837 239.640344 
L 306.712722 237.732104 
L 307.004608 239.407912 
L 307.880264 238.349115 
L 308.172149 239.211835 
L 308.464035 239.013912 
L 308.75592 241.999097 
L 309.047806 242.070623 
L 309.923462 240.870052 
L 310.215347 240.814999 
L 310.507233 236.482284 
L 310.799118 238.615995 
L 311.091004 238.091903 
L 311.96666 236.850114 
L 312.258545 232.934521 
L 312.550431 231.343345 
L 312.842316 221.482808 
L 313.134202 221.337686 
L 314.301743 222.073306 
L 314.593629 221.739872 
L 314.885514 223.359983 
L 315.1774 225.798142 
L 316.053056 223.791381 
L 316.344941 226.676834 
L 316.636827 227.356043 
L 316.928712 226.13738 
L 317.220598 227.98571 
L 318.096254 232.385079 
L 318.680025 236.809835 
L 318.97191 241.624192 
L 319.263796 242.574116 
L 320.139452 241.807143 
L 320.431337 245.15152 
L 320.723223 244.218955 
L 321.306994 240.195251 
L 322.18265 240.563658 
L 322.474535 244.025032 
L 322.766421 241.95263 
L 323.058306 242.354249 
L 323.350192 240.297304 
L 324.517733 238.845729 
L 325.101504 241.476106 
L 325.39339 243.715182 
L 326.269046 241.250593 
L 326.560932 240.04806 
L 327.144702 243.099686 
L 327.436588 244.172188 
L 328.312244 244.463286 
L 328.60413 242.436162 
L 328.896015 248.179623 
L 329.1879 250.679 
L 329.479786 251.077547 
L 330.647328 249.751806 
L 330.939213 246.955907 
L 331.231098 229.944225 
L 331.522984 227.760049 
L 332.39864 229.990343 
L 332.982411 225.610923 
L 333.274296 229.169275 
L 333.566182 227.5437 
L 334.441838 226.023694 
L 334.733724 220.990069 
L 335.025609 218.107058 
L 335.317494 219.122351 
L 335.60938 216.928468 
L 336.776922 214.967266 
L 337.068807 213.225651 
L 337.652578 214.228899 
L 338.528234 209.389468 
L 339.40389 211.235617 
L 339.695776 209.904991 
L 340.571432 212.542604 
L 340.863318 208.722192 
L 341.155203 213.838041 
L 341.738974 211.631899 
L 342.61463 211.32935 
L 342.906516 211.833624 
L 343.198401 209.664447 
L 343.490286 204.633198 
L 343.782172 206.632026 
L 344.657828 206.380976 
L 344.949714 204.370444 
L 345.241599 209.404232 
L 345.533484 208.098375 
L 345.82537 207.697436 
L 347.284797 206.199391 
L 347.576682 204.976908 
L 349.327995 214.989604 
L 349.911766 210.613684 
L 350.787422 205.718201 
L 351.079308 202.122677 
L 351.371193 200.240028 
L 351.954964 199.867532 
L 353.122506 199.470409 
L 353.414391 200.508249 
L 353.706276 204.711023 
L 353.998162 201.020845 
L 354.873818 201.136328 
L 355.165704 199.356417 
L 355.457589 200.189875 
L 355.749474 199.920606 
L 356.04136 198.726836 
L 356.917016 195.888321 
L 357.208902 198.149309 
L 357.792672 206.53538 
L 358.084558 197.49894 
L 358.960214 199.028538 
L 359.2521 198.102863 
L 360.127756 184.787803 
L 361.003412 187.271089 
L 361.295298 205.654536 
L 361.879068 194.368126 
L 362.170954 199.24245 
L 363.338496 203.056899 
L 363.630381 207.52394 
L 363.922267 208.602692 
L 364.214152 206.872427 
L 365.089808 204.610303 
L 365.673579 207.485676 
L 365.965465 205.83352 
L 366.25735 205.525458 
L 367.133006 206.981746 
L 367.424892 210.378995 
L 367.716777 209.389315 
L 368.008663 208.004863 
L 368.300548 207.251532 
L 369.176204 208.802312 
L 369.46809 206.7216 
L 369.759975 203.008406 
L 370.051861 203.649447 
L 370.343746 204.974238 
L 371.219402 204.327471 
L 371.511288 204.412095 
L 371.803173 198.179048 
L 372.095059 201.798149 
L 372.386944 202.641799 
L 373.2626 202.348309 
L 373.554486 202.418612 
L 373.846371 202.311234 
L 374.138257 204.517385 
L 375.597684 203.152343 
L 375.889569 207.080193 
L 376.181455 208.71289 
L 376.47334 207.808516 
L 377.348996 208.694907 
L 377.640882 208.140542 
L 377.932767 212.682369 
L 378.224653 212.385129 
L 378.516538 214.841406 
L 379.392194 216.520811 
L 379.68408 216.094274 
L 379.975965 214.718 
L 380.267851 214.933409 
L 380.559736 214.70153 
L 381.435392 213.561191 
L 381.727278 208.454818 
L 382.311049 213.841744 
L 382.602934 212.996858 
L 383.47859 211.219473 
L 383.770476 214.690654 
L 384.062361 213.490999 
L 384.354247 211.416428 
L 384.646132 208.042163 
L 385.521788 203.274161 
L 385.813674 203.956179 
L 386.105559 225.879693 
L 386.397445 226.361907 
L 386.68933 232.200371 
L 387.564986 232.455811 
L 387.856872 233.70288 
L 388.148757 232.633953 
L 388.440643 234.500243 
L 388.732528 233.263863 
L 389.90007 235.571303 
L 390.191955 232.827002 
L 390.483841 234.158427 
L 390.775726 234.925879 
L 392.235153 233.303349 
L 392.818924 231.834968 
L 393.69458 231.414336 
L 394.278351 228.601157 
L 394.570237 228.17607 
L 394.862122 228.126127 
L 396.029664 223.964989 
L 396.321549 221.417535 
L 396.613435 222.887436 
L 396.90532 218.08286 
L 397.780976 219.933665 
L 398.072862 223.640495 
L 398.656633 224.275032 
L 398.948518 222.630762 
L 399.824174 223.634669 
L 400.11606 223.220072 
L 400.407945 222.150497 
L 400.699831 220.385188 
L 400.991716 220.925554 
L 402.159258 220.619283 
L 403.034914 219.10215 
L 403.91057 219.377885 
L 404.202456 221.327783 
L 404.786227 222.696667 
L 405.078112 223.296797 
L 405.953768 224.196973 
L 406.245654 215.36616 
L 406.537539 223.087349 
L 406.829425 225.676399 
L 407.12131 225.430077 
L 407.996966 226.130148 
L 408.288852 225.78906 
L 408.580737 230.953142 
L 408.872623 230.518939 
L 409.164508 229.668251 
L 410.040164 229.719271 
L 410.33205 230.589882 
L 410.623935 227.466666 
L 411.207706 237.9879 
L 412.375248 238.787519 
L 412.667133 223.670213 
L 412.959019 216.578091 
L 413.250904 215.552126 
L 414.12656 217.102068 
L 414.710331 212.173069 
L 415.002217 207.009755 
L 415.294102 207.327446 
L 416.169758 206.845101 
L 416.461644 207.711595 
L 416.753529 205.844094 
L 417.045415 208.99585 
L 417.3373 205.965028 
L 418.504842 209.500734 
L 418.796727 212.866996 
L 419.380498 210.15015 
L 420.839925 215.648764 
L 421.131811 216.101799 
L 421.423696 220.948069 
L 422.299352 218.737643 
L 422.591238 218.660851 
L 422.883123 213.095885 
L 423.175009 213.676711 
L 423.466894 211.929425 
L 424.34255 210.16048 
L 424.926321 207.492237 
L 425.218207 201.951107 
L 425.510092 202.320667 
L 426.385748 200.152725 
L 426.677634 200.13025 
L 426.969519 202.767149 
L 427.261405 199.917381 
L 427.55329 202.348736 
L 428.428946 200.613557 
L 428.720832 203.057349 
L 429.012717 202.347279 
L 429.304603 203.735651 
L 429.596488 196.707515 
L 430.472144 198.851655 
L 430.76403 195.816646 
L 431.055915 194.201005 
L 431.347801 194.751463 
L 431.639686 193.574959 
L 433.390999 196.017058 
L 433.682884 193.982166 
L 434.55854 193.976862 
L 434.850426 195.316433 
L 435.142311 198.556329 
L 435.434197 198.116764 
L 435.726082 199.184263 
L 436.893624 196.727755 
L 437.185509 197.120596 
L 437.477395 200.025136 
L 437.76928 198.54001 
L 438.644936 199.562801 
L 438.936822 197.930131 
L 439.228707 194.831096 
L 439.520593 187.967053 
L 440.688134 181.305844 
L 440.98002 151.051265 
L 441.271905 140.920455 
L 441.563791 149.909257 
L 441.855676 149.999723 
L 442.731333 153.898246 
L 443.315103 158.575534 
L 443.606989 154.366997 
L 443.898874 153.454222 
L 444.774531 147.599088 
L 445.066416 143.758755 
L 445.358301 143.600246 
L 445.942072 139.292727 
L 447.109614 144.821305 
L 447.401499 142.005152 
L 447.693385 140.850469 
L 447.98527 134.66567 
L 448.860927 137.936624 
L 449.152812 140.597553 
L 449.444697 134.217235 
L 449.736583 137.889801 
L 450.028468 138.094581 
L 450.904125 135.851108 
L 451.19601 129.960164 
L 451.487895 144.944256 
L 451.779781 147.393575 
L 452.071666 145.007831 
L 452.947323 145.035894 
L 453.239208 143.347309 
L 455.282406 149.967474 
L 455.866177 147.69509 
L 457.033719 135.81973 
L 457.325604 149.366281 
L 457.617489 147.64356 
L 458.20126 153.649717 
L 459.368802 157.55608 
L 459.660687 153.374287 
L 459.952573 154.887036 
L 460.244458 154.310655 
L 461.703885 149.988187 
L 461.995771 149.813602 
L 462.287656 147.401939 
L 463.163313 147.812644 
L 463.455198 131.04652 
L 463.747083 132.476362 
L 464.038969 128.226872 
L 464.330854 130.888239 
L 465.206511 131.951501 
L 465.790281 124.935366 
L 466.082167 130.348234 
L 466.374052 132.385539 
L 467.249709 127.962924 
L 467.541594 121.852107 
L 467.833479 127.639686 
L 468.125365 115.724553 
L 468.41725 116.173447 
L 469.584792 114.721527 
L 469.876677 117.334718 
L 470.168563 123.405957 
L 470.460448 137.127754 
L 471.336105 136.787574 
L 471.62799 143.32756 
L 471.919875 139.2886 
L 472.211761 142.763466 
L 472.503646 139.471015 
L 473.379303 148.446846 
L 473.671188 155.880492 
L 473.963073 149.688901 
L 474.546844 160.805462 
L 475.422501 172.018866 
L 475.714386 171.066971 
L 476.006271 165.125768 
L 476.298157 175.653709 
L 476.590042 167.967905 
L 477.465699 165.724363 
L 477.757584 170.756601 
L 478.049469 158.405429 
L 478.341355 157.67195 
L 478.63324 153.766423 
L 479.508897 145.343814 
L 479.800782 144.667725 
L 480.092667 154.24409 
L 480.384553 156.856855 
L 480.676438 166.258224 
L 481.552095 168.202644 
L 482.135866 159.944786 
L 482.427751 190.640114 
L 482.719636 200.602942 
L 483.595293 196.055564 
L 483.887178 198.899905 
L 484.179064 175.459699 
L 484.470949 187.952839 
L 484.762834 190.872949 
L 485.638491 193.100681 
L 485.930376 191.043117 
L 486.222262 190.416842 
L 486.514147 191.841288 
L 487.973574 188.827574 
L 488.557345 173.519382 
L 488.84923 170.527307 
L 489.724887 168.087025 
L 490.016772 167.992317 
L 490.308658 174.223098 
L 490.600543 171.459732 
L 490.892428 167.284805 
L 491.768085 168.933398 
L 492.05997 176.124203 
L 492.351856 175.632912 
L 492.643741 175.723589 
L 492.935626 178.301895 
L 494.395054 146.892837 
L 494.686939 148.275009 
L 494.978824 147.719952 
L 496.146366 154.581822 
L 496.438252 161.693127 
L 496.730137 160.723854 
L 497.022022 163.575586 
L 498.773335 153.858424 
L 499.06522 155.174371 
L 499.940877 157.214964 
L 500.524648 161.990206 
L 500.816533 160.148635 
L 501.108418 150.333965 
L 501.984075 155.677206 
L 502.27596 151.724204 
L 502.567846 146.06535 
L 503.151616 160.658353 
L 504.027273 156.105565 
L 504.319158 159.077304 
L 505.194814 157.80781 
L 506.070471 151.654774 
L 506.362356 144.824015 
L 506.654242 145.68147 
L 506.946127 147.156295 
L 507.238012 147.142297 
L 508.113669 143.987209 
L 508.69744 145.380517 
L 508.989325 143.41364 
L 510.156867 142.980327 
L 510.448752 148.680971 
L 510.740638 145.767284 
L 511.032523 144.250024 
L 511.324408 149.374016 
L 512.200065 141.779461 
L 512.49195 144.149886 
L 513.075721 126.050524 
L 513.367606 124.87333 
L 514.243263 122.913333 
L 514.535148 130.996708 
L 514.827034 134.339267 
L 515.118919 134.580418 
L 515.410804 130.372033 
L 516.286461 125.724223 
L 516.870232 130.711698 
L 517.162117 131.25445 
L 517.454002 136.526519 
L 518.621544 124.517364 
L 518.91343 80.575867 
L 519.205315 87.146339 
L 519.4972 89.553038 
L 520.372857 92.523569 
L 520.664742 89.336601 
L 520.956628 88.163528 
L 521.248513 97.609405 
L 521.540399 101.023332 
L 522.416055 98.403685 
L 522.70794 104.702424 
L 522.999826 106.791177 
L 523.291711 107.651503 
L 523.583597 98.59551 
L 524.459253 102.254929 
L 524.751138 101.258363 
L 525.043024 103.192711 
L 525.334909 101.425559 
L 526.794336 105.902702 
L 527.086222 103.454586 
L 527.378107 95.546543 
L 527.669993 92.546986 
L 528.545649 93.176714 
L 528.837534 98.210539 
L 529.12942 99.326766 
L 529.421305 94.618688 
L 529.713191 97.671057 
L 530.588847 90.45227 
L 530.880732 92.620992 
L 531.172618 92.176981 
L 531.464503 84.979978 
L 531.756389 82.723934 
L 532.632045 76.879666 
L 532.92393 87.45206 
L 533.215816 88.964113 
L 533.507701 96.539215 
L 533.799587 100.899254 
L 534.675243 87.00797 
L 534.967128 88.002715 
L 535.259014 86.351376 
L 535.550899 83.32229 
L 535.842785 67.25462 
L 536.718441 61.817366 
L 537.010326 67.305868 
L 537.302212 58.969582 
L 537.594097 63.017456 
L 537.885983 82.399825 
L 539.053524 79.067382 
L 539.34541 73.618236 
L 539.637295 73.022567 
L 539.929181 71.112615 
L 540.804837 60.524247 
L 541.096722 63.521713 
L 541.388608 64.774461 
L 541.972379 47.906306 
L 542.848035 44.398012 
L 543.13992 38.20277 
L 543.431806 39.196734 
L 543.723691 47.750127 
L 544.015577 46.56116 
L 544.891233 47.353139 
L 545.183118 65.83578 
L 545.475004 61.808687 
L 545.766889 72.853271 
L 546.058775 78.553503 
L 546.934431 69.354938 
L 547.226316 69.591014 
L 547.518202 73.530886 
L 547.810087 90.055628 
L 548.101973 90.098662 
L 548.977629 100.174637 
L 549.269514 98.82327 
L 549.5614 91.003655 
L 549.853285 92.356668 
L 550.145171 86.335227 
L 551.604598 67.553419 
L 552.188369 70.062745 
L 553.064025 86.02982 
L 553.35591 73.429644 
L 553.939681 65.532798 
L 554.231567 67.372421 
L 555.107223 73.895956 
L 555.399108 71.293203 
L 555.690994 57.861788 
L 555.982879 64.724225 
L 556.274765 65.86365 
L 557.150421 72.839671 
L 557.442306 67.637681 
L 557.734192 70.098252 
L 558.026077 61.600798 
L 558.317963 57.369629 
L 559.193619 56.95435 
L 559.77739 59.330281 
L 561.236817 62.115412 
L 561.820588 72.422253 
L 562.404359 77.939224 
L 563.5719 59.21946 
L 563.863786 61.091318 
L 564.155671 57.844833 
L 564.447557 63.745703 
L 565.323213 57.324486 
L 565.615098 58.834408 
L 565.906984 74.384646 
L 566.198869 73.657264 
L 566.490755 77.048357 
L 567.658296 95.235183 
L 567.950182 105.333055 
L 568.242067 106.595223 
L 568.533953 107.130975 
L 569.409609 110.899959 
L 569.701494 108.878084 
L 569.99338 108.565994 
L 570.285265 102.115194 
L 570.577151 122.001257 
L 571.452807 118.333503 
L 571.744692 137.932535 
L 572.036578 146.61369 
L 572.328463 150.567684 
L 572.620349 148.751925 
L 573.496005 139.523377 
L 573.78789 127.132016 
L 574.371661 152.65971 
L 574.663547 149.04058 
L 575.831088 147.4033 
L 576.122974 134.761108 
L 576.706745 126.94693 
L 577.582401 141.410828 
L 577.874286 141.351425 
L 578.166172 135.973133 
L 578.458057 127.511846 
L 578.749943 135.653596 
L 579.625599 137.864223 
L 579.917484 133.938955 
L 580.501255 114.171606 
L 580.793141 120.942465 
L 581.668797 116.822009 
L 581.960682 123.474075 
L 582.252568 123.292256 
L 582.836339 132.775724 
L 584.00388 124.48545 
L 584.295766 130.740473 
L 584.587651 132.341265 
L 584.879537 141.025683 
L 585.755193 134.604907 
L 586.047078 142.082187 
L 586.338964 138.162004 
L 586.922735 147.279803 
L 587.798391 146.79848 
L 588.090276 135.528399 
L 588.382162 136.031569 
L 588.674047 136.818574 
L 589.841589 135.005709 
L 590.133474 138.234643 
L 590.42536 134.357253 
L 590.717245 146.458874 
L 591.009131 149.327276 
L 592.176672 139.014472 
L 592.468558 123.899973 
L 592.760443 125.1441 
L 593.052329 119.001439 
L 593.927985 112.683964 
L 594.21987 119.87783 
L 594.511756 118.378724 
L 594.803641 130.270692 
L 595.095527 127.35879 
L 595.971183 130.181257 
L 596.263068 134.34811 
L 596.846839 135.090805 
L 597.138725 126.211784 
L 598.014381 126.274103 
L 598.306267 156.797922 
L 598.598152 160.418632 
L 598.890037 150.199118 
L 599.181923 151.971329 
L 600.349465 168.269083 
L 600.64135 175.002825 
L 600.933235 171.7588 
L 601.225121 167.062275 
L 602.392663 165.744348 
L 602.684548 159.36395 
L 602.976433 159.592387 
L 603.268319 162.182424 
L 604.435861 158.853493 
L 604.727746 156.126885 
L 605.019631 142.362038 
L 605.311517 137.357495 
L 606.187173 128.646947 
L 606.479059 139.282157 
L 606.770944 145.650004 
L 607.062829 140.100071 
L 607.354715 150.258987 
L 608.230371 147.802508 
L 608.522257 148.225985 
L 608.814142 151.797286 
L 609.106027 148.266157 
L 609.397913 151.503445 
L 610.565455 143.308638 
L 610.565455 143.308638 
" clip-path="url(#p1841626bec)" style="fill: none; stroke: #ff7f0e; stroke-width: 1.5; stroke-linecap: square"/>
   </g>
   <g id="patch_3">
    <path d="M 51.24 296.2 
L 51.24 25.917188 
" style="fill: none; stroke: #000000; stroke-width: 0.8; stroke-linejoin: miter; stroke-linecap: square"/>
   </g>
   <g id="patch_4">
    <path d="M 637.2 296.2 
L 637.2 25.917188 
" style="fill: none; stroke: #000000; stroke-width: 0.8; stroke-linejoin: miter; stroke-linecap: square"/>
   </g>
   <g id="patch_5">
    <path d="M 51.24 296.2 
L 637.2 296.2 
" style="fill: none; stroke: #000000; stroke-width: 0.8; stroke-linejoin: miter; stroke-linecap: square"/>
   </g>
   <g id="patch_6">
    <path d="M 51.24 25.917188 
L 637.2 25.917188 
" style="fill: none; stroke: #000000; stroke-width: 0.8; stroke-linejoin: miter; stroke-linecap: square"/>
   </g>
   <g id="text_12">
    <!-- SHOP.TO vs SHOP Adjusted to CAD -->
    <g transform="translate(240.130312 19.917188) scale(0.12 -0.12)">
     <defs>
      <path id="DejaVuSans-36" d="M 3425 4513 
L 3425 3897 
Q 3066 4069 2747 4153 
Q 2428 4238 2131 4238 
Q 1616 4238 1336 4038 
Q 1056 3838 1056 3469 
Q 1056 3159 1242 3001 
Q 1428 2844 1947 2747 
L 2328 2669 
Q 3034 2534 3370 2195 
Q 3706 1856 3706 1288 
Q 3706 609 3251 259 
Q 2797 -91 1919 -91 
Q 1588 -91 1214 -16 
Q 841 59 441 206 
L 441 856 
Q 825 641 1194 531 
Q 1563 422 1919 422 
Q 2459 422 2753 634 
Q 3047 847 3047 1241 
Q 3047 1584 2836 1778 
Q 2625 1972 2144 2069 
L 1759 2144 
Q 1053 2284 737 2584 
Q 422 2884 422 3419 
Q 422 4038 858 4394 
Q 1294 4750 2059 4750 
Q 2388 4750 2728 4690 
Q 3069 4631 3425 4513 
z
" transform="scale(0.015625)"/>
      <path id="DejaVuSans-2b" d="M 628 4666 
L 1259 4666 
L 1259 2753 
L 3553 2753 
L 3553 4666 
L 4184 4666 
L 4184 0 
L 3553 0 
L 3553 2222 
L 1259 2222 
L 1259 0 
L 628 0 
L 628 4666 
z
" transform="scale(0.015625)"/>
      <path id="DejaVuSans-32" d="M 2522 4238 
Q 1834 4238 1429 3725 
Q 1025 3213 1025 2328 
Q 1025 1447 1429 934 
Q 1834 422 2522 422 
Q 3209 422 3611 934 
Q 4013 1447 4013 2328 
Q 4013 3213 3611 3725 
Q 3209 4238 2522 4238 
z
M 2522 4750 
Q 3503 4750 4090 4092 
Q 4678 3434 4678 2328 
Q 4678 1225 4090 567 
Q 3503 -91 2522 -91 
Q 1538 -91 948 565 
Q 359 1222 359 2328 
Q 359 3434 948 4092 
Q 1538 4750 2522 4750 
z
" transform="scale(0.015625)"/>
      <path id="DejaVuSans-11" d="M 684 794 
L 1344 794 
L 1344 0 
L 684 0 
L 684 794 
z
" transform="scale(0.015625)"/>
      <path id="DejaVuSans-37" d="M -19 4666 
L 3928 4666 
L 3928 4134 
L 2272 4134 
L 2272 0 
L 1638 0 
L 1638 4134 
L -19 4134 
L -19 4666 
z
" transform="scale(0.015625)"/>
      <path id="DejaVuSans-59" d="M 191 3500 
L 800 3500 
L 1894 563 
L 2988 3500 
L 3597 3500 
L 2284 0 
L 1503 0 
L 191 3500 
z
" transform="scale(0.015625)"/>
      <path id="DejaVuSans-56" d="M 2834 3397 
L 2834 2853 
Q 2591 2978 2328 3040 
Q 2066 3103 1784 3103 
Q 1356 3103 1142 2972 
Q 928 2841 928 2578 
Q 928 2378 1081 2264 
Q 1234 2150 1697 2047 
L 1894 2003 
Q 2506 1872 2764 1633 
Q 3022 1394 3022 966 
Q 3022 478 2636 193 
Q 2250 -91 1575 -91 
Q 1294 -91 989 -36 
Q 684 19 347 128 
L 347 722 
Q 666 556 975 473 
Q 1284 391 1588 391 
Q 1994 391 2212 530 
Q 2431 669 2431 922 
Q 2431 1156 2273 1281 
Q 2116 1406 1581 1522 
L 1381 1569 
Q 847 1681 609 1914 
Q 372 2147 372 2553 
Q 372 3047 722 3315 
Q 1072 3584 1716 3584 
Q 2034 3584 2315 3537 
Q 2597 3491 2834 3397 
z
" transform="scale(0.015625)"/>
      <path id="DejaVuSans-47" d="M 2906 2969 
L 2906 4863 
L 3481 4863 
L 3481 0 
L 2906 0 
L 2906 525 
Q 2725 213 2448 61 
Q 2172 -91 1784 -91 
Q 1150 -91 751 415 
Q 353 922 353 1747 
Q 353 2572 751 3078 
Q 1150 3584 1784 3584 
Q 2172 3584 2448 3432 
Q 2725 3281 2906 2969 
z
M 947 1747 
Q 947 1113 1208 752 
Q 1469 391 1925 391 
Q 2381 391 2643 752 
Q 2906 1113 2906 1747 
Q 2906 2381 2643 2742 
Q 2381 3103 1925 3103 
Q 1469 3103 1208 2742 
Q 947 2381 947 1747 
z
" transform="scale(0.015625)"/>
      <path id="DejaVuSans-4d" d="M 603 3500 
L 1178 3500 
L 1178 -63 
Q 1178 -731 923 -1031 
Q 669 -1331 103 -1331 
L -116 -1331 
L -116 -844 
L 38 -844 
Q 366 -844 484 -692 
Q 603 -541 603 -63 
L 603 3500 
z
M 603 4863 
L 1178 4863 
L 1178 4134 
L 603 4134 
L 603 4863 
z
" transform="scale(0.015625)"/>
      <path id="DejaVuSans-58" d="M 544 1381 
L 544 3500 
L 1119 3500 
L 1119 1403 
Q 1119 906 1312 657 
Q 1506 409 1894 409 
Q 2359 409 2629 706 
Q 2900 1003 2900 1516 
L 2900 3500 
L 3475 3500 
L 3475 0 
L 2900 0 
L 2900 538 
Q 2691 219 2414 64 
Q 2138 -91 1772 -91 
Q 1169 -91 856 284 
Q 544 659 544 1381 
z
M 1991 3584 
L 1991 3584 
z
" transform="scale(0.015625)"/>
      <path id="DejaVuSans-57" d="M 1172 4494 
L 1172 3500 
L 2356 3500 
L 2356 3053 
L 1172 3053 
L 1172 1153 
Q 1172 725 1289 603 
Q 1406 481 1766 481 
L 2356 481 
L 2356 0 
L 1766 0 
Q 1100 0 847 248 
Q 594 497 594 1153 
L 594 3053 
L 172 3053 
L 172 3500 
L 594 3500 
L 594 4494 
L 1172 4494 
z
" transform="scale(0.015625)"/>
      <path id="DejaVuSans-52" d="M 1959 3097 
Q 1497 3097 1228 2736 
Q 959 2375 959 1747 
Q 959 1119 1226 758 
Q 1494 397 1959 397 
Q 2419 397 2687 759 
Q 2956 1122 2956 1747 
Q 2956 2369 2687 2733 
Q 2419 3097 1959 3097 
z
M 1959 3584 
Q 2709 3584 3137 3096 
Q 3566 2609 3566 1747 
Q 3566 888 3137 398 
Q 2709 -91 1959 -91 
Q 1206 -91 779 398 
Q 353 888 353 1747 
Q 353 2609 779 3096 
Q 1206 3584 1959 3584 
z
" transform="scale(0.015625)"/>
     </defs>
     <use xlink:href="#DejaVuSans-36"/>
     <use xlink:href="#DejaVuSans-2b" transform="translate(63.484375 0)"/>
     <use xlink:href="#DejaVuSans-32" transform="translate(138.6875 0)"/>
     <use xlink:href="#DejaVuSans-33" transform="translate(217.40625 0)"/>
     <use xlink:href="#DejaVuSans-11" transform="translate(262.125 0)"/>
     <use xlink:href="#DejaVuSans-37" transform="translate(293.90625 0)"/>
     <use xlink:href="#DejaVuSans-32" transform="translate(354.984375 0)"/>
     <use xlink:href="#DejaVuSans-3" transform="translate(433.703125 0)"/>
     <use xlink:href="#DejaVuSans-59" transform="translate(465.484375 0)"/>
     <use xlink:href="#DejaVuSans-56" transform="translate(524.671875 0)"/>
     <use xlink:href="#DejaVuSans-3" transform="translate(576.765625 0)"/>
     <use xlink:href="#DejaVuSans-36" transform="translate(608.546875 0)"/>
     <use xlink:href="#DejaVuSans-2b" transform="translate(672.03125 0)"/>
     <use xlink:href="#DejaVuSans-32" transform="translate(747.234375 0)"/>
     <use xlink:href="#DejaVuSans-33" transform="translate(825.953125 0)"/>
     <use xlink:href="#DejaVuSans-3" transform="translate(886.25 0)"/>
     <use xlink:href="#DejaVuSans-24" transform="translate(918.03125 0)"/>
     <use xlink:href="#DejaVuSans-47" transform="translate(984.6875 0)"/>
     <use xlink:href="#DejaVuSans-4d" transform="translate(1048.171875 0)"/>
     <use xlink:href="#DejaVuSans-58" transform="translate(1075.953125 0)"/>
     <use xlink:href="#DejaVuSans-56" transform="translate(1139.328125 0)"/>
     <use xlink:href="#DejaVuSans-57" transform="translate(1191.421875 0)"/>
     <use xlink:href="#DejaVuSans-48" transform="translate(1230.625 0)"/>
     <use xlink:href="#DejaVuSans-47" transform="translate(1292.15625 0)"/>
     <use xlink:href="#DejaVuSans-3" transform="translate(1355.640625 0)"/>
     <use xlink:href="#DejaVuSans-57" transform="translate(1387.421875 0)"/>
     <use xlink:href="#DejaVuSans-52" transform="translate(1426.625 0)"/>
     <use xlink:href="#DejaVuSans-3" transform="translate(1487.8125 0)"/>
     <use xlink:href="#DejaVuSans-26" transform="translate(1519.59375 0)"/>
     <use xlink:href="#DejaVuSans-24" transform="translate(1589.421875 0)"/>
     <use xlink:href="#DejaVuSans-27" transform="translate(1657.828125 0)"/>
    </g>
   </g>
   <g id="legend_1">
    <g id="line2d_13">
     <path d="M 60.24 39.015625 
L 70.24 39.015625 
L 80.24 39.015625 
" style="fill: none; stroke: #1f77b4; stroke-width: 1.5; stroke-linecap: square"/>
    </g>
    <g id="text_13">
     <!-- SHOP.TO -->
     <g transform="translate(88.24 42.515625) scale(0.1 -0.1)">
      <use xlink:href="#DejaVuSans-36"/>
      <use xlink:href="#DejaVuSans-2b" transform="translate(63.484375 0)"/>
      <use xlink:href="#DejaVuSans-32" transform="translate(138.6875 0)"/>
      <use xlink:href="#DejaVuSans-33" transform="translate(217.40625 0)"/>
      <use xlink:href="#DejaVuSans-11" transform="translate(262.125 0)"/>
      <use xlink:href="#DejaVuSans-37" transform="translate(293.90625 0)"/>
      <use xlink:href="#DejaVuSans-32" transform="translate(354.984375 0)"/>
     </g>
    </g>
    <g id="line2d_14">
     <path d="M 60.24 54.016406 
L 70.24 54.016406 
L 80.24 54.016406 
" style="fill: none; stroke: #ff7f0e; stroke-width: 1.5; stroke-linecap: square"/>
    </g>
    <g id="text_14">
     <!-- SHOP adjusted to CAD -->
     <g transform="translate(88.24 57.516406) scale(0.1 -0.1)">
      <defs>
       <path id="DejaVuSans-44" d="M 2194 1759 
Q 1497 1759 1228 1600 
Q 959 1441 959 1056 
Q 959 750 1161 570 
Q 1363 391 1709 391 
Q 2188 391 2477 730 
Q 2766 1069 2766 1631 
L 2766 1759 
L 2194 1759 
z
M 3341 1997 
L 3341 0 
L 2766 0 
L 2766 531 
Q 2569 213 2275 61 
Q 1981 -91 1556 -91 
Q 1019 -91 701 211 
Q 384 513 384 1019 
Q 384 1609 779 1909 
Q 1175 2209 1959 2209 
L 2766 2209 
L 2766 2266 
Q 2766 2663 2505 2880 
Q 2244 3097 1772 3097 
Q 1472 3097 1187 3025 
Q 903 2953 641 2809 
L 641 3341 
Q 956 3463 1253 3523 
Q 1550 3584 1831 3584 
Q 2591 3584 2966 3190 
Q 3341 2797 3341 1997 
z
" transform="scale(0.015625)"/>
      </defs>
      <use xlink:href="#DejaVuSans-36"/>
      <use xlink:href="#DejaVuSans-2b" transform="translate(63.484375 0)"/>
      <use xlink:href="#DejaVuSans-32" transform="translate(138.6875 0)"/>
      <use xlink:href="#DejaVuSans-33" transform="translate(217.40625 0)"/>
      <use xlink:href="#DejaVuSans-3" transform="translate(277.703125 0)"/>
      <use xlink:href="#DejaVuSans-44" transform="translate(309.484375 0)"/>
      <use xlink:href="#DejaVuSans-47" transform="translate(370.765625 0)"/>
      <use xlink:href="#DejaVuSans-4d" transform="translate(434.25 0)"/>
      <use xlink:href="#DejaVuSans-58" transform="translate(462.03125 0)"/>
      <use xlink:href="#DejaVuSans-56" transform="translate(525.40625 0)"/>
      <use xlink:href="#DejaVuSans-57" transform="translate(577.5 0)"/>
      <use xlink:href="#DejaVuSans-48" transform="translate(616.703125 0)"/>
      <use xlink:href="#DejaVuSans-47" transform="translate(678.234375 0)"/>
      <use xlink:href="#DejaVuSans-3" transform="translate(741.71875 0)"/>
      <use xlink:href="#DejaVuSans-57" transform="translate(773.5 0)"/>
      <use xlink:href="#DejaVuSans-52" transform="translate(812.703125 0)"/>
      <use xlink:href="#DejaVuSans-3" transform="translate(873.890625 0)"/>
      <use xlink:href="#DejaVuSans-26" transform="translate(905.671875 0)"/>
      <use xlink:href="#DejaVuSans-24" transform="translate(975.5 0)"/>
      <use xlink:href="#DejaVuSans-27" transform="translate(1043.90625 0)"/>
     </g>
    </g>
   </g>
  </g>
 </g>
 <defs>
  <clipPath id="p1841626bec">
   <rect x="51.24" y="25.917188" width="585.96" height="270.282812"/>
  </clipPath>
 </defs>
</svg>
