<?xml version="1.0" encoding="utf-8" standalone="no"?>
<!DOCTYPE svg PUBLIC "-//W3C//DTD SVG 1.1//EN"
  "http://www.w3.org/Graphics/SVG/1.1/DTD/svg11.dtd">
<svg xmlns:xlink="http://www.w3.org/1999/xlink" width="648pt" height="324pt" viewBox="0 0 648 324" xmlns="http://www.w3.org/2000/svg" version="1.1">
 <metadata>
  <rdf:RDF xmlns:dc="http://purl.org/dc/elements/1.1/" xmlns:cc="http://creativecommons.org/ns#" xmlns:rdf="http://www.w3.org/1999/02/22-rdf-syntax-ns#">
   <cc:Work>
    <dc:type rdf:resource="http://purl.org/dc/dcmitype/StillImage"/>
    <dc:date>2026-06-26T00:17:38.538162</dc:date>
    <dc:format>image/svg+xml</dc:format>
    <dc:creator>
     <cc:Agent>
      <dc:title>Matplotlib v3.11.0, https://matplotlib.org/</dc:title>
     </cc:Agent>
    </dc:creator>
   </cc:Work>
  </rdf:RDF>
 </metadata>
 <defs>
  <style type="text/css">*{stroke-linejoin: round; stroke-linecap: butt}</style>
 </defs>
 <g id="figure_1">
  <g id="patch_1">
   <path d="M 0 324 
L 648 324 
L 648 0 
L 0 0 
z
" style="fill: #ffffff"/>
  </g>
  <g id="axes_1">
   <g id="patch_2">
    <path d="M 48 296.2 
L 626.904583 296.2 
L 626.904583 25.917188 
L 48 25.917188 
z
" style="fill: #ffffff"/>
   </g>
   <g id="matplotlib.axis_1">
    <g id="xtick_1">
     <g id="line2d_1">
      <defs>
       <path id="mc61b891aba" d="M 0 0 
L 0 3.5 
" style="stroke: #000000; stroke-width: 0.8"/>
      </defs>
      <g>
       <use xlink:href="#mc61b891aba" x="88.011462" y="296.2" style="stroke: #000000; stroke-width: 0.8"/>
      </g>
     </g>
     <g id="text_1">
      <!-- 2024-07 -->
      <g transform="translate(67.120056 310.797656) scale(0.1 -0.1)">
       <defs>
        <path id="DejaVuSans-15" d="M 1228 531 
L 3431 531 
L 3431 0 
L 469 0 
L 469 531 
Q 828 903 1448 1529 
Q 2069 2156 2228 2338 
Q 2531 2678 2651 2914 
Q 2772 3150 2772 3378 
Q 2772 3750 2511 3984 
Q 2250 4219 1831 4219 
Q 1534 4219 1204 4116 
Q 875 4013 500 3803 
L 500 4441 
Q 881 4594 1212 4672 
Q 1544 4750 1819 4750 
Q 2544 4750 2975 4387 
Q 3406 4025 3406 3419 
Q 3406 3131 3298 2873 
Q 3191 2616 2906 2266 
Q 2828 2175 2409 1742 
Q 1991 1309 1228 531 
z
" transform="scale(0.015625)"/>
        <path id="DejaVuSans-13" d="M 2034 4250 
Q 1547 4250 1301 3770 
Q 1056 3291 1056 2328 
Q 1056 1369 1301 889 
Q 1547 409 2034 409 
Q 2525 409 2770 889 
Q 3016 1369 3016 2328 
Q 3016 3291 2770 3770 
Q 2525 4250 2034 4250 
z
M 2034 4750 
Q 2819 4750 3233 4129 
Q 3647 3509 3647 2328 
Q 3647 1150 3233 529 
Q 2819 -91 2034 -91 
Q 1250 -91 836 529 
Q 422 1150 422 2328 
Q 422 3509 836 4129 
Q 1250 4750 2034 4750 
z
" transform="scale(0.015625)"/>
        <path id="DejaVuSans-17" d="M 2419 4116 
L 825 1625 
L 2419 1625 
L 2419 4116 
z
M 2253 4666 
L 3047 4666 
L 3047 1625 
L 3713 1625 
L 3713 1100 
L 3047 1100 
L 3047 0 
L 2419 0 
L 2419 1100 
L 313 1100 
L 313 1709 
L 2253 4666 
z
" transform="scale(0.015625)"/>
        <path id="DejaVuSans-10" d="M 313 2009 
L 1997 2009 
L 1997 1497 
L 313 1497 
L 313 2009 
z
" transform="scale(0.015625)"/>
        <path id="DejaVuSans-1a" d="M 525 4666 
L 3525 4666 
L 3525 4397 
L 1831 0 
L 1172 0 
L 2766 4134 
L 525 4134 
L 525 4666 
z
" transform="scale(0.015625)"/>
       </defs>
       <use xlink:href="#DejaVuSans-15"/>
       <use xlink:href="#DejaVuSans-13" transform="translate(63.625 0)"/>
       <use xlink:href="#DejaVuSans-15" transform="translate(127.25 0)"/>
       <use xlink:href="#DejaVuSans-17" transform="translate(190.875 0)"/>
       <use xlink:href="#DejaVuSans-10" transform="translate(254.5 0)"/>
       <use xlink:href="#DejaVuSans-13" transform="translate(290.578125 0)"/>
       <use xlink:href="#DejaVuSans-1a" transform="translate(354.203125 0)"/>
      </g>
     </g>
    </g>
    <g id="xtick_2">
     <g id="line2d_2">
      <g>
       <use xlink:href="#mc61b891aba" x="154.33677" y="296.2" style="stroke: #000000; stroke-width: 0.8"/>
      </g>
     </g>
     <g id="text_2">
      <!-- 2024-10 -->
      <g transform="translate(133.445363 310.797656) scale(0.1 -0.1)">
       <defs>
        <path id="DejaVuSans-14" d="M 794 531 
L 1825 531 
L 1825 4091 
L 703 3866 
L 703 4441 
L 1819 4666 
L 2450 4666 
L 2450 531 
L 3481 531 
L 3481 0 
L 794 0 
L 794 531 
z
" transform="scale(0.015625)"/>
       </defs>
       <use xlink:href="#DejaVuSans-15"/>
       <use xlink:href="#DejaVuSans-13" transform="translate(63.625 0)"/>
       <use xlink:href="#DejaVuSans-15" transform="translate(127.25 0)"/>
       <use xlink:href="#DejaVuSans-17" transform="translate(190.875 0)"/>
       <use xlink:href="#DejaVuSans-10" transform="translate(254.5 0)"/>
       <use xlink:href="#DejaVuSans-14" transform="translate(290.578125 0)"/>
       <use xlink:href="#DejaVuSans-13" transform="translate(354.203125 0)"/>
      </g>
     </g>
    </g>
    <g id="xtick_3">
     <g id="line2d_3">
      <g>
       <use xlink:href="#mc61b891aba" x="220.662077" y="296.2" style="stroke: #000000; stroke-width: 0.8"/>
      </g>
     </g>
     <g id="text_3">
      <!-- 2025-01 -->
      <g transform="translate(199.77067 310.797656) scale(0.1 -0.1)">
       <defs>
        <path id="DejaVuSans-18" d="M 691 4666 
L 3169 4666 
L 3169 4134 
L 1269 4134 
L 1269 2991 
Q 1406 3038 1543 3061 
Q 1681 3084 1819 3084 
Q 2600 3084 3056 2656 
Q 3513 2228 3513 1497 
Q 3513 744 3044 326 
Q 2575 -91 1722 -91 
Q 1428 -91 1123 -41 
Q 819 9 494 109 
L 494 744 
Q 775 591 1075 516 
Q 1375 441 1709 441 
Q 2250 441 2565 725 
Q 2881 1009 2881 1497 
Q 2881 1984 2565 2268 
Q 2250 2553 1709 2553 
Q 1456 2553 1204 2497 
Q 953 2441 691 2322 
L 691 4666 
z
" transform="scale(0.015625)"/>
       </defs>
       <use xlink:href="#DejaVuSans-15"/>
       <use xlink:href="#DejaVuSans-13" transform="translate(63.625 0)"/>
       <use xlink:href="#DejaVuSans-15" transform="translate(127.25 0)"/>
       <use xlink:href="#DejaVuSans-18" transform="translate(190.875 0)"/>
       <use xlink:href="#DejaVuSans-10" transform="translate(254.5 0)"/>
       <use xlink:href="#DejaVuSans-13" transform="translate(290.578125 0)"/>
       <use xlink:href="#DejaVuSans-14" transform="translate(354.203125 0)"/>
      </g>
     </g>
    </g>
    <g id="xtick_4">
     <g id="line2d_4">
      <g>
       <use xlink:href="#mc61b891aba" x="285.545529" y="296.2" style="stroke: #000000; stroke-width: 0.8"/>
      </g>
     </g>
     <g id="text_4">
      <!-- 2025-04 -->
      <g transform="translate(264.654123 310.797656) scale(0.1 -0.1)">
       <use xlink:href="#DejaVuSans-15"/>
       <use xlink:href="#DejaVuSans-13" transform="translate(63.625 0)"/>
       <use xlink:href="#DejaVuSans-15" transform="translate(127.25 0)"/>
       <use xlink:href="#DejaVuSans-18" transform="translate(190.875 0)"/>
       <use xlink:href="#DejaVuSans-10" transform="translate(254.5 0)"/>
       <use xlink:href="#DejaVuSans-13" transform="translate(290.578125 0)"/>
       <use xlink:href="#DejaVuSans-17" transform="translate(354.203125 0)"/>
      </g>
     </g>
    </g>
    <g id="xtick_5">
     <g id="line2d_5">
      <g>
       <use xlink:href="#mc61b891aba" x="351.149909" y="296.2" style="stroke: #000000; stroke-width: 0.8"/>
      </g>
     </g>
     <g id="text_5">
      <!-- 2025-07 -->
      <g transform="translate(330.258503 310.797656) scale(0.1 -0.1)">
       <use xlink:href="#DejaVuSans-15"/>
       <use xlink:href="#DejaVuSans-13" transform="translate(63.625 0)"/>
       <use xlink:href="#DejaVuSans-15" transform="translate(127.25 0)"/>
       <use xlink:href="#DejaVuSans-18" transform="translate(190.875 0)"/>
       <use xlink:href="#DejaVuSans-10" transform="translate(254.5 0)"/>
       <use xlink:href="#DejaVuSans-13" transform="translate(290.578125 0)"/>
       <use xlink:href="#DejaVuSans-1a" transform="translate(354.203125 0)"/>
      </g>
     </g>
    </g>
    <g id="xtick_6">
     <g id="line2d_6">
      <g>
       <use xlink:href="#mc61b891aba" x="417.475216" y="296.2" style="stroke: #000000; stroke-width: 0.8"/>
      </g>
     </g>
     <g id="text_6">
      <!-- 2025-10 -->
      <g transform="translate(396.58381 310.797656) scale(0.1 -0.1)">
       <use xlink:href="#DejaVuSans-15"/>
       <use xlink:href="#DejaVuSans-13" transform="translate(63.625 0)"/>
       <use xlink:href="#DejaVuSans-15" transform="translate(127.25 0)"/>
       <use xlink:href="#DejaVuSans-18" transform="translate(190.875 0)"/>
       <use xlink:href="#DejaVuSans-10" transform="translate(254.5 0)"/>
       <use xlink:href="#DejaVuSans-14" transform="translate(290.578125 0)"/>
       <use xlink:href="#DejaVuSans-13" transform="translate(354.203125 0)"/>
      </g>
     </g>
    </g>
    <g id="xtick_7">
     <g id="line2d_7">
      <g>
       <use xlink:href="#mc61b891aba" x="483.800523" y="296.2" style="stroke: #000000; stroke-width: 0.8"/>
      </g>
     </g>
     <g id="text_7">
      <!-- 2026-01 -->
      <g transform="translate(462.909117 310.797656) scale(0.1 -0.1)">
       <defs>
        <path id="DejaVuSans-19" d="M 2113 2584 
Q 1688 2584 1439 2293 
Q 1191 2003 1191 1497 
Q 1191 994 1439 701 
Q 1688 409 2113 409 
Q 2538 409 2786 701 
Q 3034 994 3034 1497 
Q 3034 2003 2786 2293 
Q 2538 2584 2113 2584 
z
M 3366 4563 
L 3366 3988 
Q 3128 4100 2886 4159 
Q 2644 4219 2406 4219 
Q 1781 4219 1451 3797 
Q 1122 3375 1075 2522 
Q 1259 2794 1537 2939 
Q 1816 3084 2150 3084 
Q 2853 3084 3261 2657 
Q 3669 2231 3669 1497 
Q 3669 778 3244 343 
Q 2819 -91 2113 -91 
Q 1303 -91 875 529 
Q 447 1150 447 2328 
Q 447 3434 972 4092 
Q 1497 4750 2381 4750 
Q 2619 4750 2861 4703 
Q 3103 4656 3366 4563 
z
" transform="scale(0.015625)"/>
       </defs>
       <use xlink:href="#DejaVuSans-15"/>
       <use xlink:href="#DejaVuSans-13" transform="translate(63.625 0)"/>
       <use xlink:href="#DejaVuSans-15" transform="translate(127.25 0)"/>
       <use xlink:href="#DejaVuSans-19" transform="translate(190.875 0)"/>
       <use xlink:href="#DejaVuSans-10" transform="translate(254.5 0)"/>
       <use xlink:href="#DejaVuSans-13" transform="translate(290.578125 0)"/>
       <use xlink:href="#DejaVuSans-14" transform="translate(354.203125 0)"/>
      </g>
     </g>
    </g>
    <g id="xtick_8">
     <g id="line2d_8">
      <g>
       <use xlink:href="#mc61b891aba" x="548.683976" y="296.2" style="stroke: #000000; stroke-width: 0.8"/>
      </g>
     </g>
     <g id="text_8">
      <!-- 2026-04 -->
      <g transform="translate(527.79257 310.797656) scale(0.1 -0.1)">
       <use xlink:href="#DejaVuSans-15"/>
       <use xlink:href="#DejaVuSans-13" transform="translate(63.625 0)"/>
       <use xlink:href="#DejaVuSans-15" transform="translate(127.25 0)"/>
       <use xlink:href="#DejaVuSans-19" transform="translate(190.875 0)"/>
       <use xlink:href="#DejaVuSans-10" transform="translate(254.5 0)"/>
       <use xlink:href="#DejaVuSans-13" transform="translate(290.578125 0)"/>
       <use xlink:href="#DejaVuSans-17" transform="translate(354.203125 0)"/>
      </g>
     </g>
    </g>
    <g id="xtick_9">
     <g id="line2d_9">
      <g>
       <use xlink:href="#mc61b891aba" x="614.288356" y="296.2" style="stroke: #000000; stroke-width: 0.8"/>
      </g>
     </g>
     <g id="text_9">
      <!-- 2026-07 -->
      <g transform="translate(593.39695 310.797656) scale(0.1 -0.1)">
       <use xlink:href="#DejaVuSans-15"/>
       <use xlink:href="#DejaVuSans-13" transform="translate(63.625 0)"/>
       <use xlink:href="#DejaVuSans-15" transform="translate(127.25 0)"/>
       <use xlink:href="#DejaVuSans-19" transform="translate(190.875 0)"/>
       <use xlink:href="#DejaVuSans-10" transform="translate(254.5 0)"/>
       <use xlink:href="#DejaVuSans-13" transform="translate(290.578125 0)"/>
       <use xlink:href="#DejaVuSans-1a" transform="translate(354.203125 0)"/>
      </g>
     </g>
    </g>
   </g>
   <g id="matplotlib.axis_2">
    <g id="ytick_1">
     <g id="line2d_10">
      <defs>
       <path id="m350d520031" d="M 0 0 
L -3.5 0 
" style="stroke: #000000; stroke-width: 0.8"/>
      </defs>
      <g>
       <use xlink:href="#m350d520031" x="48" y="265.985074" style="stroke: #000000; stroke-width: 0.8"/>
      </g>
     </g>
     <g id="text_10">
      <!-- 4.4 -->
      <g transform="translate(25.096875 269.783902) scale(0.1 -0.1)">
       <defs>
        <path id="DejaVuSans-11" d="M 684 794 
L 1344 794 
L 1344 0 
L 684 0 
L 684 794 
z
" transform="scale(0.015625)"/>
       </defs>
       <use xlink:href="#DejaVuSans-17"/>
       <use xlink:href="#DejaVuSans-11" transform="translate(63.625 0)"/>
       <use xlink:href="#DejaVuSans-17" transform="translate(95.40625 0)"/>
      </g>
     </g>
    </g>
    <g id="ytick_2">
     <g id="line2d_11">
      <g>
       <use xlink:href="#m350d520031" x="48" y="225.419049" style="stroke: #000000; stroke-width: 0.8"/>
      </g>
     </g>
     <g id="text_11">
      <!-- 4.6 -->
      <g transform="translate(25.096875 229.217877) scale(0.1 -0.1)">
       <use xlink:href="#DejaVuSans-17"/>
       <use xlink:href="#DejaVuSans-11" transform="translate(63.625 0)"/>
       <use xlink:href="#DejaVuSans-19" transform="translate(95.40625 0)"/>
      </g>
     </g>
    </g>
    <g id="ytick_3">
     <g id="line2d_12">
      <g>
       <use xlink:href="#m350d520031" x="48" y="184.853024" style="stroke: #000000; stroke-width: 0.8"/>
      </g>
     </g>
     <g id="text_12">
      <!-- 4.8 -->
      <g transform="translate(25.096875 188.651852) scale(0.1 -0.1)">
       <defs>
        <path id="DejaVuSans-1b" d="M 2034 2216 
Q 1584 2216 1326 1975 
Q 1069 1734 1069 1313 
Q 1069 891 1326 650 
Q 1584 409 2034 409 
Q 2484 409 2743 651 
Q 3003 894 3003 1313 
Q 3003 1734 2745 1975 
Q 2488 2216 2034 2216 
z
M 1403 2484 
Q 997 2584 770 2862 
Q 544 3141 544 3541 
Q 544 4100 942 4425 
Q 1341 4750 2034 4750 
Q 2731 4750 3128 4425 
Q 3525 4100 3525 3541 
Q 3525 3141 3298 2862 
Q 3072 2584 2669 2484 
Q 3125 2378 3379 2068 
Q 3634 1759 3634 1313 
Q 3634 634 3220 271 
Q 2806 -91 2034 -91 
Q 1263 -91 848 271 
Q 434 634 434 1313 
Q 434 1759 690 2068 
Q 947 2378 1403 2484 
z
M 1172 3481 
Q 1172 3119 1398 2916 
Q 1625 2713 2034 2713 
Q 2441 2713 2670 2916 
Q 2900 3119 2900 3481 
Q 2900 3844 2670 4047 
Q 2441 4250 2034 4250 
Q 1625 4250 1398 4047 
Q 1172 3844 1172 3481 
z
" transform="scale(0.015625)"/>
       </defs>
       <use xlink:href="#DejaVuSans-17"/>
       <use xlink:href="#DejaVuSans-11" transform="translate(63.625 0)"/>
       <use xlink:href="#DejaVuSans-1b" transform="translate(95.40625 0)"/>
      </g>
     </g>
    </g>
    <g id="ytick_4">
     <g id="line2d_13">
      <g>
       <use xlink:href="#m350d520031" x="48" y="144.286999" style="stroke: #000000; stroke-width: 0.8"/>
      </g>
     </g>
     <g id="text_13">
      <!-- 5.0 -->
      <g transform="translate(25.096875 148.085828) scale(0.1 -0.1)">
       <use xlink:href="#DejaVuSans-18"/>
       <use xlink:href="#DejaVuSans-11" transform="translate(63.625 0)"/>
       <use xlink:href="#DejaVuSans-13" transform="translate(95.40625 0)"/>
      </g>
     </g>
    </g>
    <g id="ytick_5">
     <g id="line2d_14">
      <g>
       <use xlink:href="#m350d520031" x="48" y="103.720975" style="stroke: #000000; stroke-width: 0.8"/>
      </g>
     </g>
     <g id="text_14">
      <!-- 5.2 -->
      <g transform="translate(25.096875 107.519803) scale(0.1 -0.1)">
       <use xlink:href="#DejaVuSans-18"/>
       <use xlink:href="#DejaVuSans-11" transform="translate(63.625 0)"/>
       <use xlink:href="#DejaVuSans-15" transform="translate(95.40625 0)"/>
      </g>
     </g>
    </g>
    <g id="ytick_6">
     <g id="line2d_15">
      <g>
       <use xlink:href="#m350d520031" x="48" y="63.15495" style="stroke: #000000; stroke-width: 0.8"/>
      </g>
     </g>
     <g id="text_15">
      <!-- 5.4 -->
      <g transform="translate(25.096875 66.953778) scale(0.1 -0.1)">
       <use xlink:href="#DejaVuSans-18"/>
       <use xlink:href="#DejaVuSans-11" transform="translate(63.625 0)"/>
       <use xlink:href="#DejaVuSans-17" transform="translate(95.40625 0)"/>
      </g>
     </g>
    </g>
    <g id="text_16">
     <!-- Log price -->
     <g transform="translate(18.694531 184.024219) rotate(-90) scale(0.1 -0.1)">
      <defs>
       <path id="DejaVuSans-2f" d="M 628 4666 
L 1259 4666 
L 1259 531 
L 3531 531 
L 3531 0 
L 628 0 
L 628 4666 
z
" transform="scale(0.015625)"/>
       <path id="DejaVuSans-52" d="M 1959 3097 
Q 1497 3097 1228 2736 
Q 959 2375 959 1747 
Q 959 1119 1226 758 
Q 1494 397 1959 397 
Q 2419 397 2687 759 
Q 2956 1122 2956 1747 
Q 2956 2369 2687 2733 
Q 2419 3097 1959 3097 
z
M 1959 3584 
Q 2709 3584 3137 3096 
Q 3566 2609 3566 1747 
Q 3566 888 3137 398 
Q 2709 -91 1959 -91 
Q 1206 -91 779 398 
Q 353 888 353 1747 
Q 353 2609 779 3096 
Q 1206 3584 1959 3584 
z
" transform="scale(0.015625)"/>
       <path id="DejaVuSans-4a" d="M 2906 1791 
Q 2906 2416 2648 2759 
Q 2391 3103 1925 3103 
Q 1463 3103 1205 2759 
Q 947 2416 947 1791 
Q 947 1169 1205 825 
Q 1463 481 1925 481 
Q 2391 481 2648 825 
Q 2906 1169 2906 1791 
z
M 3481 434 
Q 3481 -459 3084 -895 
Q 2688 -1331 1869 -1331 
Q 1566 -1331 1297 -1286 
Q 1028 -1241 775 -1147 
L 775 -588 
Q 1028 -725 1275 -790 
Q 1522 -856 1778 -856 
Q 2344 -856 2625 -561 
Q 2906 -266 2906 331 
L 2906 616 
Q 2728 306 2450 153 
Q 2172 0 1784 0 
Q 1141 0 747 490 
Q 353 981 353 1791 
Q 353 2603 747 3093 
Q 1141 3584 1784 3584 
Q 2172 3584 2450 3431 
Q 2728 3278 2906 2969 
L 2906 3500 
L 3481 3500 
L 3481 434 
z
" transform="scale(0.015625)"/>
       <path id="DejaVuSans-3" transform="scale(0.015625)"/>
       <path id="DejaVuSans-53" d="M 1159 525 
L 1159 -1331 
L 581 -1331 
L 581 3500 
L 1159 3500 
L 1159 2969 
Q 1341 3281 1617 3432 
Q 1894 3584 2278 3584 
Q 2916 3584 3314 3078 
Q 3713 2572 3713 1747 
Q 3713 922 3314 415 
Q 2916 -91 2278 -91 
Q 1894 -91 1617 61 
Q 1341 213 1159 525 
z
M 3116 1747 
Q 3116 2381 2855 2742 
Q 2594 3103 2138 3103 
Q 1681 3103 1420 2742 
Q 1159 2381 1159 1747 
Q 1159 1113 1420 752 
Q 1681 391 2138 391 
Q 2594 391 2855 752 
Q 3116 1113 3116 1747 
z
" transform="scale(0.015625)"/>
       <path id="DejaVuSans-55" d="M 2631 2963 
Q 2534 3019 2420 3045 
Q 2306 3072 2169 3072 
Q 1681 3072 1420 2755 
Q 1159 2438 1159 1844 
L 1159 0 
L 581 0 
L 581 3500 
L 1159 3500 
L 1159 2956 
Q 1341 3275 1631 3429 
Q 1922 3584 2338 3584 
Q 2397 3584 2469 3576 
Q 2541 3569 2628 3553 
L 2631 2963 
z
" transform="scale(0.015625)"/>
       <path id="DejaVuSans-4c" d="M 603 3500 
L 1178 3500 
L 1178 0 
L 603 0 
L 603 3500 
z
M 603 4863 
L 1178 4863 
L 1178 4134 
L 603 4134 
L 603 4863 
z
" transform="scale(0.015625)"/>
       <path id="DejaVuSans-46" d="M 3122 3366 
L 3122 2828 
Q 2878 2963 2633 3030 
Q 2388 3097 2138 3097 
Q 1578 3097 1268 2742 
Q 959 2388 959 1747 
Q 959 1106 1268 751 
Q 1578 397 2138 397 
Q 2388 397 2633 464 
Q 2878 531 3122 666 
L 3122 134 
Q 2881 22 2623 -34 
Q 2366 -91 2075 -91 
Q 1284 -91 818 406 
Q 353 903 353 1747 
Q 353 2603 823 3093 
Q 1294 3584 2113 3584 
Q 2378 3584 2631 3529 
Q 2884 3475 3122 3366 
z
" transform="scale(0.015625)"/>
       <path id="DejaVuSans-48" d="M 3597 1894 
L 3597 1613 
L 953 1613 
Q 991 1019 1311 708 
Q 1631 397 2203 397 
Q 2534 397 2845 478 
Q 3156 559 3463 722 
L 3463 178 
Q 3153 47 2828 -22 
Q 2503 -91 2169 -91 
Q 1331 -91 842 396 
Q 353 884 353 1716 
Q 353 2575 817 3079 
Q 1281 3584 2069 3584 
Q 2775 3584 3186 3129 
Q 3597 2675 3597 1894 
z
M 3022 2063 
Q 3016 2534 2758 2815 
Q 2500 3097 2075 3097 
Q 1594 3097 1305 2825 
Q 1016 2553 972 2059 
L 3022 2063 
z
" transform="scale(0.015625)"/>
      </defs>
      <use xlink:href="#DejaVuSans-2f"/>
      <use xlink:href="#DejaVuSans-52" transform="translate(53.96875 0)"/>
      <use xlink:href="#DejaVuSans-4a" transform="translate(115.15625 0)"/>
      <use xlink:href="#DejaVuSans-3" transform="translate(178.640625 0)"/>
      <use xlink:href="#DejaVuSans-53" transform="translate(210.421875 0)"/>
      <use xlink:href="#DejaVuSans-55" transform="translate(273.90625 0)"/>
      <use xlink:href="#DejaVuSans-4c" transform="translate(315.015625 0)"/>
      <use xlink:href="#DejaVuSans-46" transform="translate(342.796875 0)"/>
      <use xlink:href="#DejaVuSans-48" transform="translate(397.78125 0)"/>
     </g>
    </g>
   </g>
   <g id="line2d_16">
    <path d="M 74.313845 245.988723 
L 75.034772 248.257793 
L 75.755699 239.220797 
L 77.918481 242.765215 
L 78.639408 249.976412 
L 80.081263 251.640102 
L 80.80219 247.87026 
L 82.964972 250.714144 
L 83.685899 249.218421 
L 85.127753 243.633199 
L 85.848681 244.818752 
L 88.73239 244.998312 
L 89.453317 241.635745 
L 90.895171 240.86422 
L 93.057953 241.481192 
L 93.77888 245.447907 
L 94.499808 247.210869 
L 95.220735 247.824707 
L 95.941662 249.149656 
L 98.104444 250.714144 
L 98.825371 234.092136 
L 99.546298 248.668936 
L 100.267226 253.645338 
L 100.988153 253.177222 
L 103.150935 254.349518 
L 103.871862 254.091029 
L 104.592789 264.944016 
L 105.313716 264.12811 
L 106.034644 262.334764 
L 108.197425 262.310302 
L 108.918353 264.622208 
L 109.63928 258.386791 
L 110.360207 268.014431 
L 111.081134 281.615175 
L 113.964843 283.914418 
L 114.685771 250.598689 
L 115.406698 236.597165 
L 116.127625 234.496843 
L 118.290407 237.136464 
L 119.011334 232.98865 
L 119.732262 228.013272 
L 120.453189 218.808659 
L 121.174116 220.274283 
L 123.336898 219.421345 
L 124.057825 220.373701 
L 124.778752 217.314359 
L 125.49968 222.011046 
L 126.220607 218.571979 
L 128.383389 222.151433 
L 129.104316 223.944885 
L 129.825243 228.965429 
L 130.54617 226.634384 
L 131.267098 224.756128 
L 134.150807 231.428561 
L 134.871734 234.987819 
L 135.592661 235.330084 
L 136.313588 243.744755 
L 138.47637 240.40272 
L 139.197297 239.592154 
L 139.918225 230.402106 
L 140.639152 230.883274 
L 141.360079 227.559465 
L 143.522861 224.410943 
L 144.964715 219.361974 
L 145.685643 211.14063 
L 146.40657 211.102621 
L 148.569352 208.328862 
L 149.290279 208.8355 
L 150.011206 210.855793 
L 150.732133 207.188905 
L 151.453061 210.438757 
L 153.615842 208.104108 
L 154.33677 212.589957 
L 155.057697 210.969674 
L 155.778624 212.589957 
L 156.499551 201.546956 
L 158.662333 204.688559 
L 159.38326 200.012206 
L 160.104188 197.083459 
L 160.825115 198.132237 
L 161.546042 196.74688 
L 165.150678 200.444382 
L 165.871606 200.210169 
L 166.592533 197.438376 
L 168.755315 197.172134 
L 169.476242 199.958252 
L 170.197169 204.706971 
L 170.918096 203.99029 
L 171.639024 205.333851 
L 173.801805 203.257849 
L 174.522733 201.293374 
L 175.24366 202.746714 
L 175.964587 207.039871 
L 176.685514 204.559749 
L 178.848296 206.779332 
L 179.569223 204.780622 
L 181.011078 189.633568 
L 181.732005 185.28819 
L 183.894787 178.510651 
L 184.615714 139.096668 
L 185.336641 127.523939 
L 186.057569 137.544036 
L 186.778496 138.285691 
L 188.941278 144.182004 
L 189.662205 147.625956 
L 190.383132 148.531058 
L 191.104059 143.745381 
L 191.824987 142.834213 
L 193.987768 135.139139 
L 194.708696 132.014919 
L 195.429623 131.847747 
L 196.871477 126.720254 
L 199.755186 132.272363 
L 200.476114 129.509067 
L 201.197041 128.938093 
L 201.917968 119.68739 
L 204.08075 124.749679 
L 204.801677 128.015251 
L 205.522604 121.19408 
L 206.243532 123.82094 
L 206.964459 124.998059 
L 209.127241 122.40507 
L 209.848168 115.695744 
L 210.569095 131.129221 
L 211.290022 136.673401 
L 212.01095 133.240712 
L 214.173731 132.814067 
L 214.894659 129.674322 
L 217.05744 134.135699 
L 219.220222 137.848312 
L 219.941149 138.126522 
L 221.383004 135.596879 
L 222.103931 131.757802 
L 224.266713 124.439627 
L 224.98764 137.636585 
L 225.708567 135.636162 
L 227.150422 142.50881 
L 229.313204 146.960171 
L 230.034131 147.862279 
L 230.755058 142.915641 
L 231.475985 143.472965 
L 232.196913 142.739242 
L 235.801549 138.073507 
L 236.522476 138.564502 
L 237.243403 136.173813 
L 239.406185 136.331436 
L 240.127112 117.699737 
L 240.84804 118.588753 
L 241.568967 113.711375 
L 242.289894 117.208836 
L 244.452676 120.877222 
L 245.89453 111.583308 
L 246.615458 116.778781 
L 247.336385 119.542181 
L 249.499167 114.902028 
L 250.220094 109.05187 
L 250.941021 114.276357 
L 251.661948 104.003406 
L 252.382876 102.997476 
L 255.266585 101.29875 
L 255.987512 103.276403 
L 256.708439 110.898212 
L 257.429367 123.438303 
L 259.592148 123.253402 
L 260.313076 130.591993 
L 261.034003 125.844856 
L 261.75493 128.950757 
L 262.475857 126.469757 
L 264.638639 136.068792 
L 265.359566 145.89667 
L 266.080494 139.21659 
L 266.801421 146.724896 
L 267.522348 150.621155 
L 269.68513 165.11416 
L 270.406057 165.068711 
L 271.126984 157.811273 
L 271.847912 170.034734 
L 272.568839 161.511652 
L 274.731621 159.012744 
L 275.452548 164.433782 
L 276.173475 148.293954 
L 276.894402 148.029278 
L 277.61533 142.739242 
L 279.778111 133.460847 
L 280.499039 133.098397 
L 281.219966 143.813547 
L 281.940893 146.752567 
L 282.66182 158.67503 
L 284.824602 160.665393 
L 285.545529 156.529739 
L 286.266457 150.156403 
L 286.987384 194.476269 
L 287.708311 206.110905 
L 289.871093 200.823283 
L 290.59202 205.333851 
L 291.312947 172.579813 
L 292.033875 190.35264 
L 292.754802 193.585548 
L 294.917584 196.287184 
L 295.638511 191.884869 
L 296.359438 193.254705 
L 297.080365 194.213884 
L 300.685002 189.975662 
L 301.405929 177.027664 
L 302.126856 168.412018 
L 302.847783 163.996545 
L 305.010565 161.734957 
L 305.731492 160.724655 
L 306.45242 169.415036 
L 307.173347 164.50927 
L 307.894274 160.502482 
L 310.057056 162.227044 
L 310.777983 172.34425 
L 311.49891 169.152235 
L 312.219838 169.786618 
L 312.940765 174.331409 
L 315.103547 147.61207 
L 315.824474 141.981153 
L 316.545401 134.39585 
L 317.266328 136.884125 
L 317.987256 135.596879 
L 320.870965 144.811326 
L 321.591892 153.503864 
L 322.312819 151.553909 
L 323.033746 156.834833 
L 325.917455 145.525088 
L 326.638383 144.469066 
L 327.35931 144.018163 
L 328.080237 146.724896 
L 330.243019 147.709351 
L 330.963946 150.212672 
L 331.684873 153.661247 
L 332.405801 151.072871 
L 333.126728 138.670824 
L 335.28951 145.470083 
L 336.010437 141.064415 
L 336.731364 134.174699 
L 337.452291 144.086421 
L 338.173219 151.568088 
L 340.336 146.130986 
L 341.056928 148.475231 
L 341.777855 148.628759 
L 343.219709 147.292801 
L 345.382491 140.795554 
L 346.103418 132.839904 
L 346.824346 133.953789 
L 347.545273 136.515492 
L 348.2662 134.526061 
L 350.428982 132.801159 
L 351.870836 134.226705 
L 352.591764 129.941555 
L 355.475473 129.890617 
L 356.1964 136.805063 
L 356.917327 133.538596 
L 357.638254 132.323903 
L 358.359182 137.557249 
L 360.521963 129.102883 
L 361.242891 131.770643 
L 361.963818 123.882728 
L 362.684745 111.781138 
L 363.405672 111.606578 
L 365.568454 109.949875 
L 366.289381 118.600805 
L 367.010309 121.499207 
L 367.731236 120.938119 
L 368.452163 116.004604 
L 370.614945 111.839364 
L 371.335872 114.406055 
L 372.056799 116.337735 
L 372.777727 117.496052 
L 373.498654 124.489195 
L 376.382363 110.678076 
L 377.10329 71.177536 
L 377.824217 76.253629 
L 378.545145 77.961136 
L 380.707926 80.38006 
L 381.428854 77.980851 
L 382.149781 77.017289 
L 382.870708 84.327626 
L 383.591635 88.291324 
L 385.754417 86.125316 
L 386.475344 90.942472 
L 387.196272 93.724566 
L 387.917199 94.076345 
L 388.638126 87.339556 
L 390.800908 89.049735 
L 391.521835 89.060138 
L 392.242763 90.973992 
L 392.96369 89.14343 
L 393.684617 89.978212 
L 396.568326 92.365764 
L 397.289253 90.491205 
L 398.010181 82.989753 
L 398.731108 80.419964 
L 400.89389 81.861466 
L 401.614817 84.96929 
L 402.335744 86.618366 
L 403.056671 83.121128 
L 403.777599 85.316423 
L 405.94038 80.091057 
L 406.661308 81.419918 
L 407.382235 80.19066 
L 408.103162 74.134409 
L 410.986871 66.980156 
L 411.707798 76.341594 
L 412.428726 76.958446 
L 413.149653 83.819814 
L 413.87058 88.498836 
L 416.033362 76.351365 
L 416.754289 77.036913 
L 417.475216 75.220423 
L 418.196144 72.688989 
L 418.917071 59.988489 
L 421.079853 55.855055 
L 421.80078 59.799171 
L 422.521707 53.308344 
L 423.242634 55.537167 
L 423.963562 72.545018 
L 426.847271 69.261445 
L 427.568198 64.982917 
L 429.010052 63.591871 
L 431.172834 54.244269 
L 431.893761 57.238354 
L 432.614689 58.487869 
L 433.335616 52.359341 
L 434.056543 45.015152 
L 436.219325 42.476046 
L 436.940252 39.014528 
L 437.661179 38.754431 
L 438.382107 44.321027 
L 439.103034 43.562718 
L 441.265816 44.312671 
L 441.986743 57.888932 
L 442.70767 54.876496 
L 443.428597 64.143457 
L 444.149525 69.847628 
L 446.312306 61.982454 
L 447.033234 61.964234 
L 447.754161 64.918213 
L 448.475088 77.902019 
L 449.196015 78.850016 
L 451.358797 86.95804 
L 452.079724 87.54608 
L 452.800652 78.414968 
L 453.521579 79.84224 
L 454.242506 75.551253 
L 456.405288 65.241911 
L 457.126215 62.621028 
L 457.847142 60.910532 
L 459.288997 61.500295 
L 461.451779 74.744575 
L 462.172706 65.038386 
L 463.61456 58.389414 
L 464.335488 61.9005 
L 466.498269 64.742723 
L 467.219197 62.831296 
L 467.940124 53.247259 
L 468.661051 58.174765 
L 469.381978 58.855262 
L 471.54476 64.244746 
L 472.265687 60.476099 
L 472.986615 61.682104 
L 473.707542 55.51953 
L 474.428469 52.107592 
L 476.591251 52.472283 
L 477.312178 53.570322 
L 481.637742 55.563637 
L 482.358669 60.602709 
L 483.079596 63.527609 
L 484.521451 68.047192 
L 487.40516 52.802814 
L 488.126087 54.446026 
L 488.847014 52.420146 
L 489.567941 56.288543 
L 491.730723 52.768002 
L 492.45165 53.308344 
L 493.172578 65.733058 
L 493.893505 64.742723 
L 494.614432 67.204334 
L 497.498141 83.718414 
L 498.219068 92.503356 
L 498.939996 94.514277 
L 501.823705 97.378674 
L 502.544632 97.606534 
L 503.265559 95.693906 
L 503.986486 90.449286 
L 504.707414 106.653793 
L 506.870195 104.452106 
L 507.591123 125.047783 
L 508.31205 133.240712 
L 509.032977 138.896935 
L 509.753904 138.03375 
L 511.916686 128.229784 
L 512.637613 113.73489 
L 514.079468 141.387487 
L 514.800395 136.950003 
L 517.684104 135.740959 
L 518.405031 120.877222 
L 519.846886 113.323855 
L 522.009668 128.19191 
L 522.730595 128.457177 
L 523.451522 123.241089 
L 524.17245 114.193874 
L 524.893377 123.204135 
L 527.056159 124.873822 
L 527.777086 120.755501 
L 528.498013 108.845213 
L 529.21894 100.405154 
L 529.939868 108.810791 
L 532.102649 103.555714 
L 532.823577 109.961407 
L 533.544504 109.742284 
L 534.265431 114.441441 
L 534.986358 118.143758 
L 537.14914 112.948778 
L 537.870067 110.701241 
L 538.590995 116.671414 
L 539.311922 118.829716 
L 540.032849 128.229784 
L 542.195631 121.352694 
L 542.916558 129.242421 
L 543.637485 124.377669 
L 544.358413 129.102883 
L 545.07934 134.930219 
L 547.242122 134.460945 
L 547.963049 122.724326 
L 548.683976 123.167187 
L 549.404903 123.315017 
L 552.288612 122.34375 
L 553.00954 125.296529 
L 553.730467 121.242861 
L 554.451394 134.917176 
L 555.172321 137.385448 
L 557.335103 130.770911 
L 558.05603 126.482268 
L 558.776958 110.643341 
L 559.497885 111.885964 
L 560.218812 105.725032 
L 562.381594 100.108155 
L 563.102521 106.06433 
L 563.823448 104.452106 
L 564.544376 116.421094 
L 565.265303 114.512229 
L 567.428085 117.352384 
L 568.149012 120.147933 
L 569.590866 122.945626 
L 570.311794 112.632865 
L 572.474575 112.761517 
L 573.195503 147.223455 
L 573.91643 150.029815 
L 574.637357 138.68411 
L 575.358284 141.212433 
L 578.241993 160.709843 
L 578.962921 170.050242 
L 579.683848 165.477939 
L 580.404775 159.130346 
L 583.288484 157.563076 
L 584.009411 149.959528 
L 584.730339 149.692692 
L 585.451266 152.533667 
L 588.334975 149.160028 
L 589.055902 145.580087 
L 589.776829 131.065187 
L 590.497757 123.524632 
L 592.660538 114.760203 
L 593.381466 126.582439 
L 594.102393 132.775327 
L 594.82332 127.096589 
L 595.544247 138.391867 
L 597.707029 135.937607 
L 598.427956 136.620744 
L 599.148884 140.876187 
L 599.869811 136.502346 
L 600.590738 140.044681 
L 600.590738 140.044681 
" clip-path="url(#p76e2c19cd6)" style="fill: none; stroke: #1f77b4; stroke-width: 1.5; stroke-linecap: square"/>
   </g>
   <g id="line2d_17">
    <path d="M 74.313845 245.62051 
L 75.034772 248.538701 
L 75.755699 239.151838 
L 77.918481 242.716564 
L 78.639408 250.050172 
L 80.081263 251.332559 
L 80.80219 248.026092 
L 82.964972 250.038436 
L 83.685899 249.20495 
L 84.406826 247.070409 
L 85.127753 243.595805 
L 85.848681 244.653084 
L 88.73239 244.053158 
L 89.453317 242.908992 
L 90.895171 241.107277 
L 93.057953 241.639512 
L 93.77888 245.443679 
L 94.499808 247.037438 
L 95.941662 249.358936 
L 98.104444 251.174366 
L 98.825371 234.030283 
L 99.546298 248.93885 
L 100.267226 254.193752 
L 100.988153 253.6879 
L 103.150935 255.128898 
L 103.871862 254.425537 
L 104.592789 265.344692 
L 105.313716 264.403618 
L 106.034644 262.572436 
L 108.197425 262.681797 
L 108.918353 264.557078 
L 109.63928 257.908687 
L 111.081134 281.233323 
L 113.964843 283.120708 
L 114.685771 250.110052 
L 115.406698 236.299066 
L 116.127625 234.376773 
L 118.290407 237.287886 
L 119.732262 228.171431 
L 120.453189 219.041628 
L 121.174116 219.59166 
L 123.336898 218.757141 
L 124.057825 220.258754 
L 124.778752 217.036145 
L 125.49968 222.50499 
L 126.220607 217.24329 
L 129.104316 223.394917 
L 129.825243 229.430371 
L 131.267098 224.545375 
L 134.150807 232.266635 
L 134.871734 234.557064 
L 135.592661 235.404399 
L 136.313588 244.697257 
L 138.47637 240.405827 
L 139.197297 240.258358 
L 139.918225 229.847347 
L 140.639152 230.909322 
L 141.360079 227.731253 
L 143.522861 224.563727 
L 144.964715 219.87756 
L 145.685643 210.478548 
L 146.40657 211.09203 
L 148.569352 207.519375 
L 149.290279 207.482665 
L 150.011206 211.835689 
L 150.732133 207.135299 
L 151.453061 211.138701 
L 153.615842 208.273553 
L 154.33677 212.320511 
L 155.057697 211.136279 
L 155.778624 213.458255 
L 156.499551 201.96822 
L 158.662333 205.405109 
L 159.38326 200.557176 
L 160.104188 198.022947 
L 160.825115 198.882822 
L 161.546042 197.049406 
L 165.150678 199.943324 
L 165.871606 200.873754 
L 166.592533 197.682108 
L 168.755315 197.673854 
L 169.476242 199.769174 
L 170.197169 204.928253 
L 170.918096 204.220566 
L 171.639024 205.943511 
L 173.801805 203.231978 
L 174.522733 202.000392 
L 175.24366 202.625843 
L 175.964587 207.311063 
L 176.685514 204.901936 
L 178.848296 206.558004 
L 179.569223 203.920837 
L 180.290151 199.00752 
L 181.011078 188.53106 
L 183.894787 178.856714 
L 184.615714 139.933662 
L 185.336641 128.408204 
L 186.057569 138.601205 
L 186.778496 138.706439 
L 188.941278 143.294044 
L 189.662205 146.696845 
L 190.383132 148.938599 
L 191.104059 143.852703 
L 191.824987 142.76627 
L 193.987768 135.932247 
L 194.708696 131.571751 
L 195.429623 131.393771 
L 196.871477 126.615969 
L 199.755186 132.76887 
L 200.476114 129.611381 
L 201.197041 128.330819 
L 201.917968 121.606101 
L 204.08075 125.134809 
L 204.801677 128.051407 
L 205.522604 121.127079 
L 206.243532 125.083861 
L 206.964459 125.306777 
L 209.127241 122.877871 
L 209.848168 116.635115 
L 210.569095 132.907849 
L 211.290022 135.696508 
L 212.01095 132.97975 
L 214.173731 133.011497 
L 214.894659 131.110087 
L 217.05744 134.315549 
L 219.220222 137.227158 
L 219.941149 138.668919 
L 221.383004 136.042463 
L 222.103931 132.423418 
L 224.266713 122.844105 
L 224.98764 137.970735 
L 225.708567 135.983296 
L 227.150422 142.998469 
L 230.034131 147.694863 
L 230.755058 142.671404 
L 231.475985 144.474293 
L 232.196913 143.785473 
L 235.080622 139.432609 
L 235.801549 138.693017 
L 236.522476 138.489994 
L 237.243403 135.706098 
L 239.406185 136.177503 
L 240.127112 117.771993 
L 240.84804 119.278111 
L 241.568967 114.834306 
L 242.289894 117.605954 
L 244.452676 118.723951 
L 245.173603 114.532821 
L 245.89453 111.45798 
L 246.615458 117.040501 
L 247.336385 119.18211 
L 249.499167 114.561474 
L 250.220094 108.34545 
L 250.941021 114.227855 
L 251.661948 102.297999 
L 252.382876 102.734957 
L 255.266585 101.325034 
L 255.987512 103.869733 
L 256.708439 109.908082 
L 257.429367 124.256469 
L 259.592148 123.888205 
L 260.313076 131.087954 
L 261.034003 126.611445 
L 261.75493 130.456784 
L 262.475857 126.811505 
L 264.638639 136.907595 
L 265.359566 145.667068 
L 266.080494 138.345105 
L 266.801421 146.28787 
L 267.522348 151.685995 
L 269.68513 166.095465 
L 270.406057 164.831706 
L 271.126984 157.11714 
L 271.847912 170.99493 
L 272.568839 160.771027 
L 274.731621 157.881248 
L 275.452548 164.421348 
L 276.173475 148.73054 
L 276.894402 147.835842 
L 277.61533 143.137213 
L 279.778111 133.360155 
L 280.499039 132.595402 
L 281.219966 143.706074 
L 281.940893 146.846196 
L 282.66182 158.56516 
L 284.824602 161.075774 
L 285.545529 155.384993 
L 286.266457 150.62118 
L 286.987384 192.54682 
L 287.708311 208.25615 
L 289.871093 200.934636 
L 290.59202 205.483126 
L 291.312947 170.73041 
L 292.033875 188.509917 
L 292.754802 192.900403 
L 294.917584 196.314972 
L 295.638511 193.159212 
L 296.359438 192.208337 
L 297.080365 194.377574 
L 300.685002 189.81517 
L 301.405929 177.569291 
L 302.126856 168.103712 
L 302.847783 164.118719 
L 305.010565 160.925615 
L 305.731492 160.802698 
L 306.45242 169.052438 
L 307.173347 165.352191 
L 307.894274 159.886797 
L 310.057056 162.027407 
L 310.777983 171.637857 
L 311.49891 170.966559 
L 312.219838 171.090292 
L 312.940765 174.640494 
L 315.103547 148.610594 
L 316.545401 135.12327 
L 317.266328 136.709517 
L 317.987256 136.071015 
L 320.870965 144.109247 
L 321.591892 152.79009 
L 322.312819 151.584791 
L 323.033746 155.151603 
L 326.638383 144.963586 
L 327.35931 143.246655 
L 328.080237 144.818556 
L 330.243019 147.280398 
L 331.684873 153.160948 
L 332.405801 150.872874 
L 333.126728 139.095719 
L 335.28951 145.422425 
L 336.010437 140.722944 
L 336.731364 134.179509 
L 338.173219 151.503598 
L 340.336 145.938276 
L 341.056928 149.553571 
L 343.219709 148.001266 
L 345.382491 140.641368 
L 346.103418 132.771932 
L 346.824346 133.743175 
L 347.545273 135.424671 
L 348.2662 135.408646 
L 350.428982 131.828542 
L 351.870836 133.401755 
L 352.591764 131.184443 
L 355.475473 130.699199 
L 356.1964 137.177785 
L 356.917327 133.840633 
L 357.638254 132.12436 
L 358.359182 137.979704 
L 360.521963 129.36045 
L 361.242891 132.011596 
L 361.963818 123.294316 
L 362.684745 112.595592 
L 363.405672 111.394883 
L 365.568454 109.411369 
L 366.289381 117.719725 
L 367.010309 121.257322 
L 367.731236 121.514947 
L 368.452163 117.065389 
L 370.614945 112.26206 
L 372.056799 117.420921 
L 372.777727 117.990321 
L 373.498654 123.606053 
L 376.382363 111.033201 
L 377.10329 70.712866 
L 377.824217 76.25548 
L 378.545145 78.324192 
L 380.707926 80.906994 
L 381.428854 78.137284 
L 382.149781 77.127247 
L 382.870708 85.406823 
L 383.591635 88.484371 
L 385.754417 86.118685 
L 386.475344 91.854084 
L 387.196272 93.792403 
L 387.917199 94.596185 
L 388.638126 86.29098 
L 390.800908 89.60618 
L 391.521835 88.697972 
L 392.242763 90.464545 
L 392.96369 88.850061 
L 396.568326 92.965652 
L 397.289253 90.704893 
L 398.010181 83.5696 
L 398.731108 80.927486 
L 400.89389 81.479325 
L 401.614817 85.94535 
L 402.335744 86.949134 
L 403.056671 82.748631 
L 403.777599 85.461989 
L 405.94038 79.102586 
L 406.661308 80.992261 
L 407.382235 80.603944 
L 408.103162 74.411228 
L 408.824089 72.508287 
L 410.986871 67.660188 
L 411.707798 76.5171 
L 412.428726 77.81602 
L 413.149653 84.451616 
L 413.87058 88.371697 
L 416.033362 76.137182 
L 416.754289 76.989175 
L 417.475216 75.576768 
L 418.196144 73.011255 
L 418.917071 59.920003 
L 421.079853 55.674639 
L 421.80078 59.960443 
L 422.521707 53.48607 
L 423.242634 56.604048 
L 423.963562 72.236367 
L 426.847271 69.46146 
L 427.568198 65.00422 
L 428.289125 64.522866 
L 429.010052 62.987114 
L 431.172834 54.677928 
L 431.893761 56.995843 
L 432.614689 57.972487 
L 433.335616 52.233485 
L 434.056543 45.201007 
L 436.219325 42.642852 
L 436.940252 38.20277 
L 437.661179 38.908623 
L 438.382107 45.086437 
L 439.103034 44.216345 
L 441.265816 44.795504 
L 441.986743 58.803587 
L 442.70767 55.667933 
L 443.428597 64.386268 
L 444.149525 69.036914 
L 446.312306 61.584004 
L 447.033234 61.771894 
L 447.754161 64.933561 
L 448.475088 78.758876 
L 449.196015 78.796139 
L 451.358797 87.714927 
L 452.079724 86.495743 
L 452.800652 79.581359 
L 453.521579 80.761003 
L 454.242506 75.563004 
L 457.126215 62.581456 
L 457.847142 60.155899 
L 459.288997 62.147862 
L 461.451779 75.302879 
L 462.172706 64.851697 
L 462.893633 61.233687 
L 463.61456 58.56598 
L 464.335488 60.012972 
L 466.498269 65.229033 
L 467.219197 63.131825 
L 467.940124 52.641052 
L 468.661051 57.933232 
L 469.381978 58.825458 
L 471.54476 64.375299 
L 472.265687 60.222472 
L 472.986615 62.17619 
L 473.707542 55.507371 
L 474.428469 52.266763 
L 476.591251 51.951477 
L 477.312178 52.731708 
L 478.033105 53.761971 
L 481.637742 55.905063 
L 482.358669 60.689374 
L 483.079596 64.038912 
L 484.521451 68.530585 
L 486.684232 56.772727 
L 487.40516 53.677163 
L 488.126087 55.114412 
L 488.847014 52.628146 
L 489.567941 57.170121 
L 491.730723 52.232466 
L 492.45165 53.382772 
L 493.172578 65.625232 
L 493.893505 65.035797 
L 494.614432 67.798513 
L 497.498141 83.293738 
L 498.219068 92.437347 
L 498.939996 93.609772 
L 499.660923 94.109488 
L 501.823705 97.660188 
L 502.544632 95.747686 
L 503.265559 95.454079 
L 503.986486 89.478588 
L 504.707414 108.494922 
L 506.870195 104.850835 
L 507.591123 125.130359 
L 508.31205 134.804408 
L 509.032977 139.368367 
L 509.753904 137.25974 
L 511.916686 126.868969 
L 512.637613 113.704987 
L 514.079468 141.825315 
L 514.800395 137.593491 
L 517.684104 135.707658 
L 518.405031 121.708195 
L 519.846886 113.514694 
L 522.009668 128.951256 
L 522.730595 128.885394 
L 523.451522 123.009236 
L 524.17245 114.096061 
L 524.893377 122.66542 
L 527.056159 125.056034 
L 527.777086 120.830386 
L 528.498013 108.232555 
L 529.21894 100.793569 
L 529.939868 107.436223 
L 532.102649 103.367938 
L 532.823577 109.976861 
L 533.544504 109.793328 
L 534.986358 119.594863 
L 537.14914 112.53618 
L 537.870067 111.000806 
L 538.590995 117.451068 
L 539.311922 119.135327 
L 540.032849 128.524614 
L 542.195631 121.541127 
L 542.916558 129.697102 
L 543.637485 125.380225 
L 544.358413 129.728616 
L 545.07934 135.566121 
L 547.242122 135.015432 
L 547.963049 122.530869 
L 548.683976 123.072176 
L 549.404903 123.921737 
L 552.288612 121.970089 
L 553.00954 125.459384 
L 553.730467 121.276526 
L 554.451394 134.627781 
L 555.172321 137.925522 
L 557.335103 129.681402 
L 558.05603 126.31117 
L 558.776958 110.407422 
L 559.497885 111.670433 
L 560.218812 105.509604 
L 562.381594 99.362794 
L 563.102521 106.377224 
L 563.823448 104.895368 
L 564.544376 116.959434 
L 565.265303 113.938383 
L 567.428085 116.865974 
L 568.149012 121.266764 
L 569.590866 122.06128 
L 570.311794 112.760628 
L 572.474575 112.824442 
L 573.195503 146.77483 
L 573.91643 151.206724 
L 574.637357 138.938578 
L 575.358284 141.013566 
L 578.241993 161.162111 
L 578.962921 170.108849 
L 579.683848 165.749413 
L 580.404775 159.599576 
L 583.288484 157.906809 
L 584.009411 149.905724 
L 584.730339 150.186805 
L 585.451266 153.401265 
L 588.334975 149.279037 
L 589.055902 145.963985 
L 589.776829 130.008814 
L 590.497757 124.505555 
L 592.660538 115.269279 
L 593.381466 126.604382 
L 594.102393 133.707451 
L 594.82332 127.502928 
L 595.544247 139.00833 
L 597.707029 136.165855 
L 598.427956 136.653041 
L 599.148884 140.808846 
L 599.869811 136.699318 
L 600.590738 140.167956 
L 600.590738 140.167956 
" clip-path="url(#p76e2c19cd6)" style="fill: none; stroke: #ff7f0e; stroke-width: 1.5; stroke-linecap: square"/>
   </g>
   <g id="patch_3">
    <path d="M 48 296.2 
L 48 25.917188 
" style="fill: none; stroke: #000000; stroke-width: 0.8; stroke-linejoin: miter; stroke-linecap: square"/>
   </g>
   <g id="patch_4">
    <path d="M 626.904583 296.2 
L 626.904583 25.917188 
" style="fill: none; stroke: #000000; stroke-width: 0.8; stroke-linejoin: miter; stroke-linecap: square"/>
   </g>
   <g id="patch_5">
    <path d="M 48 296.2 
L 626.904583 296.2 
" style="fill: none; stroke: #000000; stroke-width: 0.8; stroke-linejoin: miter; stroke-linecap: square"/>
   </g>
   <g id="patch_6">
    <path d="M 48 25.917188 
L 626.904583 25.917188 
" style="fill: none; stroke: #000000; stroke-width: 0.8; stroke-linejoin: miter; stroke-linecap: square"/>
   </g>
   <g id="text_17">
    <!-- Log Price Series -->
    <g transform="translate(289.831041 19.917188) scale(0.12 -0.12)">
     <defs>
      <path id="DejaVuSans-33" d="M 1259 4147 
L 1259 2394 
L 2053 2394 
Q 2494 2394 2734 2622 
Q 2975 2850 2975 3272 
Q 2975 3691 2734 3919 
Q 2494 4147 2053 4147 
L 1259 4147 
z
M 628 4666 
L 2053 4666 
Q 2838 4666 3239 4311 
Q 3641 3956 3641 3272 
Q 3641 2581 3239 2228 
Q 2838 1875 2053 1875 
L 1259 1875 
L 1259 0 
L 628 0 
L 628 4666 
z
" transform="scale(0.015625)"/>
      <path id="DejaVuSans-36" d="M 3425 4513 
L 3425 3897 
Q 3066 4069 2747 4153 
Q 2428 4238 2131 4238 
Q 1616 4238 1336 4038 
Q 1056 3838 1056 3469 
Q 1056 3159 1242 3001 
Q 1428 2844 1947 2747 
L 2328 2669 
Q 3034 2534 3370 2195 
Q 3706 1856 3706 1288 
Q 3706 609 3251 259 
Q 2797 -91 1919 -91 
Q 1588 -91 1214 -16 
Q 841 59 441 206 
L 441 856 
Q 825 641 1194 531 
Q 1563 422 1919 422 
Q 2459 422 2753 634 
Q 3047 847 3047 1241 
Q 3047 1584 2836 1778 
Q 2625 1972 2144 2069 
L 1759 2144 
Q 1053 2284 737 2584 
Q 422 2884 422 3419 
Q 422 4038 858 4394 
Q 1294 4750 2059 4750 
Q 2388 4750 2728 4690 
Q 3069 4631 3425 4513 
z
" transform="scale(0.015625)"/>
      <path id="DejaVuSans-56" d="M 2834 3397 
L 2834 2853 
Q 2591 2978 2328 3040 
Q 2066 3103 1784 3103 
Q 1356 3103 1142 2972 
Q 928 2841 928 2578 
Q 928 2378 1081 2264 
Q 1234 2150 1697 2047 
L 1894 2003 
Q 2506 1872 2764 1633 
Q 3022 1394 3022 966 
Q 3022 478 2636 193 
Q 2250 -91 1575 -91 
Q 1294 -91 989 -36 
Q 684 19 347 128 
L 347 722 
Q 666 556 975 473 
Q 1284 391 1588 391 
Q 1994 391 2212 530 
Q 2431 669 2431 922 
Q 2431 1156 2273 1281 
Q 2116 1406 1581 1522 
L 1381 1569 
Q 847 1681 609 1914 
Q 372 2147 372 2553 
Q 372 3047 722 3315 
Q 1072 3584 1716 3584 
Q 2034 3584 2315 3537 
Q 2597 3491 2834 3397 
z
" transform="scale(0.015625)"/>
     </defs>
     <use xlink:href="#DejaVuSans-2f"/>
     <use xlink:href="#DejaVuSans-52" transform="translate(53.96875 0)"/>
     <use xlink:href="#DejaVuSans-4a" transform="translate(115.15625 0)"/>
     <use xlink:href="#DejaVuSans-3" transform="translate(178.640625 0)"/>
     <use xlink:href="#DejaVuSans-33" transform="translate(210.421875 0)"/>
     <use xlink:href="#DejaVuSans-55" transform="translate(268.96875 0)"/>
     <use xlink:href="#DejaVuSans-4c" transform="translate(310.078125 0)"/>
     <use xlink:href="#DejaVuSans-46" transform="translate(337.859375 0)"/>
     <use xlink:href="#DejaVuSans-48" transform="translate(392.84375 0)"/>
     <use xlink:href="#DejaVuSans-3" transform="translate(454.375 0)"/>
     <use xlink:href="#DejaVuSans-36" transform="translate(486.15625 0)"/>
     <use xlink:href="#DejaVuSans-48" transform="translate(549.640625 0)"/>
     <use xlink:href="#DejaVuSans-55" transform="translate(611.171875 0)"/>
     <use xlink:href="#DejaVuSans-4c" transform="translate(652.28125 0)"/>
     <use xlink:href="#DejaVuSans-48" transform="translate(680.0625 0)"/>
     <use xlink:href="#DejaVuSans-56" transform="translate(741.59375 0)"/>
    </g>
   </g>
   <g id="legend_1">
    <g id="line2d_18">
     <path d="M 57 39.015625 
L 67 39.015625 
L 77 39.015625 
" style="fill: none; stroke: #1f77b4; stroke-width: 1.5; stroke-linecap: square"/>
    </g>
    <g id="text_18">
     <!-- log SHOP.TO -->
     <g transform="translate(85 42.515625) scale(0.1 -0.1)">
      <defs>
       <path id="DejaVuSans-4f" d="M 603 4863 
L 1178 4863 
L 1178 0 
L 603 0 
L 603 4863 
z
" transform="scale(0.015625)"/>
       <path id="DejaVuSans-2b" d="M 628 4666 
L 1259 4666 
L 1259 2753 
L 3553 2753 
L 3553 4666 
L 4184 4666 
L 4184 0 
L 3553 0 
L 3553 2222 
L 1259 2222 
L 1259 0 
L 628 0 
L 628 4666 
z
" transform="scale(0.015625)"/>
       <path id="DejaVuSans-32" d="M 2522 4238 
Q 1834 4238 1429 3725 
Q 1025 3213 1025 2328 
Q 1025 1447 1429 934 
Q 1834 422 2522 422 
Q 3209 422 3611 934 
Q 4013 1447 4013 2328 
Q 4013 3213 3611 3725 
Q 3209 4238 2522 4238 
z
M 2522 4750 
Q 3503 4750 4090 4092 
Q 4678 3434 4678 2328 
Q 4678 1225 4090 567 
Q 3503 -91 2522 -91 
Q 1538 -91 948 565 
Q 359 1222 359 2328 
Q 359 3434 948 4092 
Q 1538 4750 2522 4750 
z
" transform="scale(0.015625)"/>
       <path id="DejaVuSans-37" d="M -19 4666 
L 3928 4666 
L 3928 4134 
L 2272 4134 
L 2272 0 
L 1638 0 
L 1638 4134 
L -19 4134 
L -19 4666 
z
" transform="scale(0.015625)"/>
      </defs>
      <use xlink:href="#DejaVuSans-4f"/>
      <use xlink:href="#DejaVuSans-52" transform="translate(27.78125 0)"/>
      <use xlink:href="#DejaVuSans-4a" transform="translate(88.96875 0)"/>
      <use xlink:href="#DejaVuSans-3" transform="translate(152.453125 0)"/>
      <use xlink:href="#DejaVuSans-36" transform="translate(184.234375 0)"/>
      <use xlink:href="#DejaVuSans-2b" transform="translate(247.71875 0)"/>
      <use xlink:href="#DejaVuSans-32" transform="translate(322.921875 0)"/>
      <use xlink:href="#DejaVuSans-33" transform="translate(401.640625 0)"/>
      <use xlink:href="#DejaVuSans-11" transform="translate(446.359375 0)"/>
      <use xlink:href="#DejaVuSans-37" transform="translate(478.140625 0)"/>
      <use xlink:href="#DejaVuSans-32" transform="translate(539.21875 0)"/>
     </g>
    </g>
    <g id="line2d_19">
     <path d="M 57 54.016406 
L 67 54.016406 
L 77 54.016406 
" style="fill: none; stroke: #ff7f0e; stroke-width: 1.5; stroke-linecap: square"/>
    </g>
    <g id="text_19">
     <!-- log SHOP adjusted to CAD -->
     <g transform="translate(85 57.516406) scale(0.1 -0.1)">
      <defs>
       <path id="DejaVuSans-44" d="M 2194 1759 
Q 1497 1759 1228 1600 
Q 959 1441 959 1056 
Q 959 750 1161 570 
Q 1363 391 1709 391 
Q 2188 391 2477 730 
Q 2766 1069 2766 1631 
L 2766 1759 
L 2194 1759 
z
M 3341 1997 
L 3341 0 
L 2766 0 
L 2766 531 
Q 2569 213 2275 61 
Q 1981 -91 1556 -91 
Q 1019 -91 701 211 
Q 384 513 384 1019 
Q 384 1609 779 1909 
Q 1175 2209 1959 2209 
L 2766 2209 
L 2766 2266 
Q 2766 2663 2505 2880 
Q 2244 3097 1772 3097 
Q 1472 3097 1187 3025 
Q 903 2953 641 2809 
L 641 3341 
Q 956 3463 1253 3523 
Q 1550 3584 1831 3584 
Q 2591 3584 2966 3190 
Q 3341 2797 3341 1997 
z
" transform="scale(0.015625)"/>
       <path id="DejaVuSans-47" d="M 2906 2969 
L 2906 4863 
L 3481 4863 
L 3481 0 
L 2906 0 
L 2906 525 
Q 2725 213 2448 61 
Q 2172 -91 1784 -91 
Q 1150 -91 751 415 
Q 353 922 353 1747 
Q 353 2572 751 3078 
Q 1150 3584 1784 3584 
Q 2172 3584 2448 3432 
Q 2725 3281 2906 2969 
z
M 947 1747 
Q 947 1113 1208 752 
Q 1469 391 1925 391 
Q 2381 391 2643 752 
Q 2906 1113 2906 1747 
Q 2906 2381 2643 2742 
Q 2381 3103 1925 3103 
Q 1469 3103 1208 2742 
Q 947 2381 947 1747 
z
" transform="scale(0.015625)"/>
       <path id="DejaVuSans-4d" d="M 603 3500 
L 1178 3500 
L 1178 -63 
Q 1178 -731 923 -1031 
Q 669 -1331 103 -1331 
L -116 -1331 
L -116 -844 
L 38 -844 
Q 366 -844 484 -692 
Q 603 -541 603 -63 
L 603 3500 
z
M 603 4863 
L 1178 4863 
L 1178 4134 
L 603 4134 
L 603 4863 
z
" transform="scale(0.015625)"/>
       <path id="DejaVuSans-58" d="M 544 1381 
L 544 3500 
L 1119 3500 
L 1119 1403 
Q 1119 906 1312 657 
Q 1506 409 1894 409 
Q 2359 409 2629 706 
Q 2900 1003 2900 1516 
L 2900 3500 
L 3475 3500 
L 3475 0 
L 2900 0 
L 2900 538 
Q 2691 219 2414 64 
Q 2138 -91 1772 -91 
Q 1169 -91 856 284 
Q 544 659 544 1381 
z
M 1991 3584 
L 1991 3584 
z
" transform="scale(0.015625)"/>
       <path id="DejaVuSans-57" d="M 1172 4494 
L 1172 3500 
L 2356 3500 
L 2356 3053 
L 1172 3053 
L 1172 1153 
Q 1172 725 1289 603 
Q 1406 481 1766 481 
L 2356 481 
L 2356 0 
L 1766 0 
Q 1100 0 847 248 
Q 594 497 594 1153 
L 594 3053 
L 172 3053 
L 172 3500 
L 594 3500 
L 594 4494 
L 1172 4494 
z
" transform="scale(0.015625)"/>
       <path id="DejaVuSans-26" d="M 4122 4306 
L 4122 3641 
Q 3803 3938 3442 4084 
Q 3081 4231 2675 4231 
Q 1875 4231 1450 3742 
Q 1025 3253 1025 2328 
Q 1025 1406 1450 917 
Q 1875 428 2675 428 
Q 3081 428 3442 575 
Q 3803 722 4122 1019 
L 4122 359 
Q 3791 134 3420 21 
Q 3050 -91 2638 -91 
Q 1578 -91 968 557 
Q 359 1206 359 2328 
Q 359 3453 968 4101 
Q 1578 4750 2638 4750 
Q 3056 4750 3426 4639 
Q 3797 4528 4122 4306 
z
" transform="scale(0.015625)"/>
       <path id="DejaVuSans-24" d="M 2188 4044 
L 1331 1722 
L 3047 1722 
L 2188 4044 
z
M 1831 4666 
L 2547 4666 
L 4325 0 
L 3669 0 
L 3244 1197 
L 1141 1197 
L 716 0 
L 50 0 
L 1831 4666 
z
" transform="scale(0.015625)"/>
       <path id="DejaVuSans-27" d="M 1259 4147 
L 1259 519 
L 2022 519 
Q 2988 519 3436 956 
Q 3884 1394 3884 2338 
Q 3884 3275 3436 3711 
Q 2988 4147 2022 4147 
L 1259 4147 
z
M 628 4666 
L 1925 4666 
Q 3281 4666 3915 4102 
Q 4550 3538 4550 2338 
Q 4550 1131 3912 565 
Q 3275 0 1925 0 
L 628 0 
L 628 4666 
z
" transform="scale(0.015625)"/>
      </defs>
      <use xlink:href="#DejaVuSans-4f"/>
      <use xlink:href="#DejaVuSans-52" transform="translate(27.78125 0)"/>
      <use xlink:href="#DejaVuSans-4a" transform="translate(88.96875 0)"/>
      <use xlink:href="#DejaVuSans-3" transform="translate(152.453125 0)"/>
      <use xlink:href="#DejaVuSans-36" transform="translate(184.234375 0)"/>
      <use xlink:href="#DejaVuSans-2b" transform="translate(247.71875 0)"/>
      <use xlink:href="#DejaVuSans-32" transform="translate(322.921875 0)"/>
      <use xlink:href="#DejaVuSans-33" transform="translate(401.640625 0)"/>
      <use xlink:href="#DejaVuSans-3" transform="translate(461.9375 0)"/>
      <use xlink:href="#DejaVuSans-44" transform="translate(493.71875 0)"/>
      <use xlink:href="#DejaVuSans-47" transform="translate(555 0)"/>
      <use xlink:href="#DejaVuSans-4d" transform="translate(618.484375 0)"/>
      <use xlink:href="#DejaVuSans-58" transform="translate(646.265625 0)"/>
      <use xlink:href="#DejaVuSans-56" transform="translate(709.640625 0)"/>
      <use xlink:href="#DejaVuSans-57" transform="translate(761.734375 0)"/>
      <use xlink:href="#DejaVuSans-48" transform="translate(800.9375 0)"/>
      <use xlink:href="#DejaVuSans-47" transform="translate(862.46875 0)"/>
      <use xlink:href="#DejaVuSans-3" transform="translate(925.953125 0)"/>
      <use xlink:href="#DejaVuSans-57" transform="translate(957.734375 0)"/>
      <use xlink:href="#DejaVuSans-52" transform="translate(996.9375 0)"/>
      <use xlink:href="#DejaVuSans-3" transform="translate(1058.125 0)"/>
      <use xlink:href="#DejaVuSans-26" transform="translate(1089.90625 0)"/>
      <use xlink:href="#DejaVuSans-24" transform="translate(1159.734375 0)"/>
      <use xlink:href="#DejaVuSans-27" transform="translate(1228.140625 0)"/>
     </g>
    </g>
   </g>
  </g>
 </g>
 <defs>
  <clipPath id="p76e2c19cd6">
   <rect x="48" y="25.917188" width="578.904583" height="270.282812"/>
  </clipPath>
 </defs>
</svg>
