<?xml version="1.0" encoding="utf-8" standalone="no"?>
<!DOCTYPE svg PUBLIC "-//W3C//DTD SVG 1.1//EN"
  "http://www.w3.org/Graphics/SVG/1.1/DTD/svg11.dtd">
<svg xmlns:xlink="http://www.w3.org/1999/xlink" width="648pt" height="324pt" viewBox="0 0 648 324" xmlns="http://www.w3.org/2000/svg" version="1.1">
 <metadata>
  <rdf:RDF xmlns:dc="http://purl.org/dc/elements/1.1/" xmlns:cc="http://creativecommons.org/ns#" xmlns:rdf="http://www.w3.org/1999/02/22-rdf-syntax-ns#">
   <cc:Work>
    <dc:type rdf:resource="http://purl.org/dc/dcmitype/StillImage"/>
    <dc:date>2026-06-26T00:17:38.224458</dc:date>
    <dc:format>image/svg+xml</dc:format>
    <dc:creator>
     <cc:Agent>
      <dc:title>Matplotlib v3.11.0, https://matplotlib.org/</dc:title>
     </cc:Agent>
    </dc:creator>
   </cc:Work>
  </rdf:RDF>
 </metadata>
 <defs>
  <style type="text/css">*{stroke-linejoin: round; stroke-linecap: butt}</style>
 </defs>
 <g id="figure_1">
  <g id="patch_1">
   <path d="M 0 324 
L 648 324 
L 648 0 
L 0 0 
z
" style="fill: #ffffff"/>
  </g>
  <g id="axes_1">
   <g id="patch_2">
    <path d="M 54.48 296.2 
L 637.2 296.2 
L 637.2 25.917188 
L 54.48 25.917188 
z
" style="fill: #ffffff"/>
   </g>
   <g id="matplotlib.axis_1">
    <g id="xtick_1">
     <g id="line2d_1">
      <defs>
       <path id="m76ebcba331" d="M 0 0 
L 0 3.5 
" style="stroke: #000000; stroke-width: 0.8"/>
      </defs>
      <g>
       <use xlink:href="#m76ebcba331" x="138.441026" y="296.2" style="stroke: #000000; stroke-width: 0.8"/>
      </g>
     </g>
     <g id="text_1">
      <!-- 2022 -->
      <g transform="translate(125.716026 310.797656) scale(0.1 -0.1)">
       <defs>
        <path id="DejaVuSans-15" d="M 1228 531 
L 3431 531 
L 3431 0 
L 469 0 
L 469 531 
Q 828 903 1448 1529 
Q 2069 2156 2228 2338 
Q 2531 2678 2651 2914 
Q 2772 3150 2772 3378 
Q 2772 3750 2511 3984 
Q 2250 4219 1831 4219 
Q 1534 4219 1204 4116 
Q 875 4013 500 3803 
L 500 4441 
Q 881 4594 1212 4672 
Q 1544 4750 1819 4750 
Q 2544 4750 2975 4387 
Q 3406 4025 3406 3419 
Q 3406 3131 3298 2873 
Q 3191 2616 2906 2266 
Q 2828 2175 2409 1742 
Q 1991 1309 1228 531 
z
" transform="scale(0.015625)"/>
        <path id="DejaVuSans-13" d="M 2034 4250 
Q 1547 4250 1301 3770 
Q 1056 3291 1056 2328 
Q 1056 1369 1301 889 
Q 1547 409 2034 409 
Q 2525 409 2770 889 
Q 3016 1369 3016 2328 
Q 3016 3291 2770 3770 
Q 2525 4250 2034 4250 
z
M 2034 4750 
Q 2819 4750 3233 4129 
Q 3647 3509 3647 2328 
Q 3647 1150 3233 529 
Q 2819 -91 2034 -91 
Q 1250 -91 836 529 
Q 422 1150 422 2328 
Q 422 3509 836 4129 
Q 1250 4750 2034 4750 
z
" transform="scale(0.015625)"/>
       </defs>
       <use xlink:href="#DejaVuSans-15"/>
       <use xlink:href="#DejaVuSans-13" transform="translate(63.625 0)"/>
       <use xlink:href="#DejaVuSans-15" transform="translate(127.25 0)"/>
       <use xlink:href="#DejaVuSans-15" transform="translate(190.875 0)"/>
      </g>
     </g>
    </g>
    <g id="xtick_2">
     <g id="line2d_2">
      <g>
       <use xlink:href="#m76ebcba331" x="244.390117" y="296.2" style="stroke: #000000; stroke-width: 0.8"/>
      </g>
     </g>
     <g id="text_2">
      <!-- 2023 -->
      <g transform="translate(231.665117 310.797656) scale(0.1 -0.1)">
       <defs>
        <path id="DejaVuSans-16" d="M 2597 2516 
Q 3050 2419 3304 2112 
Q 3559 1806 3559 1356 
Q 3559 666 3084 287 
Q 2609 -91 1734 -91 
Q 1441 -91 1130 -33 
Q 819 25 488 141 
L 488 750 
Q 750 597 1062 519 
Q 1375 441 1716 441 
Q 2309 441 2620 675 
Q 2931 909 2931 1356 
Q 2931 1769 2642 2001 
Q 2353 2234 1838 2234 
L 1294 2234 
L 1294 2753 
L 1863 2753 
Q 2328 2753 2575 2939 
Q 2822 3125 2822 3475 
Q 2822 3834 2567 4026 
Q 2313 4219 1838 4219 
Q 1578 4219 1281 4162 
Q 984 4106 628 3988 
L 628 4550 
Q 988 4650 1302 4700 
Q 1616 4750 1894 4750 
Q 2613 4750 3031 4423 
Q 3450 4097 3450 3541 
Q 3450 3153 3228 2886 
Q 3006 2619 2597 2516 
z
" transform="scale(0.015625)"/>
       </defs>
       <use xlink:href="#DejaVuSans-15"/>
       <use xlink:href="#DejaVuSans-13" transform="translate(63.625 0)"/>
       <use xlink:href="#DejaVuSans-15" transform="translate(127.25 0)"/>
       <use xlink:href="#DejaVuSans-16" transform="translate(190.875 0)"/>
      </g>
     </g>
    </g>
    <g id="xtick_3">
     <g id="line2d_3">
      <g>
       <use xlink:href="#m76ebcba331" x="350.339208" y="296.2" style="stroke: #000000; stroke-width: 0.8"/>
      </g>
     </g>
     <g id="text_3">
      <!-- 2024 -->
      <g transform="translate(337.614208 310.797656) scale(0.1 -0.1)">
       <defs>
        <path id="DejaVuSans-17" d="M 2419 4116 
L 825 1625 
L 2419 1625 
L 2419 4116 
z
M 2253 4666 
L 3047 4666 
L 3047 1625 
L 3713 1625 
L 3713 1100 
L 3047 1100 
L 3047 0 
L 2419 0 
L 2419 1100 
L 313 1100 
L 313 1709 
L 2253 4666 
z
" transform="scale(0.015625)"/>
       </defs>
       <use xlink:href="#DejaVuSans-15"/>
       <use xlink:href="#DejaVuSans-13" transform="translate(63.625 0)"/>
       <use xlink:href="#DejaVuSans-15" transform="translate(127.25 0)"/>
       <use xlink:href="#DejaVuSans-17" transform="translate(190.875 0)"/>
      </g>
     </g>
    </g>
    <g id="xtick_4">
     <g id="line2d_4">
      <g>
       <use xlink:href="#m76ebcba331" x="456.57857" y="296.2" style="stroke: #000000; stroke-width: 0.8"/>
      </g>
     </g>
     <g id="text_4">
      <!-- 2025 -->
      <g transform="translate(443.85357 310.797656) scale(0.1 -0.1)">
       <defs>
        <path id="DejaVuSans-18" d="M 691 4666 
L 3169 4666 
L 3169 4134 
L 1269 4134 
L 1269 2991 
Q 1406 3038 1543 3061 
Q 1681 3084 1819 3084 
Q 2600 3084 3056 2656 
Q 3513 2228 3513 1497 
Q 3513 744 3044 326 
Q 2575 -91 1722 -91 
Q 1428 -91 1123 -41 
Q 819 9 494 109 
L 494 744 
Q 775 591 1075 516 
Q 1375 441 1709 441 
Q 2250 441 2565 725 
Q 2881 1009 2881 1497 
Q 2881 1984 2565 2268 
Q 2250 2553 1709 2553 
Q 1456 2553 1204 2497 
Q 953 2441 691 2322 
L 691 4666 
z
" transform="scale(0.015625)"/>
       </defs>
       <use xlink:href="#DejaVuSans-15"/>
       <use xlink:href="#DejaVuSans-13" transform="translate(63.625 0)"/>
       <use xlink:href="#DejaVuSans-15" transform="translate(127.25 0)"/>
       <use xlink:href="#DejaVuSans-18" transform="translate(190.875 0)"/>
      </g>
     </g>
    </g>
    <g id="xtick_5">
     <g id="line2d_5">
      <g>
       <use xlink:href="#m76ebcba331" x="562.527661" y="296.2" style="stroke: #000000; stroke-width: 0.8"/>
      </g>
     </g>
     <g id="text_5">
      <!-- 2026 -->
      <g transform="translate(549.802661 310.797656) scale(0.1 -0.1)">
       <defs>
        <path id="DejaVuSans-19" d="M 2113 2584 
Q 1688 2584 1439 2293 
Q 1191 2003 1191 1497 
Q 1191 994 1439 701 
Q 1688 409 2113 409 
Q 2538 409 2786 701 
Q 3034 994 3034 1497 
Q 3034 2003 2786 2293 
Q 2538 2584 2113 2584 
z
M 3366 4563 
L 3366 3988 
Q 3128 4100 2886 4159 
Q 2644 4219 2406 4219 
Q 1781 4219 1451 3797 
Q 1122 3375 1075 2522 
Q 1259 2794 1537 2939 
Q 1816 3084 2150 3084 
Q 2853 3084 3261 2657 
Q 3669 2231 3669 1497 
Q 3669 778 3244 343 
Q 2819 -91 2113 -91 
Q 1303 -91 875 529 
Q 447 1150 447 2328 
Q 447 3434 972 4092 
Q 1497 4750 2381 4750 
Q 2619 4750 2861 4703 
Q 3103 4656 3366 4563 
z
" transform="scale(0.015625)"/>
       </defs>
       <use xlink:href="#DejaVuSans-15"/>
       <use xlink:href="#DejaVuSans-13" transform="translate(63.625 0)"/>
       <use xlink:href="#DejaVuSans-15" transform="translate(127.25 0)"/>
       <use xlink:href="#DejaVuSans-19" transform="translate(190.875 0)"/>
      </g>
     </g>
    </g>
   </g>
   <g id="matplotlib.axis_2">
    <g id="ytick_1">
     <g id="line2d_6">
      <defs>
       <path id="m5bd4468212" d="M 0 0 
L -3.5 0 
" style="stroke: #000000; stroke-width: 0.8"/>
      </defs>
      <g>
       <use xlink:href="#m5bd4468212" x="54.48" y="292.148202" style="stroke: #000000; stroke-width: 0.8"/>
      </g>
     </g>
     <g id="text_6">
      <!-- 3.50 -->
      <g transform="translate(25.214375 295.94703) scale(0.1 -0.1)">
       <defs>
        <path id="DejaVuSans-11" d="M 684 794 
L 1344 794 
L 1344 0 
L 684 0 
L 684 794 
z
" transform="scale(0.015625)"/>
       </defs>
       <use xlink:href="#DejaVuSans-16"/>
       <use xlink:href="#DejaVuSans-11" transform="translate(63.625 0)"/>
       <use xlink:href="#DejaVuSans-18" transform="translate(95.40625 0)"/>
       <use xlink:href="#DejaVuSans-13" transform="translate(159.03125 0)"/>
      </g>
     </g>
    </g>
    <g id="ytick_2">
     <g id="line2d_7">
      <g>
       <use xlink:href="#m5bd4468212" x="54.48" y="260.766231" style="stroke: #000000; stroke-width: 0.8"/>
      </g>
     </g>
     <g id="text_7">
      <!-- 3.75 -->
      <g transform="translate(25.214375 264.565059) scale(0.1 -0.1)">
       <defs>
        <path id="DejaVuSans-1a" d="M 525 4666 
L 3525 4666 
L 3525 4397 
L 1831 0 
L 1172 0 
L 2766 4134 
L 525 4134 
L 525 4666 
z
" transform="scale(0.015625)"/>
       </defs>
       <use xlink:href="#DejaVuSans-16"/>
       <use xlink:href="#DejaVuSans-11" transform="translate(63.625 0)"/>
       <use xlink:href="#DejaVuSans-1a" transform="translate(95.40625 0)"/>
       <use xlink:href="#DejaVuSans-18" transform="translate(159.03125 0)"/>
      </g>
     </g>
    </g>
    <g id="ytick_3">
     <g id="line2d_8">
      <g>
       <use xlink:href="#m5bd4468212" x="54.48" y="229.38426" style="stroke: #000000; stroke-width: 0.8"/>
      </g>
     </g>
     <g id="text_8">
      <!-- 4.00 -->
      <g transform="translate(25.214375 233.183088) scale(0.1 -0.1)">
       <use xlink:href="#DejaVuSans-17"/>
       <use xlink:href="#DejaVuSans-11" transform="translate(63.625 0)"/>
       <use xlink:href="#DejaVuSans-13" transform="translate(95.40625 0)"/>
       <use xlink:href="#DejaVuSans-13" transform="translate(159.03125 0)"/>
      </g>
     </g>
    </g>
    <g id="ytick_4">
     <g id="line2d_9">
      <g>
       <use xlink:href="#m5bd4468212" x="54.48" y="198.002289" style="stroke: #000000; stroke-width: 0.8"/>
      </g>
     </g>
     <g id="text_9">
      <!-- 4.25 -->
      <g transform="translate(25.214375 201.801117) scale(0.1 -0.1)">
       <use xlink:href="#DejaVuSans-17"/>
       <use xlink:href="#DejaVuSans-11" transform="translate(63.625 0)"/>
       <use xlink:href="#DejaVuSans-15" transform="translate(95.40625 0)"/>
       <use xlink:href="#DejaVuSans-18" transform="translate(159.03125 0)"/>
      </g>
     </g>
    </g>
    <g id="ytick_5">
     <g id="line2d_10">
      <g>
       <use xlink:href="#m5bd4468212" x="54.48" y="166.620318" style="stroke: #000000; stroke-width: 0.8"/>
      </g>
     </g>
     <g id="text_10">
      <!-- 4.50 -->
      <g transform="translate(25.214375 170.419146) scale(0.1 -0.1)">
       <use xlink:href="#DejaVuSans-17"/>
       <use xlink:href="#DejaVuSans-11" transform="translate(63.625 0)"/>
       <use xlink:href="#DejaVuSans-18" transform="translate(95.40625 0)"/>
       <use xlink:href="#DejaVuSans-13" transform="translate(159.03125 0)"/>
      </g>
     </g>
    </g>
    <g id="ytick_6">
     <g id="line2d_11">
      <g>
       <use xlink:href="#m5bd4468212" x="54.48" y="135.238347" style="stroke: #000000; stroke-width: 0.8"/>
      </g>
     </g>
     <g id="text_11">
      <!-- 4.75 -->
      <g transform="translate(25.214375 139.037175) scale(0.1 -0.1)">
       <use xlink:href="#DejaVuSans-17"/>
       <use xlink:href="#DejaVuSans-11" transform="translate(63.625 0)"/>
       <use xlink:href="#DejaVuSans-1a" transform="translate(95.40625 0)"/>
       <use xlink:href="#DejaVuSans-18" transform="translate(159.03125 0)"/>
      </g>
     </g>
    </g>
    <g id="ytick_7">
     <g id="line2d_12">
      <g>
       <use xlink:href="#m5bd4468212" x="54.48" y="103.856375" style="stroke: #000000; stroke-width: 0.8"/>
      </g>
     </g>
     <g id="text_12">
      <!-- 5.00 -->
      <g transform="translate(25.214375 107.655203) scale(0.1 -0.1)">
       <use xlink:href="#DejaVuSans-18"/>
       <use xlink:href="#DejaVuSans-11" transform="translate(63.625 0)"/>
       <use xlink:href="#DejaVuSans-13" transform="translate(95.40625 0)"/>
       <use xlink:href="#DejaVuSans-13" transform="translate(159.03125 0)"/>
      </g>
     </g>
    </g>
    <g id="ytick_8">
     <g id="line2d_13">
      <g>
       <use xlink:href="#m5bd4468212" x="54.48" y="72.474404" style="stroke: #000000; stroke-width: 0.8"/>
      </g>
     </g>
     <g id="text_13">
      <!-- 5.25 -->
      <g transform="translate(25.214375 76.273232) scale(0.1 -0.1)">
       <use xlink:href="#DejaVuSans-18"/>
       <use xlink:href="#DejaVuSans-11" transform="translate(63.625 0)"/>
       <use xlink:href="#DejaVuSans-15" transform="translate(95.40625 0)"/>
       <use xlink:href="#DejaVuSans-18" transform="translate(159.03125 0)"/>
      </g>
     </g>
    </g>
    <g id="ytick_9">
     <g id="line2d_14">
      <g>
       <use xlink:href="#m5bd4468212" x="54.48" y="41.092433" style="stroke: #000000; stroke-width: 0.8"/>
      </g>
     </g>
     <g id="text_14">
      <!-- 5.50 -->
      <g transform="translate(25.214375 44.891261) scale(0.1 -0.1)">
       <use xlink:href="#DejaVuSans-18"/>
       <use xlink:href="#DejaVuSans-11" transform="translate(63.625 0)"/>
       <use xlink:href="#DejaVuSans-18" transform="translate(95.40625 0)"/>
       <use xlink:href="#DejaVuSans-13" transform="translate(159.03125 0)"/>
      </g>
     </g>
    </g>
    <g id="text_15">
     <!-- Log price -->
     <g transform="translate(18.812031 184.024219) rotate(-90) scale(0.1 -0.1)">
      <defs>
       <path id="DejaVuSans-2f" d="M 628 4666 
L 1259 4666 
L 1259 531 
L 3531 531 
L 3531 0 
L 628 0 
L 628 4666 
z
" transform="scale(0.015625)"/>
       <path id="DejaVuSans-52" d="M 1959 3097 
Q 1497 3097 1228 2736 
Q 959 2375 959 1747 
Q 959 1119 1226 758 
Q 1494 397 1959 397 
Q 2419 397 2687 759 
Q 2956 1122 2956 1747 
Q 2956 2369 2687 2733 
Q 2419 3097 1959 3097 
z
M 1959 3584 
Q 2709 3584 3137 3096 
Q 3566 2609 3566 1747 
Q 3566 888 3137 398 
Q 2709 -91 1959 -91 
Q 1206 -91 779 398 
Q 353 888 353 1747 
Q 353 2609 779 3096 
Q 1206 3584 1959 3584 
z
" transform="scale(0.015625)"/>
       <path id="DejaVuSans-4a" d="M 2906 1791 
Q 2906 2416 2648 2759 
Q 2391 3103 1925 3103 
Q 1463 3103 1205 2759 
Q 947 2416 947 1791 
Q 947 1169 1205 825 
Q 1463 481 1925 481 
Q 2391 481 2648 825 
Q 2906 1169 2906 1791 
z
M 3481 434 
Q 3481 -459 3084 -895 
Q 2688 -1331 1869 -1331 
Q 1566 -1331 1297 -1286 
Q 1028 -1241 775 -1147 
L 775 -588 
Q 1028 -725 1275 -790 
Q 1522 -856 1778 -856 
Q 2344 -856 2625 -561 
Q 2906 -266 2906 331 
L 2906 616 
Q 2728 306 2450 153 
Q 2172 0 1784 0 
Q 1141 0 747 490 
Q 353 981 353 1791 
Q 353 2603 747 3093 
Q 1141 3584 1784 3584 
Q 2172 3584 2450 3431 
Q 2728 3278 2906 2969 
L 2906 3500 
L 3481 3500 
L 3481 434 
z
" transform="scale(0.015625)"/>
       <path id="DejaVuSans-3" transform="scale(0.015625)"/>
       <path id="DejaVuSans-53" d="M 1159 525 
L 1159 -1331 
L 581 -1331 
L 581 3500 
L 1159 3500 
L 1159 2969 
Q 1341 3281 1617 3432 
Q 1894 3584 2278 3584 
Q 2916 3584 3314 3078 
Q 3713 2572 3713 1747 
Q 3713 922 3314 415 
Q 2916 -91 2278 -91 
Q 1894 -91 1617 61 
Q 1341 213 1159 525 
z
M 3116 1747 
Q 3116 2381 2855 2742 
Q 2594 3103 2138 3103 
Q 1681 3103 1420 2742 
Q 1159 2381 1159 1747 
Q 1159 1113 1420 752 
Q 1681 391 2138 391 
Q 2594 391 2855 752 
Q 3116 1113 3116 1747 
z
" transform="scale(0.015625)"/>
       <path id="DejaVuSans-55" d="M 2631 2963 
Q 2534 3019 2420 3045 
Q 2306 3072 2169 3072 
Q 1681 3072 1420 2755 
Q 1159 2438 1159 1844 
L 1159 0 
L 581 0 
L 581 3500 
L 1159 3500 
L 1159 2956 
Q 1341 3275 1631 3429 
Q 1922 3584 2338 3584 
Q 2397 3584 2469 3576 
Q 2541 3569 2628 3553 
L 2631 2963 
z
" transform="scale(0.015625)"/>
       <path id="DejaVuSans-4c" d="M 603 3500 
L 1178 3500 
L 1178 0 
L 603 0 
L 603 3500 
z
M 603 4863 
L 1178 4863 
L 1178 4134 
L 603 4134 
L 603 4863 
z
" transform="scale(0.015625)"/>
       <path id="DejaVuSans-46" d="M 3122 3366 
L 3122 2828 
Q 2878 2963 2633 3030 
Q 2388 3097 2138 3097 
Q 1578 3097 1268 2742 
Q 959 2388 959 1747 
Q 959 1106 1268 751 
Q 1578 397 2138 397 
Q 2388 397 2633 464 
Q 2878 531 3122 666 
L 3122 134 
Q 2881 22 2623 -34 
Q 2366 -91 2075 -91 
Q 1284 -91 818 406 
Q 353 903 353 1747 
Q 353 2603 823 3093 
Q 1294 3584 2113 3584 
Q 2378 3584 2631 3529 
Q 2884 3475 3122 3366 
z
" transform="scale(0.015625)"/>
       <path id="DejaVuSans-48" d="M 3597 1894 
L 3597 1613 
L 953 1613 
Q 991 1019 1311 708 
Q 1631 397 2203 397 
Q 2534 397 2845 478 
Q 3156 559 3463 722 
L 3463 178 
Q 3153 47 2828 -22 
Q 2503 -91 2169 -91 
Q 1331 -91 842 396 
Q 353 884 353 1716 
Q 353 2575 817 3079 
Q 1281 3584 2069 3584 
Q 2775 3584 3186 3129 
Q 3597 2675 3597 1894 
z
M 3022 2063 
Q 3016 2534 2758 2815 
Q 2500 3097 2075 3097 
Q 1594 3097 1305 2825 
Q 1016 2553 972 2059 
L 3022 2063 
z
" transform="scale(0.015625)"/>
      </defs>
      <use xlink:href="#DejaVuSans-2f"/>
      <use xlink:href="#DejaVuSans-52" transform="translate(53.96875 0)"/>
      <use xlink:href="#DejaVuSans-4a" transform="translate(115.15625 0)"/>
      <use xlink:href="#DejaVuSans-3" transform="translate(178.640625 0)"/>
      <use xlink:href="#DejaVuSans-53" transform="translate(210.421875 0)"/>
      <use xlink:href="#DejaVuSans-55" transform="translate(273.90625 0)"/>
      <use xlink:href="#DejaVuSans-4c" transform="translate(315.015625 0)"/>
      <use xlink:href="#DejaVuSans-46" transform="translate(342.796875 0)"/>
      <use xlink:href="#DejaVuSans-48" transform="translate(397.78125 0)"/>
     </g>
    </g>
   </g>
   <g id="line2d_15">
    <path d="M 80.967273 80.333525 
L 81.257544 78.222329 
L 82.128359 77.992916 
L 82.41863 76.171153 
L 82.708902 76.325237 
L 82.999173 78.052124 
L 83.289445 78.771739 
L 84.160259 76.557756 
L 84.450531 76.959886 
L 84.740802 78.740577 
L 85.321345 79.06089 
L 86.482431 71.771731 
L 86.772702 72.936529 
L 87.062974 77.010417 
L 87.353245 75.318595 
L 88.22406 75.367791 
L 88.514331 72.857221 
L 88.804603 77.557279 
L 89.094874 78.607701 
L 89.385146 78.273371 
L 90.25596 74.502582 
L 90.546232 70.560541 
L 91.126775 66.18912 
L 91.417046 62.184918 
L 92.868403 70.838516 
L 93.448946 74.644577 
L 94.610032 72.183771 
L 94.900304 69.438702 
L 95.480847 71.830695 
L 96.351661 69.660085 
L 96.641933 72.028766 
L 96.932204 75.687707 
L 97.222476 74.075533 
L 97.512747 74.534048 
L 98.673833 74.78875 
L 98.964105 73.725763 
L 99.254376 74.10289 
L 99.544648 75.387335 
L 100.415462 74.422942 
L 100.705733 70.245 
L 100.996005 69.36671 
L 101.286276 71.505417 
L 101.576548 70.612452 
L 102.447362 69.45864 
L 102.737634 71.103418 
L 103.027905 70.067174 
L 103.318177 70.559897 
L 103.608448 69.81412 
L 104.769534 69.923799 
L 105.059806 74.492542 
L 105.350077 72.727777 
L 105.640349 74.056192 
L 106.511163 75.06886 
L 106.801435 76.948282 
L 107.091706 75.423746 
L 107.381978 74.826329 
L 107.672249 73.163507 
L 108.543064 77.176481 
L 108.833335 76.651013 
L 109.123606 74.716981 
L 109.413878 75.030531 
L 109.704149 77.677377 
L 110.574964 78.063136 
L 110.865235 84.258963 
L 111.155507 85.494329 
L 111.445778 85.398646 
L 111.73605 86.288918 
L 112.606864 90.19641 
L 112.897136 90.100871 
L 113.477679 82.683606 
L 113.76795 85.535991 
L 114.929036 87.482152 
L 115.219308 83.842173 
L 115.509579 83.772967 
L 115.799851 82.215749 
L 116.960936 77.093072 
L 117.251208 77.282522 
L 117.541479 76.156227 
L 117.831751 82.147433 
L 118.702565 82.03933 
L 118.992837 87.65226 
L 119.283108 88.170715 
L 119.57338 79.632122 
L 119.863651 79.146306 
L 120.734466 73.521674 
L 121.024737 77.471568 
L 121.315009 76.100617 
L 121.60528 71.557062 
L 121.895552 72.678285 
L 122.766366 72.140398 
L 123.056638 70.537191 
L 123.346909 76.683022 
L 123.637181 74.333324 
L 123.927452 60.58333 
L 124.798267 61.919998 
L 125.088538 60.005864 
L 125.378809 62.334298 
L 125.669081 59.18548 
L 125.959352 57.926742 
L 127.120438 66.790156 
L 127.41071 62.698773 
L 127.991253 66.161552 
L 128.862067 66.409227 
L 129.44261 74.627828 
L 129.732882 75.931227 
L 130.023153 78.962355 
L 130.893968 78.004617 
L 131.184239 71.241617 
L 131.474511 71.383894 
L 131.764782 72.906117 
L 132.055054 75.70663 
L 132.925868 80.183551 
L 133.216139 83.8566 
L 133.506411 82.913898 
L 133.796682 87.276679 
L 134.086954 86.413987 
L 134.957768 89.631783 
L 135.24804 81.733321 
L 135.538311 81.272521 
L 135.828583 76.875944 
L 137.570212 80.933845 
L 137.860483 80.931028 
L 138.150755 83.768634 
L 139.602112 101.400798 
L 139.892384 103.574335 
L 140.182655 107.10808 
L 141.053469 108.179396 
L 141.343741 106.192216 
L 141.634012 105.755245 
L 141.924284 117.332141 
L 142.214555 112.799915 
L 143.375641 118.469137 
L 143.665913 121.47135 
L 143.956184 122.216122 
L 144.246456 140.273207 
L 145.11727 131.745088 
L 145.407542 138.102361 
L 145.697813 141.321 
L 145.988085 148.491615 
L 146.278356 139.869146 
L 147.149171 127.744131 
L 147.439442 125.647021 
L 148.019985 149.983803 
L 148.310257 139.390033 
L 149.181071 141.861357 
L 149.471342 139.688985 
L 149.761614 133.688726 
L 150.342157 142.652655 
L 151.212971 143.879874 
L 151.503243 137.786095 
L 151.793514 161.33126 
L 152.083786 175.740359 
L 152.374057 175.753859 
L 153.535143 181.299097 
L 153.825415 181.551719 
L 154.115686 173.727661 
L 154.405958 172.358299 
L 155.276772 169.476596 
L 156.147587 179.432088 
L 156.437858 187.102317 
L 157.308672 194.892283 
L 157.598944 204.843399 
L 157.889215 188.846292 
L 158.179487 196.922608 
L 159.340573 206.122444 
L 159.630844 196.940365 
L 159.921116 183.137026 
L 160.501659 172.397718 
L 161.372473 172.267835 
L 161.662745 164.912763 
L 161.953016 168.841938 
L 162.243288 169.096267 
L 162.533559 174.314888 
L 163.404374 169.655046 
L 163.694645 162.584875 
L 164.275188 174.489967 
L 164.56546 171.520314 
L 165.436274 165.559608 
L 165.726545 169.683617 
L 166.016817 177.959743 
L 166.307088 179.696443 
L 166.59736 188.202093 
L 167.468174 184.604139 
L 167.758446 189.995124 
L 168.048717 188.005168 
L 168.338989 192.592062 
L 169.500075 192.335069 
L 169.790346 187.105599 
L 170.080618 205.948728 
L 170.370889 216.586829 
L 170.661161 220.702314 
L 171.531975 220.882663 
L 171.822247 228.676173 
L 172.112518 232.25899 
L 172.40279 224.388206 
L 172.693061 228.571058 
L 173.854147 218.141165 
L 174.144418 213.770008 
L 174.43469 233.201114 
L 174.724961 243.974677 
L 175.595776 255.794484 
L 175.886047 257.362014 
L 176.176319 263.995966 
L 176.756862 235.569729 
L 177.627676 250.140912 
L 177.917948 246.197105 
L 178.208219 249.569873 
L 178.498491 240.009262 
L 178.788762 249.18702 
L 179.949848 263.454939 
L 180.24012 260.303837 
L 180.820663 248.376663 
L 181.981748 246.90621 
L 182.27202 251.625269 
L 182.562291 240.141952 
L 182.852563 255.019402 
L 183.723377 252.946961 
L 184.013649 246.465516 
L 184.30392 242.674682 
L 184.594192 247.789606 
L 184.884463 255.098388 
L 186.045549 270.63878 
L 186.335821 262.248304 
L 186.626092 270.167006 
L 186.916364 264.472439 
L 188.07745 261.171573 
L 188.367721 256.863079 
L 188.948264 241.160533 
L 189.819078 245.369197 
L 190.689893 267.750048 
L 192.14125 255.451609 
L 192.431522 259.185267 
L 192.721793 251.359305 
L 193.012065 250.676418 
L 193.882879 262.314038 
L 194.173151 261.866518 
L 194.463422 263.183787 
L 194.753694 267.906207 
L 195.91478 261.598772 
L 196.205051 255.820021 
L 196.495323 241.284331 
L 196.785594 235.432137 
L 197.075866 244.926045 
L 197.94668 247.901468 
L 198.236951 266.291676 
L 198.527223 253.180191 
L 198.817494 250.758176 
L 199.107766 254.746157 
L 200.268852 243.992756 
L 200.559123 231.116247 
L 200.849395 233.706967 
L 201.139666 233.730762 
L 202.010481 237.671588 
L 202.300752 247.422758 
L 202.591024 235.746161 
L 202.881295 236.327987 
L 203.171567 235.504533 
L 204.042381 236.863707 
L 204.332653 238.336476 
L 204.622924 245.21261 
L 204.913196 246.260214 
L 205.203467 255.253684 
L 206.074281 258.632604 
L 206.364553 262.134836 
L 206.945096 255.395026 
L 207.235367 261.6285 
L 208.106182 263.666239 
L 208.396453 265.063705 
L 208.686725 263.57563 
L 208.976996 264.880538 
L 209.267268 269.890496 
L 210.428354 270.814557 
L 211.008897 262.823153 
L 211.299168 252.791722 
L 212.169983 251.825804 
L 212.460254 259.010485 
L 212.750526 255.451609 
L 213.040797 254.212656 
L 213.331068 261.836745 
L 214.201883 257.563295 
L 214.492154 264.271926 
L 214.782426 265.063705 
L 215.072697 273.171198 
L 215.362969 271.295205 
L 216.233783 272.229691 
L 216.524055 273.824653 
L 216.814326 268.87868 
L 217.104598 279.315279 
L 217.394869 277.581963 
L 218.265684 275.539723 
L 218.555955 260.504006 
L 219.136498 264.363027 
L 219.42677 277.043072 
L 220.587856 283.880437 
L 220.878127 281.908565 
L 221.45867 280.899462 
L 222.329484 274.481527 
L 222.619756 269.954008 
L 222.910027 271.487971 
L 223.200299 265.522791 
L 224.361385 270.04933 
L 224.651656 266.476904 
L 224.941928 270.144736 
L 225.232199 250.29562 
L 225.522471 249.40257 
L 226.393285 248.97185 
L 226.683557 247.051689 
L 226.973828 250.976432 
L 227.2641 249.86183 
L 227.554371 258.400623 
L 228.425186 257.88025 
L 228.715457 256.217979 
L 229.005729 263.00334 
L 229.296 243.863671 
L 229.586271 234.686445 
L 230.457086 237.647034 
L 230.747357 232.546304 
L 231.037629 237.107968 
L 231.618172 242.912603 
L 232.488986 247.237086 
L 232.779258 247.661885 
L 233.069529 242.631234 
L 233.650072 242.50355 
L 234.520887 237.107968 
L 234.811158 239.303127 
L 235.10143 227.871738 
L 235.391701 221.170899 
L 235.681973 221.88358 
L 236.552787 227.418239 
L 236.843059 232.617064 
L 237.13333 234.279396 
L 237.423601 234.327208 
L 237.713873 234.542625 
L 238.584687 234.83043 
L 238.874959 234.183808 
L 239.16523 235.939807 
L 239.455502 241.15801 
L 240.616588 244.328973 
L 240.906859 242.938218 
L 241.197131 242.299528 
L 241.777674 251.359305 
L 243.229031 255.338468 
L 243.519303 246.7081 
L 243.809574 248.168214 
L 244.97066 243.50296 
L 245.260932 238.905651 
L 245.551203 243.400087 
L 245.841474 241.537357 
L 246.712289 240.905737 
L 247.00256 242.938218 
L 247.292832 243.168945 
L 247.583103 242.682346 
L 247.873375 235.28746 
L 249.034461 231.864412 
L 249.324732 233.374255 
L 249.615004 237.230278 
L 249.905275 230.395685 
L 250.77609 219.842778 
L 251.066361 223.782079 
L 251.356633 210.74123 
L 251.646904 208.618921 
L 251.937176 204.328251 
L 252.80799 210.999132 
L 253.098262 206.397811 
L 253.388533 204.08369 
L 253.678804 195.722979 
L 253.969076 196.534431 
L 255.130162 200.325258 
L 255.420433 203.727099 
L 255.710705 203.952199 
L 256.000976 208.579947 
L 256.871791 207.435875 
L 257.162062 204.027322 
L 257.452334 195.635088 
L 257.742605 216.728097 
L 258.032877 220.291053 
L 259.193963 226.067491 
L 259.484234 223.958109 
L 259.774506 223.146048 
L 260.064777 227.486157 
L 260.935592 228.600758 
L 261.225863 225.79908 
L 261.516134 229.518023 
L 261.806406 226.269178 
L 262.096677 219.672423 
L 262.967492 219.226348 
L 263.257763 220.934235 
L 263.548035 217.01944 
L 263.838306 218.65514 
L 264.128578 223.255477 
L 264.999392 223.146048 
L 265.289664 217.792692 
L 265.579935 217.708873 
L 265.870207 214.809713 
L 266.160478 214.727854 
L 267.031293 217.687921 
L 267.321564 211.955994 
L 267.611836 214.054566 
L 267.902107 211.835984 
L 268.192379 213.973198 
L 269.063193 214.278589 
L 269.353465 217.01944 
L 269.643736 210.800696 
L 269.934007 211.596315 
L 270.224279 207.880624 
L 271.095093 209.498855 
L 271.385365 209.400788 
L 271.675636 215.775557 
L 271.965908 215.096633 
L 273.126994 214.973584 
L 273.417265 216.852871 
L 273.707537 215.693066 
L 273.997808 215.487075 
L 275.449166 205.729552 
L 275.739437 205.558279 
L 276.029709 208.36585 
L 276.31998 205.064832 
L 277.190795 207.455183 
L 277.481066 210.74123 
L 277.771337 210.860197 
L 278.35188 206.263874 
L 279.803238 211.317276 
L 280.093509 185.171887 
L 280.383781 176.747602 
L 281.254595 172.161401 
L 281.544867 173.082948 
L 281.835138 174.440974 
L 282.12541 173.922602 
L 282.415681 176.626725 
L 283.286496 176.762723 
L 283.576767 179.653118 
L 284.15731 178.008592 
L 284.447582 179.390397 
L 285.608667 183.374252 
L 285.898939 181.147144 
L 286.18921 183.533711 
L 286.479482 180.351225 
L 287.640568 182.785996 
L 287.930839 185.139565 
L 288.221111 184.800629 
L 288.511382 184.205666 
L 289.382197 180.553634 
L 289.672468 173.303368 
L 289.96274 181.948141 
L 290.253011 182.738422 
L 290.543283 178.513491 
L 291.414097 170.957528 
L 291.704369 173.833956 
L 291.99464 169.679332 
L 292.284912 170.266542 
L 292.575183 173.038913 
L 293.736269 173.77489 
L 294.02654 176.56633 
L 294.316812 176.099267 
L 294.607083 175.140463 
L 295.477898 176.581429 
L 295.768169 175.155392 
L 296.058441 172.862914 
L 296.348712 174.619201 
L 296.638984 172.906888 
L 298.090341 172.980219 
L 298.380613 177.338536 
L 298.670884 178.482827 
L 299.541699 178.039129 
L 299.83197 175.90392 
L 300.122242 171.029718 
L 300.412513 163.558209 
L 300.702785 165.879425 
L 301.573599 165.768579 
L 301.86387 168.654723 
L 302.154142 166.769795 
L 302.444413 172.044858 
L 302.734685 171.318926 
L 303.605499 170.683556 
L 303.895771 172.906888 
L 304.186042 173.229848 
L 304.476314 174.322297 
L 304.766585 170.32398 
L 305.927671 167.175334 
L 306.508214 183.183161 
L 306.798486 185.382227 
L 307.959572 188.979535 
L 308.249843 191.029154 
L 308.540115 188.000211 
L 308.830386 190.724638 
L 309.7012 188.912896 
L 309.991472 190.033772 
L 310.281743 189.681366 
L 310.572015 194.550389 
L 310.862286 194.689815 
L 311.733101 192.820374 
L 312.023372 192.580064 
L 312.313644 186.504536 
L 312.603915 188.996203 
L 312.894187 188.580244 
L 313.765001 186.815354 
L 314.055273 181.790682 
L 314.345544 179.544872 
L 314.635816 166.797727 
L 314.926087 165.630141 
L 316.087173 166.993383 
L 316.377445 166.909496 
L 316.667716 168.54139 
L 316.957988 172.365605 
L 317.828802 169.908157 
L 318.119073 173.200459 
L 318.409345 173.966949 
L 318.699616 172.731086 
L 318.989888 173.922602 
L 320.150974 183.949252 
L 320.441245 186.651674 
L 320.731517 193.942157 
L 321.021788 195.406876 
L 321.892603 194.463314 
L 322.182874 198.838417 
L 322.473146 198.119467 
L 323.053689 190.978352 
L 323.924503 191.487324 
L 324.214775 197.404611 
L 324.505046 194.254589 
L 324.795318 195.512151 
L 325.085589 192.460082 
L 326.246675 189.865832 
L 326.827218 192.854736 
L 327.117489 197.422436 
L 327.988304 193.734309 
L 328.278575 191.385356 
L 328.859118 196.233938 
L 329.14939 198.011983 
L 330.020204 198.442484 
L 330.310476 194.881795 
L 330.600747 203.877121 
L 330.891019 208.404758 
L 331.18129 208.755395 
L 332.052105 207.764453 
L 332.342376 206.551061 
L 332.632648 202.459129 
L 332.922919 178.207244 
L 333.213191 175.215111 
L 334.084005 177.126086 
L 334.664548 171.492771 
L 334.954819 176.159438 
L 335.245091 174.307479 
L 336.115905 172.263462 
L 336.696448 162.730802 
L 336.98672 162.947294 
L 337.276991 161.359334 
L 338.147806 159.264068 
L 338.438077 159.145758 
L 338.728349 157.07389 
L 339.308892 158.203311 
L 340.179706 152.779959 
L 340.469978 153.632103 
L 340.760249 153.770496 
L 341.050521 154.870464 
L 341.340792 153.770496 
L 342.211606 155.698615 
L 342.501878 151.450689 
L 342.792149 157.617859 
L 343.372692 155.201071 
L 344.243507 154.832375 
L 344.533778 155.264743 
L 344.82405 153.757906 
L 345.114321 148.591833 
L 345.404593 149.671518 
L 346.275407 149.342985 
L 346.565679 147.89318 
L 346.85595 152.430752 
L 347.146222 152.008019 
L 347.436493 151.09283 
L 348.887851 149.124443 
L 349.178122 147.737121 
L 349.468394 149.513225 
L 350.629479 155.455972 
L 350.919751 158.647478 
L 351.500294 153.946852 
L 352.371108 148.785245 
L 352.66138 144.585723 
L 352.951651 143.224251 
L 353.241923 142.716037 
L 353.532194 142.451203 
L 354.69328 141.694314 
L 354.983552 143.177963 
L 355.273823 147.761114 
L 355.564095 144.340267 
L 356.434909 143.455934 
L 356.725181 142.244326 
L 357.015452 142.313244 
L 357.305724 143.189536 
L 357.595995 141.820145 
L 358.466809 139.158999 
L 358.757081 141.078419 
L 359.047352 144.188561 
L 359.337624 150.074225 
L 359.627895 139.630485 
L 360.49871 141.237805 
L 360.788981 141.48868 
L 361.369524 132.397411 
L 361.659796 128.344069 
L 362.53061 130.647208 
L 362.820882 147.473456 
L 363.401425 138.043486 
L 363.691696 141.888831 
L 364.852782 145.749385 
L 365.143054 150.834328 
L 365.433325 151.945968 
L 365.723597 149.793412 
L 366.594411 147.557289 
L 367.174954 150.208749 
L 367.465225 148.869959 
L 367.755497 148.652238 
L 368.626311 149.878809 
L 368.916583 153.581816 
L 369.206854 153.330688 
L 369.787397 149.952049 
L 370.658212 152.070092 
L 370.948483 149.683705 
L 371.238755 146.139684 
L 371.529026 146.021286 
L 371.819298 147.917203 
L 372.690112 147.377713 
L 372.980384 147.067057 
L 373.270655 141.808698 
L 373.560927 144.130256 
L 373.851198 144.773065 
L 374.722012 145.537005 
L 375.012284 145.466295 
L 375.302555 145.277925 
L 375.592827 147.89318 
L 376.753913 145.926644 
L 377.044184 146.09231 
L 377.334456 150.478219 
L 377.624727 151.710465 
L 377.914999 150.576357 
L 378.785813 152.169483 
L 379.076085 151.364217 
L 379.366356 155.366697 
L 379.656628 156.095508 
L 379.946899 157.98182 
L 380.817714 160.506398 
L 381.107985 159.96302 
L 381.398257 159.040689 
L 381.688528 158.817717 
L 381.9788 158.778411 
L 382.849614 157.695759 
L 383.139885 152.045261 
L 383.720428 158.112061 
L 384.0107 156.635246 
L 384.881514 154.642093 
L 385.171786 157.695759 
L 385.462057 157.436274 
L 385.752329 155.328457 
L 386.0426 151.105156 
L 386.913415 146.483679 
L 387.203686 146.40056 
L 387.493958 172.117676 
L 387.784229 173.244551 
L 388.074501 180.522468 
L 388.945315 180.959411 
L 389.235587 182.706709 
L 389.525858 181.460645 
L 389.81613 183.438001 
L 390.106401 182.011182 
L 391.267487 184.84899 
L 391.557758 180.787571 
L 392.138301 184.816739 
L 393.299387 182.358458 
L 393.589659 181.366515 
L 393.87993 181.288131 
L 394.170202 180.397902 
L 395.041016 179.26695 
L 395.331288 176.853462 
L 395.621559 175.544073 
L 395.911831 175.289792 
L 397.363188 169.722204 
L 397.65346 166.797727 
L 397.943731 168.202014 
L 398.234002 162.609181 
L 399.104817 164.802757 
L 399.395088 169.265636 
L 399.975631 170.295263 
L 400.265903 167.962177 
L 401.136717 169.722204 
L 401.426989 168.796529 
L 402.007532 165.339936 
L 402.297803 166.073654 
L 403.458889 166.18478 
L 403.749161 164.103748 
L 404.329704 163.626265 
L 405.200518 164.008098 
L 405.49079 166.463026 
L 405.781061 167.554091 
L 406.071333 167.933984 
L 406.361604 168.753971 
L 407.232418 169.722204 
L 407.52269 159.435146 
L 407.812961 168.456463 
L 408.103233 171.536267 
L 408.393504 171.246559 
L 409.264319 171.972071 
L 409.55459 171.812098 
L 409.844862 178.528815 
L 410.135133 178.023865 
L 410.425405 176.913996 
L 411.296219 176.898857 
L 411.586491 178.329653 
L 411.876762 174.470667 
L 412.167034 180.429038 
L 412.457305 188.846292 
L 413.618391 190.269252 
L 413.908663 169.650752 
L 414.198934 160.985462 
L 414.489205 159.685611 
L 415.36002 161.319225 
L 415.940563 155.673047 
L 416.230834 149.976479 
L 416.521106 150.883527 
L 417.39192 150.355659 
L 417.682192 150.945055 
L 417.972463 149.051683 
L 418.262735 151.958378 
L 418.553006 149.830002 
L 419.423821 152.045261 
L 419.714092 153.155196 
L 420.004364 156.262319 
L 420.584907 153.65726 
L 421.745993 157.786707 
L 422.036264 159.989468 
L 422.326535 160.201289 
L 422.616807 165.408976 
L 423.777893 162.839007 
L 424.068164 157.151453 
L 424.358436 157.449239 
L 424.648707 155.392194 
L 425.519522 153.443631 
L 426.100065 150.318915 
L 426.390336 145.230874 
L 426.680608 145.207351 
L 427.551422 143.490722 
L 427.841694 143.804271 
L 428.131965 145.054594 
L 428.422237 142.785223 
L 428.712508 144.796498 
L 429.583323 143.351626 
L 429.873594 146.127837 
L 430.163866 145.125073 
L 430.454137 146.127837 
L 430.744408 139.293524 
L 431.615223 141.237805 
L 432.195766 136.531147 
L 432.486037 137.180216 
L 432.776309 136.322844 
L 434.227666 138.611161 
L 434.517938 138.466211 
L 434.808209 136.750798 
L 435.679024 136.586026 
L 435.969295 138.310304 
L 436.259567 141.2492 
L 436.549838 140.805659 
L 436.84011 141.637165 
L 437.710924 140.352364 
L 438.001196 139.136586 
L 438.291467 140.036032 
L 438.581738 142.692989 
L 438.87201 141.158087 
L 439.742824 142.531747 
L 440.033096 141.294781 
L 440.90391 129.231269 
L 441.774725 125.036772 
L 442.064996 100.644173 
L 442.355268 93.482021 
L 442.645539 99.683277 
L 442.935811 100.142274 
L 443.806625 103.791395 
L 444.096897 105.922795 
L 444.387168 106.482946 
L 444.67744 103.521177 
L 444.967711 102.957272 
L 446.128797 96.261407 
L 446.419068 96.157948 
L 446.999611 92.984635 
L 448.160697 96.420735 
L 448.450969 94.710581 
L 448.74124 94.357216 
L 449.031512 88.632123 
L 449.902326 91.765082 
L 450.192598 93.786085 
L 450.482869 89.564586 
L 450.773141 91.190302 
L 451.063412 91.9188 
L 451.934227 90.314046 
L 452.224498 86.161766 
L 452.51477 95.713265 
L 452.805041 99.144457 
L 453.095313 97.020029 
L 453.966127 96.755985 
L 454.256399 94.812854 
L 455.127213 97.57392 
L 455.998027 99.871588 
L 456.288299 100.043768 
L 456.868842 98.478218 
L 457.159113 96.102282 
L 458.029928 91.573196 
L 458.320199 99.740554 
L 458.610471 98.502529 
L 459.191014 102.755886 
L 460.3521 106.069051 
L 460.642371 103.007666 
L 460.932643 103.352584 
L 461.222914 102.898496 
L 462.674271 100.010958 
L 462.964543 100.314826 
L 463.254814 98.835271 
L 464.125629 98.932821 
L 464.4159 87.402001 
L 464.706172 87.952197 
L 464.996443 84.933676 
L 465.286715 87.098191 
L 466.157529 89.368488 
L 466.738072 83.616654 
L 467.028344 86.832038 
L 467.318615 88.542256 
L 468.18943 85.67055 
L 468.479701 82.049993 
L 468.769973 85.283333 
L 469.060244 78.92559 
L 469.350516 78.303038 
L 470.511601 77.251728 
L 470.801873 78.475661 
L 471.092144 83.192661 
L 471.382416 90.953495 
L 472.25323 90.839063 
L 472.543502 95.380784 
L 472.833773 92.442867 
L 473.124045 94.365053 
L 473.414316 92.829607 
L 474.285131 98.770276 
L 474.575402 104.852571 
L 474.865674 100.718391 
L 475.155945 105.365145 
L 475.446217 107.776469 
L 476.317031 116.745927 
L 476.607303 116.717799 
L 476.897574 112.226303 
L 477.187846 119.791181 
L 477.478117 114.5164 
L 478.348932 112.969871 
L 478.639203 116.324854 
L 478.929474 106.336207 
L 479.219746 106.172403 
L 479.510017 102.898496 
L 480.380832 97.156266 
L 480.671103 96.931952 
L 480.961375 103.563364 
L 481.251646 105.382271 
L 481.541918 112.760867 
L 482.412732 113.992666 
L 482.703004 111.433185 
L 482.993275 107.488842 
L 483.283547 134.917604 
L 483.573818 142.118069 
L 484.444633 138.845656 
L 484.734904 141.637165 
L 485.025176 121.366284 
L 485.315447 132.365564 
L 485.605719 134.366353 
L 486.476533 136.038346 
L 486.766804 133.313833 
L 487.347347 134.755219 
L 488.798705 132.13226 
L 489.379248 118.786912 
L 489.669519 116.054255 
L 490.830605 114.029342 
L 491.120877 119.407661 
L 491.70142 113.891843 
L 492.572234 114.959143 
L 492.862506 121.220499 
L 493.152777 119.245019 
L 493.443049 119.637627 
L 493.73332 122.450315 
L 494.894406 102.429329 
L 495.184677 97.734923 
L 495.474949 99.27487 
L 495.76522 98.478218 
L 496.926306 104.180871 
L 497.216578 109.560526 
L 497.506849 108.353734 
L 497.797121 111.622002 
L 498.958207 104.622606 
L 499.248478 103.969053 
L 499.53875 103.689997 
L 499.829021 105.365145 
L 500.699836 105.974407 
L 501.280379 109.657927 
L 501.57065 108.056028 
L 501.860922 100.380626 
L 502.731736 104.588564 
L 503.022007 101.861976 
L 503.312279 97.598056 
L 503.892822 108.362509 
L 504.763636 104.997585 
L 505.053908 106.448396 
L 505.344179 106.543412 
L 505.924722 105.716611 
L 506.795537 101.695583 
L 507.085808 96.771975 
L 507.37608 97.461339 
L 507.666351 99.04673 
L 507.956623 97.815508 
L 508.827437 96.747997 
L 509.40798 97.630242 
L 509.698252 94.97824 
L 510.859337 94.946716 
L 511.149609 99.22594 
L 511.43988 97.204383 
L 511.730152 96.452632 
L 512.020423 99.691455 
L 512.891238 94.459201 
L 513.181509 96.110229 
L 513.471781 91.228542 
L 513.762052 83.739087 
L 514.052324 83.631055 
L 514.923138 82.605752 
L 515.21341 87.959656 
L 515.503681 89.753424 
L 515.793953 89.406177 
L 516.084224 86.352914 
L 516.955039 83.775123 
L 517.535582 86.559082 
L 517.825853 87.275944 
L 518.116125 91.603873 
L 519.27721 83.056422 
L 519.567482 58.610254 
L 519.857753 61.751757 
L 520.148025 62.808501 
L 521.018839 64.30553 
L 521.309111 62.820703 
L 521.599382 62.224372 
L 521.889654 66.748607 
L 522.179925 69.201668 
L 523.05074 67.861165 
L 523.341011 70.842415 
L 523.631283 72.564202 
L 523.921554 72.781912 
L 524.211826 68.612636 
L 525.08264 69.671035 
L 525.372912 69.677473 
L 525.663183 70.861922 
L 525.953455 69.72902 
L 526.243726 70.245652 
L 527.404812 71.723264 
L 527.695083 70.563134 
L 527.985355 65.920622 
L 528.275626 64.330226 
L 529.146441 65.222345 
L 529.436712 67.145721 
L 529.726984 68.166304 
L 530.017255 66.001927 
L 530.307527 67.360555 
L 531.178341 64.126671 
L 531.468613 64.949079 
L 531.758884 64.188313 
L 532.049156 60.44021 
L 533.210242 56.012572 
L 533.500513 61.806196 
L 533.790785 62.187955 
L 534.371328 69.330093 
L 535.242142 61.812244 
L 535.532413 62.236516 
L 536.112956 59.545665 
L 536.403228 51.685557 
L 537.274042 49.127449 
L 537.564314 51.568391 
L 537.854585 47.551336 
L 538.144857 48.930714 
L 538.435128 59.456564 
L 539.596214 57.424421 
L 539.886486 54.776517 
L 540.467029 53.915624 
L 541.337843 48.130563 
L 541.628115 49.983547 
L 541.918386 50.75685 
L 542.498929 42.41883 
L 543.369743 40.847423 
L 543.660015 38.705152 
L 543.950286 38.544183 
L 544.240558 41.989248 
L 544.530829 41.519944 
L 545.401644 41.984077 
L 545.691915 50.386178 
L 545.982187 48.521837 
L 546.272458 54.25699 
L 546.56273 57.787199 
L 547.433544 52.919585 
L 547.723816 52.908309 
L 548.014087 54.736473 
L 548.304359 62.771915 
L 548.59463 63.358613 
L 549.465445 68.376522 
L 549.755716 68.740449 
L 550.045988 63.08937 
L 550.336259 63.972683 
L 550.626531 61.317069 
L 551.787616 53.314787 
L 552.077888 52.256192 
L 552.658431 52.621185 
L 553.529245 60.817831 
L 553.819517 54.810846 
L 554.40006 50.695918 
L 554.690331 52.868865 
L 555.561146 54.627865 
L 555.851417 53.444918 
L 556.141689 47.513531 
L 556.43196 50.563075 
L 556.722232 50.984223 
L 557.593046 54.319676 
L 557.883318 51.98733 
L 558.173589 52.733704 
L 558.463861 48.919799 
L 558.754132 46.808212 
L 559.624946 47.033913 
L 559.915218 47.713469 
L 561.656847 48.947096 
L 561.947118 52.065686 
L 562.23739 53.875854 
L 562.817933 56.672941 
L 563.979019 47.238472 
L 564.26929 48.255426 
L 564.559562 47.001646 
L 564.849833 49.395727 
L 565.720648 47.216928 
L 566.010919 47.551336 
L 566.301191 55.240766 
L 566.591462 54.627865 
L 566.881733 56.151312 
L 568.042819 66.371576 
L 568.333091 71.808418 
L 568.623362 73.05294 
L 569.784448 74.825664 
L 570.07472 74.966682 
L 570.364991 73.782991 
L 570.655263 70.537191 
L 570.945534 80.565867 
L 571.816349 79.203283 
L 572.10662 91.949573 
L 572.687163 100.520562 
L 572.977435 99.986352 
L 573.848249 93.918856 
L 574.138521 84.948229 
L 574.719064 102.06192 
L 575.009335 99.315641 
L 576.170421 98.567386 
L 576.460692 89.368488 
L 577.041235 84.693847 
L 577.91205 93.895416 
L 578.202321 94.059585 
L 578.492593 90.831443 
L 578.782864 85.232286 
L 579.073136 90.808573 
L 579.94395 91.841912 
L 580.234222 89.293158 
L 580.814765 76.698697 
L 581.105036 81.900793 
L 581.975851 78.648521 
L 582.266122 82.612889 
L 582.556394 82.477278 
L 583.136936 87.676797 
L 584.298022 83.070759 
L 584.588294 86.76559 
L 584.878565 88.101324 
L 585.168837 93.918856 
L 586.039651 89.66275 
L 586.329923 94.545559 
L 586.620194 91.534852 
L 587.200737 98.065634 
L 588.071552 97.775209 
L 588.361823 90.511628 
L 588.652095 90.785707 
L 588.942366 90.877196 
L 590.103452 90.276096 
L 590.393724 92.103517 
L 590.683995 89.594776 
L 590.974267 98.057562 
L 591.264538 99.58513 
L 592.135352 95.491513 
L 592.425624 92.83735 
L 592.715895 83.034925 
L 593.006167 83.803962 
L 593.296438 79.991073 
L 594.167253 76.51489 
L 594.457524 80.201059 
L 594.747796 79.203283 
L 595.038067 86.610672 
L 595.328339 85.42931 
L 596.199153 87.18703 
L 596.489425 88.917145 
L 597.069968 90.648587 
L 597.360239 84.266206 
L 598.231054 84.345826 
L 598.521325 105.673695 
L 598.811597 107.4105 
L 599.101868 100.388849 
L 599.392139 101.953582 
L 600.553225 114.020176 
L 600.843497 119.800779 
L 601.133768 116.971064 
L 601.42404 113.042653 
L 602.585126 112.072698 
L 602.875397 107.367 
L 603.165669 107.20186 
L 603.45594 108.960088 
L 604.617026 106.872204 
L 604.907298 104.656644 
L 605.197569 95.673635 
L 605.487841 91.006923 
L 606.358655 85.582777 
L 606.648927 92.899344 
L 606.939198 96.73201 
L 607.229469 93.217542 
L 607.519741 100.207984 
L 608.390555 98.689088 
L 608.680827 99.111869 
L 608.971098 101.745485 
L 609.26137 99.038595 
L 609.551641 101.297164 
L 610.712727 95.610256 
L 610.712727 95.610256 
" clip-path="url(#p20a262d4be)" style="fill: none; stroke: #1f77b4; stroke-width: 1.5; stroke-linecap: square"/>
   </g>
   <g id="line2d_16">
    <path d="M 80.967273 81.078818 
L 81.257544 78.878433 
L 82.128359 76.680202 
L 82.41863 75.118617 
L 82.708902 76.388949 
L 82.999173 78.272285 
L 83.289445 78.542 
L 84.160259 77.037958 
L 84.450531 77.620413 
L 84.740802 78.865968 
L 85.321345 78.092645 
L 86.482431 72.985894 
L 86.772702 73.251274 
L 87.062974 77.800532 
L 87.353245 74.649712 
L 88.22406 75.484945 
L 88.514331 73.59053 
L 88.804603 77.435081 
L 89.094874 79.348673 
L 90.25596 75.706603 
L 90.546232 70.007439 
L 90.836503 67.090197 
L 91.126775 66.183742 
L 91.417046 62.414688 
L 92.287861 67.131185 
L 92.578132 69.58119 
L 92.868403 70.457657 
L 93.158675 72.238043 
L 93.448946 75.026647 
L 94.610032 72.625678 
L 94.900304 69.614362 
L 95.190575 70.304389 
L 95.480847 72.417723 
L 96.351661 69.685409 
L 96.641933 71.619442 
L 96.932204 75.562118 
L 97.222476 74.174835 
L 98.383562 75.273974 
L 98.673833 75.340069 
L 98.964105 74.155408 
L 99.254376 75.751945 
L 99.544648 75.421935 
L 100.415462 72.84423 
L 100.705733 69.821277 
L 100.996005 69.252925 
L 101.286276 72.325921 
L 101.576548 70.065174 
L 102.447362 69.365819 
L 102.737634 71.364971 
L 103.027905 70.125619 
L 103.608448 69.531736 
L 104.769534 71.132355 
L 105.059806 74.919817 
L 105.350077 72.236402 
L 105.640349 74.225966 
L 106.511163 74.671567 
L 106.801435 77.177918 
L 107.091706 74.731805 
L 107.381978 75.357432 
L 107.672249 73.853656 
L 108.543064 77.489106 
L 108.833335 76.882972 
L 109.123606 74.216313 
L 109.413878 73.645552 
L 109.704149 77.670329 
L 110.574964 77.811807 
L 110.865235 84.692526 
L 111.155507 86.2925 
L 111.445778 84.676803 
L 111.73605 85.831346 
L 112.606864 89.794139 
L 112.897136 89.841411 
L 113.187407 86.919689 
L 113.477679 82.443031 
L 113.76795 84.685568 
L 114.929036 87.263731 
L 115.219308 83.503769 
L 115.509579 83.203646 
L 115.799851 82.25201 
L 116.670665 78.739661 
L 116.960936 76.999666 
L 117.251208 77.038394 
L 117.541479 76.56215 
L 117.831751 82.183769 
L 118.702565 82.234376 
L 118.992837 87.689868 
L 119.283108 87.801902 
L 119.57338 79.477044 
L 119.863651 78.881254 
L 120.734466 73.40175 
L 121.024737 77.753631 
L 121.315009 75.828492 
L 121.60528 72.394621 
L 121.895552 72.677131 
L 122.766366 72.210959 
L 123.056638 70.58419 
L 123.346909 77.349865 
L 123.637181 75.457272 
L 123.927452 60.184609 
L 124.798267 61.598908 
L 125.088538 60.494361 
L 125.378809 62.819304 
L 125.669081 59.075847 
L 125.959352 58.460077 
L 126.830167 65.26923 
L 127.120438 66.535401 
L 127.41071 62.423411 
L 127.991253 66.617424 
L 128.862067 66.78628 
L 129.44261 75.203603 
L 129.732882 75.929241 
L 130.023153 79.127151 
L 130.893968 77.531121 
L 131.184239 70.201981 
L 131.474511 71.368327 
L 133.216139 84.287362 
L 133.506411 82.432903 
L 133.796682 86.570164 
L 134.957768 90.267975 
L 135.24804 81.576398 
L 135.538311 80.28868 
L 135.828583 76.215134 
L 137.570212 80.778788 
L 137.860483 80.522713 
L 138.150755 82.784323 
L 139.602112 101.534713 
L 139.892384 103.22911 
L 140.182655 106.177061 
L 141.053469 108.469562 
L 141.343741 105.422246 
L 141.634012 105.056674 
L 141.924284 117.562089 
L 142.214555 113.03376 
L 143.375641 118.56982 
L 143.665913 121.60671 
L 143.956184 122.327422 
L 144.246456 141.149381 
L 145.11727 132.765594 
L 145.407542 138.445382 
L 145.697813 141.886453 
L 145.988085 149.387992 
L 146.278356 140.124278 
L 147.149171 127.403548 
L 147.439442 125.242556 
L 148.019985 150.087916 
L 148.310257 140.246463 
L 149.181071 140.899085 
L 149.471342 140.087978 
L 149.761614 133.152298 
L 150.342157 142.91067 
L 151.212971 143.960982 
L 151.503243 137.831656 
L 152.083786 175.619491 
L 152.374057 176.121383 
L 153.535143 181.62875 
L 153.825415 181.429379 
L 154.115686 174.484681 
L 154.405958 171.313272 
L 155.276772 168.677047 
L 155.567044 173.375043 
L 155.857315 175.374288 
L 156.147587 179.823587 
L 156.437858 187.656383 
L 157.308672 195.880141 
L 157.598944 205.728005 
L 157.889215 188.294515 
L 158.179487 196.766936 
L 159.340573 206.963271 
L 160.211387 176.203854 
L 160.501659 155.281973 
L 161.372473 172.125932 
L 161.662745 164.547352 
L 161.953016 168.709549 
L 162.243288 168.693894 
L 162.533559 173.701275 
L 163.404374 170.023448 
L 163.694645 162.348906 
L 164.275188 174.745064 
L 164.56546 171.45709 
L 165.436274 165.113801 
L 165.726545 169.796551 
L 166.016817 178.375478 
L 166.307088 180.013934 
L 166.59736 187.999454 
L 167.468174 185.185299 
L 167.758446 190.016001 
L 168.048717 187.192099 
L 168.338989 193.229286 
L 169.500075 192.420423 
L 169.790346 187.356047 
L 170.370889 217.418798 
L 170.661161 222.000403 
L 171.531975 220.899631 
L 171.822247 229.564462 
L 172.112518 232.407312 
L 172.40279 224.417157 
L 172.693061 229.259149 
L 173.854147 217.772044 
L 174.144418 212.80569 
L 174.43469 234.026015 
L 174.724961 244.456874 
L 175.595776 256.682766 
L 175.886047 257.537753 
L 176.176319 263.768691 
L 176.756862 234.505801 
L 177.627676 249.648896 
L 177.917948 245.855229 
L 178.208219 250.381012 
L 178.498491 239.378449 
L 178.788762 249.149035 
L 179.949848 263.703653 
L 180.24012 260.201822 
L 180.820663 247.828268 
L 181.981748 246.940088 
L 182.27202 251.732979 
L 182.562291 239.133833 
L 182.852563 255.184892 
L 183.723377 252.587803 
L 184.013649 245.821533 
L 184.30392 242.76666 
L 184.884463 255.734858 
L 186.045549 271.21077 
L 186.335821 261.706014 
L 186.626092 270.67557 
L 186.916364 265.18812 
L 188.07745 260.49588 
L 188.367721 257.104683 
L 188.948264 240.352023 
L 189.819078 245.204094 
L 190.689893 267.664482 
L 192.14125 257.290716 
L 192.431522 259.164925 
L 192.721793 250.760552 
L 193.012065 250.567335 
L 193.882879 262.779041 
L 194.173151 262.083625 
L 194.463422 262.62636 
L 194.753694 268.835361 
L 195.043965 265.373505 
L 195.91478 261.323917 
L 196.205051 254.727226 
L 196.495323 241.58779 
L 196.785594 235.390344 
L 197.075866 245.292636 
L 197.94668 247.008811 
L 198.236951 266.74303 
L 198.527223 252.634137 
L 198.817494 250.823051 
L 199.107766 254.755211 
L 200.268852 244.329337 
L 200.559123 230.676521 
L 200.849395 233.765364 
L 201.139666 234.247637 
L 202.010481 236.765447 
L 202.300752 247.53038 
L 202.591024 234.711295 
L 202.881295 236.394811 
L 203.171567 235.452446 
L 204.042381 238.155054 
L 204.332653 237.763851 
L 204.622924 245.77895 
L 204.913196 246.562994 
L 205.203467 255.680795 
L 206.074281 258.966835 
L 206.364553 261.221385 
L 206.654824 258.960472 
L 206.945096 254.943262 
L 207.235367 262.482435 
L 208.106182 263.160326 
L 208.396453 266.038716 
L 208.686725 264.034552 
L 208.976996 265.05596 
L 209.267268 269.764856 
L 210.428354 271.048452 
L 211.008897 262.502773 
L 211.299168 252.171952 
L 212.169983 251.472019 
L 212.460254 260.993187 
L 212.750526 255.494636 
L 213.040797 254.919923 
L 213.331068 262.216249 
L 214.201883 257.412279 
L 214.492154 265.374705 
L 214.782426 265.879073 
L 215.072697 273.208203 
L 215.362969 272.446958 
L 216.524055 274.270877 
L 216.814326 268.048187 
L 217.104598 279.995105 
L 217.394869 278.771961 
L 218.265684 273.976915 
L 218.555955 259.449664 
L 218.846227 263.403223 
L 219.136498 265.722296 
L 219.42677 276.911196 
L 220.587856 283.914418 
L 221.168399 280.787246 
L 221.45867 282.157498 
L 222.619756 270.344793 
L 222.910027 271.894482 
L 223.200299 265.502758 
L 223.49057 265.37733 
L 224.361385 270.869504 
L 224.651656 265.790504 
L 224.941928 269.794887 
L 225.232199 250.316479 
L 225.522471 249.869893 
L 226.393285 249.320275 
L 226.683557 247.259282 
L 226.973828 251.89754 
L 227.2641 250.146101 
L 227.554371 255.956832 
L 228.425186 257.723678 
L 228.715457 255.738653 
L 229.005729 263.957856 
L 229.296 241.980756 
L 229.586271 234.113512 
L 230.457086 238.199863 
L 230.747357 232.344991 
L 231.037629 237.656246 
L 231.3279 239.673151 
L 231.618172 243.623938 
L 232.488986 247.927946 
L 232.779258 247.029078 
L 233.069529 242.62124 
L 233.650072 242.796521 
L 234.520887 237.950148 
L 234.811158 240.139492 
L 235.10143 227.260444 
L 235.391701 221.347433 
L 235.681973 222.114958 
L 236.552787 228.833841 
L 236.843059 233.226146 
L 237.13333 234.215956 
L 237.423601 233.731394 
L 237.713873 235.051573 
L 238.584687 234.520965 
L 238.874959 233.449508 
L 239.16523 235.901405 
L 239.455502 242.174265 
L 239.745773 242.216869 
L 240.616588 244.006883 
L 240.906859 242.704947 
L 241.197131 242.411114 
L 241.777674 250.977387 
L 243.229031 256.059784 
L 243.519303 246.249972 
L 243.809574 248.090811 
L 244.97066 244.566128 
L 245.260932 237.126136 
L 245.551203 244.305838 
L 245.841474 240.507609 
L 246.712289 240.514448 
L 247.00256 243.253637 
L 247.292832 243.093307 
L 247.583103 242.022883 
L 247.873375 235.458039 
L 249.034461 231.783765 
L 249.615004 237.046817 
L 249.905275 229.606752 
L 250.77609 219.894169 
L 251.066361 223.810766 
L 251.356633 210.814721 
L 251.646904 208.13949 
L 251.937176 204.27737 
L 252.80799 211.860382 
L 253.098262 205.687692 
L 253.388533 203.922251 
L 253.678804 196.068391 
L 253.969076 197.324864 
L 254.83989 199.811484 
L 255.130162 199.961837 
L 255.420433 204.28552 
L 255.710705 204.175864 
L 256.000976 207.576446 
L 256.871791 207.396234 
L 257.162062 204.042039 
L 257.452334 196.012624 
L 257.742605 217.254711 
L 258.032877 220.17188 
L 259.193963 226.825896 
L 259.484234 224.228825 
L 259.774506 223.090481 
L 260.064777 228.034167 
L 260.935592 228.401461 
L 261.225863 226.553365 
L 261.516134 229.110739 
L 261.806406 226.287184 
L 262.096677 219.648099 
L 262.967492 219.34124 
L 263.257763 222.199354 
L 263.548035 217.37672 
L 263.838306 218.935297 
L 264.128578 223.226309 
L 264.999392 222.872553 
L 265.289664 217.206724 
L 265.579935 218.37794 
L 265.870207 214.466669 
L 266.160478 214.856932 
L 267.031293 217.210001 
L 267.321564 212.354533 
L 267.611836 214.16701 
L 267.902107 211.798461 
L 268.192379 214.036119 
L 269.063193 213.690058 
L 269.353465 216.496918 
L 269.643736 210.462668 
L 269.934007 211.253627 
L 270.224279 207.834175 
L 271.095093 208.703542 
L 271.385365 209.575455 
L 271.675636 216.030958 
L 271.965908 215.435124 
L 273.126994 214.972287 
L 273.417265 216.565601 
L 274.28808 213.659906 
L 275.449166 205.789281 
L 275.739437 206.182886 
L 276.029709 208.178537 
L 276.31998 205.624792 
L 277.190795 207.471785 
L 277.481066 211.661045 
L 277.771337 211.121287 
L 278.061609 207.748004 
L 278.35188 205.785652 
L 279.803238 211.382135 
L 280.093509 184.429187 
L 280.383781 175.479447 
L 281.254595 172.146183 
L 282.12541 175.139699 
L 282.415681 177.182844 
L 283.286496 176.105983 
L 283.576767 179.944947 
L 283.867039 178.502036 
L 284.15731 178.414081 
L 285.608667 183.386336 
L 285.898939 182.049077 
L 286.18921 183.934474 
L 286.479482 180.103178 
L 287.640568 182.779304 
L 287.930839 184.96727 
L 288.221111 183.643212 
L 288.511382 184.030535 
L 289.382197 180.705857 
L 289.672468 172.921605 
L 289.96274 181.740235 
L 290.253011 182.58496 
L 290.543283 178.346139 
L 291.414097 171.329722 
L 291.704369 173.363102 
L 291.99464 169.869171 
L 292.284912 169.340419 
L 292.575183 172.996483 
L 293.736269 173.990237 
L 294.02654 175.984866 
L 294.316812 175.984989 
L 294.607083 175.51758 
L 295.477898 176.405338 
L 295.768169 175.458754 
L 296.058441 173.401147 
L 296.348712 174.569449 
L 296.638984 172.943545 
L 298.090341 173.506137 
L 298.380613 178.105242 
L 298.670884 177.681619 
L 299.541699 178.058155 
L 299.83197 175.566068 
L 300.122242 170.577796 
L 300.412513 162.842562 
L 300.702785 166.986315 
L 301.573599 165.492839 
L 301.86387 168.338656 
L 302.154142 166.877368 
L 302.444413 172.148746 
L 302.734685 171.792876 
L 303.605499 170.175842 
L 303.895771 172.904372 
L 304.186042 173.38552 
L 304.476314 174.624228 
L 304.766585 170.394217 
L 305.6374 167.273065 
L 305.927671 168.074923 
L 306.508214 183.359211 
L 306.798486 185.673989 
L 307.959572 189.308618 
L 308.249843 191.035927 
L 308.540115 188.238592 
L 308.830386 190.691847 
L 309.7012 189.136281 
L 309.991472 190.402316 
L 310.281743 190.110735 
L 310.572015 194.582116 
L 310.862286 194.691231 
L 311.733101 192.872186 
L 312.023372 192.789401 
L 312.313644 186.439666 
L 312.603915 189.526563 
L 312.894187 188.761283 
L 313.765001 186.96643 
L 314.055273 181.469329 
L 314.345544 179.302494 
L 314.635816 166.649496 
L 314.926087 166.472479 
L 316.087173 167.372361 
L 316.377445 166.963673 
L 316.667716 168.962028 
L 316.957988 172.03069 
L 317.828802 169.499551 
L 318.119073 173.15526 
L 318.409345 174.031485 
L 318.699616 172.463661 
L 318.989888 174.849296 
L 319.860702 180.716874 
L 320.441245 186.908639 
L 320.731517 194.011738 
L 321.021788 195.462013 
L 321.892603 194.289755 
L 322.182874 199.483562 
L 322.473146 198.013553 
L 323.053689 191.861216 
L 323.924503 192.412144 
L 324.214775 197.710022 
L 324.505046 194.51128 
L 324.795318 195.124843 
L 325.085589 192.013588 
L 326.246675 189.863498 
L 326.827218 193.787153 
L 327.117489 197.226557 
L 327.988304 193.445914 
L 328.278575 191.641777 
L 328.859118 196.271674 
L 329.14939 197.940285 
L 330.020204 198.397033 
L 330.310476 195.250353 
L 330.600747 204.37907 
L 330.891019 208.568768 
L 331.18129 209.24997 
L 332.342376 206.998153 
L 332.632648 202.377655 
L 332.922919 177.427619 
L 333.213191 174.555595 
L 334.084005 177.488974 
L 334.664548 171.792379 
L 334.954819 176.401082 
L 335.245091 174.274657 
L 336.115905 172.318397 
L 336.406177 166.049474 
L 336.696448 162.595098 
L 336.98672 163.80079 
L 337.276991 161.209856 
L 338.438077 158.938131 
L 338.728349 156.954661 
L 339.308892 158.093399 
L 340.179706 152.693247 
L 341.050521 154.725987 
L 341.340792 153.25757 
L 342.211606 156.185237 
L 342.501878 151.966553 
L 342.792149 157.648526 
L 343.372692 155.166647 
L 344.243507 154.830078 
L 344.533778 155.391557 
L 344.82405 152.99394 
L 345.114321 147.603046 
L 345.404593 149.71712 
L 346.275407 149.449632 
L 346.565679 147.327771 
L 346.85595 152.709374 
L 347.146222 151.290973 
L 347.436493 150.858676 
L 348.887851 149.256512 
L 349.178122 147.964048 
L 350.629479 156.255014 
L 350.919751 158.963777 
L 351.500294 154.037513 
L 352.371108 148.746187 
L 352.66138 144.997246 
L 352.951651 143.078036 
L 353.532194 142.701759 
L 354.69328 142.301843 
L 354.983552 143.34968 
L 355.273823 147.684696 
L 355.564095 143.870458 
L 356.434909 143.988083 
L 356.725181 142.187284 
L 357.015452 143.027308 
L 357.305724 142.755303 
L 357.595995 141.55645 
L 358.466809 138.751002 
L 358.757081 140.980548 
L 359.047352 144.565352 
L 359.337624 149.614079 
L 359.627895 140.335155 
L 360.49871 141.858356 
L 360.788981 140.934346 
L 361.369524 132.314443 
L 361.659796 128.34498 
L 362.53061 130.599141 
L 362.820882 148.678823 
L 363.401425 137.273907 
L 363.691696 142.072855 
L 364.852782 145.960616 
L 365.143054 150.672071 
L 365.433325 151.836856 
L 365.723597 149.973797 
L 366.594411 147.579036 
L 367.174954 150.630953 
L 367.465225 148.8683 
L 367.755497 148.542355 
L 368.626311 150.090691 
L 368.916583 153.778692 
L 369.787397 150.379638 
L 370.658212 152.053586 
L 370.948483 149.812698 
L 371.238755 145.910427 
L 371.529026 146.575505 
L 371.819298 147.96124 
L 372.690112 147.282808 
L 372.980384 147.371368 
L 373.270655 141.010138 
L 373.560927 144.664315 
L 373.851198 145.531651 
L 374.722012 145.229241 
L 375.012284 145.301615 
L 375.302555 145.191091 
L 375.592827 147.481641 
L 377.044184 146.059455 
L 377.334456 150.196053 
L 377.624727 151.956453 
L 377.914999 150.978294 
L 378.785813 151.936929 
L 379.076085 151.336524 
L 379.366356 156.342294 
L 379.656628 156.008515 
L 379.946899 158.793739 
L 380.817714 160.734256 
L 381.107985 160.238552 
L 381.398257 158.652321 
L 381.688528 158.899273 
L 381.9788 158.633459 
L 382.849614 157.334368 
L 383.139885 151.676548 
L 383.720428 157.652734 
L 384.0107 156.69641 
L 384.881514 154.708069 
L 385.171786 158.621006 
L 385.462057 157.254841 
L 385.752329 154.926854 
L 386.0426 151.230274 
L 386.913415 146.185719 
L 387.203686 146.894989 
L 387.493958 172.134637 
L 387.784229 172.751049 
L 388.074501 180.464927 
L 388.945315 180.813489 
L 389.235587 182.529213 
L 389.525858 181.057146 
L 389.81613 183.638649 
L 390.106401 181.922532 
L 391.267487 185.144502 
L 391.557758 181.321728 
L 391.84803 183.161852 
L 392.138301 184.234909 
L 393.589659 181.976979 
L 394.170202 179.967994 
L 395.041016 179.398376 
L 395.621559 175.653821 
L 395.911831 175.097588 
L 396.202102 175.032398 
L 397.363188 169.716518 
L 397.65346 166.569847 
L 397.943731 168.375863 
L 398.234002 162.566503 
L 399.104817 164.772647 
L 399.395088 169.311285 
L 399.975631 170.104931 
L 400.265903 168.058618 
L 401.136717 169.304021 
L 401.426989 168.788192 
L 401.71726 167.467163 
L 402.007532 165.316794 
L 402.297803 165.971124 
L 403.458889 165.599841 
L 403.749161 164.891737 
L 404.329704 163.776689 
L 405.200518 164.106079 
L 405.49079 166.460409 
L 406.071333 168.139999 
L 406.361604 168.883491 
L 407.232418 170.007028 
L 407.52269 159.396866 
L 407.812961 168.623508 
L 408.103233 171.875671 
L 408.393504 171.562608 
L 409.264319 172.454416 
L 409.55459 172.019118 
L 409.844862 178.776785 
L 410.135133 178.194372 
L 410.425405 177.061086 
L 411.296219 177.128768 
L 411.586491 178.289346 
L 411.876762 174.174777 
L 412.457305 188.609971 
L 413.618391 189.778039 
L 413.908663 169.348343 
L 414.198934 160.800974 
L 414.489205 159.611302 
L 415.36002 161.412937 
L 415.940563 155.770928 
L 416.230834 150.120659 
L 416.521106 150.461064 
L 417.39192 149.944595 
L 417.682192 150.873916 
L 417.972463 148.879502 
L 418.262735 152.264071 
L 418.553006 149.0077 
L 419.714092 152.814831 
L 420.004364 156.550063 
L 420.584907 153.526828 
L 422.326535 160.247281 
L 422.616807 165.998462 
L 423.487621 163.342574 
L 423.777893 163.251308 
L 424.068164 156.808122 
L 424.358436 157.465359 
L 424.648707 155.498511 
L 425.519522 153.538186 
L 426.100065 150.638002 
L 426.390336 144.821124 
L 426.680608 145.200797 
L 427.551422 142.989745 
L 427.841694 142.967026 
L 428.131965 145.661034 
L 428.422237 142.752048 
L 428.712508 145.229681 
L 429.583323 143.456493 
L 429.873594 145.961081 
L 430.163866 145.228182 
L 430.454137 146.665211 
L 430.744408 139.554237 
L 431.615223 141.681265 
L 431.905494 138.680967 
L 432.195766 137.112579 
L 432.486037 137.644739 
L 432.776309 136.510072 
L 434.517938 138.876891 
L 434.808209 136.901639 
L 435.679024 136.896531 
L 435.969295 138.193287 
L 436.259567 141.386147 
L 436.549838 140.948172 
L 436.84011 142.014472 
L 438.001196 139.574147 
L 438.291467 139.961227 
L 438.581738 142.860825 
L 438.87201 141.36986 
L 439.742824 142.394771 
L 440.033096 140.762676 
L 440.323367 137.721913 
L 440.613639 131.238222 
L 441.774725 125.250945 
L 442.064996 101.162174 
L 442.355268 94.029277 
L 442.645539 100.33754 
L 442.935811 100.402668 
L 443.806625 103.241853 
L 444.387168 106.735166 
L 444.67744 103.587597 
L 444.967711 102.915223 
L 445.838526 98.685771 
L 446.128797 95.987139 
L 446.419068 95.87699 
L 446.999611 92.920095 
L 448.160697 96.728014 
L 448.450969 94.773901 
L 448.74124 93.981385 
L 449.031512 89.819579 
L 449.902326 92.003432 
L 450.192598 93.808462 
L 450.482869 89.523121 
L 450.773141 91.971901 
L 451.063412 92.10986 
L 451.934227 90.606654 
L 452.224498 86.743126 
L 452.51477 96.814026 
L 452.805041 98.539876 
L 453.095313 96.858524 
L 453.966127 96.878171 
L 454.256399 95.701423 
L 456.288299 100.379447 
L 456.868842 98.753981 
L 458.029928 90.585757 
L 458.320199 99.947354 
L 458.610471 98.717364 
L 459.191014 103.058927 
L 460.3521 105.96544 
L 460.642371 102.856513 
L 460.932643 103.972288 
L 461.222914 103.54599 
L 462.674271 100.394361 
L 462.964543 100.268714 
L 463.254814 98.545811 
L 464.125629 98.837555 
L 464.4159 87.446719 
L 464.706172 88.378828 
L 464.996443 85.628638 
L 465.286715 87.343961 
L 466.157529 88.035868 
L 466.738072 83.539091 
L 467.028344 86.994012 
L 467.318615 88.319415 
L 468.18943 85.459787 
L 468.479701 81.612802 
L 468.769973 85.253316 
L 469.060244 77.870145 
L 469.350516 78.14057 
L 470.511601 77.267994 
L 470.801873 78.842862 
L 471.092144 82.579887 
L 471.382416 91.459844 
L 472.25323 91.231932 
L 472.543502 95.687725 
L 472.833773 92.917295 
L 473.124045 95.297106 
L 473.414316 93.041109 
L 474.285131 99.289396 
L 474.575402 104.710475 
L 474.865674 100.179045 
L 475.446217 108.43548 
L 476.317031 117.353239 
L 476.607303 116.571122 
L 476.897574 111.796716 
L 477.187846 120.385429 
L 477.478117 114.058041 
L 478.348932 112.269609 
L 478.639203 116.317159 
L 478.929474 106.606402 
L 479.219746 106.05269 
L 479.510017 103.144794 
L 480.380832 97.09395 
L 480.671103 96.620658 
L 480.961375 103.496851 
L 481.251646 105.440216 
L 481.541918 112.69287 
L 482.412732 114.246644 
L 482.993275 107.776485 
L 483.283547 133.723503 
L 483.573818 143.445722 
L 484.444633 138.91457 
L 484.734904 141.729548 
L 485.025176 120.221722 
L 485.315447 131.225137 
L 485.605719 133.942329 
L 486.476533 136.055544 
L 486.766804 134.102501 
L 487.057076 133.514022 
L 487.347347 134.856523 
L 488.798705 132.032934 
L 489.379248 118.596107 
L 489.669519 116.129867 
L 490.540334 114.153713 
L 490.830605 114.077642 
L 491.120877 119.183256 
L 491.411148 116.89324 
L 491.70142 113.510807 
L 492.572234 114.835592 
L 492.862506 120.783325 
L 493.152777 120.367871 
L 493.443049 120.444447 
L 493.73332 122.641602 
L 494.894406 102.125143 
L 495.184677 98.185109 
L 495.474949 99.166809 
L 495.76522 98.771652 
L 496.926306 103.746368 
L 497.216578 109.118784 
L 497.506849 108.372846 
L 497.797121 110.580281 
L 499.53875 103.212525 
L 499.829021 104.185346 
L 500.699836 105.708936 
L 501.280379 109.348301 
L 501.57065 107.932254 
L 501.860922 100.643586 
L 502.731736 104.55907 
L 503.022007 101.650646 
L 503.312279 97.601033 
L 503.892822 108.322598 
L 504.763636 104.878321 
L 505.053908 107.115761 
L 505.924722 106.155067 
L 506.795537 101.60016 
L 507.085808 96.729909 
L 507.37608 97.330993 
L 507.666351 98.371641 
L 507.956623 98.361723 
L 508.827437 96.146062 
L 509.40798 97.119695 
L 509.698252 95.747441 
L 510.859337 95.447132 
L 511.149609 99.456611 
L 511.43988 97.391309 
L 511.730152 96.329138 
L 512.020423 99.952904 
L 512.891238 94.618605 
L 513.181509 96.259351 
L 513.762052 84.243138 
L 514.052324 83.500041 
L 514.923138 82.27248 
L 515.21341 87.414371 
L 515.503681 89.603726 
L 515.793953 89.763165 
L 516.084224 87.009414 
L 516.955039 84.036721 
L 517.535582 87.229446 
L 517.825853 87.581838 
L 518.116125 91.057313 
L 519.27721 83.276203 
L 519.567482 58.322679 
L 519.857753 61.752902 
L 520.148025 63.03319 
L 521.018839 64.63164 
L 521.309111 62.917517 
L 521.599382 62.292422 
L 521.889654 67.416502 
L 522.179925 69.321141 
L 523.05074 67.857061 
L 523.341011 71.406595 
L 523.631283 72.606186 
L 523.921554 73.103632 
L 524.211826 67.963691 
L 525.08264 70.015408 
L 525.372912 69.453335 
L 525.663183 70.546635 
L 525.953455 69.54746 
L 527.404812 72.094524 
L 527.695083 70.695381 
L 527.985355 66.279478 
L 528.275626 64.644322 
L 529.146441 64.985845 
L 529.436712 67.749787 
L 529.726984 68.37101 
L 530.017255 65.771395 
L 530.307527 67.450643 
L 531.178341 63.514924 
L 531.468613 64.68441 
L 531.758884 64.444088 
L 532.049156 60.611528 
L 532.339427 59.433832 
L 533.210242 56.433432 
L 533.500513 61.914814 
L 533.790785 62.718692 
L 534.081056 66.825342 
L 534.371328 69.251409 
L 535.242142 61.679689 
L 535.532413 62.206972 
L 535.822685 61.33286 
L 536.112956 59.74511 
L 536.403228 51.643172 
L 537.274042 49.015792 
L 537.564314 51.668199 
L 537.854585 47.661327 
L 538.144857 49.590987 
L 538.435128 59.265546 
L 539.596214 57.548206 
L 539.886486 54.789701 
L 540.176757 54.4918 
L 540.467029 53.541351 
L 541.337843 48.398946 
L 541.628115 49.833462 
L 541.918386 50.437889 
L 542.498929 42.533852 
L 543.369743 40.950656 
L 543.660015 38.20277 
L 543.950286 38.639609 
L 544.240558 42.462947 
L 544.530829 41.924462 
L 545.401644 42.282893 
L 545.691915 50.952242 
L 545.982187 49.011643 
L 546.272458 54.407262 
L 546.56273 57.285463 
L 547.433544 52.672992 
L 547.723816 52.789273 
L 548.014087 54.745972 
L 548.304359 63.302208 
L 548.59463 63.32527 
L 549.465445 68.844946 
L 549.755716 68.090415 
L 550.045988 63.811228 
L 550.336259 64.541288 
L 550.626531 61.324341 
L 551.787616 53.290296 
L 552.077888 51.789163 
L 552.658431 53.021953 
L 553.529245 61.163354 
L 553.819517 54.695307 
L 554.40006 50.805191 
L 554.690331 51.700708 
L 555.561146 54.928834 
L 555.851417 53.63091 
L 556.141689 47.138361 
L 556.43196 50.413595 
L 556.722232 50.965778 
L 557.593046 54.400473 
L 557.883318 51.830364 
L 558.173589 53.039484 
L 558.463861 48.912273 
L 558.754132 46.90672 
L 559.624946 46.711595 
L 560.205489 47.832077 
L 561.656847 49.158398 
L 562.23739 54.192289 
L 562.817933 56.972105 
L 563.979019 47.779591 
L 564.26929 48.669078 
L 564.559562 47.130374 
L 564.849833 49.94132 
L 565.720648 46.885494 
L 566.010919 47.597398 
L 566.301191 55.174034 
L 566.591462 54.809244 
L 566.881733 56.519039 
L 568.042819 66.108752 
L 568.333091 71.767566 
L 568.623362 72.493158 
L 568.913634 72.802423 
L 569.784448 74.999888 
L 570.07472 73.816275 
L 570.364991 73.634566 
L 570.655263 69.936444 
L 570.945534 81.705308 
L 571.816349 79.450049 
L 572.10662 92.000678 
L 572.396892 97.987771 
L 572.687163 100.812323 
L 572.977435 99.507332 
L 573.848249 93.076672 
L 574.138521 84.929723 
L 574.719064 102.332883 
L 575.009335 99.713884 
L 576.170421 98.546776 
L 576.460692 89.882763 
L 577.041235 84.811954 
L 577.91205 94.365362 
L 578.202321 94.324601 
L 578.492593 90.687954 
L 578.782864 85.171751 
L 579.073136 90.475172 
L 579.94395 91.95468 
L 580.234222 89.339503 
L 580.524493 81.542933 
L 580.814765 76.93908 
L 581.105036 81.050098 
L 581.975851 78.532311 
L 582.266122 82.622453 
L 582.556394 82.508868 
L 583.136936 88.57486 
L 584.298022 83.256154 
L 584.588294 87.248104 
L 584.878565 88.290462 
L 585.168837 94.101321 
L 586.039651 89.779368 
L 586.329923 94.826953 
L 586.620194 92.155316 
L 587.200737 98.459182 
L 588.071552 98.118371 
L 588.361823 90.391901 
L 588.652095 90.726906 
L 588.942366 91.252684 
L 590.103452 90.044844 
L 590.393724 92.204306 
L 590.683995 89.615611 
L 590.974267 97.878461 
L 591.264538 99.919372 
L 592.425624 92.731461 
L 592.715895 82.88892 
L 593.006167 83.670574 
L 593.296438 79.857749 
L 594.167253 76.053599 
L 594.457524 80.394703 
L 594.747796 79.477609 
L 595.038067 86.943841 
L 595.328339 85.074167 
L 596.199153 86.886 
L 596.489425 89.609569 
L 597.069968 90.101281 
L 597.360239 84.345276 
L 598.231054 84.384769 
L 598.521325 105.396048 
L 598.811597 108.138867 
L 599.101868 100.546334 
L 599.392139 101.830507 
L 600.553225 114.300076 
L 600.843497 119.83705 
L 601.133768 117.139073 
L 601.42404 113.333051 
L 602.585126 112.285428 
L 602.875397 107.333702 
L 603.165669 107.507658 
L 603.45594 109.497029 
L 604.617026 106.945857 
L 604.907298 104.894231 
L 605.197569 95.019866 
L 605.487841 91.613998 
L 606.358655 85.897834 
L 606.939198 97.308885 
L 607.229469 93.469018 
L 607.519741 100.589502 
L 608.390555 98.830347 
L 608.680827 99.131857 
L 608.971098 101.703809 
L 609.26137 99.160497 
L 609.551641 101.490192 
L 610.712727 95.674603 
L 610.712727 95.674603 
" clip-path="url(#p20a262d4be)" style="fill: none; stroke: #ff7f0e; stroke-width: 1.5; stroke-linecap: square"/>
   </g>
   <g id="patch_3">
    <path d="M 54.48 296.2 
L 54.48 25.917187 
" style="fill: none; stroke: #000000; stroke-width: 0.8; stroke-linejoin: miter; stroke-linecap: square"/>
   </g>
   <g id="patch_4">
    <path d="M 637.2 296.2 
L 637.2 25.917187 
" style="fill: none; stroke: #000000; stroke-width: 0.8; stroke-linejoin: miter; stroke-linecap: square"/>
   </g>
   <g id="patch_5">
    <path d="M 54.48 296.2 
L 637.2 296.2 
" style="fill: none; stroke: #000000; stroke-width: 0.8; stroke-linejoin: miter; stroke-linecap: square"/>
   </g>
   <g id="patch_6">
    <path d="M 54.48 25.917188 
L 637.2 25.917188 
" style="fill: none; stroke: #000000; stroke-width: 0.8; stroke-linejoin: miter; stroke-linecap: square"/>
   </g>
   <g id="text_16">
    <!-- Log Price Series -->
    <g transform="translate(298.21875 19.917188) scale(0.12 -0.12)">
     <defs>
      <path id="DejaVuSans-33" d="M 1259 4147 
L 1259 2394 
L 2053 2394 
Q 2494 2394 2734 2622 
Q 2975 2850 2975 3272 
Q 2975 3691 2734 3919 
Q 2494 4147 2053 4147 
L 1259 4147 
z
M 628 4666 
L 2053 4666 
Q 2838 4666 3239 4311 
Q 3641 3956 3641 3272 
Q 3641 2581 3239 2228 
Q 2838 1875 2053 1875 
L 1259 1875 
L 1259 0 
L 628 0 
L 628 4666 
z
" transform="scale(0.015625)"/>
      <path id="DejaVuSans-36" d="M 3425 4513 
L 3425 3897 
Q 3066 4069 2747 4153 
Q 2428 4238 2131 4238 
Q 1616 4238 1336 4038 
Q 1056 3838 1056 3469 
Q 1056 3159 1242 3001 
Q 1428 2844 1947 2747 
L 2328 2669 
Q 3034 2534 3370 2195 
Q 3706 1856 3706 1288 
Q 3706 609 3251 259 
Q 2797 -91 1919 -91 
Q 1588 -91 1214 -16 
Q 841 59 441 206 
L 441 856 
Q 825 641 1194 531 
Q 1563 422 1919 422 
Q 2459 422 2753 634 
Q 3047 847 3047 1241 
Q 3047 1584 2836 1778 
Q 2625 1972 2144 2069 
L 1759 2144 
Q 1053 2284 737 2584 
Q 422 2884 422 3419 
Q 422 4038 858 4394 
Q 1294 4750 2059 4750 
Q 2388 4750 2728 4690 
Q 3069 4631 3425 4513 
z
" transform="scale(0.015625)"/>
      <path id="DejaVuSans-56" d="M 2834 3397 
L 2834 2853 
Q 2591 2978 2328 3040 
Q 2066 3103 1784 3103 
Q 1356 3103 1142 2972 
Q 928 2841 928 2578 
Q 928 2378 1081 2264 
Q 1234 2150 1697 2047 
L 1894 2003 
Q 2506 1872 2764 1633 
Q 3022 1394 3022 966 
Q 3022 478 2636 193 
Q 2250 -91 1575 -91 
Q 1294 -91 989 -36 
Q 684 19 347 128 
L 347 722 
Q 666 556 975 473 
Q 1284 391 1588 391 
Q 1994 391 2212 530 
Q 2431 669 2431 922 
Q 2431 1156 2273 1281 
Q 2116 1406 1581 1522 
L 1381 1569 
Q 847 1681 609 1914 
Q 372 2147 372 2553 
Q 372 3047 722 3315 
Q 1072 3584 1716 3584 
Q 2034 3584 2315 3537 
Q 2597 3491 2834 3397 
z
" transform="scale(0.015625)"/>
     </defs>
     <use xlink:href="#DejaVuSans-2f"/>
     <use xlink:href="#DejaVuSans-52" transform="translate(53.96875 0)"/>
     <use xlink:href="#DejaVuSans-4a" transform="translate(115.15625 0)"/>
     <use xlink:href="#DejaVuSans-3" transform="translate(178.640625 0)"/>
     <use xlink:href="#DejaVuSans-33" transform="translate(210.421875 0)"/>
     <use xlink:href="#DejaVuSans-55" transform="translate(268.96875 0)"/>
     <use xlink:href="#DejaVuSans-4c" transform="translate(310.078125 0)"/>
     <use xlink:href="#DejaVuSans-46" transform="translate(337.859375 0)"/>
     <use xlink:href="#DejaVuSans-48" transform="translate(392.84375 0)"/>
     <use xlink:href="#DejaVuSans-3" transform="translate(454.375 0)"/>
     <use xlink:href="#DejaVuSans-36" transform="translate(486.15625 0)"/>
     <use xlink:href="#DejaVuSans-48" transform="translate(549.640625 0)"/>
     <use xlink:href="#DejaVuSans-55" transform="translate(611.171875 0)"/>
     <use xlink:href="#DejaVuSans-4c" transform="translate(652.28125 0)"/>
     <use xlink:href="#DejaVuSans-48" transform="translate(680.0625 0)"/>
     <use xlink:href="#DejaVuSans-56" transform="translate(741.59375 0)"/>
    </g>
   </g>
   <g id="legend_1">
    <g id="line2d_17">
     <path d="M 469.685937 266.296875 
L 479.685937 266.296875 
L 489.685937 266.296875 
" style="fill: none; stroke: #1f77b4; stroke-width: 1.5; stroke-linecap: square"/>
    </g>
    <g id="text_17">
     <!-- log SHOP.TO -->
     <g transform="translate(497.685937 269.796875) scale(0.1 -0.1)">
      <defs>
       <path id="DejaVuSans-4f" d="M 603 4863 
L 1178 4863 
L 1178 0 
L 603 0 
L 603 4863 
z
" transform="scale(0.015625)"/>
       <path id="DejaVuSans-2b" d="M 628 4666 
L 1259 4666 
L 1259 2753 
L 3553 2753 
L 3553 4666 
L 4184 4666 
L 4184 0 
L 3553 0 
L 3553 2222 
L 1259 2222 
L 1259 0 
L 628 0 
L 628 4666 
z
" transform="scale(0.015625)"/>
       <path id="DejaVuSans-32" d="M 2522 4238 
Q 1834 4238 1429 3725 
Q 1025 3213 1025 2328 
Q 1025 1447 1429 934 
Q 1834 422 2522 422 
Q 3209 422 3611 934 
Q 4013 1447 4013 2328 
Q 4013 3213 3611 3725 
Q 3209 4238 2522 4238 
z
M 2522 4750 
Q 3503 4750 4090 4092 
Q 4678 3434 4678 2328 
Q 4678 1225 4090 567 
Q 3503 -91 2522 -91 
Q 1538 -91 948 565 
Q 359 1222 359 2328 
Q 359 3434 948 4092 
Q 1538 4750 2522 4750 
z
" transform="scale(0.015625)"/>
       <path id="DejaVuSans-37" d="M -19 4666 
L 3928 4666 
L 3928 4134 
L 2272 4134 
L 2272 0 
L 1638 0 
L 1638 4134 
L -19 4134 
L -19 4666 
z
" transform="scale(0.015625)"/>
      </defs>
      <use xlink:href="#DejaVuSans-4f"/>
      <use xlink:href="#DejaVuSans-52" transform="translate(27.78125 0)"/>
      <use xlink:href="#DejaVuSans-4a" transform="translate(88.96875 0)"/>
      <use xlink:href="#DejaVuSans-3" transform="translate(152.453125 0)"/>
      <use xlink:href="#DejaVuSans-36" transform="translate(184.234375 0)"/>
      <use xlink:href="#DejaVuSans-2b" transform="translate(247.71875 0)"/>
      <use xlink:href="#DejaVuSans-32" transform="translate(322.921875 0)"/>
      <use xlink:href="#DejaVuSans-33" transform="translate(401.640625 0)"/>
      <use xlink:href="#DejaVuSans-11" transform="translate(446.359375 0)"/>
      <use xlink:href="#DejaVuSans-37" transform="translate(478.140625 0)"/>
      <use xlink:href="#DejaVuSans-32" transform="translate(539.21875 0)"/>
     </g>
    </g>
    <g id="line2d_18">
     <path d="M 469.685937 281.297656 
L 479.685937 281.297656 
L 489.685937 281.297656 
" style="fill: none; stroke: #ff7f0e; stroke-width: 1.5; stroke-linecap: square"/>
    </g>
    <g id="text_18">
     <!-- log SHOP adjusted to CAD -->
     <g transform="translate(497.685937 284.797656) scale(0.1 -0.1)">
      <defs>
       <path id="DejaVuSans-44" d="M 2194 1759 
Q 1497 1759 1228 1600 
Q 959 1441 959 1056 
Q 959 750 1161 570 
Q 1363 391 1709 391 
Q 2188 391 2477 730 
Q 2766 1069 2766 1631 
L 2766 1759 
L 2194 1759 
z
M 3341 1997 
L 3341 0 
L 2766 0 
L 2766 531 
Q 2569 213 2275 61 
Q 1981 -91 1556 -91 
Q 1019 -91 701 211 
Q 384 513 384 1019 
Q 384 1609 779 1909 
Q 1175 2209 1959 2209 
L 2766 2209 
L 2766 2266 
Q 2766 2663 2505 2880 
Q 2244 3097 1772 3097 
Q 1472 3097 1187 3025 
Q 903 2953 641 2809 
L 641 3341 
Q 956 3463 1253 3523 
Q 1550 3584 1831 3584 
Q 2591 3584 2966 3190 
Q 3341 2797 3341 1997 
z
" transform="scale(0.015625)"/>
       <path id="DejaVuSans-47" d="M 2906 2969 
L 2906 4863 
L 3481 4863 
L 3481 0 
L 2906 0 
L 2906 525 
Q 2725 213 2448 61 
Q 2172 -91 1784 -91 
Q 1150 -91 751 415 
Q 353 922 353 1747 
Q 353 2572 751 3078 
Q 1150 3584 1784 3584 
Q 2172 3584 2448 3432 
Q 2725 3281 2906 2969 
z
M 947 1747 
Q 947 1113 1208 752 
Q 1469 391 1925 391 
Q 2381 391 2643 752 
Q 2906 1113 2906 1747 
Q 2906 2381 2643 2742 
Q 2381 3103 1925 3103 
Q 1469 3103 1208 2742 
Q 947 2381 947 1747 
z
" transform="scale(0.015625)"/>
       <path id="DejaVuSans-4d" d="M 603 3500 
L 1178 3500 
L 1178 -63 
Q 1178 -731 923 -1031 
Q 669 -1331 103 -1331 
L -116 -1331 
L -116 -844 
L 38 -844 
Q 366 -844 484 -692 
Q 603 -541 603 -63 
L 603 3500 
z
M 603 4863 
L 1178 4863 
L 1178 4134 
L 603 4134 
L 603 4863 
z
" transform="scale(0.015625)"/>
       <path id="DejaVuSans-58" d="M 544 1381 
L 544 3500 
L 1119 3500 
L 1119 1403 
Q 1119 906 1312 657 
Q 1506 409 1894 409 
Q 2359 409 2629 706 
Q 2900 1003 2900 1516 
L 2900 3500 
L 3475 3500 
L 3475 0 
L 2900 0 
L 2900 538 
Q 2691 219 2414 64 
Q 2138 -91 1772 -91 
Q 1169 -91 856 284 
Q 544 659 544 1381 
z
M 1991 3584 
L 1991 3584 
z
" transform="scale(0.015625)"/>
       <path id="DejaVuSans-57" d="M 1172 4494 
L 1172 3500 
L 2356 3500 
L 2356 3053 
L 1172 3053 
L 1172 1153 
Q 1172 725 1289 603 
Q 1406 481 1766 481 
L 2356 481 
L 2356 0 
L 1766 0 
Q 1100 0 847 248 
Q 594 497 594 1153 
L 594 3053 
L 172 3053 
L 172 3500 
L 594 3500 
L 594 4494 
L 1172 4494 
z
" transform="scale(0.015625)"/>
       <path id="DejaVuSans-26" d="M 4122 4306 
L 4122 3641 
Q 3803 3938 3442 4084 
Q 3081 4231 2675 4231 
Q 1875 4231 1450 3742 
Q 1025 3253 1025 2328 
Q 1025 1406 1450 917 
Q 1875 428 2675 428 
Q 3081 428 3442 575 
Q 3803 722 4122 1019 
L 4122 359 
Q 3791 134 3420 21 
Q 3050 -91 2638 -91 
Q 1578 -91 968 557 
Q 359 1206 359 2328 
Q 359 3453 968 4101 
Q 1578 4750 2638 4750 
Q 3056 4750 3426 4639 
Q 3797 4528 4122 4306 
z
" transform="scale(0.015625)"/>
       <path id="DejaVuSans-24" d="M 2188 4044 
L 1331 1722 
L 3047 1722 
L 2188 4044 
z
M 1831 4666 
L 2547 4666 
L 4325 0 
L 3669 0 
L 3244 1197 
L 1141 1197 
L 716 0 
L 50 0 
L 1831 4666 
z
" transform="scale(0.015625)"/>
       <path id="DejaVuSans-27" d="M 1259 4147 
L 1259 519 
L 2022 519 
Q 2988 519 3436 956 
Q 3884 1394 3884 2338 
Q 3884 3275 3436 3711 
Q 2988 4147 2022 4147 
L 1259 4147 
z
M 628 4666 
L 1925 4666 
Q 3281 4666 3915 4102 
Q 4550 3538 4550 2338 
Q 4550 1131 3912 565 
Q 3275 0 1925 0 
L 628 0 
L 628 4666 
z
" transform="scale(0.015625)"/>
      </defs>
      <use xlink:href="#DejaVuSans-4f"/>
      <use xlink:href="#DejaVuSans-52" transform="translate(27.78125 0)"/>
      <use xlink:href="#DejaVuSans-4a" transform="translate(88.96875 0)"/>
      <use xlink:href="#DejaVuSans-3" transform="translate(152.453125 0)"/>
      <use xlink:href="#DejaVuSans-36" transform="translate(184.234375 0)"/>
      <use xlink:href="#DejaVuSans-2b" transform="translate(247.71875 0)"/>
      <use xlink:href="#DejaVuSans-32" transform="translate(322.921875 0)"/>
      <use xlink:href="#DejaVuSans-33" transform="translate(401.640625 0)"/>
      <use xlink:href="#DejaVuSans-3" transform="translate(461.9375 0)"/>
      <use xlink:href="#DejaVuSans-44" transform="translate(493.71875 0)"/>
      <use xlink:href="#DejaVuSans-47" transform="translate(555 0)"/>
      <use xlink:href="#DejaVuSans-4d" transform="translate(618.484375 0)"/>
      <use xlink:href="#DejaVuSans-58" transform="translate(646.265625 0)"/>
      <use xlink:href="#DejaVuSans-56" transform="translate(709.640625 0)"/>
      <use xlink:href="#DejaVuSans-57" transform="translate(761.734375 0)"/>
      <use xlink:href="#DejaVuSans-48" transform="translate(800.9375 0)"/>
      <use xlink:href="#DejaVuSans-47" transform="translate(862.46875 0)"/>
      <use xlink:href="#DejaVuSans-3" transform="translate(925.953125 0)"/>
      <use xlink:href="#DejaVuSans-57" transform="translate(957.734375 0)"/>
      <use xlink:href="#DejaVuSans-52" transform="translate(996.9375 0)"/>
      <use xlink:href="#DejaVuSans-3" transform="translate(1058.125 0)"/>
      <use xlink:href="#DejaVuSans-26" transform="translate(1089.90625 0)"/>
      <use xlink:href="#DejaVuSans-24" transform="translate(1159.734375 0)"/>
      <use xlink:href="#DejaVuSans-27" transform="translate(1228.140625 0)"/>
     </g>
    </g>
   </g>
  </g>
 </g>
 <defs>
  <clipPath id="p20a262d4be">
   <rect x="54.48" y="25.917188" width="582.72" height="270.282812"/>
  </clipPath>
 </defs>
</svg>
