<?xml version="1.0" encoding="utf-8" standalone="no"?>
<!DOCTYPE svg PUBLIC "-//W3C//DTD SVG 1.1//EN"
  "http://www.w3.org/Graphics/SVG/1.1/DTD/svg11.dtd">
<svg xmlns:xlink="http://www.w3.org/1999/xlink" width="648pt" height="324pt" viewBox="0 0 648 324" xmlns="http://www.w3.org/2000/svg" version="1.1">
 <metadata>
  <rdf:RDF xmlns:dc="http://purl.org/dc/elements/1.1/" xmlns:cc="http://creativecommons.org/ns#" xmlns:rdf="http://www.w3.org/1999/02/22-rdf-syntax-ns#">
   <cc:Work>
    <dc:type rdf:resource="http://purl.org/dc/dcmitype/StillImage"/>
    <dc:date>2026-06-25T23:15:37.664507</dc:date>
    <dc:format>image/svg+xml</dc:format>
    <dc:creator>
     <cc:Agent>
      <dc:title>Matplotlib v3.11.0, https://matplotlib.org/</dc:title>
     </cc:Agent>
    </dc:creator>
   </cc:Work>
  </rdf:RDF>
 </metadata>
 <defs>
  <style type="text/css">*{stroke-linejoin: round; stroke-linecap: butt}</style>
 </defs>
 <g id="figure_1">
  <g id="patch_1">
   <path d="M 0 324 
L 648 324 
L 648 0 
L 0 0 
z
" style="fill: #ffffff"/>
  </g>
  <g id="axes_1">
   <g id="patch_2">
    <path d="M 62.76 296.2 
L 637.2 296.2 
L 637.2 25.917188 
L 62.76 25.917188 
z
" style="fill: #ffffff"/>
   </g>
   <g id="matplotlib.axis_1">
    <g id="xtick_1">
     <g id="line2d_1">
      <defs>
       <path id="ma04a5ff194" d="M 0 0 
L 0 3.5 
" style="stroke: #000000; stroke-width: 0.8"/>
      </defs>
      <g>
       <use xlink:href="#ma04a5ff194" x="145.528005" y="296.2" style="stroke: #000000; stroke-width: 0.8"/>
      </g>
     </g>
     <g id="text_1">
      <!-- 2022 -->
      <g transform="translate(132.803005 310.797656) scale(0.1 -0.1)">
       <defs>
        <path id="DejaVuSans-15" d="M 1228 531 
L 3431 531 
L 3431 0 
L 469 0 
L 469 531 
Q 828 903 1448 1529 
Q 2069 2156 2228 2338 
Q 2531 2678 2651 2914 
Q 2772 3150 2772 3378 
Q 2772 3750 2511 3984 
Q 2250 4219 1831 4219 
Q 1534 4219 1204 4116 
Q 875 4013 500 3803 
L 500 4441 
Q 881 4594 1212 4672 
Q 1544 4750 1819 4750 
Q 2544 4750 2975 4387 
Q 3406 4025 3406 3419 
Q 3406 3131 3298 2873 
Q 3191 2616 2906 2266 
Q 2828 2175 2409 1742 
Q 1991 1309 1228 531 
z
" transform="scale(0.015625)"/>
        <path id="DejaVuSans-13" d="M 2034 4250 
Q 1547 4250 1301 3770 
Q 1056 3291 1056 2328 
Q 1056 1369 1301 889 
Q 1547 409 2034 409 
Q 2525 409 2770 889 
Q 3016 1369 3016 2328 
Q 3016 3291 2770 3770 
Q 2525 4250 2034 4250 
z
M 2034 4750 
Q 2819 4750 3233 4129 
Q 3647 3509 3647 2328 
Q 3647 1150 3233 529 
Q 2819 -91 2034 -91 
Q 1250 -91 836 529 
Q 422 1150 422 2328 
Q 422 3509 836 4129 
Q 1250 4750 2034 4750 
z
" transform="scale(0.015625)"/>
       </defs>
       <use xlink:href="#DejaVuSans-15"/>
       <use xlink:href="#DejaVuSans-13" transform="translate(63.625 0)"/>
       <use xlink:href="#DejaVuSans-15" transform="translate(127.25 0)"/>
       <use xlink:href="#DejaVuSans-15" transform="translate(190.875 0)"/>
      </g>
     </g>
    </g>
    <g id="xtick_2">
     <g id="line2d_2">
      <g>
       <use xlink:href="#ma04a5ff194" x="249.971641" y="296.2" style="stroke: #000000; stroke-width: 0.8"/>
      </g>
     </g>
     <g id="text_2">
      <!-- 2023 -->
      <g transform="translate(237.246641 310.797656) scale(0.1 -0.1)">
       <defs>
        <path id="DejaVuSans-16" d="M 2597 2516 
Q 3050 2419 3304 2112 
Q 3559 1806 3559 1356 
Q 3559 666 3084 287 
Q 2609 -91 1734 -91 
Q 1441 -91 1130 -33 
Q 819 25 488 141 
L 488 750 
Q 750 597 1062 519 
Q 1375 441 1716 441 
Q 2309 441 2620 675 
Q 2931 909 2931 1356 
Q 2931 1769 2642 2001 
Q 2353 2234 1838 2234 
L 1294 2234 
L 1294 2753 
L 1863 2753 
Q 2328 2753 2575 2939 
Q 2822 3125 2822 3475 
Q 2822 3834 2567 4026 
Q 2313 4219 1838 4219 
Q 1578 4219 1281 4162 
Q 984 4106 628 3988 
L 628 4550 
Q 988 4650 1302 4700 
Q 1616 4750 1894 4750 
Q 2613 4750 3031 4423 
Q 3450 4097 3450 3541 
Q 3450 3153 3228 2886 
Q 3006 2619 2597 2516 
z
" transform="scale(0.015625)"/>
       </defs>
       <use xlink:href="#DejaVuSans-15"/>
       <use xlink:href="#DejaVuSans-13" transform="translate(63.625 0)"/>
       <use xlink:href="#DejaVuSans-15" transform="translate(127.25 0)"/>
       <use xlink:href="#DejaVuSans-16" transform="translate(190.875 0)"/>
      </g>
     </g>
    </g>
    <g id="xtick_3">
     <g id="line2d_3">
      <g>
       <use xlink:href="#ma04a5ff194" x="354.415278" y="296.2" style="stroke: #000000; stroke-width: 0.8"/>
      </g>
     </g>
     <g id="text_3">
      <!-- 2024 -->
      <g transform="translate(341.690278 310.797656) scale(0.1 -0.1)">
       <defs>
        <path id="DejaVuSans-17" d="M 2419 4116 
L 825 1625 
L 2419 1625 
L 2419 4116 
z
M 2253 4666 
L 3047 4666 
L 3047 1625 
L 3713 1625 
L 3713 1100 
L 3047 1100 
L 3047 0 
L 2419 0 
L 2419 1100 
L 313 1100 
L 313 1709 
L 2253 4666 
z
" transform="scale(0.015625)"/>
       </defs>
       <use xlink:href="#DejaVuSans-15"/>
       <use xlink:href="#DejaVuSans-13" transform="translate(63.625 0)"/>
       <use xlink:href="#DejaVuSans-15" transform="translate(127.25 0)"/>
       <use xlink:href="#DejaVuSans-17" transform="translate(190.875 0)"/>
      </g>
     </g>
    </g>
    <g id="xtick_4">
     <g id="line2d_4">
      <g>
       <use xlink:href="#ma04a5ff194" x="459.145061" y="296.2" style="stroke: #000000; stroke-width: 0.8"/>
      </g>
     </g>
     <g id="text_4">
      <!-- 2025 -->
      <g transform="translate(446.420061 310.797656) scale(0.1 -0.1)">
       <defs>
        <path id="DejaVuSans-18" d="M 691 4666 
L 3169 4666 
L 3169 4134 
L 1269 4134 
L 1269 2991 
Q 1406 3038 1543 3061 
Q 1681 3084 1819 3084 
Q 2600 3084 3056 2656 
Q 3513 2228 3513 1497 
Q 3513 744 3044 326 
Q 2575 -91 1722 -91 
Q 1428 -91 1123 -41 
Q 819 9 494 109 
L 494 744 
Q 775 591 1075 516 
Q 1375 441 1709 441 
Q 2250 441 2565 725 
Q 2881 1009 2881 1497 
Q 2881 1984 2565 2268 
Q 2250 2553 1709 2553 
Q 1456 2553 1204 2497 
Q 953 2441 691 2322 
L 691 4666 
z
" transform="scale(0.015625)"/>
       </defs>
       <use xlink:href="#DejaVuSans-15"/>
       <use xlink:href="#DejaVuSans-13" transform="translate(63.625 0)"/>
       <use xlink:href="#DejaVuSans-15" transform="translate(127.25 0)"/>
       <use xlink:href="#DejaVuSans-18" transform="translate(190.875 0)"/>
      </g>
     </g>
    </g>
    <g id="xtick_5">
     <g id="line2d_5">
      <g>
       <use xlink:href="#ma04a5ff194" x="563.588697" y="296.2" style="stroke: #000000; stroke-width: 0.8"/>
      </g>
     </g>
     <g id="text_5">
      <!-- 2026 -->
      <g transform="translate(550.863697 310.797656) scale(0.1 -0.1)">
       <defs>
        <path id="DejaVuSans-19" d="M 2113 2584 
Q 1688 2584 1439 2293 
Q 1191 2003 1191 1497 
Q 1191 994 1439 701 
Q 1688 409 2113 409 
Q 2538 409 2786 701 
Q 3034 994 3034 1497 
Q 3034 2003 2786 2293 
Q 2538 2584 2113 2584 
z
M 3366 4563 
L 3366 3988 
Q 3128 4100 2886 4159 
Q 2644 4219 2406 4219 
Q 1781 4219 1451 3797 
Q 1122 3375 1075 2522 
Q 1259 2794 1537 2939 
Q 1816 3084 2150 3084 
Q 2853 3084 3261 2657 
Q 3669 2231 3669 1497 
Q 3669 778 3244 343 
Q 2819 -91 2113 -91 
Q 1303 -91 875 529 
Q 447 1150 447 2328 
Q 447 3434 972 4092 
Q 1497 4750 2381 4750 
Q 2619 4750 2861 4703 
Q 3103 4656 3366 4563 
z
" transform="scale(0.015625)"/>
       </defs>
       <use xlink:href="#DejaVuSans-15"/>
       <use xlink:href="#DejaVuSans-13" transform="translate(63.625 0)"/>
       <use xlink:href="#DejaVuSans-15" transform="translate(127.25 0)"/>
       <use xlink:href="#DejaVuSans-19" transform="translate(190.875 0)"/>
      </g>
     </g>
    </g>
   </g>
   <g id="matplotlib.axis_2">
    <g id="ytick_1">
     <g id="line2d_6">
      <defs>
       <path id="mfaf17ceccc" d="M 0 0 
L -3.5 0 
" style="stroke: #000000; stroke-width: 0.8"/>
      </defs>
      <g>
       <use xlink:href="#mfaf17ceccc" x="62.76" y="289.370747" style="stroke: #000000; stroke-width: 0.8"/>
      </g>
     </g>
     <g id="text_6">
      <!-- −0.14 -->
      <g transform="translate(25.114688 293.169575) scale(0.1 -0.1)">
       <defs>
        <path id="DejaVuSans-c9c" d="M 678 2272 
L 4684 2272 
L 4684 1741 
L 678 1741 
L 678 2272 
z
" transform="scale(0.015625)"/>
        <path id="DejaVuSans-11" d="M 684 794 
L 1344 794 
L 1344 0 
L 684 0 
L 684 794 
z
" transform="scale(0.015625)"/>
        <path id="DejaVuSans-14" d="M 794 531 
L 1825 531 
L 1825 4091 
L 703 3866 
L 703 4441 
L 1819 4666 
L 2450 4666 
L 2450 531 
L 3481 531 
L 3481 0 
L 794 0 
L 794 531 
z
" transform="scale(0.015625)"/>
       </defs>
       <use xlink:href="#DejaVuSans-c9c"/>
       <use xlink:href="#DejaVuSans-13" transform="translate(83.796875 0)"/>
       <use xlink:href="#DejaVuSans-11" transform="translate(147.421875 0)"/>
       <use xlink:href="#DejaVuSans-14" transform="translate(179.203125 0)"/>
       <use xlink:href="#DejaVuSans-17" transform="translate(242.828125 0)"/>
      </g>
     </g>
    </g>
    <g id="ytick_2">
     <g id="line2d_7">
      <g>
       <use xlink:href="#mfaf17ceccc" x="62.76" y="257.041331" style="stroke: #000000; stroke-width: 0.8"/>
      </g>
     </g>
     <g id="text_7">
      <!-- −0.12 -->
      <g transform="translate(25.114688 260.840159) scale(0.1 -0.1)">
       <use xlink:href="#DejaVuSans-c9c"/>
       <use xlink:href="#DejaVuSans-13" transform="translate(83.796875 0)"/>
       <use xlink:href="#DejaVuSans-11" transform="translate(147.421875 0)"/>
       <use xlink:href="#DejaVuSans-14" transform="translate(179.203125 0)"/>
       <use xlink:href="#DejaVuSans-15" transform="translate(242.828125 0)"/>
      </g>
     </g>
    </g>
    <g id="ytick_3">
     <g id="line2d_8">
      <g>
       <use xlink:href="#mfaf17ceccc" x="62.76" y="224.711916" style="stroke: #000000; stroke-width: 0.8"/>
      </g>
     </g>
     <g id="text_8">
      <!-- −0.10 -->
      <g transform="translate(25.114688 228.510744) scale(0.1 -0.1)">
       <use xlink:href="#DejaVuSans-c9c"/>
       <use xlink:href="#DejaVuSans-13" transform="translate(83.796875 0)"/>
       <use xlink:href="#DejaVuSans-11" transform="translate(147.421875 0)"/>
       <use xlink:href="#DejaVuSans-14" transform="translate(179.203125 0)"/>
       <use xlink:href="#DejaVuSans-13" transform="translate(242.828125 0)"/>
      </g>
     </g>
    </g>
    <g id="ytick_4">
     <g id="line2d_9">
      <g>
       <use xlink:href="#mfaf17ceccc" x="62.76" y="192.3825" style="stroke: #000000; stroke-width: 0.8"/>
      </g>
     </g>
     <g id="text_9">
      <!-- −0.08 -->
      <g transform="translate(25.114688 196.181328) scale(0.1 -0.1)">
       <defs>
        <path id="DejaVuSans-1b" d="M 2034 2216 
Q 1584 2216 1326 1975 
Q 1069 1734 1069 1313 
Q 1069 891 1326 650 
Q 1584 409 2034 409 
Q 2484 409 2743 651 
Q 3003 894 3003 1313 
Q 3003 1734 2745 1975 
Q 2488 2216 2034 2216 
z
M 1403 2484 
Q 997 2584 770 2862 
Q 544 3141 544 3541 
Q 544 4100 942 4425 
Q 1341 4750 2034 4750 
Q 2731 4750 3128 4425 
Q 3525 4100 3525 3541 
Q 3525 3141 3298 2862 
Q 3072 2584 2669 2484 
Q 3125 2378 3379 2068 
Q 3634 1759 3634 1313 
Q 3634 634 3220 271 
Q 2806 -91 2034 -91 
Q 1263 -91 848 271 
Q 434 634 434 1313 
Q 434 1759 690 2068 
Q 947 2378 1403 2484 
z
M 1172 3481 
Q 1172 3119 1398 2916 
Q 1625 2713 2034 2713 
Q 2441 2713 2670 2916 
Q 2900 3119 2900 3481 
Q 2900 3844 2670 4047 
Q 2441 4250 2034 4250 
Q 1625 4250 1398 4047 
Q 1172 3844 1172 3481 
z
" transform="scale(0.015625)"/>
       </defs>
       <use xlink:href="#DejaVuSans-c9c"/>
       <use xlink:href="#DejaVuSans-13" transform="translate(83.796875 0)"/>
       <use xlink:href="#DejaVuSans-11" transform="translate(147.421875 0)"/>
       <use xlink:href="#DejaVuSans-13" transform="translate(179.203125 0)"/>
       <use xlink:href="#DejaVuSans-1b" transform="translate(242.828125 0)"/>
      </g>
     </g>
    </g>
    <g id="ytick_5">
     <g id="line2d_10">
      <g>
       <use xlink:href="#mfaf17ceccc" x="62.76" y="160.053084" style="stroke: #000000; stroke-width: 0.8"/>
      </g>
     </g>
     <g id="text_10">
      <!-- −0.06 -->
      <g transform="translate(25.114688 163.851912) scale(0.1 -0.1)">
       <use xlink:href="#DejaVuSans-c9c"/>
       <use xlink:href="#DejaVuSans-13" transform="translate(83.796875 0)"/>
       <use xlink:href="#DejaVuSans-11" transform="translate(147.421875 0)"/>
       <use xlink:href="#DejaVuSans-13" transform="translate(179.203125 0)"/>
       <use xlink:href="#DejaVuSans-19" transform="translate(242.828125 0)"/>
      </g>
     </g>
    </g>
    <g id="ytick_6">
     <g id="line2d_11">
      <g>
       <use xlink:href="#mfaf17ceccc" x="62.76" y="127.723668" style="stroke: #000000; stroke-width: 0.8"/>
      </g>
     </g>
     <g id="text_11">
      <!-- −0.04 -->
      <g transform="translate(25.114688 131.522496) scale(0.1 -0.1)">
       <use xlink:href="#DejaVuSans-c9c"/>
       <use xlink:href="#DejaVuSans-13" transform="translate(83.796875 0)"/>
       <use xlink:href="#DejaVuSans-11" transform="translate(147.421875 0)"/>
       <use xlink:href="#DejaVuSans-13" transform="translate(179.203125 0)"/>
       <use xlink:href="#DejaVuSans-17" transform="translate(242.828125 0)"/>
      </g>
     </g>
    </g>
    <g id="ytick_7">
     <g id="line2d_12">
      <g>
       <use xlink:href="#mfaf17ceccc" x="62.76" y="95.394252" style="stroke: #000000; stroke-width: 0.8"/>
      </g>
     </g>
     <g id="text_12">
      <!-- −0.02 -->
      <g transform="translate(25.114688 99.193081) scale(0.1 -0.1)">
       <use xlink:href="#DejaVuSans-c9c"/>
       <use xlink:href="#DejaVuSans-13" transform="translate(83.796875 0)"/>
       <use xlink:href="#DejaVuSans-11" transform="translate(147.421875 0)"/>
       <use xlink:href="#DejaVuSans-13" transform="translate(179.203125 0)"/>
       <use xlink:href="#DejaVuSans-15" transform="translate(242.828125 0)"/>
      </g>
     </g>
    </g>
    <g id="ytick_8">
     <g id="line2d_13">
      <g>
       <use xlink:href="#mfaf17ceccc" x="62.76" y="63.064837" style="stroke: #000000; stroke-width: 0.8"/>
      </g>
     </g>
     <g id="text_13">
      <!-- 0.00 -->
      <g transform="translate(33.494375 66.863665) scale(0.1 -0.1)">
       <use xlink:href="#DejaVuSans-13"/>
       <use xlink:href="#DejaVuSans-11" transform="translate(63.625 0)"/>
       <use xlink:href="#DejaVuSans-13" transform="translate(95.40625 0)"/>
       <use xlink:href="#DejaVuSans-13" transform="translate(159.03125 0)"/>
      </g>
     </g>
    </g>
    <g id="ytick_9">
     <g id="line2d_14">
      <g>
       <use xlink:href="#mfaf17ceccc" x="62.76" y="30.735421" style="stroke: #000000; stroke-width: 0.8"/>
      </g>
     </g>
     <g id="text_14">
      <!-- 0.02 -->
      <g transform="translate(33.494375 34.534249) scale(0.1 -0.1)">
       <use xlink:href="#DejaVuSans-13"/>
       <use xlink:href="#DejaVuSans-11" transform="translate(63.625 0)"/>
       <use xlink:href="#DejaVuSans-13" transform="translate(95.40625 0)"/>
       <use xlink:href="#DejaVuSans-15" transform="translate(159.03125 0)"/>
      </g>
     </g>
    </g>
    <g id="text_15">
     <!-- Residual -->
     <g transform="translate(18.712344 182.175) rotate(-90) scale(0.1 -0.1)">
      <defs>
       <path id="DejaVuSans-35" d="M 2841 2188 
Q 3044 2119 3236 1894 
Q 3428 1669 3622 1275 
L 4263 0 
L 3584 0 
L 2988 1197 
Q 2756 1666 2539 1819 
Q 2322 1972 1947 1972 
L 1259 1972 
L 1259 0 
L 628 0 
L 628 4666 
L 2053 4666 
Q 2853 4666 3247 4331 
Q 3641 3997 3641 3322 
Q 3641 2881 3436 2590 
Q 3231 2300 2841 2188 
z
M 1259 4147 
L 1259 2491 
L 2053 2491 
Q 2509 2491 2742 2702 
Q 2975 2913 2975 3322 
Q 2975 3731 2742 3939 
Q 2509 4147 2053 4147 
L 1259 4147 
z
" transform="scale(0.015625)"/>
       <path id="DejaVuSans-48" d="M 3597 1894 
L 3597 1613 
L 953 1613 
Q 991 1019 1311 708 
Q 1631 397 2203 397 
Q 2534 397 2845 478 
Q 3156 559 3463 722 
L 3463 178 
Q 3153 47 2828 -22 
Q 2503 -91 2169 -91 
Q 1331 -91 842 396 
Q 353 884 353 1716 
Q 353 2575 817 3079 
Q 1281 3584 2069 3584 
Q 2775 3584 3186 3129 
Q 3597 2675 3597 1894 
z
M 3022 2063 
Q 3016 2534 2758 2815 
Q 2500 3097 2075 3097 
Q 1594 3097 1305 2825 
Q 1016 2553 972 2059 
L 3022 2063 
z
" transform="scale(0.015625)"/>
       <path id="DejaVuSans-56" d="M 2834 3397 
L 2834 2853 
Q 2591 2978 2328 3040 
Q 2066 3103 1784 3103 
Q 1356 3103 1142 2972 
Q 928 2841 928 2578 
Q 928 2378 1081 2264 
Q 1234 2150 1697 2047 
L 1894 2003 
Q 2506 1872 2764 1633 
Q 3022 1394 3022 966 
Q 3022 478 2636 193 
Q 2250 -91 1575 -91 
Q 1294 -91 989 -36 
Q 684 19 347 128 
L 347 722 
Q 666 556 975 473 
Q 1284 391 1588 391 
Q 1994 391 2212 530 
Q 2431 669 2431 922 
Q 2431 1156 2273 1281 
Q 2116 1406 1581 1522 
L 1381 1569 
Q 847 1681 609 1914 
Q 372 2147 372 2553 
Q 372 3047 722 3315 
Q 1072 3584 1716 3584 
Q 2034 3584 2315 3537 
Q 2597 3491 2834 3397 
z
" transform="scale(0.015625)"/>
       <path id="DejaVuSans-4c" d="M 603 3500 
L 1178 3500 
L 1178 0 
L 603 0 
L 603 3500 
z
M 603 4863 
L 1178 4863 
L 1178 4134 
L 603 4134 
L 603 4863 
z
" transform="scale(0.015625)"/>
       <path id="DejaVuSans-47" d="M 2906 2969 
L 2906 4863 
L 3481 4863 
L 3481 0 
L 2906 0 
L 2906 525 
Q 2725 213 2448 61 
Q 2172 -91 1784 -91 
Q 1150 -91 751 415 
Q 353 922 353 1747 
Q 353 2572 751 3078 
Q 1150 3584 1784 3584 
Q 2172 3584 2448 3432 
Q 2725 3281 2906 2969 
z
M 947 1747 
Q 947 1113 1208 752 
Q 1469 391 1925 391 
Q 2381 391 2643 752 
Q 2906 1113 2906 1747 
Q 2906 2381 2643 2742 
Q 2381 3103 1925 3103 
Q 1469 3103 1208 2742 
Q 947 2381 947 1747 
z
" transform="scale(0.015625)"/>
       <path id="DejaVuSans-58" d="M 544 1381 
L 544 3500 
L 1119 3500 
L 1119 1403 
Q 1119 906 1312 657 
Q 1506 409 1894 409 
Q 2359 409 2629 706 
Q 2900 1003 2900 1516 
L 2900 3500 
L 3475 3500 
L 3475 0 
L 2900 0 
L 2900 538 
Q 2691 219 2414 64 
Q 2138 -91 1772 -91 
Q 1169 -91 856 284 
Q 544 659 544 1381 
z
M 1991 3584 
L 1991 3584 
z
" transform="scale(0.015625)"/>
       <path id="DejaVuSans-44" d="M 2194 1759 
Q 1497 1759 1228 1600 
Q 959 1441 959 1056 
Q 959 750 1161 570 
Q 1363 391 1709 391 
Q 2188 391 2477 730 
Q 2766 1069 2766 1631 
L 2766 1759 
L 2194 1759 
z
M 3341 1997 
L 3341 0 
L 2766 0 
L 2766 531 
Q 2569 213 2275 61 
Q 1981 -91 1556 -91 
Q 1019 -91 701 211 
Q 384 513 384 1019 
Q 384 1609 779 1909 
Q 1175 2209 1959 2209 
L 2766 2209 
L 2766 2266 
Q 2766 2663 2505 2880 
Q 2244 3097 1772 3097 
Q 1472 3097 1187 3025 
Q 903 2953 641 2809 
L 641 3341 
Q 956 3463 1253 3523 
Q 1550 3584 1831 3584 
Q 2591 3584 2966 3190 
Q 3341 2797 3341 1997 
z
" transform="scale(0.015625)"/>
       <path id="DejaVuSans-4f" d="M 603 4863 
L 1178 4863 
L 1178 0 
L 603 0 
L 603 4863 
z
" transform="scale(0.015625)"/>
      </defs>
      <use xlink:href="#DejaVuSans-35"/>
      <use xlink:href="#DejaVuSans-48" transform="translate(65 0)"/>
      <use xlink:href="#DejaVuSans-56" transform="translate(126.53125 0)"/>
      <use xlink:href="#DejaVuSans-4c" transform="translate(178.625 0)"/>
      <use xlink:href="#DejaVuSans-47" transform="translate(206.40625 0)"/>
      <use xlink:href="#DejaVuSans-58" transform="translate(269.890625 0)"/>
      <use xlink:href="#DejaVuSans-44" transform="translate(333.265625 0)"/>
      <use xlink:href="#DejaVuSans-4f" transform="translate(394.546875 0)"/>
     </g>
    </g>
   </g>
   <g id="line2d_15">
    <path d="M 88.870909 53.752049 
L 89.157056 54.895846 
L 90.015497 80.244365 
L 90.301644 76.890618 
L 90.587791 62.518979 
L 90.873938 60.508355 
L 91.160085 66.302477 
L 92.304672 54.83619 
L 93.163113 75.811536 
L 94.307701 47.69688 
L 94.593848 59.279618 
L 94.879995 53.167834 
L 95.166142 71.949158 
L 96.024583 61.828846 
L 96.31073 53.890328 
L 96.596877 64.915255 
L 96.883024 53.803983 
L 97.169171 60.229071 
L 98.027611 47.833319 
L 98.313758 70.448256 
L 98.599905 77.332672 
L 98.886052 63.386818 
L 99.172199 60.35065 
L 100.03064 63.978373 
L 100.316787 56.537982 
L 100.602934 68.231185 
L 100.889081 71.712275 
L 101.175228 58.416442 
L 102.319816 57.640753 
L 102.605963 61.062871 
L 102.89211 69.35902 
L 103.178257 55.771535 
L 104.036697 62.998967 
L 104.322844 68.600221 
L 104.895138 62.055921 
L 105.181285 64.064626 
L 106.039726 56.052149 
L 106.325873 56.23762 
L 106.61202 57.801927 
L 106.898167 42.10254 
L 107.184314 62.891793 
L 108.042755 83.661505 
L 108.328902 68.781797 
L 108.615049 64.789394 
L 108.901196 52.764771 
L 109.187342 70.373388 
L 110.045783 64.519668 
L 110.33193 59.960534 
L 110.618077 62.573377 
L 110.904224 73.380075 
L 111.190371 66.961104 
L 112.334959 47.76513 
L 112.907253 69.658147 
L 113.1934 61.148546 
L 114.051841 68.451847 
L 114.337988 60.383995 
L 114.624134 72.246265 
L 114.910281 56.497998 
L 115.196428 54.446677 
L 116.341016 60.353455 
L 116.91331 81.168449 
L 117.199457 63.432924 
L 118.057898 66.57893 
L 118.344045 57.774044 
L 118.630192 53.082274 
L 118.916339 72.652621 
L 119.202486 69.251978 
L 120.060927 68.548332 
L 120.347073 66.709396 
L 120.63322 63.384432 
L 120.919367 66.450366 
L 121.205514 74.308418 
L 122.350102 66.175403 
L 122.636249 67.712414 
L 122.922396 70.685378 
L 123.208543 62.885022 
L 124.066984 62.108416 
L 124.639278 66.484537 
L 124.925425 58.112568 
L 125.211572 62.883915 
L 126.070012 60.840248 
L 126.356159 62.879333 
L 126.642306 68.113209 
L 126.928453 65.343036 
L 127.2146 66.757943 
L 128.073041 64.877334 
L 128.359188 59.710099 
L 128.645335 66.842479 
L 128.931482 52.545294 
L 129.217629 63.346334 
L 130.07607 62.421822 
L 130.362217 62.721768 
L 130.934511 48.863924 
L 131.220658 68.439206 
L 132.079098 67.442537 
L 132.365245 57.014814 
L 132.651392 57.064745 
L 132.937539 64.714137 
L 133.223686 56.433064 
L 134.082127 55.785213 
L 134.368274 66.598897 
L 134.654421 66.855461 
L 135.226715 57.448054 
L 136.085156 58.4634 
L 136.371303 61.181548 
L 136.65745 55.922402 
L 136.943597 63.364016 
L 137.229743 61.223142 
L 138.088184 69.439247 
L 138.374331 76.713962 
L 138.660478 63.529134 
L 138.946625 56.783321 
L 139.232772 63.524572 
L 140.091213 49.77298 
L 140.37736 57.809248 
L 140.663507 69.546318 
L 140.949654 72.459292 
L 141.235801 49.938117 
L 142.094242 55.17666 
L 142.666535 76.017071 
L 142.952682 71.848558 
L 144.669564 65.345558 
L 144.955711 68.606301 
L 145.241858 76.028473 
L 146.386446 69.414239 
L 146.672593 61.668801 
L 147.244887 75.392315 
L 148.103328 59.671553 
L 148.389474 73.316802 
L 148.675621 72.396584 
L 148.961768 60.466465 
L 149.247915 60.406593 
L 150.392503 62.133214 
L 150.67865 61.693174 
L 150.964797 62.004553 
L 151.250944 52.195285 
L 152.109385 50.318714 
L 152.395532 59.055115 
L 152.681679 56.198144 
L 152.967826 51.952767 
L 153.253973 60.190492 
L 154.112413 67.834504 
L 154.39856 68.652497 
L 154.684707 65.97157 
L 154.970854 62.156563 
L 155.257001 52.447604 
L 156.115442 75.869133 
L 156.401589 58.337855 
L 156.687736 70.368783 
L 156.973883 59.57396 
L 157.26003 60.159327 
L 158.118471 62.439678 
L 158.404618 62.884304 
L 158.690765 82.95778 
L 158.976912 65.108395 
L 159.263059 58.820276 
L 160.407646 59.319746 
L 160.693793 65.139797 
L 160.97994 53.801073 
L 161.266087 76.999938 
L 162.124528 73.833179 
L 162.410675 53.502215 
L 162.696822 74.514798 
L 162.982969 58.519461 
L 164.127557 50.874302 
L 164.413704 52.225019 
L 164.699851 70.684534 
L 164.985998 65.60188 
L 165.272144 64.447478 
L 166.130585 52.791418 
L 166.416732 69.412152 
L 166.702879 74.822187 
L 166.989026 74.316612 
L 167.275173 283.914418 
L 168.133614 65.371804 
L 168.419761 68.233759 
L 168.705908 65.241958 
L 169.278202 71.449567 
L 170.136643 58.795901 
L 170.42279 66.562188 
L 170.708936 67.65264 
L 170.995083 60.265091 
L 171.28123 64.357185 
L 172.139671 69.270267 
L 172.425818 62.085177 
L 172.711965 58.204266 
L 172.998112 59.472902 
L 173.284259 66.187924 
L 174.1427 56.0886 
L 174.428847 63.313938 
L 174.714994 74.046931 
L 175.001141 55.383885 
L 176.145729 62.488789 
L 176.431875 60.351958 
L 176.718022 72.542638 
L 177.004169 52.927877 
L 177.290316 46.935282 
L 178.148757 63.430422 
L 178.434904 52.228648 
L 178.721051 61.763571 
L 179.007198 63.283638 
L 179.293345 54.806008 
L 180.151786 60.751582 
L 180.72408 76.049473 
L 181.010227 53.05446 
L 181.296374 57.489939 
L 182.154814 52.286801 
L 182.440961 61.464323 
L 182.727108 66.667441 
L 183.013255 53.488513 
L 183.299402 77.378665 
L 184.44399 68.104831 
L 184.730137 53.266705 
L 185.016284 71.811723 
L 185.302431 64.198566 
L 186.447019 60.537803 
L 187.019313 69.64884 
L 187.30546 70.768482 
L 188.450047 63.268423 
L 188.736194 62.327926 
L 189.022341 76.669912 
L 189.308488 61.591274 
L 190.166929 68.341808 
L 190.453076 71.995105 
L 190.739223 62.511319 
L 191.02537 45.259433 
L 191.311517 55.527456 
L 192.169958 53.001702 
L 192.456105 56.390936 
L 192.742252 70.719593 
L 193.028399 57.206556 
L 193.314545 54.527675 
L 194.459133 72.43488 
L 194.74528 60.615233 
L 195.031427 61.966158 
L 195.317574 74.102083 
L 196.462162 62.677653 
L 196.748309 62.035319 
L 197.034456 64.850955 
L 198.465191 40.043979 
L 198.751337 63.992823 
L 199.037484 71.423236 
L 199.323631 65.117164 
L 200.182072 57.750593 
L 200.468219 60.941355 
L 200.754366 70.916483 
L 201.040513 51.786502 
L 201.32666 75.170512 
L 202.185101 67.27491 
L 202.471248 77.79371 
L 202.757395 59.785472 
L 203.043542 64.218133 
L 203.329689 58.980424 
L 204.18813 75.199914 
L 204.474276 57.934845 
L 204.760423 70.748629 
L 205.04657 62.87758 
L 205.332717 63.604834 
L 206.477305 59.36481 
L 206.763452 69.332372 
L 207.335746 57.021502 
L 208.194187 75.35162 
L 208.480334 62.320072 
L 208.766481 77.004874 
L 209.052628 62.821591 
L 209.338775 64.350832 
L 210.197215 47.056701 
L 210.483362 71.05895 
L 210.769509 56.409225 
L 211.055656 59.804868 
L 211.341803 58.223328 
L 212.200244 59.42643 
L 212.486391 75.498136 
L 212.772538 62.126724 
L 213.058685 69.539372 
L 213.344832 52.741526 
L 214.203273 70.25426 
L 214.48942 51.190004 
L 214.775567 57.831586 
L 215.347861 65.37149 
L 216.492448 60.744372 
L 216.778595 69.327433 
L 217.064742 67.863673 
L 217.350889 71.696912 
L 218.20933 68.270222 
L 218.495477 38.20277 
L 218.781624 63.16894 
L 219.067771 54.614035 
L 219.353918 58.85039 
L 220.212359 65.671806 
L 220.498506 49.543263 
L 220.784653 53.245448 
L 221.0708 63.284417 
L 221.356946 48.927754 
L 222.215387 45.152275 
L 222.787681 74.444478 
L 223.073828 55.021107 
L 223.359975 48.448804 
L 224.218416 83.887481 
L 224.504563 77.308644 
L 224.79071 51.254361 
L 225.076857 46.241092 
L 225.363004 65.467093 
L 226.507592 63.346299 
L 226.793738 59.911463 
L 227.079885 70.138939 
L 227.366032 47.579906 
L 228.224473 78.17723 
L 228.51062 58.722524 
L 228.796767 58.523344 
L 229.082914 64.002411 
L 229.369061 81.488464 
L 230.227502 53.194241 
L 230.513649 72.584098 
L 231.085943 63.443311 
L 231.37209 57.693064 
L 232.230531 59.222984 
L 232.516677 61.032119 
L 232.802824 51.853855 
L 233.088971 60.050896 
L 233.375118 95.19364 
L 234.233559 65.744018 
L 234.519706 69.895994 
L 234.805853 51.449471 
L 235.092 87.941081 
L 235.378147 71.055098 
L 236.236588 56.566983 
L 236.522735 66.265823 
L 236.808882 56.62443 
L 237.095029 65.023555 
L 237.381176 54.537454 
L 238.239616 54.810347 
L 238.525763 71.853776 
L 238.81191 63.824144 
L 239.384204 59.923117 
L 240.242645 52.840363 
L 240.528792 52.919932 
L 240.814939 71.534412 
L 241.101086 61.376579 
L 241.387233 60.671972 
L 242.245674 45.436667 
L 242.817968 64.494385 
L 243.104115 71.348934 
L 243.390262 57.125305 
L 244.248702 67.663187 
L 244.534849 73.131668 
L 244.820996 64.175568 
L 245.107143 50.607771 
L 245.39329 60.171306 
L 246.251731 67.846078 
L 246.537878 66.699547 
L 246.824025 62.25805 
L 247.110172 61.955457 
L 247.396319 68.631441 
L 248.827054 54.435551 
L 249.1132 69.602698 
L 249.399347 64.703895 
L 250.543935 50.008775 
L 250.830082 86.599162 
L 251.116229 52.035343 
L 251.402376 76.951375 
L 252.260817 68.729706 
L 252.546964 59.635025 
L 252.833111 64.670466 
L 253.119258 72.186318 
L 253.405405 61.483494 
L 254.549993 64.710758 
L 254.836139 50.131685 
L 255.122286 66.045988 
L 255.408433 73.826959 
L 256.266874 62.984986 
L 256.553021 63.285752 
L 256.839168 62.680947 
L 257.125315 69.795404 
L 257.411462 64.268522 
L 258.269903 52.538911 
L 258.55605 72.76082 
L 259.414491 53.41972 
L 260.272932 58.051859 
L 260.559078 68.283996 
L 260.845225 56.42233 
L 261.131372 60.732879 
L 261.417519 76.542852 
L 262.27596 64.130464 
L 262.562107 63.423296 
L 262.848254 58.733935 
L 263.134401 56.859699 
L 263.420548 65.181996 
L 264.565136 53.895333 
L 265.13743 64.369167 
L 265.423577 56.607266 
L 266.282017 66.231408 
L 266.568164 53.947802 
L 266.854311 68.911256 
L 267.140458 63.428586 
L 267.426605 63.959461 
L 268.285046 62.166074 
L 268.571193 47.36029 
L 268.85734 59.040554 
L 269.143487 60.037029 
L 269.429634 64.02951 
L 270.288075 67.175041 
L 270.574222 71.186734 
L 270.860369 55.027688 
L 271.146516 68.052654 
L 271.432663 61.973798 
L 272.291103 69.795372 
L 272.57725 58.498488 
L 272.863397 62.186517 
L 273.149544 64.112623 
L 273.435691 62.823964 
L 274.294132 71.212229 
L 274.580279 70.368206 
L 274.866426 67.979474 
L 275.152573 68.041186 
L 275.43872 64.219084 
L 276.297161 73.864359 
L 276.583308 61.375415 
L 277.155601 59.278334 
L 278.300189 63.652923 
L 278.586336 67.338926 
L 278.872483 66.160764 
L 279.15863 76.073671 
L 279.444777 60.873645 
L 280.303218 60.308369 
L 280.589365 62.847409 
L 280.875512 55.574096 
L 281.161659 66.033775 
L 281.447806 56.405388 
L 282.306247 63.40638 
L 282.592394 51.78432 
L 283.164687 68.574857 
L 283.450834 69.774796 
L 284.309275 65.324797 
L 284.595422 55.39319 
L 284.881569 62.793323 
L 285.453863 79.882165 
L 286.312304 63.740464 
L 286.598451 62.341211 
L 286.884598 61.826247 
L 287.170745 47.877889 
L 287.456892 56.393943 
L 288.315333 72.010081 
L 288.601479 59.803223 
L 288.887626 66.669514 
L 289.173773 58.336283 
L 289.45992 62.489312 
L 290.604508 63.412965 
L 290.890655 51.951173 
L 291.462949 66.755741 
L 292.607537 63.653454 
L 292.893684 65.790673 
L 293.179831 78.473623 
L 293.465978 65.825188 
L 294.324418 61.602607 
L 294.610565 68.462278 
L 294.896712 66.24234 
L 295.182859 65.543057 
L 295.469006 65.71284 
L 296.327447 58.749866 
L 296.613594 69.610481 
L 296.899741 61.095006 
L 297.185888 75.464542 
L 297.472035 64.092707 
L 298.616623 60.775345 
L 298.90277 71.040463 
L 299.475064 58.695448 
L 300.333504 65.821226 
L 300.619651 59.645087 
L 300.905798 56.616169 
L 301.191945 64.190368 
L 301.478092 63.074167 
L 302.908827 56.774977 
L 303.194974 53.684092 
L 303.481121 73.873826 
L 304.339562 63.312155 
L 304.625709 67.902484 
L 304.911856 69.360716 
L 305.198002 72.740239 
L 305.484149 49.279601 
L 306.34259 67.081063 
L 306.628737 67.60647 
L 306.914884 62.147963 
L 307.201031 62.206709 
L 307.487178 57.440514 
L 308.345619 70.078318 
L 308.631766 63.578524 
L 309.20406 59.661731 
L 310.348648 72.044972 
L 310.634795 51.951436 
L 310.920941 52.76554 
L 311.207088 61.30145 
L 311.493235 59.816341 
L 312.637823 59.343521 
L 312.92397 63.49774 
L 313.210117 60.509244 
L 313.496264 64.006491 
L 314.354705 60.704274 
L 314.640852 58.837724 
L 314.926999 58.053835 
L 315.213146 63.183994 
L 315.499293 63.574557 
L 316.357733 62.921681 
L 316.64388 60.893008 
L 316.930027 64.410464 
L 317.216174 56.752076 
L 317.502321 61.248785 
L 318.360762 61.630773 
L 318.646909 67.702657 
L 319.219203 65.441556 
L 319.50535 52.685246 
L 320.649938 58.654037 
L 320.936085 62.835752 
L 321.222232 58.120975 
L 321.508379 67.857089 
L 322.366819 68.80061 
L 322.652966 64.128707 
L 322.939113 62.717484 
L 323.22526 66.988921 
L 323.511407 51.616904 
L 324.369848 66.484921 
L 324.655995 68.913333 
L 324.942142 60.267079 
L 325.228289 62.695313 
L 325.514436 62.88442 
L 326.372877 65.826909 
L 326.659024 55.295272 
L 326.945171 64.963789 
L 327.231318 64.613679 
L 327.517465 52.217746 
L 328.375905 51.678637 
L 328.662052 59.666357 
L 328.948199 60.286886 
L 329.234346 68.581222 
L 329.520493 69.33673 
L 330.951228 62.653218 
L 331.237375 51.583754 
L 331.523522 66.120633 
L 332.381963 67.303898 
L 332.66811 60.284238 
L 332.954257 57.608469 
L 333.240403 63.11023 
L 333.52655 64.523027 
L 334.384991 64.186017 
L 334.671138 58.847923 
L 334.957285 57.149745 
L 335.243432 61.510494 
L 335.529579 57.255144 
L 336.38802 68.275506 
L 336.674167 57.861771 
L 337.246461 73.59534 
L 337.532608 72.042514 
L 338.677196 54.938172 
L 338.963342 59.68558 
L 339.249489 60.441872 
L 339.535636 63.971722 
L 340.394077 62.837452 
L 340.680224 75.326409 
L 341.252518 52.535831 
L 341.538665 65.445971 
L 342.397106 62.005395 
L 342.683253 66.189898 
L 342.9694 65.047319 
L 343.541694 64.929778 
L 344.400134 64.619461 
L 344.686281 66.659671 
L 344.972428 59.244708 
L 345.544722 70.109194 
L 346.403163 57.243905 
L 346.68931 56.858302 
L 346.975457 63.118547 
L 347.261604 61.537041 
L 347.547751 63.95143 
L 348.406192 63.536998 
L 348.692339 61.875584 
L 348.978486 73.341372 
L 349.264633 76.224927 
L 349.55078 62.909237 
L 350.40922 62.122569 
L 350.695367 70.772336 
L 350.981514 59.914954 
L 351.267661 72.733527 
L 351.553808 66.514209 
L 353.27069 60.570487 
L 353.556837 61.906428 
L 354.701425 53.220905 
L 354.987572 59.443168 
L 355.273719 61.676755 
L 355.559866 62.338245 
L 356.418306 63.997364 
L 356.704453 58.187014 
L 356.9906 65.365106 
L 357.276747 61.509386 
L 358.707482 55.657196 
L 358.993629 61.271568 
L 359.279776 64.476186 
L 359.565923 69.533854 
L 360.424364 56.631508 
L 360.710511 64.214892 
L 360.996658 54.286867 
L 361.282804 69.073344 
L 361.568951 66.874699 
L 362.427392 68.726921 
L 362.713539 64.73809 
L 362.999686 58.633348 
L 363.285833 69.421732 
L 363.57198 54.402065 
L 364.430421 55.488555 
L 364.716568 70.616022 
L 365.002715 66.260478 
L 365.575009 63.438963 
L 366.43345 64.074497 
L 366.719597 47.972274 
L 367.005743 65.923833 
L 367.29189 73.379983 
L 367.578037 61.110352 
L 368.722625 60.768319 
L 369.008772 65.587957 
L 369.294919 64.906088 
L 369.581066 61.174123 
L 370.439507 63.21184 
L 371.011801 58.061542 
L 371.297948 63.516013 
L 371.584095 64.908962 
L 372.442535 60.768776 
L 372.728682 60.96992 
L 373.014829 71.713569 
L 373.300976 69.723378 
L 373.587123 57.991662 
L 374.445564 63.714027 
L 374.731711 61.835584 
L 375.017858 66.440546 
L 375.304005 56.352847 
L 375.590152 62.925629 
L 376.448593 64.713386 
L 376.73474 59.572724 
L 377.020887 73.761186 
L 377.307034 56.60836 
L 377.593181 53.718895 
L 378.451621 67.450049 
L 378.737768 65.607653 
L 379.023915 64.604965 
L 379.310062 68.791232 
L 380.45465 57.046288 
L 380.740797 63.911719 
L 381.026944 67.131051 
L 381.313091 60.333579 
L 381.599238 58.323271 
L 382.457679 66.495908 
L 382.743826 63.856546 
L 383.029973 50.947523 
L 383.31612 64.630192 
L 383.602267 53.060522 
L 384.460707 60.585839 
L 384.746854 59.970866 
L 385.033001 68.516763 
L 385.319148 62.465906 
L 385.605295 65.382166 
L 386.463736 68.166555 
L 386.749883 68.248728 
L 387.03603 58.627112 
L 387.322177 69.428392 
L 387.608324 62.72378 
L 388.466765 62.657555 
L 388.752912 51.600775 
L 389.039059 65.84899 
L 389.325205 68.679216 
L 389.611352 61.888506 
L 390.469793 67.325843 
L 390.75594 57.123472 
L 391.328234 69.900807 
L 391.614381 64.303293 
L 392.758969 65.852423 
L 393.045116 68.759605 
L 393.331263 60.985297 
L 393.61741 64.707023 
L 394.761998 59.766921 
L 395.048144 56.685616 
L 395.334291 57.707047 
L 395.620438 71.06284 
L 396.765026 61.459856 
L 397.051173 55.704384 
L 397.33732 67.782666 
L 397.623467 69.097353 
L 398.481908 61.867613 
L 398.768055 58.266089 
L 399.340349 66.025922 
L 399.626496 52.879779 
L 401.05723 66.467064 
L 401.343377 61.29771 
L 401.629524 64.073568 
L 402.487965 63.91644 
L 402.774112 62.950592 
L 403.346406 65.991122 
L 403.632553 62.293838 
L 404.490994 68.923521 
L 405.063288 58.87498 
L 405.349435 63.827891 
L 405.635582 64.851587 
L 406.780169 71.062962 
L 407.066316 53.381727 
L 407.63861 61.589518 
L 408.497051 62.26554 
L 409.069345 64.916614 
L 409.355492 60.882993 
L 409.641639 61.869644 
L 410.50008 59.872141 
L 410.786227 64.010146 
L 411.358521 59.173295 
L 411.644667 59.473365 
L 412.503108 57.333834 
L 412.789255 60.878348 
L 413.075402 60.365489 
L 413.361549 61.361776 
L 413.647696 61.660885 
L 414.506137 60.594517 
L 415.078431 67.359138 
L 415.364578 57.19395 
L 415.650725 66.622965 
L 416.795313 69.907799 
L 417.367606 65.895928 
L 417.653753 64.474569 
L 418.512194 62.314748 
L 418.798341 67.199432 
L 419.084488 62.248977 
L 419.370635 61.640668 
L 419.656782 68.938276 
L 420.515223 68.790383 
L 420.80137 64.415021 
L 421.087517 65.711918 
L 421.373664 59.5654 
L 421.659811 74.084045 
L 422.518252 65.777236 
L 422.804399 67.886113 
L 423.090545 59.80571 
L 423.376692 61.151875 
L 423.662839 65.184241 
L 424.807427 56.83576 
L 425.093574 66.950838 
L 425.379721 62.926763 
L 425.665868 55.940301 
L 426.524309 63.50089 
L 426.810456 58.216085 
L 427.096603 67.93285 
L 427.38275 63.305469 
L 427.668897 62.139765 
L 428.527337 62.287024 
L 428.813484 61.584745 
L 429.099631 59.389438 
L 429.385778 68.762493 
L 429.671925 63.571201 
L 430.530366 69.933333 
L 430.816513 74.263538 
L 431.10266 55.678424 
L 431.388807 63.908763 
L 431.674954 57.908597 
L 432.533395 62.132653 
L 432.819542 65.635796 
L 433.105689 62.159083 
L 433.391836 56.569959 
L 433.677983 60.1174 
L 434.536423 57.768651 
L 434.82257 59.129652 
L 435.108717 55.98215 
L 435.394864 57.488772 
L 435.681011 61.057171 
L 436.825599 65.00384 
L 437.111746 67.465241 
L 437.397893 58.184759 
L 437.68404 61.526581 
L 438.542481 59.47051 
L 438.828628 64.978661 
L 439.114775 61.715099 
L 439.400922 61.642483 
L 439.687068 58.62124 
L 440.545509 63.682556 
L 440.831656 57.840103 
L 441.117803 64.438863 
L 441.40395 61.3205 
L 441.690097 60.751503 
L 442.548538 65.244679 
L 442.834685 70.329414 
L 443.120832 50.682228 
L 443.406979 72.243423 
L 443.693126 57.602553 
L 444.551567 60.686087 
L 444.837714 56.721984 
L 445.123861 56.329982 
L 445.410007 54.96552 
L 445.696154 60.037668 
L 446.554595 70.473601 
L 446.840742 70.806067 
L 447.126889 60.156483 
L 447.413036 62.542355 
L 447.699183 63.937712 
L 448.557624 57.066431 
L 448.843771 66.913255 
L 449.129918 66.999151 
L 450.560653 59.753712 
L 450.8468 59.426027 
L 451.132946 62.563395 
L 451.419093 68.21682 
L 451.70524 48.076865 
L 452.849828 63.088583 
L 453.135975 63.901517 
L 453.422122 53.307844 
L 453.708269 60.91274 
L 454.56671 59.601848 
L 454.852857 55.875201 
L 455.139004 49.208249 
L 455.425151 71.172283 
L 455.711298 65.463019 
L 456.569738 61.809869 
L 456.855885 51.938338 
L 457.714326 61.951702 
L 458.572767 68.339223 
L 458.858914 59.068126 
L 459.431208 59.836207 
L 459.717355 58.077838 
L 460.575796 76.085462 
L 460.861943 60.726835 
L 461.14809 60.620725 
L 461.720384 59.494162 
L 462.578824 65.783795 
L 462.864971 64.737 
L 463.151118 65.342569 
L 463.437265 55.418335 
L 463.723412 55.059561 
L 464.868 58.91072 
L 465.154147 58.453599 
L 465.440294 63.984363 
L 465.726441 67.114363 
L 466.584882 64.614281 
L 466.871029 62.787254 
L 467.443323 54.409921 
L 467.729469 60.198013 
L 468.58791 80.525027 
L 468.874057 74.046481 
L 469.160204 64.353547 
L 469.446351 61.276334 
L 469.732498 66.234582 
L 470.590939 66.072927 
L 470.877086 68.980473 
L 471.163233 63.744944 
L 471.44938 76.933968 
L 471.735527 65.435338 
L 472.880115 63.131828 
L 473.166262 58.616082 
L 473.452408 71.243604 
L 473.738555 56.851254 
L 474.596996 58.312091 
L 474.883143 59.428152 
L 475.16929 57.265431 
L 475.455437 51.377519 
L 475.741584 60.651499 
L 476.600025 56.703556 
L 476.886172 65.229907 
L 477.172319 70.335741 
L 477.458466 66.883816 
L 477.744613 54.921721 
L 478.603054 55.606569 
L 478.8892 65.314307 
L 479.175347 68.947205 
L 479.461494 55.781286 
L 479.747641 69.32257 
L 480.606082 72.433815 
L 480.892229 63.524029 
L 481.178376 59.924736 
L 481.464523 64.944553 
L 481.75067 60.225061 
L 482.609111 64.186235 
L 482.895258 67.391411 
L 483.181405 64.253995 
L 483.467552 62.655458 
L 483.753699 64.292788 
L 484.612139 60.149929 
L 484.898286 72.536102 
L 485.184433 59.702564 
L 485.47058 78.839114 
L 485.756727 46.386335 
L 486.615168 62.585901 
L 486.901315 62.289707 
L 487.187462 78.172261 
L 487.473609 78.14259 
L 487.759756 68.922994 
L 488.618197 63.245747 
L 488.904344 53.307046 
L 489.190491 71.800879 
L 489.476638 62.160103 
L 490.907372 64.737642 
L 491.193519 59.125828 
L 491.479666 65.886881 
L 491.765813 62.450857 
L 492.624254 69.870413 
L 492.910401 62.798167 
L 493.196548 66.320824 
L 493.482695 56.708439 
L 493.768842 68.325672 
L 494.627283 65.01278 
L 494.91343 69.064158 
L 495.199577 48.974211 
L 495.485724 53.044038 
L 495.77187 60.975202 
L 496.630311 55.446162 
L 496.916458 67.311653 
L 497.202605 57.588872 
L 497.488752 64.779756 
L 497.774899 59.608696 
L 498.919487 68.993286 
L 499.205634 69.098001 
L 499.491781 63.161798 
L 499.777928 76.827283 
L 500.922516 53.574117 
L 501.208663 59.458028 
L 501.780956 78.591682 
L 502.925544 63.10523 
L 503.211691 67.397183 
L 503.497838 65.000867 
L 503.783985 60.005131 
L 504.642426 63.779562 
L 504.928573 66.114906 
L 505.21472 63.346521 
L 505.500867 70.812602 
L 505.787014 63.921767 
L 506.645455 64.936253 
L 506.931601 54.811309 
L 507.217748 60.454273 
L 507.790042 57.757003 
L 508.648483 64.622209 
L 508.93463 63.924689 
L 509.220777 65.062782 
L 509.506924 72.079882 
L 509.793071 56.352652 
L 510.651512 71.133079 
L 511.223806 69.958326 
L 511.509953 53.475588 
L 512.65454 56.936184 
L 512.940687 60.418383 
L 513.226834 60.977295 
L 513.512981 64.972396 
L 513.799128 60.0231 
L 514.657569 61.325765 
L 514.943716 61.461681 
L 515.229863 68.059816 
L 515.51601 56.865388 
L 515.802157 65.041772 
L 516.660598 67.643688 
L 516.946745 70.38487 
L 517.805186 54.908156 
L 518.663626 59.987095 
L 518.949773 58.678545 
L 519.23592 54.730103 
L 519.522067 59.424277 
L 519.808214 70.409107 
L 520.952802 60.523971 
L 521.238949 67.003949 
L 521.811243 60.417413 
L 522.669684 59.114793 
L 522.955831 62.063857 
L 523.241978 62.432918 
L 523.528125 54.719456 
L 523.814271 61.785782 
L 524.672712 63.373996 
L 524.958859 56.063591 
L 525.245006 62.790685 
L 525.531153 59.189478 
L 525.8173 71.678085 
L 526.675741 58.891141 
L 526.961888 66.210877 
L 527.248035 67.386982 
L 527.534182 65.662792 
L 527.820329 65.634013 
L 528.964917 58.549366 
L 529.251064 61.624228 
L 529.53721 58.696631 
L 529.823357 59.269532 
L 530.681798 66.360503 
L 530.967945 55.542125 
L 531.540239 66.28533 
L 531.826386 62.160178 
L 532.684827 71.189544 
L 532.970974 66.722597 
L 533.257121 60.020133 
L 533.829415 61.990739 
L 534.687856 57.87711 
L 534.974002 61.90971 
L 535.260149 56.475642 
L 535.546296 58.283747 
L 535.832443 64.337375 
L 536.690884 65.014868 
L 536.977031 63.689498 
L 537.263178 60.467253 
L 537.549325 60.735453 
L 537.835472 63.832229 
L 538.693913 64.718639 
L 538.98006 62.001205 
L 539.266207 61.861492 
L 539.552354 54.779435 
L 539.838501 65.762567 
L 540.983088 61.705035 
L 541.269235 63.12339 
L 541.555382 61.957055 
L 541.841529 68.110144 
L 542.69997 59.823399 
L 542.986117 65.215252 
L 543.272264 67.391225 
L 543.844558 61.785723 
L 544.702999 61.934141 
L 544.989146 69.727005 
L 545.56144 57.166768 
L 545.847587 58.056473 
L 546.706027 59.418399 
L 546.992174 55.995524 
L 547.278321 56.973365 
L 547.564468 61.357234 
L 547.850615 69.759554 
L 548.709056 66.464103 
L 549.28135 63.17075 
L 549.567497 56.482598 
L 549.853644 63.740816 
L 550.712085 57.291189 
L 550.998232 71.692394 
L 551.284379 54.016834 
L 551.570526 55.991895 
L 551.856672 63.213506 
L 552.715113 61.546231 
L 553.00126 63.605322 
L 553.287407 69.300846 
L 553.859701 58.128533 
L 554.718142 58.85737 
L 555.004289 64.780794 
L 555.290436 66.064762 
L 555.576583 61.877472 
L 555.86273 78.329351 
L 556.721171 59.417767 
L 557.007318 60.895591 
L 557.293465 68.107989 
L 557.579611 65.208703 
L 557.865758 63.522494 
L 558.724199 62.251875 
L 559.010346 65.308131 
L 559.296493 59.351762 
L 559.58264 63.377482 
L 559.868787 62.007752 
L 560.727228 67.426467 
L 561.013375 69.960298 
L 561.299522 64.259874 
L 562.730257 60.560077 
L 563.016403 62.596765 
L 563.30255 59.217017 
L 563.874844 59.445393 
L 564.733285 59.21179 
L 565.019432 56.309953 
L 565.305579 57.953296 
L 565.591726 61.619087 
L 565.877873 56.256969 
L 566.736314 67.544233 
L 567.022461 62.6846 
L 567.308608 64.153311 
L 567.880902 58.561507 
L 569.025489 66.701892 
L 569.311636 63.85559 
L 569.597783 70.539604 
L 569.88393 72.106402 
L 570.742371 61.092899 
L 571.028518 78.148142 
L 571.314665 65.244846 
L 571.600812 71.061652 
L 571.886959 48.677782 
L 573.031547 62.714761 
L 573.317694 50.923684 
L 573.889988 69.557468 
L 574.748428 74.220284 
L 575.034575 63.596021 
L 575.320722 68.063683 
L 575.606869 59.905681 
L 575.893016 58.261049 
L 577.037604 63.652274 
L 577.323751 56.745811 
L 577.609898 62.864015 
L 577.896045 61.836552 
L 578.754486 57.326248 
L 579.040633 59.96512 
L 579.32678 65.21781 
L 579.612927 64.137758 
L 579.899073 67.662915 
L 580.757514 61.920602 
L 581.043661 62.770352 
L 581.329808 68.233089 
L 581.615955 60.24509 
L 581.902102 74.304128 
L 582.760543 64.840501 
L 583.04669 63.229611 
L 583.332837 62.945729 
L 583.618984 60.278727 
L 583.905131 51.800819 
L 584.763572 66.644393 
L 585.335866 57.149161 
L 585.622012 60.929314 
L 585.908159 61.027681 
L 586.7666 61.866368 
L 587.052747 59.755293 
L 587.338894 55.383238 
L 587.625041 58.392129 
L 587.911188 58.318817 
L 588.769629 58.966929 
L 589.055776 64.911178 
L 589.341923 64.127326 
L 589.62807 58.535948 
L 590.772658 66.346585 
L 591.058804 62.075403 
L 591.344951 63.099449 
L 591.631098 65.691799 
L 591.917245 59.085654 
L 592.775686 72.06182 
L 593.061833 64.737998 
L 593.34798 65.233514 
L 593.634127 65.072715 
L 593.920274 65.063723 
L 594.778715 69.278922 
L 595.064862 60.854364 
L 595.637156 59.071682 
L 595.923303 67.931337 
L 596.781743 67.238387 
L 597.06789 54.451127 
L 597.640184 70.416654 
L 597.926331 62.338246 
L 598.784772 62.855055 
L 599.070919 66.976903 
L 599.357066 54.027951 
L 599.643213 61.36316 
L 599.92936 64.978793 
L 600.787801 63.706971 
L 601.073948 59.816232 
L 601.360095 62.965403 
L 601.932389 59.678975 
L 603.076976 60.676894 
L 603.363123 63.834488 
L 603.935417 56.495937 
L 605.080005 62.45641 
L 605.366152 60.340972 
L 605.652299 71.798166 
L 605.938446 55.554489 
L 606.796887 59.302668 
L 607.083034 63.199933 
L 607.369181 55.955584 
L 607.655328 60.137648 
L 607.941474 58.478298 
L 608.799915 61.56844 
L 609.086062 63.130735 
L 609.372209 63.93032 
L 609.658356 61.818413 
L 609.944503 60.907483 
L 610.802944 61.3933 
L 611.089091 62.552109 
L 611.089091 62.552109 
" clip-path="url(#p539c9f8a5b)" style="fill: none; stroke: #1f77b4; stroke-width: 1.5; stroke-linecap: square"/>
   </g>
   <g id="line2d_16">
    <path d="M 62.76 63.064837 
L 637.2 63.064837 
" clip-path="url(#p539c9f8a5b)" style="fill: none; stroke: #000000; stroke-width: 0.8; stroke-linecap: square"/>
   </g>
   <g id="patch_3">
    <path d="M 62.76 296.2 
L 62.76 25.917187 
" style="fill: none; stroke: #000000; stroke-width: 0.8; stroke-linejoin: miter; stroke-linecap: square"/>
   </g>
   <g id="patch_4">
    <path d="M 637.2 296.2 
L 637.2 25.917187 
" style="fill: none; stroke: #000000; stroke-width: 0.8; stroke-linejoin: miter; stroke-linecap: square"/>
   </g>
   <g id="patch_5">
    <path d="M 62.76 296.2 
L 637.2 296.2 
" style="fill: none; stroke: #000000; stroke-width: 0.8; stroke-linejoin: miter; stroke-linecap: square"/>
   </g>
   <g id="patch_6">
    <path d="M 62.76 25.917188 
L 637.2 25.917188 
" style="fill: none; stroke: #000000; stroke-width: 0.8; stroke-linejoin: miter; stroke-linecap: square"/>
   </g>
   <g id="text_16">
    <!-- Estimated Log Spread -->
    <g transform="translate(284.007187 19.917188) scale(0.12 -0.12)">
     <defs>
      <path id="DejaVuSans-28" d="M 628 4666 
L 3578 4666 
L 3578 4134 
L 1259 4134 
L 1259 2753 
L 3481 2753 
L 3481 2222 
L 1259 2222 
L 1259 531 
L 3634 531 
L 3634 0 
L 628 0 
L 628 4666 
z
" transform="scale(0.015625)"/>
      <path id="DejaVuSans-57" d="M 1172 4494 
L 1172 3500 
L 2356 3500 
L 2356 3053 
L 1172 3053 
L 1172 1153 
Q 1172 725 1289 603 
Q 1406 481 1766 481 
L 2356 481 
L 2356 0 
L 1766 0 
Q 1100 0 847 248 
Q 594 497 594 1153 
L 594 3053 
L 172 3053 
L 172 3500 
L 594 3500 
L 594 4494 
L 1172 4494 
z
" transform="scale(0.015625)"/>
      <path id="DejaVuSans-50" d="M 3328 2828 
Q 3544 3216 3844 3400 
Q 4144 3584 4550 3584 
Q 5097 3584 5394 3201 
Q 5691 2819 5691 2113 
L 5691 0 
L 5113 0 
L 5113 2094 
Q 5113 2597 4934 2840 
Q 4756 3084 4391 3084 
Q 3944 3084 3684 2787 
Q 3425 2491 3425 1978 
L 3425 0 
L 2847 0 
L 2847 2094 
Q 2847 2600 2669 2842 
Q 2491 3084 2119 3084 
Q 1678 3084 1418 2786 
Q 1159 2488 1159 1978 
L 1159 0 
L 581 0 
L 581 3500 
L 1159 3500 
L 1159 2956 
Q 1356 3278 1631 3431 
Q 1906 3584 2284 3584 
Q 2666 3584 2933 3390 
Q 3200 3197 3328 2828 
z
" transform="scale(0.015625)"/>
      <path id="DejaVuSans-3" transform="scale(0.015625)"/>
      <path id="DejaVuSans-2f" d="M 628 4666 
L 1259 4666 
L 1259 531 
L 3531 531 
L 3531 0 
L 628 0 
L 628 4666 
z
" transform="scale(0.015625)"/>
      <path id="DejaVuSans-52" d="M 1959 3097 
Q 1497 3097 1228 2736 
Q 959 2375 959 1747 
Q 959 1119 1226 758 
Q 1494 397 1959 397 
Q 2419 397 2687 759 
Q 2956 1122 2956 1747 
Q 2956 2369 2687 2733 
Q 2419 3097 1959 3097 
z
M 1959 3584 
Q 2709 3584 3137 3096 
Q 3566 2609 3566 1747 
Q 3566 888 3137 398 
Q 2709 -91 1959 -91 
Q 1206 -91 779 398 
Q 353 888 353 1747 
Q 353 2609 779 3096 
Q 1206 3584 1959 3584 
z
" transform="scale(0.015625)"/>
      <path id="DejaVuSans-4a" d="M 2906 1791 
Q 2906 2416 2648 2759 
Q 2391 3103 1925 3103 
Q 1463 3103 1205 2759 
Q 947 2416 947 1791 
Q 947 1169 1205 825 
Q 1463 481 1925 481 
Q 2391 481 2648 825 
Q 2906 1169 2906 1791 
z
M 3481 434 
Q 3481 -459 3084 -895 
Q 2688 -1331 1869 -1331 
Q 1566 -1331 1297 -1286 
Q 1028 -1241 775 -1147 
L 775 -588 
Q 1028 -725 1275 -790 
Q 1522 -856 1778 -856 
Q 2344 -856 2625 -561 
Q 2906 -266 2906 331 
L 2906 616 
Q 2728 306 2450 153 
Q 2172 0 1784 0 
Q 1141 0 747 490 
Q 353 981 353 1791 
Q 353 2603 747 3093 
Q 1141 3584 1784 3584 
Q 2172 3584 2450 3431 
Q 2728 3278 2906 2969 
L 2906 3500 
L 3481 3500 
L 3481 434 
z
" transform="scale(0.015625)"/>
      <path id="DejaVuSans-36" d="M 3425 4513 
L 3425 3897 
Q 3066 4069 2747 4153 
Q 2428 4238 2131 4238 
Q 1616 4238 1336 4038 
Q 1056 3838 1056 3469 
Q 1056 3159 1242 3001 
Q 1428 2844 1947 2747 
L 2328 2669 
Q 3034 2534 3370 2195 
Q 3706 1856 3706 1288 
Q 3706 609 3251 259 
Q 2797 -91 1919 -91 
Q 1588 -91 1214 -16 
Q 841 59 441 206 
L 441 856 
Q 825 641 1194 531 
Q 1563 422 1919 422 
Q 2459 422 2753 634 
Q 3047 847 3047 1241 
Q 3047 1584 2836 1778 
Q 2625 1972 2144 2069 
L 1759 2144 
Q 1053 2284 737 2584 
Q 422 2884 422 3419 
Q 422 4038 858 4394 
Q 1294 4750 2059 4750 
Q 2388 4750 2728 4690 
Q 3069 4631 3425 4513 
z
" transform="scale(0.015625)"/>
      <path id="DejaVuSans-53" d="M 1159 525 
L 1159 -1331 
L 581 -1331 
L 581 3500 
L 1159 3500 
L 1159 2969 
Q 1341 3281 1617 3432 
Q 1894 3584 2278 3584 
Q 2916 3584 3314 3078 
Q 3713 2572 3713 1747 
Q 3713 922 3314 415 
Q 2916 -91 2278 -91 
Q 1894 -91 1617 61 
Q 1341 213 1159 525 
z
M 3116 1747 
Q 3116 2381 2855 2742 
Q 2594 3103 2138 3103 
Q 1681 3103 1420 2742 
Q 1159 2381 1159 1747 
Q 1159 1113 1420 752 
Q 1681 391 2138 391 
Q 2594 391 2855 752 
Q 3116 1113 3116 1747 
z
" transform="scale(0.015625)"/>
      <path id="DejaVuSans-55" d="M 2631 2963 
Q 2534 3019 2420 3045 
Q 2306 3072 2169 3072 
Q 1681 3072 1420 2755 
Q 1159 2438 1159 1844 
L 1159 0 
L 581 0 
L 581 3500 
L 1159 3500 
L 1159 2956 
Q 1341 3275 1631 3429 
Q 1922 3584 2338 3584 
Q 2397 3584 2469 3576 
Q 2541 3569 2628 3553 
L 2631 2963 
z
" transform="scale(0.015625)"/>
     </defs>
     <use xlink:href="#DejaVuSans-28"/>
     <use xlink:href="#DejaVuSans-56" transform="translate(63.1875 0)"/>
     <use xlink:href="#DejaVuSans-57" transform="translate(115.28125 0)"/>
     <use xlink:href="#DejaVuSans-4c" transform="translate(154.484375 0)"/>
     <use xlink:href="#DejaVuSans-50" transform="translate(182.265625 0)"/>
     <use xlink:href="#DejaVuSans-44" transform="translate(279.671875 0)"/>
     <use xlink:href="#DejaVuSans-57" transform="translate(340.953125 0)"/>
     <use xlink:href="#DejaVuSans-48" transform="translate(380.15625 0)"/>
     <use xlink:href="#DejaVuSans-47" transform="translate(441.6875 0)"/>
     <use xlink:href="#DejaVuSans-3" transform="translate(505.171875 0)"/>
     <use xlink:href="#DejaVuSans-2f" transform="translate(536.953125 0)"/>
     <use xlink:href="#DejaVuSans-52" transform="translate(590.921875 0)"/>
     <use xlink:href="#DejaVuSans-4a" transform="translate(652.109375 0)"/>
     <use xlink:href="#DejaVuSans-3" transform="translate(715.59375 0)"/>
     <use xlink:href="#DejaVuSans-36" transform="translate(747.375 0)"/>
     <use xlink:href="#DejaVuSans-53" transform="translate(810.859375 0)"/>
     <use xlink:href="#DejaVuSans-55" transform="translate(874.34375 0)"/>
     <use xlink:href="#DejaVuSans-48" transform="translate(913.25 0)"/>
     <use xlink:href="#DejaVuSans-44" transform="translate(974.78125 0)"/>
     <use xlink:href="#DejaVuSans-47" transform="translate(1036.0625 0)"/>
    </g>
   </g>
  </g>
 </g>
 <defs>
  <clipPath id="p539c9f8a5b">
   <rect x="62.76" y="25.917188" width="574.44" height="270.282812"/>
  </clipPath>
 </defs>
</svg>
