<?xml version="1.0" encoding="utf-8" standalone="no"?>
<!DOCTYPE svg PUBLIC "-//W3C//DTD SVG 1.1//EN"
  "http://www.w3.org/Graphics/SVG/1.1/DTD/svg11.dtd">
<svg xmlns:xlink="http://www.w3.org/1999/xlink" width="648pt" height="324pt" viewBox="0 0 648 324" xmlns="http://www.w3.org/2000/svg" version="1.1">
 <metadata>
  <rdf:RDF xmlns:dc="http://purl.org/dc/elements/1.1/" xmlns:cc="http://creativecommons.org/ns#" xmlns:rdf="http://www.w3.org/1999/02/22-rdf-syntax-ns#">
   <cc:Work>
    <dc:type rdf:resource="http://purl.org/dc/dcmitype/StillImage"/>
    <dc:date>2026-06-26T00:17:38.588036</dc:date>
    <dc:format>image/svg+xml</dc:format>
    <dc:creator>
     <cc:Agent>
      <dc:title>Matplotlib v3.11.0, https://matplotlib.org/</dc:title>
     </cc:Agent>
    </dc:creator>
   </cc:Work>
  </rdf:RDF>
 </metadata>
 <defs>
  <style type="text/css">*{stroke-linejoin: round; stroke-linecap: butt}</style>
 </defs>
 <g id="figure_1">
  <g id="patch_1">
   <path d="M 0 324 
L 648 324 
L 648 0 
L 0 0 
z
" style="fill: #ffffff"/>
  </g>
  <g id="axes_1">
   <g id="patch_2">
    <path d="M 69.24 296.2 
L 626.904583 296.2 
L 626.904583 25.917188 
L 69.24 25.917188 
z
" style="fill: #ffffff"/>
   </g>
   <g id="matplotlib.axis_1">
    <g id="xtick_1">
     <g id="line2d_1">
      <defs>
       <path id="m40e48f618c" d="M 0 0 
L 0 3.5 
" style="stroke: #000000; stroke-width: 0.8"/>
      </defs>
      <g>
       <use xlink:href="#m40e48f618c" x="107.783443" y="296.2" style="stroke: #000000; stroke-width: 0.8"/>
      </g>
     </g>
     <g id="text_1">
      <!-- 2024-07 -->
      <g transform="translate(86.892036 310.797656) scale(0.1 -0.1)">
       <defs>
        <path id="DejaVuSans-15" d="M 1228 531 
L 3431 531 
L 3431 0 
L 469 0 
L 469 531 
Q 828 903 1448 1529 
Q 2069 2156 2228 2338 
Q 2531 2678 2651 2914 
Q 2772 3150 2772 3378 
Q 2772 3750 2511 3984 
Q 2250 4219 1831 4219 
Q 1534 4219 1204 4116 
Q 875 4013 500 3803 
L 500 4441 
Q 881 4594 1212 4672 
Q 1544 4750 1819 4750 
Q 2544 4750 2975 4387 
Q 3406 4025 3406 3419 
Q 3406 3131 3298 2873 
Q 3191 2616 2906 2266 
Q 2828 2175 2409 1742 
Q 1991 1309 1228 531 
z
" transform="scale(0.015625)"/>
        <path id="DejaVuSans-13" d="M 2034 4250 
Q 1547 4250 1301 3770 
Q 1056 3291 1056 2328 
Q 1056 1369 1301 889 
Q 1547 409 2034 409 
Q 2525 409 2770 889 
Q 3016 1369 3016 2328 
Q 3016 3291 2770 3770 
Q 2525 4250 2034 4250 
z
M 2034 4750 
Q 2819 4750 3233 4129 
Q 3647 3509 3647 2328 
Q 3647 1150 3233 529 
Q 2819 -91 2034 -91 
Q 1250 -91 836 529 
Q 422 1150 422 2328 
Q 422 3509 836 4129 
Q 1250 4750 2034 4750 
z
" transform="scale(0.015625)"/>
        <path id="DejaVuSans-17" d="M 2419 4116 
L 825 1625 
L 2419 1625 
L 2419 4116 
z
M 2253 4666 
L 3047 4666 
L 3047 1625 
L 3713 1625 
L 3713 1100 
L 3047 1100 
L 3047 0 
L 2419 0 
L 2419 1100 
L 313 1100 
L 313 1709 
L 2253 4666 
z
" transform="scale(0.015625)"/>
        <path id="DejaVuSans-10" d="M 313 2009 
L 1997 2009 
L 1997 1497 
L 313 1497 
L 313 2009 
z
" transform="scale(0.015625)"/>
        <path id="DejaVuSans-1a" d="M 525 4666 
L 3525 4666 
L 3525 4397 
L 1831 0 
L 1172 0 
L 2766 4134 
L 525 4134 
L 525 4666 
z
" transform="scale(0.015625)"/>
       </defs>
       <use xlink:href="#DejaVuSans-15"/>
       <use xlink:href="#DejaVuSans-13" transform="translate(63.625 0)"/>
       <use xlink:href="#DejaVuSans-15" transform="translate(127.25 0)"/>
       <use xlink:href="#DejaVuSans-17" transform="translate(190.875 0)"/>
       <use xlink:href="#DejaVuSans-10" transform="translate(254.5 0)"/>
       <use xlink:href="#DejaVuSans-13" transform="translate(290.578125 0)"/>
       <use xlink:href="#DejaVuSans-1a" transform="translate(354.203125 0)"/>
      </g>
     </g>
    </g>
    <g id="xtick_2">
     <g id="line2d_2">
      <g>
       <use xlink:href="#m40e48f618c" x="171.675275" y="296.2" style="stroke: #000000; stroke-width: 0.8"/>
      </g>
     </g>
     <g id="text_2">
      <!-- 2024-10 -->
      <g transform="translate(150.783869 310.797656) scale(0.1 -0.1)">
       <defs>
        <path id="DejaVuSans-14" d="M 794 531 
L 1825 531 
L 1825 4091 
L 703 3866 
L 703 4441 
L 1819 4666 
L 2450 4666 
L 2450 531 
L 3481 531 
L 3481 0 
L 794 0 
L 794 531 
z
" transform="scale(0.015625)"/>
       </defs>
       <use xlink:href="#DejaVuSans-15"/>
       <use xlink:href="#DejaVuSans-13" transform="translate(63.625 0)"/>
       <use xlink:href="#DejaVuSans-15" transform="translate(127.25 0)"/>
       <use xlink:href="#DejaVuSans-17" transform="translate(190.875 0)"/>
       <use xlink:href="#DejaVuSans-10" transform="translate(254.5 0)"/>
       <use xlink:href="#DejaVuSans-14" transform="translate(290.578125 0)"/>
       <use xlink:href="#DejaVuSans-13" transform="translate(354.203125 0)"/>
      </g>
     </g>
    </g>
    <g id="xtick_3">
     <g id="line2d_3">
      <g>
       <use xlink:href="#m40e48f618c" x="235.567108" y="296.2" style="stroke: #000000; stroke-width: 0.8"/>
      </g>
     </g>
     <g id="text_3">
      <!-- 2025-01 -->
      <g transform="translate(214.675702 310.797656) scale(0.1 -0.1)">
       <defs>
        <path id="DejaVuSans-18" d="M 691 4666 
L 3169 4666 
L 3169 4134 
L 1269 4134 
L 1269 2991 
Q 1406 3038 1543 3061 
Q 1681 3084 1819 3084 
Q 2600 3084 3056 2656 
Q 3513 2228 3513 1497 
Q 3513 744 3044 326 
Q 2575 -91 1722 -91 
Q 1428 -91 1123 -41 
Q 819 9 494 109 
L 494 744 
Q 775 591 1075 516 
Q 1375 441 1709 441 
Q 2250 441 2565 725 
Q 2881 1009 2881 1497 
Q 2881 1984 2565 2268 
Q 2250 2553 1709 2553 
Q 1456 2553 1204 2497 
Q 953 2441 691 2322 
L 691 4666 
z
" transform="scale(0.015625)"/>
       </defs>
       <use xlink:href="#DejaVuSans-15"/>
       <use xlink:href="#DejaVuSans-13" transform="translate(63.625 0)"/>
       <use xlink:href="#DejaVuSans-15" transform="translate(127.25 0)"/>
       <use xlink:href="#DejaVuSans-18" transform="translate(190.875 0)"/>
       <use xlink:href="#DejaVuSans-10" transform="translate(254.5 0)"/>
       <use xlink:href="#DejaVuSans-13" transform="translate(290.578125 0)"/>
       <use xlink:href="#DejaVuSans-14" transform="translate(354.203125 0)"/>
      </g>
     </g>
    </g>
    <g id="xtick_4">
     <g id="line2d_4">
      <g>
       <use xlink:href="#m40e48f618c" x="298.069988" y="296.2" style="stroke: #000000; stroke-width: 0.8"/>
      </g>
     </g>
     <g id="text_4">
      <!-- 2025-04 -->
      <g transform="translate(277.178581 310.797656) scale(0.1 -0.1)">
       <use xlink:href="#DejaVuSans-15"/>
       <use xlink:href="#DejaVuSans-13" transform="translate(63.625 0)"/>
       <use xlink:href="#DejaVuSans-15" transform="translate(127.25 0)"/>
       <use xlink:href="#DejaVuSans-18" transform="translate(190.875 0)"/>
       <use xlink:href="#DejaVuSans-10" transform="translate(254.5 0)"/>
       <use xlink:href="#DejaVuSans-13" transform="translate(290.578125 0)"/>
       <use xlink:href="#DejaVuSans-17" transform="translate(354.203125 0)"/>
      </g>
     </g>
    </g>
    <g id="xtick_5">
     <g id="line2d_5">
      <g>
       <use xlink:href="#m40e48f618c" x="361.267344" y="296.2" style="stroke: #000000; stroke-width: 0.8"/>
      </g>
     </g>
     <g id="text_5">
      <!-- 2025-07 -->
      <g transform="translate(340.375938 310.797656) scale(0.1 -0.1)">
       <use xlink:href="#DejaVuSans-15"/>
       <use xlink:href="#DejaVuSans-13" transform="translate(63.625 0)"/>
       <use xlink:href="#DejaVuSans-15" transform="translate(127.25 0)"/>
       <use xlink:href="#DejaVuSans-18" transform="translate(190.875 0)"/>
       <use xlink:href="#DejaVuSans-10" transform="translate(254.5 0)"/>
       <use xlink:href="#DejaVuSans-13" transform="translate(290.578125 0)"/>
       <use xlink:href="#DejaVuSans-1a" transform="translate(354.203125 0)"/>
      </g>
     </g>
    </g>
    <g id="xtick_6">
     <g id="line2d_6">
      <g>
       <use xlink:href="#m40e48f618c" x="425.159176" y="296.2" style="stroke: #000000; stroke-width: 0.8"/>
      </g>
     </g>
     <g id="text_6">
      <!-- 2025-10 -->
      <g transform="translate(404.26777 310.797656) scale(0.1 -0.1)">
       <use xlink:href="#DejaVuSans-15"/>
       <use xlink:href="#DejaVuSans-13" transform="translate(63.625 0)"/>
       <use xlink:href="#DejaVuSans-15" transform="translate(127.25 0)"/>
       <use xlink:href="#DejaVuSans-18" transform="translate(190.875 0)"/>
       <use xlink:href="#DejaVuSans-10" transform="translate(254.5 0)"/>
       <use xlink:href="#DejaVuSans-14" transform="translate(290.578125 0)"/>
       <use xlink:href="#DejaVuSans-13" transform="translate(354.203125 0)"/>
      </g>
     </g>
    </g>
    <g id="xtick_7">
     <g id="line2d_7">
      <g>
       <use xlink:href="#m40e48f618c" x="489.051009" y="296.2" style="stroke: #000000; stroke-width: 0.8"/>
      </g>
     </g>
     <g id="text_7">
      <!-- 2026-01 -->
      <g transform="translate(468.159603 310.797656) scale(0.1 -0.1)">
       <defs>
        <path id="DejaVuSans-19" d="M 2113 2584 
Q 1688 2584 1439 2293 
Q 1191 2003 1191 1497 
Q 1191 994 1439 701 
Q 1688 409 2113 409 
Q 2538 409 2786 701 
Q 3034 994 3034 1497 
Q 3034 2003 2786 2293 
Q 2538 2584 2113 2584 
z
M 3366 4563 
L 3366 3988 
Q 3128 4100 2886 4159 
Q 2644 4219 2406 4219 
Q 1781 4219 1451 3797 
Q 1122 3375 1075 2522 
Q 1259 2794 1537 2939 
Q 1816 3084 2150 3084 
Q 2853 3084 3261 2657 
Q 3669 2231 3669 1497 
Q 3669 778 3244 343 
Q 2819 -91 2113 -91 
Q 1303 -91 875 529 
Q 447 1150 447 2328 
Q 447 3434 972 4092 
Q 1497 4750 2381 4750 
Q 2619 4750 2861 4703 
Q 3103 4656 3366 4563 
z
" transform="scale(0.015625)"/>
       </defs>
       <use xlink:href="#DejaVuSans-15"/>
       <use xlink:href="#DejaVuSans-13" transform="translate(63.625 0)"/>
       <use xlink:href="#DejaVuSans-15" transform="translate(127.25 0)"/>
       <use xlink:href="#DejaVuSans-19" transform="translate(190.875 0)"/>
       <use xlink:href="#DejaVuSans-10" transform="translate(254.5 0)"/>
       <use xlink:href="#DejaVuSans-13" transform="translate(290.578125 0)"/>
       <use xlink:href="#DejaVuSans-14" transform="translate(354.203125 0)"/>
      </g>
     </g>
    </g>
    <g id="xtick_8">
     <g id="line2d_8">
      <g>
       <use xlink:href="#m40e48f618c" x="551.553889" y="296.2" style="stroke: #000000; stroke-width: 0.8"/>
      </g>
     </g>
     <g id="text_8">
      <!-- 2026-04 -->
      <g transform="translate(530.662483 310.797656) scale(0.1 -0.1)">
       <use xlink:href="#DejaVuSans-15"/>
       <use xlink:href="#DejaVuSans-13" transform="translate(63.625 0)"/>
       <use xlink:href="#DejaVuSans-15" transform="translate(127.25 0)"/>
       <use xlink:href="#DejaVuSans-19" transform="translate(190.875 0)"/>
       <use xlink:href="#DejaVuSans-10" transform="translate(254.5 0)"/>
       <use xlink:href="#DejaVuSans-13" transform="translate(290.578125 0)"/>
       <use xlink:href="#DejaVuSans-17" transform="translate(354.203125 0)"/>
      </g>
     </g>
    </g>
    <g id="xtick_9">
     <g id="line2d_9">
      <g>
       <use xlink:href="#m40e48f618c" x="614.751245" y="296.2" style="stroke: #000000; stroke-width: 0.8"/>
      </g>
     </g>
     <g id="text_9">
      <!-- 2026-07 -->
      <g transform="translate(593.859839 310.797656) scale(0.1 -0.1)">
       <use xlink:href="#DejaVuSans-15"/>
       <use xlink:href="#DejaVuSans-13" transform="translate(63.625 0)"/>
       <use xlink:href="#DejaVuSans-15" transform="translate(127.25 0)"/>
       <use xlink:href="#DejaVuSans-19" transform="translate(190.875 0)"/>
       <use xlink:href="#DejaVuSans-10" transform="translate(254.5 0)"/>
       <use xlink:href="#DejaVuSans-13" transform="translate(290.578125 0)"/>
       <use xlink:href="#DejaVuSans-1a" transform="translate(354.203125 0)"/>
      </g>
     </g>
    </g>
   </g>
   <g id="matplotlib.axis_2">
    <g id="ytick_1">
     <g id="line2d_10">
      <defs>
       <path id="m41f3fa70d5" d="M 0 0 
L -3.5 0 
" style="stroke: #000000; stroke-width: 0.8"/>
      </defs>
      <g>
       <use xlink:href="#m41f3fa70d5" x="69.24" y="271.855048" style="stroke: #000000; stroke-width: 0.8"/>
      </g>
     </g>
     <g id="text_10">
      <!-- −0.010 -->
      <g transform="translate(25.232188 275.653876) scale(0.1 -0.1)">
       <defs>
        <path id="DejaVuSans-c9c" d="M 678 2272 
L 4684 2272 
L 4684 1741 
L 678 1741 
L 678 2272 
z
" transform="scale(0.015625)"/>
        <path id="DejaVuSans-11" d="M 684 794 
L 1344 794 
L 1344 0 
L 684 0 
L 684 794 
z
" transform="scale(0.015625)"/>
       </defs>
       <use xlink:href="#DejaVuSans-c9c"/>
       <use xlink:href="#DejaVuSans-13" transform="translate(83.796875 0)"/>
       <use xlink:href="#DejaVuSans-11" transform="translate(147.421875 0)"/>
       <use xlink:href="#DejaVuSans-13" transform="translate(179.203125 0)"/>
       <use xlink:href="#DejaVuSans-14" transform="translate(242.828125 0)"/>
       <use xlink:href="#DejaVuSans-13" transform="translate(306.453125 0)"/>
      </g>
     </g>
    </g>
    <g id="ytick_2">
     <g id="line2d_11">
      <g>
       <use xlink:href="#m41f3fa70d5" x="69.24" y="213.911014" style="stroke: #000000; stroke-width: 0.8"/>
      </g>
     </g>
     <g id="text_11">
      <!-- −0.005 -->
      <g transform="translate(25.232188 217.709842) scale(0.1 -0.1)">
       <use xlink:href="#DejaVuSans-c9c"/>
       <use xlink:href="#DejaVuSans-13" transform="translate(83.796875 0)"/>
       <use xlink:href="#DejaVuSans-11" transform="translate(147.421875 0)"/>
       <use xlink:href="#DejaVuSans-13" transform="translate(179.203125 0)"/>
       <use xlink:href="#DejaVuSans-13" transform="translate(242.828125 0)"/>
       <use xlink:href="#DejaVuSans-18" transform="translate(306.453125 0)"/>
      </g>
     </g>
    </g>
    <g id="ytick_3">
     <g id="line2d_12">
      <g>
       <use xlink:href="#m41f3fa70d5" x="69.24" y="155.96698" style="stroke: #000000; stroke-width: 0.8"/>
      </g>
     </g>
     <g id="text_12">
      <!-- 0.000 -->
      <g transform="translate(33.611875 159.765808) scale(0.1 -0.1)">
       <use xlink:href="#DejaVuSans-13"/>
       <use xlink:href="#DejaVuSans-11" transform="translate(63.625 0)"/>
       <use xlink:href="#DejaVuSans-13" transform="translate(95.40625 0)"/>
       <use xlink:href="#DejaVuSans-13" transform="translate(159.03125 0)"/>
       <use xlink:href="#DejaVuSans-13" transform="translate(222.65625 0)"/>
      </g>
     </g>
    </g>
    <g id="ytick_4">
     <g id="line2d_13">
      <g>
       <use xlink:href="#m41f3fa70d5" x="69.24" y="98.022946" style="stroke: #000000; stroke-width: 0.8"/>
      </g>
     </g>
     <g id="text_13">
      <!-- 0.005 -->
      <g transform="translate(33.611875 101.821774) scale(0.1 -0.1)">
       <use xlink:href="#DejaVuSans-13"/>
       <use xlink:href="#DejaVuSans-11" transform="translate(63.625 0)"/>
       <use xlink:href="#DejaVuSans-13" transform="translate(95.40625 0)"/>
       <use xlink:href="#DejaVuSans-13" transform="translate(159.03125 0)"/>
       <use xlink:href="#DejaVuSans-18" transform="translate(222.65625 0)"/>
      </g>
     </g>
    </g>
    <g id="ytick_5">
     <g id="line2d_14">
      <g>
       <use xlink:href="#m41f3fa70d5" x="69.24" y="40.078912" style="stroke: #000000; stroke-width: 0.8"/>
      </g>
     </g>
     <g id="text_14">
      <!-- 0.010 -->
      <g transform="translate(33.611875 43.877741) scale(0.1 -0.1)">
       <use xlink:href="#DejaVuSans-13"/>
       <use xlink:href="#DejaVuSans-11" transform="translate(63.625 0)"/>
       <use xlink:href="#DejaVuSans-13" transform="translate(95.40625 0)"/>
       <use xlink:href="#DejaVuSans-14" transform="translate(159.03125 0)"/>
       <use xlink:href="#DejaVuSans-13" transform="translate(222.65625 0)"/>
      </g>
     </g>
    </g>
    <g id="text_15">
     <!-- Residual -->
     <g transform="translate(18.829844 182.175) rotate(-90) scale(0.1 -0.1)">
      <defs>
       <path id="DejaVuSans-35" d="M 2841 2188 
Q 3044 2119 3236 1894 
Q 3428 1669 3622 1275 
L 4263 0 
L 3584 0 
L 2988 1197 
Q 2756 1666 2539 1819 
Q 2322 1972 1947 1972 
L 1259 1972 
L 1259 0 
L 628 0 
L 628 4666 
L 2053 4666 
Q 2853 4666 3247 4331 
Q 3641 3997 3641 3322 
Q 3641 2881 3436 2590 
Q 3231 2300 2841 2188 
z
M 1259 4147 
L 1259 2491 
L 2053 2491 
Q 2509 2491 2742 2702 
Q 2975 2913 2975 3322 
Q 2975 3731 2742 3939 
Q 2509 4147 2053 4147 
L 1259 4147 
z
" transform="scale(0.015625)"/>
       <path id="DejaVuSans-48" d="M 3597 1894 
L 3597 1613 
L 953 1613 
Q 991 1019 1311 708 
Q 1631 397 2203 397 
Q 2534 397 2845 478 
Q 3156 559 3463 722 
L 3463 178 
Q 3153 47 2828 -22 
Q 2503 -91 2169 -91 
Q 1331 -91 842 396 
Q 353 884 353 1716 
Q 353 2575 817 3079 
Q 1281 3584 2069 3584 
Q 2775 3584 3186 3129 
Q 3597 2675 3597 1894 
z
M 3022 2063 
Q 3016 2534 2758 2815 
Q 2500 3097 2075 3097 
Q 1594 3097 1305 2825 
Q 1016 2553 972 2059 
L 3022 2063 
z
" transform="scale(0.015625)"/>
       <path id="DejaVuSans-56" d="M 2834 3397 
L 2834 2853 
Q 2591 2978 2328 3040 
Q 2066 3103 1784 3103 
Q 1356 3103 1142 2972 
Q 928 2841 928 2578 
Q 928 2378 1081 2264 
Q 1234 2150 1697 2047 
L 1894 2003 
Q 2506 1872 2764 1633 
Q 3022 1394 3022 966 
Q 3022 478 2636 193 
Q 2250 -91 1575 -91 
Q 1294 -91 989 -36 
Q 684 19 347 128 
L 347 722 
Q 666 556 975 473 
Q 1284 391 1588 391 
Q 1994 391 2212 530 
Q 2431 669 2431 922 
Q 2431 1156 2273 1281 
Q 2116 1406 1581 1522 
L 1381 1569 
Q 847 1681 609 1914 
Q 372 2147 372 2553 
Q 372 3047 722 3315 
Q 1072 3584 1716 3584 
Q 2034 3584 2315 3537 
Q 2597 3491 2834 3397 
z
" transform="scale(0.015625)"/>
       <path id="DejaVuSans-4c" d="M 603 3500 
L 1178 3500 
L 1178 0 
L 603 0 
L 603 3500 
z
M 603 4863 
L 1178 4863 
L 1178 4134 
L 603 4134 
L 603 4863 
z
" transform="scale(0.015625)"/>
       <path id="DejaVuSans-47" d="M 2906 2969 
L 2906 4863 
L 3481 4863 
L 3481 0 
L 2906 0 
L 2906 525 
Q 2725 213 2448 61 
Q 2172 -91 1784 -91 
Q 1150 -91 751 415 
Q 353 922 353 1747 
Q 353 2572 751 3078 
Q 1150 3584 1784 3584 
Q 2172 3584 2448 3432 
Q 2725 3281 2906 2969 
z
M 947 1747 
Q 947 1113 1208 752 
Q 1469 391 1925 391 
Q 2381 391 2643 752 
Q 2906 1113 2906 1747 
Q 2906 2381 2643 2742 
Q 2381 3103 1925 3103 
Q 1469 3103 1208 2742 
Q 947 2381 947 1747 
z
" transform="scale(0.015625)"/>
       <path id="DejaVuSans-58" d="M 544 1381 
L 544 3500 
L 1119 3500 
L 1119 1403 
Q 1119 906 1312 657 
Q 1506 409 1894 409 
Q 2359 409 2629 706 
Q 2900 1003 2900 1516 
L 2900 3500 
L 3475 3500 
L 3475 0 
L 2900 0 
L 2900 538 
Q 2691 219 2414 64 
Q 2138 -91 1772 -91 
Q 1169 -91 856 284 
Q 544 659 544 1381 
z
M 1991 3584 
L 1991 3584 
z
" transform="scale(0.015625)"/>
       <path id="DejaVuSans-44" d="M 2194 1759 
Q 1497 1759 1228 1600 
Q 959 1441 959 1056 
Q 959 750 1161 570 
Q 1363 391 1709 391 
Q 2188 391 2477 730 
Q 2766 1069 2766 1631 
L 2766 1759 
L 2194 1759 
z
M 3341 1997 
L 3341 0 
L 2766 0 
L 2766 531 
Q 2569 213 2275 61 
Q 1981 -91 1556 -91 
Q 1019 -91 701 211 
Q 384 513 384 1019 
Q 384 1609 779 1909 
Q 1175 2209 1959 2209 
L 2766 2209 
L 2766 2266 
Q 2766 2663 2505 2880 
Q 2244 3097 1772 3097 
Q 1472 3097 1187 3025 
Q 903 2953 641 2809 
L 641 3341 
Q 956 3463 1253 3523 
Q 1550 3584 1831 3584 
Q 2591 3584 2966 3190 
Q 3341 2797 3341 1997 
z
" transform="scale(0.015625)"/>
       <path id="DejaVuSans-4f" d="M 603 4863 
L 1178 4863 
L 1178 0 
L 603 0 
L 603 4863 
z
" transform="scale(0.015625)"/>
      </defs>
      <use xlink:href="#DejaVuSans-35"/>
      <use xlink:href="#DejaVuSans-48" transform="translate(65 0)"/>
      <use xlink:href="#DejaVuSans-56" transform="translate(126.53125 0)"/>
      <use xlink:href="#DejaVuSans-4c" transform="translate(178.625 0)"/>
      <use xlink:href="#DejaVuSans-47" transform="translate(206.40625 0)"/>
      <use xlink:href="#DejaVuSans-58" transform="translate(269.890625 0)"/>
      <use xlink:href="#DejaVuSans-44" transform="translate(333.265625 0)"/>
      <use xlink:href="#DejaVuSans-4f" transform="translate(394.546875 0)"/>
     </g>
    </g>
   </g>
   <g id="line2d_15">
    <path d="M 94.58839 181.763103 
L 95.282867 144.671518 
L 95.977343 164.673321 
L 98.060772 163.508442 
L 98.755249 156.505087 
L 100.144202 178.289448 
L 100.838678 151.818485 
L 102.922107 199.326347 
L 104.31106 127.318295 
L 105.005537 162.864147 
L 105.700013 170.191839 
L 108.477919 214.728909 
L 109.172395 87.980877 
L 110.561348 146.843598 
L 112.644778 151.68441 
L 114.033731 170.632345 
L 114.728207 141.702432 
L 115.422683 148.762995 
L 117.506113 134.422938 
L 118.200589 164.273805 
L 118.895066 145.299156 
L 119.589542 129.380238 
L 120.284018 131.53695 
L 122.367448 116.182698 
L 123.061924 141.601612 
L 123.756401 137.807204 
L 124.450877 144.959927 
L 125.145354 147.124019 
L 127.228783 139.477839 
L 128.617736 188.026191 
L 129.312212 115.032427 
L 130.006689 182.497165 
L 132.784594 206.026475 
L 133.479071 188.637899 
L 134.868024 167.599617 
L 136.951453 152.084064 
L 137.64593 187.154647 
L 138.340406 151.710739 
L 139.034882 147.447994 
L 139.729359 199.760102 
L 141.812788 198.708818 
L 142.507265 167.324783 
L 143.201741 176.657221 
L 143.896218 132.532672 
L 144.590694 236.676462 
L 146.674123 177.073473 
L 147.3686 192.175968 
L 148.063076 134.180905 
L 148.757553 143.858769 
L 149.452029 172.793305 
L 152.229935 112.858181 
L 152.924411 185.35055 
L 153.618888 156.492011 
L 154.313364 106.304549 
L 156.396793 160.554173 
L 157.09127 122.66792 
L 157.785746 192.441525 
L 158.480223 159.255456 
L 159.174699 150.932519 
L 161.258129 152.022373 
L 161.952605 147.014658 
L 162.647081 131.299471 
L 163.341558 198.598048 
L 164.036034 161.374013 
L 166.119464 207.023915 
L 166.81394 238.068422 
L 167.508417 104.781087 
L 168.202893 163.836687 
L 168.897369 120.777157 
L 170.980799 151.091129 
L 171.675275 176.162281 
L 172.369752 151.249775 
L 173.064228 111.155202 
L 173.758705 136.711292 
L 175.842134 119.835617 
L 176.53661 129.645129 
L 177.231087 107.107351 
L 177.925563 117.899364 
L 178.62004 143.501688 
L 181.397945 171.770577 
L 182.092422 189.411267 
L 182.786898 122.86759 
L 183.481375 146.860172 
L 185.564804 132.119872 
L 186.25928 171.586351 
L 186.953757 148.133636 
L 187.648233 147.620659 
L 188.34271 125.942201 
L 190.426139 162.257008 
L 191.120616 120.384547 
L 191.815092 167.685659 
L 192.509568 145.279009 
L 193.204045 141.225704 
L 195.287474 173.42036 
L 195.981951 209.902262 
L 196.676427 69.100524 
L 197.370904 223.789957 
L 198.06538 118.853617 
L 200.148809 141.037289 
L 200.843286 113.037109 
L 201.537762 110.350919 
L 202.232239 100.459018 
L 202.926715 136.821136 
L 205.010144 211.589042 
L 205.704621 213.935904 
L 206.399097 137.562724 
L 207.093574 154.722308 
L 207.78805 164.737609 
L 209.871479 115.549618 
L 210.565956 186.190473 
L 211.260432 186.808193 
L 212.649385 166.834498 
L 214.732815 134.866395 
L 215.427291 132.500118 
L 216.121767 155.02656 
L 216.816244 195.570903 
L 217.51072 51.25592 
L 219.59415 138.873432 
L 220.288626 158.808544 
L 220.983103 164.711216 
L 221.677579 88.720409 
L 222.372055 143.239049 
L 224.455485 133.86716 
L 225.149961 107.217322 
L 225.844438 59.245303 
L 226.538914 216.679876 
L 227.233391 175.778265 
L 229.31682 149.587751 
L 230.011296 78.837226 
L 232.094726 150.590534 
L 234.178155 196.352604 
L 234.872631 129.870699 
L 236.261584 135.405519 
L 236.956061 122.8384 
L 239.03949 252.041893 
L 239.733966 141.769839 
L 240.428443 141.030525 
L 241.817396 132.878397 
L 243.900825 177.930597 
L 244.595302 170.414775 
L 245.289778 174.810341 
L 245.984254 103.642074 
L 246.678731 101.077369 
L 249.456637 128.734 
L 250.151113 125.464773 
L 250.84559 165.118123 
L 251.540066 187.587717 
L 253.623495 169.659045 
L 254.317972 156.758981 
L 255.012448 121.498598 
L 255.706925 96.73183 
L 256.401401 138.197982 
L 258.48483 283.914418 
L 259.179307 237.513557 
L 259.873783 168.056073 
L 260.56826 145.934772 
L 261.262736 181.458387 
L 263.346166 180.349221 
L 264.040642 201.260971 
L 264.735118 163.663033 
L 265.429595 258.34633 
L 266.124071 175.905616 
L 268.901977 159.40647 
L 269.596453 127.00476 
L 270.29093 217.468978 
L 270.985406 114.132745 
L 273.068836 124.609749 
L 273.763312 132.53346 
L 274.457789 117.076699 
L 275.152265 74.823638 
L 275.846741 141.349947 
L 277.930171 112.937593 
L 278.624647 173.970374 
L 279.319124 210.654001 
L 280.0136 185.820894 
L 280.708077 100.004063 
L 282.791506 104.758657 
L 283.485982 174.369007 
L 284.180459 200.497098 
L 284.874935 105.958462 
L 285.569412 203.1488 
L 287.652841 225.485075 
L 288.347317 161.538566 
L 289.041794 135.903524 
L 289.73627 171.90125 
L 290.430747 138.116871 
L 292.514176 166.620646 
L 293.208653 189.60744 
L 293.903129 166.994984 
L 294.597605 155.500926 
L 295.292082 167.113036 
L 297.375511 137.384997 
L 298.069988 226.245284 
L 298.764464 134.290363 
L 299.45894 271.032548 
L 300.153417 38.20277 
L 302.236846 154.419616 
L 302.931323 152.247142 
L 303.625799 266.486747 
L 304.320276 266.082508 
L 305.014752 199.938061 
L 307.098181 159.199945 
L 307.792658 87.981378 
L 308.487134 220.577661 
L 309.181611 151.437613 
L 312.653993 169.965663 
L 313.348469 129.865341 
L 314.042946 178.438662 
L 314.737422 153.848038 
L 316.820852 207.074735 
L 317.515328 156.373692 
L 318.209804 181.53947 
L 318.904281 112.666191 
L 319.598757 196.011364 
L 321.682187 172.237511 
L 322.376663 201.179135 
L 323.07114 57.157464 
L 323.765616 86.333545 
L 324.460092 143.15543 
L 326.543522 103.797016 
L 327.237998 188.939833 
L 327.932475 119.303824 
L 328.626951 170.839642 
L 329.321427 133.774136 
L 332.099333 200.967581 
L 332.79381 201.624795 
L 333.488286 159.079934 
L 334.182763 257.012147 
L 336.960668 90.395897 
L 337.655145 132.598176 
L 339.044098 269.772786 
L 341.822003 158.68876 
L 342.51648 189.427285 
L 343.210956 172.272263 
L 343.905433 136.583679 
L 345.988862 163.575188 
L 346.683339 180.368367 
L 347.377815 160.591738 
L 348.072291 214.020896 
L 348.766768 164.529183 
L 350.850197 171.862188 
L 351.544674 99.235464 
L 352.23915 139.696992 
L 353.628103 120.370462 
L 355.711532 169.667799 
L 356.406009 164.751905 
L 357.100485 172.90066 
L 357.794962 223.189564 
L 358.489438 110.438035 
L 360.572867 216.440481 
L 361.96182 208.001492 
L 362.656297 89.857284 
L 365.434202 114.672228 
L 366.128679 139.567027 
L 366.823155 143.609927 
L 367.517632 172.270107 
L 368.212108 136.724528 
L 370.295538 146.156445 
L 370.990014 147.102292 
L 371.68449 194.499564 
L 372.378967 114.359689 
L 373.073443 172.990771 
L 375.156873 191.665804 
L 375.851349 211.228393 
L 376.545826 174.703117 
L 377.240302 127.925251 
L 377.934778 100.279748 
L 380.018208 136.743429 
L 380.712684 127.33275 
L 381.407161 98.99942 
L 382.101637 132.646769 
L 382.796114 211.33875 
L 385.574019 140.605637 
L 386.268496 187.496247 
L 386.962972 160.834351 
L 387.657449 140.194046 
L 389.740878 130.82748 
L 390.435354 151.999747 
L 391.129831 154.6565 
L 391.824307 99.267939 
L 392.518784 149.894716 
L 394.602213 161.306428 
L 395.296689 108.834872 
L 395.991166 157.041891 
L 396.685642 131.215449 
L 397.380119 220.838267 
L 399.463548 129.13036 
L 400.158025 181.616817 
L 400.852501 190.029526 
L 401.546977 177.685843 
L 402.241454 177.470491 
L 405.01936 126.64392 
L 405.713836 148.712583 
L 406.408313 127.800908 
L 407.102789 131.936608 
L 409.186218 182.767275 
L 409.880695 105.160022 
L 411.269648 182.214671 
L 411.964124 152.61139 
L 414.047553 217.413252 
L 414.74203 185.368446 
L 415.436506 137.321304 
L 416.130983 145.126217 
L 416.825459 151.53619 
L 418.908888 122.096973 
L 419.603365 150.912094 
L 420.297841 111.940164 
L 420.992318 124.831356 
L 421.686794 168.188817 
L 423.770224 173.177692 
L 424.4647 163.66667 
L 425.159176 140.580956 
L 425.853653 142.531371 
L 426.548129 164.873805 
L 428.631559 171.274391 
L 429.326035 151.746389 
L 430.020512 150.814499 
L 430.714988 100.008209 
L 431.409464 178.580118 
L 434.18737 149.520738 
L 434.881847 159.737228 
L 435.576323 151.38072 
L 436.2708 195.510008 
L 438.354229 136.19016 
L 439.048705 174.820475 
L 439.743182 190.409947 
L 440.437658 168.161394 
L 441.132135 150.360541 
L 443.215564 151.452136 
L 443.91004 207.368585 
L 444.604517 152.177653 
L 445.298993 117.247552 
L 445.99347 123.635398 
L 448.076899 133.393081 
L 448.771375 108.702906 
L 449.465852 115.747021 
L 450.160328 147.081954 
L 450.854805 207.269792 
L 452.938234 183.724321 
L 454.327187 160.077518 
L 455.021663 111.979877 
L 455.71614 164.015114 
L 457.799569 117.680358 
L 458.494046 220.938645 
L 459.188522 94.293453 
L 459.882999 108.440357 
L 460.577475 160.26955 
L 462.660904 148.425328 
L 463.355381 163.218392 
L 464.049857 204.076885 
L 465.43881 123.958856 
L 467.522239 129.042326 
L 468.216716 171.621138 
L 468.911192 180.865131 
L 469.605669 150.874338 
L 470.300145 268.805607 
L 472.383575 133.168445 
L 473.078051 143.78585 
L 473.772527 195.606003 
L 474.467004 174.763428 
L 475.16148 162.66504 
L 477.24491 153.495936 
L 477.939386 175.451585 
L 478.633862 132.728126 
L 479.328339 161.661165 
L 480.022815 151.876198 
L 482.106245 190.727462 
L 482.800721 208.884606 
L 483.495198 168.006014 
L 486.96758 141.45833 
L 487.662056 156.008227 
L 488.356533 131.742042 
L 489.745486 133.330933 
L 491.828915 131.782841 
L 492.523391 111.012329 
L 493.217868 122.778304 
L 493.912344 149.085886 
L 494.606821 110.59485 
L 496.69025 191.568723 
L 497.384726 156.716636 
L 498.079203 167.11425 
L 498.773679 144.209331 
L 499.468156 127.002066 
L 502.246062 185.195215 
L 502.940538 164.691006 
L 503.635014 212.597429 
L 504.329491 223.824735 
L 506.41292 144.828454 
L 507.107397 267.12155 
L 507.801873 174.618371 
L 508.496349 216.3846 
L 509.190826 55.705253 
L 511.274255 138.122168 
L 511.968732 156.16 
L 512.663208 71.523171 
L 514.052161 205.086101 
L 516.13559 238.626704 
L 516.830067 162.60101 
L 517.524543 194.477326 
L 518.21902 135.841297 
L 518.913496 124.096184 
L 521.691402 162.767284 
L 522.385878 113.404255 
L 523.080355 157.314691 
L 523.774831 149.989071 
L 525.858261 117.487499 
L 526.552737 136.406821 
L 527.247213 174.127719 
L 527.94169 166.480619 
L 528.636166 191.660873 
L 530.719596 150.467315 
L 531.414072 156.604867 
L 532.108549 195.904038 
L 532.803025 138.716587 
L 533.497501 239.437128 
L 535.580931 171.634289 
L 536.275407 160.0143 
L 536.969884 157.981066 
L 537.66436 138.806556 
L 538.358836 77.975369 
L 540.442266 184.467997 
L 541.136742 143.780187 
L 541.831219 116.34181 
L 542.525695 143.424351 
L 543.220172 144.028421 
L 545.303601 150.116366 
L 545.998077 134.893786 
L 546.692554 103.596136 
L 547.38703 125.120642 
L 548.081507 124.532176 
L 550.164936 129.184553 
L 550.859412 171.934563 
L 551.553889 166.309135 
L 552.248365 126.214266 
L 555.026271 182.231326 
L 555.720748 151.572769 
L 556.415224 158.959421 
L 557.1097 177.400688 
L 557.804177 130.004365 
L 559.887606 223.121937 
L 560.582083 170.652278 
L 561.276559 174.376046 
L 561.971036 173.209641 
L 562.665512 173.211545 
L 564.748941 203.497372 
L 565.443418 143.024447 
L 566.137894 135.577692 
L 566.832371 130.130051 
L 567.526847 193.679251 
L 569.610276 188.679817 
L 570.304753 96.957957 
L 570.999229 147.724514 
L 571.693706 211.409491 
L 572.388182 153.593938 
L 574.471611 157.29836 
L 575.166088 186.483008 
L 575.860564 93.601607 
L 576.555041 146.321362 
L 577.249517 172.220213 
L 579.332947 162.944261 
L 580.027423 134.991725 
L 580.721899 157.472399 
L 582.110852 134.024536 
L 584.888758 141.197051 
L 585.583235 163.92067 
L 586.277711 132.614765 
L 586.972187 111.271459 
L 589.750093 154.047699 
L 590.44457 138.917409 
L 591.139046 221.228224 
L 591.833523 104.833288 
L 593.916952 131.804236 
L 594.611428 159.62242 
L 595.305905 107.6097 
L 596.000381 137.658597 
L 596.694858 125.638446 
L 598.778287 147.822917 
L 599.472763 159.018084 
L 600.16724 164.705699 
L 600.861716 149.609279 
L 601.556193 153.815519 
L 601.556193 153.815519 
" clip-path="url(#p43347a9abf)" style="fill: none; stroke: #1f77b4; stroke-width: 1.5; stroke-linecap: square"/>
   </g>
   <g id="line2d_16">
    <path d="M 69.24 155.96698 
L 626.904583 155.96698 
" clip-path="url(#p43347a9abf)" style="fill: none; stroke: #000000; stroke-width: 0.8; stroke-linecap: square"/>
   </g>
   <g id="patch_3">
    <path d="M 69.24 296.2 
L 69.24 25.917188 
" style="fill: none; stroke: #000000; stroke-width: 0.8; stroke-linejoin: miter; stroke-linecap: square"/>
   </g>
   <g id="patch_4">
    <path d="M 626.904583 296.2 
L 626.904583 25.917188 
" style="fill: none; stroke: #000000; stroke-width: 0.8; stroke-linejoin: miter; stroke-linecap: square"/>
   </g>
   <g id="patch_5">
    <path d="M 69.24 296.2 
L 626.904583 296.2 
" style="fill: none; stroke: #000000; stroke-width: 0.8; stroke-linejoin: miter; stroke-linecap: square"/>
   </g>
   <g id="patch_6">
    <path d="M 69.24 25.917188 
L 626.904583 25.917188 
" style="fill: none; stroke: #000000; stroke-width: 0.8; stroke-linejoin: miter; stroke-linecap: square"/>
   </g>
   <g id="text_16">
    <!-- Full-Sample OLS Regression Log Spread -->
    <g transform="translate(228.979791 19.917188) scale(0.12 -0.12)">
     <defs>
      <path id="DejaVuSans-29" d="M 628 4666 
L 3309 4666 
L 3309 4134 
L 1259 4134 
L 1259 2759 
L 3109 2759 
L 3109 2228 
L 1259 2228 
L 1259 0 
L 628 0 
L 628 4666 
z
" transform="scale(0.015625)"/>
      <path id="DejaVuSans-36" d="M 3425 4513 
L 3425 3897 
Q 3066 4069 2747 4153 
Q 2428 4238 2131 4238 
Q 1616 4238 1336 4038 
Q 1056 3838 1056 3469 
Q 1056 3159 1242 3001 
Q 1428 2844 1947 2747 
L 2328 2669 
Q 3034 2534 3370 2195 
Q 3706 1856 3706 1288 
Q 3706 609 3251 259 
Q 2797 -91 1919 -91 
Q 1588 -91 1214 -16 
Q 841 59 441 206 
L 441 856 
Q 825 641 1194 531 
Q 1563 422 1919 422 
Q 2459 422 2753 634 
Q 3047 847 3047 1241 
Q 3047 1584 2836 1778 
Q 2625 1972 2144 2069 
L 1759 2144 
Q 1053 2284 737 2584 
Q 422 2884 422 3419 
Q 422 4038 858 4394 
Q 1294 4750 2059 4750 
Q 2388 4750 2728 4690 
Q 3069 4631 3425 4513 
z
" transform="scale(0.015625)"/>
      <path id="DejaVuSans-50" d="M 3328 2828 
Q 3544 3216 3844 3400 
Q 4144 3584 4550 3584 
Q 5097 3584 5394 3201 
Q 5691 2819 5691 2113 
L 5691 0 
L 5113 0 
L 5113 2094 
Q 5113 2597 4934 2840 
Q 4756 3084 4391 3084 
Q 3944 3084 3684 2787 
Q 3425 2491 3425 1978 
L 3425 0 
L 2847 0 
L 2847 2094 
Q 2847 2600 2669 2842 
Q 2491 3084 2119 3084 
Q 1678 3084 1418 2786 
Q 1159 2488 1159 1978 
L 1159 0 
L 581 0 
L 581 3500 
L 1159 3500 
L 1159 2956 
Q 1356 3278 1631 3431 
Q 1906 3584 2284 3584 
Q 2666 3584 2933 3390 
Q 3200 3197 3328 2828 
z
" transform="scale(0.015625)"/>
      <path id="DejaVuSans-53" d="M 1159 525 
L 1159 -1331 
L 581 -1331 
L 581 3500 
L 1159 3500 
L 1159 2969 
Q 1341 3281 1617 3432 
Q 1894 3584 2278 3584 
Q 2916 3584 3314 3078 
Q 3713 2572 3713 1747 
Q 3713 922 3314 415 
Q 2916 -91 2278 -91 
Q 1894 -91 1617 61 
Q 1341 213 1159 525 
z
M 3116 1747 
Q 3116 2381 2855 2742 
Q 2594 3103 2138 3103 
Q 1681 3103 1420 2742 
Q 1159 2381 1159 1747 
Q 1159 1113 1420 752 
Q 1681 391 2138 391 
Q 2594 391 2855 752 
Q 3116 1113 3116 1747 
z
" transform="scale(0.015625)"/>
      <path id="DejaVuSans-3" transform="scale(0.015625)"/>
      <path id="DejaVuSans-32" d="M 2522 4238 
Q 1834 4238 1429 3725 
Q 1025 3213 1025 2328 
Q 1025 1447 1429 934 
Q 1834 422 2522 422 
Q 3209 422 3611 934 
Q 4013 1447 4013 2328 
Q 4013 3213 3611 3725 
Q 3209 4238 2522 4238 
z
M 2522 4750 
Q 3503 4750 4090 4092 
Q 4678 3434 4678 2328 
Q 4678 1225 4090 567 
Q 3503 -91 2522 -91 
Q 1538 -91 948 565 
Q 359 1222 359 2328 
Q 359 3434 948 4092 
Q 1538 4750 2522 4750 
z
" transform="scale(0.015625)"/>
      <path id="DejaVuSans-2f" d="M 628 4666 
L 1259 4666 
L 1259 531 
L 3531 531 
L 3531 0 
L 628 0 
L 628 4666 
z
" transform="scale(0.015625)"/>
      <path id="DejaVuSans-4a" d="M 2906 1791 
Q 2906 2416 2648 2759 
Q 2391 3103 1925 3103 
Q 1463 3103 1205 2759 
Q 947 2416 947 1791 
Q 947 1169 1205 825 
Q 1463 481 1925 481 
Q 2391 481 2648 825 
Q 2906 1169 2906 1791 
z
M 3481 434 
Q 3481 -459 3084 -895 
Q 2688 -1331 1869 -1331 
Q 1566 -1331 1297 -1286 
Q 1028 -1241 775 -1147 
L 775 -588 
Q 1028 -725 1275 -790 
Q 1522 -856 1778 -856 
Q 2344 -856 2625 -561 
Q 2906 -266 2906 331 
L 2906 616 
Q 2728 306 2450 153 
Q 2172 0 1784 0 
Q 1141 0 747 490 
Q 353 981 353 1791 
Q 353 2603 747 3093 
Q 1141 3584 1784 3584 
Q 2172 3584 2450 3431 
Q 2728 3278 2906 2969 
L 2906 3500 
L 3481 3500 
L 3481 434 
z
" transform="scale(0.015625)"/>
      <path id="DejaVuSans-55" d="M 2631 2963 
Q 2534 3019 2420 3045 
Q 2306 3072 2169 3072 
Q 1681 3072 1420 2755 
Q 1159 2438 1159 1844 
L 1159 0 
L 581 0 
L 581 3500 
L 1159 3500 
L 1159 2956 
Q 1341 3275 1631 3429 
Q 1922 3584 2338 3584 
Q 2397 3584 2469 3576 
Q 2541 3569 2628 3553 
L 2631 2963 
z
" transform="scale(0.015625)"/>
      <path id="DejaVuSans-52" d="M 1959 3097 
Q 1497 3097 1228 2736 
Q 959 2375 959 1747 
Q 959 1119 1226 758 
Q 1494 397 1959 397 
Q 2419 397 2687 759 
Q 2956 1122 2956 1747 
Q 2956 2369 2687 2733 
Q 2419 3097 1959 3097 
z
M 1959 3584 
Q 2709 3584 3137 3096 
Q 3566 2609 3566 1747 
Q 3566 888 3137 398 
Q 2709 -91 1959 -91 
Q 1206 -91 779 398 
Q 353 888 353 1747 
Q 353 2609 779 3096 
Q 1206 3584 1959 3584 
z
" transform="scale(0.015625)"/>
      <path id="DejaVuSans-51" d="M 3513 2113 
L 3513 0 
L 2938 0 
L 2938 2094 
Q 2938 2591 2744 2837 
Q 2550 3084 2163 3084 
Q 1697 3084 1428 2787 
Q 1159 2491 1159 1978 
L 1159 0 
L 581 0 
L 581 3500 
L 1159 3500 
L 1159 2956 
Q 1366 3272 1645 3428 
Q 1925 3584 2291 3584 
Q 2894 3584 3203 3211 
Q 3513 2838 3513 2113 
z
" transform="scale(0.015625)"/>
     </defs>
     <use xlink:href="#DejaVuSans-29"/>
     <use xlink:href="#DejaVuSans-58" transform="translate(52.046875 0)"/>
     <use xlink:href="#DejaVuSans-4f" transform="translate(115.421875 0)"/>
     <use xlink:href="#DejaVuSans-4f" transform="translate(143.203125 0)"/>
     <use xlink:href="#DejaVuSans-10" transform="translate(170.984375 0)"/>
     <use xlink:href="#DejaVuSans-36" transform="translate(207.0625 0)"/>
     <use xlink:href="#DejaVuSans-44" transform="translate(270.546875 0)"/>
     <use xlink:href="#DejaVuSans-50" transform="translate(331.828125 0)"/>
     <use xlink:href="#DejaVuSans-53" transform="translate(429.234375 0)"/>
     <use xlink:href="#DejaVuSans-4f" transform="translate(492.71875 0)"/>
     <use xlink:href="#DejaVuSans-48" transform="translate(520.5 0)"/>
     <use xlink:href="#DejaVuSans-3" transform="translate(582.03125 0)"/>
     <use xlink:href="#DejaVuSans-32" transform="translate(613.8125 0)"/>
     <use xlink:href="#DejaVuSans-2f" transform="translate(692.53125 0)"/>
     <use xlink:href="#DejaVuSans-36" transform="translate(748.25 0)"/>
     <use xlink:href="#DejaVuSans-3" transform="translate(811.734375 0)"/>
     <use xlink:href="#DejaVuSans-35" transform="translate(843.515625 0)"/>
     <use xlink:href="#DejaVuSans-48" transform="translate(908.515625 0)"/>
     <use xlink:href="#DejaVuSans-4a" transform="translate(970.046875 0)"/>
     <use xlink:href="#DejaVuSans-55" transform="translate(1033.53125 0)"/>
     <use xlink:href="#DejaVuSans-48" transform="translate(1072.4375 0)"/>
     <use xlink:href="#DejaVuSans-56" transform="translate(1133.96875 0)"/>
     <use xlink:href="#DejaVuSans-56" transform="translate(1186.0625 0)"/>
     <use xlink:href="#DejaVuSans-4c" transform="translate(1238.15625 0)"/>
     <use xlink:href="#DejaVuSans-52" transform="translate(1265.9375 0)"/>
     <use xlink:href="#DejaVuSans-51" transform="translate(1327.125 0)"/>
     <use xlink:href="#DejaVuSans-3" transform="translate(1390.5 0)"/>
     <use xlink:href="#DejaVuSans-2f" transform="translate(1422.28125 0)"/>
     <use xlink:href="#DejaVuSans-52" transform="translate(1476.25 0)"/>
     <use xlink:href="#DejaVuSans-4a" transform="translate(1537.4375 0)"/>
     <use xlink:href="#DejaVuSans-3" transform="translate(1600.921875 0)"/>
     <use xlink:href="#DejaVuSans-36" transform="translate(1632.703125 0)"/>
     <use xlink:href="#DejaVuSans-53" transform="translate(1696.1875 0)"/>
     <use xlink:href="#DejaVuSans-55" transform="translate(1759.671875 0)"/>
     <use xlink:href="#DejaVuSans-48" transform="translate(1798.578125 0)"/>
     <use xlink:href="#DejaVuSans-44" transform="translate(1860.109375 0)"/>
     <use xlink:href="#DejaVuSans-47" transform="translate(1921.390625 0)"/>
    </g>
   </g>
  </g>
 </g>
 <defs>
  <clipPath id="p43347a9abf">
   <rect x="69.24" y="25.917188" width="557.664583" height="270.282812"/>
  </clipPath>
 </defs>
</svg>
