<?xml version="1.0" encoding="utf-8" standalone="no"?>
<!DOCTYPE svg PUBLIC "-//W3C//DTD SVG 1.1//EN"
  "http://www.w3.org/Graphics/SVG/1.1/DTD/svg11.dtd">
<svg xmlns:xlink="http://www.w3.org/1999/xlink" width="648pt" height="324pt" viewBox="0 0 648 324" xmlns="http://www.w3.org/2000/svg" version="1.1">
 <metadata>
  <rdf:RDF xmlns:dc="http://purl.org/dc/elements/1.1/" xmlns:cc="http://creativecommons.org/ns#" xmlns:rdf="http://www.w3.org/1999/02/22-rdf-syntax-ns#">
   <cc:Work>
    <dc:type rdf:resource="http://purl.org/dc/dcmitype/StillImage"/>
    <dc:date>2026-06-26T00:17:38.027139</dc:date>
    <dc:format>image/svg+xml</dc:format>
    <dc:creator>
     <cc:Agent>
      <dc:title>Matplotlib v3.11.0, https://matplotlib.org/</dc:title>
     </cc:Agent>
    </dc:creator>
   </cc:Work>
  </rdf:RDF>
 </metadata>
 <defs>
  <style type="text/css">*{stroke-linejoin: round; stroke-linecap: butt}</style>
 </defs>
 <g id="figure_1">
  <g id="patch_1">
   <path d="M 0 324 
L 648 324 
L 648 0 
L 0 0 
z
" style="fill: #ffffff"/>
  </g>
  <g id="axes_1">
   <g id="patch_2">
    <path d="M 51.24 296.2 
L 637.2 296.2 
L 637.2 25.917188 
L 51.24 25.917188 
z
" style="fill: #ffffff"/>
   </g>
   <g id="matplotlib.axis_1">
    <g id="xtick_1">
     <g id="line2d_1">
      <defs>
       <path id="m5069cbe97b" d="M 0 0 
L 0 3.5 
" style="stroke: #000000; stroke-width: 0.8"/>
      </defs>
      <g>
       <use xlink:href="#m5069cbe97b" x="135.667861" y="296.2" style="stroke: #000000; stroke-width: 0.8"/>
      </g>
     </g>
     <g id="text_1">
      <!-- 2022 -->
      <g transform="translate(122.942861 310.797656) scale(0.1 -0.1)">
       <defs>
        <path id="DejaVuSans-15" d="M 1228 531 
L 3431 531 
L 3431 0 
L 469 0 
L 469 531 
Q 828 903 1448 1529 
Q 2069 2156 2228 2338 
Q 2531 2678 2651 2914 
Q 2772 3150 2772 3378 
Q 2772 3750 2511 3984 
Q 2250 4219 1831 4219 
Q 1534 4219 1204 4116 
Q 875 4013 500 3803 
L 500 4441 
Q 881 4594 1212 4672 
Q 1544 4750 1819 4750 
Q 2544 4750 2975 4387 
Q 3406 4025 3406 3419 
Q 3406 3131 3298 2873 
Q 3191 2616 2906 2266 
Q 2828 2175 2409 1742 
Q 1991 1309 1228 531 
z
" transform="scale(0.015625)"/>
        <path id="DejaVuSans-13" d="M 2034 4250 
Q 1547 4250 1301 3770 
Q 1056 3291 1056 2328 
Q 1056 1369 1301 889 
Q 1547 409 2034 409 
Q 2525 409 2770 889 
Q 3016 1369 3016 2328 
Q 3016 3291 2770 3770 
Q 2525 4250 2034 4250 
z
M 2034 4750 
Q 2819 4750 3233 4129 
Q 3647 3509 3647 2328 
Q 3647 1150 3233 529 
Q 2819 -91 2034 -91 
Q 1250 -91 836 529 
Q 422 1150 422 2328 
Q 422 3509 836 4129 
Q 1250 4750 2034 4750 
z
" transform="scale(0.015625)"/>
       </defs>
       <use xlink:href="#DejaVuSans-15"/>
       <use xlink:href="#DejaVuSans-13" transform="translate(63.625 0)"/>
       <use xlink:href="#DejaVuSans-15" transform="translate(127.25 0)"/>
       <use xlink:href="#DejaVuSans-15" transform="translate(190.875 0)"/>
      </g>
     </g>
    </g>
    <g id="xtick_2">
     <g id="line2d_2">
      <g>
       <use xlink:href="#m5069cbe97b" x="242.206042" y="296.2" style="stroke: #000000; stroke-width: 0.8"/>
      </g>
     </g>
     <g id="text_2">
      <!-- 2023 -->
      <g transform="translate(229.481042 310.797656) scale(0.1 -0.1)">
       <defs>
        <path id="DejaVuSans-16" d="M 2597 2516 
Q 3050 2419 3304 2112 
Q 3559 1806 3559 1356 
Q 3559 666 3084 287 
Q 2609 -91 1734 -91 
Q 1441 -91 1130 -33 
Q 819 25 488 141 
L 488 750 
Q 750 597 1062 519 
Q 1375 441 1716 441 
Q 2309 441 2620 675 
Q 2931 909 2931 1356 
Q 2931 1769 2642 2001 
Q 2353 2234 1838 2234 
L 1294 2234 
L 1294 2753 
L 1863 2753 
Q 2328 2753 2575 2939 
Q 2822 3125 2822 3475 
Q 2822 3834 2567 4026 
Q 2313 4219 1838 4219 
Q 1578 4219 1281 4162 
Q 984 4106 628 3988 
L 628 4550 
Q 988 4650 1302 4700 
Q 1616 4750 1894 4750 
Q 2613 4750 3031 4423 
Q 3450 4097 3450 3541 
Q 3450 3153 3228 2886 
Q 3006 2619 2597 2516 
z
" transform="scale(0.015625)"/>
       </defs>
       <use xlink:href="#DejaVuSans-15"/>
       <use xlink:href="#DejaVuSans-13" transform="translate(63.625 0)"/>
       <use xlink:href="#DejaVuSans-15" transform="translate(127.25 0)"/>
       <use xlink:href="#DejaVuSans-16" transform="translate(190.875 0)"/>
      </g>
     </g>
    </g>
    <g id="xtick_3">
     <g id="line2d_3">
      <g>
       <use xlink:href="#m5069cbe97b" x="348.744224" y="296.2" style="stroke: #000000; stroke-width: 0.8"/>
      </g>
     </g>
     <g id="text_3">
      <!-- 2024 -->
      <g transform="translate(336.019224 310.797656) scale(0.1 -0.1)">
       <defs>
        <path id="DejaVuSans-17" d="M 2419 4116 
L 825 1625 
L 2419 1625 
L 2419 4116 
z
M 2253 4666 
L 3047 4666 
L 3047 1625 
L 3713 1625 
L 3713 1100 
L 3047 1100 
L 3047 0 
L 2419 0 
L 2419 1100 
L 313 1100 
L 313 1709 
L 2253 4666 
z
" transform="scale(0.015625)"/>
       </defs>
       <use xlink:href="#DejaVuSans-15"/>
       <use xlink:href="#DejaVuSans-13" transform="translate(63.625 0)"/>
       <use xlink:href="#DejaVuSans-15" transform="translate(127.25 0)"/>
       <use xlink:href="#DejaVuSans-17" transform="translate(190.875 0)"/>
      </g>
     </g>
    </g>
    <g id="xtick_4">
     <g id="line2d_4">
      <g>
       <use xlink:href="#m5069cbe97b" x="455.574291" y="296.2" style="stroke: #000000; stroke-width: 0.8"/>
      </g>
     </g>
     <g id="text_4">
      <!-- 2025 -->
      <g transform="translate(442.849291 310.797656) scale(0.1 -0.1)">
       <defs>
        <path id="DejaVuSans-18" d="M 691 4666 
L 3169 4666 
L 3169 4134 
L 1269 4134 
L 1269 2991 
Q 1406 3038 1543 3061 
Q 1681 3084 1819 3084 
Q 2600 3084 3056 2656 
Q 3513 2228 3513 1497 
Q 3513 744 3044 326 
Q 2575 -91 1722 -91 
Q 1428 -91 1123 -41 
Q 819 9 494 109 
L 494 744 
Q 775 591 1075 516 
Q 1375 441 1709 441 
Q 2250 441 2565 725 
Q 2881 1009 2881 1497 
Q 2881 1984 2565 2268 
Q 2250 2553 1709 2553 
Q 1456 2553 1204 2497 
Q 953 2441 691 2322 
L 691 4666 
z
" transform="scale(0.015625)"/>
       </defs>
       <use xlink:href="#DejaVuSans-15"/>
       <use xlink:href="#DejaVuSans-13" transform="translate(63.625 0)"/>
       <use xlink:href="#DejaVuSans-15" transform="translate(127.25 0)"/>
       <use xlink:href="#DejaVuSans-18" transform="translate(190.875 0)"/>
      </g>
     </g>
    </g>
    <g id="xtick_5">
     <g id="line2d_5">
      <g>
       <use xlink:href="#m5069cbe97b" x="562.112473" y="296.2" style="stroke: #000000; stroke-width: 0.8"/>
      </g>
     </g>
     <g id="text_5">
      <!-- 2026 -->
      <g transform="translate(549.387473 310.797656) scale(0.1 -0.1)">
       <defs>
        <path id="DejaVuSans-19" d="M 2113 2584 
Q 1688 2584 1439 2293 
Q 1191 2003 1191 1497 
Q 1191 994 1439 701 
Q 1688 409 2113 409 
Q 2538 409 2786 701 
Q 3034 994 3034 1497 
Q 3034 2003 2786 2293 
Q 2538 2584 2113 2584 
z
M 3366 4563 
L 3366 3988 
Q 3128 4100 2886 4159 
Q 2644 4219 2406 4219 
Q 1781 4219 1451 3797 
Q 1122 3375 1075 2522 
Q 1259 2794 1537 2939 
Q 1816 3084 2150 3084 
Q 2853 3084 3261 2657 
Q 3669 2231 3669 1497 
Q 3669 778 3244 343 
Q 2819 -91 2113 -91 
Q 1303 -91 875 529 
Q 447 1150 447 2328 
Q 447 3434 972 4092 
Q 1497 4750 2381 4750 
Q 2619 4750 2861 4703 
Q 3103 4656 3366 4563 
z
" transform="scale(0.015625)"/>
       </defs>
       <use xlink:href="#DejaVuSans-15"/>
       <use xlink:href="#DejaVuSans-13" transform="translate(63.625 0)"/>
       <use xlink:href="#DejaVuSans-15" transform="translate(127.25 0)"/>
       <use xlink:href="#DejaVuSans-19" transform="translate(190.875 0)"/>
      </g>
     </g>
    </g>
   </g>
   <g id="matplotlib.axis_2">
    <g id="ytick_1">
     <g id="line2d_6">
      <defs>
       <path id="m7c0ba40511" d="M 0 0 
L -3.5 0 
" style="stroke: #000000; stroke-width: 0.8"/>
      </defs>
      <g>
       <use xlink:href="#m7c0ba40511" x="51.24" y="257.23095" style="stroke: #000000; stroke-width: 0.8"/>
      </g>
     </g>
     <g id="text_6">
      <!-- 50 -->
      <g transform="translate(31.515 261.029778) scale(0.1 -0.1)">
       <use xlink:href="#DejaVuSans-18"/>
       <use xlink:href="#DejaVuSans-13" transform="translate(63.625 0)"/>
      </g>
     </g>
    </g>
    <g id="ytick_2">
     <g id="line2d_7">
      <g>
       <use xlink:href="#m7c0ba40511" x="51.24" y="202.394393" style="stroke: #000000; stroke-width: 0.8"/>
      </g>
     </g>
     <g id="text_7">
      <!-- 100 -->
      <g transform="translate(25.1525 206.193222) scale(0.1 -0.1)">
       <defs>
        <path id="DejaVuSans-14" d="M 794 531 
L 1825 531 
L 1825 4091 
L 703 3866 
L 703 4441 
L 1819 4666 
L 2450 4666 
L 2450 531 
L 3481 531 
L 3481 0 
L 794 0 
L 794 531 
z
" transform="scale(0.015625)"/>
       </defs>
       <use xlink:href="#DejaVuSans-14"/>
       <use xlink:href="#DejaVuSans-13" transform="translate(63.625 0)"/>
       <use xlink:href="#DejaVuSans-13" transform="translate(127.25 0)"/>
      </g>
     </g>
    </g>
    <g id="ytick_3">
     <g id="line2d_8">
      <g>
       <use xlink:href="#m7c0ba40511" x="51.24" y="147.557837" style="stroke: #000000; stroke-width: 0.8"/>
      </g>
     </g>
     <g id="text_8">
      <!-- 150 -->
      <g transform="translate(25.1525 151.356665) scale(0.1 -0.1)">
       <use xlink:href="#DejaVuSans-14"/>
       <use xlink:href="#DejaVuSans-18" transform="translate(63.625 0)"/>
       <use xlink:href="#DejaVuSans-13" transform="translate(127.25 0)"/>
      </g>
     </g>
    </g>
    <g id="ytick_4">
     <g id="line2d_9">
      <g>
       <use xlink:href="#m7c0ba40511" x="51.24" y="92.721281" style="stroke: #000000; stroke-width: 0.8"/>
      </g>
     </g>
     <g id="text_9">
      <!-- 200 -->
      <g transform="translate(25.1525 96.520109) scale(0.1 -0.1)">
       <use xlink:href="#DejaVuSans-15"/>
       <use xlink:href="#DejaVuSans-13" transform="translate(63.625 0)"/>
       <use xlink:href="#DejaVuSans-13" transform="translate(127.25 0)"/>
      </g>
     </g>
    </g>
    <g id="ytick_5">
     <g id="line2d_10">
      <g>
       <use xlink:href="#m7c0ba40511" x="51.24" y="37.884725" style="stroke: #000000; stroke-width: 0.8"/>
      </g>
     </g>
     <g id="text_10">
      <!-- 250 -->
      <g transform="translate(25.1525 41.683553) scale(0.1 -0.1)">
       <use xlink:href="#DejaVuSans-15"/>
       <use xlink:href="#DejaVuSans-18" transform="translate(63.625 0)"/>
       <use xlink:href="#DejaVuSans-13" transform="translate(127.25 0)"/>
      </g>
     </g>
    </g>
    <g id="text_11">
     <!-- Price -->
     <g transform="translate(18.750156 173.25625) rotate(-90) scale(0.1 -0.1)">
      <defs>
       <path id="DejaVuSans-33" d="M 1259 4147 
L 1259 2394 
L 2053 2394 
Q 2494 2394 2734 2622 
Q 2975 2850 2975 3272 
Q 2975 3691 2734 3919 
Q 2494 4147 2053 4147 
L 1259 4147 
z
M 628 4666 
L 2053 4666 
Q 2838 4666 3239 4311 
Q 3641 3956 3641 3272 
Q 3641 2581 3239 2228 
Q 2838 1875 2053 1875 
L 1259 1875 
L 1259 0 
L 628 0 
L 628 4666 
z
" transform="scale(0.015625)"/>
       <path id="DejaVuSans-55" d="M 2631 2963 
Q 2534 3019 2420 3045 
Q 2306 3072 2169 3072 
Q 1681 3072 1420 2755 
Q 1159 2438 1159 1844 
L 1159 0 
L 581 0 
L 581 3500 
L 1159 3500 
L 1159 2956 
Q 1341 3275 1631 3429 
Q 1922 3584 2338 3584 
Q 2397 3584 2469 3576 
Q 2541 3569 2628 3553 
L 2631 2963 
z
" transform="scale(0.015625)"/>
       <path id="DejaVuSans-4c" d="M 603 3500 
L 1178 3500 
L 1178 0 
L 603 0 
L 603 3500 
z
M 603 4863 
L 1178 4863 
L 1178 4134 
L 603 4134 
L 603 4863 
z
" transform="scale(0.015625)"/>
       <path id="DejaVuSans-46" d="M 3122 3366 
L 3122 2828 
Q 2878 2963 2633 3030 
Q 2388 3097 2138 3097 
Q 1578 3097 1268 2742 
Q 959 2388 959 1747 
Q 959 1106 1268 751 
Q 1578 397 2138 397 
Q 2388 397 2633 464 
Q 2878 531 3122 666 
L 3122 134 
Q 2881 22 2623 -34 
Q 2366 -91 2075 -91 
Q 1284 -91 818 406 
Q 353 903 353 1747 
Q 353 2603 823 3093 
Q 1294 3584 2113 3584 
Q 2378 3584 2631 3529 
Q 2884 3475 3122 3366 
z
" transform="scale(0.015625)"/>
       <path id="DejaVuSans-48" d="M 3597 1894 
L 3597 1613 
L 953 1613 
Q 991 1019 1311 708 
Q 1631 397 2203 397 
Q 2534 397 2845 478 
Q 3156 559 3463 722 
L 3463 178 
Q 3153 47 2828 -22 
Q 2503 -91 2169 -91 
Q 1331 -91 842 396 
Q 353 884 353 1716 
Q 353 2575 817 3079 
Q 1281 3584 2069 3584 
Q 2775 3584 3186 3129 
Q 3597 2675 3597 1894 
z
M 3022 2063 
Q 3016 2534 2758 2815 
Q 2500 3097 2075 3097 
Q 1594 3097 1305 2825 
Q 1016 2553 972 2059 
L 3022 2063 
z
" transform="scale(0.015625)"/>
      </defs>
      <use xlink:href="#DejaVuSans-33"/>
      <use xlink:href="#DejaVuSans-55" transform="translate(58.546875 0)"/>
      <use xlink:href="#DejaVuSans-4c" transform="translate(99.65625 0)"/>
      <use xlink:href="#DejaVuSans-46" transform="translate(127.4375 0)"/>
      <use xlink:href="#DejaVuSans-48" transform="translate(182.421875 0)"/>
     </g>
    </g>
   </g>
   <g id="line2d_11">
    <path d="M 77.874545 115.75153 
L 78.166431 112.42186 
L 79.042087 112.056656 
L 79.333973 109.132771 
L 79.625858 109.381717 
L 79.917743 112.150974 
L 80.209629 113.293759 
L 81.085285 109.756811 
L 81.377171 110.403878 
L 81.669056 113.244408 
L 82.252827 113.751104 
L 83.420369 101.894339 
L 83.712254 103.835557 
L 84.004139 110.485042 
L 84.296025 107.749791 
L 85.171681 107.82985 
L 85.463567 103.703955 
L 85.755452 111.361326 
L 86.047337 113.033834 
L 86.339223 112.503023 
L 87.214879 106.417267 
L 87.79865 95.791027 
L 88.090535 92.336331 
L 88.382421 85.214155 
L 90.425619 106.649763 
L 91.593161 102.583092 
L 91.885046 97.951589 
L 92.468817 101.99304 
L 93.344473 98.328875 
L 93.636359 102.324255 
L 93.928244 108.3497 
L 94.22013 105.716447 
L 94.512015 106.46881 
L 95.679557 106.885556 
L 95.971442 105.14067 
L 96.263328 105.761414 
L 96.555213 107.861646 
L 97.430869 106.286752 
L 97.722755 99.322503 
L 98.01464 97.828756 
L 98.306526 101.447972 
L 98.598411 99.944351 
L 99.474067 97.985594 
L 99.765953 100.772388 
L 100.057838 99.020908 
L 100.349724 99.855523 
L 100.641609 98.590992 
L 101.809151 98.777434 
L 102.101036 106.400816 
L 102.392922 103.48898 
L 102.684807 105.684651 
L 103.560463 107.342901 
L 103.852349 110.385236 
L 104.144234 107.920871 
L 104.43612 106.946973 
L 104.728005 104.211739 
L 105.603661 110.751544 
L 105.895547 109.907056 
L 106.187432 106.768212 
L 106.479318 107.28038 
L 106.771203 111.553257 
L 107.646859 112.168512 
L 107.938745 121.795617 
L 108.23063 123.658969 
L 108.522516 123.515301 
L 108.814401 124.847825 
L 109.690057 130.585917 
L 109.981943 130.447737 
L 110.565714 119.392686 
L 110.857599 123.72149 
L 112.025141 126.619052 
L 112.317026 121.162808 
L 112.608912 121.057529 
L 112.900797 118.673224 
L 114.068339 110.617732 
L 114.360224 110.921536 
L 114.65211 109.108639 
L 114.943995 118.567945 
L 115.819651 118.401233 
L 116.111537 126.870191 
L 116.403422 127.633515 
L 116.695308 114.651519 
L 116.987193 113.886003 
L 117.862849 104.803966 
L 118.154735 111.224234 
L 118.44662 109.018706 
L 118.738506 101.534608 
L 119.030391 103.406728 
L 119.906047 102.510698 
L 120.197933 99.817133 
L 120.489818 109.958599 
L 120.781704 106.139787 
L 121.073589 82.301231 
L 121.949245 84.734888 
L 122.241131 81.241802 
L 122.533016 85.483954 
L 122.824902 79.728308 
L 123.116787 77.386793 
L 124.284329 93.385903 
L 124.576214 86.140895 
L 125.159985 92.288068 
L 126.035641 92.721281 
L 126.619412 106.622352 
L 126.911298 108.744524 
L 127.203183 113.59537 
L 128.078839 112.075299 
L 128.370725 101.004885 
L 128.66261 101.243975 
L 128.954496 103.785102 
L 129.246381 108.380408 
L 130.122037 115.516842 
L 130.413923 121.184747 
L 130.705808 119.74584 
L 130.997694 126.315249 
L 131.289579 125.034268 
L 132.165235 129.767769 
L 132.457121 117.928542 
L 132.749006 117.214569 
L 133.040892 110.268979 
L 134.792204 116.688143 
L 135.08409 116.683758 
L 135.375975 121.050936 
L 136.835402 146.082733 
L 137.127288 148.932048 
L 137.419173 153.460448 
L 138.294829 154.808319 
L 138.586715 152.299004 
L 138.8786 151.741869 
L 139.170486 165.866667 
L 139.462371 160.491587 
L 140.629913 167.184933 
L 140.921798 170.608938 
L 141.213684 171.445744 
L 141.505569 190.286481 
L 142.381225 181.725398 
L 142.673111 188.162117 
L 142.964996 191.298768 
L 143.256882 198.004181 
L 143.548767 189.893849 
L 144.424423 177.504081 
L 144.716309 175.237136 
L 145.30008 199.352059 
L 145.591965 189.426647 
L 146.467621 191.817522 
L 146.759507 189.718377 
L 147.051392 183.728033 
L 147.635163 192.573164 
L 148.510819 193.735705 
L 148.802705 187.849544 
L 149.09459 209.094325 
L 149.386476 220.261241 
L 149.678361 220.271114 
L 150.845903 224.237987 
L 151.137788 224.414564 
L 151.429674 218.777367 
L 151.721559 217.75411 
L 152.597215 215.563944 
L 153.472872 222.921913 
L 153.764757 228.205964 
L 154.640413 233.252022 
L 154.932299 239.258815 
L 155.224184 229.363008 
L 155.51607 234.516553 
L 156.683611 239.99692 
L 156.975497 234.527523 
L 157.267382 225.514584 
L 157.851153 217.783722 
L 158.726809 217.686116 
L 159.018695 211.990791 
L 159.31058 215.074795 
L 159.602466 215.271111 
L 159.894351 219.212764 
L 160.770007 215.701036 
L 161.061893 210.117574 
L 161.645664 219.342183 
L 161.937549 217.122397 
L 162.813205 212.50516 
L 163.105091 215.722967 
L 163.396976 221.870148 
L 163.688862 223.109451 
L 163.980747 228.937484 
L 164.856403 226.520286 
L 165.148289 230.116466 
L 165.440174 228.806969 
L 165.73206 231.794464 
L 166.899601 231.629952 
L 167.191487 228.208157 
L 167.483372 239.897114 
L 167.775258 245.761335 
L 168.067143 247.899962 
L 168.9428 247.992087 
L 169.234685 251.849288 
L 169.52657 253.54374 
L 169.818456 249.756728 
L 170.110341 251.798841 
L 171.277883 246.577303 
L 171.569768 244.256618 
L 171.861654 253.981334 
L 172.153539 258.758698 
L 173.029196 263.549219 
L 173.321081 264.151324 
L 173.612966 266.617869 
L 174.196737 255.067099 
L 175.072394 261.314079 
L 175.364279 259.694206 
L 175.656164 261.08267 
L 175.94805 257.047796 
L 176.239935 260.926932 
L 177.407477 266.421557 
L 177.699362 265.261213 
L 178.283133 260.595721 
L 179.450675 259.989228 
L 179.74256 261.910699 
L 180.034446 257.105924 
L 180.326331 263.248713 
L 181.201988 262.436034 
L 181.493873 259.806074 
L 181.785758 258.203751 
L 182.369529 263.279421 
L 183.537071 268.960489 
L 183.828956 265.980671 
L 184.120842 268.798174 
L 184.412727 266.790058 
L 185.580269 265.583655 
L 185.872154 263.960493 
L 186.455925 257.550099 
L 187.331582 259.347641 
L 188.207238 267.956979 
L 189.666665 263.416512 
L 189.95855 264.842262 
L 190.250436 261.804316 
L 190.542321 261.530134 
L 191.417978 266.004798 
L 191.709863 265.840287 
L 192.001748 266.322852 
L 192.293634 268.011818 
L 193.461176 265.741581 
L 193.753061 263.559089 
L 194.044946 257.603838 
L 194.336832 255.004587 
L 194.628717 259.161194 
L 195.504374 260.400502 
L 195.796259 267.441518 
L 196.088144 262.528163 
L 196.38003 261.563038 
L 196.671915 263.14233 
L 197.839457 258.766375 
L 198.131342 253.008536 
L 198.423228 254.214939 
L 198.715113 254.225904 
L 199.59077 256.013577 
L 199.882655 260.20309 
L 200.17454 255.147159 
L 200.466426 255.410376 
L 200.758311 255.037487 
L 201.633968 255.651658 
L 201.925853 256.309695 
L 202.217738 259.281836 
L 202.509624 259.72053 
L 202.801509 263.339742 
L 203.677166 264.633885 
L 203.969051 265.938993 
L 204.552822 263.394577 
L 204.844707 265.752551 
L 205.720364 266.498328 
L 206.012249 267.002824 
L 206.304134 266.465424 
L 206.59602 266.937018 
L 206.887905 268.702756 
L 208.055447 269.020809 
L 208.639218 266.191241 
L 208.931103 262.374617 
L 209.80676 261.990763 
L 210.098645 264.776461 
L 210.390531 263.416512 
L 210.682416 262.933952 
L 210.974301 265.829322 
L 211.849958 264.228095 
L 212.141843 266.717675 
L 212.433729 267.002824 
L 212.725614 269.821422 
L 213.017499 269.18532 
L 213.893156 269.503369 
L 214.185041 270.040769 
L 214.476927 268.351802 
L 214.768812 271.839408 
L 215.060697 271.280077 
L 215.936354 270.61107 
L 216.228239 265.335792 
L 216.81201 266.750576 
L 217.103895 271.1046 
L 218.271437 273.276127 
L 218.563323 272.661956 
L 219.147093 272.343903 
L 220.02275 270.260116 
L 220.314635 268.724691 
L 220.606521 269.251122 
L 220.898406 267.167335 
L 222.065948 268.757592 
L 222.357833 267.507319 
L 222.649719 268.790497 
L 222.941604 261.376592 
L 223.233489 261.014673 
L 224.109146 260.839196 
L 224.401031 260.049548 
L 224.692917 261.650775 
L 224.984802 261.201115 
L 225.276687 264.546144 
L 226.152344 264.348736 
L 226.444229 263.71263 
L 226.736115 266.257046 
L 227.028 258.711535 
L 227.319885 254.664599 
L 228.195542 256.002612 
L 228.487427 253.677539 
L 228.779313 255.76133 
L 229.363083 258.305746 
L 230.23874 260.126319 
L 230.530625 260.301796 
L 230.822511 258.185104 
L 231.406281 258.130269 
L 232.281938 255.76133 
L 232.573823 256.73742 
L 233.157594 248.139048 
L 233.449479 248.500971 
L 234.325136 251.242799 
L 234.617021 253.710444 
L 234.908907 254.478156 
L 235.492677 254.598793 
L 236.368334 254.730404 
L 236.660219 254.434286 
L 236.952105 255.234899 
L 237.24399 257.549003 
L 238.411532 258.908947 
L 238.703417 258.316715 
L 238.995303 258.042532 
L 239.579073 261.804316 
L 241.038501 263.372642 
L 241.330386 259.906972 
L 241.622271 260.510177 
L 242.789813 258.557993 
L 243.081699 256.561943 
L 243.373584 258.514123 
L 243.665469 257.71351 
L 244.541126 257.439327 
L 244.833011 258.316715 
L 245.124897 258.415421 
L 245.416782 258.20704 
L 245.708667 254.938781 
L 246.876209 253.35949 
L 247.168095 254.061397 
L 247.45998 255.816165 
L 247.751866 252.668548 
L 248.627522 247.459075 
L 248.919407 249.455126 
L 249.211293 242.600556 
L 249.503178 241.416089 
L 249.795064 238.959405 
L 250.67072 242.743132 
L 250.962605 240.154846 
L 251.254491 238.816833 
L 251.546376 233.771871 
L 251.838262 234.276367 
L 253.005803 236.59047 
L 253.297689 238.608451 
L 253.589574 238.740062 
L 253.88146 241.394149 
L 254.757116 240.747082 
L 255.049001 238.783932 
L 255.340887 233.717032 
L 255.632772 245.835914 
L 255.924658 247.689388 
L 257.092199 250.584757 
L 257.384085 249.542866 
L 257.67597 249.137073 
L 257.967856 251.275699 
L 258.843512 251.813099 
L 259.135397 250.453151 
L 259.427283 252.251789 
L 259.719168 250.683463 
L 260.011054 247.371335 
L 260.88671 247.141022 
L 261.178595 248.018406 
L 261.470481 245.989456 
L 261.762366 246.844904 
L 262.054252 249.191908 
L 262.929908 249.137073 
L 263.221793 246.395245 
L 263.513679 246.351379 
L 263.805564 244.815954 
L 264.09745 244.772083 
L 264.973106 246.340409 
L 265.264991 243.269563 
L 265.556877 244.410164 
L 265.848762 243.203757 
L 266.140648 244.366294 
L 267.016304 244.530801 
L 267.308189 245.989456 
L 267.600075 242.633457 
L 267.89196 243.072151 
L 268.183846 240.999326 
L 269.059502 241.909614 
L 269.351387 241.854783 
L 269.643273 245.331419 
L 269.935158 244.969495 
L 271.1027 244.90369 
L 271.394585 245.901715 
L 271.686471 245.287548 
L 271.978356 245.177873 
L 273.437783 239.770992 
L 273.729669 239.672282 
L 274.021554 241.273508 
L 274.31344 239.387138 
L 275.189096 240.758052 
L 275.480981 242.600556 
L 275.772867 242.666362 
L 276.356638 240.078075 
L 277.816065 242.918609 
L 278.10795 226.906332 
L 278.399836 220.994952 
L 279.275492 217.606057 
L 279.567377 218.296995 
L 279.859263 219.305985 
L 280.151148 218.922131 
L 280.443034 220.907212 
L 281.31869 221.005922 
L 281.610575 223.078743 
L 282.194346 221.905241 
L 282.486232 222.892301 
L 283.653773 225.677999 
L 283.945659 224.131604 
L 284.237544 225.78767 
L 284.52943 223.572269 
L 285.696971 225.272205 
L 285.988857 226.884401 
L 286.280742 226.654089 
L 286.572628 226.248295 
L 287.448284 223.714849 
L 287.740169 218.461506 
L 288.032055 224.690939 
L 288.32394 225.239305 
L 288.615826 222.267164 
L 289.491482 216.695768 
L 289.783367 218.85633 
L 290.075253 215.719678 
L 290.367138 216.169334 
L 290.659024 218.264094 
L 291.826565 218.81246 
L 292.118451 220.863342 
L 292.410336 220.523358 
L 292.702222 219.82145 
L 293.577878 220.874311 
L 293.869763 219.83242 
L 294.161649 218.132483 
L 294.453534 219.437596 
L 294.74542 218.165384 
L 296.204847 218.220224 
L 296.496732 221.422677 
L 296.788618 222.245225 
L 297.664274 221.927172 
L 297.956159 220.380786 
L 298.248045 216.7506 
L 298.53993 210.905029 
L 298.831816 212.758499 
L 299.707472 212.670767 
L 299.999357 214.93003 
L 300.291243 213.460406 
L 300.583128 217.518317 
L 300.875014 216.969951 
L 301.75067 216.487387 
L 302.042555 218.165384 
L 302.334441 218.406666 
L 302.626326 219.218245 
L 302.918212 216.213204 
L 304.085753 213.778459 
L 304.669524 225.546388 
L 304.96141 227.048913 
L 306.128951 229.450748 
L 306.420837 230.788762 
L 306.712722 228.803681 
L 307.004608 230.59135 
L 307.880264 229.406878 
L 308.172149 230.141694 
L 308.464035 229.911373 
L 308.75592 233.037064 
L 309.047806 233.124796 
L 309.923462 231.940333 
L 310.215347 231.786791 
L 310.507233 227.805652 
L 310.799118 229.461718 
L 311.091004 229.187535 
L 311.96666 228.014033 
L 312.258545 224.581268 
L 312.550431 223.001972 
L 312.842316 213.482346 
L 313.134202 212.561087 
L 314.301743 213.635887 
L 314.593629 213.570086 
L 314.885514 214.84229 
L 315.1774 217.759599 
L 316.053056 215.895151 
L 316.344941 218.384735 
L 316.636827 218.955032 
L 316.928712 218.033782 
L 317.220598 218.922131 
L 318.680025 227.904362 
L 318.97191 232.653201 
L 319.263796 233.57446 
L 320.139452 232.982224 
L 320.431337 235.691151 
L 320.723223 235.252457 
L 321.306994 230.755861 
L 322.18265 231.084884 
L 322.474535 234.813763 
L 322.766421 232.850613 
L 323.058306 233.640261 
L 323.350192 231.71002 
L 324.517733 230.032014 
L 325.101504 231.962263 
L 325.39339 234.824732 
L 326.269046 232.521599 
L 326.560932 231.019074 
L 327.144702 234.089925 
L 327.436588 235.186656 
L 328.312244 235.449869 
L 328.60413 233.245437 
L 328.896015 238.696192 
L 329.1879 241.295448 
L 329.479786 241.49286 
L 330.355442 240.933524 
L 330.647328 240.242587 
L 330.939213 237.862674 
L 331.231098 222.047813 
L 331.522984 219.87629 
L 332.39864 221.269135 
L 332.982411 217.101562 
L 333.274296 220.567228 
L 333.566182 219.207284 
L 334.441838 217.682828 
L 335.025609 210.236023 
L 335.317494 210.411495 
L 335.60938 209.117352 
L 336.485036 207.384523 
L 336.776922 207.285813 
L 337.068807 205.542015 
L 337.652578 206.496165 
L 338.528234 201.835058 
L 338.82012 202.580836 
L 339.112005 202.701477 
L 339.40389 203.655636 
L 339.695776 202.701477 
L 340.571432 204.368513 
L 340.863318 200.661556 
L 341.155203 206.00264 
L 341.738974 203.940788 
L 342.61463 203.622735 
L 342.906516 203.99562 
L 343.198401 202.690507 
L 343.490286 198.095209 
L 343.782172 199.071299 
L 344.657828 198.775177 
L 344.949714 197.459103 
L 345.241599 201.527975 
L 345.533484 201.15509 
L 345.82537 200.343503 
L 347.284797 198.577765 
L 347.576682 197.316531 
L 347.868568 198.928719 
L 349.03611 204.160131 
L 349.327995 206.869058 
L 349.911766 202.855019 
L 350.787422 198.270682 
L 351.079308 194.399223 
L 351.371193 193.116049 
L 351.663078 192.633485 
L 351.954964 192.381241 
L 353.122506 191.657395 
L 353.414391 193.072179 
L 353.706276 197.338462 
L 353.998162 194.16891 
L 354.873818 193.335392 
L 355.165704 192.183829 
L 355.457589 192.249631 
L 355.749474 193.083149 
L 356.04136 191.778036 
L 356.917016 189.200719 
L 357.208902 191.065159 
L 357.500787 194.026338 
L 357.792672 199.433223 
L 358.084558 189.661344 
L 358.960214 191.218701 
L 359.2521 191.459983 
L 359.83587 182.400981 
L 360.127756 178.145668 
L 361.003412 180.580412 
L 361.295298 197.075249 
L 361.879068 188.103988 
L 362.170954 191.843837 
L 363.338496 195.484984 
L 363.630381 200.113191 
L 363.922267 201.10025 
L 364.214152 199.180971 
L 365.089808 197.15202 
L 365.673579 199.553864 
L 365.965465 198.347453 
L 366.25735 198.150041 
L 367.133006 199.257742 
L 367.424892 202.536965 
L 367.716777 202.317623 
L 368.300548 199.323543 
L 369.176204 201.209922 
L 369.46809 199.082269 
L 369.759975 195.846907 
L 370.051861 195.737236 
L 370.343746 197.481034 
L 371.511288 196.702356 
L 371.803173 191.767066 
L 372.095059 193.971498 
L 372.386944 194.574704 
L 373.2626 195.287572 
L 373.846371 195.046298 
L 374.138257 197.459103 
L 375.305798 195.649495 
L 375.597684 195.803037 
L 375.889569 199.795138 
L 376.181455 200.891869 
L 376.47334 199.882878 
L 377.348996 201.297662 
L 377.640882 200.584785 
L 377.932767 204.08336 
L 378.224653 204.708497 
L 378.516538 206.309723 
L 379.392194 208.415445 
L 379.68408 207.96579 
L 379.975965 207.198073 
L 380.267851 207.01163 
L 380.559736 206.97873 
L 381.435392 206.068441 
L 381.727278 201.187991 
L 382.311049 206.419395 
L 382.602934 205.169122 
L 383.47859 203.458224 
L 383.770476 206.068441 
L 384.062361 205.849098 
L 384.354247 204.05046 
L 384.646132 200.354473 
L 385.521788 196.16496 
L 385.813674 196.088189 
L 386.105559 217.573148 
L 386.397445 218.417636 
L 386.68933 223.69291 
L 387.564986 223.999993 
L 387.856872 225.217365 
L 388.148757 224.350947 
L 388.440643 225.721861 
L 388.732528 224.734809 
L 389.90007 226.686989 
L 390.191955 223.879352 
L 390.775726 226.66505 
L 391.943268 224.976083 
L 392.235153 224.285146 
L 392.527039 224.230314 
L 392.818924 223.605169 
L 393.69458 222.80456 
L 393.986466 221.071723 
L 394.278351 220.117572 
L 394.570237 219.931122 
L 396.029664 215.752579 
L 396.321549 213.482346 
L 396.613435 214.579077 
L 396.90532 210.137312 
L 397.780976 211.90305 
L 398.072862 215.401625 
L 398.656633 216.191273 
L 398.948518 214.392635 
L 399.824174 215.752579 
L 400.11606 215.039702 
L 400.699831 212.330775 
L 400.991716 212.912041 
L 402.159258 212.999781 
L 402.451143 211.343723 
L 403.034914 210.959861 
L 403.91057 211.266944 
L 404.202456 213.219133 
L 404.494341 214.074582 
L 404.786227 214.370695 
L 405.078112 215.006801 
L 405.953768 215.752579 
L 406.245654 207.527095 
L 406.537539 214.776489 
L 406.829425 217.134462 
L 407.12131 216.915111 
L 407.996966 217.463477 
L 408.288852 217.342836 
L 408.580737 222.278126 
L 408.872623 221.916211 
L 409.164508 221.115593 
L 410.040164 221.104624 
L 410.33205 222.135554 
L 410.623935 219.327925 
L 411.207706 229.363008 
L 412.375248 230.295236 
L 412.667133 215.697739 
L 412.959019 208.810269 
L 413.250904 207.735477 
L 414.12656 209.084452 
L 414.710331 204.346573 
L 415.002217 199.345482 
L 415.294102 200.157061 
L 416.169758 199.685466 
L 416.461644 200.211901 
L 416.753529 198.511964 
L 417.045415 201.11122 
L 417.3373 199.213872 
L 418.212956 201.187991 
L 418.504842 202.164081 
L 418.796727 204.851069 
L 419.380498 202.602775 
L 420.54804 206.145212 
L 420.839925 207.98772 
L 421.131811 208.163201 
L 421.423696 212.385615 
L 422.591238 210.323763 
L 422.883123 205.607816 
L 423.175009 205.860068 
L 423.466894 204.105291 
L 424.34255 202.416324 
L 424.926321 199.652566 
L 425.218207 195.002428 
L 425.510092 194.980489 
L 426.385748 193.368293 
L 426.677634 193.664415 
L 426.969519 194.837917 
L 427.261405 192.699294 
L 427.55329 194.596634 
L 428.428946 193.23669 
L 428.720832 195.835938 
L 429.012717 194.903718 
L 429.304603 195.835938 
L 429.596488 189.332322 
L 430.472144 191.218701 
L 431.055915 186.601464 
L 431.347801 187.248539 
L 431.639686 186.39309 
L 433.099113 188.663323 
L 433.390999 188.520743 
L 433.682884 186.820815 
L 434.55854 186.656304 
L 434.850426 188.367201 
L 435.142311 191.22967 
L 435.434197 190.801946 
L 435.726082 191.602563 
L 436.601738 190.363252 
L 436.893624 189.17878 
L 437.185509 190.056168 
L 437.477395 192.611554 
L 437.76928 191.14193 
L 438.644936 192.458012 
L 438.936822 191.273541 
L 439.812478 179.088857 
L 440.688134 174.570322 
L 440.98002 145.079231 
L 441.271905 135.274452 
L 441.563791 143.796058 
L 441.855676 144.410224 
L 442.731333 149.213895 
L 443.023218 151.955723 
L 443.315103 152.668608 
L 443.606989 148.86295 
L 443.898874 148.128142 
L 445.066416 139.145912 
L 445.358301 139.003331 
L 445.942072 134.572545 
L 447.109614 139.365255 
L 447.401499 136.996311 
L 447.693385 136.502786 
L 447.98527 128.310203 
L 448.860927 132.839708 
L 449.152812 135.702177 
L 449.444697 129.670155 
L 449.736583 132.017159 
L 450.028468 133.059051 
L 450.904125 130.755909 
L 451.19601 124.658086 
L 451.487895 138.389165 
L 451.779781 143.072211 
L 452.071666 140.187803 
L 452.947323 139.82588 
L 453.239208 137.138892 
L 454.114864 140.94455 
L 454.990521 144.048301 
L 455.282406 144.278605 
L 455.866177 142.172884 
L 456.158062 138.926569 
L 457.033719 132.565525 
L 457.325604 143.87282 
L 457.617489 142.205784 
L 458.20126 147.864921 
L 459.076917 151.429297 
L 459.368802 152.142165 
L 459.660687 148.193943 
L 459.952573 148.643607 
L 460.244458 148.051363 
L 461.703885 144.234743 
L 461.995771 144.640529 
L 462.287656 142.655448 
L 463.163313 142.78705 
L 463.455198 126.500603 
L 463.747083 127.312174 
L 464.038969 122.815586 
L 464.330854 126.050939 
L 465.206511 129.384995 
L 465.790281 120.819527 
L 466.082167 125.656116 
L 466.374052 128.1786 
L 467.249709 123.923278 
L 467.541594 118.417683 
L 467.833479 123.342012 
L 468.125365 113.537233 
L 468.41725 112.550182 
L 469.584792 110.872185 
L 469.876677 112.824365 
L 470.168563 120.17246 
L 470.460448 131.677175 
L 471.336105 131.512656 
L 471.62799 137.928539 
L 471.919875 133.804836 
L 472.211761 136.513747 
L 472.503646 134.353202 
L 473.379303 142.567707 
L 473.671188 150.584809 
L 473.963073 145.177933 
L 474.254959 151.242855 
L 474.546844 154.302727 
L 475.422501 165.182315 
L 475.714386 165.149397 
L 476.006271 159.797361 
L 476.298157 168.702812 
L 476.590042 162.55015 
L 477.465699 160.696672 
L 477.757584 164.688772 
L 478.049469 152.482166 
L 478.341355 152.273785 
L 478.63324 148.051363 
L 479.508897 140.374245 
L 479.800782 140.067162 
L 480.092667 148.91779 
L 480.384553 151.264794 
L 480.676438 160.444428 
L 481.552095 161.925022 
L 481.84398 158.832232 
L 482.135866 153.940821 
L 482.427751 184.978306 
L 482.719636 192.063188 
L 483.595293 188.893636 
L 483.887178 191.602563 
L 484.179064 170.490489 
L 484.470949 182.368081 
L 484.762834 184.418971 
L 485.638491 186.107938 
L 485.930376 183.344171 
L 486.514147 184.813795 
L 487.973574 182.126799 
L 488.557345 167.551241 
L 488.84923 164.370727 
L 490.016772 161.968884 
L 490.308658 168.264126 
L 490.892428 161.804381 
L 491.768085 163.076576 
L 492.05997 170.325969 
L 492.351856 168.077684 
L 492.643741 168.527331 
L 492.935626 171.707853 
L 494.395054 141.163893 
L 494.686939 143.247692 
L 494.978824 142.172884 
L 496.146366 149.718399 
L 496.438252 156.52909 
L 496.730137 155.026574 
L 497.022022 159.062553 
L 498.189564 150.288704 
L 498.48145 149.444216 
L 498.773335 149.082293 
L 499.06522 151.242855 
L 499.940877 152.021541 
L 500.524648 156.649731 
L 500.816533 154.653689 
L 501.108418 144.728269 
L 501.984075 150.244825 
L 502.27596 146.691427 
L 502.567846 140.977451 
L 503.151616 155.037552 
L 504.027273 150.771252 
L 504.319158 152.62473 
L 504.611044 152.745371 
L 505.194814 151.692518 
L 506.070471 146.472068 
L 506.362356 139.847819 
L 506.654242 140.791008 
L 506.946127 142.940592 
L 507.238012 141.273573 
L 508.113669 139.814918 
L 508.69744 141.021313 
L 508.989325 137.369213 
L 510.156867 137.325334 
L 510.448752 143.181874 
L 510.740638 140.440046 
L 511.032523 139.409133 
L 511.324408 143.807019 
L 512.200065 136.645366 
L 512.49195 138.93753 
L 512.783836 132.071999 
L 513.075721 121.00597 
L 513.367606 120.841467 
L 514.243263 119.273149 
L 514.535148 127.323152 
L 514.827034 129.944338 
L 515.118919 129.439835 
L 515.410804 124.943247 
L 516.286461 121.060809 
L 516.870232 125.25033 
L 517.162117 126.314161 
L 517.454002 132.609387 
L 518.621544 119.964078 
L 518.91343 78.66118 
L 519.205315 84.429997 
L 519.4972 86.338298 
L 520.372857 89.014325 
L 520.664742 86.360237 
L 520.956628 85.285446 
L 521.248513 93.313509 
L 521.540399 97.546892 
L 522.416055 95.243766 
L 522.70794 100.332598 
L 522.999826 103.217006 
L 523.291711 103.578913 
L 523.583597 96.537901 
L 524.459253 98.347517 
L 524.751138 98.358479 
L 525.043024 100.365499 
L 525.334909 98.446219 
L 525.626795 99.323607 
L 526.794336 101.813175 
L 527.086222 99.860995 
L 527.378107 91.865832 
L 527.669993 89.058203 
L 528.545649 90.637499 
L 528.837534 94.004455 
L 529.12942 95.770192 
L 529.421305 92.008413 
L 529.713191 94.377339 
L 530.588847 88.69628 
L 530.880732 90.154934 
L 531.172618 88.805943 
L 531.464503 82.039114 
L 532.632045 73.78073 
L 532.92393 84.528698 
L 533.215816 85.219644 
L 533.799587 97.766251 
L 534.675243 84.53966 
L 534.967128 85.307385 
L 535.259014 83.267464 
L 535.550899 80.394017 
L 535.842785 65.423644 
L 536.718441 60.345774 
L 537.010326 65.193323 
L 537.302212 57.16526 
L 537.594097 59.95095 
L 537.885983 80.229514 
L 539.053524 76.445795 
L 539.34541 71.422765 
L 539.929181 69.766707 
L 540.804837 58.338754 
L 541.096722 62.056672 
L 541.388608 63.592105 
L 541.972379 46.526972 
L 542.848035 43.181939 
L 543.13992 38.553732 
L 543.431806 38.20277 
L 543.723691 45.616683 
L 544.015577 44.618654 
L 544.891233 45.605705 
L 545.183118 62.857298 
L 545.475004 59.128402 
L 545.766889 70.424736 
L 546.058775 77.125763 
L 546.934431 67.836449 
L 547.226316 67.81451 
L 547.518202 71.345986 
L 547.810087 86.272497 
L 548.101973 87.325366 
L 548.977629 96.132116 
L 549.269514 96.757244 
L 549.5614 86.842802 
L 549.853285 88.422097 
L 550.145171 83.640349 
L 551.312712 68.604158 
L 551.604598 66.542315 
L 552.188369 67.255183 
L 553.064025 82.73006 
L 553.35591 71.488566 
L 553.939681 63.471464 
L 554.231567 67.737748 
L 555.107223 71.137621 
L 555.399108 68.856418 
L 555.690994 57.088481 
L 555.982879 63.208243 
L 556.274765 64.041769 
L 557.150421 70.545377 
L 557.442306 66.015872 
L 557.734192 67.474526 
L 558.026077 59.929027 
L 558.317963 55.651766 
L 559.193619 56.112391 
L 559.485504 57.494283 
L 561.236817 59.983851 
L 561.528702 66.169413 
L 561.820588 69.689928 
L 562.404359 75.031003 
L 563.5719 56.529154 
L 563.863786 58.591014 
L 564.155671 56.04659 
L 564.447557 60.883178 
L 565.323213 56.485292 
L 565.615098 57.16526 
L 565.906984 72.311114 
L 566.198869 71.137621 
L 566.490755 74.043952 
L 567.658296 92.65548 
L 567.950182 101.955755 
L 568.242067 104.028576 
L 569.409609 106.945885 
L 569.701494 107.176189 
L 569.99338 105.234987 
L 570.285265 99.817133 
L 570.577151 116.114558 
L 571.452807 113.975936 
L 571.744692 133.102929 
L 572.328463 144.914711 
L 572.620349 144.201843 
L 573.496005 135.888619 
L 573.78789 122.837525 
L 574.371661 146.954632 
L 574.663547 143.302515 
L 575.831088 142.293525 
L 576.122974 129.384995 
L 576.706745 122.453663 
L 577.582401 135.855718 
L 577.874286 136.086022 
L 578.166172 131.501694 
L 578.458057 123.26525 
L 578.749943 131.468794 
L 579.625599 132.949371 
L 579.917484 129.275332 
L 580.501255 109.983835 
L 580.793141 118.187379 
L 581.668797 113.098548 
L 581.960682 119.28411 
L 582.252568 119.075729 
L 582.836339 126.906388 
L 584.00388 119.986018 
L 584.295766 125.557414 
L 584.587651 127.531533 
L 584.879537 135.888619 
L 585.755193 129.812736 
L 586.047078 136.766007 
L 586.338964 132.510685 
L 586.922735 141.613557 
L 587.798391 141.218733 
L 588.090276 131.041069 
L 588.382162 131.435893 
L 588.674047 131.567496 
L 589.841589 130.701085 
L 590.133474 133.322272 
L 590.42536 129.714017 
L 590.717245 141.602595 
L 591.009131 143.664439 
L 591.884787 138.082081 
L 592.176672 134.364163 
L 592.468558 119.931178 
L 592.760443 121.104688 
L 593.052329 115.215231 
L 593.927985 109.687713 
L 594.21987 115.544253 
L 594.511756 113.975936 
L 594.803641 125.327093 
L 595.095527 123.561355 
L 595.971183 126.182542 
L 596.263068 128.726966 
L 596.846839 131.238473 
L 597.138725 121.806595 
L 598.014381 121.927236 
L 598.306267 151.637678 
L 598.598152 153.842102 
L 598.890037 144.73923 
L 599.181923 146.812068 
L 600.349465 161.957922 
L 600.64135 168.713773 
L 600.933235 165.445519 
L 601.225121 160.784412 
L 602.392663 159.610918 
L 602.684548 153.787262 
L 602.976433 153.578897 
L 603.268319 155.783321 
L 604.435861 153.162134 
L 604.727746 150.332566 
L 605.019631 138.334325 
L 605.311517 131.753938 
L 606.187173 123.791676 
L 606.479059 134.451904 
L 606.770944 139.792979 
L 607.062829 134.901568 
L 607.354715 144.497965 
L 608.230371 142.458044 
L 608.522257 143.028332 
L 608.814142 146.537885 
L 609.106027 142.929631 
L 609.397913 145.945641 
L 610.565455 138.246584 
L 610.565455 138.246584 
" clip-path="url(#pc5cc60a4f2)" style="fill: none; stroke: #1f77b4; stroke-width: 1.5; stroke-linecap: square"/>
   </g>
   <g id="line2d_12">
    <path d="M 77.874545 153.121552 
L 78.166431 151.191311 
L 79.042087 149.72608 
L 79.333973 146.632203 
L 79.625858 147.499717 
L 79.917743 149.862067 
L 80.209629 150.459784 
L 81.085285 148.107307 
L 81.377171 149.423381 
L 81.669056 151.837274 
L 82.252827 151.423808 
L 83.420369 143.386976 
L 83.712254 145.340244 
L 84.004139 151.578454 
L 84.296025 148.107307 
L 85.171681 148.134719 
L 85.463567 145.751518 
L 85.755452 151.615739 
L 86.047337 153.973721 
L 86.339223 153.849783 
L 87.214879 150.627583 
L 87.79865 139.950905 
L 88.090535 137.238698 
L 88.382421 131.839486 
L 90.425619 147.565519 
L 91.593161 145.083616 
L 91.885046 141.468784 
L 92.176932 142.562235 
L 92.468817 144.809433 
L 93.344473 142.075286 
L 93.636359 144.712923 
L 93.928244 149.177715 
L 94.22013 147.206875 
L 94.512015 147.77718 
L 95.387671 148.764248 
L 95.679557 149.546215 
L 95.971442 148.744501 
L 96.555213 152.964714 
L 97.430869 149.596653 
L 97.722755 143.334328 
L 98.01464 141.828515 
L 98.306526 145.849132 
L 98.598411 144.11191 
L 99.474067 142.183862 
L 99.765953 144.840141 
L 100.057838 143.277296 
L 100.349724 142.885769 
L 100.641609 141.608068 
L 101.809151 143.532836 
L 102.101036 149.991477 
L 102.392922 147.110366 
L 102.684807 149.301636 
L 103.560463 150.09458 
L 103.852349 152.901105 
L 104.144234 150.306242 
L 104.43612 150.193282 
L 104.728005 149.061458 
L 105.603661 154.738133 
L 105.895547 154.450796 
L 106.187432 151.297695 
L 106.479318 150.124184 
L 106.771203 153.699538 
L 107.646859 153.720373 
L 107.938745 161.891017 
L 108.23063 164.387178 
L 108.522516 163.37489 
L 108.814401 163.925448 
L 109.690057 167.858324 
L 109.981943 167.509571 
L 110.273828 164.021958 
L 110.565714 158.689652 
L 110.857599 160.934674 
L 112.025141 163.216964 
L 112.317026 158.638108 
L 112.608912 157.784852 
L 112.900797 155.829392 
L 113.776453 151.384331 
L 114.068339 149.12177 
L 114.360224 148.932048 
L 114.65211 147.918656 
L 114.943995 155.690091 
L 115.819651 155.765766 
L 116.111537 162.506288 
L 116.403422 162.78924 
L 116.695308 152.273785 
L 116.987193 151.206657 
L 117.862849 144.528673 
L 118.154735 150.1198 
L 118.44662 148.068918 
L 118.738506 143.109496 
L 119.030391 144.48041 
L 119.906047 143.854178 
L 120.197933 141.542266 
L 120.489818 150.409345 
L 120.781704 148.617283 
L 121.073589 128.966056 
L 121.949245 130.394002 
L 122.241131 128.32995 
L 122.533016 132.443779 
L 122.824902 127.674097 
L 123.116787 126.654145 
L 124.284329 139.54512 
L 124.576214 133.442913 
L 125.159985 139.145912 
L 126.035641 140.20755 
L 126.911298 153.354065 
L 127.203183 157.428417 
L 128.078839 155.441145 
L 128.370725 145.308447 
L 128.66261 145.332562 
L 130.122037 158.837721 
L 130.413923 163.53941 
L 130.705808 162.025916 
L 130.997694 166.544443 
L 131.289579 166.926113 
L 132.165235 171.447937 
L 132.457121 161.803276 
L 132.749006 160.101147 
L 133.040892 154.211707 
L 134.792204 159.393768 
L 135.08409 158.718168 
L 135.375975 161.004859 
L 136.835402 181.555406 
L 137.419173 186.548824 
L 138.294829 188.008575 
L 138.586715 185.141713 
L 138.8786 183.88596 
L 139.170486 195.335835 
L 139.462371 191.107933 
L 140.629913 196.399657 
L 140.921798 199.000009 
L 141.213684 199.767726 
L 141.505569 215.322662 
L 142.381225 209.140388 
L 142.673111 214.196319 
L 142.964996 216.770347 
L 143.256882 222.600572 
L 143.548767 216.407327 
L 144.716309 204.127231 
L 145.30008 223.293701 
L 145.591965 215.993861 
L 146.467621 216.992978 
L 146.759507 215.77451 
L 147.051392 210.623165 
L 147.635163 218.406666 
L 148.510819 219.125024 
L 148.802705 214.513276 
L 149.09459 230.158144 
L 149.386476 239.683252 
L 149.678361 240.025428 
L 150.845903 243.394588 
L 151.137788 243.345238 
L 151.429674 239.24675 
L 151.721559 237.824293 
L 152.597215 235.925848 
L 153.180986 239.701894 
L 153.472872 241.794462 
L 153.764757 246.171513 
L 154.640413 250.562822 
L 154.932299 255.591338 
L 155.224184 247.618102 
L 155.51607 251.398533 
L 155.807955 252.364753 
L 156.683611 255.854551 
L 156.975497 251.371117 
L 157.267382 243.809155 
L 157.559268 239.970596 
L 157.851153 226.522478 
L 158.726809 237.111416 
L 159.018695 232.33406 
L 159.31058 234.902599 
L 159.602466 234.747962 
L 159.894351 237.541332 
L 160.770007 235.120846 
L 161.061893 230.472901 
L 161.645664 237.932868 
L 161.937549 236.064036 
L 162.813205 232.303352 
L 163.105091 234.976082 
L 163.396976 240.058337 
L 163.688862 241.441308 
L 163.980747 245.914877 
L 164.856403 244.357521 
L 165.148289 247.244117 
L 165.440174 245.7394 
L 165.73206 248.51084 
L 166.899601 248.347429 
L 167.191487 245.646179 
L 167.483372 254.489122 
L 167.775258 259.31474 
L 168.067143 261.621162 
L 168.9428 261.704514 
L 169.234685 265.117545 
L 169.52657 266.421557 
L 169.818456 263.451609 
L 170.110341 265.256829 
L 170.985998 262.387779 
L 171.277883 261.047573 
L 171.569768 258.822307 
L 171.861654 266.762642 
L 172.153539 270.667002 
L 173.029196 274.774259 
L 173.321081 275.284239 
L 173.612966 277.12675 
L 173.904852 273.296962 
L 174.196737 267.92627 
L 175.072394 272.59067 
L 175.364279 271.198917 
L 175.656164 272.517188 
L 175.94805 269.149127 
L 176.239935 272.162946 
L 177.407477 276.441291 
L 177.699362 275.534294 
L 178.283133 271.593741 
L 179.450675 270.926927 
L 179.74256 272.417385 
L 180.034446 268.32219 
L 180.326331 273.280512 
L 181.201988 272.517188 
L 181.493873 270.310563 
L 181.785758 269.133773 
L 182.369529 273.854105 
L 183.537071 278.777329 
L 183.828956 276.31078 
L 184.120842 278.591981 
L 184.412727 277.313194 
L 185.580269 276.067306 
L 185.872154 274.93877 
L 186.455925 269.818134 
L 187.331582 271.136404 
L 188.207238 277.805626 
L 189.666665 274.778647 
L 189.95855 275.831508 
L 190.250436 273.319993 
L 190.542321 273.05678 
L 191.417978 276.621156 
L 191.709863 276.555351 
L 192.001748 276.807598 
L 192.293634 278.430762 
L 192.585519 277.772723 
L 193.461176 276.379874 
L 193.753061 274.372858 
L 194.044946 269.854323 
L 194.336832 267.759567 
L 194.628717 271.1046 
L 195.504374 271.806507 
L 195.796259 277.46564 
L 196.088144 273.418699 
L 196.38003 272.683891 
L 196.671915 273.868359 
L 197.839457 270.676871 
L 198.131342 266.081569 
L 198.423228 267.079594 
L 198.715113 267.309907 
L 199.59077 268.450508 
L 199.882655 271.762637 
L 200.17454 267.529254 
L 200.466426 267.737636 
L 200.758311 267.364747 
L 201.925853 268.658886 
L 202.217738 271.159436 
L 202.509624 271.641996 
L 202.801509 274.5593 
L 203.677166 275.677967 
L 203.969051 276.456645 
L 204.552822 274.405759 
L 204.844707 276.511485 
L 205.720364 277.037913 
L 206.012249 277.674017 
L 206.304134 277.355966 
L 206.59602 277.772723 
L 206.887905 279.044931 
L 208.055447 279.341049 
L 208.639218 277.037913 
L 208.931103 273.890294 
L 209.80676 273.50644 
L 210.098645 276.204397 
L 210.390531 275.118636 
L 210.682416 274.943159 
L 210.974301 277.268228 
L 211.849958 275.941184 
L 212.141843 278.123677 
L 212.433729 278.562371 
L 212.725614 280.733898 
L 213.017499 280.525518 
L 213.893156 281.084851 
L 214.185041 281.523543 
L 214.476927 279.999088 
L 214.768812 282.708013 
L 215.060697 282.521569 
L 215.936354 281.622249 
L 216.228239 277.487573 
L 216.81201 279.099769 
L 217.103895 282.225453 
L 218.271437 283.914418 
L 218.855208 283.289281 
L 219.147093 283.486693 
L 220.02275 281.622249 
L 220.314635 280.558421 
L 220.606521 280.975178 
L 220.898406 279.46169 
L 221.190291 279.439755 
L 222.065948 280.536486 
L 222.357833 279.352016 
L 222.649719 280.1965 
L 222.941604 274.668976 
L 223.233489 274.57027 
L 224.109146 274.5264 
L 224.401031 273.912229 
L 224.692917 275.316048 
L 224.984802 275.063796 
L 225.276687 276.807598 
L 226.152344 276.708892 
L 226.444229 276.094726 
L 226.736115 278.178514 
L 227.028 272.025854 
L 227.319885 268.812432 
L 228.195542 269.953029 
L 228.487427 268.176326 
L 228.779313 269.832392 
L 229.071198 270.698806 
L 229.363083 271.938114 
L 230.23874 273.451604 
L 230.530625 273.374833 
L 230.822511 271.740702 
L 231.406281 271.718767 
L 232.281938 270.358822 
L 232.573823 271.323943 
L 233.157594 264.469373 
L 233.449479 264.842262 
L 234.325136 267.331842 
L 234.617021 269.327892 
L 234.908907 269.854323 
L 235.200792 269.689816 
L 235.492677 269.974964 
L 236.368334 269.974964 
L 236.660219 269.536274 
L 236.952105 270.128506 
L 237.24399 272.157461 
L 237.535875 272.486479 
L 238.411532 273.133551 
L 238.703417 272.596151 
L 238.995303 272.376808 
L 239.579073 275.0967 
L 241.038501 276.270202 
L 241.330386 273.572245 
L 241.622271 273.999969 
L 242.789813 272.936139 
L 243.081699 270.896218 
L 243.373584 272.640021 
L 243.665469 271.652965 
L 244.541126 271.280077 
L 244.833011 272.03682 
L 245.124897 272.102625 
L 245.416782 271.751671 
L 245.708667 269.415633 
L 246.876209 268.220196 
L 247.45998 270.325918 
L 247.751866 267.67183 
L 248.627522 263.767466 
L 248.919407 265.248056 
L 249.211293 260.15922 
L 249.503178 259.062488 
L 249.795064 257.143209 
L 250.67072 260.312765 
L 250.962605 258.031563 
L 251.254491 256.945801 
L 251.546376 253.249814 
L 251.838262 254.017527 
L 252.713918 255.509082 
L 253.005803 255.750364 
L 253.297689 257.450297 
L 253.589574 257.625773 
L 253.88146 259.095393 
L 254.757116 258.656699 
L 255.049001 257.110308 
L 255.340887 253.513032 
L 255.632772 262.813311 
L 255.924658 264.239061 
L 257.092199 266.640905 
L 257.384085 265.971898 
L 257.67597 265.588039 
L 257.967856 267.375712 
L 258.843512 267.67183 
L 259.135397 266.947988 
L 259.427283 268.088589 
L 259.719168 266.904118 
L 260.011054 264.469373 
L 260.88671 264.381637 
L 261.178595 265.500303 
L 261.470481 264.140355 
L 261.762366 264.908067 
L 262.054252 266.597034 
L 262.929908 266.246081 
L 263.221793 264.030683 
L 263.513679 264.315832 
L 263.805564 263.076528 
L 264.09745 263.065559 
L 264.973106 263.942943 
L 265.264991 261.903022 
L 265.556877 262.758475 
L 265.848762 261.848187 
L 266.140648 262.73654 
L 267.016304 262.637834 
L 267.308189 263.471348 
L 267.600075 260.850161 
L 267.89196 261.058543 
L 268.183846 259.490217 
L 269.351387 259.874071 
L 269.643273 262.506228 
L 269.935158 262.330751 
L 271.1027 262.330751 
L 271.394585 262.955887 
L 272.270242 261.19015 
L 273.437783 258.108334 
L 273.729669 258.272845 
L 274.021554 259.424412 
L 274.31344 258.393486 
L 275.189096 259.402477 
L 275.480981 261.113379 
L 275.772867 261.212085 
L 276.356638 258.930882 
L 277.524179 260.762425 
L 277.816065 261.321756 
L 278.10795 249.224813 
L 278.399836 244.037275 
L 279.275492 241.459959 
L 279.567377 241.997355 
L 279.859263 242.787003 
L 280.151148 243.083116 
L 280.443034 244.804984 
L 281.31869 244.530801 
L 281.610575 246.132032 
L 281.902461 245.430124 
L 282.194346 245.331419 
L 282.486232 246.044291 
L 283.653773 248.095177 
L 283.945659 247.39327 
L 284.237544 248.775154 
L 284.52943 247.075221 
L 285.696971 248.248723 
L 285.988857 249.345454 
L 286.280742 248.522906 
L 286.572628 248.139048 
L 287.448284 246.351379 
L 287.740169 242.249603 
L 288.032055 246.746198 
L 288.32394 247.053286 
L 288.615826 244.772083 
L 289.491482 240.769013 
L 289.783367 242.052191 
L 290.075253 239.814862 
L 290.367138 239.57358 
L 290.659024 241.098036 
L 291.826565 241.591561 
L 292.118451 242.787003 
L 292.702222 242.107026 
L 293.577878 242.699262 
L 293.869763 242.096061 
L 294.161649 241.196738 
L 294.453534 242.139931 
L 294.74542 241.218677 
L 296.204847 241.394149 
L 296.496732 244.256618 
L 296.788618 244.432099 
L 297.664274 244.190817 
L 297.956159 242.808934 
L 298.248045 239.749053 
L 298.53993 234.890534 
L 298.831816 236.996264 
L 299.707472 236.744012 
L 299.999357 238.301368 
L 300.291243 237.237537 
L 300.583128 240.297418 
L 300.875014 240.154846 
L 301.75067 239.496809 
L 302.042555 240.790952 
L 302.334441 241.130936 
L 302.626326 241.920584 
L 302.918212 239.639381 
L 303.793868 237.950414 
L 304.085753 238.092995 
L 304.669524 247.316499 
L 304.96141 248.533871 
L 306.128951 250.442185 
L 306.420837 251.527947 
L 306.712722 250.135098 
L 307.004608 251.451176 
L 307.880264 250.672498 
L 308.172149 251.374405 
L 308.464035 251.374405 
L 308.75592 253.699474 
L 309.047806 253.787214 
L 309.923462 252.920796 
L 310.215347 252.887895 
L 310.507233 249.84995 
L 310.799118 251.242799 
L 311.091004 251.155058 
L 311.96666 250.310575 
L 312.258545 247.579716 
L 312.550431 246.252673 
L 312.842316 239.145856 
L 313.134202 238.904573 
L 314.301743 239.902594 
L 314.593629 239.880664 
L 314.885514 241.021265 
L 315.1774 242.962479 
L 316.053056 241.262547 
L 316.344941 243.050216 
L 316.636827 243.390204 
L 316.928712 242.534751 
L 318.680025 249.586732 
L 318.97191 253.173044 
L 319.263796 253.853016 
L 320.139452 253.30465 
L 320.431337 255.574887 
L 320.723223 255.201999 
L 321.306994 252.218889 
L 322.18265 252.844025 
L 322.474535 255.717459 
L 322.766421 254.401381 
L 323.058306 254.82911 
L 323.350192 253.227879 
L 324.517733 251.659553 
L 325.101504 253.578833 
L 325.39339 255.531017 
L 326.269046 253.633673 
L 326.560932 252.657583 
L 327.144702 255.22393 
L 327.436588 255.980677 
L 328.312244 256.134218 
L 328.60413 254.653633 
L 328.896015 258.887012 
L 329.1879 260.861131 
L 329.479786 261.17918 
L 330.647328 260.312765 
L 330.939213 258.557993 
L 331.231098 246.592657 
L 331.522984 244.651442 
L 332.39864 245.792044 
L 332.982411 243.258593 
L 333.274296 245.857849 
L 333.566182 244.794018 
L 334.441838 243.697287 
L 335.025609 237.654301 
L 335.317494 238.279437 
L 335.60938 237.116905 
L 336.776922 235.592441 
L 337.068807 234.243466 
L 337.652578 234.912473 
L 338.528234 231.139715 
L 339.40389 232.203546 
L 339.695776 231.062944 
L 340.571432 232.532568 
L 340.863318 230.119755 
L 341.155203 234.046054 
L 341.738974 232.532568 
L 342.61463 232.214515 
L 342.906516 232.554499 
L 343.198401 231.062944 
L 343.490286 227.026973 
L 343.782172 227.816621 
L 344.657828 227.476637 
L 344.949714 226.138624 
L 345.241599 229.352046 
L 345.82537 227.805652 
L 347.284797 226.149594 
L 347.576682 225.305106 
L 347.868568 226.63215 
L 349.03611 231.095845 
L 349.327995 233.300277 
L 349.911766 230.350067 
L 350.787422 226.862462 
L 351.079308 224.208375 
L 351.371193 223.122613 
L 351.954964 222.793591 
L 353.122506 222.881331 
L 353.414391 223.978062 
L 353.706276 227.048913 
L 353.998162 224.318046 
L 354.873818 224.043863 
L 355.165704 223.078743 
L 355.749474 223.79162 
L 356.04136 222.629079 
L 356.917016 220.446587 
L 357.208902 221.77363 
L 357.500787 224.252245 
L 357.792672 227.926293 
L 358.084558 221.115593 
L 358.960214 222.793591 
L 359.2521 222.618118 
L 359.83587 215.697739 
L 360.127756 212.572057 
L 361.003412 214.326825 
L 361.295298 227.421797 
L 361.879068 219.942091 
L 362.170954 222.914232 
L 363.338496 225.842502 
L 363.630381 229.165604 
L 363.922267 229.779771 
L 364.214152 228.452727 
L 365.089808 227.005042 
L 365.673579 229.198505 
L 365.965465 228.310147 
L 366.25735 228.068873 
L 367.133006 228.968192 
L 367.424892 231.490669 
L 367.716777 230.898433 
L 368.300548 228.540459 
L 369.176204 229.845572 
L 369.46809 228.321116 
L 369.759975 225.776701 
L 370.051861 226.061853 
L 370.343746 227.454698 
L 371.219402 227.048913 
L 371.511288 227.037943 
L 371.803173 222.870361 
L 372.095059 224.77868 
L 372.386944 225.73283 
L 373.2626 226.061853 
L 373.846371 225.842502 
L 374.138257 227.432767 
L 375.305798 226.314097 
L 375.597684 226.390867 
L 375.889569 229.110764 
L 376.181455 230.021053 
L 376.47334 229.505588 
L 377.348996 230.492648 
L 377.640882 229.900412 
L 377.932767 233.124796 
L 378.224653 233.57446 
L 378.516538 235.296327 
L 379.392194 236.864653 
L 379.68408 236.722081 
L 379.975965 235.943394 
L 380.559736 235.65825 
L 381.435392 234.693122 
L 381.727278 230.898433 
L 382.311049 234.693122 
L 382.602934 233.837673 
L 383.47859 232.57643 
L 383.770476 235.076984 
L 384.062361 234.857633 
L 384.354247 233.102865 
L 384.646132 230.404907 
L 385.521788 227.213416 
L 385.813674 227.564369 
L 386.105559 243.269563 
L 386.397445 243.576646 
L 386.68933 247.426175 
L 387.564986 247.601652 
L 387.856872 248.4242 
L 388.148757 247.612617 
L 388.440643 248.665478 
L 388.732528 247.875834 
L 389.90007 249.531897 
L 390.191955 247.689388 
L 390.775726 249.586732 
L 392.235153 248.051311 
L 392.527039 247.864865 
L 392.818924 247.195858 
L 393.69458 246.592657 
L 393.986466 245.517861 
L 394.278351 244.892724 
L 394.862122 244.519836 
L 395.737778 242.962479 
L 396.029664 242.074126 
L 396.321549 240.264518 
L 396.613435 241.119967 
L 396.90532 237.862674 
L 397.780976 239.112955 
L 398.072862 241.602531 
L 398.656633 242.00832 
L 398.948518 240.747082 
L 399.824174 241.53673 
L 400.407945 240.286457 
L 400.699831 239.277458 
L 400.991716 239.628412 
L 402.159258 239.61745 
L 402.451143 238.882634 
L 403.034914 237.895583 
L 403.91057 238.213636 
L 404.202456 239.54068 
L 404.786227 240.439999 
L 405.078112 240.900624 
L 405.953768 241.646401 
L 406.245654 235.60341 
L 406.537539 240.988364 
L 406.829425 242.852804 
L 407.12131 242.797968 
L 407.996966 243.313433 
L 408.288852 243.346334 
L 408.580737 247.064252 
L 408.872623 246.877809 
L 409.164508 246.329444 
L 410.040164 246.406215 
L 410.33205 247.141022 
L 410.623935 244.94756 
L 411.207706 252.37243 
L 412.375248 252.602743 
L 412.667133 241.997355 
L 412.959019 236.886584 
L 413.250904 236.064036 
L 414.12656 237.149805 
L 414.710331 233.552529 
L 415.002217 229.977183 
L 415.294102 230.306197 
L 416.169758 229.63719 
L 416.461644 229.955244 
L 416.753529 228.562399 
L 417.045415 230.58038 
L 417.3373 228.562399 
L 418.504842 230.328136 
L 418.796727 232.521599 
L 419.380498 230.832632 
L 420.54804 233.914444 
L 420.839925 235.055045 
L 421.131811 235.175686 
L 421.423696 238.575551 
L 422.299352 237.347217 
L 422.591238 237.303347 
L 422.883123 233.629299 
L 423.175009 233.859612 
L 423.466894 232.609339 
L 424.34255 231.370028 
L 424.926321 229.571389 
L 425.218207 225.776701 
L 425.510092 225.73283 
L 426.385748 224.208375 
L 426.677634 223.967093 
L 426.969519 225.140595 
L 427.261405 223.506468 
L 427.55329 225.195434 
L 428.428946 224.175474 
L 428.720832 226.028952 
L 429.012717 225.316076 
L 429.304603 226.368936 
L 429.596488 221.663959 
L 430.472144 223.385826 
L 430.76403 221.499448 
L 431.055915 220.589159 
L 431.347801 221.356876 
L 431.639686 220.775609 
L 432.807228 222.212324 
L 433.099113 222.300065 
L 433.390999 222.541347 
L 433.682884 221.389776 
L 434.55854 221.411707 
L 434.850426 222.563278 
L 435.142311 224.7019 
L 435.434197 224.526428 
L 435.726082 225.370907 
L 436.601738 224.471588 
L 436.893624 223.901291 
L 437.185509 224.318046 
L 437.477395 226.292166 
L 437.76928 225.436717 
L 438.644936 226.039914 
L 438.936822 224.800611 
L 439.228707 222.223294 
L 439.520593 218.242155 
L 439.812478 216.520287 
L 440.688134 213.372674 
L 440.98002 192.611554 
L 441.271905 185.844725 
L 441.563791 192.436073 
L 441.855676 193.083149 
L 442.731333 195.945617 
L 443.023218 197.360402 
L 443.315103 198.07327 
L 443.606989 195.287572 
L 443.898874 194.761146 
L 445.066416 189.145879 
L 445.358301 188.641384 
L 445.942072 185.28539 
L 447.109614 189.387162 
L 447.401499 187.665294 
L 447.693385 186.941456 
L 447.98527 182.24744 
L 448.860927 185.625374 
L 449.152812 187.643363 
L 449.444697 183.344171 
L 449.736583 185.603443 
L 450.028468 186.34922 
L 450.904125 184.912497 
L 451.19601 181.019106 
L 451.487895 191.756105 
L 451.779781 194.640505 
L 452.071666 192.578653 
L 452.947323 192.249631 
L 453.239208 191.22967 
L 454.114864 193.423133 
L 455.282406 195.452083 
L 455.866177 194.136009 
L 457.033719 186.776945 
L 457.325604 194.958558 
L 457.617489 194.015368 
L 458.20126 198.325522 
L 459.076917 200.464144 
L 459.368802 200.628656 
L 459.660687 197.744256 
L 459.952573 198.555835 
L 460.244458 198.720346 
L 461.412 195.506923 
L 461.703885 195.408213 
L 461.995771 195.704335 
L 462.287656 193.971498 
L 463.163313 194.300521 
L 463.455198 183.256439 
L 463.747083 184.199628 
L 464.038969 181.35909 
L 464.330854 183.969307 
L 465.206511 186.612433 
L 465.498396 181.337159 
L 465.790281 178.562422 
L 466.082167 182.017127 
L 466.374052 183.300301 
L 467.249709 180.569442 
L 467.541594 176.52251 
L 467.833479 179.922375 
L 468.125365 172.069776 
L 468.41725 171.302059 
L 469.584792 170.249207 
L 469.876677 172.058807 
L 470.168563 176.654113 
L 470.460448 185.32926 
L 471.336105 185.416992 
L 471.62799 190.385191 
L 471.919875 187.884637 
L 472.211761 190.516793 
L 472.503646 189.23362 
L 473.379303 195.177901 
L 473.671188 200.497045 
L 473.963073 195.649495 
L 474.546844 202.251821 
L 475.422501 210.345694 
L 475.714386 210.126351 
L 476.006271 206.200052 
L 476.298157 212.714637 
L 476.590042 208.04256 
L 477.465699 206.134251 
L 477.757584 208.963811 
L 478.049469 200.705427 
L 478.341355 200.365443 
L 478.63324 197.777156 
L 479.508897 192.21673 
L 479.800782 191.624494 
L 480.092667 197.700386 
L 480.384553 199.630635 
L 480.676438 206.03554 
L 481.552095 207.351614 
L 481.84398 204.98268 
L 482.135866 201.681517 
L 482.427751 221.817501 
L 482.719636 227.73985 
L 483.595293 225.623159 
L 483.887178 227.520507 
L 484.179064 211.826279 
L 484.470949 219.251154 
L 484.762834 220.260144 
L 485.638491 221.291074 
L 485.930376 220.040793 
L 486.222262 219.985962 
L 486.514147 220.325946 
L 487.973574 218.066682 
L 488.557345 207.746438 
L 488.84923 205.552976 
L 490.016772 203.578865 
L 490.308658 207.878049 
L 490.892428 203.216942 
L 491.768085 204.171101 
L 492.05997 209.161222 
L 492.351856 208.426415 
L 492.643741 208.97478 
L 492.935626 211.420494 
L 494.395054 189.836825 
L 494.686939 191.19677 
L 494.978824 190.604534 
L 496.146366 195.342412 
L 496.438252 199.849978 
L 496.730137 198.786147 
L 497.022022 200.738327 
L 498.189564 195.002428 
L 498.48145 194.596634 
L 498.773335 193.949567 
L 499.06522 194.475993 
L 499.940877 195.221771 
L 500.524648 198.468094 
L 500.816533 196.877837 
L 501.108418 189.880687 
L 501.984075 193.839887 
L 502.27596 191.14193 
L 502.567846 186.897586 
L 503.151616 196.537853 
L 504.027273 193.214751 
L 504.319158 195.232741 
L 504.611044 195.846907 
L 505.194814 195.375313 
L 506.070471 191.449013 
L 506.362356 186.579533 
L 506.654242 187.160799 
L 506.946127 188.060118 
L 508.113669 185.559572 
L 508.69744 186.195678 
L 508.989325 184.276399 
L 510.156867 184.122849 
L 510.448752 188.707185 
L 510.740638 186.689204 
L 511.032523 185.767946 
L 511.324408 189.112979 
L 512.200065 184.035117 
L 512.49195 185.888587 
L 513.075721 173.056836 
L 513.367606 172.705882 
L 514.243263 171.214336 
L 514.535148 176.3909 
L 514.827034 178.035996 
L 515.118919 178.178568 
L 515.410804 175.601252 
L 516.286461 172.958134 
L 516.870232 177.158608 
L 517.162117 178.035996 
L 517.454002 181.995196 
L 518.621544 172.782653 
L 518.91343 142.183862 
L 519.205315 146.384327 
L 519.4972 147.985562 
L 520.372857 150.299665 
L 520.664742 148.325546 
L 520.956628 147.459136 
L 521.248513 153.842102 
L 521.540399 156.912952 
L 522.416055 155.114314 
L 522.70794 159.347697 
L 522.999826 161.497297 
L 523.291711 162.166304 
L 523.583597 156.211045 
L 524.459253 157.943882 
L 524.751138 157.59292 
L 525.043024 158.64579 
L 525.334909 156.83619 
L 525.626795 157.121334 
L 526.794336 159.578018 
L 527.086222 158.283866 
L 527.378107 152.87699 
L 527.669993 151.045434 
L 528.545649 151.70348 
L 528.837534 154.752391 
L 529.12942 156.112343 
L 529.421305 153.008592 
L 529.713191 154.818192 
L 530.588847 149.871941 
L 530.880732 150.61771 
L 531.172618 149.89388 
L 531.464503 145.243734 
L 532.632045 139.749117 
L 532.92393 147.623639 
L 533.215816 148.841011 
L 533.507701 154.74143 
L 533.799587 158.250966 
L 534.675243 148.654568 
L 534.967128 149.082293 
L 535.259014 148.029424 
L 535.550899 146.132084 
L 535.842785 135.340253 
L 536.718441 131.655236 
L 537.010326 135.186712 
L 537.302212 129.538553 
L 537.594097 132.346182 
L 537.885983 146.439167 
L 539.053524 144.399246 
L 539.34541 140.74713 
L 539.637295 140.352306 
L 539.929181 139.04721 
L 540.804837 131.424915 
L 541.096722 133.695157 
L 541.388608 134.386103 
L 541.972379 122.387861 
L 542.848035 120.073758 
L 543.13992 115.796497 
L 543.431806 115.741674 
L 543.723691 121.664015 
L 544.015577 121.389832 
L 544.891233 122.398823 
L 545.183118 135.559596 
L 545.475004 133.388073 
L 545.766889 140.922611 
L 546.058775 144.914711 
L 546.934431 137.81886 
L 547.226316 137.753058 
L 547.518202 140.330383 
L 547.810087 151.571877 
L 548.101973 151.9009 
L 548.977629 158.601928 
L 549.269514 158.031623 
L 549.5614 151.944762 
L 549.853285 153.524057 
L 550.145171 149.970642 
L 551.312712 139.474934 
L 551.604598 137.314373 
L 552.188369 138.082081 
L 553.064025 148.347485 
L 553.35591 140.067162 
L 553.939681 134.05708 
L 554.231567 135.406055 
L 555.107223 138.334325 
L 555.399108 136.711167 
L 555.690994 127.356052 
L 555.982879 131.381053 
L 556.274765 131.99522 
L 557.150421 136.755029 
L 557.442306 133.146791 
L 557.734192 134.693186 
L 558.026077 129.132751 
L 558.317963 126.094801 
L 559.193619 125.985138 
L 559.77739 126.22642 
L 561.236817 127.94828 
L 561.820588 135.526696 
L 562.404359 139.661377 
L 563.5719 127.323152 
L 563.863786 129.198552 
L 564.155671 127.509594 
L 564.447557 131.677175 
L 565.323213 127.893456 
L 565.615098 128.430844 
L 565.906984 139.321393 
L 566.198869 138.79495 
L 566.490755 141.185832 
L 567.658296 153.589859 
L 567.950182 160.126383 
L 568.242067 161.113435 
L 568.533953 160.839252 
L 569.409609 162.572089 
L 569.99338 159.70962 
L 570.285265 154.533048 
L 570.577151 168.143485 
L 571.452807 167.079655 
L 571.744692 181.238449 
L 572.036578 187.018227 
L 572.328463 190.067138 
L 572.620349 189.17878 
L 573.496005 182.214539 
L 573.78789 172.51944 
L 574.371661 190.703236 
L 574.663547 188.465912 
L 575.831088 187.544653 
L 576.122974 178.661133 
L 576.706745 173.660041 
L 577.582401 183.442881 
L 577.874286 183.826735 
L 578.166172 180.119787 
L 578.458057 173.945185 
L 578.749943 179.659154 
L 579.625599 181.139747 
L 579.917484 178.408881 
L 580.501255 164.239125 
L 580.793141 169.273117 
L 581.668797 165.653901 
L 581.960682 170.194367 
L 582.252568 170.018886 
L 582.836339 177.213448 
L 584.00388 171.905265 
L 584.295766 176.347029 
L 584.587651 177.860515 
L 584.879537 183.991247 
L 585.755193 179.253368 
L 586.047078 184.682184 
L 586.338964 182.192608 
L 586.922735 189.398131 
L 587.798391 189.485872 
L 588.090276 181.973257 
L 588.382162 182.082937 
L 588.674047 182.37905 
L 589.841589 181.775845 
L 590.133474 183.684163 
L 590.42536 180.3501 
L 590.717245 188.816865 
L 591.009131 190.560664 
L 591.884787 185.976327 
L 592.176672 183.048057 
L 592.468558 172.332989 
L 592.760443 172.848454 
L 593.052329 168.231226 
L 593.927985 163.855263 
L 594.21987 168.253148 
L 594.511756 167.342859 
L 594.803641 175.820595 
L 595.095527 174.065827 
L 595.971183 175.820595 
L 596.263068 178.211469 
L 596.554954 179.077887 
L 596.846839 179.220468 
L 597.138725 172.047845 
L 598.014381 172.179448 
L 598.306267 194.026338 
L 598.598152 196.428173 
L 598.890037 189.518772 
L 599.181923 190.977418 
L 600.349465 202.569874 
L 600.64135 207.439355 
L 600.933235 205.223962 
L 601.225121 202.08731 
L 602.392663 201.286693 
L 602.684548 196.899768 
L 602.976433 197.06428 
L 603.268319 199.1042 
L 604.435861 197.020409 
L 604.727746 195.15597 
L 605.019631 185.910526 
L 605.311517 181.874555 
L 606.187173 175.941236 
L 606.479059 183.738995 
L 606.770944 188.20269 
L 607.062829 184.802825 
L 607.354715 191.931578 
L 608.230371 190.571633 
L 608.522257 190.966457 
L 608.814142 193.401202 
L 609.106027 190.911617 
L 609.397913 193.357331 
L 610.273569 188.696224 
L 610.565455 187.884637 
L 610.565455 187.884637 
" clip-path="url(#pc5cc60a4f2)" style="fill: none; stroke: #ff7f0e; stroke-width: 1.5; stroke-linecap: square"/>
   </g>
   <g id="patch_3">
    <path d="M 51.24 296.2 
L 51.24 25.917188 
" style="fill: none; stroke: #000000; stroke-width: 0.8; stroke-linejoin: miter; stroke-linecap: square"/>
   </g>
   <g id="patch_4">
    <path d="M 637.2 296.2 
L 637.2 25.917188 
" style="fill: none; stroke: #000000; stroke-width: 0.8; stroke-linejoin: miter; stroke-linecap: square"/>
   </g>
   <g id="patch_5">
    <path d="M 51.24 296.2 
L 637.2 296.2 
" style="fill: none; stroke: #000000; stroke-width: 0.8; stroke-linejoin: miter; stroke-linecap: square"/>
   </g>
   <g id="patch_6">
    <path d="M 51.24 25.917188 
L 637.2 25.917188 
" style="fill: none; stroke: #000000; stroke-width: 0.8; stroke-linejoin: miter; stroke-linecap: square"/>
   </g>
   <g id="text_12">
    <!-- Raw SHOP Price Series -->
    <g transform="translate(276.1275 19.917188) scale(0.12 -0.12)">
     <defs>
      <path id="DejaVuSans-35" d="M 2841 2188 
Q 3044 2119 3236 1894 
Q 3428 1669 3622 1275 
L 4263 0 
L 3584 0 
L 2988 1197 
Q 2756 1666 2539 1819 
Q 2322 1972 1947 1972 
L 1259 1972 
L 1259 0 
L 628 0 
L 628 4666 
L 2053 4666 
Q 2853 4666 3247 4331 
Q 3641 3997 3641 3322 
Q 3641 2881 3436 2590 
Q 3231 2300 2841 2188 
z
M 1259 4147 
L 1259 2491 
L 2053 2491 
Q 2509 2491 2742 2702 
Q 2975 2913 2975 3322 
Q 2975 3731 2742 3939 
Q 2509 4147 2053 4147 
L 1259 4147 
z
" transform="scale(0.015625)"/>
      <path id="DejaVuSans-44" d="M 2194 1759 
Q 1497 1759 1228 1600 
Q 959 1441 959 1056 
Q 959 750 1161 570 
Q 1363 391 1709 391 
Q 2188 391 2477 730 
Q 2766 1069 2766 1631 
L 2766 1759 
L 2194 1759 
z
M 3341 1997 
L 3341 0 
L 2766 0 
L 2766 531 
Q 2569 213 2275 61 
Q 1981 -91 1556 -91 
Q 1019 -91 701 211 
Q 384 513 384 1019 
Q 384 1609 779 1909 
Q 1175 2209 1959 2209 
L 2766 2209 
L 2766 2266 
Q 2766 2663 2505 2880 
Q 2244 3097 1772 3097 
Q 1472 3097 1187 3025 
Q 903 2953 641 2809 
L 641 3341 
Q 956 3463 1253 3523 
Q 1550 3584 1831 3584 
Q 2591 3584 2966 3190 
Q 3341 2797 3341 1997 
z
" transform="scale(0.015625)"/>
      <path id="DejaVuSans-5a" d="M 269 3500 
L 844 3500 
L 1563 769 
L 2278 3500 
L 2956 3500 
L 3675 769 
L 4391 3500 
L 4966 3500 
L 4050 0 
L 3372 0 
L 2619 2869 
L 1863 0 
L 1184 0 
L 269 3500 
z
" transform="scale(0.015625)"/>
      <path id="DejaVuSans-3" transform="scale(0.015625)"/>
      <path id="DejaVuSans-36" d="M 3425 4513 
L 3425 3897 
Q 3066 4069 2747 4153 
Q 2428 4238 2131 4238 
Q 1616 4238 1336 4038 
Q 1056 3838 1056 3469 
Q 1056 3159 1242 3001 
Q 1428 2844 1947 2747 
L 2328 2669 
Q 3034 2534 3370 2195 
Q 3706 1856 3706 1288 
Q 3706 609 3251 259 
Q 2797 -91 1919 -91 
Q 1588 -91 1214 -16 
Q 841 59 441 206 
L 441 856 
Q 825 641 1194 531 
Q 1563 422 1919 422 
Q 2459 422 2753 634 
Q 3047 847 3047 1241 
Q 3047 1584 2836 1778 
Q 2625 1972 2144 2069 
L 1759 2144 
Q 1053 2284 737 2584 
Q 422 2884 422 3419 
Q 422 4038 858 4394 
Q 1294 4750 2059 4750 
Q 2388 4750 2728 4690 
Q 3069 4631 3425 4513 
z
" transform="scale(0.015625)"/>
      <path id="DejaVuSans-2b" d="M 628 4666 
L 1259 4666 
L 1259 2753 
L 3553 2753 
L 3553 4666 
L 4184 4666 
L 4184 0 
L 3553 0 
L 3553 2222 
L 1259 2222 
L 1259 0 
L 628 0 
L 628 4666 
z
" transform="scale(0.015625)"/>
      <path id="DejaVuSans-32" d="M 2522 4238 
Q 1834 4238 1429 3725 
Q 1025 3213 1025 2328 
Q 1025 1447 1429 934 
Q 1834 422 2522 422 
Q 3209 422 3611 934 
Q 4013 1447 4013 2328 
Q 4013 3213 3611 3725 
Q 3209 4238 2522 4238 
z
M 2522 4750 
Q 3503 4750 4090 4092 
Q 4678 3434 4678 2328 
Q 4678 1225 4090 567 
Q 3503 -91 2522 -91 
Q 1538 -91 948 565 
Q 359 1222 359 2328 
Q 359 3434 948 4092 
Q 1538 4750 2522 4750 
z
" transform="scale(0.015625)"/>
      <path id="DejaVuSans-56" d="M 2834 3397 
L 2834 2853 
Q 2591 2978 2328 3040 
Q 2066 3103 1784 3103 
Q 1356 3103 1142 2972 
Q 928 2841 928 2578 
Q 928 2378 1081 2264 
Q 1234 2150 1697 2047 
L 1894 2003 
Q 2506 1872 2764 1633 
Q 3022 1394 3022 966 
Q 3022 478 2636 193 
Q 2250 -91 1575 -91 
Q 1294 -91 989 -36 
Q 684 19 347 128 
L 347 722 
Q 666 556 975 473 
Q 1284 391 1588 391 
Q 1994 391 2212 530 
Q 2431 669 2431 922 
Q 2431 1156 2273 1281 
Q 2116 1406 1581 1522 
L 1381 1569 
Q 847 1681 609 1914 
Q 372 2147 372 2553 
Q 372 3047 722 3315 
Q 1072 3584 1716 3584 
Q 2034 3584 2315 3537 
Q 2597 3491 2834 3397 
z
" transform="scale(0.015625)"/>
     </defs>
     <use xlink:href="#DejaVuSans-35"/>
     <use xlink:href="#DejaVuSans-44" transform="translate(67.28125 0)"/>
     <use xlink:href="#DejaVuSans-5a" transform="translate(128.5625 0)"/>
     <use xlink:href="#DejaVuSans-3" transform="translate(210.34375 0)"/>
     <use xlink:href="#DejaVuSans-36" transform="translate(242.125 0)"/>
     <use xlink:href="#DejaVuSans-2b" transform="translate(305.609375 0)"/>
     <use xlink:href="#DejaVuSans-32" transform="translate(380.8125 0)"/>
     <use xlink:href="#DejaVuSans-33" transform="translate(459.53125 0)"/>
     <use xlink:href="#DejaVuSans-3" transform="translate(519.828125 0)"/>
     <use xlink:href="#DejaVuSans-33" transform="translate(551.609375 0)"/>
     <use xlink:href="#DejaVuSans-55" transform="translate(610.15625 0)"/>
     <use xlink:href="#DejaVuSans-4c" transform="translate(651.265625 0)"/>
     <use xlink:href="#DejaVuSans-46" transform="translate(679.046875 0)"/>
     <use xlink:href="#DejaVuSans-48" transform="translate(734.03125 0)"/>
     <use xlink:href="#DejaVuSans-3" transform="translate(795.5625 0)"/>
     <use xlink:href="#DejaVuSans-36" transform="translate(827.34375 0)"/>
     <use xlink:href="#DejaVuSans-48" transform="translate(890.828125 0)"/>
     <use xlink:href="#DejaVuSans-55" transform="translate(952.359375 0)"/>
     <use xlink:href="#DejaVuSans-4c" transform="translate(993.46875 0)"/>
     <use xlink:href="#DejaVuSans-48" transform="translate(1021.25 0)"/>
     <use xlink:href="#DejaVuSans-56" transform="translate(1082.78125 0)"/>
    </g>
   </g>
   <g id="legend_1">
    <g id="line2d_13">
     <path d="M 60.24 39.015625 
L 70.24 39.015625 
L 80.24 39.015625 
" style="fill: none; stroke: #1f77b4; stroke-width: 1.5; stroke-linecap: square"/>
    </g>
    <g id="text_13">
     <!-- SHOP.TO (CAD) -->
     <g transform="translate(88.24 42.515625) scale(0.1 -0.1)">
      <defs>
       <path id="DejaVuSans-11" d="M 684 794 
L 1344 794 
L 1344 0 
L 684 0 
L 684 794 
z
" transform="scale(0.015625)"/>
       <path id="DejaVuSans-37" d="M -19 4666 
L 3928 4666 
L 3928 4134 
L 2272 4134 
L 2272 0 
L 1638 0 
L 1638 4134 
L -19 4134 
L -19 4666 
z
" transform="scale(0.015625)"/>
       <path id="DejaVuSans-b" d="M 1984 4856 
Q 1566 4138 1362 3434 
Q 1159 2731 1159 2009 
Q 1159 1288 1364 580 
Q 1569 -128 1984 -844 
L 1484 -844 
Q 1016 -109 783 600 
Q 550 1309 550 2009 
Q 550 2706 781 3412 
Q 1013 4119 1484 4856 
L 1984 4856 
z
" transform="scale(0.015625)"/>
       <path id="DejaVuSans-26" d="M 4122 4306 
L 4122 3641 
Q 3803 3938 3442 4084 
Q 3081 4231 2675 4231 
Q 1875 4231 1450 3742 
Q 1025 3253 1025 2328 
Q 1025 1406 1450 917 
Q 1875 428 2675 428 
Q 3081 428 3442 575 
Q 3803 722 4122 1019 
L 4122 359 
Q 3791 134 3420 21 
Q 3050 -91 2638 -91 
Q 1578 -91 968 557 
Q 359 1206 359 2328 
Q 359 3453 968 4101 
Q 1578 4750 2638 4750 
Q 3056 4750 3426 4639 
Q 3797 4528 4122 4306 
z
" transform="scale(0.015625)"/>
       <path id="DejaVuSans-24" d="M 2188 4044 
L 1331 1722 
L 3047 1722 
L 2188 4044 
z
M 1831 4666 
L 2547 4666 
L 4325 0 
L 3669 0 
L 3244 1197 
L 1141 1197 
L 716 0 
L 50 0 
L 1831 4666 
z
" transform="scale(0.015625)"/>
       <path id="DejaVuSans-27" d="M 1259 4147 
L 1259 519 
L 2022 519 
Q 2988 519 3436 956 
Q 3884 1394 3884 2338 
Q 3884 3275 3436 3711 
Q 2988 4147 2022 4147 
L 1259 4147 
z
M 628 4666 
L 1925 4666 
Q 3281 4666 3915 4102 
Q 4550 3538 4550 2338 
Q 4550 1131 3912 565 
Q 3275 0 1925 0 
L 628 0 
L 628 4666 
z
" transform="scale(0.015625)"/>
       <path id="DejaVuSans-c" d="M 513 4856 
L 1013 4856 
Q 1481 4119 1714 3412 
Q 1947 2706 1947 2009 
Q 1947 1309 1714 600 
Q 1481 -109 1013 -844 
L 513 -844 
Q 928 -128 1133 580 
Q 1338 1288 1338 2009 
Q 1338 2731 1133 3434 
Q 928 4138 513 4856 
z
" transform="scale(0.015625)"/>
      </defs>
      <use xlink:href="#DejaVuSans-36"/>
      <use xlink:href="#DejaVuSans-2b" transform="translate(63.484375 0)"/>
      <use xlink:href="#DejaVuSans-32" transform="translate(138.6875 0)"/>
      <use xlink:href="#DejaVuSans-33" transform="translate(217.40625 0)"/>
      <use xlink:href="#DejaVuSans-11" transform="translate(262.125 0)"/>
      <use xlink:href="#DejaVuSans-37" transform="translate(293.90625 0)"/>
      <use xlink:href="#DejaVuSans-32" transform="translate(354.984375 0)"/>
      <use xlink:href="#DejaVuSans-3" transform="translate(433.703125 0)"/>
      <use xlink:href="#DejaVuSans-b" transform="translate(465.484375 0)"/>
      <use xlink:href="#DejaVuSans-26" transform="translate(504.5 0)"/>
      <use xlink:href="#DejaVuSans-24" transform="translate(574.328125 0)"/>
      <use xlink:href="#DejaVuSans-27" transform="translate(642.734375 0)"/>
      <use xlink:href="#DejaVuSans-c" transform="translate(719.734375 0)"/>
     </g>
    </g>
    <g id="line2d_14">
     <path d="M 60.24 54.016406 
L 70.24 54.016406 
L 80.24 54.016406 
" style="fill: none; stroke: #ff7f0e; stroke-width: 1.5; stroke-linecap: square"/>
    </g>
    <g id="text_14">
     <!-- SHOP (USD) -->
     <g transform="translate(88.24 57.516406) scale(0.1 -0.1)">
      <defs>
       <path id="DejaVuSans-38" d="M 556 4666 
L 1191 4666 
L 1191 1831 
Q 1191 1081 1462 751 
Q 1734 422 2344 422 
Q 2950 422 3222 751 
Q 3494 1081 3494 1831 
L 3494 4666 
L 4128 4666 
L 4128 1753 
Q 4128 841 3676 375 
Q 3225 -91 2344 -91 
Q 1459 -91 1007 375 
Q 556 841 556 1753 
L 556 4666 
z
" transform="scale(0.015625)"/>
      </defs>
      <use xlink:href="#DejaVuSans-36"/>
      <use xlink:href="#DejaVuSans-2b" transform="translate(63.484375 0)"/>
      <use xlink:href="#DejaVuSans-32" transform="translate(138.6875 0)"/>
      <use xlink:href="#DejaVuSans-33" transform="translate(217.40625 0)"/>
      <use xlink:href="#DejaVuSans-3" transform="translate(277.703125 0)"/>
      <use xlink:href="#DejaVuSans-b" transform="translate(309.484375 0)"/>
      <use xlink:href="#DejaVuSans-38" transform="translate(348.5 0)"/>
      <use xlink:href="#DejaVuSans-36" transform="translate(421.6875 0)"/>
      <use xlink:href="#DejaVuSans-27" transform="translate(485.171875 0)"/>
      <use xlink:href="#DejaVuSans-c" transform="translate(562.171875 0)"/>
     </g>
    </g>
   </g>
  </g>
 </g>
 <defs>
  <clipPath id="pc5cc60a4f2">
   <rect x="51.24" y="25.917188" width="585.96" height="270.282812"/>
  </clipPath>
 </defs>
</svg>
