<?xml version="1.0" encoding="utf-8" standalone="no"?>
<!DOCTYPE svg PUBLIC "-//W3C//DTD SVG 1.1//EN"
  "http://www.w3.org/Graphics/SVG/1.1/DTD/svg11.dtd">
<svg xmlns:xlink="http://www.w3.org/1999/xlink" width="648pt" height="324pt" viewBox="0 0 648 324" xmlns="http://www.w3.org/2000/svg" version="1.1">
 <metadata>
  <rdf:RDF xmlns:dc="http://purl.org/dc/elements/1.1/" xmlns:cc="http://creativecommons.org/ns#" xmlns:rdf="http://www.w3.org/1999/02/22-rdf-syntax-ns#">
   <cc:Work>
    <dc:type rdf:resource="http://purl.org/dc/dcmitype/StillImage"/>
    <dc:date>2026-06-26T00:17:38.485121</dc:date>
    <dc:format>image/svg+xml</dc:format>
    <dc:creator>
     <cc:Agent>
      <dc:title>Matplotlib v3.11.0, https://matplotlib.org/</dc:title>
     </cc:Agent>
    </dc:creator>
   </cc:Work>
  </rdf:RDF>
 </metadata>
 <defs>
  <style type="text/css">*{stroke-linejoin: round; stroke-linecap: butt}</style>
 </defs>
 <g id="figure_1">
  <g id="patch_1">
   <path d="M 0 324 
L 648 324 
L 648 0 
L 0 0 
z
" style="fill: #ffffff"/>
  </g>
  <g id="axes_1">
   <g id="patch_2">
    <path d="M 56.28 296.2 
L 626.904583 296.2 
L 626.904583 25.917188 
L 56.28 25.917188 
z
" style="fill: #ffffff"/>
   </g>
   <g id="matplotlib.axis_1">
    <g id="xtick_1">
     <g id="line2d_1">
      <defs>
       <path id="m66bc5b27ca" d="M 0 0 
L 0 3.5 
" style="stroke: #000000; stroke-width: 0.8"/>
      </defs>
      <g>
       <use xlink:href="#m66bc5b27ca" x="95.719183" y="296.2" style="stroke: #000000; stroke-width: 0.8"/>
      </g>
     </g>
     <g id="text_1">
      <!-- 2024-07 -->
      <g transform="translate(74.827777 310.797656) scale(0.1 -0.1)">
       <defs>
        <path id="DejaVuSans-15" d="M 1228 531 
L 3431 531 
L 3431 0 
L 469 0 
L 469 531 
Q 828 903 1448 1529 
Q 2069 2156 2228 2338 
Q 2531 2678 2651 2914 
Q 2772 3150 2772 3378 
Q 2772 3750 2511 3984 
Q 2250 4219 1831 4219 
Q 1534 4219 1204 4116 
Q 875 4013 500 3803 
L 500 4441 
Q 881 4594 1212 4672 
Q 1544 4750 1819 4750 
Q 2544 4750 2975 4387 
Q 3406 4025 3406 3419 
Q 3406 3131 3298 2873 
Q 3191 2616 2906 2266 
Q 2828 2175 2409 1742 
Q 1991 1309 1228 531 
z
" transform="scale(0.015625)"/>
        <path id="DejaVuSans-13" d="M 2034 4250 
Q 1547 4250 1301 3770 
Q 1056 3291 1056 2328 
Q 1056 1369 1301 889 
Q 1547 409 2034 409 
Q 2525 409 2770 889 
Q 3016 1369 3016 2328 
Q 3016 3291 2770 3770 
Q 2525 4250 2034 4250 
z
M 2034 4750 
Q 2819 4750 3233 4129 
Q 3647 3509 3647 2328 
Q 3647 1150 3233 529 
Q 2819 -91 2034 -91 
Q 1250 -91 836 529 
Q 422 1150 422 2328 
Q 422 3509 836 4129 
Q 1250 4750 2034 4750 
z
" transform="scale(0.015625)"/>
        <path id="DejaVuSans-17" d="M 2419 4116 
L 825 1625 
L 2419 1625 
L 2419 4116 
z
M 2253 4666 
L 3047 4666 
L 3047 1625 
L 3713 1625 
L 3713 1100 
L 3047 1100 
L 3047 0 
L 2419 0 
L 2419 1100 
L 313 1100 
L 313 1709 
L 2253 4666 
z
" transform="scale(0.015625)"/>
        <path id="DejaVuSans-10" d="M 313 2009 
L 1997 2009 
L 1997 1497 
L 313 1497 
L 313 2009 
z
" transform="scale(0.015625)"/>
        <path id="DejaVuSans-1a" d="M 525 4666 
L 3525 4666 
L 3525 4397 
L 1831 0 
L 1172 0 
L 2766 4134 
L 525 4134 
L 525 4666 
z
" transform="scale(0.015625)"/>
       </defs>
       <use xlink:href="#DejaVuSans-15"/>
       <use xlink:href="#DejaVuSans-13" transform="translate(63.625 0)"/>
       <use xlink:href="#DejaVuSans-15" transform="translate(127.25 0)"/>
       <use xlink:href="#DejaVuSans-17" transform="translate(190.875 0)"/>
       <use xlink:href="#DejaVuSans-10" transform="translate(254.5 0)"/>
       <use xlink:href="#DejaVuSans-13" transform="translate(290.578125 0)"/>
       <use xlink:href="#DejaVuSans-1a" transform="translate(354.203125 0)"/>
      </g>
     </g>
    </g>
    <g id="xtick_2">
     <g id="line2d_2">
      <g>
       <use xlink:href="#m66bc5b27ca" x="161.095848" y="296.2" style="stroke: #000000; stroke-width: 0.8"/>
      </g>
     </g>
     <g id="text_2">
      <!-- 2024-10 -->
      <g transform="translate(140.204442 310.797656) scale(0.1 -0.1)">
       <defs>
        <path id="DejaVuSans-14" d="M 794 531 
L 1825 531 
L 1825 4091 
L 703 3866 
L 703 4441 
L 1819 4666 
L 2450 4666 
L 2450 531 
L 3481 531 
L 3481 0 
L 794 0 
L 794 531 
z
" transform="scale(0.015625)"/>
       </defs>
       <use xlink:href="#DejaVuSans-15"/>
       <use xlink:href="#DejaVuSans-13" transform="translate(63.625 0)"/>
       <use xlink:href="#DejaVuSans-15" transform="translate(127.25 0)"/>
       <use xlink:href="#DejaVuSans-17" transform="translate(190.875 0)"/>
       <use xlink:href="#DejaVuSans-10" transform="translate(254.5 0)"/>
       <use xlink:href="#DejaVuSans-14" transform="translate(290.578125 0)"/>
       <use xlink:href="#DejaVuSans-13" transform="translate(354.203125 0)"/>
      </g>
     </g>
    </g>
    <g id="xtick_3">
     <g id="line2d_3">
      <g>
       <use xlink:href="#m66bc5b27ca" x="226.472513" y="296.2" style="stroke: #000000; stroke-width: 0.8"/>
      </g>
     </g>
     <g id="text_3">
      <!-- 2025-01 -->
      <g transform="translate(205.581106 310.797656) scale(0.1 -0.1)">
       <defs>
        <path id="DejaVuSans-18" d="M 691 4666 
L 3169 4666 
L 3169 4134 
L 1269 4134 
L 1269 2991 
Q 1406 3038 1543 3061 
Q 1681 3084 1819 3084 
Q 2600 3084 3056 2656 
Q 3513 2228 3513 1497 
Q 3513 744 3044 326 
Q 2575 -91 1722 -91 
Q 1428 -91 1123 -41 
Q 819 9 494 109 
L 494 744 
Q 775 591 1075 516 
Q 1375 441 1709 441 
Q 2250 441 2565 725 
Q 2881 1009 2881 1497 
Q 2881 1984 2565 2268 
Q 2250 2553 1709 2553 
Q 1456 2553 1204 2497 
Q 953 2441 691 2322 
L 691 4666 
z
" transform="scale(0.015625)"/>
       </defs>
       <use xlink:href="#DejaVuSans-15"/>
       <use xlink:href="#DejaVuSans-13" transform="translate(63.625 0)"/>
       <use xlink:href="#DejaVuSans-15" transform="translate(127.25 0)"/>
       <use xlink:href="#DejaVuSans-18" transform="translate(190.875 0)"/>
       <use xlink:href="#DejaVuSans-10" transform="translate(254.5 0)"/>
       <use xlink:href="#DejaVuSans-13" transform="translate(290.578125 0)"/>
       <use xlink:href="#DejaVuSans-14" transform="translate(354.203125 0)"/>
      </g>
     </g>
    </g>
    <g id="xtick_4">
     <g id="line2d_4">
      <g>
       <use xlink:href="#m66bc5b27ca" x="290.427945" y="296.2" style="stroke: #000000; stroke-width: 0.8"/>
      </g>
     </g>
     <g id="text_4">
      <!-- 2025-04 -->
      <g transform="translate(269.536539 310.797656) scale(0.1 -0.1)">
       <use xlink:href="#DejaVuSans-15"/>
       <use xlink:href="#DejaVuSans-13" transform="translate(63.625 0)"/>
       <use xlink:href="#DejaVuSans-15" transform="translate(127.25 0)"/>
       <use xlink:href="#DejaVuSans-18" transform="translate(190.875 0)"/>
       <use xlink:href="#DejaVuSans-10" transform="translate(254.5 0)"/>
       <use xlink:href="#DejaVuSans-13" transform="translate(290.578125 0)"/>
       <use xlink:href="#DejaVuSans-17" transform="translate(354.203125 0)"/>
      </g>
     </g>
    </g>
    <g id="xtick_5">
     <g id="line2d_5">
      <g>
       <use xlink:href="#m66bc5b27ca" x="355.093994" y="296.2" style="stroke: #000000; stroke-width: 0.8"/>
      </g>
     </g>
     <g id="text_5">
      <!-- 2025-07 -->
      <g transform="translate(334.202588 310.797656) scale(0.1 -0.1)">
       <use xlink:href="#DejaVuSans-15"/>
       <use xlink:href="#DejaVuSans-13" transform="translate(63.625 0)"/>
       <use xlink:href="#DejaVuSans-15" transform="translate(127.25 0)"/>
       <use xlink:href="#DejaVuSans-18" transform="translate(190.875 0)"/>
       <use xlink:href="#DejaVuSans-10" transform="translate(254.5 0)"/>
       <use xlink:href="#DejaVuSans-13" transform="translate(290.578125 0)"/>
       <use xlink:href="#DejaVuSans-1a" transform="translate(354.203125 0)"/>
      </g>
     </g>
    </g>
    <g id="xtick_6">
     <g id="line2d_6">
      <g>
       <use xlink:href="#m66bc5b27ca" x="420.470658" y="296.2" style="stroke: #000000; stroke-width: 0.8"/>
      </g>
     </g>
     <g id="text_6">
      <!-- 2025-10 -->
      <g transform="translate(399.579252 310.797656) scale(0.1 -0.1)">
       <use xlink:href="#DejaVuSans-15"/>
       <use xlink:href="#DejaVuSans-13" transform="translate(63.625 0)"/>
       <use xlink:href="#DejaVuSans-15" transform="translate(127.25 0)"/>
       <use xlink:href="#DejaVuSans-18" transform="translate(190.875 0)"/>
       <use xlink:href="#DejaVuSans-10" transform="translate(254.5 0)"/>
       <use xlink:href="#DejaVuSans-14" transform="translate(290.578125 0)"/>
       <use xlink:href="#DejaVuSans-13" transform="translate(354.203125 0)"/>
      </g>
     </g>
    </g>
    <g id="xtick_7">
     <g id="line2d_7">
      <g>
       <use xlink:href="#m66bc5b27ca" x="485.847323" y="296.2" style="stroke: #000000; stroke-width: 0.8"/>
      </g>
     </g>
     <g id="text_7">
      <!-- 2026-01 -->
      <g transform="translate(464.955917 310.797656) scale(0.1 -0.1)">
       <defs>
        <path id="DejaVuSans-19" d="M 2113 2584 
Q 1688 2584 1439 2293 
Q 1191 2003 1191 1497 
Q 1191 994 1439 701 
Q 1688 409 2113 409 
Q 2538 409 2786 701 
Q 3034 994 3034 1497 
Q 3034 2003 2786 2293 
Q 2538 2584 2113 2584 
z
M 3366 4563 
L 3366 3988 
Q 3128 4100 2886 4159 
Q 2644 4219 2406 4219 
Q 1781 4219 1451 3797 
Q 1122 3375 1075 2522 
Q 1259 2794 1537 2939 
Q 1816 3084 2150 3084 
Q 2853 3084 3261 2657 
Q 3669 2231 3669 1497 
Q 3669 778 3244 343 
Q 2819 -91 2113 -91 
Q 1303 -91 875 529 
Q 447 1150 447 2328 
Q 447 3434 972 4092 
Q 1497 4750 2381 4750 
Q 2619 4750 2861 4703 
Q 3103 4656 3366 4563 
z
" transform="scale(0.015625)"/>
       </defs>
       <use xlink:href="#DejaVuSans-15"/>
       <use xlink:href="#DejaVuSans-13" transform="translate(63.625 0)"/>
       <use xlink:href="#DejaVuSans-15" transform="translate(127.25 0)"/>
       <use xlink:href="#DejaVuSans-19" transform="translate(190.875 0)"/>
       <use xlink:href="#DejaVuSans-10" transform="translate(254.5 0)"/>
       <use xlink:href="#DejaVuSans-13" transform="translate(290.578125 0)"/>
       <use xlink:href="#DejaVuSans-14" transform="translate(354.203125 0)"/>
      </g>
     </g>
    </g>
    <g id="xtick_8">
     <g id="line2d_8">
      <g>
       <use xlink:href="#m66bc5b27ca" x="549.802756" y="296.2" style="stroke: #000000; stroke-width: 0.8"/>
      </g>
     </g>
     <g id="text_8">
      <!-- 2026-04 -->
      <g transform="translate(528.911349 310.797656) scale(0.1 -0.1)">
       <use xlink:href="#DejaVuSans-15"/>
       <use xlink:href="#DejaVuSans-13" transform="translate(63.625 0)"/>
       <use xlink:href="#DejaVuSans-15" transform="translate(127.25 0)"/>
       <use xlink:href="#DejaVuSans-19" transform="translate(190.875 0)"/>
       <use xlink:href="#DejaVuSans-10" transform="translate(254.5 0)"/>
       <use xlink:href="#DejaVuSans-13" transform="translate(290.578125 0)"/>
       <use xlink:href="#DejaVuSans-17" transform="translate(354.203125 0)"/>
      </g>
     </g>
    </g>
    <g id="xtick_9">
     <g id="line2d_9">
      <g>
       <use xlink:href="#m66bc5b27ca" x="614.468804" y="296.2" style="stroke: #000000; stroke-width: 0.8"/>
      </g>
     </g>
     <g id="text_9">
      <!-- 2026-07 -->
      <g transform="translate(593.577398 310.797656) scale(0.1 -0.1)">
       <use xlink:href="#DejaVuSans-15"/>
       <use xlink:href="#DejaVuSans-13" transform="translate(63.625 0)"/>
       <use xlink:href="#DejaVuSans-15" transform="translate(127.25 0)"/>
       <use xlink:href="#DejaVuSans-19" transform="translate(190.875 0)"/>
       <use xlink:href="#DejaVuSans-10" transform="translate(254.5 0)"/>
       <use xlink:href="#DejaVuSans-13" transform="translate(290.578125 0)"/>
       <use xlink:href="#DejaVuSans-1a" transform="translate(354.203125 0)"/>
      </g>
     </g>
    </g>
   </g>
   <g id="matplotlib.axis_2">
    <g id="ytick_1">
     <g id="line2d_10">
      <defs>
       <path id="m6da3b6cfd7" d="M 0 0 
L -3.5 0 
" style="stroke: #000000; stroke-width: 0.8"/>
      </defs>
      <g>
       <use xlink:href="#m6da3b6cfd7" x="56.28" y="278.408035" style="stroke: #000000; stroke-width: 0.8"/>
      </g>
     </g>
     <g id="text_10">
      <!-- −2.0 -->
      <g transform="translate(24.997188 282.206863) scale(0.1 -0.1)">
       <defs>
        <path id="DejaVuSans-c9c" d="M 678 2272 
L 4684 2272 
L 4684 1741 
L 678 1741 
L 678 2272 
z
" transform="scale(0.015625)"/>
        <path id="DejaVuSans-11" d="M 684 794 
L 1344 794 
L 1344 0 
L 684 0 
L 684 794 
z
" transform="scale(0.015625)"/>
       </defs>
       <use xlink:href="#DejaVuSans-c9c"/>
       <use xlink:href="#DejaVuSans-15" transform="translate(83.796875 0)"/>
       <use xlink:href="#DejaVuSans-11" transform="translate(147.421875 0)"/>
       <use xlink:href="#DejaVuSans-13" transform="translate(179.203125 0)"/>
      </g>
     </g>
    </g>
    <g id="ytick_2">
     <g id="line2d_11">
      <g>
       <use xlink:href="#m6da3b6cfd7" x="56.28" y="245.179883" style="stroke: #000000; stroke-width: 0.8"/>
      </g>
     </g>
     <g id="text_11">
      <!-- −1.5 -->
      <g transform="translate(24.997188 248.978711) scale(0.1 -0.1)">
       <use xlink:href="#DejaVuSans-c9c"/>
       <use xlink:href="#DejaVuSans-14" transform="translate(83.796875 0)"/>
       <use xlink:href="#DejaVuSans-11" transform="translate(147.421875 0)"/>
       <use xlink:href="#DejaVuSans-18" transform="translate(179.203125 0)"/>
      </g>
     </g>
    </g>
    <g id="ytick_3">
     <g id="line2d_12">
      <g>
       <use xlink:href="#m6da3b6cfd7" x="56.28" y="211.951731" style="stroke: #000000; stroke-width: 0.8"/>
      </g>
     </g>
     <g id="text_12">
      <!-- −1.0 -->
      <g transform="translate(24.997188 215.750559) scale(0.1 -0.1)">
       <use xlink:href="#DejaVuSans-c9c"/>
       <use xlink:href="#DejaVuSans-14" transform="translate(83.796875 0)"/>
       <use xlink:href="#DejaVuSans-11" transform="translate(147.421875 0)"/>
       <use xlink:href="#DejaVuSans-13" transform="translate(179.203125 0)"/>
      </g>
     </g>
    </g>
    <g id="ytick_4">
     <g id="line2d_13">
      <g>
       <use xlink:href="#m6da3b6cfd7" x="56.28" y="178.723579" style="stroke: #000000; stroke-width: 0.8"/>
      </g>
     </g>
     <g id="text_13">
      <!-- −0.5 -->
      <g transform="translate(24.997188 182.522407) scale(0.1 -0.1)">
       <use xlink:href="#DejaVuSans-c9c"/>
       <use xlink:href="#DejaVuSans-13" transform="translate(83.796875 0)"/>
       <use xlink:href="#DejaVuSans-11" transform="translate(147.421875 0)"/>
       <use xlink:href="#DejaVuSans-18" transform="translate(179.203125 0)"/>
      </g>
     </g>
    </g>
    <g id="ytick_5">
     <g id="line2d_14">
      <g>
       <use xlink:href="#m6da3b6cfd7" x="56.28" y="145.495427" style="stroke: #000000; stroke-width: 0.8"/>
      </g>
     </g>
     <g id="text_14">
      <!-- 0.0 -->
      <g transform="translate(33.376875 149.294255) scale(0.1 -0.1)">
       <use xlink:href="#DejaVuSans-13"/>
       <use xlink:href="#DejaVuSans-11" transform="translate(63.625 0)"/>
       <use xlink:href="#DejaVuSans-13" transform="translate(95.40625 0)"/>
      </g>
     </g>
    </g>
    <g id="ytick_6">
     <g id="line2d_15">
      <g>
       <use xlink:href="#m6da3b6cfd7" x="56.28" y="112.267274" style="stroke: #000000; stroke-width: 0.8"/>
      </g>
     </g>
     <g id="text_15">
      <!-- 0.5 -->
      <g transform="translate(33.376875 116.066103) scale(0.1 -0.1)">
       <use xlink:href="#DejaVuSans-13"/>
       <use xlink:href="#DejaVuSans-11" transform="translate(63.625 0)"/>
       <use xlink:href="#DejaVuSans-18" transform="translate(95.40625 0)"/>
      </g>
     </g>
    </g>
    <g id="ytick_7">
     <g id="line2d_16">
      <g>
       <use xlink:href="#m6da3b6cfd7" x="56.28" y="79.039122" style="stroke: #000000; stroke-width: 0.8"/>
      </g>
     </g>
     <g id="text_16">
      <!-- 1.0 -->
      <g transform="translate(33.376875 82.83795) scale(0.1 -0.1)">
       <use xlink:href="#DejaVuSans-14"/>
       <use xlink:href="#DejaVuSans-11" transform="translate(63.625 0)"/>
       <use xlink:href="#DejaVuSans-13" transform="translate(95.40625 0)"/>
      </g>
     </g>
    </g>
    <g id="ytick_8">
     <g id="line2d_17">
      <g>
       <use xlink:href="#m6da3b6cfd7" x="56.28" y="45.81097" style="stroke: #000000; stroke-width: 0.8"/>
      </g>
     </g>
     <g id="text_17">
      <!-- 1.5 -->
      <g transform="translate(33.376875 49.609798) scale(0.1 -0.1)">
       <use xlink:href="#DejaVuSans-14"/>
       <use xlink:href="#DejaVuSans-11" transform="translate(63.625 0)"/>
       <use xlink:href="#DejaVuSans-18" transform="translate(95.40625 0)"/>
      </g>
     </g>
    </g>
    <g id="text_18">
     <!-- SHOP.TO - SHOP adjusted to CAD -->
     <g transform="translate(18.594844 243.771094) rotate(-90) scale(0.1 -0.1)">
      <defs>
       <path id="DejaVuSans-36" d="M 3425 4513 
L 3425 3897 
Q 3066 4069 2747 4153 
Q 2428 4238 2131 4238 
Q 1616 4238 1336 4038 
Q 1056 3838 1056 3469 
Q 1056 3159 1242 3001 
Q 1428 2844 1947 2747 
L 2328 2669 
Q 3034 2534 3370 2195 
Q 3706 1856 3706 1288 
Q 3706 609 3251 259 
Q 2797 -91 1919 -91 
Q 1588 -91 1214 -16 
Q 841 59 441 206 
L 441 856 
Q 825 641 1194 531 
Q 1563 422 1919 422 
Q 2459 422 2753 634 
Q 3047 847 3047 1241 
Q 3047 1584 2836 1778 
Q 2625 1972 2144 2069 
L 1759 2144 
Q 1053 2284 737 2584 
Q 422 2884 422 3419 
Q 422 4038 858 4394 
Q 1294 4750 2059 4750 
Q 2388 4750 2728 4690 
Q 3069 4631 3425 4513 
z
" transform="scale(0.015625)"/>
       <path id="DejaVuSans-2b" d="M 628 4666 
L 1259 4666 
L 1259 2753 
L 3553 2753 
L 3553 4666 
L 4184 4666 
L 4184 0 
L 3553 0 
L 3553 2222 
L 1259 2222 
L 1259 0 
L 628 0 
L 628 4666 
z
" transform="scale(0.015625)"/>
       <path id="DejaVuSans-32" d="M 2522 4238 
Q 1834 4238 1429 3725 
Q 1025 3213 1025 2328 
Q 1025 1447 1429 934 
Q 1834 422 2522 422 
Q 3209 422 3611 934 
Q 4013 1447 4013 2328 
Q 4013 3213 3611 3725 
Q 3209 4238 2522 4238 
z
M 2522 4750 
Q 3503 4750 4090 4092 
Q 4678 3434 4678 2328 
Q 4678 1225 4090 567 
Q 3503 -91 2522 -91 
Q 1538 -91 948 565 
Q 359 1222 359 2328 
Q 359 3434 948 4092 
Q 1538 4750 2522 4750 
z
" transform="scale(0.015625)"/>
       <path id="DejaVuSans-33" d="M 1259 4147 
L 1259 2394 
L 2053 2394 
Q 2494 2394 2734 2622 
Q 2975 2850 2975 3272 
Q 2975 3691 2734 3919 
Q 2494 4147 2053 4147 
L 1259 4147 
z
M 628 4666 
L 2053 4666 
Q 2838 4666 3239 4311 
Q 3641 3956 3641 3272 
Q 3641 2581 3239 2228 
Q 2838 1875 2053 1875 
L 1259 1875 
L 1259 0 
L 628 0 
L 628 4666 
z
" transform="scale(0.015625)"/>
       <path id="DejaVuSans-37" d="M -19 4666 
L 3928 4666 
L 3928 4134 
L 2272 4134 
L 2272 0 
L 1638 0 
L 1638 4134 
L -19 4134 
L -19 4666 
z
" transform="scale(0.015625)"/>
       <path id="DejaVuSans-3" transform="scale(0.015625)"/>
       <path id="DejaVuSans-44" d="M 2194 1759 
Q 1497 1759 1228 1600 
Q 959 1441 959 1056 
Q 959 750 1161 570 
Q 1363 391 1709 391 
Q 2188 391 2477 730 
Q 2766 1069 2766 1631 
L 2766 1759 
L 2194 1759 
z
M 3341 1997 
L 3341 0 
L 2766 0 
L 2766 531 
Q 2569 213 2275 61 
Q 1981 -91 1556 -91 
Q 1019 -91 701 211 
Q 384 513 384 1019 
Q 384 1609 779 1909 
Q 1175 2209 1959 2209 
L 2766 2209 
L 2766 2266 
Q 2766 2663 2505 2880 
Q 2244 3097 1772 3097 
Q 1472 3097 1187 3025 
Q 903 2953 641 2809 
L 641 3341 
Q 956 3463 1253 3523 
Q 1550 3584 1831 3584 
Q 2591 3584 2966 3190 
Q 3341 2797 3341 1997 
z
" transform="scale(0.015625)"/>
       <path id="DejaVuSans-47" d="M 2906 2969 
L 2906 4863 
L 3481 4863 
L 3481 0 
L 2906 0 
L 2906 525 
Q 2725 213 2448 61 
Q 2172 -91 1784 -91 
Q 1150 -91 751 415 
Q 353 922 353 1747 
Q 353 2572 751 3078 
Q 1150 3584 1784 3584 
Q 2172 3584 2448 3432 
Q 2725 3281 2906 2969 
z
M 947 1747 
Q 947 1113 1208 752 
Q 1469 391 1925 391 
Q 2381 391 2643 752 
Q 2906 1113 2906 1747 
Q 2906 2381 2643 2742 
Q 2381 3103 1925 3103 
Q 1469 3103 1208 2742 
Q 947 2381 947 1747 
z
" transform="scale(0.015625)"/>
       <path id="DejaVuSans-4d" d="M 603 3500 
L 1178 3500 
L 1178 -63 
Q 1178 -731 923 -1031 
Q 669 -1331 103 -1331 
L -116 -1331 
L -116 -844 
L 38 -844 
Q 366 -844 484 -692 
Q 603 -541 603 -63 
L 603 3500 
z
M 603 4863 
L 1178 4863 
L 1178 4134 
L 603 4134 
L 603 4863 
z
" transform="scale(0.015625)"/>
       <path id="DejaVuSans-58" d="M 544 1381 
L 544 3500 
L 1119 3500 
L 1119 1403 
Q 1119 906 1312 657 
Q 1506 409 1894 409 
Q 2359 409 2629 706 
Q 2900 1003 2900 1516 
L 2900 3500 
L 3475 3500 
L 3475 0 
L 2900 0 
L 2900 538 
Q 2691 219 2414 64 
Q 2138 -91 1772 -91 
Q 1169 -91 856 284 
Q 544 659 544 1381 
z
M 1991 3584 
L 1991 3584 
z
" transform="scale(0.015625)"/>
       <path id="DejaVuSans-56" d="M 2834 3397 
L 2834 2853 
Q 2591 2978 2328 3040 
Q 2066 3103 1784 3103 
Q 1356 3103 1142 2972 
Q 928 2841 928 2578 
Q 928 2378 1081 2264 
Q 1234 2150 1697 2047 
L 1894 2003 
Q 2506 1872 2764 1633 
Q 3022 1394 3022 966 
Q 3022 478 2636 193 
Q 2250 -91 1575 -91 
Q 1294 -91 989 -36 
Q 684 19 347 128 
L 347 722 
Q 666 556 975 473 
Q 1284 391 1588 391 
Q 1994 391 2212 530 
Q 2431 669 2431 922 
Q 2431 1156 2273 1281 
Q 2116 1406 1581 1522 
L 1381 1569 
Q 847 1681 609 1914 
Q 372 2147 372 2553 
Q 372 3047 722 3315 
Q 1072 3584 1716 3584 
Q 2034 3584 2315 3537 
Q 2597 3491 2834 3397 
z
" transform="scale(0.015625)"/>
       <path id="DejaVuSans-57" d="M 1172 4494 
L 1172 3500 
L 2356 3500 
L 2356 3053 
L 1172 3053 
L 1172 1153 
Q 1172 725 1289 603 
Q 1406 481 1766 481 
L 2356 481 
L 2356 0 
L 1766 0 
Q 1100 0 847 248 
Q 594 497 594 1153 
L 594 3053 
L 172 3053 
L 172 3500 
L 594 3500 
L 594 4494 
L 1172 4494 
z
" transform="scale(0.015625)"/>
       <path id="DejaVuSans-48" d="M 3597 1894 
L 3597 1613 
L 953 1613 
Q 991 1019 1311 708 
Q 1631 397 2203 397 
Q 2534 397 2845 478 
Q 3156 559 3463 722 
L 3463 178 
Q 3153 47 2828 -22 
Q 2503 -91 2169 -91 
Q 1331 -91 842 396 
Q 353 884 353 1716 
Q 353 2575 817 3079 
Q 1281 3584 2069 3584 
Q 2775 3584 3186 3129 
Q 3597 2675 3597 1894 
z
M 3022 2063 
Q 3016 2534 2758 2815 
Q 2500 3097 2075 3097 
Q 1594 3097 1305 2825 
Q 1016 2553 972 2059 
L 3022 2063 
z
" transform="scale(0.015625)"/>
       <path id="DejaVuSans-52" d="M 1959 3097 
Q 1497 3097 1228 2736 
Q 959 2375 959 1747 
Q 959 1119 1226 758 
Q 1494 397 1959 397 
Q 2419 397 2687 759 
Q 2956 1122 2956 1747 
Q 2956 2369 2687 2733 
Q 2419 3097 1959 3097 
z
M 1959 3584 
Q 2709 3584 3137 3096 
Q 3566 2609 3566 1747 
Q 3566 888 3137 398 
Q 2709 -91 1959 -91 
Q 1206 -91 779 398 
Q 353 888 353 1747 
Q 353 2609 779 3096 
Q 1206 3584 1959 3584 
z
" transform="scale(0.015625)"/>
       <path id="DejaVuSans-26" d="M 4122 4306 
L 4122 3641 
Q 3803 3938 3442 4084 
Q 3081 4231 2675 4231 
Q 1875 4231 1450 3742 
Q 1025 3253 1025 2328 
Q 1025 1406 1450 917 
Q 1875 428 2675 428 
Q 3081 428 3442 575 
Q 3803 722 4122 1019 
L 4122 359 
Q 3791 134 3420 21 
Q 3050 -91 2638 -91 
Q 1578 -91 968 557 
Q 359 1206 359 2328 
Q 359 3453 968 4101 
Q 1578 4750 2638 4750 
Q 3056 4750 3426 4639 
Q 3797 4528 4122 4306 
z
" transform="scale(0.015625)"/>
       <path id="DejaVuSans-24" d="M 2188 4044 
L 1331 1722 
L 3047 1722 
L 2188 4044 
z
M 1831 4666 
L 2547 4666 
L 4325 0 
L 3669 0 
L 3244 1197 
L 1141 1197 
L 716 0 
L 50 0 
L 1831 4666 
z
" transform="scale(0.015625)"/>
       <path id="DejaVuSans-27" d="M 1259 4147 
L 1259 519 
L 2022 519 
Q 2988 519 3436 956 
Q 3884 1394 3884 2338 
Q 3884 3275 3436 3711 
Q 2988 4147 2022 4147 
L 1259 4147 
z
M 628 4666 
L 1925 4666 
Q 3281 4666 3915 4102 
Q 4550 3538 4550 2338 
Q 4550 1131 3912 565 
Q 3275 0 1925 0 
L 628 0 
L 628 4666 
z
" transform="scale(0.015625)"/>
      </defs>
      <use xlink:href="#DejaVuSans-36"/>
      <use xlink:href="#DejaVuSans-2b" transform="translate(63.484375 0)"/>
      <use xlink:href="#DejaVuSans-32" transform="translate(138.6875 0)"/>
      <use xlink:href="#DejaVuSans-33" transform="translate(217.40625 0)"/>
      <use xlink:href="#DejaVuSans-11" transform="translate(262.125 0)"/>
      <use xlink:href="#DejaVuSans-37" transform="translate(293.90625 0)"/>
      <use xlink:href="#DejaVuSans-32" transform="translate(354.984375 0)"/>
      <use xlink:href="#DejaVuSans-3" transform="translate(433.703125 0)"/>
      <use xlink:href="#DejaVuSans-10" transform="translate(465.484375 0)"/>
      <use xlink:href="#DejaVuSans-3" transform="translate(501.5625 0)"/>
      <use xlink:href="#DejaVuSans-36" transform="translate(533.34375 0)"/>
      <use xlink:href="#DejaVuSans-2b" transform="translate(596.828125 0)"/>
      <use xlink:href="#DejaVuSans-32" transform="translate(672.03125 0)"/>
      <use xlink:href="#DejaVuSans-33" transform="translate(750.75 0)"/>
      <use xlink:href="#DejaVuSans-3" transform="translate(811.046875 0)"/>
      <use xlink:href="#DejaVuSans-44" transform="translate(842.828125 0)"/>
      <use xlink:href="#DejaVuSans-47" transform="translate(904.109375 0)"/>
      <use xlink:href="#DejaVuSans-4d" transform="translate(967.59375 0)"/>
      <use xlink:href="#DejaVuSans-58" transform="translate(995.375 0)"/>
      <use xlink:href="#DejaVuSans-56" transform="translate(1058.75 0)"/>
      <use xlink:href="#DejaVuSans-57" transform="translate(1110.84375 0)"/>
      <use xlink:href="#DejaVuSans-48" transform="translate(1150.046875 0)"/>
      <use xlink:href="#DejaVuSans-47" transform="translate(1211.578125 0)"/>
      <use xlink:href="#DejaVuSans-3" transform="translate(1275.0625 0)"/>
      <use xlink:href="#DejaVuSans-57" transform="translate(1306.84375 0)"/>
      <use xlink:href="#DejaVuSans-52" transform="translate(1346.046875 0)"/>
      <use xlink:href="#DejaVuSans-3" transform="translate(1407.234375 0)"/>
      <use xlink:href="#DejaVuSans-26" transform="translate(1439.015625 0)"/>
      <use xlink:href="#DejaVuSans-24" transform="translate(1508.84375 0)"/>
      <use xlink:href="#DejaVuSans-27" transform="translate(1577.25 0)"/>
     </g>
    </g>
   </g>
   <g id="line2d_18">
    <path d="M 82.217481 156.349894 
L 82.928097 137.319816 
L 83.638713 147.595701 
L 85.770561 146.951425 
L 86.481177 143.365711 
L 87.902408 154.310987 
L 88.613024 140.949997 
L 90.744872 164.970514 
L 92.166104 128.342853 
L 92.87672 146.60972 
L 93.587336 150.404928 
L 96.429799 173.53365 
L 97.140415 107.302256 
L 98.561647 138.158141 
L 100.693495 140.729658 
L 102.114727 150.574815 
L 102.825343 135.787685 
L 103.535959 139.430154 
L 105.667806 132.268085 
L 106.378422 147.427478 
L 107.089038 137.655482 
L 107.799654 129.962881 
L 108.51027 130.996899 
L 110.642118 123.510335 
L 111.352734 136.037096 
L 112.06335 134.75819 
L 112.773966 138.08037 
L 113.484581 139.041278 
L 115.616429 135.409334 
L 117.037661 158.757248 
L 117.748277 124.420851 
L 118.458893 154.939008 
L 121.301357 164.923124 
L 123.433204 149.238995 
L 125.565052 140.838538 
L 126.275668 160.028467 
L 126.986284 140.407664 
L 127.6969 137.654616 
L 128.407516 168.355932 
L 130.539364 167.831836 
L 131.249979 149.337629 
L 131.960595 154.940123 
L 132.671211 129.142175 
L 133.381827 190.438822 
L 135.513675 154.962773 
L 136.224291 163.577195 
L 136.934907 130.620118 
L 137.645523 135.924292 
L 138.356139 152.391114 
L 141.198602 119.03014 
L 141.909218 158.903368 
L 142.619834 143.189037 
L 143.33045 117.196748 
L 145.462298 145.401374 
L 146.172914 125.278937 
L 146.88353 163.163415 
L 147.594146 144.668993 
L 148.304761 139.957 
L 150.436609 140.492408 
L 151.147225 137.520666 
L 151.857841 128.202176 
L 152.568457 168.688131 
L 153.279073 145.865903 
L 155.410921 174.258043 
L 156.121537 193.50862 
L 156.832153 111.260295 
L 157.542768 147.407297 
L 158.253384 120.973876 
L 160.385232 139.482576 
L 161.095848 154.857848 
L 161.806464 139.666261 
L 162.51708 115.409226 
L 163.227696 130.065042 
L 165.359544 119.671289 
L 166.070159 125.388399 
L 166.780775 110.362408 
L 167.491391 117.558396 
L 168.202007 134.145568 
L 171.044471 152.617052 
L 171.755087 163.990587 
L 172.465703 121.043045 
L 173.176319 136.381175 
L 175.308166 126.721094 
L 176.018782 152.486089 
L 176.729398 137.511506 
L 177.440014 137.157777 
L 178.15063 123.587608 
L 180.282478 146.436116 
L 180.993094 119.584093 
L 181.70371 149.902546 
L 182.414326 135.823847 
L 183.124942 133.143943 
L 185.256789 153.408465 
L 185.967405 176.588197 
L 186.678021 85.679755 
L 187.388637 188.483125 
L 188.099253 116.381861 
L 190.231101 131.292338 
L 190.941717 103.826116 
L 191.652333 98.893404 
L 192.362948 92.489182 
L 193.073564 124.443227 
L 195.205412 188.791196 
L 195.916028 190.03947 
L 196.626644 126.107832 
L 197.33726 140.264088 
L 198.047876 148.823603 
L 200.179724 105.228617 
L 200.890339 168.414422 
L 201.600955 168.993332 
L 203.022187 151.02666 
L 205.154035 121.861047 
L 205.864651 119.909821 
L 206.575267 140.145544 
L 207.285883 177.394355 
L 207.996499 40.660688 
L 210.128346 124.893704 
L 210.838962 143.59061 
L 211.549578 149.146936 
L 212.260194 77.774578 
L 212.97081 128.998307 
L 215.102658 119.915388 
L 215.813274 93.023499 
L 216.52389 53.613198 
L 217.234506 194.9346 
L 217.945122 158.904077 
L 220.076969 135.341282 
L 220.787585 70.728141 
L 222.919433 136.305125 
L 225.051281 176.722168 
L 225.761897 118.343327 
L 227.183128 122.904434 
L 227.893744 111.122611 
L 230.025592 231.393761 
L 230.736208 128.718957 
L 231.446824 127.894913 
L 232.868056 121.504149 
L 234.999904 159.852034 
L 235.71052 153.497398 
L 236.421135 157.459657 
L 237.131751 96.72868 
L 237.842367 94.362792 
L 240.684831 117.452659 
L 241.395447 114.480874 
L 242.106063 149.222883 
L 242.816679 169.194406 
L 244.948526 153.28309 
L 245.659142 141.490448 
L 246.369758 107.510811 
L 247.080374 82.182075 
L 247.79099 123.448376 
L 249.922838 263.638011 
L 250.633454 220.761239 
L 251.34407 152.658239 
L 252.054686 130.929673 
L 252.765302 165.293918 
L 254.897149 164.653251 
L 255.607765 186.434662 
L 256.318381 148.230338 
L 257.028997 247.070083 
L 257.739613 161.153057 
L 260.582077 143.915667 
L 261.292693 110.230049 
L 262.003308 202.396469 
L 262.713924 101.492359 
L 264.845772 111.3075 
L 265.556388 119.72532 
L 266.267004 104.747471 
L 266.97762 66.802634 
L 267.688236 127.366763 
L 269.820084 103.108179 
L 270.5307 156.578261 
L 271.241315 189.039195 
L 271.951931 166.515381 
L 272.662547 95.439121 
L 274.794395 102.538298 
L 275.505011 155.903961 
L 276.215627 177.125825 
L 276.926243 104.467621 
L 277.636859 178.638054 
L 279.768706 196.806461 
L 280.479322 146.042902 
L 281.189938 124.703325 
L 281.900554 154.734048 
L 282.61117 126.014228 
L 284.743018 150.661473 
L 285.453634 171.373702 
L 286.16425 150.735118 
L 286.874866 140.998605 
L 287.585482 150.473535 
L 289.717329 127.106511 
L 290.427945 198.048435 
L 291.138561 123.564544 
L 291.849177 219.101368 
L 292.559793 68.991678 
L 294.691641 141.399031 
L 295.402257 140.125237 
L 296.112873 224.074935 
L 296.823489 217.221314 
L 297.534104 171.667316 
L 299.665952 144.44982 
L 300.376568 96.643276 
L 301.087184 185.566686 
L 301.7978 139.275001 
L 305.35088 151.728072 
L 306.061495 123.113745 
L 306.772111 158.816268 
L 307.482727 140.10624 
L 309.614575 181.679347 
L 310.325191 141.996523 
L 311.035807 161.086855 
L 311.746423 108.473265 
L 312.457039 173.175905 
L 314.588886 154.385737 
L 315.299502 175.4597 
L 316.010118 67.797529 
L 316.720734 89.77028 
L 317.43135 132.544736 
L 319.563198 97.847226 
L 320.273814 169.698495 
L 320.98443 108.42212 
L 321.695046 154.305471 
L 322.405662 121.458533 
L 325.248125 179.606178 
L 325.958741 178.720557 
L 326.669357 144.046657 
L 327.379973 222.755622 
L 330.222437 86.078637 
L 330.933053 121.499314 
L 332.354284 237.519 
L 335.196748 143.712366 
L 335.907364 168.75328 
L 336.61798 154.905296 
L 337.328596 124.276259 
L 339.460444 147.799647 
L 340.17106 162.380231 
L 340.881675 145.249602 
L 341.592291 190.89251 
L 342.302907 148.521255 
L 344.434755 154.785909 
L 345.145371 94.267081 
L 345.855987 127.891788 
L 347.277219 111.610985 
L 349.409067 153.126059 
L 350.119682 148.993153 
L 350.830298 156.277821 
L 351.540914 200.758871 
L 352.25153 100.560112 
L 354.383378 195.666416 
L 355.80461 187.735847 
L 356.515226 80.826718 
L 359.357689 103.368515 
L 360.068305 126.707324 
L 360.778921 130.020559 
L 361.489537 155.793127 
L 362.200153 124.281856 
L 364.332001 132.005742 
L 365.042617 133.040227 
L 365.753233 177.182096 
L 366.463849 99.100384 
L 367.174464 157.595503 
L 369.306312 176.552827 
L 370.016928 194.229602 
L 370.727544 158.663893 
L 371.43816 114.068719 
L 372.148776 86.349364 
L 374.280624 121.400408 
L 374.99124 112.44939 
L 375.701856 85.202809 
L 376.412471 118.10023 
L 377.123087 192.946179 
L 379.965551 125.132495 
L 380.676167 177.933719 
L 381.386783 145.369597 
L 382.097399 121.03431 
L 384.229247 110.427942 
L 384.939862 134.951256 
L 385.650478 138.047796 
L 386.361094 75.154911 
L 387.07171 133.129451 
L 389.203558 145.924977 
L 389.914174 87.960693 
L 390.62479 141.263538 
L 391.335406 113.15847 
L 392.046022 213.186817 
L 394.177869 110.016125 
L 394.888485 168.638545 
L 395.599101 177.756042 
L 396.309717 164.231375 
L 397.020333 163.915709 
L 399.862797 107.870402 
L 400.573413 131.955623 
L 401.284029 107.404892 
L 401.994645 111.724885 
L 404.126492 170.798487 
L 404.837108 82.062037 
L 406.25834 170.00666 
L 406.968956 136.032043 
L 409.100804 211.618536 
L 409.81142 173.877143 
L 410.522036 117.957927 
L 411.943267 134.083382 
L 414.075115 97.166716 
L 414.785731 133.57028 
L 415.496347 87.50025 
L 416.206963 104.166778 
L 416.917579 153.637627 
L 419.049427 160.061851 
L 419.760042 148.729763 
L 420.470658 121.159428 
L 421.181274 123.208567 
L 421.89189 150.542628 
L 424.023738 159.068988 
L 424.734354 133.605867 
L 425.44497 131.967283 
L 426.155586 65.34992 
L 426.866202 166.889159 
L 429.708665 131.423065 
L 430.419281 143.964038 
L 431.129897 133.416104 
L 431.840513 189.337058 
L 433.972361 112.658933 
L 434.682977 163.619354 
L 435.393593 183.801597 
L 436.814825 130.758369 
L 438.946672 132.10154 
L 439.657288 211.958212 
L 440.367904 132.884827 
L 441.07852 84.682575 
L 441.789136 93.354958 
L 443.920984 107.10537 
L 444.6316 77.551912 
L 445.342216 85.807162 
L 446.052831 127.977316 
L 446.763447 202.51179 
L 448.895295 174.596195 
L 450.316527 144.391711 
L 451.027143 87.817516 
L 451.737759 149.113242 
L 453.869607 96.759573 
L 454.580222 213.231814 
L 455.290838 67.239763 
L 456.001454 84.248595 
L 456.71207 144.693542 
L 458.843918 129.759892 
L 459.554534 148.373932 
L 460.26515 200.950819 
L 461.686382 98.209827 
L 463.818229 107.296506 
L 464.528845 158.919382 
L 465.239461 170.987921 
L 465.950077 132.388055 
L 466.660693 283.914418 
L 468.792541 110.534129 
L 469.503157 123.675591 
L 470.213773 191.741844 
L 470.924389 163.463103 
L 471.635005 147.703944 
L 473.766852 136.078536 
L 474.477468 164.15056 
L 475.188084 109.435863 
L 475.8987 146.4114 
L 476.609316 133.307158 
L 478.741164 185.370475 
L 479.45178 209.406583 
L 480.162396 154.851195 
L 483.715475 119.804502 
L 484.426091 139.130324 
L 485.136707 108.518861 
L 486.557939 111.305186 
L 488.689787 107.211675 
L 489.400403 78.890124 
L 490.111018 94.964952 
L 490.821634 129.594619 
L 491.53225 79.484846 
L 493.664098 186.44003 
L 494.374714 139.828697 
L 495.08533 153.220669 
L 495.795946 124.415995 
L 496.506562 103.305875 
L 499.349025 173.361536 
L 500.059641 149.639527 
L 500.770257 201.836877 
L 501.480873 213.875836 
L 503.612721 128.256377 
L 504.323337 259.799685 
L 505.033953 160.32328 
L 505.744569 207.194066 
L 506.455185 38.20277 
L 508.587032 121.922111 
L 509.297648 141.081392 
L 510.008264 65.510652 
L 511.429496 184.385699 
L 513.561344 217.359895 
L 514.27196 147.185986 
L 514.982576 176.450724 
L 515.693192 123.921993 
L 516.403807 113.103448 
L 519.246271 147.184594 
L 519.956887 100.237114 
L 520.667503 142.020447 
L 521.378119 134.690129 
L 523.509967 105.596072 
L 524.220583 123.006095 
L 524.931198 158.009503 
L 525.641814 151.013805 
L 526.35243 174.599483 
L 528.484278 135.749438 
L 529.194894 141.406798 
L 529.90551 181.028898 
L 530.616126 122.068482 
L 531.326742 225.382288 
L 533.458589 156.662217 
L 534.169205 144.605426 
L 534.879821 142.55282 
L 535.590437 123.740929 
L 536.301053 65.512054 
L 538.432901 168.934763 
L 539.143517 128.31798 
L 539.854133 102.136999 
L 540.564749 128.659878 
L 541.275365 129.988917 
L 543.407212 135.240386 
L 544.117828 121.710093 
L 544.828444 91.848949 
L 545.53906 112.753311 
L 546.249676 113.164349 
L 548.381524 117.232741 
L 549.09214 155.962761 
L 549.802756 150.623719 
L 550.513372 112.827621 
L 553.355835 165.760015 
L 554.066451 136.802499 
L 554.777067 143.661569 
L 555.487683 160.24363 
L 556.198299 118.360496 
L 558.330147 202.277902 
L 559.040763 154.582551 
L 559.751378 159.045069 
L 560.461994 157.797968 
L 561.17261 158.171291 
L 563.304458 190.643169 
L 564.015074 127.139337 
L 564.72569 119.292143 
L 565.436306 115.50226 
L 566.146922 177.85772 
L 568.27877 172.539453 
L 568.989385 84.383065 
L 569.700001 132.972667 
L 570.410617 193.37398 
L 571.121233 138.235701 
L 573.253081 141.921571 
L 573.963697 167.020924 
L 574.674313 90.024782 
L 575.384929 132.782878 
L 576.095545 155.318206 
L 578.227392 147.188946 
L 578.938008 125.236175 
L 579.648624 142.985873 
L 581.069856 124.312898 
L 583.91232 129.853046 
L 584.622936 148.039912 
L 585.333552 122.128608 
L 586.044167 105.074281 
L 588.886631 139.847411 
L 589.597247 126.963897 
L 590.307863 200.466574 
L 591.018479 92.782527 
L 593.150327 116.897438 
L 593.860943 144.331144 
L 594.571559 97.632303 
L 595.282174 124.010313 
L 595.99279 114.681571 
L 598.124638 133.936513 
L 598.835254 143.864558 
L 599.54587 148.826108 
L 600.256486 135.547414 
L 600.967102 139.376088 
L 600.967102 139.376088 
" clip-path="url(#pa65178aa2d)" style="fill: none; stroke: #1f77b4; stroke-width: 1.5; stroke-linecap: square"/>
   </g>
   <g id="line2d_19">
    <path d="M 56.28 145.495427 
L 626.904583 145.495427 
" clip-path="url(#pa65178aa2d)" style="fill: none; stroke: #000000; stroke-width: 0.8; stroke-linecap: square"/>
   </g>
   <g id="patch_3">
    <path d="M 56.28 296.2 
L 56.28 25.917187 
" style="fill: none; stroke: #000000; stroke-width: 0.8; stroke-linejoin: miter; stroke-linecap: square"/>
   </g>
   <g id="patch_4">
    <path d="M 626.904583 296.2 
L 626.904583 25.917187 
" style="fill: none; stroke: #000000; stroke-width: 0.8; stroke-linejoin: miter; stroke-linecap: square"/>
   </g>
   <g id="patch_5">
    <path d="M 56.28 296.2 
L 626.904583 296.2 
" style="fill: none; stroke: #000000; stroke-width: 0.8; stroke-linejoin: miter; stroke-linecap: square"/>
   </g>
   <g id="patch_6">
    <path d="M 56.28 25.917188 
L 626.904583 25.917188 
" style="fill: none; stroke: #000000; stroke-width: 0.8; stroke-linejoin: miter; stroke-linecap: square"/>
   </g>
   <g id="text_19">
    <!-- Full-Sample OLS Regression Raw Price Spread -->
    <g transform="translate(204.053541 19.917188) scale(0.12 -0.12)">
     <defs>
      <path id="DejaVuSans-29" d="M 628 4666 
L 3309 4666 
L 3309 4134 
L 1259 4134 
L 1259 2759 
L 3109 2759 
L 3109 2228 
L 1259 2228 
L 1259 0 
L 628 0 
L 628 4666 
z
" transform="scale(0.015625)"/>
      <path id="DejaVuSans-4f" d="M 603 4863 
L 1178 4863 
L 1178 0 
L 603 0 
L 603 4863 
z
" transform="scale(0.015625)"/>
      <path id="DejaVuSans-50" d="M 3328 2828 
Q 3544 3216 3844 3400 
Q 4144 3584 4550 3584 
Q 5097 3584 5394 3201 
Q 5691 2819 5691 2113 
L 5691 0 
L 5113 0 
L 5113 2094 
Q 5113 2597 4934 2840 
Q 4756 3084 4391 3084 
Q 3944 3084 3684 2787 
Q 3425 2491 3425 1978 
L 3425 0 
L 2847 0 
L 2847 2094 
Q 2847 2600 2669 2842 
Q 2491 3084 2119 3084 
Q 1678 3084 1418 2786 
Q 1159 2488 1159 1978 
L 1159 0 
L 581 0 
L 581 3500 
L 1159 3500 
L 1159 2956 
Q 1356 3278 1631 3431 
Q 1906 3584 2284 3584 
Q 2666 3584 2933 3390 
Q 3200 3197 3328 2828 
z
" transform="scale(0.015625)"/>
      <path id="DejaVuSans-53" d="M 1159 525 
L 1159 -1331 
L 581 -1331 
L 581 3500 
L 1159 3500 
L 1159 2969 
Q 1341 3281 1617 3432 
Q 1894 3584 2278 3584 
Q 2916 3584 3314 3078 
Q 3713 2572 3713 1747 
Q 3713 922 3314 415 
Q 2916 -91 2278 -91 
Q 1894 -91 1617 61 
Q 1341 213 1159 525 
z
M 3116 1747 
Q 3116 2381 2855 2742 
Q 2594 3103 2138 3103 
Q 1681 3103 1420 2742 
Q 1159 2381 1159 1747 
Q 1159 1113 1420 752 
Q 1681 391 2138 391 
Q 2594 391 2855 752 
Q 3116 1113 3116 1747 
z
" transform="scale(0.015625)"/>
      <path id="DejaVuSans-2f" d="M 628 4666 
L 1259 4666 
L 1259 531 
L 3531 531 
L 3531 0 
L 628 0 
L 628 4666 
z
" transform="scale(0.015625)"/>
      <path id="DejaVuSans-35" d="M 2841 2188 
Q 3044 2119 3236 1894 
Q 3428 1669 3622 1275 
L 4263 0 
L 3584 0 
L 2988 1197 
Q 2756 1666 2539 1819 
Q 2322 1972 1947 1972 
L 1259 1972 
L 1259 0 
L 628 0 
L 628 4666 
L 2053 4666 
Q 2853 4666 3247 4331 
Q 3641 3997 3641 3322 
Q 3641 2881 3436 2590 
Q 3231 2300 2841 2188 
z
M 1259 4147 
L 1259 2491 
L 2053 2491 
Q 2509 2491 2742 2702 
Q 2975 2913 2975 3322 
Q 2975 3731 2742 3939 
Q 2509 4147 2053 4147 
L 1259 4147 
z
" transform="scale(0.015625)"/>
      <path id="DejaVuSans-4a" d="M 2906 1791 
Q 2906 2416 2648 2759 
Q 2391 3103 1925 3103 
Q 1463 3103 1205 2759 
Q 947 2416 947 1791 
Q 947 1169 1205 825 
Q 1463 481 1925 481 
Q 2391 481 2648 825 
Q 2906 1169 2906 1791 
z
M 3481 434 
Q 3481 -459 3084 -895 
Q 2688 -1331 1869 -1331 
Q 1566 -1331 1297 -1286 
Q 1028 -1241 775 -1147 
L 775 -588 
Q 1028 -725 1275 -790 
Q 1522 -856 1778 -856 
Q 2344 -856 2625 -561 
Q 2906 -266 2906 331 
L 2906 616 
Q 2728 306 2450 153 
Q 2172 0 1784 0 
Q 1141 0 747 490 
Q 353 981 353 1791 
Q 353 2603 747 3093 
Q 1141 3584 1784 3584 
Q 2172 3584 2450 3431 
Q 2728 3278 2906 2969 
L 2906 3500 
L 3481 3500 
L 3481 434 
z
" transform="scale(0.015625)"/>
      <path id="DejaVuSans-55" d="M 2631 2963 
Q 2534 3019 2420 3045 
Q 2306 3072 2169 3072 
Q 1681 3072 1420 2755 
Q 1159 2438 1159 1844 
L 1159 0 
L 581 0 
L 581 3500 
L 1159 3500 
L 1159 2956 
Q 1341 3275 1631 3429 
Q 1922 3584 2338 3584 
Q 2397 3584 2469 3576 
Q 2541 3569 2628 3553 
L 2631 2963 
z
" transform="scale(0.015625)"/>
      <path id="DejaVuSans-4c" d="M 603 3500 
L 1178 3500 
L 1178 0 
L 603 0 
L 603 3500 
z
M 603 4863 
L 1178 4863 
L 1178 4134 
L 603 4134 
L 603 4863 
z
" transform="scale(0.015625)"/>
      <path id="DejaVuSans-51" d="M 3513 2113 
L 3513 0 
L 2938 0 
L 2938 2094 
Q 2938 2591 2744 2837 
Q 2550 3084 2163 3084 
Q 1697 3084 1428 2787 
Q 1159 2491 1159 1978 
L 1159 0 
L 581 0 
L 581 3500 
L 1159 3500 
L 1159 2956 
Q 1366 3272 1645 3428 
Q 1925 3584 2291 3584 
Q 2894 3584 3203 3211 
Q 3513 2838 3513 2113 
z
" transform="scale(0.015625)"/>
      <path id="DejaVuSans-5a" d="M 269 3500 
L 844 3500 
L 1563 769 
L 2278 3500 
L 2956 3500 
L 3675 769 
L 4391 3500 
L 4966 3500 
L 4050 0 
L 3372 0 
L 2619 2869 
L 1863 0 
L 1184 0 
L 269 3500 
z
" transform="scale(0.015625)"/>
      <path id="DejaVuSans-46" d="M 3122 3366 
L 3122 2828 
Q 2878 2963 2633 3030 
Q 2388 3097 2138 3097 
Q 1578 3097 1268 2742 
Q 959 2388 959 1747 
Q 959 1106 1268 751 
Q 1578 397 2138 397 
Q 2388 397 2633 464 
Q 2878 531 3122 666 
L 3122 134 
Q 2881 22 2623 -34 
Q 2366 -91 2075 -91 
Q 1284 -91 818 406 
Q 353 903 353 1747 
Q 353 2603 823 3093 
Q 1294 3584 2113 3584 
Q 2378 3584 2631 3529 
Q 2884 3475 3122 3366 
z
" transform="scale(0.015625)"/>
     </defs>
     <use xlink:href="#DejaVuSans-29"/>
     <use xlink:href="#DejaVuSans-58" transform="translate(52.046875 0)"/>
     <use xlink:href="#DejaVuSans-4f" transform="translate(115.421875 0)"/>
     <use xlink:href="#DejaVuSans-4f" transform="translate(143.203125 0)"/>
     <use xlink:href="#DejaVuSans-10" transform="translate(170.984375 0)"/>
     <use xlink:href="#DejaVuSans-36" transform="translate(207.0625 0)"/>
     <use xlink:href="#DejaVuSans-44" transform="translate(270.546875 0)"/>
     <use xlink:href="#DejaVuSans-50" transform="translate(331.828125 0)"/>
     <use xlink:href="#DejaVuSans-53" transform="translate(429.234375 0)"/>
     <use xlink:href="#DejaVuSans-4f" transform="translate(492.71875 0)"/>
     <use xlink:href="#DejaVuSans-48" transform="translate(520.5 0)"/>
     <use xlink:href="#DejaVuSans-3" transform="translate(582.03125 0)"/>
     <use xlink:href="#DejaVuSans-32" transform="translate(613.8125 0)"/>
     <use xlink:href="#DejaVuSans-2f" transform="translate(692.53125 0)"/>
     <use xlink:href="#DejaVuSans-36" transform="translate(748.25 0)"/>
     <use xlink:href="#DejaVuSans-3" transform="translate(811.734375 0)"/>
     <use xlink:href="#DejaVuSans-35" transform="translate(843.515625 0)"/>
     <use xlink:href="#DejaVuSans-48" transform="translate(908.515625 0)"/>
     <use xlink:href="#DejaVuSans-4a" transform="translate(970.046875 0)"/>
     <use xlink:href="#DejaVuSans-55" transform="translate(1033.53125 0)"/>
     <use xlink:href="#DejaVuSans-48" transform="translate(1072.4375 0)"/>
     <use xlink:href="#DejaVuSans-56" transform="translate(1133.96875 0)"/>
     <use xlink:href="#DejaVuSans-56" transform="translate(1186.0625 0)"/>
     <use xlink:href="#DejaVuSans-4c" transform="translate(1238.15625 0)"/>
     <use xlink:href="#DejaVuSans-52" transform="translate(1265.9375 0)"/>
     <use xlink:href="#DejaVuSans-51" transform="translate(1327.125 0)"/>
     <use xlink:href="#DejaVuSans-3" transform="translate(1390.5 0)"/>
     <use xlink:href="#DejaVuSans-35" transform="translate(1422.28125 0)"/>
     <use xlink:href="#DejaVuSans-44" transform="translate(1489.5625 0)"/>
     <use xlink:href="#DejaVuSans-5a" transform="translate(1550.84375 0)"/>
     <use xlink:href="#DejaVuSans-3" transform="translate(1632.625 0)"/>
     <use xlink:href="#DejaVuSans-33" transform="translate(1664.40625 0)"/>
     <use xlink:href="#DejaVuSans-55" transform="translate(1722.953125 0)"/>
     <use xlink:href="#DejaVuSans-4c" transform="translate(1764.0625 0)"/>
     <use xlink:href="#DejaVuSans-46" transform="translate(1791.84375 0)"/>
     <use xlink:href="#DejaVuSans-48" transform="translate(1846.828125 0)"/>
     <use xlink:href="#DejaVuSans-3" transform="translate(1908.359375 0)"/>
     <use xlink:href="#DejaVuSans-36" transform="translate(1940.140625 0)"/>
     <use xlink:href="#DejaVuSans-53" transform="translate(2003.625 0)"/>
     <use xlink:href="#DejaVuSans-55" transform="translate(2067.109375 0)"/>
     <use xlink:href="#DejaVuSans-48" transform="translate(2106.015625 0)"/>
     <use xlink:href="#DejaVuSans-44" transform="translate(2167.546875 0)"/>
     <use xlink:href="#DejaVuSans-47" transform="translate(2228.828125 0)"/>
    </g>
   </g>
  </g>
 </g>
 <defs>
  <clipPath id="pa65178aa2d">
   <rect x="56.28" y="25.917188" width="570.624583" height="270.282812"/>
  </clipPath>
 </defs>
</svg>
