<?xml version="1.0" encoding="utf-8" standalone="no"?>
<!DOCTYPE svg PUBLIC "-//W3C//DTD SVG 1.1//EN"
  "http://www.w3.org/Graphics/SVG/1.1/DTD/svg11.dtd">
<svg xmlns:xlink="http://www.w3.org/1999/xlink" width="648pt" height="324pt" viewBox="0 0 648 324" xmlns="http://www.w3.org/2000/svg" version="1.1">
 <metadata>
  <rdf:RDF xmlns:dc="http://purl.org/dc/elements/1.1/" xmlns:cc="http://creativecommons.org/ns#" xmlns:rdf="http://www.w3.org/1999/02/22-rdf-syntax-ns#">
   <cc:Work>
    <dc:type rdf:resource="http://purl.org/dc/dcmitype/StillImage"/>
    <dc:date>2026-06-26T00:17:38.328983</dc:date>
    <dc:format>image/svg+xml</dc:format>
    <dc:creator>
     <cc:Agent>
      <dc:title>Matplotlib v3.11.0, https://matplotlib.org/</dc:title>
     </cc:Agent>
    </dc:creator>
   </cc:Work>
  </rdf:RDF>
 </metadata>
 <defs>
  <style type="text/css">*{stroke-linejoin: round; stroke-linecap: butt}</style>
 </defs>
 <g id="figure_1">
  <g id="patch_1">
   <path d="M 0 324 
L 648 324 
L 648 0 
L 0 0 
z
" style="fill: #ffffff"/>
  </g>
  <g id="axes_1">
   <g id="patch_2">
    <path d="M 51.24 296.2 
L 626.904583 296.2 
L 626.904583 25.917188 
L 51.24 25.917188 
z
" style="fill: #ffffff"/>
   </g>
   <g id="matplotlib.axis_1">
    <g id="xtick_1">
     <g id="line2d_1">
      <defs>
       <path id="m7144191647" d="M 0 0 
L 0 3.5 
" style="stroke: #000000; stroke-width: 0.8"/>
      </defs>
      <g>
       <use xlink:href="#m7144191647" x="91.027527" y="296.2" style="stroke: #000000; stroke-width: 0.8"/>
      </g>
     </g>
     <g id="text_1">
      <!-- 2024-07 -->
      <g transform="translate(70.136121 310.797656) scale(0.1 -0.1)">
       <defs>
        <path id="DejaVuSans-15" d="M 1228 531 
L 3431 531 
L 3431 0 
L 469 0 
L 469 531 
Q 828 903 1448 1529 
Q 2069 2156 2228 2338 
Q 2531 2678 2651 2914 
Q 2772 3150 2772 3378 
Q 2772 3750 2511 3984 
Q 2250 4219 1831 4219 
Q 1534 4219 1204 4116 
Q 875 4013 500 3803 
L 500 4441 
Q 881 4594 1212 4672 
Q 1544 4750 1819 4750 
Q 2544 4750 2975 4387 
Q 3406 4025 3406 3419 
Q 3406 3131 3298 2873 
Q 3191 2616 2906 2266 
Q 2828 2175 2409 1742 
Q 1991 1309 1228 531 
z
" transform="scale(0.015625)"/>
        <path id="DejaVuSans-13" d="M 2034 4250 
Q 1547 4250 1301 3770 
Q 1056 3291 1056 2328 
Q 1056 1369 1301 889 
Q 1547 409 2034 409 
Q 2525 409 2770 889 
Q 3016 1369 3016 2328 
Q 3016 3291 2770 3770 
Q 2525 4250 2034 4250 
z
M 2034 4750 
Q 2819 4750 3233 4129 
Q 3647 3509 3647 2328 
Q 3647 1150 3233 529 
Q 2819 -91 2034 -91 
Q 1250 -91 836 529 
Q 422 1150 422 2328 
Q 422 3509 836 4129 
Q 1250 4750 2034 4750 
z
" transform="scale(0.015625)"/>
        <path id="DejaVuSans-17" d="M 2419 4116 
L 825 1625 
L 2419 1625 
L 2419 4116 
z
M 2253 4666 
L 3047 4666 
L 3047 1625 
L 3713 1625 
L 3713 1100 
L 3047 1100 
L 3047 0 
L 2419 0 
L 2419 1100 
L 313 1100 
L 313 1709 
L 2253 4666 
z
" transform="scale(0.015625)"/>
        <path id="DejaVuSans-10" d="M 313 2009 
L 1997 2009 
L 1997 1497 
L 313 1497 
L 313 2009 
z
" transform="scale(0.015625)"/>
        <path id="DejaVuSans-1a" d="M 525 4666 
L 3525 4666 
L 3525 4397 
L 1831 0 
L 1172 0 
L 2766 4134 
L 525 4134 
L 525 4666 
z
" transform="scale(0.015625)"/>
       </defs>
       <use xlink:href="#DejaVuSans-15"/>
       <use xlink:href="#DejaVuSans-13" transform="translate(63.625 0)"/>
       <use xlink:href="#DejaVuSans-15" transform="translate(127.25 0)"/>
       <use xlink:href="#DejaVuSans-17" transform="translate(190.875 0)"/>
       <use xlink:href="#DejaVuSans-10" transform="translate(254.5 0)"/>
       <use xlink:href="#DejaVuSans-13" transform="translate(290.578125 0)"/>
       <use xlink:href="#DejaVuSans-1a" transform="translate(354.203125 0)"/>
      </g>
     </g>
    </g>
    <g id="xtick_2">
     <g id="line2d_2">
      <g>
       <use xlink:href="#m7144191647" x="156.981626" y="296.2" style="stroke: #000000; stroke-width: 0.8"/>
      </g>
     </g>
     <g id="text_2">
      <!-- 2024-10 -->
      <g transform="translate(136.09022 310.797656) scale(0.1 -0.1)">
       <defs>
        <path id="DejaVuSans-14" d="M 794 531 
L 1825 531 
L 1825 4091 
L 703 3866 
L 703 4441 
L 1819 4666 
L 2450 4666 
L 2450 531 
L 3481 531 
L 3481 0 
L 794 0 
L 794 531 
z
" transform="scale(0.015625)"/>
       </defs>
       <use xlink:href="#DejaVuSans-15"/>
       <use xlink:href="#DejaVuSans-13" transform="translate(63.625 0)"/>
       <use xlink:href="#DejaVuSans-15" transform="translate(127.25 0)"/>
       <use xlink:href="#DejaVuSans-17" transform="translate(190.875 0)"/>
       <use xlink:href="#DejaVuSans-10" transform="translate(254.5 0)"/>
       <use xlink:href="#DejaVuSans-14" transform="translate(290.578125 0)"/>
       <use xlink:href="#DejaVuSans-13" transform="translate(354.203125 0)"/>
      </g>
     </g>
    </g>
    <g id="xtick_3">
     <g id="line2d_3">
      <g>
       <use xlink:href="#m7144191647" x="222.935726" y="296.2" style="stroke: #000000; stroke-width: 0.8"/>
      </g>
     </g>
     <g id="text_3">
      <!-- 2025-01 -->
      <g transform="translate(202.044319 310.797656) scale(0.1 -0.1)">
       <defs>
        <path id="DejaVuSans-18" d="M 691 4666 
L 3169 4666 
L 3169 4134 
L 1269 4134 
L 1269 2991 
Q 1406 3038 1543 3061 
Q 1681 3084 1819 3084 
Q 2600 3084 3056 2656 
Q 3513 2228 3513 1497 
Q 3513 744 3044 326 
Q 2575 -91 1722 -91 
Q 1428 -91 1123 -41 
Q 819 9 494 109 
L 494 744 
Q 775 591 1075 516 
Q 1375 441 1709 441 
Q 2250 441 2565 725 
Q 2881 1009 2881 1497 
Q 2881 1984 2565 2268 
Q 2250 2553 1709 2553 
Q 1456 2553 1204 2497 
Q 953 2441 691 2322 
L 691 4666 
z
" transform="scale(0.015625)"/>
       </defs>
       <use xlink:href="#DejaVuSans-15"/>
       <use xlink:href="#DejaVuSans-13" transform="translate(63.625 0)"/>
       <use xlink:href="#DejaVuSans-15" transform="translate(127.25 0)"/>
       <use xlink:href="#DejaVuSans-18" transform="translate(190.875 0)"/>
       <use xlink:href="#DejaVuSans-10" transform="translate(254.5 0)"/>
       <use xlink:href="#DejaVuSans-13" transform="translate(290.578125 0)"/>
       <use xlink:href="#DejaVuSans-14" transform="translate(354.203125 0)"/>
      </g>
     </g>
    </g>
    <g id="xtick_4">
     <g id="line2d_4">
      <g>
       <use xlink:href="#m7144191647" x="287.45604" y="296.2" style="stroke: #000000; stroke-width: 0.8"/>
      </g>
     </g>
     <g id="text_4">
      <!-- 2025-04 -->
      <g transform="translate(266.564634 310.797656) scale(0.1 -0.1)">
       <use xlink:href="#DejaVuSans-15"/>
       <use xlink:href="#DejaVuSans-13" transform="translate(63.625 0)"/>
       <use xlink:href="#DejaVuSans-15" transform="translate(127.25 0)"/>
       <use xlink:href="#DejaVuSans-18" transform="translate(190.875 0)"/>
       <use xlink:href="#DejaVuSans-10" transform="translate(254.5 0)"/>
       <use xlink:href="#DejaVuSans-13" transform="translate(290.578125 0)"/>
       <use xlink:href="#DejaVuSans-17" transform="translate(354.203125 0)"/>
      </g>
     </g>
    </g>
    <g id="xtick_5">
     <g id="line2d_5">
      <g>
       <use xlink:href="#m7144191647" x="352.693247" y="296.2" style="stroke: #000000; stroke-width: 0.8"/>
      </g>
     </g>
     <g id="text_5">
      <!-- 2025-07 -->
      <g transform="translate(331.80184 310.797656) scale(0.1 -0.1)">
       <use xlink:href="#DejaVuSans-15"/>
       <use xlink:href="#DejaVuSans-13" transform="translate(63.625 0)"/>
       <use xlink:href="#DejaVuSans-15" transform="translate(127.25 0)"/>
       <use xlink:href="#DejaVuSans-18" transform="translate(190.875 0)"/>
       <use xlink:href="#DejaVuSans-10" transform="translate(254.5 0)"/>
       <use xlink:href="#DejaVuSans-13" transform="translate(290.578125 0)"/>
       <use xlink:href="#DejaVuSans-1a" transform="translate(354.203125 0)"/>
      </g>
     </g>
    </g>
    <g id="xtick_6">
     <g id="line2d_6">
      <g>
       <use xlink:href="#m7144191647" x="418.647346" y="296.2" style="stroke: #000000; stroke-width: 0.8"/>
      </g>
     </g>
     <g id="text_6">
      <!-- 2025-10 -->
      <g transform="translate(397.75594 310.797656) scale(0.1 -0.1)">
       <use xlink:href="#DejaVuSans-15"/>
       <use xlink:href="#DejaVuSans-13" transform="translate(63.625 0)"/>
       <use xlink:href="#DejaVuSans-15" transform="translate(127.25 0)"/>
       <use xlink:href="#DejaVuSans-18" transform="translate(190.875 0)"/>
       <use xlink:href="#DejaVuSans-10" transform="translate(254.5 0)"/>
       <use xlink:href="#DejaVuSans-14" transform="translate(290.578125 0)"/>
       <use xlink:href="#DejaVuSans-13" transform="translate(354.203125 0)"/>
      </g>
     </g>
    </g>
    <g id="xtick_7">
     <g id="line2d_7">
      <g>
       <use xlink:href="#m7144191647" x="484.601445" y="296.2" style="stroke: #000000; stroke-width: 0.8"/>
      </g>
     </g>
     <g id="text_7">
      <!-- 2026-01 -->
      <g transform="translate(463.710039 310.797656) scale(0.1 -0.1)">
       <defs>
        <path id="DejaVuSans-19" d="M 2113 2584 
Q 1688 2584 1439 2293 
Q 1191 2003 1191 1497 
Q 1191 994 1439 701 
Q 1688 409 2113 409 
Q 2538 409 2786 701 
Q 3034 994 3034 1497 
Q 3034 2003 2786 2293 
Q 2538 2584 2113 2584 
z
M 3366 4563 
L 3366 3988 
Q 3128 4100 2886 4159 
Q 2644 4219 2406 4219 
Q 1781 4219 1451 3797 
Q 1122 3375 1075 2522 
Q 1259 2794 1537 2939 
Q 1816 3084 2150 3084 
Q 2853 3084 3261 2657 
Q 3669 2231 3669 1497 
Q 3669 778 3244 343 
Q 2819 -91 2113 -91 
Q 1303 -91 875 529 
Q 447 1150 447 2328 
Q 447 3434 972 4092 
Q 1497 4750 2381 4750 
Q 2619 4750 2861 4703 
Q 3103 4656 3366 4563 
z
" transform="scale(0.015625)"/>
       </defs>
       <use xlink:href="#DejaVuSans-15"/>
       <use xlink:href="#DejaVuSans-13" transform="translate(63.625 0)"/>
       <use xlink:href="#DejaVuSans-15" transform="translate(127.25 0)"/>
       <use xlink:href="#DejaVuSans-19" transform="translate(190.875 0)"/>
       <use xlink:href="#DejaVuSans-10" transform="translate(254.5 0)"/>
       <use xlink:href="#DejaVuSans-13" transform="translate(290.578125 0)"/>
       <use xlink:href="#DejaVuSans-14" transform="translate(354.203125 0)"/>
      </g>
     </g>
    </g>
    <g id="xtick_8">
     <g id="line2d_8">
      <g>
       <use xlink:href="#m7144191647" x="549.121759" y="296.2" style="stroke: #000000; stroke-width: 0.8"/>
      </g>
     </g>
     <g id="text_8">
      <!-- 2026-04 -->
      <g transform="translate(528.230353 310.797656) scale(0.1 -0.1)">
       <use xlink:href="#DejaVuSans-15"/>
       <use xlink:href="#DejaVuSans-13" transform="translate(63.625 0)"/>
       <use xlink:href="#DejaVuSans-15" transform="translate(127.25 0)"/>
       <use xlink:href="#DejaVuSans-19" transform="translate(190.875 0)"/>
       <use xlink:href="#DejaVuSans-10" transform="translate(254.5 0)"/>
       <use xlink:href="#DejaVuSans-13" transform="translate(290.578125 0)"/>
       <use xlink:href="#DejaVuSans-17" transform="translate(354.203125 0)"/>
      </g>
     </g>
    </g>
    <g id="xtick_9">
     <g id="line2d_9">
      <g>
       <use xlink:href="#m7144191647" x="614.358966" y="296.2" style="stroke: #000000; stroke-width: 0.8"/>
      </g>
     </g>
     <g id="text_9">
      <!-- 2026-07 -->
      <g transform="translate(593.46756 310.797656) scale(0.1 -0.1)">
       <use xlink:href="#DejaVuSans-15"/>
       <use xlink:href="#DejaVuSans-13" transform="translate(63.625 0)"/>
       <use xlink:href="#DejaVuSans-15" transform="translate(127.25 0)"/>
       <use xlink:href="#DejaVuSans-19" transform="translate(190.875 0)"/>
       <use xlink:href="#DejaVuSans-10" transform="translate(254.5 0)"/>
       <use xlink:href="#DejaVuSans-13" transform="translate(290.578125 0)"/>
       <use xlink:href="#DejaVuSans-1a" transform="translate(354.203125 0)"/>
      </g>
     </g>
    </g>
   </g>
   <g id="matplotlib.axis_2">
    <g id="ytick_1">
     <g id="line2d_10">
      <defs>
       <path id="mb398890375" d="M 0 0 
L -3.5 0 
" style="stroke: #000000; stroke-width: 0.8"/>
      </defs>
      <g>
       <use xlink:href="#mb398890375" x="51.24" y="289.218543" style="stroke: #000000; stroke-width: 0.8"/>
      </g>
     </g>
     <g id="text_10">
      <!-- 50 -->
      <g transform="translate(31.515 293.017371) scale(0.1 -0.1)">
       <use xlink:href="#DejaVuSans-18"/>
       <use xlink:href="#DejaVuSans-13" transform="translate(63.625 0)"/>
      </g>
     </g>
    </g>
    <g id="ytick_2">
     <g id="line2d_11">
      <g>
       <use xlink:href="#mb398890375" x="51.24" y="257.79601" style="stroke: #000000; stroke-width: 0.8"/>
      </g>
     </g>
     <g id="text_11">
      <!-- 75 -->
      <g transform="translate(31.515 261.594838) scale(0.1 -0.1)">
       <use xlink:href="#DejaVuSans-1a"/>
       <use xlink:href="#DejaVuSans-18" transform="translate(63.625 0)"/>
      </g>
     </g>
    </g>
    <g id="ytick_3">
     <g id="line2d_12">
      <g>
       <use xlink:href="#mb398890375" x="51.24" y="226.373476" style="stroke: #000000; stroke-width: 0.8"/>
      </g>
     </g>
     <g id="text_12">
      <!-- 100 -->
      <g transform="translate(25.1525 230.172304) scale(0.1 -0.1)">
       <use xlink:href="#DejaVuSans-14"/>
       <use xlink:href="#DejaVuSans-13" transform="translate(63.625 0)"/>
       <use xlink:href="#DejaVuSans-13" transform="translate(127.25 0)"/>
      </g>
     </g>
    </g>
    <g id="ytick_4">
     <g id="line2d_13">
      <g>
       <use xlink:href="#mb398890375" x="51.24" y="194.950943" style="stroke: #000000; stroke-width: 0.8"/>
      </g>
     </g>
     <g id="text_13">
      <!-- 125 -->
      <g transform="translate(25.1525 198.749771) scale(0.1 -0.1)">
       <use xlink:href="#DejaVuSans-14"/>
       <use xlink:href="#DejaVuSans-15" transform="translate(63.625 0)"/>
       <use xlink:href="#DejaVuSans-18" transform="translate(127.25 0)"/>
      </g>
     </g>
    </g>
    <g id="ytick_5">
     <g id="line2d_14">
      <g>
       <use xlink:href="#mb398890375" x="51.24" y="163.52841" style="stroke: #000000; stroke-width: 0.8"/>
      </g>
     </g>
     <g id="text_14">
      <!-- 150 -->
      <g transform="translate(25.1525 167.327238) scale(0.1 -0.1)">
       <use xlink:href="#DejaVuSans-14"/>
       <use xlink:href="#DejaVuSans-18" transform="translate(63.625 0)"/>
       <use xlink:href="#DejaVuSans-13" transform="translate(127.25 0)"/>
      </g>
     </g>
    </g>
    <g id="ytick_6">
     <g id="line2d_15">
      <g>
       <use xlink:href="#mb398890375" x="51.24" y="132.105877" style="stroke: #000000; stroke-width: 0.8"/>
      </g>
     </g>
     <g id="text_15">
      <!-- 175 -->
      <g transform="translate(25.1525 135.904705) scale(0.1 -0.1)">
       <use xlink:href="#DejaVuSans-14"/>
       <use xlink:href="#DejaVuSans-1a" transform="translate(63.625 0)"/>
       <use xlink:href="#DejaVuSans-18" transform="translate(127.25 0)"/>
      </g>
     </g>
    </g>
    <g id="ytick_7">
     <g id="line2d_16">
      <g>
       <use xlink:href="#mb398890375" x="51.24" y="100.683343" style="stroke: #000000; stroke-width: 0.8"/>
      </g>
     </g>
     <g id="text_16">
      <!-- 200 -->
      <g transform="translate(25.1525 104.482172) scale(0.1 -0.1)">
       <use xlink:href="#DejaVuSans-15"/>
       <use xlink:href="#DejaVuSans-13" transform="translate(63.625 0)"/>
       <use xlink:href="#DejaVuSans-13" transform="translate(127.25 0)"/>
      </g>
     </g>
    </g>
    <g id="ytick_8">
     <g id="line2d_17">
      <g>
       <use xlink:href="#mb398890375" x="51.24" y="69.26081" style="stroke: #000000; stroke-width: 0.8"/>
      </g>
     </g>
     <g id="text_17">
      <!-- 225 -->
      <g transform="translate(25.1525 73.059638) scale(0.1 -0.1)">
       <use xlink:href="#DejaVuSans-15"/>
       <use xlink:href="#DejaVuSans-15" transform="translate(63.625 0)"/>
       <use xlink:href="#DejaVuSans-18" transform="translate(127.25 0)"/>
      </g>
     </g>
    </g>
    <g id="ytick_9">
     <g id="line2d_18">
      <g>
       <use xlink:href="#mb398890375" x="51.24" y="37.838277" style="stroke: #000000; stroke-width: 0.8"/>
      </g>
     </g>
     <g id="text_18">
      <!-- 250 -->
      <g transform="translate(25.1525 41.637105) scale(0.1 -0.1)">
       <use xlink:href="#DejaVuSans-15"/>
       <use xlink:href="#DejaVuSans-18" transform="translate(63.625 0)"/>
       <use xlink:href="#DejaVuSans-13" transform="translate(127.25 0)"/>
      </g>
     </g>
    </g>
    <g id="text_19">
     <!-- Price -->
     <g transform="translate(18.750156 173.25625) rotate(-90) scale(0.1 -0.1)">
      <defs>
       <path id="DejaVuSans-33" d="M 1259 4147 
L 1259 2394 
L 2053 2394 
Q 2494 2394 2734 2622 
Q 2975 2850 2975 3272 
Q 2975 3691 2734 3919 
Q 2494 4147 2053 4147 
L 1259 4147 
z
M 628 4666 
L 2053 4666 
Q 2838 4666 3239 4311 
Q 3641 3956 3641 3272 
Q 3641 2581 3239 2228 
Q 2838 1875 2053 1875 
L 1259 1875 
L 1259 0 
L 628 0 
L 628 4666 
z
" transform="scale(0.015625)"/>
       <path id="DejaVuSans-55" d="M 2631 2963 
Q 2534 3019 2420 3045 
Q 2306 3072 2169 3072 
Q 1681 3072 1420 2755 
Q 1159 2438 1159 1844 
L 1159 0 
L 581 0 
L 581 3500 
L 1159 3500 
L 1159 2956 
Q 1341 3275 1631 3429 
Q 1922 3584 2338 3584 
Q 2397 3584 2469 3576 
Q 2541 3569 2628 3553 
L 2631 2963 
z
" transform="scale(0.015625)"/>
       <path id="DejaVuSans-4c" d="M 603 3500 
L 1178 3500 
L 1178 0 
L 603 0 
L 603 3500 
z
M 603 4863 
L 1178 4863 
L 1178 4134 
L 603 4134 
L 603 4863 
z
" transform="scale(0.015625)"/>
       <path id="DejaVuSans-46" d="M 3122 3366 
L 3122 2828 
Q 2878 2963 2633 3030 
Q 2388 3097 2138 3097 
Q 1578 3097 1268 2742 
Q 959 2388 959 1747 
Q 959 1106 1268 751 
Q 1578 397 2138 397 
Q 2388 397 2633 464 
Q 2878 531 3122 666 
L 3122 134 
Q 2881 22 2623 -34 
Q 2366 -91 2075 -91 
Q 1284 -91 818 406 
Q 353 903 353 1747 
Q 353 2603 823 3093 
Q 1294 3584 2113 3584 
Q 2378 3584 2631 3529 
Q 2884 3475 3122 3366 
z
" transform="scale(0.015625)"/>
       <path id="DejaVuSans-48" d="M 3597 1894 
L 3597 1613 
L 953 1613 
Q 991 1019 1311 708 
Q 1631 397 2203 397 
Q 2534 397 2845 478 
Q 3156 559 3463 722 
L 3463 178 
Q 3153 47 2828 -22 
Q 2503 -91 2169 -91 
Q 1331 -91 842 396 
Q 353 884 353 1716 
Q 353 2575 817 3079 
Q 1281 3584 2069 3584 
Q 2775 3584 3186 3129 
Q 3597 2675 3597 1894 
z
M 3022 2063 
Q 3016 2534 2758 2815 
Q 2500 3097 2075 3097 
Q 1594 3097 1305 2825 
Q 1016 2553 972 2059 
L 3022 2063 
z
" transform="scale(0.015625)"/>
      </defs>
      <use xlink:href="#DejaVuSans-33"/>
      <use xlink:href="#DejaVuSans-55" transform="translate(58.546875 0)"/>
      <use xlink:href="#DejaVuSans-4c" transform="translate(99.65625 0)"/>
      <use xlink:href="#DejaVuSans-46" transform="translate(127.4375 0)"/>
      <use xlink:href="#DejaVuSans-48" transform="translate(182.421875 0)"/>
     </g>
    </g>
   </g>
   <g id="line2d_19">
    <path d="M 77.406572 239.08075 
L 78.123464 240.337651 
L 78.840357 235.247197 
L 80.991034 237.270809 
L 81.707926 241.280327 
L 83.141711 242.185297 
L 83.858603 240.12398 
L 86.009281 241.682535 
L 86.726173 240.865547 
L 88.159958 237.760999 
L 88.87685 238.427155 
L 91.74442 238.52771 
L 92.461312 236.629796 
L 93.895097 236.189873 
L 96.045774 236.541803 
L 96.762666 238.779096 
L 97.479559 239.759477 
L 98.196451 240.098837 
L 98.913343 240.827842 
L 101.064021 241.682535 
L 101.780913 232.255775 
L 102.497805 240.563893 
L 103.214698 243.266233 
L 103.93159 243.014847 
L 106.082267 243.643298 
L 106.79916 243.505038 
L 107.516052 249.161094 
L 108.232944 248.746324 
L 108.949837 247.828782 
L 111.100514 247.81621 
L 111.817406 248.9977 
L 112.534299 245.780036 
L 113.251191 250.707087 
L 113.968083 257.280675 
L 116.835653 258.349049 
L 117.552545 241.619686 
L 118.269438 233.726347 
L 118.98633 232.494589 
L 121.137007 234.040572 
L 121.8539 231.60219 
L 122.570792 228.610759 
L 123.287684 222.879292 
L 124.004577 223.809396 
L 126.155254 223.268928 
L 126.872146 223.872245 
L 127.589039 221.924044 
L 128.305931 224.902904 
L 129.022823 222.728461 
L 131.173501 224.990887 
L 131.890393 226.109528 
L 132.607285 229.188933 
L 133.324178 227.768638 
L 134.04107 226.612291 
L 136.90864 230.672077 
L 137.625532 232.783671 
L 138.342424 232.98478 
L 139.059317 237.823848 
L 141.209994 235.925924 
L 141.926886 235.460877 
L 142.643779 230.056198 
L 143.360671 230.345289 
L 144.077563 228.334239 
L 146.228241 226.39861 
L 147.662025 223.231223 
L 148.378918 217.901964 
L 149.09581 217.876821 
L 151.246487 216.029174 
L 151.96338 216.368543 
L 152.680272 217.713427 
L 153.397164 215.262473 
L 154.114057 217.436907 
L 156.264734 215.878352 
L 156.981626 218.857202 
L 157.698519 217.788838 
L 158.415411 218.857202 
L 159.132304 211.403777 
L 161.282981 213.565649 
L 161.999873 210.335413 
L 162.716765 208.274095 
L 163.433658 209.015672 
L 164.15055 208.035291 
L 167.735012 210.637076 
L 168.451904 210.473673 
L 169.168797 208.525481 
L 171.319474 208.336944 
L 172.036366 210.297707 
L 172.753259 213.57822 
L 173.470151 213.08803 
L 174.187044 214.005572 
L 176.337721 212.585267 
L 177.054613 211.227811 
L 177.771505 212.233336 
L 178.488398 215.161919 
L 179.20529 213.477666 
L 181.355967 214.985953 
L 182.07286 213.628498 
L 183.506644 202.894559 
L 184.223537 199.664323 
L 186.374214 194.485886 
L 187.091106 160.68782 
L 187.807999 149.451119 
L 188.524891 159.217247 
L 189.241784 159.921109 
L 191.392461 165.426324 
L 192.109353 168.568577 
L 192.826245 169.385575 
L 193.543138 165.024125 
L 194.26003 164.182004 
L 196.410707 156.917116 
L 197.1276 153.887979 
L 197.844492 153.724576 
L 199.278277 148.646703 
L 202.145846 154.139355 
L 202.862739 151.424444 
L 203.579631 150.858842 
L 204.296524 141.469788 
L 206.447201 146.660796 
L 207.164093 149.94131 
L 207.880985 143.028352 
L 208.597878 145.71812 
L 209.31477 146.912173 
L 211.465447 144.272672 
L 212.18234 137.284304 
L 212.899232 153.020714 
L 213.616125 158.387688 
L 214.333017 155.082031 
L 216.483694 154.667252 
L 217.200586 151.587847 
L 219.351264 155.949296 
L 221.501941 159.506329 
L 222.218833 159.770268 
L 223.652618 157.35702 
L 224.36951 153.636603 
L 226.520187 146.346571 
L 227.23708 159.305221 
L 227.953972 157.394725 
L 229.387757 163.880341 
L 231.538434 167.96527 
L 232.255326 168.782248 
L 232.972219 164.257415 
L 233.689111 164.772749 
L 234.406004 164.094012 
L 237.990466 159.72 
L 238.707358 160.185048 
L 239.42425 157.910059 
L 241.574927 158.060881 
L 242.29182 139.395908 
L 243.008712 140.326003 
L 243.725605 135.172719 
L 244.442497 138.880574 
L 246.593174 142.701546 
L 248.026959 132.885149 
L 248.743851 138.428089 
L 249.460744 141.318966 
L 251.611421 136.442182 
L 252.328313 130.132532 
L 253.045206 135.776026 
L 253.762098 124.539325 
L 254.47899 123.408122 
L 257.34656 121.485064 
L 258.063452 123.722347 
L 258.780345 132.143582 
L 259.497237 145.328484 
L 261.647914 145.139937 
L 262.364807 152.492818 
L 263.081699 147.766876 
L 263.798591 150.871404 
L 264.515484 148.395326 
L 266.666161 157.809505 
L 267.383053 166.997451 
L 268.099946 160.800936 
L 268.816838 167.751599 
L 269.53373 171.258345 
L 271.684407 183.726823 
L 272.4013 183.689099 
L 273.118192 177.555433 
L 273.835085 187.761466 
L 274.551977 180.710249 
L 276.702654 178.586082 
L 277.419547 183.161202 
L 278.136439 169.171904 
L 278.853331 168.933089 
L 279.570224 164.094012 
L 281.720901 155.295702 
L 282.437793 154.943771 
L 283.154686 165.086974 
L 283.871578 167.776742 
L 284.58847 178.297 
L 286.739148 179.993825 
L 287.45604 176.449354 
L 288.172932 170.843585 
L 288.889825 206.413887 
L 289.606717 214.533468 
L 291.757394 210.901024 
L 292.474287 214.005572 
L 293.191179 189.810221 
L 293.908071 203.422455 
L 294.624964 205.772864 
L 296.775641 207.708493 
L 297.492533 204.541097 
L 298.209426 205.53405 
L 298.926318 206.22535 
L 302.51078 203.145936 
L 303.227672 193.329539 
L 303.944565 186.441716 
L 304.661457 182.79671 
L 306.812134 180.898795 
L 307.529027 180.044093 
L 308.245919 187.258713 
L 308.962811 183.224051 
L 309.679704 179.855565 
L 311.830381 181.313556 
L 312.547273 189.621675 
L 313.264166 187.045042 
L 313.981058 187.560357 
L 314.69795 191.205373 
L 316.848628 168.556015 
L 317.56552 163.39015 
L 318.282412 156.200673 
L 318.999305 158.588797 
L 319.716197 157.35702 
L 322.583767 166.004507 
L 323.300659 173.809854 
L 324.017551 172.087905 
L 324.734444 176.713312 
L 327.602013 166.658101 
L 328.318906 165.690282 
L 329.035798 165.275502 
L 329.75269 167.751599 
L 331.903368 168.644007 
L 332.62026 170.893852 
L 333.337152 173.948113 
L 334.054045 171.660563 
L 334.770937 160.285602 
L 336.921614 166.607814 
L 337.638507 162.535466 
L 338.355399 155.987002 
L 339.072291 165.338351 
L 339.789184 172.100486 
L 341.939861 167.211122 
L 342.656753 169.335288 
L 343.373646 169.473548 
L 344.80743 168.266933 
L 346.958108 162.284071 
L 347.675 154.692395 
L 348.391892 155.773331 
L 349.108785 158.236847 
L 349.825677 156.326371 
L 351.976354 154.65469 
L 353.410139 156.037269 
L 354.127031 151.851805 
L 356.994601 151.801518 
L 357.711493 158.513367 
L 358.428386 155.371113 
L 359.145278 154.189642 
L 359.86217 159.22981 
L 362.012848 151.022245 
L 362.72974 153.649165 
L 363.446632 145.780969 
L 364.163525 133.09882 
L 364.880417 132.910293 
L 367.031094 131.112933 
L 367.747987 140.338584 
L 368.464879 143.342578 
L 369.181771 142.764395 
L 369.898664 137.611111 
L 372.049341 133.161669 
L 372.766233 135.914286 
L 373.483126 137.963041 
L 374.200018 139.182237 
L 374.916911 146.396839 
L 377.78448 131.904768 
L 378.501372 84.569859 
L 379.218265 91.181172 
L 379.935157 93.368168 
L 382.085834 96.435011 
L 382.802727 93.393312 
L 383.519619 92.161554 
L 384.236511 101.362062 
L 384.953404 106.213702 
L 387.104081 103.57422 
L 387.820973 109.406242 
L 388.537866 112.711898 
L 389.254758 113.126659 
L 389.971651 105.057355 
L 392.122328 107.131253 
L 392.83922 107.143815 
L 393.556112 109.443947 
L 394.273005 107.24437 
L 394.989897 108.249895 
L 397.857467 111.103047 
L 398.574359 108.865764 
L 399.291252 99.702962 
L 400.008144 96.485298 
L 402.158821 98.295239 
L 402.875713 102.153916 
L 403.592606 104.177528 
L 404.309498 99.866365 
L 405.026391 102.581257 
L 407.177068 96.070518 
L 407.89396 97.742199 
L 408.610852 96.196196 
L 409.327745 88.441118 
L 412.195314 78.976652 
L 412.912207 91.294289 
L 413.629099 92.086143 
L 414.345992 100.733611 
L 415.062884 106.465097 
L 417.213561 91.306851 
L 417.930453 92.186697 
L 418.647346 89.84886 
L 419.364238 86.555766 
L 420.081131 69.39907 
L 422.231808 63.579611 
L 422.9487 69.135112 
L 423.665592 59.934605 
L 424.382485 63.127126 
L 425.099377 86.367238 
L 427.966947 82.030932 
L 428.683839 76.274322 
L 429.400732 75.419619 
L 430.117624 74.376408 
L 432.268301 61.279479 
L 432.985193 65.540374 
L 433.702086 67.300047 
L 434.418978 58.564587 
L 435.135871 47.742666 
L 437.286548 43.909113 
L 438.00344 38.604988 
L 438.720333 38.20277 
L 439.437225 46.699435 
L 440.154117 45.55565 
L 442.304794 46.686854 
L 443.021687 66.457926 
L 443.738579 62.18445 
L 444.455472 75.130537 
L 445.172364 82.810205 
L 447.323041 72.164249 
L 448.039933 72.139106 
L 448.756826 76.18633 
L 449.473718 93.292757 
L 450.190611 94.499391 
L 452.341288 104.592307 
L 453.05818 105.308731 
L 453.775073 93.946352 
L 454.491965 95.756292 
L 455.208857 90.276202 
L 457.359534 76.626253 
L 458.076427 73.044076 
L 458.793319 70.681115 
L 460.227104 71.498093 
L 462.377781 89.232972 
L 463.094674 76.349733 
L 464.528458 67.161787 
L 465.245351 72.051133 
L 467.396028 75.947534 
L 468.11292 73.333177 
L 468.829813 59.846612 
L 469.546705 66.860124 
L 470.263597 67.815381 
L 472.414274 75.268797 
L 473.131167 70.077788 
L 473.848059 71.749469 
L 474.564952 63.102001 
L 475.281844 58.200075 
L 477.432521 58.727971 
L 478.149414 60.311679 
L 478.866306 60.764164 
L 482.450768 63.164831 
L 483.16766 70.253754 
L 483.884553 74.288415 
L 485.318337 80.409519 
L 488.185907 59.2056 
L 488.902799 61.56858 
L 489.619692 58.65256 
L 490.336584 64.195499 
L 492.487261 59.155332 
L 493.204154 59.934605 
L 493.921046 77.292409 
L 494.637938 75.947534 
L 495.354831 79.278315 
L 498.2224 100.607932 
L 498.939293 111.26645 
L 499.656185 113.641993 
L 502.523755 116.985355 
L 503.240647 117.249294 
L 503.957539 115.024592 
L 504.674432 108.815497 
L 505.391324 127.493051 
L 507.542001 125.042097 
L 508.258894 146.96246 
L 508.975786 155.082031 
L 509.692678 160.499273 
L 510.409571 159.682295 
L 512.560248 150.15498 
L 513.27714 135.197862 
L 513.994033 150.444062 
L 514.710925 162.83711 
L 515.427817 158.651627 
L 518.295387 157.49528 
L 519.012279 142.701546 
L 520.446064 134.757939 
L 522.596741 150.117275 
L 523.313634 150.381214 
L 524.030526 145.127375 
L 524.747418 135.688053 
L 525.464311 145.08967 
L 527.614988 146.786475 
L 528.33188 142.575867 
L 529.048773 129.906299 
L 529.765665 120.466977 
L 530.482557 129.868594 
L 532.633235 124.036572 
L 533.350127 131.125495 
L 534.067019 130.886681 
L 534.783912 135.951992 
L 535.500804 139.860956 
L 537.651481 134.355722 
L 538.368374 131.929911 
L 539.085266 138.314972 
L 539.802158 140.577398 
L 540.519051 150.15498 
L 542.669728 143.191756 
L 543.38662 151.160505 
L 544.103513 146.283722 
L 544.820405 151.022245 
L 545.537297 156.716007 
L 547.687975 156.263522 
L 548.404867 144.599479 
L 549.121759 145.051964 
L 549.838652 145.202786 
L 552.706221 144.209843 
L 553.423114 147.213836 
L 554.140006 143.07862 
L 554.856898 156.703445 
L 555.573791 159.066406 
L 557.724468 152.668783 
L 558.44136 148.407888 
L 559.158253 131.867062 
L 559.875145 133.211956 
L 560.592037 126.462383 
L 562.742715 120.127608 
L 563.459607 126.839457 
L 564.176499 125.042097 
L 564.893392 138.051015 
L 565.610284 136.027403 
L 567.760961 139.031396 
L 568.477854 141.947416 
L 569.911638 144.825712 
L 570.628531 134.016372 
L 572.779208 134.154632 
L 573.4961 168.204084 
L 574.212993 170.730449 
L 574.929885 160.298164 
L 575.646777 162.673726 
L 578.514347 180.03153 
L 579.231239 187.774028 
L 579.948132 184.028467 
L 580.665024 178.686637 
L 583.532594 177.341762 
L 584.249486 170.6676 
L 584.966378 170.428805 
L 585.683271 172.95517 
L 588.55084 169.951176 
L 589.267733 166.708369 
L 589.984625 152.957865 
L 590.701518 145.416457 
L 592.852195 136.29136 
L 593.569087 148.508443 
L 594.285979 154.629546 
L 595.002872 149.023777 
L 595.719764 160.021664 
L 597.870441 157.683826 
L 598.587334 158.337401 
L 599.304226 162.359501 
L 600.021118 158.224285 
L 600.738011 161.580209 
L 600.738011 161.580209 
" clip-path="url(#p499b931098)" style="fill: none; stroke: #1f77b4; stroke-width: 1.5; stroke-linecap: square"/>
   </g>
   <g id="line2d_20">
    <path d="M 77.406572 269.774278 
L 78.123464 270.754659 
L 78.840357 267.021661 
L 80.991034 268.454537 
L 81.707926 271.307699 
L 83.141711 271.772751 
L 83.858603 270.327317 
L 86.009281 271.232288 
L 86.726173 270.641543 
L 87.443065 269.799421 
L 88.159958 268.643065 
L 88.87685 269.045273 
L 91.74442 269.03271 
L 92.461312 268.190579 
L 93.895097 267.059376 
L 96.045774 267.423878 
L 96.762666 268.944728 
L 97.479559 269.598312 
L 98.196451 269.975386 
L 98.913343 270.503283 
L 101.064021 271.357976 
L 101.780913 264.432447 
L 102.497805 270.603837 
L 103.214698 272.740566 
L 103.93159 272.677721 
L 106.082267 273.268467 
L 106.79916 273.306172 
L 107.516052 277.567067 
L 108.232944 277.353396 
L 108.949837 276.724945 
L 111.100514 276.812928 
L 111.817406 277.65505 
L 112.534299 275.141247 
L 113.251191 278.949661 
L 113.968083 283.650469 
L 116.835653 283.914418 
L 117.552545 271.760184 
L 118.269438 265.903019 
L 118.98633 264.960343 
L 121.137007 266.204682 
L 122.570792 262.082048 
L 123.287684 257.984547 
L 124.004577 258.361611 
L 126.155254 257.594901 
L 126.872146 257.959403 
L 127.589039 256.363143 
L 128.305931 258.675837 
L 129.022823 256.363143 
L 131.890393 258.386755 
L 132.607285 260.900557 
L 134.04107 258.964928 
L 136.90864 262.496818 
L 137.625532 263.803996 
L 138.342424 263.942256 
L 139.059317 267.838648 
L 141.209994 266.430925 
L 141.926886 266.380648 
L 142.643779 262.17003 
L 143.360671 262.433979 
L 144.077563 261.001112 
L 146.228241 259.580807 
L 147.662025 257.51949 
L 148.378918 253.170612 
L 149.09581 253.120335 
L 151.246487 251.373243 
L 151.96338 251.096723 
L 152.680272 252.441607 
L 153.397164 250.568827 
L 154.114057 252.504456 
L 156.264734 251.335537 
L 156.981626 253.459704 
L 157.698519 252.642716 
L 158.415411 253.84934 
L 159.132304 248.457232 
L 161.282981 250.430567 
L 161.999873 248.268695 
L 162.716765 247.225465 
L 163.433658 248.105301 
L 164.15055 247.439145 
L 167.01812 249.085683 
L 167.735012 249.186237 
L 168.451904 249.462757 
L 169.168797 248.143007 
L 171.319474 248.168141 
L 172.036366 249.487891 
L 172.753259 251.938845 
L 173.470151 251.737746 
L 174.187044 252.705555 
L 176.337721 251.674897 
L 177.054613 251.021312 
L 177.771505 251.498931 
L 178.488398 253.761357 
L 179.20529 252.780976 
L 181.355967 253.472266 
L 182.07286 252.051971 
L 182.789752 249.098255 
L 183.506644 244.535697 
L 184.223537 242.562362 
L 186.374214 238.955061 
L 187.091106 215.161919 
L 187.807999 207.40684 
L 188.524891 214.96081 
L 189.241784 215.702387 
L 191.392461 218.9829 
L 192.109353 220.604304 
L 192.826245 221.421282 
L 193.543138 218.228751 
L 194.26003 217.625444 
L 196.410707 212.547562 
L 197.1276 211.190106 
L 197.844492 210.611932 
L 199.278277 206.765817 
L 201.428954 210.058893 
L 202.145846 211.466626 
L 202.862739 209.493291 
L 203.579631 208.663741 
L 204.296524 203.284195 
L 206.447201 207.155454 
L 207.164093 209.468157 
L 207.880985 204.541097 
L 208.597878 207.13032 
L 209.31477 207.985013 
L 211.465447 206.338466 
L 212.18234 201.876472 
L 212.899232 214.181537 
L 213.616125 217.487184 
L 214.333017 215.124213 
L 216.483694 214.747139 
L 217.200586 213.57822 
L 219.351264 216.092023 
L 221.501941 217.964803 
L 222.218833 218.417289 
L 223.652618 216.909011 
L 226.520187 208.475204 
L 227.23708 217.851687 
L 227.953972 216.770751 
L 229.387757 221.710374 
L 231.538434 224.161327 
L 232.255326 224.349864 
L 232.972219 221.044217 
L 233.689111 221.974322 
L 234.406004 222.162859 
L 237.273573 218.480137 
L 237.990466 218.367011 
L 238.707358 218.70638 
L 239.42425 216.720474 
L 241.574927 217.097548 
L 242.29182 204.440552 
L 243.008712 205.521488 
L 243.725605 202.266108 
L 244.442497 205.25753 
L 246.593174 208.286667 
L 247.310067 202.240975 
L 248.026959 199.061006 
L 248.743851 203.020247 
L 249.460744 204.49082 
L 251.611421 201.361138 
L 252.328313 196.723179 
L 253.045206 200.619571 
L 253.762098 191.620153 
L 254.47899 190.740316 
L 257.34656 189.533701 
L 258.063452 191.607581 
L 258.780345 196.874001 
L 259.497237 206.816095 
L 261.647914 206.91664 
L 262.364807 212.610411 
L 263.081699 209.744667 
L 263.798591 212.761233 
L 264.515484 211.29066 
L 266.666161 218.103063 
L 267.383053 224.199033 
L 268.099946 218.643531 
L 268.816838 223.243795 
L 271.684407 235.486011 
L 272.4013 235.234635 
L 273.118192 230.734925 
L 273.835085 238.200922 
L 274.551977 232.84652 
L 276.702654 230.659514 
L 277.419547 233.902313 
L 278.136439 224.437847 
L 278.853331 224.048211 
L 279.570224 221.081923 
L 281.720901 214.709434 
L 282.437793 214.030706 
L 283.154686 220.99394 
L 283.871578 223.206089 
L 284.58847 230.546388 
L 286.739148 232.054666 
L 287.45604 229.339764 
L 288.172932 225.556489 
L 288.889825 248.633198 
L 289.606717 255.420467 
L 291.757394 252.994647 
L 292.474287 255.16909 
L 293.191179 237.182826 
L 293.908071 245.692053 
L 294.624964 246.8484 
L 296.775641 248.02989 
L 297.492533 246.597014 
L 298.209426 246.534175 
L 298.926318 246.923811 
L 302.51078 244.334597 
L 303.227672 237.735865 
L 303.944565 232.507151 
L 304.661457 229.993349 
L 306.812134 228.170846 
L 307.529027 227.730932 
L 308.245919 232.657983 
L 309.679704 227.316152 
L 311.830381 228.40966 
L 312.547273 234.128555 
L 313.264166 233.286434 
L 313.981058 233.914884 
L 314.69795 236.717778 
L 316.848628 220.918529 
L 318.282412 211.98196 
L 318.999305 213.540515 
L 319.716197 212.861787 
L 322.583767 218.2916 
L 323.300659 223.457466 
L 324.017551 222.23827 
L 324.734444 224.475553 
L 327.602013 217.901964 
L 328.318906 217.436907 
L 329.035798 216.69534 
L 329.75269 217.298647 
L 331.903368 218.15334 
L 333.337152 221.873767 
L 334.054045 220.051264 
L 334.770937 212.032228 
L 336.921614 216.569642 
L 337.638507 213.477666 
L 338.355399 208.613464 
L 339.072291 214.797416 
L 339.789184 219.661628 
L 341.939861 215.853209 
L 342.656753 218.165912 
L 343.373646 218.869774 
L 344.80743 218.329306 
L 346.958108 213.829597 
L 347.675 208.248961 
L 348.391892 208.915118 
L 349.108785 209.945776 
L 351.976354 207.080043 
L 353.410139 207.809048 
L 354.127031 205.609471 
L 356.994601 205.433496 
L 357.711493 210.687343 
L 358.428386 208.37465 
L 359.145278 207.318848 
L 359.86217 211.1524 
L 362.012848 205.332951 
L 362.72974 207.457107 
L 363.446632 201.23545 
L 364.163525 192.751366 
L 364.880417 192.349158 
L 367.031094 190.639781 
L 367.747987 196.572347 
L 368.464879 198.457699 
L 369.181771 198.621093 
L 369.898664 195.667376 
L 372.049341 192.638249 
L 373.483126 197.452174 
L 374.200018 198.457699 
L 374.916911 202.995113 
L 377.78448 192.43714 
L 378.501372 157.369601 
L 379.218265 162.183516 
L 379.935157 164.018601 
L 382.085834 166.670663 
L 382.802727 164.408237 
L 383.519619 163.415293 
L 384.236511 170.730449 
L 384.953404 174.249777 
L 387.104081 172.188459 
L 387.820973 177.040099 
L 388.537866 179.503634 
L 389.254758 180.270345 
L 389.971651 173.445361 
L 392.122328 175.431267 
L 392.83922 175.029049 
L 393.556112 176.235683 
L 394.273005 174.161804 
L 394.989897 174.488591 
L 397.857467 177.304057 
L 398.574359 175.820903 
L 399.291252 169.624389 
L 400.008144 167.525347 
L 402.158821 168.279495 
L 402.875713 171.773679 
L 403.592606 173.332244 
L 404.309498 169.775211 
L 405.026391 171.849091 
L 407.177068 166.180472 
L 407.89396 167.035156 
L 408.610852 166.205616 
L 409.327745 160.876347 
L 410.044637 159.380632 
L 412.195314 154.579279 
L 412.912207 163.603821 
L 413.629099 164.998982 
L 414.345992 171.761117 
L 415.062884 175.783198 
L 417.213561 164.785311 
L 417.930453 165.275502 
L 418.647346 164.068868 
L 419.364238 161.894434 
L 420.081131 149.52653 
L 422.231808 145.303341 
L 422.9487 149.350564 
L 423.665592 142.87753 
L 424.382485 146.095195 
L 425.099377 162.246365 
L 427.966947 159.908528 
L 428.683839 155.723044 
L 429.400732 155.270559 
L 430.117624 153.774862 
L 432.268301 145.039383 
L 432.985193 147.641178 
L 433.702086 148.433032 
L 434.418978 142.123382 
L 435.135871 134.682528 
L 437.286548 132.030466 
L 438.00344 127.128539 
L 438.720333 127.065709 
L 439.437225 133.852969 
L 440.154117 133.538743 
L 442.304794 134.69509 
L 443.021687 149.777906 
L 443.738579 147.289247 
L 444.455472 155.924153 
L 445.172364 160.499273 
L 447.323041 152.36712 
L 448.039933 152.291709 
L 448.756826 155.245435 
L 449.473718 168.128673 
L 450.190611 168.505748 
L 452.341288 176.185415 
L 453.05818 175.531821 
L 453.775073 168.556015 
L 454.491965 170.365956 
L 455.208857 166.293589 
L 457.359534 156.854267 
L 458.793319 151.788956 
L 460.227104 152.668783 
L 462.377781 164.43338 
L 463.094674 154.943771 
L 463.811566 150.959397 
L 464.528458 148.055958 
L 465.245351 149.601941 
L 467.396028 152.957865 
L 468.11292 151.097656 
L 468.829813 140.37629 
L 469.546705 144.989115 
L 470.263597 145.692977 
L 472.414274 151.147924 
L 473.131167 147.012727 
L 473.848059 148.784963 
L 474.564952 142.412464 
L 475.281844 138.930842 
L 477.432521 138.805163 
L 478.866306 139.081683 
L 482.450768 141.055008 
L 483.16766 146.258579 
L 483.884553 149.740201 
L 485.318337 154.478724 
L 487.469014 143.154031 
L 488.185907 140.338584 
L 488.902799 142.487875 
L 489.619692 140.552255 
L 490.336584 145.328484 
L 492.487261 140.992178 
L 493.204154 141.608048 
L 493.921046 154.089088 
L 494.637938 153.485761 
L 495.354831 156.225816 
L 498.2224 170.441367 
L 498.939293 177.932508 
L 499.656185 179.063711 
L 500.373077 178.749486 
L 502.523755 180.735392 
L 503.240647 179.239676 
L 503.957539 177.454879 
L 504.674432 171.522303 
L 505.391324 187.120453 
L 507.542001 185.901257 
L 508.258894 202.127849 
L 508.975786 208.751724 
L 509.692678 212.245908 
L 510.409571 211.227811 
L 512.560248 203.24649 
L 513.27714 192.135487 
L 514.710925 212.974904 
L 515.427817 210.410833 
L 518.295387 209.355031 
L 519.012279 199.174132 
L 520.446064 193.442665 
L 522.596741 204.654223 
L 523.313634 205.094136 
L 524.030526 200.845813 
L 524.747418 193.769453 
L 525.464311 200.317908 
L 527.614988 202.014732 
L 528.33188 198.885041 
L 529.048773 189.10636 
L 529.765665 182.645888 
L 530.482557 188.41506 
L 532.633235 184.267282 
L 533.350127 189.470853 
L 534.067019 189.269744 
L 535.500804 197.515023 
L 538.368374 191.431616 
L 539.085266 196.52207 
L 539.802158 198.25659 
L 540.519051 205.282674 
L 542.669728 199.85286 
L 543.38662 206.074518 
L 544.103513 203.221356 
L 544.820405 206.979488 
L 545.537297 211.479197 
L 547.687975 211.579752 
L 548.404867 202.96997 
L 549.121759 203.095668 
L 549.838652 203.435027 
L 552.706221 202.743727 
L 553.423114 204.930743 
L 554.140006 201.109762 
L 554.856898 210.813041 
L 555.573791 212.81151 
L 557.724468 207.557662 
L 558.44136 204.201738 
L 559.158253 191.921806 
L 559.875145 192.512551 
L 560.592037 187.221008 
L 562.742715 182.205964 
L 563.459607 187.246132 
L 564.176499 186.202901 
L 564.893392 195.918753 
L 565.610284 193.907713 
L 567.760961 195.918753 
L 568.477854 198.658798 
L 569.194746 199.651751 
L 569.911638 199.815155 
L 570.628531 191.595019 
L 572.779208 191.745841 
L 573.4961 216.783323 
L 574.212993 219.53593 
L 574.929885 211.617457 
L 575.646777 213.289129 
L 578.514347 226.574585 
L 579.231239 232.15522 
L 579.948132 229.616284 
L 580.665024 226.021545 
L 583.532594 225.104003 
L 584.249486 220.076398 
L 584.966378 220.264935 
L 585.683271 222.602772 
L 588.55084 220.214658 
L 589.267733 218.077929 
L 589.984625 207.482251 
L 590.701518 202.856854 
L 592.852195 196.057013 
L 593.569087 204.993582 
L 594.285979 210.10917 
L 595.002872 206.212778 
L 595.719764 214.382636 
L 597.870441 212.824082 
L 598.587334 213.276567 
L 599.304226 216.066889 
L 600.021118 213.213718 
L 600.738011 215.853209 
L 600.738011 215.853209 
" clip-path="url(#p499b931098)" style="fill: none; stroke: #ff7f0e; stroke-width: 1.5; stroke-linecap: square"/>
   </g>
   <g id="patch_3">
    <path d="M 51.24 296.2 
L 51.24 25.917188 
" style="fill: none; stroke: #000000; stroke-width: 0.8; stroke-linejoin: miter; stroke-linecap: square"/>
   </g>
   <g id="patch_4">
    <path d="M 626.904583 296.2 
L 626.904583 25.917188 
" style="fill: none; stroke: #000000; stroke-width: 0.8; stroke-linejoin: miter; stroke-linecap: square"/>
   </g>
   <g id="patch_5">
    <path d="M 51.24 296.2 
L 626.904583 296.2 
" style="fill: none; stroke: #000000; stroke-width: 0.8; stroke-linejoin: miter; stroke-linecap: square"/>
   </g>
   <g id="patch_6">
    <path d="M 51.24 25.917188 
L 626.904583 25.917188 
" style="fill: none; stroke: #000000; stroke-width: 0.8; stroke-linejoin: miter; stroke-linecap: square"/>
   </g>
   <g id="text_20">
    <!-- Raw SHOP Price Series -->
    <g transform="translate(270.979791 19.917188) scale(0.12 -0.12)">
     <defs>
      <path id="DejaVuSans-35" d="M 2841 2188 
Q 3044 2119 3236 1894 
Q 3428 1669 3622 1275 
L 4263 0 
L 3584 0 
L 2988 1197 
Q 2756 1666 2539 1819 
Q 2322 1972 1947 1972 
L 1259 1972 
L 1259 0 
L 628 0 
L 628 4666 
L 2053 4666 
Q 2853 4666 3247 4331 
Q 3641 3997 3641 3322 
Q 3641 2881 3436 2590 
Q 3231 2300 2841 2188 
z
M 1259 4147 
L 1259 2491 
L 2053 2491 
Q 2509 2491 2742 2702 
Q 2975 2913 2975 3322 
Q 2975 3731 2742 3939 
Q 2509 4147 2053 4147 
L 1259 4147 
z
" transform="scale(0.015625)"/>
      <path id="DejaVuSans-44" d="M 2194 1759 
Q 1497 1759 1228 1600 
Q 959 1441 959 1056 
Q 959 750 1161 570 
Q 1363 391 1709 391 
Q 2188 391 2477 730 
Q 2766 1069 2766 1631 
L 2766 1759 
L 2194 1759 
z
M 3341 1997 
L 3341 0 
L 2766 0 
L 2766 531 
Q 2569 213 2275 61 
Q 1981 -91 1556 -91 
Q 1019 -91 701 211 
Q 384 513 384 1019 
Q 384 1609 779 1909 
Q 1175 2209 1959 2209 
L 2766 2209 
L 2766 2266 
Q 2766 2663 2505 2880 
Q 2244 3097 1772 3097 
Q 1472 3097 1187 3025 
Q 903 2953 641 2809 
L 641 3341 
Q 956 3463 1253 3523 
Q 1550 3584 1831 3584 
Q 2591 3584 2966 3190 
Q 3341 2797 3341 1997 
z
" transform="scale(0.015625)"/>
      <path id="DejaVuSans-5a" d="M 269 3500 
L 844 3500 
L 1563 769 
L 2278 3500 
L 2956 3500 
L 3675 769 
L 4391 3500 
L 4966 3500 
L 4050 0 
L 3372 0 
L 2619 2869 
L 1863 0 
L 1184 0 
L 269 3500 
z
" transform="scale(0.015625)"/>
      <path id="DejaVuSans-3" transform="scale(0.015625)"/>
      <path id="DejaVuSans-36" d="M 3425 4513 
L 3425 3897 
Q 3066 4069 2747 4153 
Q 2428 4238 2131 4238 
Q 1616 4238 1336 4038 
Q 1056 3838 1056 3469 
Q 1056 3159 1242 3001 
Q 1428 2844 1947 2747 
L 2328 2669 
Q 3034 2534 3370 2195 
Q 3706 1856 3706 1288 
Q 3706 609 3251 259 
Q 2797 -91 1919 -91 
Q 1588 -91 1214 -16 
Q 841 59 441 206 
L 441 856 
Q 825 641 1194 531 
Q 1563 422 1919 422 
Q 2459 422 2753 634 
Q 3047 847 3047 1241 
Q 3047 1584 2836 1778 
Q 2625 1972 2144 2069 
L 1759 2144 
Q 1053 2284 737 2584 
Q 422 2884 422 3419 
Q 422 4038 858 4394 
Q 1294 4750 2059 4750 
Q 2388 4750 2728 4690 
Q 3069 4631 3425 4513 
z
" transform="scale(0.015625)"/>
      <path id="DejaVuSans-2b" d="M 628 4666 
L 1259 4666 
L 1259 2753 
L 3553 2753 
L 3553 4666 
L 4184 4666 
L 4184 0 
L 3553 0 
L 3553 2222 
L 1259 2222 
L 1259 0 
L 628 0 
L 628 4666 
z
" transform="scale(0.015625)"/>
      <path id="DejaVuSans-32" d="M 2522 4238 
Q 1834 4238 1429 3725 
Q 1025 3213 1025 2328 
Q 1025 1447 1429 934 
Q 1834 422 2522 422 
Q 3209 422 3611 934 
Q 4013 1447 4013 2328 
Q 4013 3213 3611 3725 
Q 3209 4238 2522 4238 
z
M 2522 4750 
Q 3503 4750 4090 4092 
Q 4678 3434 4678 2328 
Q 4678 1225 4090 567 
Q 3503 -91 2522 -91 
Q 1538 -91 948 565 
Q 359 1222 359 2328 
Q 359 3434 948 4092 
Q 1538 4750 2522 4750 
z
" transform="scale(0.015625)"/>
      <path id="DejaVuSans-56" d="M 2834 3397 
L 2834 2853 
Q 2591 2978 2328 3040 
Q 2066 3103 1784 3103 
Q 1356 3103 1142 2972 
Q 928 2841 928 2578 
Q 928 2378 1081 2264 
Q 1234 2150 1697 2047 
L 1894 2003 
Q 2506 1872 2764 1633 
Q 3022 1394 3022 966 
Q 3022 478 2636 193 
Q 2250 -91 1575 -91 
Q 1294 -91 989 -36 
Q 684 19 347 128 
L 347 722 
Q 666 556 975 473 
Q 1284 391 1588 391 
Q 1994 391 2212 530 
Q 2431 669 2431 922 
Q 2431 1156 2273 1281 
Q 2116 1406 1581 1522 
L 1381 1569 
Q 847 1681 609 1914 
Q 372 2147 372 2553 
Q 372 3047 722 3315 
Q 1072 3584 1716 3584 
Q 2034 3584 2315 3537 
Q 2597 3491 2834 3397 
z
" transform="scale(0.015625)"/>
     </defs>
     <use xlink:href="#DejaVuSans-35"/>
     <use xlink:href="#DejaVuSans-44" transform="translate(67.28125 0)"/>
     <use xlink:href="#DejaVuSans-5a" transform="translate(128.5625 0)"/>
     <use xlink:href="#DejaVuSans-3" transform="translate(210.34375 0)"/>
     <use xlink:href="#DejaVuSans-36" transform="translate(242.125 0)"/>
     <use xlink:href="#DejaVuSans-2b" transform="translate(305.609375 0)"/>
     <use xlink:href="#DejaVuSans-32" transform="translate(380.8125 0)"/>
     <use xlink:href="#DejaVuSans-33" transform="translate(459.53125 0)"/>
     <use xlink:href="#DejaVuSans-3" transform="translate(519.828125 0)"/>
     <use xlink:href="#DejaVuSans-33" transform="translate(551.609375 0)"/>
     <use xlink:href="#DejaVuSans-55" transform="translate(610.15625 0)"/>
     <use xlink:href="#DejaVuSans-4c" transform="translate(651.265625 0)"/>
     <use xlink:href="#DejaVuSans-46" transform="translate(679.046875 0)"/>
     <use xlink:href="#DejaVuSans-48" transform="translate(734.03125 0)"/>
     <use xlink:href="#DejaVuSans-3" transform="translate(795.5625 0)"/>
     <use xlink:href="#DejaVuSans-36" transform="translate(827.34375 0)"/>
     <use xlink:href="#DejaVuSans-48" transform="translate(890.828125 0)"/>
     <use xlink:href="#DejaVuSans-55" transform="translate(952.359375 0)"/>
     <use xlink:href="#DejaVuSans-4c" transform="translate(993.46875 0)"/>
     <use xlink:href="#DejaVuSans-48" transform="translate(1021.25 0)"/>
     <use xlink:href="#DejaVuSans-56" transform="translate(1082.78125 0)"/>
    </g>
   </g>
   <g id="legend_1">
    <g id="line2d_21">
     <path d="M 514.029583 39.015625 
L 524.029583 39.015625 
L 534.029583 39.015625 
" style="fill: none; stroke: #1f77b4; stroke-width: 1.5; stroke-linecap: square"/>
    </g>
    <g id="text_21">
     <!-- SHOP.TO (CAD) -->
     <g transform="translate(542.029583 42.515625) scale(0.1 -0.1)">
      <defs>
       <path id="DejaVuSans-11" d="M 684 794 
L 1344 794 
L 1344 0 
L 684 0 
L 684 794 
z
" transform="scale(0.015625)"/>
       <path id="DejaVuSans-37" d="M -19 4666 
L 3928 4666 
L 3928 4134 
L 2272 4134 
L 2272 0 
L 1638 0 
L 1638 4134 
L -19 4134 
L -19 4666 
z
" transform="scale(0.015625)"/>
       <path id="DejaVuSans-b" d="M 1984 4856 
Q 1566 4138 1362 3434 
Q 1159 2731 1159 2009 
Q 1159 1288 1364 580 
Q 1569 -128 1984 -844 
L 1484 -844 
Q 1016 -109 783 600 
Q 550 1309 550 2009 
Q 550 2706 781 3412 
Q 1013 4119 1484 4856 
L 1984 4856 
z
" transform="scale(0.015625)"/>
       <path id="DejaVuSans-26" d="M 4122 4306 
L 4122 3641 
Q 3803 3938 3442 4084 
Q 3081 4231 2675 4231 
Q 1875 4231 1450 3742 
Q 1025 3253 1025 2328 
Q 1025 1406 1450 917 
Q 1875 428 2675 428 
Q 3081 428 3442 575 
Q 3803 722 4122 1019 
L 4122 359 
Q 3791 134 3420 21 
Q 3050 -91 2638 -91 
Q 1578 -91 968 557 
Q 359 1206 359 2328 
Q 359 3453 968 4101 
Q 1578 4750 2638 4750 
Q 3056 4750 3426 4639 
Q 3797 4528 4122 4306 
z
" transform="scale(0.015625)"/>
       <path id="DejaVuSans-24" d="M 2188 4044 
L 1331 1722 
L 3047 1722 
L 2188 4044 
z
M 1831 4666 
L 2547 4666 
L 4325 0 
L 3669 0 
L 3244 1197 
L 1141 1197 
L 716 0 
L 50 0 
L 1831 4666 
z
" transform="scale(0.015625)"/>
       <path id="DejaVuSans-27" d="M 1259 4147 
L 1259 519 
L 2022 519 
Q 2988 519 3436 956 
Q 3884 1394 3884 2338 
Q 3884 3275 3436 3711 
Q 2988 4147 2022 4147 
L 1259 4147 
z
M 628 4666 
L 1925 4666 
Q 3281 4666 3915 4102 
Q 4550 3538 4550 2338 
Q 4550 1131 3912 565 
Q 3275 0 1925 0 
L 628 0 
L 628 4666 
z
" transform="scale(0.015625)"/>
       <path id="DejaVuSans-c" d="M 513 4856 
L 1013 4856 
Q 1481 4119 1714 3412 
Q 1947 2706 1947 2009 
Q 1947 1309 1714 600 
Q 1481 -109 1013 -844 
L 513 -844 
Q 928 -128 1133 580 
Q 1338 1288 1338 2009 
Q 1338 2731 1133 3434 
Q 928 4138 513 4856 
z
" transform="scale(0.015625)"/>
      </defs>
      <use xlink:href="#DejaVuSans-36"/>
      <use xlink:href="#DejaVuSans-2b" transform="translate(63.484375 0)"/>
      <use xlink:href="#DejaVuSans-32" transform="translate(138.6875 0)"/>
      <use xlink:href="#DejaVuSans-33" transform="translate(217.40625 0)"/>
      <use xlink:href="#DejaVuSans-11" transform="translate(262.125 0)"/>
      <use xlink:href="#DejaVuSans-37" transform="translate(293.90625 0)"/>
      <use xlink:href="#DejaVuSans-32" transform="translate(354.984375 0)"/>
      <use xlink:href="#DejaVuSans-3" transform="translate(433.703125 0)"/>
      <use xlink:href="#DejaVuSans-b" transform="translate(465.484375 0)"/>
      <use xlink:href="#DejaVuSans-26" transform="translate(504.5 0)"/>
      <use xlink:href="#DejaVuSans-24" transform="translate(574.328125 0)"/>
      <use xlink:href="#DejaVuSans-27" transform="translate(642.734375 0)"/>
      <use xlink:href="#DejaVuSans-c" transform="translate(719.734375 0)"/>
     </g>
    </g>
    <g id="line2d_22">
     <path d="M 514.029583 54.016406 
L 524.029583 54.016406 
L 534.029583 54.016406 
" style="fill: none; stroke: #ff7f0e; stroke-width: 1.5; stroke-linecap: square"/>
    </g>
    <g id="text_22">
     <!-- SHOP (USD) -->
     <g transform="translate(542.029583 57.516406) scale(0.1 -0.1)">
      <defs>
       <path id="DejaVuSans-38" d="M 556 4666 
L 1191 4666 
L 1191 1831 
Q 1191 1081 1462 751 
Q 1734 422 2344 422 
Q 2950 422 3222 751 
Q 3494 1081 3494 1831 
L 3494 4666 
L 4128 4666 
L 4128 1753 
Q 4128 841 3676 375 
Q 3225 -91 2344 -91 
Q 1459 -91 1007 375 
Q 556 841 556 1753 
L 556 4666 
z
" transform="scale(0.015625)"/>
      </defs>
      <use xlink:href="#DejaVuSans-36"/>
      <use xlink:href="#DejaVuSans-2b" transform="translate(63.484375 0)"/>
      <use xlink:href="#DejaVuSans-32" transform="translate(138.6875 0)"/>
      <use xlink:href="#DejaVuSans-33" transform="translate(217.40625 0)"/>
      <use xlink:href="#DejaVuSans-3" transform="translate(277.703125 0)"/>
      <use xlink:href="#DejaVuSans-b" transform="translate(309.484375 0)"/>
      <use xlink:href="#DejaVuSans-38" transform="translate(348.5 0)"/>
      <use xlink:href="#DejaVuSans-36" transform="translate(421.6875 0)"/>
      <use xlink:href="#DejaVuSans-27" transform="translate(485.171875 0)"/>
      <use xlink:href="#DejaVuSans-c" transform="translate(562.171875 0)"/>
     </g>
    </g>
   </g>
  </g>
 </g>
 <defs>
  <clipPath id="p499b931098">
   <rect x="51.24" y="25.917188" width="575.664583" height="270.282812"/>
  </clipPath>
 </defs>
</svg>
