<?xml version="1.0" encoding="utf-8" standalone="no"?>
<!DOCTYPE svg PUBLIC "-//W3C//DTD SVG 1.1//EN"
  "http://www.w3.org/Graphics/SVG/1.1/DTD/svg11.dtd">
<svg xmlns:xlink="http://www.w3.org/1999/xlink" width="648pt" height="324pt" viewBox="0 0 648 324" xmlns="http://www.w3.org/2000/svg" version="1.1">
 <metadata>
  <rdf:RDF xmlns:dc="http://purl.org/dc/elements/1.1/" xmlns:cc="http://creativecommons.org/ns#" xmlns:rdf="http://www.w3.org/1999/02/22-rdf-syntax-ns#">
   <cc:Work>
    <dc:type rdf:resource="http://purl.org/dc/dcmitype/StillImage"/>
    <dc:date>2026-06-26T00:17:38.380231</dc:date>
    <dc:format>image/svg+xml</dc:format>
    <dc:creator>
     <cc:Agent>
      <dc:title>Matplotlib v3.11.0, https://matplotlib.org/</dc:title>
     </cc:Agent>
    </dc:creator>
   </cc:Work>
  </rdf:RDF>
 </metadata>
 <defs>
  <style type="text/css">*{stroke-linejoin: round; stroke-linecap: butt}</style>
 </defs>
 <g id="figure_1">
  <g id="patch_1">
   <path d="M 0 324 
L 648 324 
L 648 0 
L 0 0 
z
" style="fill: #ffffff"/>
  </g>
  <g id="axes_1">
   <g id="patch_2">
    <path d="M 54.48 296.2 
L 626.904583 296.2 
L 626.904583 25.917188 
L 54.48 25.917188 
z
" style="fill: #ffffff"/>
   </g>
   <g id="matplotlib.axis_1">
    <g id="xtick_1">
     <g id="line2d_1">
      <defs>
       <path id="m09fa987f36" d="M 0 0 
L 0 3.5 
" style="stroke: #000000; stroke-width: 0.8"/>
      </defs>
      <g>
       <use xlink:href="#m09fa987f36" x="94.043592" y="296.2" style="stroke: #000000; stroke-width: 0.8"/>
      </g>
     </g>
     <g id="text_1">
      <!-- 2024-07 -->
      <g transform="translate(73.152186 310.797656) scale(0.1 -0.1)">
       <defs>
        <path id="DejaVuSans-15" d="M 1228 531 
L 3431 531 
L 3431 0 
L 469 0 
L 469 531 
Q 828 903 1448 1529 
Q 2069 2156 2228 2338 
Q 2531 2678 2651 2914 
Q 2772 3150 2772 3378 
Q 2772 3750 2511 3984 
Q 2250 4219 1831 4219 
Q 1534 4219 1204 4116 
Q 875 4013 500 3803 
L 500 4441 
Q 881 4594 1212 4672 
Q 1544 4750 1819 4750 
Q 2544 4750 2975 4387 
Q 3406 4025 3406 3419 
Q 3406 3131 3298 2873 
Q 3191 2616 2906 2266 
Q 2828 2175 2409 1742 
Q 1991 1309 1228 531 
z
" transform="scale(0.015625)"/>
        <path id="DejaVuSans-13" d="M 2034 4250 
Q 1547 4250 1301 3770 
Q 1056 3291 1056 2328 
Q 1056 1369 1301 889 
Q 1547 409 2034 409 
Q 2525 409 2770 889 
Q 3016 1369 3016 2328 
Q 3016 3291 2770 3770 
Q 2525 4250 2034 4250 
z
M 2034 4750 
Q 2819 4750 3233 4129 
Q 3647 3509 3647 2328 
Q 3647 1150 3233 529 
Q 2819 -91 2034 -91 
Q 1250 -91 836 529 
Q 422 1150 422 2328 
Q 422 3509 836 4129 
Q 1250 4750 2034 4750 
z
" transform="scale(0.015625)"/>
        <path id="DejaVuSans-17" d="M 2419 4116 
L 825 1625 
L 2419 1625 
L 2419 4116 
z
M 2253 4666 
L 3047 4666 
L 3047 1625 
L 3713 1625 
L 3713 1100 
L 3047 1100 
L 3047 0 
L 2419 0 
L 2419 1100 
L 313 1100 
L 313 1709 
L 2253 4666 
z
" transform="scale(0.015625)"/>
        <path id="DejaVuSans-10" d="M 313 2009 
L 1997 2009 
L 1997 1497 
L 313 1497 
L 313 2009 
z
" transform="scale(0.015625)"/>
        <path id="DejaVuSans-1a" d="M 525 4666 
L 3525 4666 
L 3525 4397 
L 1831 0 
L 1172 0 
L 2766 4134 
L 525 4134 
L 525 4666 
z
" transform="scale(0.015625)"/>
       </defs>
       <use xlink:href="#DejaVuSans-15"/>
       <use xlink:href="#DejaVuSans-13" transform="translate(63.625 0)"/>
       <use xlink:href="#DejaVuSans-15" transform="translate(127.25 0)"/>
       <use xlink:href="#DejaVuSans-17" transform="translate(190.875 0)"/>
       <use xlink:href="#DejaVuSans-10" transform="translate(254.5 0)"/>
       <use xlink:href="#DejaVuSans-13" transform="translate(290.578125 0)"/>
       <use xlink:href="#DejaVuSans-1a" transform="translate(354.203125 0)"/>
      </g>
     </g>
    </g>
    <g id="xtick_2">
     <g id="line2d_2">
      <g>
       <use xlink:href="#m09fa987f36" x="159.626483" y="296.2" style="stroke: #000000; stroke-width: 0.8"/>
      </g>
     </g>
     <g id="text_2">
      <!-- 2024-10 -->
      <g transform="translate(138.735077 310.797656) scale(0.1 -0.1)">
       <defs>
        <path id="DejaVuSans-14" d="M 794 531 
L 1825 531 
L 1825 4091 
L 703 3866 
L 703 4441 
L 1819 4666 
L 2450 4666 
L 2450 531 
L 3481 531 
L 3481 0 
L 794 0 
L 794 531 
z
" transform="scale(0.015625)"/>
       </defs>
       <use xlink:href="#DejaVuSans-15"/>
       <use xlink:href="#DejaVuSans-13" transform="translate(63.625 0)"/>
       <use xlink:href="#DejaVuSans-15" transform="translate(127.25 0)"/>
       <use xlink:href="#DejaVuSans-17" transform="translate(190.875 0)"/>
       <use xlink:href="#DejaVuSans-10" transform="translate(254.5 0)"/>
       <use xlink:href="#DejaVuSans-14" transform="translate(290.578125 0)"/>
       <use xlink:href="#DejaVuSans-13" transform="translate(354.203125 0)"/>
      </g>
     </g>
    </g>
    <g id="xtick_3">
     <g id="line2d_3">
      <g>
       <use xlink:href="#m09fa987f36" x="225.209374" y="296.2" style="stroke: #000000; stroke-width: 0.8"/>
      </g>
     </g>
     <g id="text_3">
      <!-- 2025-01 -->
      <g transform="translate(204.317968 310.797656) scale(0.1 -0.1)">
       <defs>
        <path id="DejaVuSans-18" d="M 691 4666 
L 3169 4666 
L 3169 4134 
L 1269 4134 
L 1269 2991 
Q 1406 3038 1543 3061 
Q 1681 3084 1819 3084 
Q 2600 3084 3056 2656 
Q 3513 2228 3513 1497 
Q 3513 744 3044 326 
Q 2575 -91 1722 -91 
Q 1428 -91 1123 -41 
Q 819 9 494 109 
L 494 744 
Q 775 591 1075 516 
Q 1375 441 1709 441 
Q 2250 441 2565 725 
Q 2881 1009 2881 1497 
Q 2881 1984 2565 2268 
Q 2250 2553 1709 2553 
Q 1456 2553 1204 2497 
Q 953 2441 691 2322 
L 691 4666 
z
" transform="scale(0.015625)"/>
       </defs>
       <use xlink:href="#DejaVuSans-15"/>
       <use xlink:href="#DejaVuSans-13" transform="translate(63.625 0)"/>
       <use xlink:href="#DejaVuSans-15" transform="translate(127.25 0)"/>
       <use xlink:href="#DejaVuSans-18" transform="translate(190.875 0)"/>
       <use xlink:href="#DejaVuSans-10" transform="translate(254.5 0)"/>
       <use xlink:href="#DejaVuSans-13" transform="translate(290.578125 0)"/>
       <use xlink:href="#DejaVuSans-14" transform="translate(354.203125 0)"/>
      </g>
     </g>
    </g>
    <g id="xtick_4">
     <g id="line2d_4">
      <g>
       <use xlink:href="#m09fa987f36" x="289.36655" y="296.2" style="stroke: #000000; stroke-width: 0.8"/>
      </g>
     </g>
     <g id="text_4">
      <!-- 2025-04 -->
      <g transform="translate(268.475144 310.797656) scale(0.1 -0.1)">
       <use xlink:href="#DejaVuSans-15"/>
       <use xlink:href="#DejaVuSans-13" transform="translate(63.625 0)"/>
       <use xlink:href="#DejaVuSans-15" transform="translate(127.25 0)"/>
       <use xlink:href="#DejaVuSans-18" transform="translate(190.875 0)"/>
       <use xlink:href="#DejaVuSans-10" transform="translate(254.5 0)"/>
       <use xlink:href="#DejaVuSans-13" transform="translate(290.578125 0)"/>
       <use xlink:href="#DejaVuSans-17" transform="translate(354.203125 0)"/>
      </g>
     </g>
    </g>
    <g id="xtick_5">
     <g id="line2d_5">
      <g>
       <use xlink:href="#m09fa987f36" x="354.236584" y="296.2" style="stroke: #000000; stroke-width: 0.8"/>
      </g>
     </g>
     <g id="text_5">
      <!-- 2025-07 -->
      <g transform="translate(333.345178 310.797656) scale(0.1 -0.1)">
       <use xlink:href="#DejaVuSans-15"/>
       <use xlink:href="#DejaVuSans-13" transform="translate(63.625 0)"/>
       <use xlink:href="#DejaVuSans-15" transform="translate(127.25 0)"/>
       <use xlink:href="#DejaVuSans-18" transform="translate(190.875 0)"/>
       <use xlink:href="#DejaVuSans-10" transform="translate(254.5 0)"/>
       <use xlink:href="#DejaVuSans-13" transform="translate(290.578125 0)"/>
       <use xlink:href="#DejaVuSans-1a" transform="translate(354.203125 0)"/>
      </g>
     </g>
    </g>
    <g id="xtick_6">
     <g id="line2d_6">
      <g>
       <use xlink:href="#m09fa987f36" x="419.819475" y="296.2" style="stroke: #000000; stroke-width: 0.8"/>
      </g>
     </g>
     <g id="text_6">
      <!-- 2025-10 -->
      <g transform="translate(398.928069 310.797656) scale(0.1 -0.1)">
       <use xlink:href="#DejaVuSans-15"/>
       <use xlink:href="#DejaVuSans-13" transform="translate(63.625 0)"/>
       <use xlink:href="#DejaVuSans-15" transform="translate(127.25 0)"/>
       <use xlink:href="#DejaVuSans-18" transform="translate(190.875 0)"/>
       <use xlink:href="#DejaVuSans-10" transform="translate(254.5 0)"/>
       <use xlink:href="#DejaVuSans-14" transform="translate(290.578125 0)"/>
       <use xlink:href="#DejaVuSans-13" transform="translate(354.203125 0)"/>
      </g>
     </g>
    </g>
    <g id="xtick_7">
     <g id="line2d_7">
      <g>
       <use xlink:href="#m09fa987f36" x="485.402367" y="296.2" style="stroke: #000000; stroke-width: 0.8"/>
      </g>
     </g>
     <g id="text_7">
      <!-- 2026-01 -->
      <g transform="translate(464.51096 310.797656) scale(0.1 -0.1)">
       <defs>
        <path id="DejaVuSans-19" d="M 2113 2584 
Q 1688 2584 1439 2293 
Q 1191 2003 1191 1497 
Q 1191 994 1439 701 
Q 1688 409 2113 409 
Q 2538 409 2786 701 
Q 3034 994 3034 1497 
Q 3034 2003 2786 2293 
Q 2538 2584 2113 2584 
z
M 3366 4563 
L 3366 3988 
Q 3128 4100 2886 4159 
Q 2644 4219 2406 4219 
Q 1781 4219 1451 3797 
Q 1122 3375 1075 2522 
Q 1259 2794 1537 2939 
Q 1816 3084 2150 3084 
Q 2853 3084 3261 2657 
Q 3669 2231 3669 1497 
Q 3669 778 3244 343 
Q 2819 -91 2113 -91 
Q 1303 -91 875 529 
Q 447 1150 447 2328 
Q 447 3434 972 4092 
Q 1497 4750 2381 4750 
Q 2619 4750 2861 4703 
Q 3103 4656 3366 4563 
z
" transform="scale(0.015625)"/>
       </defs>
       <use xlink:href="#DejaVuSans-15"/>
       <use xlink:href="#DejaVuSans-13" transform="translate(63.625 0)"/>
       <use xlink:href="#DejaVuSans-15" transform="translate(127.25 0)"/>
       <use xlink:href="#DejaVuSans-19" transform="translate(190.875 0)"/>
       <use xlink:href="#DejaVuSans-10" transform="translate(254.5 0)"/>
       <use xlink:href="#DejaVuSans-13" transform="translate(290.578125 0)"/>
       <use xlink:href="#DejaVuSans-14" transform="translate(354.203125 0)"/>
      </g>
     </g>
    </g>
    <g id="xtick_8">
     <g id="line2d_8">
      <g>
       <use xlink:href="#m09fa987f36" x="549.559543" y="296.2" style="stroke: #000000; stroke-width: 0.8"/>
      </g>
     </g>
     <g id="text_8">
      <!-- 2026-04 -->
      <g transform="translate(528.668136 310.797656) scale(0.1 -0.1)">
       <use xlink:href="#DejaVuSans-15"/>
       <use xlink:href="#DejaVuSans-13" transform="translate(63.625 0)"/>
       <use xlink:href="#DejaVuSans-15" transform="translate(127.25 0)"/>
       <use xlink:href="#DejaVuSans-19" transform="translate(190.875 0)"/>
       <use xlink:href="#DejaVuSans-10" transform="translate(254.5 0)"/>
       <use xlink:href="#DejaVuSans-13" transform="translate(290.578125 0)"/>
       <use xlink:href="#DejaVuSans-17" transform="translate(354.203125 0)"/>
      </g>
     </g>
    </g>
    <g id="xtick_9">
     <g id="line2d_9">
      <g>
       <use xlink:href="#m09fa987f36" x="614.429576" y="296.2" style="stroke: #000000; stroke-width: 0.8"/>
      </g>
     </g>
     <g id="text_9">
      <!-- 2026-07 -->
      <g transform="translate(593.53817 310.797656) scale(0.1 -0.1)">
       <use xlink:href="#DejaVuSans-15"/>
       <use xlink:href="#DejaVuSans-13" transform="translate(63.625 0)"/>
       <use xlink:href="#DejaVuSans-15" transform="translate(127.25 0)"/>
       <use xlink:href="#DejaVuSans-19" transform="translate(190.875 0)"/>
       <use xlink:href="#DejaVuSans-10" transform="translate(254.5 0)"/>
       <use xlink:href="#DejaVuSans-13" transform="translate(290.578125 0)"/>
       <use xlink:href="#DejaVuSans-1a" transform="translate(354.203125 0)"/>
      </g>
     </g>
    </g>
   </g>
   <g id="matplotlib.axis_2">
    <g id="ytick_1">
     <g id="line2d_10">
      <defs>
       <path id="mf7e2415819" d="M 0 0 
L -3.5 0 
" style="stroke: #000000; stroke-width: 0.8"/>
      </defs>
      <g>
       <use xlink:href="#mf7e2415819" x="54.48" y="281.990859" style="stroke: #000000; stroke-width: 0.8"/>
      </g>
     </g>
     <g id="text_10">
      <!-- 0.68 -->
      <g transform="translate(25.214375 285.789687) scale(0.1 -0.1)">
       <defs>
        <path id="DejaVuSans-11" d="M 684 794 
L 1344 794 
L 1344 0 
L 684 0 
L 684 794 
z
" transform="scale(0.015625)"/>
        <path id="DejaVuSans-1b" d="M 2034 2216 
Q 1584 2216 1326 1975 
Q 1069 1734 1069 1313 
Q 1069 891 1326 650 
Q 1584 409 2034 409 
Q 2484 409 2743 651 
Q 3003 894 3003 1313 
Q 3003 1734 2745 1975 
Q 2488 2216 2034 2216 
z
M 1403 2484 
Q 997 2584 770 2862 
Q 544 3141 544 3541 
Q 544 4100 942 4425 
Q 1341 4750 2034 4750 
Q 2731 4750 3128 4425 
Q 3525 4100 3525 3541 
Q 3525 3141 3298 2862 
Q 3072 2584 2669 2484 
Q 3125 2378 3379 2068 
Q 3634 1759 3634 1313 
Q 3634 634 3220 271 
Q 2806 -91 2034 -91 
Q 1263 -91 848 271 
Q 434 634 434 1313 
Q 434 1759 690 2068 
Q 947 2378 1403 2484 
z
M 1172 3481 
Q 1172 3119 1398 2916 
Q 1625 2713 2034 2713 
Q 2441 2713 2670 2916 
Q 2900 3119 2900 3481 
Q 2900 3844 2670 4047 
Q 2441 4250 2034 4250 
Q 1625 4250 1398 4047 
Q 1172 3844 1172 3481 
z
" transform="scale(0.015625)"/>
       </defs>
       <use xlink:href="#DejaVuSans-13"/>
       <use xlink:href="#DejaVuSans-11" transform="translate(63.625 0)"/>
       <use xlink:href="#DejaVuSans-19" transform="translate(95.40625 0)"/>
       <use xlink:href="#DejaVuSans-1b" transform="translate(159.03125 0)"/>
      </g>
     </g>
    </g>
    <g id="ytick_2">
     <g id="line2d_11">
      <g>
       <use xlink:href="#mf7e2415819" x="54.48" y="244.543172" style="stroke: #000000; stroke-width: 0.8"/>
      </g>
     </g>
     <g id="text_11">
      <!-- 0.69 -->
      <g transform="translate(25.214375 248.342) scale(0.1 -0.1)">
       <defs>
        <path id="DejaVuSans-1c" d="M 703 97 
L 703 672 
Q 941 559 1184 500 
Q 1428 441 1663 441 
Q 2288 441 2617 861 
Q 2947 1281 2994 2138 
Q 2813 1869 2534 1725 
Q 2256 1581 1919 1581 
Q 1219 1581 811 2004 
Q 403 2428 403 3163 
Q 403 3881 828 4315 
Q 1253 4750 1959 4750 
Q 2769 4750 3195 4129 
Q 3622 3509 3622 2328 
Q 3622 1225 3098 567 
Q 2575 -91 1691 -91 
Q 1453 -91 1209 -44 
Q 966 3 703 97 
z
M 1959 2075 
Q 2384 2075 2632 2365 
Q 2881 2656 2881 3163 
Q 2881 3666 2632 3958 
Q 2384 4250 1959 4250 
Q 1534 4250 1286 3958 
Q 1038 3666 1038 3163 
Q 1038 2656 1286 2365 
Q 1534 2075 1959 2075 
z
" transform="scale(0.015625)"/>
       </defs>
       <use xlink:href="#DejaVuSans-13"/>
       <use xlink:href="#DejaVuSans-11" transform="translate(63.625 0)"/>
       <use xlink:href="#DejaVuSans-19" transform="translate(95.40625 0)"/>
       <use xlink:href="#DejaVuSans-1c" transform="translate(159.03125 0)"/>
      </g>
     </g>
    </g>
    <g id="ytick_3">
     <g id="line2d_12">
      <g>
       <use xlink:href="#mf7e2415819" x="54.48" y="207.095486" style="stroke: #000000; stroke-width: 0.8"/>
      </g>
     </g>
     <g id="text_12">
      <!-- 0.70 -->
      <g transform="translate(25.214375 210.894314) scale(0.1 -0.1)">
       <use xlink:href="#DejaVuSans-13"/>
       <use xlink:href="#DejaVuSans-11" transform="translate(63.625 0)"/>
       <use xlink:href="#DejaVuSans-1a" transform="translate(95.40625 0)"/>
       <use xlink:href="#DejaVuSans-13" transform="translate(159.03125 0)"/>
      </g>
     </g>
    </g>
    <g id="ytick_4">
     <g id="line2d_13">
      <g>
       <use xlink:href="#mf7e2415819" x="54.48" y="169.6478" style="stroke: #000000; stroke-width: 0.8"/>
      </g>
     </g>
     <g id="text_13">
      <!-- 0.71 -->
      <g transform="translate(25.214375 173.446628) scale(0.1 -0.1)">
       <use xlink:href="#DejaVuSans-13"/>
       <use xlink:href="#DejaVuSans-11" transform="translate(63.625 0)"/>
       <use xlink:href="#DejaVuSans-1a" transform="translate(95.40625 0)"/>
       <use xlink:href="#DejaVuSans-14" transform="translate(159.03125 0)"/>
      </g>
     </g>
    </g>
    <g id="ytick_5">
     <g id="line2d_14">
      <g>
       <use xlink:href="#mf7e2415819" x="54.48" y="132.200114" style="stroke: #000000; stroke-width: 0.8"/>
      </g>
     </g>
     <g id="text_14">
      <!-- 0.72 -->
      <g transform="translate(25.214375 135.998942) scale(0.1 -0.1)">
       <use xlink:href="#DejaVuSans-13"/>
       <use xlink:href="#DejaVuSans-11" transform="translate(63.625 0)"/>
       <use xlink:href="#DejaVuSans-1a" transform="translate(95.40625 0)"/>
       <use xlink:href="#DejaVuSans-15" transform="translate(159.03125 0)"/>
      </g>
     </g>
    </g>
    <g id="ytick_6">
     <g id="line2d_15">
      <g>
       <use xlink:href="#mf7e2415819" x="54.48" y="94.752427" style="stroke: #000000; stroke-width: 0.8"/>
      </g>
     </g>
     <g id="text_15">
      <!-- 0.73 -->
      <g transform="translate(25.214375 98.551255) scale(0.1 -0.1)">
       <defs>
        <path id="DejaVuSans-16" d="M 2597 2516 
Q 3050 2419 3304 2112 
Q 3559 1806 3559 1356 
Q 3559 666 3084 287 
Q 2609 -91 1734 -91 
Q 1441 -91 1130 -33 
Q 819 25 488 141 
L 488 750 
Q 750 597 1062 519 
Q 1375 441 1716 441 
Q 2309 441 2620 675 
Q 2931 909 2931 1356 
Q 2931 1769 2642 2001 
Q 2353 2234 1838 2234 
L 1294 2234 
L 1294 2753 
L 1863 2753 
Q 2328 2753 2575 2939 
Q 2822 3125 2822 3475 
Q 2822 3834 2567 4026 
Q 2313 4219 1838 4219 
Q 1578 4219 1281 4162 
Q 984 4106 628 3988 
L 628 4550 
Q 988 4650 1302 4700 
Q 1616 4750 1894 4750 
Q 2613 4750 3031 4423 
Q 3450 4097 3450 3541 
Q 3450 3153 3228 2886 
Q 3006 2619 2597 2516 
z
" transform="scale(0.015625)"/>
       </defs>
       <use xlink:href="#DejaVuSans-13"/>
       <use xlink:href="#DejaVuSans-11" transform="translate(63.625 0)"/>
       <use xlink:href="#DejaVuSans-1a" transform="translate(95.40625 0)"/>
       <use xlink:href="#DejaVuSans-16" transform="translate(159.03125 0)"/>
      </g>
     </g>
    </g>
    <g id="ytick_7">
     <g id="line2d_16">
      <g>
       <use xlink:href="#mf7e2415819" x="54.48" y="57.304741" style="stroke: #000000; stroke-width: 0.8"/>
      </g>
     </g>
     <g id="text_16">
      <!-- 0.74 -->
      <g transform="translate(25.214375 61.103569) scale(0.1 -0.1)">
       <use xlink:href="#DejaVuSans-13"/>
       <use xlink:href="#DejaVuSans-11" transform="translate(63.625 0)"/>
       <use xlink:href="#DejaVuSans-1a" transform="translate(95.40625 0)"/>
       <use xlink:href="#DejaVuSans-17" transform="translate(159.03125 0)"/>
      </g>
     </g>
    </g>
    <g id="text_17">
     <!-- CAD/USD -->
     <g transform="translate(18.812031 184.188281) rotate(-90) scale(0.1 -0.1)">
      <defs>
       <path id="DejaVuSans-26" d="M 4122 4306 
L 4122 3641 
Q 3803 3938 3442 4084 
Q 3081 4231 2675 4231 
Q 1875 4231 1450 3742 
Q 1025 3253 1025 2328 
Q 1025 1406 1450 917 
Q 1875 428 2675 428 
Q 3081 428 3442 575 
Q 3803 722 4122 1019 
L 4122 359 
Q 3791 134 3420 21 
Q 3050 -91 2638 -91 
Q 1578 -91 968 557 
Q 359 1206 359 2328 
Q 359 3453 968 4101 
Q 1578 4750 2638 4750 
Q 3056 4750 3426 4639 
Q 3797 4528 4122 4306 
z
" transform="scale(0.015625)"/>
       <path id="DejaVuSans-24" d="M 2188 4044 
L 1331 1722 
L 3047 1722 
L 2188 4044 
z
M 1831 4666 
L 2547 4666 
L 4325 0 
L 3669 0 
L 3244 1197 
L 1141 1197 
L 716 0 
L 50 0 
L 1831 4666 
z
" transform="scale(0.015625)"/>
       <path id="DejaVuSans-27" d="M 1259 4147 
L 1259 519 
L 2022 519 
Q 2988 519 3436 956 
Q 3884 1394 3884 2338 
Q 3884 3275 3436 3711 
Q 2988 4147 2022 4147 
L 1259 4147 
z
M 628 4666 
L 1925 4666 
Q 3281 4666 3915 4102 
Q 4550 3538 4550 2338 
Q 4550 1131 3912 565 
Q 3275 0 1925 0 
L 628 0 
L 628 4666 
z
" transform="scale(0.015625)"/>
       <path id="DejaVuSans-12" d="M 1625 4666 
L 2156 4666 
L 531 -594 
L 0 -594 
L 1625 4666 
z
" transform="scale(0.015625)"/>
       <path id="DejaVuSans-38" d="M 556 4666 
L 1191 4666 
L 1191 1831 
Q 1191 1081 1462 751 
Q 1734 422 2344 422 
Q 2950 422 3222 751 
Q 3494 1081 3494 1831 
L 3494 4666 
L 4128 4666 
L 4128 1753 
Q 4128 841 3676 375 
Q 3225 -91 2344 -91 
Q 1459 -91 1007 375 
Q 556 841 556 1753 
L 556 4666 
z
" transform="scale(0.015625)"/>
       <path id="DejaVuSans-36" d="M 3425 4513 
L 3425 3897 
Q 3066 4069 2747 4153 
Q 2428 4238 2131 4238 
Q 1616 4238 1336 4038 
Q 1056 3838 1056 3469 
Q 1056 3159 1242 3001 
Q 1428 2844 1947 2747 
L 2328 2669 
Q 3034 2534 3370 2195 
Q 3706 1856 3706 1288 
Q 3706 609 3251 259 
Q 2797 -91 1919 -91 
Q 1588 -91 1214 -16 
Q 841 59 441 206 
L 441 856 
Q 825 641 1194 531 
Q 1563 422 1919 422 
Q 2459 422 2753 634 
Q 3047 847 3047 1241 
Q 3047 1584 2836 1778 
Q 2625 1972 2144 2069 
L 1759 2144 
Q 1053 2284 737 2584 
Q 422 2884 422 3419 
Q 422 4038 858 4394 
Q 1294 4750 2059 4750 
Q 2388 4750 2728 4690 
Q 3069 4631 3425 4513 
z
" transform="scale(0.015625)"/>
      </defs>
      <use xlink:href="#DejaVuSans-26"/>
      <use xlink:href="#DejaVuSans-24" transform="translate(69.828125 0)"/>
      <use xlink:href="#DejaVuSans-27" transform="translate(138.234375 0)"/>
      <use xlink:href="#DejaVuSans-12" transform="translate(215.234375 0)"/>
      <use xlink:href="#DejaVuSans-38" transform="translate(248.921875 0)"/>
      <use xlink:href="#DejaVuSans-36" transform="translate(322.109375 0)"/>
      <use xlink:href="#DejaVuSans-27" transform="translate(385.59375 0)"/>
     </g>
    </g>
   </g>
   <g id="line2d_17">
    <path d="M 80.499299 105.935626 
L 81.212157 99.388336 
L 81.925014 103.181492 
L 84.063587 101.594054 
L 84.776444 97.676796 
L 86.202159 96.182434 
L 86.915017 91.969652 
L 89.053589 95.284925 
L 89.766447 86.600218 
L 90.479304 87.24238 
L 91.192162 95.923293 
L 91.905019 94.886056 
L 94.756449 102.546919 
L 95.469307 90.38891 
L 96.895022 78.001222 
L 99.033595 82.59948 
L 99.746452 80.886824 
L 100.45931 80.987713 
L 101.172167 78.405001 
L 104.023597 84.209016 
L 104.736455 90.228871 
L 105.449312 88.926913 
L 106.16217 90.769252 
L 106.875027 95.424874 
L 109.0136 96.421711 
L 109.726457 107.182006 
L 111.152172 116.856853 
L 111.86503 118.622856 
L 114.003602 120.3277 
L 114.71646 125.761194 
L 115.429317 124.55142 
L 116.142175 116.464235 
L 116.855032 130.590024 
L 120.41932 112.175785 
L 121.132177 105.896119 
L 121.845035 102.070598 
L 123.983608 102.169701 
L 124.696465 103.439518 
L 125.409323 96.840221 
L 126.12218 98.154679 
L 126.835038 101.713246 
L 128.97361 90.689344 
L 129.686468 80.987713 
L 130.399325 78.425312 
L 131.112183 71.541875 
L 131.82504 75.615377 
L 133.963613 56.173723 
L 134.67647 50.847814 
L 135.389328 43.742733 
L 136.102185 49.796962 
L 136.815043 52.289276 
L 139.666473 53.97604 
L 140.37933 63.419869 
L 141.092188 56.194258 
L 141.805045 54.551464 
L 143.943618 67.232444 
L 144.656475 67.61926 
L 145.369333 76.869569 
L 146.08219 70.546824 
L 146.795048 70.01872 
L 148.93362 70.404866 
L 149.646478 72.150557 
L 150.359335 73.32685 
L 151.072193 77.091882 
L 151.785051 67.354538 
L 153.923623 67.659883 
L 154.636481 60.579132 
L 155.349338 38.20277 
L 156.062196 50.868572 
L 156.775053 49.528669 
L 158.913626 56.337779 
L 159.626483 60.108614 
L 160.339341 53.420928 
L 161.052198 55.53714 
L 161.765056 64.399519 
L 163.903628 70.709541 
L 165.329343 85.415219 
L 166.042201 96.879952 
L 166.755058 104.113599 
L 169.606488 115.403338 
L 170.319346 111.111541 
L 171.032203 105.955268 
L 171.745061 113.987322 
L 173.883633 114.754256 
L 174.596491 121.404444 
L 175.309348 118.015067 
L 176.022206 122.030536 
L 176.735063 125.27349 
L 178.873636 133.502188 
L 179.586494 132.377009 
L 180.299351 136.833978 
L 181.012209 135.904996 
L 181.725066 141.160595 
L 183.863639 137.994201 
L 184.576496 134.490989 
L 185.289354 121.306457 
L 186.002211 143.665185 
L 186.715069 128.002402 
L 189.566499 138.516055 
L 190.279356 143.14534 
L 190.992214 152.203469 
L 191.705071 165.297603 
L 193.843644 169.910593 
L 195.269359 144.97317 
L 196.695074 149.772091 
L 198.833646 140.697667 
L 199.546504 172.267868 
L 200.259361 163.705701 
L 201.685076 154.973674 
L 203.823649 156.003991 
L 204.536506 161.789257 
L 205.249364 166.130606 
L 205.962221 167.49283 
L 206.675079 157.700354 
L 208.813652 181.542507 
L 209.526509 186.062197 
L 210.239367 186.509724 
L 210.952224 181.748302 
L 211.665082 194.462986 
L 213.803654 196.073861 
L 214.516512 197.701253 
L 215.229369 211.489333 
L 215.942227 238.869518 
L 216.655084 228.459432 
L 218.793657 220.892092 
L 219.506514 223.23218 
L 221.645087 229.776568 
L 223.783659 228.513671 
L 224.496517 218.802441 
L 225.922232 223.304498 
L 226.635089 228.441352 
L 228.773662 235.10337 
L 229.486519 216.763681 
L 230.199377 221.400108 
L 231.625092 228.188683 
L 233.763664 230.58792 
L 234.476522 221.164403 
L 235.18938 219.111358 
L 235.902237 214.503501 
L 236.615095 227.140956 
L 239.466525 210.190053 
L 240.179382 217.510527 
L 240.89224 226.743427 
L 241.605097 223.993088 
L 243.74367 225.205987 
L 244.456527 228.080206 
L 245.882242 227.719282 
L 246.5951 244.587153 
L 248.733672 283.914418 
L 249.44653 231.146381 
L 250.159387 215.925768 
L 250.872245 212.512954 
L 251.585102 210.830653 
L 253.723675 215.524667 
L 254.436532 216.399633 
L 255.14939 206.982589 
L 255.862247 209.842522 
L 256.575105 189.804462 
L 259.426535 188.483755 
L 260.139392 189.265421 
L 260.85225 198.754114 
L 261.565107 186.807927 
L 263.70368 193.42508 
L 264.416538 205.311895 
L 265.129395 209.842522 
L 265.842253 216.290039 
L 266.55511 235.731917 
L 268.693683 235.28305 
L 269.40654 244.052129 
L 270.119398 227.375992 
L 270.832255 216.763681 
L 271.545113 208.083439 
L 273.683685 222.506762 
L 274.396543 233.108581 
L 275.1094 233.737798 
L 275.822258 220.964634 
L 276.535115 232.550791 
L 278.673688 222.325742 
L 279.386545 208.816669 
L 280.099403 209.622665 
L 280.81226 213.189044 
L 281.525118 213.864687 
L 283.66369 215.688723 
L 284.376548 212.659154 
L 285.089405 204.760354 
L 285.802263 208.798143 
L 286.51512 211.086893 
L 288.653693 211.379516 
L 289.36655 226.219117 
L 290.079408 208.26669 
L 290.792266 194.333304 
L 291.505123 168.985629 
L 293.643696 198.883573 
L 294.356553 198.273776 
L 295.069411 201.0788 
L 296.495126 144.204004 
L 298.633698 129.287173 
L 299.346556 134.35528 
L 300.059413 145.357977 
L 300.772271 126.521879 
L 304.336558 121.561135 
L 305.049416 124.063046 
L 305.762273 129.326234 
L 306.475131 126.190419 
L 308.613703 128.683849 
L 309.326561 120.739068 
L 310.039418 120.092888 
L 310.752276 112.786476 
L 311.465133 123.946086 
L 313.603706 119.211003 
L 314.316563 119.132658 
L 315.029421 108.802702 
L 315.742278 121.541492 
L 316.455136 139.095497 
L 318.593709 138.999072 
L 319.306566 148.660527 
L 320.019424 140.543432 
L 320.732281 149.58058 
L 321.445139 144.915806 
L 324.296569 145.338558 
L 325.722284 126.736156 
L 326.435141 126.190419 
L 329.286571 102.149836 
L 329.999429 116.79815 
L 330.712286 124.844266 
L 331.425144 115.95354 
L 333.563716 100.243214 
L 334.276574 97.158959 
L 334.989431 98.015399 
L 335.702289 90.849606 
L 336.415146 88.365551 
L 339.266576 94.806148 
L 339.979434 88.686297 
L 340.692291 88.165112 
L 341.405149 74.218333 
L 343.543721 71.683834 
L 344.256579 69.754668 
L 344.969436 91.749794 
L 346.395152 94.127603 
L 348.533724 102.844452 
L 349.246582 100.719981 
L 349.959439 100.322675 
L 350.672297 97.417877 
L 351.385154 83.62578 
L 353.523727 91.309633 
L 354.949442 83.867065 
L 355.662299 72.31305 
L 358.513729 75.595065 
L 359.226587 88.084758 
L 359.939444 88.706386 
L 360.652302 91.829702 
L 361.365159 86.279025 
L 363.503732 91.829702 
L 364.216589 95.963246 
L 364.929447 98.293959 
L 365.642304 92.889259 
L 366.355162 102.169701 
L 368.493734 99.805954 
L 369.206592 90.188917 
L 369.919449 75.797513 
L 370.632307 75.230794 
L 371.345164 83.122898 
L 373.483737 95.44474 
L 374.196595 101.852303 
L 374.909452 109.691061 
L 375.62231 119.779284 
L 376.335167 125.995337 
L 379.186597 108.525927 
L 379.899455 109.059166 
L 380.612312 102.824587 
L 381.32517 101.494728 
L 383.463742 105.500152 
L 384.1766 109.651553 
L 384.889457 108.84221 
L 385.602315 105.381407 
L 386.315172 117.406609 
L 388.453745 117.779362 
L 389.166602 115.245978 
L 389.87946 127.74951 
L 390.592317 129.073119 
L 391.305175 134.432955 
L 393.443747 120.484391 
L 394.156605 126.443757 
L 394.869462 121.385025 
L 395.58232 111.170691 
L 396.295177 104.925844 
L 399.146607 104.450416 
L 399.859465 111.781827 
L 400.572322 113.475512 
L 401.28518 117.779362 
L 403.423753 121.502208 
L 404.13661 113.849604 
L 404.849468 123.965505 
L 405.562325 126.677677 
L 406.275183 121.443728 
L 408.413755 122.480518 
L 409.126613 109.710926 
L 409.83947 102.745349 
L 410.552328 108.901359 
L 411.265185 113.219495 
L 413.403758 111.288989 
L 414.116615 119.720581 
L 414.829473 122.499714 
L 415.54233 133.579864 
L 416.255188 142.278409 
L 418.39376 141.739144 
L 419.106618 137.491765 
L 419.819475 138.902424 
L 420.532333 141.989581 
L 421.24519 146.107501 
L 423.383763 146.894971 
L 424.09662 143.241764 
L 424.809478 144.550196 
L 425.522335 144.896388 
L 426.235193 157.185865 
L 429.799481 162.16893 
L 430.512338 162.358878 
L 431.225196 162.358878 
L 433.363768 156.633208 
L 434.076626 159.889108 
L 434.789483 157.395678 
L 435.502341 151.457293 
L 436.215198 151.036104 
L 438.353771 152.33717 
L 439.066628 151.954595 
L 439.779486 141.873961 
L 440.492343 142.336443 
L 441.205201 149.98302 
L 443.343773 156.537899 
L 444.769488 172.738608 
L 445.482346 173.002437 
L 446.195203 174.790091 
L 448.333776 161.941037 
L 449.046633 158.461931 
L 449.759491 156.614012 
L 450.472348 155.374551 
L 451.185206 160.364313 
L 453.323778 157.07136 
L 454.036636 163.212639 
L 454.749493 150.748839 
L 455.462351 161.694395 
L 456.175208 170.910554 
L 458.313781 171.551601 
L 459.026639 174.263326 
L 459.739496 172.983688 
L 461.165211 158.55724 
L 463.303784 147.739581 
L 464.016641 153.598728 
L 464.729499 147.777972 
L 465.442356 144.608006 
L 466.155214 145.87693 
L 468.293786 121.619838 
L 469.006644 124.434237 
L 469.719501 123.750558 
L 470.432359 112.747192 
L 471.145216 110.046404 
L 473.283789 108.486643 
L 473.996646 108.762972 
L 474.709504 106.173117 
L 475.422361 111.643663 
L 476.135219 110.302867 
L 478.273791 112.924417 
L 478.986649 104.707772 
L 479.699506 92.129467 
L 483.263794 88.686297 
L 483.976651 92.469632 
L 484.689509 93.968011 
L 488.253797 104.311806 
L 488.966654 109.414732 
L 490.392369 126.170777 
L 491.105227 127.379212 
L 493.243799 137.046693 
L 493.956657 129.637383 
L 494.669514 131.736185 
L 495.382372 131.367226 
L 496.095229 132.105144 
L 498.946659 129.306815 
L 499.659517 121.306457 
L 500.372374 123.301245 
L 501.085232 111.702813 
L 503.223804 95.404786 
L 503.936662 97.417877 
L 504.649519 73.205203 
L 506.075234 52.886127 
L 508.213807 82.156417 
L 508.926664 89.768398 
L 509.639522 82.881166 
L 510.352379 88.866647 
L 511.065237 97.457608 
L 513.20381 86.80088 
L 513.916667 67.252756 
L 514.629525 65.174712 
L 515.342382 69.937473 
L 516.05524 77.091882 
L 518.90667 82.236995 
L 519.619527 82.538992 
L 520.332385 94.247242 
L 521.045242 92.389501 
L 523.183815 84.711898 
L 523.896672 93.788108 
L 524.60953 95.085602 
L 525.322387 90.188917 
L 526.035245 90.188917 
L 528.173817 88.706386 
L 529.599532 89.848306 
L 530.31239 83.807023 
L 531.025247 89.007044 
L 533.16382 75.352218 
L 533.876677 72.373762 
L 534.589535 71.460628 
L 535.302392 75.271417 
L 536.01525 81.5118 
L 538.153822 97.358281 
L 538.86668 91.829702 
L 539.579537 92.929213 
L 540.292395 100.878903 
L 541.005253 102.149836 
L 543.143825 96.979725 
L 543.856683 101.137375 
L 544.56954 106.390743 
L 545.282398 117.622448 
L 545.995255 125.000287 
L 548.133828 134.258632 
L 548.846685 139.829397 
L 550.2724 129.773538 
L 553.12383 143.183954 
L 553.836688 136.601844 
L 554.549545 123.066656 
L 555.262403 124.727083 
L 555.97526 119.289348 
L 558.113833 129.0537 
L 558.82669 111.880261 
L 559.539548 108.150719 
L 560.965263 95.10569 
L 563.103835 96.022842 
L 563.816693 83.807023 
L 565.242408 88.966867 
L 565.955265 94.706599 
L 568.093838 90.228871 
L 568.806696 79.273271 
L 569.519553 90.829517 
L 570.232411 89.287613 
L 570.945268 70.790788 
L 573.083841 72.515721 
L 573.796698 79.192693 
L 574.509556 75.635689 
L 575.222413 82.377837 
L 575.935271 87.162249 
L 578.073843 91.62971 
L 578.786701 90.709433 
L 579.499558 94.486964 
L 580.212416 95.963246 
L 580.925273 99.746135 
L 583.776703 102.725483 
L 584.489561 104.39082 
L 585.202418 104.509789 
L 585.915276 110.085688 
L 588.766706 115.639044 
L 589.479563 116.366024 
L 590.192421 123.281827 
L 590.905278 111.466438 
L 593.043851 114.105175 
L 593.756708 122.519356 
L 594.469566 123.555253 
L 595.182423 133.036804 
L 598.746711 145.223384 
L 599.459569 144.742599 
L 600.172426 143.395776 
L 600.885284 149.005603 
L 600.885284 149.005603 
" clip-path="url(#p7ab060e924)" style="fill: none; stroke: #1f77b4; stroke-width: 1.5; stroke-linecap: square"/>
   </g>
   <g id="patch_3">
    <path d="M 54.48 296.2 
L 54.48 25.917188 
" style="fill: none; stroke: #000000; stroke-width: 0.8; stroke-linejoin: miter; stroke-linecap: square"/>
   </g>
   <g id="patch_4">
    <path d="M 626.904583 296.2 
L 626.904583 25.917188 
" style="fill: none; stroke: #000000; stroke-width: 0.8; stroke-linejoin: miter; stroke-linecap: square"/>
   </g>
   <g id="patch_5">
    <path d="M 54.48 296.2 
L 626.904583 296.2 
" style="fill: none; stroke: #000000; stroke-width: 0.8; stroke-linejoin: miter; stroke-linecap: square"/>
   </g>
   <g id="patch_6">
    <path d="M 54.48 25.917188 
L 626.904583 25.917188 
" style="fill: none; stroke: #000000; stroke-width: 0.8; stroke-linejoin: miter; stroke-linecap: square"/>
   </g>
   <g id="text_18">
    <!-- CAD/USD Exchange Rate -->
    <g transform="translate(266.045729 19.917188) scale(0.12 -0.12)">
     <defs>
      <path id="DejaVuSans-3" transform="scale(0.015625)"/>
      <path id="DejaVuSans-28" d="M 628 4666 
L 3578 4666 
L 3578 4134 
L 1259 4134 
L 1259 2753 
L 3481 2753 
L 3481 2222 
L 1259 2222 
L 1259 531 
L 3634 531 
L 3634 0 
L 628 0 
L 628 4666 
z
" transform="scale(0.015625)"/>
      <path id="DejaVuSans-5b" d="M 3513 3500 
L 2247 1797 
L 3578 0 
L 2900 0 
L 1881 1375 
L 863 0 
L 184 0 
L 1544 1831 
L 300 3500 
L 978 3500 
L 1906 2253 
L 2834 3500 
L 3513 3500 
z
" transform="scale(0.015625)"/>
      <path id="DejaVuSans-46" d="M 3122 3366 
L 3122 2828 
Q 2878 2963 2633 3030 
Q 2388 3097 2138 3097 
Q 1578 3097 1268 2742 
Q 959 2388 959 1747 
Q 959 1106 1268 751 
Q 1578 397 2138 397 
Q 2388 397 2633 464 
Q 2878 531 3122 666 
L 3122 134 
Q 2881 22 2623 -34 
Q 2366 -91 2075 -91 
Q 1284 -91 818 406 
Q 353 903 353 1747 
Q 353 2603 823 3093 
Q 1294 3584 2113 3584 
Q 2378 3584 2631 3529 
Q 2884 3475 3122 3366 
z
" transform="scale(0.015625)"/>
      <path id="DejaVuSans-4b" d="M 3513 2113 
L 3513 0 
L 2938 0 
L 2938 2094 
Q 2938 2591 2744 2837 
Q 2550 3084 2163 3084 
Q 1697 3084 1428 2787 
Q 1159 2491 1159 1978 
L 1159 0 
L 581 0 
L 581 4863 
L 1159 4863 
L 1159 2956 
Q 1366 3272 1645 3428 
Q 1925 3584 2291 3584 
Q 2894 3584 3203 3211 
Q 3513 2838 3513 2113 
z
" transform="scale(0.015625)"/>
      <path id="DejaVuSans-44" d="M 2194 1759 
Q 1497 1759 1228 1600 
Q 959 1441 959 1056 
Q 959 750 1161 570 
Q 1363 391 1709 391 
Q 2188 391 2477 730 
Q 2766 1069 2766 1631 
L 2766 1759 
L 2194 1759 
z
M 3341 1997 
L 3341 0 
L 2766 0 
L 2766 531 
Q 2569 213 2275 61 
Q 1981 -91 1556 -91 
Q 1019 -91 701 211 
Q 384 513 384 1019 
Q 384 1609 779 1909 
Q 1175 2209 1959 2209 
L 2766 2209 
L 2766 2266 
Q 2766 2663 2505 2880 
Q 2244 3097 1772 3097 
Q 1472 3097 1187 3025 
Q 903 2953 641 2809 
L 641 3341 
Q 956 3463 1253 3523 
Q 1550 3584 1831 3584 
Q 2591 3584 2966 3190 
Q 3341 2797 3341 1997 
z
" transform="scale(0.015625)"/>
      <path id="DejaVuSans-51" d="M 3513 2113 
L 3513 0 
L 2938 0 
L 2938 2094 
Q 2938 2591 2744 2837 
Q 2550 3084 2163 3084 
Q 1697 3084 1428 2787 
Q 1159 2491 1159 1978 
L 1159 0 
L 581 0 
L 581 3500 
L 1159 3500 
L 1159 2956 
Q 1366 3272 1645 3428 
Q 1925 3584 2291 3584 
Q 2894 3584 3203 3211 
Q 3513 2838 3513 2113 
z
" transform="scale(0.015625)"/>
      <path id="DejaVuSans-4a" d="M 2906 1791 
Q 2906 2416 2648 2759 
Q 2391 3103 1925 3103 
Q 1463 3103 1205 2759 
Q 947 2416 947 1791 
Q 947 1169 1205 825 
Q 1463 481 1925 481 
Q 2391 481 2648 825 
Q 2906 1169 2906 1791 
z
M 3481 434 
Q 3481 -459 3084 -895 
Q 2688 -1331 1869 -1331 
Q 1566 -1331 1297 -1286 
Q 1028 -1241 775 -1147 
L 775 -588 
Q 1028 -725 1275 -790 
Q 1522 -856 1778 -856 
Q 2344 -856 2625 -561 
Q 2906 -266 2906 331 
L 2906 616 
Q 2728 306 2450 153 
Q 2172 0 1784 0 
Q 1141 0 747 490 
Q 353 981 353 1791 
Q 353 2603 747 3093 
Q 1141 3584 1784 3584 
Q 2172 3584 2450 3431 
Q 2728 3278 2906 2969 
L 2906 3500 
L 3481 3500 
L 3481 434 
z
" transform="scale(0.015625)"/>
      <path id="DejaVuSans-48" d="M 3597 1894 
L 3597 1613 
L 953 1613 
Q 991 1019 1311 708 
Q 1631 397 2203 397 
Q 2534 397 2845 478 
Q 3156 559 3463 722 
L 3463 178 
Q 3153 47 2828 -22 
Q 2503 -91 2169 -91 
Q 1331 -91 842 396 
Q 353 884 353 1716 
Q 353 2575 817 3079 
Q 1281 3584 2069 3584 
Q 2775 3584 3186 3129 
Q 3597 2675 3597 1894 
z
M 3022 2063 
Q 3016 2534 2758 2815 
Q 2500 3097 2075 3097 
Q 1594 3097 1305 2825 
Q 1016 2553 972 2059 
L 3022 2063 
z
" transform="scale(0.015625)"/>
      <path id="DejaVuSans-35" d="M 2841 2188 
Q 3044 2119 3236 1894 
Q 3428 1669 3622 1275 
L 4263 0 
L 3584 0 
L 2988 1197 
Q 2756 1666 2539 1819 
Q 2322 1972 1947 1972 
L 1259 1972 
L 1259 0 
L 628 0 
L 628 4666 
L 2053 4666 
Q 2853 4666 3247 4331 
Q 3641 3997 3641 3322 
Q 3641 2881 3436 2590 
Q 3231 2300 2841 2188 
z
M 1259 4147 
L 1259 2491 
L 2053 2491 
Q 2509 2491 2742 2702 
Q 2975 2913 2975 3322 
Q 2975 3731 2742 3939 
Q 2509 4147 2053 4147 
L 1259 4147 
z
" transform="scale(0.015625)"/>
      <path id="DejaVuSans-57" d="M 1172 4494 
L 1172 3500 
L 2356 3500 
L 2356 3053 
L 1172 3053 
L 1172 1153 
Q 1172 725 1289 603 
Q 1406 481 1766 481 
L 2356 481 
L 2356 0 
L 1766 0 
Q 1100 0 847 248 
Q 594 497 594 1153 
L 594 3053 
L 172 3053 
L 172 3500 
L 594 3500 
L 594 4494 
L 1172 4494 
z
" transform="scale(0.015625)"/>
     </defs>
     <use xlink:href="#DejaVuSans-26"/>
     <use xlink:href="#DejaVuSans-24" transform="translate(69.828125 0)"/>
     <use xlink:href="#DejaVuSans-27" transform="translate(138.234375 0)"/>
     <use xlink:href="#DejaVuSans-12" transform="translate(215.234375 0)"/>
     <use xlink:href="#DejaVuSans-38" transform="translate(248.921875 0)"/>
     <use xlink:href="#DejaVuSans-36" transform="translate(322.109375 0)"/>
     <use xlink:href="#DejaVuSans-27" transform="translate(385.59375 0)"/>
     <use xlink:href="#DejaVuSans-3" transform="translate(462.59375 0)"/>
     <use xlink:href="#DejaVuSans-28" transform="translate(494.375 0)"/>
     <use xlink:href="#DejaVuSans-5b" transform="translate(557.5625 0)"/>
     <use xlink:href="#DejaVuSans-46" transform="translate(615 0)"/>
     <use xlink:href="#DejaVuSans-4b" transform="translate(669.984375 0)"/>
     <use xlink:href="#DejaVuSans-44" transform="translate(733.359375 0)"/>
     <use xlink:href="#DejaVuSans-51" transform="translate(794.640625 0)"/>
     <use xlink:href="#DejaVuSans-4a" transform="translate(858.015625 0)"/>
     <use xlink:href="#DejaVuSans-48" transform="translate(921.5 0)"/>
     <use xlink:href="#DejaVuSans-3" transform="translate(983.03125 0)"/>
     <use xlink:href="#DejaVuSans-35" transform="translate(1014.8125 0)"/>
     <use xlink:href="#DejaVuSans-44" transform="translate(1082.09375 0)"/>
     <use xlink:href="#DejaVuSans-57" transform="translate(1143.375 0)"/>
     <use xlink:href="#DejaVuSans-48" transform="translate(1182.578125 0)"/>
    </g>
   </g>
  </g>
 </g>
 <defs>
  <clipPath id="p7ab060e924">
   <rect x="54.48" y="25.917188" width="572.424583" height="270.282812"/>
  </clipPath>
 </defs>
</svg>
