<?xml version="1.0" encoding="utf-8" standalone="no"?>
<!DOCTYPE svg PUBLIC "-//W3C//DTD SVG 1.1//EN"
  "http://www.w3.org/Graphics/SVG/1.1/DTD/svg11.dtd">
<svg xmlns:xlink="http://www.w3.org/1999/xlink" width="648pt" height="324pt" viewBox="0 0 648 324" xmlns="http://www.w3.org/2000/svg" version="1.1">
 <metadata>
  <rdf:RDF xmlns:dc="http://purl.org/dc/elements/1.1/" xmlns:cc="http://creativecommons.org/ns#" xmlns:rdf="http://www.w3.org/1999/02/22-rdf-syntax-ns#">
   <cc:Work>
    <dc:type rdf:resource="http://purl.org/dc/dcmitype/StillImage"/>
    <dc:date>2026-06-26T00:17:38.086849</dc:date>
    <dc:format>image/svg+xml</dc:format>
    <dc:creator>
     <cc:Agent>
      <dc:title>Matplotlib v3.11.0, https://matplotlib.org/</dc:title>
     </cc:Agent>
    </dc:creator>
   </cc:Work>
  </rdf:RDF>
 </metadata>
 <defs>
  <style type="text/css">*{stroke-linejoin: round; stroke-linecap: butt}</style>
 </defs>
 <g id="figure_1">
  <g id="patch_1">
   <path d="M 0 324 
L 648 324 
L 648 0 
L 0 0 
z
" style="fill: #ffffff"/>
  </g>
  <g id="axes_1">
   <g id="patch_2">
    <path d="M 54.48 296.2 
L 637.2 296.2 
L 637.2 25.917188 
L 54.48 25.917188 
z
" style="fill: #ffffff"/>
   </g>
   <g id="matplotlib.axis_1">
    <g id="xtick_1">
     <g id="line2d_1">
      <defs>
       <path id="m4b35c97528" d="M 0 0 
L 0 3.5 
" style="stroke: #000000; stroke-width: 0.8"/>
      </defs>
      <g>
       <use xlink:href="#m4b35c97528" x="138.441026" y="296.2" style="stroke: #000000; stroke-width: 0.8"/>
      </g>
     </g>
     <g id="text_1">
      <!-- 2022 -->
      <g transform="translate(125.716026 310.797656) scale(0.1 -0.1)">
       <defs>
        <path id="DejaVuSans-15" d="M 1228 531 
L 3431 531 
L 3431 0 
L 469 0 
L 469 531 
Q 828 903 1448 1529 
Q 2069 2156 2228 2338 
Q 2531 2678 2651 2914 
Q 2772 3150 2772 3378 
Q 2772 3750 2511 3984 
Q 2250 4219 1831 4219 
Q 1534 4219 1204 4116 
Q 875 4013 500 3803 
L 500 4441 
Q 881 4594 1212 4672 
Q 1544 4750 1819 4750 
Q 2544 4750 2975 4387 
Q 3406 4025 3406 3419 
Q 3406 3131 3298 2873 
Q 3191 2616 2906 2266 
Q 2828 2175 2409 1742 
Q 1991 1309 1228 531 
z
" transform="scale(0.015625)"/>
        <path id="DejaVuSans-13" d="M 2034 4250 
Q 1547 4250 1301 3770 
Q 1056 3291 1056 2328 
Q 1056 1369 1301 889 
Q 1547 409 2034 409 
Q 2525 409 2770 889 
Q 3016 1369 3016 2328 
Q 3016 3291 2770 3770 
Q 2525 4250 2034 4250 
z
M 2034 4750 
Q 2819 4750 3233 4129 
Q 3647 3509 3647 2328 
Q 3647 1150 3233 529 
Q 2819 -91 2034 -91 
Q 1250 -91 836 529 
Q 422 1150 422 2328 
Q 422 3509 836 4129 
Q 1250 4750 2034 4750 
z
" transform="scale(0.015625)"/>
       </defs>
       <use xlink:href="#DejaVuSans-15"/>
       <use xlink:href="#DejaVuSans-13" transform="translate(63.625 0)"/>
       <use xlink:href="#DejaVuSans-15" transform="translate(127.25 0)"/>
       <use xlink:href="#DejaVuSans-15" transform="translate(190.875 0)"/>
      </g>
     </g>
    </g>
    <g id="xtick_2">
     <g id="line2d_2">
      <g>
       <use xlink:href="#m4b35c97528" x="244.390117" y="296.2" style="stroke: #000000; stroke-width: 0.8"/>
      </g>
     </g>
     <g id="text_2">
      <!-- 2023 -->
      <g transform="translate(231.665117 310.797656) scale(0.1 -0.1)">
       <defs>
        <path id="DejaVuSans-16" d="M 2597 2516 
Q 3050 2419 3304 2112 
Q 3559 1806 3559 1356 
Q 3559 666 3084 287 
Q 2609 -91 1734 -91 
Q 1441 -91 1130 -33 
Q 819 25 488 141 
L 488 750 
Q 750 597 1062 519 
Q 1375 441 1716 441 
Q 2309 441 2620 675 
Q 2931 909 2931 1356 
Q 2931 1769 2642 2001 
Q 2353 2234 1838 2234 
L 1294 2234 
L 1294 2753 
L 1863 2753 
Q 2328 2753 2575 2939 
Q 2822 3125 2822 3475 
Q 2822 3834 2567 4026 
Q 2313 4219 1838 4219 
Q 1578 4219 1281 4162 
Q 984 4106 628 3988 
L 628 4550 
Q 988 4650 1302 4700 
Q 1616 4750 1894 4750 
Q 2613 4750 3031 4423 
Q 3450 4097 3450 3541 
Q 3450 3153 3228 2886 
Q 3006 2619 2597 2516 
z
" transform="scale(0.015625)"/>
       </defs>
       <use xlink:href="#DejaVuSans-15"/>
       <use xlink:href="#DejaVuSans-13" transform="translate(63.625 0)"/>
       <use xlink:href="#DejaVuSans-15" transform="translate(127.25 0)"/>
       <use xlink:href="#DejaVuSans-16" transform="translate(190.875 0)"/>
      </g>
     </g>
    </g>
    <g id="xtick_3">
     <g id="line2d_3">
      <g>
       <use xlink:href="#m4b35c97528" x="350.339208" y="296.2" style="stroke: #000000; stroke-width: 0.8"/>
      </g>
     </g>
     <g id="text_3">
      <!-- 2024 -->
      <g transform="translate(337.614208 310.797656) scale(0.1 -0.1)">
       <defs>
        <path id="DejaVuSans-17" d="M 2419 4116 
L 825 1625 
L 2419 1625 
L 2419 4116 
z
M 2253 4666 
L 3047 4666 
L 3047 1625 
L 3713 1625 
L 3713 1100 
L 3047 1100 
L 3047 0 
L 2419 0 
L 2419 1100 
L 313 1100 
L 313 1709 
L 2253 4666 
z
" transform="scale(0.015625)"/>
       </defs>
       <use xlink:href="#DejaVuSans-15"/>
       <use xlink:href="#DejaVuSans-13" transform="translate(63.625 0)"/>
       <use xlink:href="#DejaVuSans-15" transform="translate(127.25 0)"/>
       <use xlink:href="#DejaVuSans-17" transform="translate(190.875 0)"/>
      </g>
     </g>
    </g>
    <g id="xtick_4">
     <g id="line2d_4">
      <g>
       <use xlink:href="#m4b35c97528" x="456.57857" y="296.2" style="stroke: #000000; stroke-width: 0.8"/>
      </g>
     </g>
     <g id="text_4">
      <!-- 2025 -->
      <g transform="translate(443.85357 310.797656) scale(0.1 -0.1)">
       <defs>
        <path id="DejaVuSans-18" d="M 691 4666 
L 3169 4666 
L 3169 4134 
L 1269 4134 
L 1269 2991 
Q 1406 3038 1543 3061 
Q 1681 3084 1819 3084 
Q 2600 3084 3056 2656 
Q 3513 2228 3513 1497 
Q 3513 744 3044 326 
Q 2575 -91 1722 -91 
Q 1428 -91 1123 -41 
Q 819 9 494 109 
L 494 744 
Q 775 591 1075 516 
Q 1375 441 1709 441 
Q 2250 441 2565 725 
Q 2881 1009 2881 1497 
Q 2881 1984 2565 2268 
Q 2250 2553 1709 2553 
Q 1456 2553 1204 2497 
Q 953 2441 691 2322 
L 691 4666 
z
" transform="scale(0.015625)"/>
       </defs>
       <use xlink:href="#DejaVuSans-15"/>
       <use xlink:href="#DejaVuSans-13" transform="translate(63.625 0)"/>
       <use xlink:href="#DejaVuSans-15" transform="translate(127.25 0)"/>
       <use xlink:href="#DejaVuSans-18" transform="translate(190.875 0)"/>
      </g>
     </g>
    </g>
    <g id="xtick_5">
     <g id="line2d_5">
      <g>
       <use xlink:href="#m4b35c97528" x="562.527661" y="296.2" style="stroke: #000000; stroke-width: 0.8"/>
      </g>
     </g>
     <g id="text_5">
      <!-- 2026 -->
      <g transform="translate(549.802661 310.797656) scale(0.1 -0.1)">
       <defs>
        <path id="DejaVuSans-19" d="M 2113 2584 
Q 1688 2584 1439 2293 
Q 1191 2003 1191 1497 
Q 1191 994 1439 701 
Q 1688 409 2113 409 
Q 2538 409 2786 701 
Q 3034 994 3034 1497 
Q 3034 2003 2786 2293 
Q 2538 2584 2113 2584 
z
M 3366 4563 
L 3366 3988 
Q 3128 4100 2886 4159 
Q 2644 4219 2406 4219 
Q 1781 4219 1451 3797 
Q 1122 3375 1075 2522 
Q 1259 2794 1537 2939 
Q 1816 3084 2150 3084 
Q 2853 3084 3261 2657 
Q 3669 2231 3669 1497 
Q 3669 778 3244 343 
Q 2819 -91 2113 -91 
Q 1303 -91 875 529 
Q 447 1150 447 2328 
Q 447 3434 972 4092 
Q 1497 4750 2381 4750 
Q 2619 4750 2861 4703 
Q 3103 4656 3366 4563 
z
" transform="scale(0.015625)"/>
       </defs>
       <use xlink:href="#DejaVuSans-15"/>
       <use xlink:href="#DejaVuSans-13" transform="translate(63.625 0)"/>
       <use xlink:href="#DejaVuSans-15" transform="translate(127.25 0)"/>
       <use xlink:href="#DejaVuSans-19" transform="translate(190.875 0)"/>
      </g>
     </g>
    </g>
   </g>
   <g id="matplotlib.axis_2">
    <g id="ytick_1">
     <g id="line2d_6">
      <defs>
       <path id="m48d57afa4a" d="M 0 0 
L -3.5 0 
" style="stroke: #000000; stroke-width: 0.8"/>
      </defs>
      <g>
       <use xlink:href="#m48d57afa4a" x="54.48" y="282.979353" style="stroke: #000000; stroke-width: 0.8"/>
      </g>
     </g>
     <g id="text_6">
      <!-- 0.68 -->
      <g transform="translate(25.214375 286.778181) scale(0.1 -0.1)">
       <defs>
        <path id="DejaVuSans-11" d="M 684 794 
L 1344 794 
L 1344 0 
L 684 0 
L 684 794 
z
" transform="scale(0.015625)"/>
        <path id="DejaVuSans-1b" d="M 2034 2216 
Q 1584 2216 1326 1975 
Q 1069 1734 1069 1313 
Q 1069 891 1326 650 
Q 1584 409 2034 409 
Q 2484 409 2743 651 
Q 3003 894 3003 1313 
Q 3003 1734 2745 1975 
Q 2488 2216 2034 2216 
z
M 1403 2484 
Q 997 2584 770 2862 
Q 544 3141 544 3541 
Q 544 4100 942 4425 
Q 1341 4750 2034 4750 
Q 2731 4750 3128 4425 
Q 3525 4100 3525 3541 
Q 3525 3141 3298 2862 
Q 3072 2584 2669 2484 
Q 3125 2378 3379 2068 
Q 3634 1759 3634 1313 
Q 3634 634 3220 271 
Q 2806 -91 2034 -91 
Q 1263 -91 848 271 
Q 434 634 434 1313 
Q 434 1759 690 2068 
Q 947 2378 1403 2484 
z
M 1172 3481 
Q 1172 3119 1398 2916 
Q 1625 2713 2034 2713 
Q 2441 2713 2670 2916 
Q 2900 3119 2900 3481 
Q 2900 3844 2670 4047 
Q 2441 4250 2034 4250 
Q 1625 4250 1398 4047 
Q 1172 3844 1172 3481 
z
" transform="scale(0.015625)"/>
       </defs>
       <use xlink:href="#DejaVuSans-13"/>
       <use xlink:href="#DejaVuSans-11" transform="translate(63.625 0)"/>
       <use xlink:href="#DejaVuSans-19" transform="translate(95.40625 0)"/>
       <use xlink:href="#DejaVuSans-1b" transform="translate(159.03125 0)"/>
      </g>
     </g>
    </g>
    <g id="ytick_2">
     <g id="line2d_7">
      <g>
       <use xlink:href="#m48d57afa4a" x="54.48" y="246.571838" style="stroke: #000000; stroke-width: 0.8"/>
      </g>
     </g>
     <g id="text_7">
      <!-- 0.70 -->
      <g transform="translate(25.214375 250.370666) scale(0.1 -0.1)">
       <defs>
        <path id="DejaVuSans-1a" d="M 525 4666 
L 3525 4666 
L 3525 4397 
L 1831 0 
L 1172 0 
L 2766 4134 
L 525 4134 
L 525 4666 
z
" transform="scale(0.015625)"/>
       </defs>
       <use xlink:href="#DejaVuSans-13"/>
       <use xlink:href="#DejaVuSans-11" transform="translate(63.625 0)"/>
       <use xlink:href="#DejaVuSans-1a" transform="translate(95.40625 0)"/>
       <use xlink:href="#DejaVuSans-13" transform="translate(159.03125 0)"/>
      </g>
     </g>
    </g>
    <g id="ytick_3">
     <g id="line2d_8">
      <g>
       <use xlink:href="#m48d57afa4a" x="54.48" y="210.164323" style="stroke: #000000; stroke-width: 0.8"/>
      </g>
     </g>
     <g id="text_8">
      <!-- 0.72 -->
      <g transform="translate(25.214375 213.963151) scale(0.1 -0.1)">
       <use xlink:href="#DejaVuSans-13"/>
       <use xlink:href="#DejaVuSans-11" transform="translate(63.625 0)"/>
       <use xlink:href="#DejaVuSans-1a" transform="translate(95.40625 0)"/>
       <use xlink:href="#DejaVuSans-15" transform="translate(159.03125 0)"/>
      </g>
     </g>
    </g>
    <g id="ytick_4">
     <g id="line2d_9">
      <g>
       <use xlink:href="#m48d57afa4a" x="54.48" y="173.756808" style="stroke: #000000; stroke-width: 0.8"/>
      </g>
     </g>
     <g id="text_9">
      <!-- 0.74 -->
      <g transform="translate(25.214375 177.555636) scale(0.1 -0.1)">
       <use xlink:href="#DejaVuSans-13"/>
       <use xlink:href="#DejaVuSans-11" transform="translate(63.625 0)"/>
       <use xlink:href="#DejaVuSans-1a" transform="translate(95.40625 0)"/>
       <use xlink:href="#DejaVuSans-17" transform="translate(159.03125 0)"/>
      </g>
     </g>
    </g>
    <g id="ytick_5">
     <g id="line2d_10">
      <g>
       <use xlink:href="#m48d57afa4a" x="54.48" y="137.349293" style="stroke: #000000; stroke-width: 0.8"/>
      </g>
     </g>
     <g id="text_10">
      <!-- 0.76 -->
      <g transform="translate(25.214375 141.148121) scale(0.1 -0.1)">
       <use xlink:href="#DejaVuSans-13"/>
       <use xlink:href="#DejaVuSans-11" transform="translate(63.625 0)"/>
       <use xlink:href="#DejaVuSans-1a" transform="translate(95.40625 0)"/>
       <use xlink:href="#DejaVuSans-19" transform="translate(159.03125 0)"/>
      </g>
     </g>
    </g>
    <g id="ytick_6">
     <g id="line2d_11">
      <g>
       <use xlink:href="#m48d57afa4a" x="54.48" y="100.941778" style="stroke: #000000; stroke-width: 0.8"/>
      </g>
     </g>
     <g id="text_11">
      <!-- 0.78 -->
      <g transform="translate(25.214375 104.740606) scale(0.1 -0.1)">
       <use xlink:href="#DejaVuSans-13"/>
       <use xlink:href="#DejaVuSans-11" transform="translate(63.625 0)"/>
       <use xlink:href="#DejaVuSans-1a" transform="translate(95.40625 0)"/>
       <use xlink:href="#DejaVuSans-1b" transform="translate(159.03125 0)"/>
      </g>
     </g>
    </g>
    <g id="ytick_7">
     <g id="line2d_12">
      <g>
       <use xlink:href="#m48d57afa4a" x="54.48" y="64.534263" style="stroke: #000000; stroke-width: 0.8"/>
      </g>
     </g>
     <g id="text_12">
      <!-- 0.80 -->
      <g transform="translate(25.214375 68.333091) scale(0.1 -0.1)">
       <use xlink:href="#DejaVuSans-13"/>
       <use xlink:href="#DejaVuSans-11" transform="translate(63.625 0)"/>
       <use xlink:href="#DejaVuSans-1b" transform="translate(95.40625 0)"/>
       <use xlink:href="#DejaVuSans-13" transform="translate(159.03125 0)"/>
      </g>
     </g>
    </g>
    <g id="ytick_8">
     <g id="line2d_13">
      <g>
       <use xlink:href="#m48d57afa4a" x="54.48" y="28.126748" style="stroke: #000000; stroke-width: 0.8"/>
      </g>
     </g>
     <g id="text_13">
      <!-- 0.82 -->
      <g transform="translate(25.214375 31.925576) scale(0.1 -0.1)">
       <use xlink:href="#DejaVuSans-13"/>
       <use xlink:href="#DejaVuSans-11" transform="translate(63.625 0)"/>
       <use xlink:href="#DejaVuSans-1b" transform="translate(95.40625 0)"/>
       <use xlink:href="#DejaVuSans-15" transform="translate(159.03125 0)"/>
      </g>
     </g>
    </g>
    <g id="text_14">
     <!-- CAD/USD -->
     <g transform="translate(18.812031 184.188281) rotate(-90) scale(0.1 -0.1)">
      <defs>
       <path id="DejaVuSans-26" d="M 4122 4306 
L 4122 3641 
Q 3803 3938 3442 4084 
Q 3081 4231 2675 4231 
Q 1875 4231 1450 3742 
Q 1025 3253 1025 2328 
Q 1025 1406 1450 917 
Q 1875 428 2675 428 
Q 3081 428 3442 575 
Q 3803 722 4122 1019 
L 4122 359 
Q 3791 134 3420 21 
Q 3050 -91 2638 -91 
Q 1578 -91 968 557 
Q 359 1206 359 2328 
Q 359 3453 968 4101 
Q 1578 4750 2638 4750 
Q 3056 4750 3426 4639 
Q 3797 4528 4122 4306 
z
" transform="scale(0.015625)"/>
       <path id="DejaVuSans-24" d="M 2188 4044 
L 1331 1722 
L 3047 1722 
L 2188 4044 
z
M 1831 4666 
L 2547 4666 
L 4325 0 
L 3669 0 
L 3244 1197 
L 1141 1197 
L 716 0 
L 50 0 
L 1831 4666 
z
" transform="scale(0.015625)"/>
       <path id="DejaVuSans-27" d="M 1259 4147 
L 1259 519 
L 2022 519 
Q 2988 519 3436 956 
Q 3884 1394 3884 2338 
Q 3884 3275 3436 3711 
Q 2988 4147 2022 4147 
L 1259 4147 
z
M 628 4666 
L 1925 4666 
Q 3281 4666 3915 4102 
Q 4550 3538 4550 2338 
Q 4550 1131 3912 565 
Q 3275 0 1925 0 
L 628 0 
L 628 4666 
z
" transform="scale(0.015625)"/>
       <path id="DejaVuSans-12" d="M 1625 4666 
L 2156 4666 
L 531 -594 
L 0 -594 
L 1625 4666 
z
" transform="scale(0.015625)"/>
       <path id="DejaVuSans-38" d="M 556 4666 
L 1191 4666 
L 1191 1831 
Q 1191 1081 1462 751 
Q 1734 422 2344 422 
Q 2950 422 3222 751 
Q 3494 1081 3494 1831 
L 3494 4666 
L 4128 4666 
L 4128 1753 
Q 4128 841 3676 375 
Q 3225 -91 2344 -91 
Q 1459 -91 1007 375 
Q 556 841 556 1753 
L 556 4666 
z
" transform="scale(0.015625)"/>
       <path id="DejaVuSans-36" d="M 3425 4513 
L 3425 3897 
Q 3066 4069 2747 4153 
Q 2428 4238 2131 4238 
Q 1616 4238 1336 4038 
Q 1056 3838 1056 3469 
Q 1056 3159 1242 3001 
Q 1428 2844 1947 2747 
L 2328 2669 
Q 3034 2534 3370 2195 
Q 3706 1856 3706 1288 
Q 3706 609 3251 259 
Q 2797 -91 1919 -91 
Q 1588 -91 1214 -16 
Q 841 59 441 206 
L 441 856 
Q 825 641 1194 531 
Q 1563 422 1919 422 
Q 2459 422 2753 634 
Q 3047 847 3047 1241 
Q 3047 1584 2836 1778 
Q 2625 1972 2144 2069 
L 1759 2144 
Q 1053 2284 737 2584 
Q 422 2884 422 3419 
Q 422 4038 858 4394 
Q 1294 4750 2059 4750 
Q 2388 4750 2728 4690 
Q 3069 4631 3425 4513 
z
" transform="scale(0.015625)"/>
      </defs>
      <use xlink:href="#DejaVuSans-26"/>
      <use xlink:href="#DejaVuSans-24" transform="translate(69.828125 0)"/>
      <use xlink:href="#DejaVuSans-27" transform="translate(138.234375 0)"/>
      <use xlink:href="#DejaVuSans-12" transform="translate(215.234375 0)"/>
      <use xlink:href="#DejaVuSans-38" transform="translate(248.921875 0)"/>
      <use xlink:href="#DejaVuSans-36" transform="translate(322.109375 0)"/>
      <use xlink:href="#DejaVuSans-27" transform="translate(385.59375 0)"/>
     </g>
    </g>
   </g>
   <g id="line2d_14">
    <path d="M 80.967273 38.20277 
L 81.257544 46.273212 
L 82.128359 58.673894 
L 82.708902 42.056791 
L 82.999173 41.251483 
L 83.289445 43.532864 
L 84.160259 39.879356 
L 84.450531 44.934287 
L 84.740802 52.339823 
L 85.321345 57.592663 
L 86.482431 45.639881 
L 86.772702 59.636314 
L 87.062974 62.399122 
L 87.353245 67.78911 
L 88.22406 58.333195 
L 88.514331 59.296049 
L 88.804603 66.976749 
L 89.094874 66.337776 
L 89.385146 74.82986 
L 90.25596 78.027439 
L 90.546232 92.641145 
L 90.836503 84.652406 
L 91.126775 72.517447 
L 91.417046 71.952581 
L 92.287861 72.355995 
L 92.578132 69.179466 
L 92.868403 75.082455 
L 93.448946 58.603476 
L 94.610032 64.662492 
L 94.900304 68.403562 
L 95.190575 69.75822 
L 95.480847 64.68582 
L 96.351661 72.747799 
L 96.641933 73.08177 
L 96.932204 66.744445 
L 97.222476 65.325987 
L 97.512747 66.860543 
L 98.383562 66.395933 
L 99.254376 83.291346 
L 99.544648 102.135579 
L 100.415462 101.549229 
L 100.705733 81.916398 
L 100.996005 75.633432 
L 101.286276 74.795356 
L 101.576548 85.761848 
L 102.447362 77.352443 
L 102.737634 77.112 
L 103.318177 78.576029 
L 103.608448 70.544323 
L 104.769534 68.519443 
L 105.059806 81.39298 
L 105.350077 86.790672 
L 105.640349 83.234599 
L 106.511163 85.150759 
L 106.801435 81.575048 
L 107.091706 86.338649 
L 107.381978 78.164587 
L 107.672249 85.377096 
L 109.123606 100.973622 
L 109.413878 97.0979 
L 109.704149 83.166351 
L 110.574964 81.734439 
L 110.865235 79.090116 
L 111.155507 84.867459 
L 111.445778 93.514593 
L 111.73605 85.659963 
L 112.606864 78.953185 
L 112.897136 74.921762 
L 113.187407 74.10582 
L 113.477679 74.508149 
L 113.76795 69.989331 
L 114.929036 62.24711 
L 115.219308 61.744416 
L 115.509579 57.133805 
L 115.799851 49.77666 
L 116.670665 49.669677 
L 116.960936 49.491298 
L 117.251208 47.323628 
L 117.541479 43.784699 
L 117.831751 49.265286 
L 118.702565 49.384314 
L 118.992837 50.299536 
L 119.283108 51.771051 
L 119.863651 46.380738 
L 120.734466 50.762517 
L 121.024737 49.693439 
L 121.315009 53.736472 
L 121.60528 50.156854 
L 121.895552 58.803121 
L 122.766366 58.779576 
L 123.346909 57.039624 
L 123.637181 62.959757 
L 123.927452 74.772353 
L 124.798267 69.792832 
L 125.088538 66.16352 
L 125.669081 77.375228 
L 125.959352 76.493426 
L 126.830167 82.200676 
L 127.120438 87.614859 
L 127.41071 84.743006 
L 127.991253 83.359486 
L 129.152339 91.744152 
L 129.732882 99.876332 
L 130.023153 100.63021 
L 130.893968 100.552631 
L 131.184239 94.431768 
L 131.474511 81.324732 
L 131.764782 82.052895 
L 132.055054 88.41561 
L 132.925868 89.710483 
L 133.506411 106.082695 
L 133.796682 102.71021 
L 134.086954 96.407171 
L 135.24804 113.618001 
L 135.538311 112.202365 
L 135.828583 104.332327 
L 137.570212 100.109179 
L 138.150755 92.461899 
L 139.311841 93.234764 
L 139.602112 87.964564 
L 139.892384 94.219319 
L 141.053469 81.449944 
L 141.343741 83.506941 
L 141.924284 64.720649 
L 142.214555 65.44241 
L 143.375641 66.361104 
L 143.665913 64.24302 
L 143.956184 65.803074 
L 144.246456 64.569288 
L 145.11727 71.606566 
L 145.407542 79.010149 
L 145.697813 77.913077 
L 145.988085 82.768905 
L 146.278356 92.607509 
L 147.149171 94.107453 
L 147.729714 86.293403 
L 148.019985 85.931546 
L 148.310257 85.037483 
L 149.181071 92.562698 
L 149.471342 83.575081 
L 149.761614 88.077298 
L 150.051885 84.765574 
L 150.342157 91.070675 
L 151.212971 90.115524 
L 151.503243 90.688853 
L 151.793514 90.137984 
L 152.083786 86.94876 
L 152.374057 88.009701 
L 153.825415 95.001516 
L 154.115686 91.2841 
L 154.405958 99.720956 
L 155.276772 93.671163 
L 155.567044 83.677182 
L 155.857315 90.115524 
L 156.147587 81.35891 
L 156.437858 84.108264 
L 157.308672 89.05773 
L 157.889215 108.486576 
L 158.179487 98.499648 
L 158.469758 93.749502 
L 159.340573 91.452388 
L 159.630844 101.006823 
L 159.921116 95.191288 
L 160.501659 79.706412 
L 161.372473 76.756871 
L 161.662745 74.714955 
L 161.953016 74.117322 
L 162.243288 71.398891 
L 162.533559 66.90709 
L 163.404374 63.029849 
L 163.694645 66.651566 
L 164.275188 62.469215 
L 164.56546 64.359552 
L 165.436274 67.615071 
L 165.726545 62.924819 
L 166.016817 62.71454 
L 166.307088 71.92947 
L 166.59736 74.565547 
L 167.468174 73.335016 
L 167.758446 80.675559 
L 168.048717 80.025844 
L 168.338989 72.206261 
L 169.500075 77.810108 
L 169.790346 76.115185 
L 170.080618 76.51632 
L 170.370889 62.924819 
L 170.661161 74.841253 
L 171.531975 89.834285 
L 171.822247 91.474848 
L 172.112518 99.343692 
L 172.40279 100.220069 
L 172.693061 99.177248 
L 173.854147 106.841022 
L 174.144418 102.411827 
L 174.43469 91.65442 
L 174.724961 101.659794 
L 175.595776 111.679055 
L 175.886047 121.450062 
L 176.176319 123.898538 
L 176.46659 119.942415 
L 176.756862 123.029647 
L 177.627676 110.45612 
L 178.208219 99.565689 
L 178.498491 107.960337 
L 178.788762 100.840706 
L 179.949848 97.231575 
L 180.24012 101.150807 
L 180.530391 100.907109 
L 180.820663 95.660129 
L 181.981748 82.393919 
L 182.27202 80.550239 
L 182.562291 83.54112 
L 182.852563 72.621067 
L 183.723377 74.358741 
L 184.013649 73.795285 
L 184.30392 68.785817 
L 184.594192 70.567434 
L 184.884463 87.772839 
L 185.755278 98.399608 
L 186.045549 108.596164 
L 186.335821 114.574562 
L 186.626092 106.77516 
L 186.916364 115.55163 
L 188.07745 118.582658 
L 188.367721 113.171837 
L 188.948264 119.154902 
L 190.10935 106.291672 
L 190.399621 106.731108 
L 190.689893 107.8616 
L 192.14125 105.004394 
L 192.431522 124.284265 
L 192.721793 124.198657 
L 193.012065 116.873955 
L 193.882879 114.813594 
L 194.463422 123.909171 
L 194.753694 120.642693 
L 195.043965 132.083125 
L 196.205051 118.528732 
L 196.495323 106.500323 
L 196.785594 107.828832 
L 197.075866 107.280133 
L 197.94668 112.376729 
L 198.236951 104.277099 
L 198.527223 106.807928 
L 198.817494 100.563698 
L 199.107766 99.443623 
L 200.268852 103.438915 
L 200.559123 108.366029 
L 200.849395 104.596749 
L 201.139666 106.423394 
L 202.010481 114.54212 
L 202.300752 104.971301 
L 202.591024 108.146745 
L 202.881295 95.771669 
L 203.171567 94.53235 
L 204.042381 96.385036 
L 204.332653 110.084497 
L 204.622924 103.692812 
L 204.913196 111.635329 
L 205.203467 114.824444 
L 206.074281 120.578134 
L 206.364553 125.707823 
L 206.654824 116.007125 
L 206.945096 117.339323 
L 207.235367 113.791931 
L 208.106182 127.117817 
L 208.396453 120.685877 
L 208.686725 130.120308 
L 208.976996 135.591781 
L 209.267268 135.992157 
L 210.428354 134.304395 
L 210.718625 136.918554 
L 211.008897 134.399444 
L 211.299168 129.195321 
L 212.169983 123.018905 
L 212.460254 118.37737 
L 212.750526 137.843867 
L 213.040797 137.623172 
L 213.331068 146.655274 
L 214.201883 147.816038 
L 214.492154 146.281699 
L 215.072697 170.277538 
L 215.362969 169.515631 
L 216.233783 180.431018 
L 216.524055 193.120752 
L 216.814326 194.272076 
L 217.104598 185.063547 
L 217.394869 189.615676 
L 218.265684 200.506975 
L 218.846227 172.947577 
L 219.136498 182.106628 
L 219.42677 196.058033 
L 220.587856 199.327983 
L 220.878127 200.909086 
L 221.168399 203.220957 
L 221.45867 197.896939 
L 222.329484 206.958446 
L 222.619756 193.3434 
L 222.910027 194.629701 
L 223.200299 199.116836 
L 223.49057 199.548569 
L 224.361385 186.854821 
L 224.651656 191.627644 
L 225.232199 177.582493 
L 225.522471 178.820185 
L 226.393285 183.120044 
L 226.683557 183.375568 
L 226.973828 184.092447 
L 227.2641 193.566048 
L 227.554371 196.193119 
L 228.425186 173.655775 
L 228.715457 171.758819 
L 229.005729 163.904949 
L 229.296 175.050145 
L 229.586271 155.365341 
L 230.457086 147.380942 
L 230.747357 154.668535 
L 231.037629 149.398769 
L 231.3279 155.77483 
L 231.618172 154.330007 
L 232.488986 159.999606 
L 232.779258 167.023212 
L 233.069529 158.533081 
L 233.650072 155.887456 
L 234.520887 163.318057 
L 235.10143 180.707266 
L 235.391701 163.560995 
L 235.681973 165.934929 
L 236.552787 166.791667 
L 236.843059 181.141278 
L 237.13333 187.167635 
L 237.423601 187.128573 
L 237.713873 182.096971 
L 238.584687 187.743893 
L 238.874959 185.298781 
L 239.16523 177.919394 
L 239.455502 177.404006 
L 239.745773 188.026977 
L 240.616588 190.986826 
L 241.197131 182.264282 
L 241.487402 183.571959 
L 241.777674 185.935368 
L 243.229031 174.900845 
L 243.519303 182.264282 
L 243.809574 177.582493 
L 244.97066 178.275934 
L 245.260932 189.576615 
L 245.551203 170.918465 
L 245.841474 178.365015 
L 247.00256 161.706464 
L 247.292832 165.672677 
L 247.583103 165.380154 
L 247.873375 159.90803 
L 249.034461 162.122356 
L 249.324732 161.330936 
L 249.615004 171.988737 
L 250.77609 159.399151 
L 251.066361 159.307466 
L 251.646904 160.335205 
L 251.937176 153.786082 
L 252.80799 152.460502 
L 253.098262 160.701185 
L 253.388533 152.748469 
L 253.678804 149.553711 
L 253.969076 153.837512 
L 254.83989 162.315057 
L 255.130162 166.489378 
L 255.420433 161.341135 
L 255.710705 166.892249 
L 256.000976 167.26474 
L 257.162062 155.52918 
L 257.452334 156.296729 
L 257.742605 161.391806 
L 258.032877 169.706162 
L 259.193963 167.697449 
L 259.484234 175.885291 
L 259.774506 176.927895 
L 260.064777 176.709587 
L 260.935592 181.702888 
L 261.225863 179.759385 
L 261.516134 186.75706 
L 261.806406 181.298932 
L 262.096677 181.811283 
L 262.967492 182.618436 
L 263.257763 183.915696 
L 263.548035 196.732595 
L 263.838306 201.6647 
L 264.128578 204.678584 
L 265.289664 195.4987 
L 265.579935 191.016014 
L 265.870207 198.358293 
L 266.160478 193.943312 
L 267.031293 193.043281 
L 267.321564 189.27476 
L 267.611836 192.946388 
L 267.902107 193.711224 
L 268.192379 193.740195 
L 269.063193 194.745691 
L 269.643736 181.66361 
L 270.224279 174.592263 
L 271.095093 172.588215 
L 271.385365 165.753404 
L 271.675636 166.186981 
L 271.965908 167.828195 
L 273.126994 172.807716 
L 273.417265 172.747931 
L 273.707537 168.652383 
L 273.997808 166.388579 
L 274.28808 156.235317 
L 275.158894 158.787955 
L 275.449166 161.533945 
L 275.739437 161.422295 
L 276.029709 169.204445 
L 276.31998 170.487925 
L 277.190795 176.233043 
L 277.481066 175.766047 
L 277.771337 184.131725 
L 278.061609 185.337951 
L 278.35188 182.293686 
L 279.222695 178.2857 
L 279.512966 177.582493 
L 279.803238 184.239794 
L 280.093509 185.455568 
L 280.383781 174.701851 
L 281.254595 160.314915 
L 281.544867 159.541615 
L 281.835138 159.806254 
L 282.12541 159.511126 
L 282.415681 171.708908 
L 283.286496 177.780619 
L 283.576767 168.903458 
L 283.867039 170.127262 
L 284.15731 169.074025 
L 284.447582 172.178508 
L 285.608667 172.697911 
L 285.898939 172.348424 
L 286.18921 181.190538 
L 286.479482 186.561646 
L 287.640568 182.42172 
L 287.930839 182.293686 
L 288.221111 178.968617 
L 288.511382 166.690868 
L 289.382197 165.208394 
L 289.672468 167.194321 
L 289.96274 162.203516 
L 290.253011 159.460238 
L 291.414097 155.907963 
L 291.704369 158.584078 
L 291.99464 153.642424 
L 292.284912 154.842791 
L 292.575183 144.04654 
L 293.736269 142.754163 
L 294.02654 144.431617 
L 294.316812 137.675687 
L 294.607083 136.08688 
L 295.477898 138.064453 
L 295.768169 136.518721 
L 296.348712 147.153086 
L 296.638984 146.966461 
L 298.090341 144.213201 
L 298.670884 158.828643 
L 299.541699 149.863595 
L 299.83197 149.450308 
L 300.412513 139.963036 
L 300.702785 132.559669 
L 301.573599 144.369228 
L 301.86387 141.919017 
L 302.154142 138.221999 
L 302.444413 137.885966 
L 302.734685 139.061594 
L 303.605499 144.265174 
L 303.895771 139.103476 
L 304.186042 140.413214 
L 304.766585 144.577445 
L 305.6374 147.069972 
L 305.927671 140.926107 
L 306.508214 156.583068 
L 306.798486 157.318826 
L 307.959572 159.41955 
L 308.249843 164.87529 
L 308.540115 164.248686 
L 308.830386 166.872176 
L 309.7012 166.368398 
L 309.991472 168.280652 
L 310.281743 171.418771 
L 310.572015 176.05423 
L 310.862286 176.908039 
L 311.733101 176.550739 
L 312.023372 176.689731 
L 312.313644 177.394023 
L 312.603915 174.771509 
L 312.894187 181.022901 
L 313.765001 181.73251 
L 314.055273 182.431594 
L 314.345544 178.265952 
L 314.926087 173.376597 
L 316.087173 182.195274 
L 316.377445 186.140981 
L 316.667716 186.150637 
L 316.957988 190.491185 
L 317.828802 184.975334 
L 318.119073 180.223669 
L 318.409345 177.483321 
L 318.699616 177.63197 
L 318.989888 173.885041 
L 319.860702 174.592263 
L 320.441245 166.660704 
L 320.731517 170.077025 
L 321.021788 170.157209 
L 321.892603 170.107189 
L 322.182874 167.435849 
L 322.473146 174.363213 
L 322.763417 172.508248 
L 323.053689 171.508829 
L 323.924503 179.729873 
L 324.214775 189.790799 
L 324.795318 196.366615 
L 325.085589 192.645943 
L 326.246675 180.401288 
L 326.536946 180.707266 
L 326.827218 181.78177 
L 327.117489 190.520373 
L 327.988304 186.669064 
L 328.278575 183.738944 
L 328.568847 187.519401 
L 328.859118 193.430528 
L 329.14939 193.575813 
L 330.020204 192.384343 
L 330.310476 190.97717 
L 330.891019 201.999215 
L 331.18129 203.058853 
L 332.052105 207.754531 
L 332.342376 204.450077 
L 332.632648 209.003616 
L 332.922919 205.002031 
L 333.213191 196.636244 
L 334.084005 188.261126 
L 334.374276 191.831521 
L 334.664548 198.704092 
L 334.954819 201.071732 
L 335.245091 202.390801 
L 336.115905 201.616851 
L 336.406177 201.865322 
L 336.696448 192.035289 
L 336.98672 190.481529 
L 337.276991 197.127437 
L 338.147806 193.933655 
L 338.438077 194.426801 
L 338.728349 192.190448 
L 339.308892 191.608331 
L 340.469978 183.011867 
L 340.760249 178.671753 
L 341.050521 181.358066 
L 341.340792 178.028222 
L 342.211606 171.278803 
L 342.792149 181.436948 
L 343.082421 181.515721 
L 343.372692 182.185401 
L 344.243507 180.431018 
L 344.533778 180.154553 
L 344.82405 180.84539 
L 345.404593 163.054829 
L 346.275407 160.477561 
L 346.565679 162.122356 
L 346.85595 155.641806 
L 347.146222 158.094513 
L 347.436493 150.472405 
L 348.887851 141.260621 
L 349.178122 141.971206 
L 349.468394 144.847942 
L 350.629479 146.136414 
L 350.919751 154.391636 
L 351.210022 157.022505 
L 351.500294 157.768028 
L 352.371108 158.25781 
L 352.66138 157.155421 
L 352.951651 161.249667 
L 353.241923 160.162252 
L 353.532194 160.304716 
L 354.69328 165.965201 
L 354.983552 171.408789 
L 355.273823 172.688038 
L 356.434909 165.541606 
L 356.725181 170.197355 
L 357.015452 167.999196 
L 357.305724 174.940665 
L 357.595995 170.177282 
L 358.466809 167.798031 
L 358.757081 163.500233 
L 359.047352 162.517849 
L 359.337624 165.934929 
L 359.627895 160.619808 
L 360.49871 169.415266 
L 360.788981 176.689731 
L 361.079253 171.338805 
L 361.369524 168.802985 
L 361.659796 168.40109 
L 362.53061 168.18007 
L 362.820882 167.928777 
L 363.111153 178.948869 
L 363.401425 176.262881 
L 363.691696 168.933405 
L 364.852782 172.208564 
L 365.143054 174.592263 
L 365.723597 170.548036 
L 366.594411 173.127257 
L 366.884682 172.538195 
L 367.174954 175.567269 
L 367.465225 180.105184 
L 367.755497 179.729873 
L 368.626311 177.621988 
L 369.206854 181.338319 
L 369.787397 167.596758 
L 370.658212 170.858354 
L 370.948483 170.157209 
L 371.238755 171.71889 
L 371.529026 169.033879 
L 371.819298 176.163492 
L 372.690112 176.997337 
L 372.980384 175.875417 
L 373.270655 179.67063 
L 373.560927 169.595815 
L 373.851198 175.099839 
L 374.722012 183.454233 
L 375.012284 180.805895 
L 375.302555 180.450766 
L 375.592827 180.94402 
L 376.753913 174.592263 
L 377.044184 179.729873 
L 377.334456 178.800546 
L 377.624727 174.781492 
L 378.785813 182.726613 
L 379.076085 179.443208 
L 379.366356 179.650774 
L 379.656628 190.83145 
L 379.946899 190.821685 
L 381.107985 200.411167 
L 381.398257 203.516627 
L 381.688528 199.02092 
L 381.9788 198.780912 
L 382.849614 195.865331 
L 383.430157 188.261126 
L 383.720428 192.500658 
L 384.0107 188.007447 
L 384.881514 187.802376 
L 385.171786 188.85583 
L 385.462057 199.519816 
L 386.0426 188.807113 
L 386.913415 191.268608 
L 387.203686 189.265103 
L 387.493958 195.305674 
L 387.784229 194.726269 
L 388.074501 189.936736 
L 388.945315 189.858939 
L 389.525858 187.499762 
L 389.81613 182.027963 
L 390.106401 183.758692 
L 391.267487 184.386923 
L 391.557758 186.277911 
L 392.138301 195.199449 
L 393.299387 185.161634 
L 393.589659 186.83529 
L 393.87993 193.740195 
L 394.170202 190.471763 
L 395.041016 184.180768 
L 395.331288 185.141995 
L 395.621559 189.781143 
L 395.911831 191.12278 
L 396.202102 189.001984 
L 397.072917 197.791257 
L 397.363188 198.002729 
L 397.65346 197.396849 
L 397.943731 194.214135 
L 398.234002 196.058033 
L 399.104817 195.28636 
L 399.395088 193.382135 
L 399.975631 192.655709 
L 400.265903 190.607826 
L 401.136717 192.219419 
L 401.426989 187.997681 
L 401.71726 188.309844 
L 402.007532 192.529737 
L 402.297803 192.025524 
L 403.458889 195.749559 
L 403.749161 189.839409 
L 404.329704 183.817609 
L 405.200518 186.052876 
L 405.49079 185.220334 
L 405.781061 185.269377 
L 406.071333 184.013891 
L 407.232418 186.83529 
L 407.52269 189.761612 
L 407.812961 189.128715 
L 408.103233 190.024298 
L 408.393504 192.28745 
L 409.264319 192.772024 
L 409.55459 198.002729 
L 410.135133 202.705785 
L 410.425405 203.56426 
L 411.296219 204.393004 
L 411.586491 207.034289 
L 411.876762 206.446204 
L 412.167034 202.514929 
L 412.457305 209.38164 
L 413.908663 200.430263 
L 414.198934 197.377644 
L 414.489205 195.518014 
L 415.36002 195.566189 
L 415.650291 196.183462 
L 415.940563 192.975467 
L 416.230834 193.61444 
L 416.521106 195.344301 
L 417.39192 189.985454 
L 417.682192 185.269377 
L 417.972463 184.023764 
L 418.262735 180.677645 
L 418.553006 182.657822 
L 420.004364 167.164158 
L 420.294635 170.107189 
L 420.584907 171.318732 
L 421.745993 172.138688 
L 422.036264 176.729443 
L 422.326535 173.216989 
L 422.616807 172.418408 
L 423.487621 178.582781 
L 423.777893 178.770816 
L 424.068164 183.2675 
L 424.358436 180.193939 
L 424.648707 179.937222 
L 425.519522 180.124932 
L 426.100065 181.545342 
L 426.390336 183.375568 
L 426.680608 178.642132 
L 427.551422 178.790563 
L 427.841694 175.348528 
L 428.131965 164.471117 
L 428.422237 170.628111 
L 428.712508 169.976768 
L 429.583323 173.286756 
L 429.873594 175.119804 
L 430.163866 171.868841 
L 430.454137 172.897557 
L 430.744408 177.205662 
L 431.615223 180.273038 
L 432.776309 196.51114 
L 433.937395 201.999215 
L 434.517938 197.406397 
L 434.808209 201.310872 
L 435.679024 201.683688 
L 435.969295 204.916422 
L 436.259567 203.268806 
L 436.84011 206.797211 
L 437.710924 210.797277 
L 438.001196 210.250314 
L 438.291467 212.416899 
L 438.581738 211.96531 
L 438.87201 214.520118 
L 439.742824 212.980897 
L 440.033096 211.277944 
L 440.323367 204.868789 
L 440.613639 215.737628 
L 440.90391 208.123766 
L 442.064996 213.234576 
L 442.355268 215.484925 
L 442.645539 219.888188 
L 442.935811 226.253399 
L 443.806625 228.495828 
L 444.387168 216.373455 
L 444.967711 218.706266 
L 445.838526 214.295083 
L 446.128797 229.641726 
L 446.419068 225.479557 
L 446.999611 221.234817 
L 447.870426 221.735666 
L 448.450969 226.658332 
L 448.74124 227.320525 
L 449.031512 222.560288 
L 449.902326 234.150237 
L 450.192598 236.347311 
L 450.482869 236.564859 
L 450.773141 234.250276 
L 451.063412 240.431033 
L 451.934227 241.214098 
L 452.224498 242.005192 
L 452.51477 248.707738 
L 452.805041 262.017566 
L 453.095313 256.957102 
L 453.966127 253.278529 
L 455.127213 257.597377 
L 455.998027 256.983468 
L 456.288299 252.262726 
L 456.868842 254.451228 
L 457.159113 256.948313 
L 458.029928 260.186797 
L 458.320199 251.271661 
L 458.610471 253.525482 
L 459.191014 256.825488 
L 460.061828 257.991785 
L 460.3521 253.410903 
L 460.642371 252.412894 
L 460.932643 250.172961 
L 461.222914 256.316175 
L 462.384 248.076143 
L 462.964543 256.122932 
L 463.254814 254.78596 
L 464.125629 255.375564 
L 464.4159 256.772755 
L 464.996443 256.597306 
L 465.286715 264.796975 
L 466.157529 283.914418 
L 466.447801 258.263259 
L 466.738072 250.864341 
L 467.028344 249.205332 
L 467.318615 248.387546 
L 468.18943 250.669361 
L 468.479701 251.094693 
L 468.769973 246.516957 
L 469.060244 247.907204 
L 469.350516 238.16647 
L 470.511601 237.524458 
L 470.801873 237.904435 
L 471.092144 242.517 
L 471.382416 236.709819 
L 472.25323 239.926494 
L 472.543502 245.704814 
L 472.833773 247.907204 
L 473.124045 251.041418 
L 473.414316 260.492341 
L 474.285131 260.274142 
L 474.575402 264.536894 
L 475.155945 251.271661 
L 475.446217 247.052093 
L 476.317031 254.063439 
L 476.607303 259.217107 
L 476.897574 259.522977 
L 477.187846 253.313793 
L 477.478117 258.945959 
L 478.348932 253.975443 
L 478.639203 247.408525 
L 478.929474 247.800329 
L 479.219746 249.533988 
L 480.380832 250.749111 
L 480.671103 249.276402 
L 480.961375 245.436703 
L 481.251646 247.39952 
L 481.541918 248.512108 
L 482.412732 248.654355 
L 482.703004 255.868058 
L 483.573818 228.046192 
L 484.444633 242.579931 
L 484.734904 242.283502 
L 485.025176 243.647057 
L 485.605719 215.999554 
L 486.476533 208.748309 
L 486.766804 211.211975 
L 487.057076 216.560514 
L 487.347347 207.404067 
L 488.798705 204.992591 
L 489.088976 206.2088 
L 489.379248 208.767297 
L 489.669519 207.24294 
L 490.540334 208.455026 
L 490.830605 204.592975 
L 491.120877 204.278859 
L 491.411148 200.727127 
L 491.70142 206.151944 
L 492.572234 203.850165 
L 492.862506 203.81208 
L 493.152777 198.790568 
L 493.73332 213.51625 
L 494.604134 213.469376 
L 494.894406 218.165922 
L 495.184677 214.220108 
L 495.474949 218.613171 
L 495.76522 216.34557 
L 496.926306 216.551074 
L 497.506849 207.50823 
L 497.797121 207.24294 
L 498.958207 195.556532 
L 499.248478 202.677249 
L 499.53875 206.58856 
L 499.829021 202.266674 
L 500.699836 194.629701 
L 500.990107 193.130409 
L 501.280379 193.546734 
L 501.57065 190.063359 
L 501.860922 188.85583 
L 503.022007 191.98668 
L 503.312279 189.011749 
L 503.60255 188.758395 
L 503.892822 181.978703 
L 504.763636 180.746653 
L 505.053908 179.808863 
L 505.344179 190.500951 
L 505.924722 191.656831 
L 506.795537 195.894193 
L 507.085808 194.861463 
L 507.37608 194.668328 
L 507.666351 193.256272 
L 507.956623 186.551772 
L 508.827437 190.286983 
L 509.40798 186.669064 
L 509.698252 181.052522 
L 510.859337 182.647948 
L 511.149609 188.719334 
L 511.43988 189.021514 
L 511.730152 190.539795 
L 512.020423 187.841546 
L 512.891238 190.539795 
L 513.181509 192.549159 
L 513.471781 193.682146 
L 513.762052 191.054858 
L 514.052324 195.566189 
L 514.923138 194.417144 
L 515.21341 189.74219 
L 515.503681 182.74636 
L 515.793953 182.470872 
L 516.084224 186.307315 
L 516.955039 192.297107 
L 517.535582 199.22241 
L 517.825853 204.126413 
L 518.116125 207.148109 
L 519.27721 198.656025 
L 519.567482 198.915238 
L 519.857753 195.884536 
L 520.148025 195.238076 
L 521.018839 197.18516 
L 521.309111 199.203205 
L 521.599382 198.809773 
L 521.889654 197.127437 
L 522.179925 202.973028 
L 523.05074 203.154227 
L 523.341011 201.92272 
L 523.631283 208.000833 
L 523.921554 208.644255 
L 524.211826 211.249734 
L 525.08264 204.469173 
L 525.372912 207.366091 
L 525.663183 204.906982 
L 525.953455 199.941675 
L 526.243726 196.905982 
L 527.404812 196.674871 
L 527.695083 200.238756 
L 527.985355 201.062075 
L 528.275626 203.154227 
L 529.146441 204.963946 
L 529.436712 201.243926 
L 529.726984 206.161384 
L 530.017255 207.479802 
L 530.307527 204.935519 
L 531.178341 205.439514 
L 531.468613 199.232066 
L 531.758884 195.846018 
L 532.339427 200.937623 
L 533.210242 199.999182 
L 533.500513 204.097877 
L 533.790785 205.448846 
L 534.371328 215.0635 
L 535.242142 214.801357 
L 535.532413 212.736657 
L 535.822685 213.422395 
L 536.403228 216.924867 
L 537.274042 217.307665 
L 537.564314 215.531799 
L 537.854585 216.167842 
L 538.144857 216.33613 
L 538.435128 222.310189 
L 539.886486 224.732515 
L 540.467029 224.824851 
L 541.337843 222.041535 
L 541.628115 223.624267 
L 541.918386 222.412181 
L 542.208658 219.525463 
L 542.498929 219.320718 
L 543.369743 219.953181 
L 543.660015 219.767207 
L 543.950286 214.866893 
L 544.240558 215.091711 
L 544.530829 218.808802 
L 545.401644 221.995205 
L 545.982187 229.870559 
L 546.272458 229.998809 
L 546.56273 230.867808 
L 547.723816 222.930499 
L 548.304359 221.429688 
L 548.59463 223.855269 
L 549.465445 222.254527 
L 549.755716 225.239874 
L 550.045988 219.181075 
L 550.626531 228.98192 
L 551.497345 229.29354 
L 551.787616 230.611742 
L 552.077888 229.989695 
L 552.658431 222.97683 
L 553.529245 217.718239 
L 553.819517 220.566439 
L 554.109788 217.736902 
L 554.40006 216.195944 
L 554.690331 216.812783 
L 555.561146 205.021127 
L 555.851417 206.38924 
L 556.141689 206.056896 
L 556.43196 200.708031 
L 556.722232 199.395146 
L 557.593046 198.636928 
L 557.883318 198.771255 
L 558.173589 197.512296 
L 558.463861 200.171593 
L 558.754132 199.519816 
L 559.624946 200.794182 
L 559.915218 196.799975 
L 560.205489 190.685514 
L 561.656847 189.011749 
L 561.947118 190.850872 
L 562.23739 191.579252 
L 563.688747 196.607491 
L 563.979019 199.088083 
L 564.559562 207.233392 
L 564.849833 207.820826 
L 565.720648 212.520302 
L 566.010919 208.91855 
L 566.301191 209.938802 
L 566.591462 209.759447 
L 566.881733 210.118157 
L 568.042819 208.757857 
L 568.333091 204.868789 
L 568.623362 205.838479 
L 568.913634 200.200346 
L 569.784448 192.277685 
L 570.07472 193.256272 
L 570.364991 181.486208 
L 570.945534 171.608868 
L 572.10662 189.537771 
L 572.396892 186.189807 
L 572.687163 189.099419 
L 572.977435 193.275585 
L 573.848249 188.095225 
L 574.138521 178.592654 
L 574.428792 177.582493 
L 574.719064 179.897727 
L 575.009335 183.375568 
L 576.170421 185.876668 
L 576.460692 186.023472 
L 576.750964 191.714989 
L 577.041235 190.81192 
L 577.91205 187.079747 
L 578.202321 191.491799 
L 578.492593 192.122526 
L 578.782864 189.74219 
L 579.073136 189.74219 
L 579.94395 189.021514 
L 580.524493 189.576615 
L 580.814765 186.639877 
L 581.105036 189.167668 
L 582.266122 181.082035 
L 582.556394 180.63815 
L 582.846665 182.490619 
L 583.136936 185.524142 
L 584.007751 193.227302 
L 584.298022 190.539795 
L 584.588294 191.07428 
L 584.878565 194.938717 
L 585.168837 195.556532 
L 586.039651 193.043281 
L 586.620194 197.618087 
L 587.200737 206.664403 
L 588.071552 211.164993 
L 588.361823 213.873007 
L 588.942366 208.984737 
L 590.103452 215.503696 
L 590.393724 212.304056 
L 590.683995 205.724443 
L 590.974267 206.531596 
L 591.264538 203.888249 
L 592.135352 208.634815 
L 592.425624 200.286606 
L 592.715895 198.473631 
L 593.296438 192.132291 
L 594.167253 192.578129 
L 594.457524 186.639877 
L 595.038067 189.148137 
L 595.328339 191.938288 
L 596.199153 189.761612 
L 596.489425 184.435967 
L 596.779696 190.053593 
L 597.069968 189.304056 
L 597.360239 180.312533 
L 598.231054 181.151043 
L 598.521325 184.396797 
L 598.811597 182.667696 
L 599.392139 188.270891 
L 600.262954 190.442576 
L 600.553225 189.995219 
L 600.843497 191.831521 
L 601.133768 192.549159 
L 601.42404 194.388065 
L 602.585126 195.836361 
L 602.875397 196.645901 
L 603.165669 196.703733 
L 603.45594 199.414243 
L 604.617026 202.113794 
L 604.907298 202.467187 
L 605.197569 205.82904 
L 605.487841 200.085441 
L 606.358655 201.368162 
L 606.648927 205.458394 
L 606.939198 205.961956 
L 607.229469 210.571048 
L 608.680827 216.495087 
L 608.971098 216.261372 
L 609.26137 215.606665 
L 609.551641 217.998068 
L 610.422456 217.177027 
L 610.712727 219.637112 
L 610.712727 219.637112 
" clip-path="url(#p388d2d7d88)" style="fill: none; stroke: #1f77b4; stroke-width: 1.5; stroke-linecap: square"/>
   </g>
   <g id="patch_3">
    <path d="M 54.48 296.2 
L 54.48 25.917188 
" style="fill: none; stroke: #000000; stroke-width: 0.8; stroke-linejoin: miter; stroke-linecap: square"/>
   </g>
   <g id="patch_4">
    <path d="M 637.2 296.2 
L 637.2 25.917188 
" style="fill: none; stroke: #000000; stroke-width: 0.8; stroke-linejoin: miter; stroke-linecap: square"/>
   </g>
   <g id="patch_5">
    <path d="M 54.48 296.2 
L 637.2 296.2 
" style="fill: none; stroke: #000000; stroke-width: 0.8; stroke-linejoin: miter; stroke-linecap: square"/>
   </g>
   <g id="patch_6">
    <path d="M 54.48 25.917188 
L 637.2 25.917188 
" style="fill: none; stroke: #000000; stroke-width: 0.8; stroke-linejoin: miter; stroke-linecap: square"/>
   </g>
   <g id="text_15">
    <!-- CAD/USD Exchange Rate -->
    <g transform="translate(271.193437 19.917188) scale(0.12 -0.12)">
     <defs>
      <path id="DejaVuSans-3" transform="scale(0.015625)"/>
      <path id="DejaVuSans-28" d="M 628 4666 
L 3578 4666 
L 3578 4134 
L 1259 4134 
L 1259 2753 
L 3481 2753 
L 3481 2222 
L 1259 2222 
L 1259 531 
L 3634 531 
L 3634 0 
L 628 0 
L 628 4666 
z
" transform="scale(0.015625)"/>
      <path id="DejaVuSans-5b" d="M 3513 3500 
L 2247 1797 
L 3578 0 
L 2900 0 
L 1881 1375 
L 863 0 
L 184 0 
L 1544 1831 
L 300 3500 
L 978 3500 
L 1906 2253 
L 2834 3500 
L 3513 3500 
z
" transform="scale(0.015625)"/>
      <path id="DejaVuSans-46" d="M 3122 3366 
L 3122 2828 
Q 2878 2963 2633 3030 
Q 2388 3097 2138 3097 
Q 1578 3097 1268 2742 
Q 959 2388 959 1747 
Q 959 1106 1268 751 
Q 1578 397 2138 397 
Q 2388 397 2633 464 
Q 2878 531 3122 666 
L 3122 134 
Q 2881 22 2623 -34 
Q 2366 -91 2075 -91 
Q 1284 -91 818 406 
Q 353 903 353 1747 
Q 353 2603 823 3093 
Q 1294 3584 2113 3584 
Q 2378 3584 2631 3529 
Q 2884 3475 3122 3366 
z
" transform="scale(0.015625)"/>
      <path id="DejaVuSans-4b" d="M 3513 2113 
L 3513 0 
L 2938 0 
L 2938 2094 
Q 2938 2591 2744 2837 
Q 2550 3084 2163 3084 
Q 1697 3084 1428 2787 
Q 1159 2491 1159 1978 
L 1159 0 
L 581 0 
L 581 4863 
L 1159 4863 
L 1159 2956 
Q 1366 3272 1645 3428 
Q 1925 3584 2291 3584 
Q 2894 3584 3203 3211 
Q 3513 2838 3513 2113 
z
" transform="scale(0.015625)"/>
      <path id="DejaVuSans-44" d="M 2194 1759 
Q 1497 1759 1228 1600 
Q 959 1441 959 1056 
Q 959 750 1161 570 
Q 1363 391 1709 391 
Q 2188 391 2477 730 
Q 2766 1069 2766 1631 
L 2766 1759 
L 2194 1759 
z
M 3341 1997 
L 3341 0 
L 2766 0 
L 2766 531 
Q 2569 213 2275 61 
Q 1981 -91 1556 -91 
Q 1019 -91 701 211 
Q 384 513 384 1019 
Q 384 1609 779 1909 
Q 1175 2209 1959 2209 
L 2766 2209 
L 2766 2266 
Q 2766 2663 2505 2880 
Q 2244 3097 1772 3097 
Q 1472 3097 1187 3025 
Q 903 2953 641 2809 
L 641 3341 
Q 956 3463 1253 3523 
Q 1550 3584 1831 3584 
Q 2591 3584 2966 3190 
Q 3341 2797 3341 1997 
z
" transform="scale(0.015625)"/>
      <path id="DejaVuSans-51" d="M 3513 2113 
L 3513 0 
L 2938 0 
L 2938 2094 
Q 2938 2591 2744 2837 
Q 2550 3084 2163 3084 
Q 1697 3084 1428 2787 
Q 1159 2491 1159 1978 
L 1159 0 
L 581 0 
L 581 3500 
L 1159 3500 
L 1159 2956 
Q 1366 3272 1645 3428 
Q 1925 3584 2291 3584 
Q 2894 3584 3203 3211 
Q 3513 2838 3513 2113 
z
" transform="scale(0.015625)"/>
      <path id="DejaVuSans-4a" d="M 2906 1791 
Q 2906 2416 2648 2759 
Q 2391 3103 1925 3103 
Q 1463 3103 1205 2759 
Q 947 2416 947 1791 
Q 947 1169 1205 825 
Q 1463 481 1925 481 
Q 2391 481 2648 825 
Q 2906 1169 2906 1791 
z
M 3481 434 
Q 3481 -459 3084 -895 
Q 2688 -1331 1869 -1331 
Q 1566 -1331 1297 -1286 
Q 1028 -1241 775 -1147 
L 775 -588 
Q 1028 -725 1275 -790 
Q 1522 -856 1778 -856 
Q 2344 -856 2625 -561 
Q 2906 -266 2906 331 
L 2906 616 
Q 2728 306 2450 153 
Q 2172 0 1784 0 
Q 1141 0 747 490 
Q 353 981 353 1791 
Q 353 2603 747 3093 
Q 1141 3584 1784 3584 
Q 2172 3584 2450 3431 
Q 2728 3278 2906 2969 
L 2906 3500 
L 3481 3500 
L 3481 434 
z
" transform="scale(0.015625)"/>
      <path id="DejaVuSans-48" d="M 3597 1894 
L 3597 1613 
L 953 1613 
Q 991 1019 1311 708 
Q 1631 397 2203 397 
Q 2534 397 2845 478 
Q 3156 559 3463 722 
L 3463 178 
Q 3153 47 2828 -22 
Q 2503 -91 2169 -91 
Q 1331 -91 842 396 
Q 353 884 353 1716 
Q 353 2575 817 3079 
Q 1281 3584 2069 3584 
Q 2775 3584 3186 3129 
Q 3597 2675 3597 1894 
z
M 3022 2063 
Q 3016 2534 2758 2815 
Q 2500 3097 2075 3097 
Q 1594 3097 1305 2825 
Q 1016 2553 972 2059 
L 3022 2063 
z
" transform="scale(0.015625)"/>
      <path id="DejaVuSans-35" d="M 2841 2188 
Q 3044 2119 3236 1894 
Q 3428 1669 3622 1275 
L 4263 0 
L 3584 0 
L 2988 1197 
Q 2756 1666 2539 1819 
Q 2322 1972 1947 1972 
L 1259 1972 
L 1259 0 
L 628 0 
L 628 4666 
L 2053 4666 
Q 2853 4666 3247 4331 
Q 3641 3997 3641 3322 
Q 3641 2881 3436 2590 
Q 3231 2300 2841 2188 
z
M 1259 4147 
L 1259 2491 
L 2053 2491 
Q 2509 2491 2742 2702 
Q 2975 2913 2975 3322 
Q 2975 3731 2742 3939 
Q 2509 4147 2053 4147 
L 1259 4147 
z
" transform="scale(0.015625)"/>
      <path id="DejaVuSans-57" d="M 1172 4494 
L 1172 3500 
L 2356 3500 
L 2356 3053 
L 1172 3053 
L 1172 1153 
Q 1172 725 1289 603 
Q 1406 481 1766 481 
L 2356 481 
L 2356 0 
L 1766 0 
Q 1100 0 847 248 
Q 594 497 594 1153 
L 594 3053 
L 172 3053 
L 172 3500 
L 594 3500 
L 594 4494 
L 1172 4494 
z
" transform="scale(0.015625)"/>
     </defs>
     <use xlink:href="#DejaVuSans-26"/>
     <use xlink:href="#DejaVuSans-24" transform="translate(69.828125 0)"/>
     <use xlink:href="#DejaVuSans-27" transform="translate(138.234375 0)"/>
     <use xlink:href="#DejaVuSans-12" transform="translate(215.234375 0)"/>
     <use xlink:href="#DejaVuSans-38" transform="translate(248.921875 0)"/>
     <use xlink:href="#DejaVuSans-36" transform="translate(322.109375 0)"/>
     <use xlink:href="#DejaVuSans-27" transform="translate(385.59375 0)"/>
     <use xlink:href="#DejaVuSans-3" transform="translate(462.59375 0)"/>
     <use xlink:href="#DejaVuSans-28" transform="translate(494.375 0)"/>
     <use xlink:href="#DejaVuSans-5b" transform="translate(557.5625 0)"/>
     <use xlink:href="#DejaVuSans-46" transform="translate(615 0)"/>
     <use xlink:href="#DejaVuSans-4b" transform="translate(669.984375 0)"/>
     <use xlink:href="#DejaVuSans-44" transform="translate(733.359375 0)"/>
     <use xlink:href="#DejaVuSans-51" transform="translate(794.640625 0)"/>
     <use xlink:href="#DejaVuSans-4a" transform="translate(858.015625 0)"/>
     <use xlink:href="#DejaVuSans-48" transform="translate(921.5 0)"/>
     <use xlink:href="#DejaVuSans-3" transform="translate(983.03125 0)"/>
     <use xlink:href="#DejaVuSans-35" transform="translate(1014.8125 0)"/>
     <use xlink:href="#DejaVuSans-44" transform="translate(1082.09375 0)"/>
     <use xlink:href="#DejaVuSans-57" transform="translate(1143.375 0)"/>
     <use xlink:href="#DejaVuSans-48" transform="translate(1182.578125 0)"/>
    </g>
   </g>
  </g>
 </g>
 <defs>
  <clipPath id="p388d2d7d88">
   <rect x="54.48" y="25.917188" width="582.72" height="270.282812"/>
  </clipPath>
 </defs>
</svg>
