<?xml version="1.0" encoding="utf-8" standalone="no"?>
<!DOCTYPE svg PUBLIC "-//W3C//DTD SVG 1.1//EN"
  "http://www.w3.org/Graphics/SVG/1.1/DTD/svg11.dtd">
<svg xmlns:xlink="http://www.w3.org/1999/xlink" width="648pt" height="324pt" viewBox="0 0 648 324" xmlns="http://www.w3.org/2000/svg" version="1.1">
 <metadata>
  <rdf:RDF xmlns:dc="http://purl.org/dc/elements/1.1/" xmlns:cc="http://creativecommons.org/ns#" xmlns:rdf="http://www.w3.org/1999/02/22-rdf-syntax-ns#">
   <cc:Work>
    <dc:type rdf:resource="http://purl.org/dc/dcmitype/StillImage"/>
    <dc:date>2026-06-26T00:17:38.176426</dc:date>
    <dc:format>image/svg+xml</dc:format>
    <dc:creator>
     <cc:Agent>
      <dc:title>Matplotlib v3.11.0, https://matplotlib.org/</dc:title>
     </cc:Agent>
    </dc:creator>
   </cc:Work>
  </rdf:RDF>
 </metadata>
 <defs>
  <style type="text/css">*{stroke-linejoin: round; stroke-linecap: butt}</style>
 </defs>
 <g id="figure_1">
  <g id="patch_1">
   <path d="M 0 324 
L 648 324 
L 648 0 
L 0 0 
z
" style="fill: #ffffff"/>
  </g>
  <g id="axes_1">
   <g id="patch_2">
    <path d="M 53.04 296.2 
L 637.2 296.2 
L 637.2 25.917188 
L 53.04 25.917188 
z
" style="fill: #ffffff"/>
   </g>
   <g id="matplotlib.axis_1">
    <g id="xtick_1">
     <g id="line2d_1">
      <defs>
       <path id="m171dddfa62" d="M 0 0 
L 0 3.5 
" style="stroke: #000000; stroke-width: 0.8"/>
      </defs>
      <g>
       <use xlink:href="#m171dddfa62" x="137.208508" y="296.2" style="stroke: #000000; stroke-width: 0.8"/>
      </g>
     </g>
     <g id="text_1">
      <!-- 2022 -->
      <g transform="translate(124.483508 310.797656) scale(0.1 -0.1)">
       <defs>
        <path id="DejaVuSans-15" d="M 1228 531 
L 3431 531 
L 3431 0 
L 469 0 
L 469 531 
Q 828 903 1448 1529 
Q 2069 2156 2228 2338 
Q 2531 2678 2651 2914 
Q 2772 3150 2772 3378 
Q 2772 3750 2511 3984 
Q 2250 4219 1831 4219 
Q 1534 4219 1204 4116 
Q 875 4013 500 3803 
L 500 4441 
Q 881 4594 1212 4672 
Q 1544 4750 1819 4750 
Q 2544 4750 2975 4387 
Q 3406 4025 3406 3419 
Q 3406 3131 3298 2873 
Q 3191 2616 2906 2266 
Q 2828 2175 2409 1742 
Q 1991 1309 1228 531 
z
" transform="scale(0.015625)"/>
        <path id="DejaVuSans-13" d="M 2034 4250 
Q 1547 4250 1301 3770 
Q 1056 3291 1056 2328 
Q 1056 1369 1301 889 
Q 1547 409 2034 409 
Q 2525 409 2770 889 
Q 3016 1369 3016 2328 
Q 3016 3291 2770 3770 
Q 2525 4250 2034 4250 
z
M 2034 4750 
Q 2819 4750 3233 4129 
Q 3647 3509 3647 2328 
Q 3647 1150 3233 529 
Q 2819 -91 2034 -91 
Q 1250 -91 836 529 
Q 422 1150 422 2328 
Q 422 3509 836 4129 
Q 1250 4750 2034 4750 
z
" transform="scale(0.015625)"/>
       </defs>
       <use xlink:href="#DejaVuSans-15"/>
       <use xlink:href="#DejaVuSans-13" transform="translate(63.625 0)"/>
       <use xlink:href="#DejaVuSans-15" transform="translate(127.25 0)"/>
       <use xlink:href="#DejaVuSans-15" transform="translate(190.875 0)"/>
      </g>
     </g>
    </g>
    <g id="xtick_2">
     <g id="line2d_2">
      <g>
       <use xlink:href="#m171dddfa62" x="243.419417" y="296.2" style="stroke: #000000; stroke-width: 0.8"/>
      </g>
     </g>
     <g id="text_2">
      <!-- 2023 -->
      <g transform="translate(230.694417 310.797656) scale(0.1 -0.1)">
       <defs>
        <path id="DejaVuSans-16" d="M 2597 2516 
Q 3050 2419 3304 2112 
Q 3559 1806 3559 1356 
Q 3559 666 3084 287 
Q 2609 -91 1734 -91 
Q 1441 -91 1130 -33 
Q 819 25 488 141 
L 488 750 
Q 750 597 1062 519 
Q 1375 441 1716 441 
Q 2309 441 2620 675 
Q 2931 909 2931 1356 
Q 2931 1769 2642 2001 
Q 2353 2234 1838 2234 
L 1294 2234 
L 1294 2753 
L 1863 2753 
Q 2328 2753 2575 2939 
Q 2822 3125 2822 3475 
Q 2822 3834 2567 4026 
Q 2313 4219 1838 4219 
Q 1578 4219 1281 4162 
Q 984 4106 628 3988 
L 628 4550 
Q 988 4650 1302 4700 
Q 1616 4750 1894 4750 
Q 2613 4750 3031 4423 
Q 3450 4097 3450 3541 
Q 3450 3153 3228 2886 
Q 3006 2619 2597 2516 
z
" transform="scale(0.015625)"/>
       </defs>
       <use xlink:href="#DejaVuSans-15"/>
       <use xlink:href="#DejaVuSans-13" transform="translate(63.625 0)"/>
       <use xlink:href="#DejaVuSans-15" transform="translate(127.25 0)"/>
       <use xlink:href="#DejaVuSans-16" transform="translate(190.875 0)"/>
      </g>
     </g>
    </g>
    <g id="xtick_3">
     <g id="line2d_3">
      <g>
       <use xlink:href="#m171dddfa62" x="349.630326" y="296.2" style="stroke: #000000; stroke-width: 0.8"/>
      </g>
     </g>
     <g id="text_3">
      <!-- 2024 -->
      <g transform="translate(336.905326 310.797656) scale(0.1 -0.1)">
       <defs>
        <path id="DejaVuSans-17" d="M 2419 4116 
L 825 1625 
L 2419 1625 
L 2419 4116 
z
M 2253 4666 
L 3047 4666 
L 3047 1625 
L 3713 1625 
L 3713 1100 
L 3047 1100 
L 3047 0 
L 2419 0 
L 2419 1100 
L 313 1100 
L 313 1709 
L 2253 4666 
z
" transform="scale(0.015625)"/>
       </defs>
       <use xlink:href="#DejaVuSans-15"/>
       <use xlink:href="#DejaVuSans-13" transform="translate(63.625 0)"/>
       <use xlink:href="#DejaVuSans-15" transform="translate(127.25 0)"/>
       <use xlink:href="#DejaVuSans-17" transform="translate(190.875 0)"/>
      </g>
     </g>
    </g>
    <g id="xtick_4">
     <g id="line2d_4">
      <g>
       <use xlink:href="#m171dddfa62" x="456.132224" y="296.2" style="stroke: #000000; stroke-width: 0.8"/>
      </g>
     </g>
     <g id="text_4">
      <!-- 2025 -->
      <g transform="translate(443.407224 310.797656) scale(0.1 -0.1)">
       <defs>
        <path id="DejaVuSans-18" d="M 691 4666 
L 3169 4666 
L 3169 4134 
L 1269 4134 
L 1269 2991 
Q 1406 3038 1543 3061 
Q 1681 3084 1819 3084 
Q 2600 3084 3056 2656 
Q 3513 2228 3513 1497 
Q 3513 744 3044 326 
Q 2575 -91 1722 -91 
Q 1428 -91 1123 -41 
Q 819 9 494 109 
L 494 744 
Q 775 591 1075 516 
Q 1375 441 1709 441 
Q 2250 441 2565 725 
Q 2881 1009 2881 1497 
Q 2881 1984 2565 2268 
Q 2250 2553 1709 2553 
Q 1456 2553 1204 2497 
Q 953 2441 691 2322 
L 691 4666 
z
" transform="scale(0.015625)"/>
       </defs>
       <use xlink:href="#DejaVuSans-15"/>
       <use xlink:href="#DejaVuSans-13" transform="translate(63.625 0)"/>
       <use xlink:href="#DejaVuSans-15" transform="translate(127.25 0)"/>
       <use xlink:href="#DejaVuSans-18" transform="translate(190.875 0)"/>
      </g>
     </g>
    </g>
    <g id="xtick_5">
     <g id="line2d_5">
      <g>
       <use xlink:href="#m171dddfa62" x="562.343133" y="296.2" style="stroke: #000000; stroke-width: 0.8"/>
      </g>
     </g>
     <g id="text_5">
      <!-- 2026 -->
      <g transform="translate(549.618133 310.797656) scale(0.1 -0.1)">
       <defs>
        <path id="DejaVuSans-19" d="M 2113 2584 
Q 1688 2584 1439 2293 
Q 1191 2003 1191 1497 
Q 1191 994 1439 701 
Q 1688 409 2113 409 
Q 2538 409 2786 701 
Q 3034 994 3034 1497 
Q 3034 2003 2786 2293 
Q 2538 2584 2113 2584 
z
M 3366 4563 
L 3366 3988 
Q 3128 4100 2886 4159 
Q 2644 4219 2406 4219 
Q 1781 4219 1451 3797 
Q 1122 3375 1075 2522 
Q 1259 2794 1537 2939 
Q 1816 3084 2150 3084 
Q 2853 3084 3261 2657 
Q 3669 2231 3669 1497 
Q 3669 778 3244 343 
Q 2819 -91 2113 -91 
Q 1303 -91 875 529 
Q 447 1150 447 2328 
Q 447 3434 972 4092 
Q 1497 4750 2381 4750 
Q 2619 4750 2861 4703 
Q 3103 4656 3366 4563 
z
" transform="scale(0.015625)"/>
       </defs>
       <use xlink:href="#DejaVuSans-15"/>
       <use xlink:href="#DejaVuSans-13" transform="translate(63.625 0)"/>
       <use xlink:href="#DejaVuSans-15" transform="translate(127.25 0)"/>
       <use xlink:href="#DejaVuSans-19" transform="translate(190.875 0)"/>
      </g>
     </g>
    </g>
   </g>
   <g id="matplotlib.axis_2">
    <g id="ytick_1">
     <g id="line2d_6">
      <defs>
       <path id="mb4506e1ff3" d="M 0 0 
L -3.5 0 
" style="stroke: #000000; stroke-width: 0.8"/>
      </defs>
      <g>
       <use xlink:href="#mb4506e1ff3" x="53.04" y="274.774407" style="stroke: #000000; stroke-width: 0.8"/>
      </g>
     </g>
     <g id="text_6">
      <!-- −12 -->
      <g transform="translate(24.935313 278.573235) scale(0.1 -0.1)">
       <defs>
        <path id="DejaVuSans-c9c" d="M 678 2272 
L 4684 2272 
L 4684 1741 
L 678 1741 
L 678 2272 
z
" transform="scale(0.015625)"/>
        <path id="DejaVuSans-14" d="M 794 531 
L 1825 531 
L 1825 4091 
L 703 3866 
L 703 4441 
L 1819 4666 
L 2450 4666 
L 2450 531 
L 3481 531 
L 3481 0 
L 794 0 
L 794 531 
z
" transform="scale(0.015625)"/>
       </defs>
       <use xlink:href="#DejaVuSans-c9c"/>
       <use xlink:href="#DejaVuSans-14" transform="translate(83.796875 0)"/>
       <use xlink:href="#DejaVuSans-15" transform="translate(147.421875 0)"/>
      </g>
     </g>
    </g>
    <g id="ytick_2">
     <g id="line2d_7">
      <g>
       <use xlink:href="#mb4506e1ff3" x="53.04" y="242.042328" style="stroke: #000000; stroke-width: 0.8"/>
      </g>
     </g>
     <g id="text_7">
      <!-- −10 -->
      <g transform="translate(24.935313 245.841156) scale(0.1 -0.1)">
       <use xlink:href="#DejaVuSans-c9c"/>
       <use xlink:href="#DejaVuSans-14" transform="translate(83.796875 0)"/>
       <use xlink:href="#DejaVuSans-13" transform="translate(147.421875 0)"/>
      </g>
     </g>
    </g>
    <g id="ytick_3">
     <g id="line2d_8">
      <g>
       <use xlink:href="#mb4506e1ff3" x="53.04" y="209.310249" style="stroke: #000000; stroke-width: 0.8"/>
      </g>
     </g>
     <g id="text_8">
      <!-- −8 -->
      <g transform="translate(31.297813 213.109077) scale(0.1 -0.1)">
       <defs>
        <path id="DejaVuSans-1b" d="M 2034 2216 
Q 1584 2216 1326 1975 
Q 1069 1734 1069 1313 
Q 1069 891 1326 650 
Q 1584 409 2034 409 
Q 2484 409 2743 651 
Q 3003 894 3003 1313 
Q 3003 1734 2745 1975 
Q 2488 2216 2034 2216 
z
M 1403 2484 
Q 997 2584 770 2862 
Q 544 3141 544 3541 
Q 544 4100 942 4425 
Q 1341 4750 2034 4750 
Q 2731 4750 3128 4425 
Q 3525 4100 3525 3541 
Q 3525 3141 3298 2862 
Q 3072 2584 2669 2484 
Q 3125 2378 3379 2068 
Q 3634 1759 3634 1313 
Q 3634 634 3220 271 
Q 2806 -91 2034 -91 
Q 1263 -91 848 271 
Q 434 634 434 1313 
Q 434 1759 690 2068 
Q 947 2378 1403 2484 
z
M 1172 3481 
Q 1172 3119 1398 2916 
Q 1625 2713 2034 2713 
Q 2441 2713 2670 2916 
Q 2900 3119 2900 3481 
Q 2900 3844 2670 4047 
Q 2441 4250 2034 4250 
Q 1625 4250 1398 4047 
Q 1172 3844 1172 3481 
z
" transform="scale(0.015625)"/>
       </defs>
       <use xlink:href="#DejaVuSans-c9c"/>
       <use xlink:href="#DejaVuSans-1b" transform="translate(83.796875 0)"/>
      </g>
     </g>
    </g>
    <g id="ytick_4">
     <g id="line2d_9">
      <g>
       <use xlink:href="#mb4506e1ff3" x="53.04" y="176.578171" style="stroke: #000000; stroke-width: 0.8"/>
      </g>
     </g>
     <g id="text_9">
      <!-- −6 -->
      <g transform="translate(31.297813 180.376999) scale(0.1 -0.1)">
       <use xlink:href="#DejaVuSans-c9c"/>
       <use xlink:href="#DejaVuSans-19" transform="translate(83.796875 0)"/>
      </g>
     </g>
    </g>
    <g id="ytick_5">
     <g id="line2d_10">
      <g>
       <use xlink:href="#mb4506e1ff3" x="53.04" y="143.846092" style="stroke: #000000; stroke-width: 0.8"/>
      </g>
     </g>
     <g id="text_10">
      <!-- −4 -->
      <g transform="translate(31.297813 147.64492) scale(0.1 -0.1)">
       <use xlink:href="#DejaVuSans-c9c"/>
       <use xlink:href="#DejaVuSans-17" transform="translate(83.796875 0)"/>
      </g>
     </g>
    </g>
    <g id="ytick_6">
     <g id="line2d_11">
      <g>
       <use xlink:href="#mb4506e1ff3" x="53.04" y="111.114013" style="stroke: #000000; stroke-width: 0.8"/>
      </g>
     </g>
     <g id="text_11">
      <!-- −2 -->
      <g transform="translate(31.297813 114.912841) scale(0.1 -0.1)">
       <use xlink:href="#DejaVuSans-c9c"/>
       <use xlink:href="#DejaVuSans-15" transform="translate(83.796875 0)"/>
      </g>
     </g>
    </g>
    <g id="ytick_7">
     <g id="line2d_12">
      <g>
       <use xlink:href="#mb4506e1ff3" x="53.04" y="78.381934" style="stroke: #000000; stroke-width: 0.8"/>
      </g>
     </g>
     <g id="text_12">
      <!-- 0 -->
      <g transform="translate(39.6775 82.180762) scale(0.1 -0.1)">
       <use xlink:href="#DejaVuSans-13"/>
      </g>
     </g>
    </g>
    <g id="ytick_8">
     <g id="line2d_13">
      <g>
       <use xlink:href="#mb4506e1ff3" x="53.04" y="45.649855" style="stroke: #000000; stroke-width: 0.8"/>
      </g>
     </g>
     <g id="text_13">
      <!-- 2 -->
      <g transform="translate(39.6775 49.448684) scale(0.1 -0.1)">
       <use xlink:href="#DejaVuSans-15"/>
      </g>
     </g>
    </g>
    <g id="text_14">
     <!-- SHOP.TO - SHOP adjusted to CAD -->
     <g transform="translate(18.532969 243.771094) rotate(-90) scale(0.1 -0.1)">
      <defs>
       <path id="DejaVuSans-36" d="M 3425 4513 
L 3425 3897 
Q 3066 4069 2747 4153 
Q 2428 4238 2131 4238 
Q 1616 4238 1336 4038 
Q 1056 3838 1056 3469 
Q 1056 3159 1242 3001 
Q 1428 2844 1947 2747 
L 2328 2669 
Q 3034 2534 3370 2195 
Q 3706 1856 3706 1288 
Q 3706 609 3251 259 
Q 2797 -91 1919 -91 
Q 1588 -91 1214 -16 
Q 841 59 441 206 
L 441 856 
Q 825 641 1194 531 
Q 1563 422 1919 422 
Q 2459 422 2753 634 
Q 3047 847 3047 1241 
Q 3047 1584 2836 1778 
Q 2625 1972 2144 2069 
L 1759 2144 
Q 1053 2284 737 2584 
Q 422 2884 422 3419 
Q 422 4038 858 4394 
Q 1294 4750 2059 4750 
Q 2388 4750 2728 4690 
Q 3069 4631 3425 4513 
z
" transform="scale(0.015625)"/>
       <path id="DejaVuSans-2b" d="M 628 4666 
L 1259 4666 
L 1259 2753 
L 3553 2753 
L 3553 4666 
L 4184 4666 
L 4184 0 
L 3553 0 
L 3553 2222 
L 1259 2222 
L 1259 0 
L 628 0 
L 628 4666 
z
" transform="scale(0.015625)"/>
       <path id="DejaVuSans-32" d="M 2522 4238 
Q 1834 4238 1429 3725 
Q 1025 3213 1025 2328 
Q 1025 1447 1429 934 
Q 1834 422 2522 422 
Q 3209 422 3611 934 
Q 4013 1447 4013 2328 
Q 4013 3213 3611 3725 
Q 3209 4238 2522 4238 
z
M 2522 4750 
Q 3503 4750 4090 4092 
Q 4678 3434 4678 2328 
Q 4678 1225 4090 567 
Q 3503 -91 2522 -91 
Q 1538 -91 948 565 
Q 359 1222 359 2328 
Q 359 3434 948 4092 
Q 1538 4750 2522 4750 
z
" transform="scale(0.015625)"/>
       <path id="DejaVuSans-33" d="M 1259 4147 
L 1259 2394 
L 2053 2394 
Q 2494 2394 2734 2622 
Q 2975 2850 2975 3272 
Q 2975 3691 2734 3919 
Q 2494 4147 2053 4147 
L 1259 4147 
z
M 628 4666 
L 2053 4666 
Q 2838 4666 3239 4311 
Q 3641 3956 3641 3272 
Q 3641 2581 3239 2228 
Q 2838 1875 2053 1875 
L 1259 1875 
L 1259 0 
L 628 0 
L 628 4666 
z
" transform="scale(0.015625)"/>
       <path id="DejaVuSans-11" d="M 684 794 
L 1344 794 
L 1344 0 
L 684 0 
L 684 794 
z
" transform="scale(0.015625)"/>
       <path id="DejaVuSans-37" d="M -19 4666 
L 3928 4666 
L 3928 4134 
L 2272 4134 
L 2272 0 
L 1638 0 
L 1638 4134 
L -19 4134 
L -19 4666 
z
" transform="scale(0.015625)"/>
       <path id="DejaVuSans-3" transform="scale(0.015625)"/>
       <path id="DejaVuSans-10" d="M 313 2009 
L 1997 2009 
L 1997 1497 
L 313 1497 
L 313 2009 
z
" transform="scale(0.015625)"/>
       <path id="DejaVuSans-44" d="M 2194 1759 
Q 1497 1759 1228 1600 
Q 959 1441 959 1056 
Q 959 750 1161 570 
Q 1363 391 1709 391 
Q 2188 391 2477 730 
Q 2766 1069 2766 1631 
L 2766 1759 
L 2194 1759 
z
M 3341 1997 
L 3341 0 
L 2766 0 
L 2766 531 
Q 2569 213 2275 61 
Q 1981 -91 1556 -91 
Q 1019 -91 701 211 
Q 384 513 384 1019 
Q 384 1609 779 1909 
Q 1175 2209 1959 2209 
L 2766 2209 
L 2766 2266 
Q 2766 2663 2505 2880 
Q 2244 3097 1772 3097 
Q 1472 3097 1187 3025 
Q 903 2953 641 2809 
L 641 3341 
Q 956 3463 1253 3523 
Q 1550 3584 1831 3584 
Q 2591 3584 2966 3190 
Q 3341 2797 3341 1997 
z
" transform="scale(0.015625)"/>
       <path id="DejaVuSans-47" d="M 2906 2969 
L 2906 4863 
L 3481 4863 
L 3481 0 
L 2906 0 
L 2906 525 
Q 2725 213 2448 61 
Q 2172 -91 1784 -91 
Q 1150 -91 751 415 
Q 353 922 353 1747 
Q 353 2572 751 3078 
Q 1150 3584 1784 3584 
Q 2172 3584 2448 3432 
Q 2725 3281 2906 2969 
z
M 947 1747 
Q 947 1113 1208 752 
Q 1469 391 1925 391 
Q 2381 391 2643 752 
Q 2906 1113 2906 1747 
Q 2906 2381 2643 2742 
Q 2381 3103 1925 3103 
Q 1469 3103 1208 2742 
Q 947 2381 947 1747 
z
" transform="scale(0.015625)"/>
       <path id="DejaVuSans-4d" d="M 603 3500 
L 1178 3500 
L 1178 -63 
Q 1178 -731 923 -1031 
Q 669 -1331 103 -1331 
L -116 -1331 
L -116 -844 
L 38 -844 
Q 366 -844 484 -692 
Q 603 -541 603 -63 
L 603 3500 
z
M 603 4863 
L 1178 4863 
L 1178 4134 
L 603 4134 
L 603 4863 
z
" transform="scale(0.015625)"/>
       <path id="DejaVuSans-58" d="M 544 1381 
L 544 3500 
L 1119 3500 
L 1119 1403 
Q 1119 906 1312 657 
Q 1506 409 1894 409 
Q 2359 409 2629 706 
Q 2900 1003 2900 1516 
L 2900 3500 
L 3475 3500 
L 3475 0 
L 2900 0 
L 2900 538 
Q 2691 219 2414 64 
Q 2138 -91 1772 -91 
Q 1169 -91 856 284 
Q 544 659 544 1381 
z
M 1991 3584 
L 1991 3584 
z
" transform="scale(0.015625)"/>
       <path id="DejaVuSans-56" d="M 2834 3397 
L 2834 2853 
Q 2591 2978 2328 3040 
Q 2066 3103 1784 3103 
Q 1356 3103 1142 2972 
Q 928 2841 928 2578 
Q 928 2378 1081 2264 
Q 1234 2150 1697 2047 
L 1894 2003 
Q 2506 1872 2764 1633 
Q 3022 1394 3022 966 
Q 3022 478 2636 193 
Q 2250 -91 1575 -91 
Q 1294 -91 989 -36 
Q 684 19 347 128 
L 347 722 
Q 666 556 975 473 
Q 1284 391 1588 391 
Q 1994 391 2212 530 
Q 2431 669 2431 922 
Q 2431 1156 2273 1281 
Q 2116 1406 1581 1522 
L 1381 1569 
Q 847 1681 609 1914 
Q 372 2147 372 2553 
Q 372 3047 722 3315 
Q 1072 3584 1716 3584 
Q 2034 3584 2315 3537 
Q 2597 3491 2834 3397 
z
" transform="scale(0.015625)"/>
       <path id="DejaVuSans-57" d="M 1172 4494 
L 1172 3500 
L 2356 3500 
L 2356 3053 
L 1172 3053 
L 1172 1153 
Q 1172 725 1289 603 
Q 1406 481 1766 481 
L 2356 481 
L 2356 0 
L 1766 0 
Q 1100 0 847 248 
Q 594 497 594 1153 
L 594 3053 
L 172 3053 
L 172 3500 
L 594 3500 
L 594 4494 
L 1172 4494 
z
" transform="scale(0.015625)"/>
       <path id="DejaVuSans-48" d="M 3597 1894 
L 3597 1613 
L 953 1613 
Q 991 1019 1311 708 
Q 1631 397 2203 397 
Q 2534 397 2845 478 
Q 3156 559 3463 722 
L 3463 178 
Q 3153 47 2828 -22 
Q 2503 -91 2169 -91 
Q 1331 -91 842 396 
Q 353 884 353 1716 
Q 353 2575 817 3079 
Q 1281 3584 2069 3584 
Q 2775 3584 3186 3129 
Q 3597 2675 3597 1894 
z
M 3022 2063 
Q 3016 2534 2758 2815 
Q 2500 3097 2075 3097 
Q 1594 3097 1305 2825 
Q 1016 2553 972 2059 
L 3022 2063 
z
" transform="scale(0.015625)"/>
       <path id="DejaVuSans-52" d="M 1959 3097 
Q 1497 3097 1228 2736 
Q 959 2375 959 1747 
Q 959 1119 1226 758 
Q 1494 397 1959 397 
Q 2419 397 2687 759 
Q 2956 1122 2956 1747 
Q 2956 2369 2687 2733 
Q 2419 3097 1959 3097 
z
M 1959 3584 
Q 2709 3584 3137 3096 
Q 3566 2609 3566 1747 
Q 3566 888 3137 398 
Q 2709 -91 1959 -91 
Q 1206 -91 779 398 
Q 353 888 353 1747 
Q 353 2609 779 3096 
Q 1206 3584 1959 3584 
z
" transform="scale(0.015625)"/>
       <path id="DejaVuSans-26" d="M 4122 4306 
L 4122 3641 
Q 3803 3938 3442 4084 
Q 3081 4231 2675 4231 
Q 1875 4231 1450 3742 
Q 1025 3253 1025 2328 
Q 1025 1406 1450 917 
Q 1875 428 2675 428 
Q 3081 428 3442 575 
Q 3803 722 4122 1019 
L 4122 359 
Q 3791 134 3420 21 
Q 3050 -91 2638 -91 
Q 1578 -91 968 557 
Q 359 1206 359 2328 
Q 359 3453 968 4101 
Q 1578 4750 2638 4750 
Q 3056 4750 3426 4639 
Q 3797 4528 4122 4306 
z
" transform="scale(0.015625)"/>
       <path id="DejaVuSans-24" d="M 2188 4044 
L 1331 1722 
L 3047 1722 
L 2188 4044 
z
M 1831 4666 
L 2547 4666 
L 4325 0 
L 3669 0 
L 3244 1197 
L 1141 1197 
L 716 0 
L 50 0 
L 1831 4666 
z
" transform="scale(0.015625)"/>
       <path id="DejaVuSans-27" d="M 1259 4147 
L 1259 519 
L 2022 519 
Q 2988 519 3436 956 
Q 3884 1394 3884 2338 
Q 3884 3275 3436 3711 
Q 2988 4147 2022 4147 
L 1259 4147 
z
M 628 4666 
L 1925 4666 
Q 3281 4666 3915 4102 
Q 4550 3538 4550 2338 
Q 4550 1131 3912 565 
Q 3275 0 1925 0 
L 628 0 
L 628 4666 
z
" transform="scale(0.015625)"/>
      </defs>
      <use xlink:href="#DejaVuSans-36"/>
      <use xlink:href="#DejaVuSans-2b" transform="translate(63.484375 0)"/>
      <use xlink:href="#DejaVuSans-32" transform="translate(138.6875 0)"/>
      <use xlink:href="#DejaVuSans-33" transform="translate(217.40625 0)"/>
      <use xlink:href="#DejaVuSans-11" transform="translate(262.125 0)"/>
      <use xlink:href="#DejaVuSans-37" transform="translate(293.90625 0)"/>
      <use xlink:href="#DejaVuSans-32" transform="translate(354.984375 0)"/>
      <use xlink:href="#DejaVuSans-3" transform="translate(433.703125 0)"/>
      <use xlink:href="#DejaVuSans-10" transform="translate(465.484375 0)"/>
      <use xlink:href="#DejaVuSans-3" transform="translate(501.5625 0)"/>
      <use xlink:href="#DejaVuSans-36" transform="translate(533.34375 0)"/>
      <use xlink:href="#DejaVuSans-2b" transform="translate(596.828125 0)"/>
      <use xlink:href="#DejaVuSans-32" transform="translate(672.03125 0)"/>
      <use xlink:href="#DejaVuSans-33" transform="translate(750.75 0)"/>
      <use xlink:href="#DejaVuSans-3" transform="translate(811.046875 0)"/>
      <use xlink:href="#DejaVuSans-44" transform="translate(842.828125 0)"/>
      <use xlink:href="#DejaVuSans-47" transform="translate(904.109375 0)"/>
      <use xlink:href="#DejaVuSans-4d" transform="translate(967.59375 0)"/>
      <use xlink:href="#DejaVuSans-58" transform="translate(995.375 0)"/>
      <use xlink:href="#DejaVuSans-56" transform="translate(1058.75 0)"/>
      <use xlink:href="#DejaVuSans-57" transform="translate(1110.84375 0)"/>
      <use xlink:href="#DejaVuSans-48" transform="translate(1150.046875 0)"/>
      <use xlink:href="#DejaVuSans-47" transform="translate(1211.578125 0)"/>
      <use xlink:href="#DejaVuSans-3" transform="translate(1275.0625 0)"/>
      <use xlink:href="#DejaVuSans-57" transform="translate(1306.84375 0)"/>
      <use xlink:href="#DejaVuSans-52" transform="translate(1346.046875 0)"/>
      <use xlink:href="#DejaVuSans-3" transform="translate(1407.234375 0)"/>
      <use xlink:href="#DejaVuSans-26" transform="translate(1439.015625 0)"/>
      <use xlink:href="#DejaVuSans-24" transform="translate(1508.84375 0)"/>
      <use xlink:href="#DejaVuSans-27" transform="translate(1577.25 0)"/>
     </g>
    </g>
   </g>
   <g id="line2d_14">
    <path d="M 79.592727 61.040026 
L 79.883716 62.850864 
L 80.756682 109.758085 
L 81.047671 103.88068 
L 81.33866 76.84719 
L 81.629649 73.154222 
L 81.920638 83.815633 
L 83.084593 62.588389 
L 83.957559 101.297115 
L 85.121514 48.192215 
L 85.412503 70.600422 
L 85.703492 59.507238 
L 85.994481 94.67178 
L 86.867447 75.538822 
L 87.158436 60.270872 
L 87.449425 81.298961 
L 87.740413 60.901581 
L 88.031402 72.648894 
L 88.904369 49.087486 
L 89.195357 92.365985 
L 89.486346 106.481846 
L 89.777335 78.522417 
L 90.068324 72.191157 
L 90.94129 79.707983 
L 91.232279 64.953903 
L 91.523268 87.983287 
L 91.814257 94.542199 
L 92.105245 69.066068 
L 93.2692 67.396388 
L 93.560189 73.913853 
L 93.851178 90.202169 
L 94.142167 63.756125 
L 95.015133 77.738564 
L 95.306122 88.604645 
L 95.8881 75.946935 
L 96.179088 79.766456 
L 97.052055 64.605478 
L 97.343044 64.963792 
L 97.634032 67.831088 
L 97.925021 38.20277 
L 98.21601 77.542114 
L 99.088976 117.245677 
L 99.379965 89.116332 
L 99.670954 81.281175 
L 99.961943 57.905041 
L 100.252932 92.212708 
L 101.125898 80.745073 
L 101.416887 71.818955 
L 101.707875 76.902041 
L 101.998864 98.141199 
L 102.289853 85.556279 
L 103.453808 47.885332 
L 104.035786 90.58969 
L 104.326775 74.219439 
L 105.199741 88.066329 
L 105.49073 72.881281 
L 105.781719 95.220776 
L 106.072707 65.458663 
L 106.363696 61.37544 
L 107.236663 70.909446 
L 107.527651 72.812525 
L 108.109629 112.285629 
L 108.400618 78.549939 
L 109.273584 84.360424 
L 109.564573 68.591985 
L 109.855562 60.561437 
L 110.14655 94.608512 
L 110.437539 88.584426 
L 111.310506 87.074557 
L 111.601494 83.989642 
L 111.892483 78.420555 
L 112.183472 83.897567 
L 112.474461 97.487804 
L 113.638416 83.201399 
L 113.929405 86.072187 
L 114.220394 91.338847 
L 114.511382 77.548384 
L 115.384349 76.112363 
L 115.966326 84.225177 
L 116.257315 68.603875 
L 116.548304 77.546214 
L 117.42127 73.894909 
L 117.712259 77.554085 
L 118.003248 86.480134 
L 118.294237 82.023637 
L 118.585225 84.633043 
L 119.458192 81.338182 
L 119.749181 71.654956 
L 120.040169 84.95765 
L 120.331158 57.489424 
L 120.622147 78.410565 
L 121.495113 76.62461 
L 121.786102 77.196284 
L 122.36808 50.990098 
L 122.659068 89.290034 
L 123.532035 87.07047 
L 123.823024 65.00352 
L 124.114012 65.343054 
L 124.405001 81.411355 
L 124.69599 63.534263 
L 125.568956 62.95856 
L 125.859945 85.01141 
L 126.150934 85.78569 
L 126.732912 66.492948 
L 127.605878 68.564828 
L 127.896867 74.169556 
L 128.187856 64.351971 
L 128.478844 78.429949 
L 128.769833 74.496275 
L 129.6428 89.660431 
L 129.933788 104.575554 
L 130.224777 78.772112 
L 130.515766 65.813766 
L 130.806755 78.732911 
L 131.679721 53.850341 
L 131.97071 68.623898 
L 132.261699 89.399965 
L 132.552687 94.027149 
L 132.843676 55.298168 
L 133.716643 64.629576 
L 134.29862 101.260991 
L 134.589609 94.276245 
L 136.335542 81.985588 
L 136.626531 87.881272 
L 136.917519 100.821301 
L 138.081474 87.874667 
L 138.372463 75.740932 
L 138.954441 96.001536 
L 139.827407 72.963629 
L 140.118396 93.050947 
L 140.409385 91.733299 
L 140.700374 74.389056 
L 140.991362 74.17218 
L 142.155318 76.648508 
L 142.446306 76.106888 
L 142.737295 76.522167 
L 143.028284 65.7416 
L 143.90125 62.633427 
L 144.192239 73.336242 
L 144.774217 66.270643 
L 145.065205 74.680209 
L 145.938172 83.837543 
L 146.229161 84.971642 
L 146.811138 76.987461 
L 147.102127 65.93823 
L 147.975093 92.190607 
L 148.266082 72.587918 
L 148.557071 86.583625 
L 148.84806 73.908585 
L 150.303004 77.709262 
L 150.593993 96.972929 
L 150.884981 79.701688 
L 151.17597 74.377157 
L 152.339925 74.944531 
L 152.630914 79.657338 
L 152.921903 70.011702 
L 153.212892 90.147511 
L 154.085858 87.583796 
L 154.376847 69.679758 
L 154.667836 87.669181 
L 154.958824 74.239488 
L 156.12278 69.162554 
L 156.413768 70.752245 
L 156.704757 83.818828 
L 156.995746 79.817985 
L 157.286735 78.975871 
L 158.159701 71.202102 
L 158.45069 82.552267 
L 158.741679 87.407094 
L 159.032667 87.440291 
L 159.323656 283.914418 
L 160.196623 79.974978 
L 160.487611 82.735542 
L 160.7786 79.909222 
L 161.360578 85.171842 
L 162.233544 74.167743 
L 162.524533 81.244489 
L 162.815522 82.050783 
L 163.106511 75.572846 
L 163.397499 79.095716 
L 164.270466 83.667802 
L 164.561455 77.08905 
L 164.852443 73.931579 
L 165.143432 75.028647 
L 165.434421 80.38611 
L 166.307387 72.485351 
L 166.598376 78.178566 
L 166.889365 86.455718 
L 167.180354 72.316486 
L 168.344309 77.566032 
L 168.635298 75.887685 
L 168.926286 84.346116 
L 169.217275 71.845724 
L 169.508264 68.53095 
L 170.38123 78.252698 
L 170.672219 72.045436 
L 170.963208 77.350638 
L 171.254197 78.167506 
L 171.545186 73.465491 
L 172.418152 76.671989 
L 173.00013 86.185479 
L 173.291118 72.704504 
L 173.582107 75.331985 
L 174.455073 73.276601 
L 174.746062 77.381587 
L 175.037051 79.61101 
L 175.32804 73.611344 
L 175.619029 85.621875 
L 176.491995 81.356336 
L 176.782984 80.513373 
L 177.073973 73.481468 
L 177.364961 82.518254 
L 177.65595 78.612898 
L 178.819905 77.033666 
L 179.401883 81.081118 
L 179.692872 81.74484 
L 180.856827 78.172221 
L 181.147816 77.739979 
L 181.438804 84.995253 
L 181.729793 77.422147 
L 182.60276 80.504044 
L 182.893748 82.393123 
L 183.184737 77.793194 
L 183.475726 69.624044 
L 183.766715 74.699844 
L 184.639681 74.009068 
L 184.93067 75.457442 
L 185.221659 81.359423 
L 185.512648 75.771281 
L 185.803636 74.540733 
L 186.967592 82.125833 
L 187.25858 77.001557 
L 187.549569 77.550444 
L 187.840558 83.638759 
L 189.004513 77.906721 
L 189.295502 77.649776 
L 189.586491 78.830783 
L 191.041435 67.822899 
L 191.332423 78.496144 
L 191.623412 81.968152 
L 191.914401 79.037569 
L 192.787367 75.840352 
L 193.078356 77.189872 
L 193.369345 81.419991 
L 193.660334 73.533663 
L 193.951323 83.107058 
L 194.824289 79.897262 
L 195.115278 84.711163 
L 195.406267 76.419546 
L 195.697255 78.665483 
L 195.988244 76.07965 
L 196.86121 83.884254 
L 197.152199 75.99177 
L 197.443188 81.604738 
L 197.734177 77.992529 
L 198.025166 78.329276 
L 199.189121 76.252091 
L 199.48011 81.47459 
L 200.062087 74.835142 
L 200.935054 84.441944 
L 201.226042 77.718672 
L 201.517031 85.413411 
L 201.80802 77.931976 
L 202.099009 78.735139 
L 202.971975 69.765741 
L 203.262964 82.186194 
L 203.553953 74.83611 
L 203.844941 76.500026 
L 204.13593 75.912016 
L 205.008897 76.499768 
L 205.299885 83.409283 
L 205.590874 77.681175 
L 205.881863 81.000625 
L 206.172852 73.69625 
L 207.045818 81.128091 
L 207.336807 73.178819 
L 207.627796 75.898611 
L 208.209773 79.02995 
L 209.373729 77.186133 
L 209.664717 80.68086 
L 209.955706 80.131421 
L 210.246695 82.052226 
L 211.119661 80.491004 
L 211.41065 67.322974 
L 211.701639 78.133129 
L 211.992628 74.26246 
L 212.283616 76.299056 
L 213.156583 79.241289 
L 213.447572 72.46276 
L 213.73856 74.027985 
L 214.029549 78.196115 
L 214.320538 72.537418 
L 215.193504 71.111496 
L 215.775482 82.712197 
L 216.066471 75.139622 
L 216.35746 72.639198 
L 217.230426 86.132032 
L 217.521415 84.263885 
L 217.812403 73.098162 
L 218.103392 71.098776 
L 218.394381 79.024454 
L 219.558336 78.225256 
L 219.849325 76.976257 
L 220.140314 80.71236 
L 220.431303 72.470806 
L 221.304269 83.970623 
L 221.595258 76.371533 
L 221.886247 76.316164 
L 222.177235 78.488869 
L 222.468224 85.705184 
L 223.341191 74.172937 
L 223.632179 82.027923 
L 224.214157 78.256246 
L 224.505146 75.550984 
L 225.378112 76.262987 
L 225.669101 77.099278 
L 225.96009 72.881516 
L 226.251078 76.664918 
L 226.542067 92.322824 
L 227.415034 79.270677 
L 227.706022 81.142535 
L 227.997011 73.203472 
L 228.288 90.41505 
L 228.578989 82.300547 
L 229.451955 74.705482 
L 229.742944 79.780435 
L 230.033933 74.719993 
L 230.324922 79.061252 
L 230.61591 73.848567 
L 231.488877 74.127811 
L 231.779866 82.28595 
L 232.070854 78.445956 
L 232.652832 76.505602 
L 233.525798 72.763594 
L 233.816787 72.898982 
L 234.107776 82.79685 
L 234.398765 77.041267 
L 234.689753 76.635088 
L 235.56272 68.203575 
L 236.144697 78.816365 
L 236.435686 82.469099 
L 236.726675 74.911943 
L 237.599641 80.493893 
L 237.89063 83.427627 
L 238.181619 78.641425 
L 238.472608 71.822095 
L 238.763597 76.62168 
L 239.636563 80.419962 
L 239.927552 79.873881 
L 240.21854 77.6656 
L 240.509529 77.544688 
L 240.800518 80.66745 
L 242.255462 74.218371 
L 242.546451 81.227866 
L 242.83744 78.856484 
L 244.001395 71.64754 
L 244.292384 90.207535 
L 244.583372 72.636364 
L 244.874361 85.063038 
L 245.747328 80.926974 
L 246.038316 76.368997 
L 246.329305 78.864502 
L 246.620294 82.615488 
L 246.911283 77.224258 
L 248.075238 78.944963 
L 248.366227 71.158421 
L 248.657215 79.609642 
L 248.948204 83.970335 
L 249.821171 77.987305 
L 250.112159 78.16844 
L 250.403148 77.775213 
L 250.694137 82.41634 
L 250.985126 78.824222 
L 251.858092 71.308514 
L 252.149081 84.469854 
L 253.022047 71.095219 
L 253.895014 74.490987 
L 254.186002 81.647493 
L 254.476991 73.516238 
L 254.76798 76.433968 
L 255.058969 86.846677 
L 255.931935 78.718077 
L 256.222924 78.253728 
L 256.513913 74.870771 
L 256.804902 74.244316 
L 257.09589 79.294418 
L 258.259846 72.855479 
L 258.841823 78.797726 
L 259.132812 74.430189 
L 260.005778 79.810622 
L 260.296767 72.873644 
L 260.587756 81.282752 
L 260.878745 78.250548 
L 261.169733 78.569023 
L 262.0427 77.495562 
L 262.333689 68.797628 
L 262.624677 75.579405 
L 262.915666 76.212145 
L 263.206655 78.599978 
L 264.079621 80.430199 
L 264.37061 82.967284 
L 264.661599 73.168933 
L 264.952588 81.128242 
L 265.243577 77.349848 
L 266.116543 82.123294 
L 266.407532 75.12762 
L 266.698521 77.477953 
L 266.989509 78.689158 
L 267.280498 77.875661 
L 268.153465 83.11815 
L 268.444453 82.495034 
L 268.735442 81.175844 
L 269.026431 81.196523 
L 269.31742 78.774434 
L 270.190386 85.036117 
L 270.481375 76.925042 
L 271.063352 75.685593 
L 272.227308 78.392287 
L 272.518296 80.644099 
L 272.809285 79.938794 
L 273.100274 86.092234 
L 273.391263 76.651323 
L 274.264229 76.204912 
L 274.555218 77.868718 
L 274.846207 73.019772 
L 275.137196 79.959514 
L 275.428184 73.554583 
L 276.301151 78.241212 
L 276.592139 70.813748 
L 277.174117 81.630632 
L 277.465106 82.482359 
L 278.338072 79.485319 
L 278.629061 73.083559 
L 278.92005 77.848912 
L 279.502027 92.181287 
L 280.374994 78.552827 
L 280.665983 77.338783 
L 280.956971 76.906864 
L 281.24796 64.970168 
L 281.538949 72.368613 
L 282.411915 85.509949 
L 282.702904 75.298314 
L 282.993893 80.959032 
L 283.284882 74.042766 
L 283.57587 77.500644 
L 284.739826 78.257838 
L 285.030814 68.9872 
L 285.612792 80.994012 
L 286.776747 78.450986 
L 287.067736 80.127867 
L 287.358725 90.188475 
L 287.649714 80.169879 
L 288.52268 76.784074 
L 288.813669 82.636563 
L 289.104658 80.543286 
L 289.395646 79.966944 
L 289.686635 80.169664 
L 290.559601 74.168376 
L 290.85059 83.609174 
L 291.141579 76.209229 
L 291.432568 88.978996 
L 291.723557 78.855155 
L 292.887512 75.996639 
L 293.178501 84.700916 
L 293.760478 74.252652 
L 294.633445 80.292267 
L 294.924433 75.059654 
L 295.215422 72.384442 
L 295.506411 78.929896 
L 295.7974 77.972795 
L 297.252344 72.526852 
L 297.543333 70.1453 
L 297.834321 86.964545 
L 298.707288 78.178067 
L 298.998276 82.069343 
L 299.289265 83.511948 
L 299.580254 87.012913 
L 299.871243 65.371761 
L 300.744209 81.643694 
L 301.035198 82.036338 
L 301.326187 77.121477 
L 301.617176 77.214735 
L 301.908164 73.03401 
L 302.781131 84.16248 
L 303.07212 78.410017 
L 303.654097 75.053292 
L 304.818052 86.078119 
L 305.109041 67.908308 
L 305.40003 69.302857 
L 305.691019 76.572437 
L 305.982007 75.436551 
L 307.145963 75.154118 
L 307.436951 78.316492 
L 307.72794 76.024611 
L 308.018929 78.699586 
L 308.891895 76.188775 
L 309.182884 74.797871 
L 309.473873 74.195629 
L 309.764862 78.083896 
L 310.055851 78.368647 
L 310.928817 77.888499 
L 311.219806 76.385764 
L 311.510795 79.031894 
L 311.801783 73.184758 
L 312.092772 76.599511 
L 312.965738 76.873263 
L 313.256727 81.72836 
L 313.838705 80.120173 
L 314.129694 68.451134 
L 315.293649 73.95405 
L 315.584638 77.747706 
L 315.875626 73.52835 
L 316.166615 82.141742 
L 317.039582 83.061063 
L 317.33057 78.885397 
L 317.621559 77.667762 
L 317.912548 81.374556 
L 318.203537 68.158458 
L 319.076503 80.760019 
L 319.367492 82.631724 
L 319.658481 75.813578 
L 319.949469 77.725227 
L 320.240458 77.867557 
L 321.113425 80.01478 
L 321.404413 72.539364 
L 321.695402 79.349505 
L 321.986391 79.123672 
L 322.27738 69.877929 
L 323.150346 69.511319 
L 323.441335 75.580506 
L 323.732324 75.967091 
L 324.023313 81.998497 
L 324.314301 82.654786 
L 325.769245 77.685536 
L 326.060234 69.535615 
L 326.351223 80.182001 
L 327.224189 81.11222 
L 327.515178 75.91387 
L 327.806167 74.003273 
L 328.097156 78.032178 
L 328.388144 79.037402 
L 329.261111 78.795987 
L 329.5521 74.933519 
L 329.843088 74.01254 
L 330.134077 77.002976 
L 330.425066 74.240714 
L 331.298032 81.443502 
L 331.589021 74.571257 
L 331.88001 79.100879 
L 332.170999 86.750973 
L 332.461988 85.628962 
L 333.625943 70.99504 
L 333.916932 75.003572 
L 334.20792 75.755999 
L 334.498909 78.744305 
L 335.371875 77.76568 
L 335.662864 89.141355 
L 336.244842 68.102663 
L 336.535831 80.212422 
L 337.408797 76.921659 
L 337.699786 80.970325 
L 337.990775 79.892511 
L 339.445719 79.51862 
L 339.736707 81.574261 
L 340.027696 74.085458 
L 340.609674 85.064264 
L 341.48264 72.163731 
L 341.773629 71.563965 
L 342.064618 77.995309 
L 342.355606 76.429015 
L 342.646595 78.824479 
L 343.519562 78.411548 
L 343.81055 76.75352 
L 344.101539 88.345748 
L 344.392528 91.831763 
L 344.683517 77.769486 
L 345.556483 76.946229 
L 345.847472 86.102705 
L 346.138461 74.724687 
L 346.42945 87.863323 
L 346.720438 81.494777 
L 348.466371 75.289124 
L 348.75736 76.722216 
L 349.921315 68.164492 
L 350.212304 74.431332 
L 350.503293 76.562137 
L 351.667248 78.910404 
L 351.958237 72.634878 
L 352.249225 80.450721 
L 352.540214 76.208547 
L 353.995158 69.706664 
L 354.286147 75.954493 
L 354.577136 79.42451 
L 354.868125 84.978926 
L 355.741091 70.886711 
L 356.03208 79.195058 
L 356.323068 68.239851 
L 356.614057 84.534658 
L 356.905046 82.156699 
L 357.778012 84.350927 
L 358.069001 79.790328 
L 358.35999 73.102518 
L 358.650979 84.554508 
L 358.941968 68.156683 
L 359.814934 69.488889 
L 360.105923 86.34734 
L 360.396912 81.628387 
L 360.978889 78.36743 
L 361.851856 79.133409 
L 362.142844 61.983305 
L 362.433833 81.087443 
L 362.724822 89.757743 
L 363.015811 75.753793 
L 364.179766 75.456913 
L 364.470755 80.5428 
L 364.761743 79.821927 
L 365.052732 75.962939 
L 365.925699 78.08487 
L 366.507676 72.744252 
L 366.798665 78.404362 
L 367.089654 79.870663 
L 367.96262 75.542849 
L 368.253609 75.820458 
L 368.544598 86.721908 
L 368.835587 84.783742 
L 369.126575 72.660785 
L 369.999542 78.599475 
L 370.290531 76.650258 
L 370.581519 81.552273 
L 370.872508 70.734442 
L 371.163497 77.782177 
L 372.036463 79.68078 
L 372.327452 74.213546 
L 372.618441 89.838651 
L 372.90943 70.900164 
L 373.200418 67.818432 
L 374.073385 82.659744 
L 374.364374 80.670907 
L 374.655362 79.590322 
L 374.946351 83.998143 
L 376.110306 71.471145 
L 376.401295 78.836092 
L 376.692284 82.152172 
L 376.983273 75.134042 
L 377.274262 73.030139 
L 378.147228 81.447077 
L 378.438217 78.748984 
L 378.729205 65.90675 
L 379.020194 79.49259 
L 379.311183 68.207174 
L 380.184149 75.576806 
L 380.475138 74.975837 
L 380.766127 83.231101 
L 381.057116 77.363722 
L 381.348105 80.193835 
L 382.221071 82.942389 
L 382.51206 83.249159 
L 382.803049 73.496675 
L 383.094037 84.161319 
L 383.385026 77.604854 
L 384.257993 77.530318 
L 384.548981 66.765753 
L 384.83997 80.674557 
L 385.130959 83.547132 
L 385.421948 76.72115 
L 386.294914 82.492191 
L 386.585903 71.578431 
L 387.16788 83.886877 
L 387.458869 78.986585 
L 388.622824 80.215806 
L 388.913813 82.596238 
L 389.204802 76.324001 
L 389.495791 79.302623 
L 390.659746 75.386043 
L 390.950735 72.793909 
L 391.241724 73.69127 
L 391.532712 84.30268 
L 392.696667 76.689134 
L 392.987656 72.026947 
L 393.278645 81.807716 
L 393.569634 82.910718 
L 394.4426 76.988045 
L 394.733589 73.94594 
L 395.315567 80.488774 
L 395.606555 69.256936 
L 397.061499 81.055039 
L 397.352488 76.368546 
L 397.643477 78.899164 
L 398.516443 78.7405 
L 398.807432 77.857454 
L 399.38941 80.552922 
L 399.680399 77.262542 
L 400.553365 83.178019 
L 401.135342 74.15781 
L 401.426331 78.656349 
L 401.71732 79.590986 
L 402.881275 85.286842 
L 403.172264 68.976191 
L 403.754242 76.574998 
L 404.627208 77.20828 
L 405.209186 79.632823 
L 405.500174 75.991231 
L 405.791163 76.888254 
L 406.66413 75.124468 
L 406.955118 78.857736 
L 407.537096 74.55677 
L 407.828085 74.811416 
L 408.701051 72.967717 
L 408.99204 76.052653 
L 409.283029 75.7377 
L 409.574017 76.555846 
L 409.865006 76.792486 
L 410.737973 75.898056 
L 411.31995 81.647892 
L 411.610939 73.191948 
L 411.901928 80.707583 
L 413.065883 83.166348 
L 413.938849 79.303854 
L 414.811816 77.235093 
L 415.102804 81.960952 
L 415.393793 77.128983 
L 415.684782 76.450996 
L 415.975771 84.011738 
L 416.848737 83.88267 
L 417.139726 79.328144 
L 417.430715 80.707858 
L 417.721704 74.354657 
L 418.012692 89.45004 
L 418.885659 80.713436 
L 419.176648 82.834889 
L 419.467636 74.718627 
L 419.758625 76.024873 
L 420.049614 80.080119 
L 421.213569 71.86439 
L 421.504558 81.683877 
L 421.795547 77.813945 
L 422.086535 71.412884 
L 422.959502 78.358772 
L 423.250491 73.403266 
L 423.541479 82.732989 
L 423.832468 78.17841 
L 424.123457 77.017999 
L 424.996423 77.149852 
L 425.287412 76.418009 
L 425.578401 74.123166 
L 425.86939 84.093548 
L 426.160379 78.473171 
L 427.033345 85.465237 
L 427.324334 90.206032 
L 427.615323 69.950928 
L 427.906311 78.852766 
L 428.1973 72.343069 
L 429.070267 76.901163 
L 429.361255 80.687596 
L 429.652244 76.946399 
L 429.943233 70.972676 
L 430.234222 74.581929 
L 431.107188 72.022284 
L 431.398177 73.430223 
L 431.689166 69.729808 
L 431.980154 71.501947 
L 432.271143 75.586831 
L 433.435098 80.13576 
L 433.726087 82.936694 
L 434.017076 72.360103 
L 434.308065 76.137389 
L 435.181031 73.758423 
L 435.47202 80.103508 
L 435.763009 76.415753 
L 436.053998 76.328641 
L 436.344986 72.986747 
L 437.217953 78.613596 
L 437.508941 72.00081 
L 437.79993 79.467265 
L 438.090919 76.000137 
L 438.381908 75.340163 
L 439.254874 80.33066 
L 439.545863 86.039079 
L 439.836852 63.651268 
L 440.127841 88.968415 
L 440.418829 71.212204 
L 441.291796 74.884173 
L 441.582785 68.12013 
L 442.164762 65.32821 
L 442.455751 73.197458 
L 443.328717 89.044283 
L 443.619706 89.351692 
L 443.910695 73.607396 
L 444.201684 77.093625 
L 444.492672 79.201557 
L 445.365639 68.465521 
L 445.656628 84.026142 
L 445.947616 84.168709 
L 447.40256 72.561551 
L 447.693549 72.081027 
L 447.984538 77.064431 
L 448.275527 86.237609 
L 448.566516 52.564527 
L 449.730471 77.912839 
L 450.02146 79.281183 
L 450.312448 61.704478 
L 450.603437 74.319227 
L 451.476403 72.082398 
L 451.767392 65.459795 
L 452.058381 55.754312 
L 452.34937 90.557204 
L 452.640359 81.684051 
L 453.513325 75.881297 
L 453.804314 59.969169 
L 454.67728 76.11866 
L 455.550247 86.072071 
L 455.841235 71.69525 
L 456.423213 72.818503 
L 456.714202 69.917021 
L 457.587168 99.535917 
L 457.878157 74.250432 
L 458.169146 74.047497 
L 458.751123 72.473658 
L 459.62409 81.917503 
L 459.915078 80.352561 
L 460.206067 81.328337 
L 460.497056 66.372261 
L 460.788045 65.789619 
L 461.952 71.475907 
L 462.242989 70.744053 
L 462.533978 79.299886 
L 462.824966 84.218227 
L 463.697933 80.299784 
L 463.988922 77.395637 
L 464.570899 62.789903 
L 464.861888 72.952458 
L 465.734854 107.476634 
L 466.025843 96.917471 
L 466.316832 80.145903 
L 466.607821 74.79486 
L 466.898809 83.257663 
L 467.771776 83.099887 
L 468.062765 88.463945 
L 468.353753 79.055454 
L 468.644742 103.396488 
L 468.935731 82.237902 
L 470.099686 77.992891 
L 470.390675 69.697212 
L 470.681664 92.394822 
L 470.972653 67.545401 
L 471.845619 69.962553 
L 472.136608 72.03559 
L 472.427597 68.34703 
L 472.718585 59.002443 
L 473.009574 73.917431 
L 473.88254 67.943326 
L 474.173529 81.111278 
L 474.464518 89.105357 
L 474.755507 83.55847 
L 475.046496 66.054684 
L 475.919462 67.802982 
L 476.210451 80.94522 
L 476.50144 86.171479 
L 476.792428 68.278112 
L 477.083417 86.543892 
L 477.956384 91.018183 
L 478.247372 78.51676 
L 478.538361 73.261512 
L 478.82935 80.657108 
L 479.120339 73.584345 
L 479.993305 79.654165 
L 480.284294 84.754917 
L 480.575283 79.672301 
L 480.866271 77.274512 
L 481.15726 79.607881 
L 482.030227 73.853339 
L 482.321215 91.324041 
L 482.612204 72.981067 
L 482.903193 96.508698 
L 483.194182 59.541534 
L 484.067148 77.373124 
L 484.358137 77.05943 
L 484.649126 97.733527 
L 484.940115 96.045702 
L 485.231103 84.827225 
L 486.10407 78.124435 
L 486.395059 66.351229 
L 486.686047 88.25019 
L 486.977036 76.850045 
L 488.43198 79.916833 
L 488.722969 72.87005 
L 489.013958 81.662427 
L 489.304946 77.054752 
L 490.177913 87.292864 
L 490.468902 77.520267 
L 490.75989 82.221599 
L 491.050879 69.264573 
L 491.341868 85.198741 
L 492.214834 80.57133 
L 492.505823 85.761166 
L 492.796812 59.247454 
L 493.087801 64.658632 
L 493.37879 75.192598 
L 494.251756 66.647723 
L 494.542745 84.342368 
L 494.833733 69.251977 
L 495.124722 80.551563 
L 495.415711 72.462424 
L 496.579666 86.78231 
L 496.870655 86.56421 
L 497.161644 78.025149 
L 497.452633 97.408623 
L 498.616588 63.7495 
L 498.907577 72.472468 
L 499.489554 101.044365 
L 500.653509 77.942824 
L 500.944498 84.109592 
L 501.235487 80.699281 
L 501.526476 73.156339 
L 502.399442 78.949389 
L 502.690431 82.540116 
L 502.98142 78.321396 
L 503.272408 89.561768 
L 503.563397 79.127098 
L 504.436364 80.66988 
L 504.727352 65.766049 
L 505.018341 74.046727 
L 505.600319 70.037292 
L 506.473285 80.261112 
L 506.764274 79.243311 
L 507.055263 81.037289 
L 507.346252 91.991534 
L 507.63724 67.315819 
L 508.510207 90.737427 
L 509.092184 88.784384 
L 509.383173 62.456122 
L 510.547128 68.007438 
L 510.838117 73.755032 
L 511.129106 74.570975 
L 511.420095 80.917925 
L 511.711083 73.157718 
L 512.58405 75.059861 
L 512.875039 75.314621 
L 513.166027 86.185337 
L 513.457016 66.956335 
L 513.748005 81.361792 
L 514.620971 86.030368 
L 514.91196 90.383586 
L 515.784927 63.816171 
L 516.657893 72.44811 
L 516.948882 70.243764 
L 517.23987 63.533812 
L 517.530859 71.635383 
L 517.821848 90.067521 
L 518.985803 73.367202 
L 519.276792 86.370437 
L 519.85877 72.357952 
L 520.731736 69.745946 
L 521.022725 75.785246 
L 521.313714 76.547824 
L 521.604702 61.059339 
L 521.895691 75.336594 
L 522.768658 78.487719 
L 523.059646 64.212989 
L 523.350635 77.339757 
L 523.641624 70.418387 
L 523.932613 95.052135 
L 524.805579 69.644529 
L 525.096568 84.081336 
L 525.387557 86.326681 
L 525.678545 82.995993 
L 525.969534 82.918254 
L 527.133489 69.116107 
L 527.424478 75.047518 
L 527.715467 69.001467 
L 528.006456 70.065342 
L 528.879422 84.61326 
L 529.170411 62.760341 
L 529.752389 84.418259 
L 530.043377 76.051409 
L 530.916344 94.665919 
L 531.207333 85.371433 
L 531.498321 71.600338 
L 532.080299 75.571516 
L 532.953265 66.480135 
L 533.244254 75.445156 
L 533.535243 64.099597 
L 533.826232 68.204024 
L 534.11722 80.387095 
L 534.990187 81.969174 
L 535.281176 79.178447 
L 535.572164 72.388765 
L 535.863153 72.893401 
L 536.154142 79.624897 
L 537.027108 81.724664 
L 537.318097 75.45392 
L 537.609086 75.05039 
L 537.900075 58.644687 
L 538.191064 83.650519 
L 539.355019 74.916366 
L 539.646007 78.004803 
L 539.936996 75.407188 
L 540.227985 89.178711 
L 541.100951 70.295367 
L 541.39194 82.845272 
L 541.682929 87.815506 
L 542.264907 74.752673 
L 543.137873 75.083453 
L 543.428862 94.74957 
L 543.719851 75.276351 
L 544.010839 63.405695 
L 544.301828 65.541422 
L 545.174795 68.927704 
L 545.465783 61.649643 
L 545.756772 63.682644 
L 546.047761 74.06779 
L 546.33875 92.423221 
L 547.211716 85.548513 
L 547.793694 78.110125 
L 548.084682 64.177729 
L 548.375671 79.272885 
L 549.248638 66.379869 
L 549.539626 95.063217 
L 549.830615 59.110094 
L 550.121604 63.298819 
L 550.412593 78.184456 
L 551.285559 74.506781 
L 551.576548 79.090817 
L 551.867537 92.038805 
L 552.449514 66.73702 
L 553.322481 68.974775 
L 553.613469 81.68782 
L 553.904458 84.659912 
L 554.195447 75.154012 
L 554.486436 112.470057 
L 555.359402 69.772097 
L 555.650391 73.008414 
L 555.94138 89.770932 
L 556.232369 82.806792 
L 556.523357 78.925821 
L 557.396324 76.062859 
L 557.687313 82.976091 
L 557.978301 69.501629 
L 558.26929 78.607509 
L 558.560279 75.380358 
L 559.433245 88.20187 
L 559.724234 94.121186 
L 560.015223 80.685957 
L 561.470167 72.05509 
L 561.761156 76.814415 
L 562.052144 69.275801 
L 562.634122 69.961983 
L 563.507088 68.953884 
L 563.798077 61.979201 
L 564.089066 65.937912 
L 564.380055 74.466079 
L 564.671044 62.125662 
L 565.54401 88.465266 
L 565.834999 76.986402 
L 566.125988 80.284412 
L 566.707965 67.992012 
L 567.87192 85.244456 
L 568.162909 79.402492 
L 568.453898 92.257012 
L 568.744887 95.221819 
L 569.617853 74.136514 
L 569.908842 106.531378 
L 570.199831 82.033555 
L 570.490819 93.576315 
L 570.781808 51.959221 
L 571.945763 77.2949 
L 572.236752 58.68427 
L 572.81873 87.959351 
L 573.691696 96.07983 
L 573.982685 78.798264 
L 574.273674 86.005223 
L 574.564663 73.069095 
L 574.855651 70.404837 
L 576.019606 78.797921 
L 576.310595 67.236275 
L 576.601584 77.526159 
L 576.892573 75.720939 
L 577.765539 68.556013 
L 578.056528 72.843539 
L 578.347517 81.463747 
L 578.638506 79.740932 
L 578.929494 85.549323 
L 579.802461 75.981812 
L 580.09345 77.375037 
L 580.384438 87.13268 
L 580.675427 72.612635 
L 580.966416 98.055486 
L 581.839382 81.131954 
L 582.130371 78.162756 
L 582.42136 77.657265 
L 582.712349 73.024505 
L 583.003337 58.684615 
L 583.876304 84.154285 
L 584.458281 67.704155 
L 584.74927 74.235883 
L 585.040259 74.563182 
L 585.913225 75.856449 
L 586.204214 72.524375 
L 586.495203 65.170541 
L 586.786192 70.31861 
L 587.077181 70.419835 
L 587.950147 71.421748 
L 588.241136 80.9597 
L 588.532125 79.644867 
L 588.823113 70.33691 
L 589.987068 83.372447 
L 590.278057 76.241147 
L 590.569046 77.930314 
L 590.860035 82.01394 
L 591.151024 71.699478 
L 592.02399 92.365622 
L 592.314979 80.619799 
L 592.605968 81.718773 
L 592.896956 81.411652 
L 593.187945 81.50359 
L 594.060912 89.500364 
L 594.3519 73.861423 
L 594.642889 71.928913 
L 594.933878 70.995587 
L 595.224867 86.351721 
L 596.097833 85.042004 
L 596.388822 63.331935 
L 596.9708 90.172874 
L 597.261788 76.594099 
L 598.134755 77.501809 
L 598.425743 83.682968 
L 598.716732 64.721308 
L 599.007721 75.251245 
L 599.29871 80.800967 
L 600.171676 78.798993 
L 600.462665 73.392736 
L 600.753654 77.763912 
L 601.335631 73.165362 
L 602.499587 74.529721 
L 602.790575 79.008559 
L 603.372553 68.427513 
L 604.536508 76.991011 
L 604.827497 73.818218 
L 605.118486 91.919551 
L 605.409474 65.400451 
L 606.282441 71.339174 
L 606.57343 78.095209 
L 606.864418 66.594794 
L 607.155407 73.090845 
L 607.446396 70.793478 
L 608.319362 75.535347 
L 608.610351 77.980304 
L 608.90134 79.202173 
L 609.192329 75.93206 
L 609.483318 74.572885 
L 610.356284 75.215716 
L 610.647273 77.052645 
L 610.647273 77.052645 
" clip-path="url(#pd967763992)" style="fill: none; stroke: #1f77b4; stroke-width: 1.5; stroke-linecap: square"/>
   </g>
   <g id="line2d_15">
    <path d="M 53.04 78.381934 
L 637.2 78.381934 
" clip-path="url(#pd967763992)" style="fill: none; stroke: #000000; stroke-width: 0.8; stroke-linecap: square"/>
   </g>
   <g id="patch_3">
    <path d="M 53.04 296.2 
L 53.04 25.917188 
" style="fill: none; stroke: #000000; stroke-width: 0.8; stroke-linejoin: miter; stroke-linecap: square"/>
   </g>
   <g id="patch_4">
    <path d="M 637.2 296.2 
L 637.2 25.917188 
" style="fill: none; stroke: #000000; stroke-width: 0.8; stroke-linejoin: miter; stroke-linecap: square"/>
   </g>
   <g id="patch_5">
    <path d="M 53.04 296.2 
L 637.2 296.2 
" style="fill: none; stroke: #000000; stroke-width: 0.8; stroke-linejoin: miter; stroke-linecap: square"/>
   </g>
   <g id="patch_6">
    <path d="M 53.04 25.917188 
L 637.2 25.917188 
" style="fill: none; stroke: #000000; stroke-width: 0.8; stroke-linejoin: miter; stroke-linecap: square"/>
   </g>
   <g id="text_15">
    <!-- Full-Sample OLS Regression Raw Price Spread -->
    <g transform="translate(207.58125 19.917188) scale(0.12 -0.12)">
     <defs>
      <path id="DejaVuSans-29" d="M 628 4666 
L 3309 4666 
L 3309 4134 
L 1259 4134 
L 1259 2759 
L 3109 2759 
L 3109 2228 
L 1259 2228 
L 1259 0 
L 628 0 
L 628 4666 
z
" transform="scale(0.015625)"/>
      <path id="DejaVuSans-4f" d="M 603 4863 
L 1178 4863 
L 1178 0 
L 603 0 
L 603 4863 
z
" transform="scale(0.015625)"/>
      <path id="DejaVuSans-50" d="M 3328 2828 
Q 3544 3216 3844 3400 
Q 4144 3584 4550 3584 
Q 5097 3584 5394 3201 
Q 5691 2819 5691 2113 
L 5691 0 
L 5113 0 
L 5113 2094 
Q 5113 2597 4934 2840 
Q 4756 3084 4391 3084 
Q 3944 3084 3684 2787 
Q 3425 2491 3425 1978 
L 3425 0 
L 2847 0 
L 2847 2094 
Q 2847 2600 2669 2842 
Q 2491 3084 2119 3084 
Q 1678 3084 1418 2786 
Q 1159 2488 1159 1978 
L 1159 0 
L 581 0 
L 581 3500 
L 1159 3500 
L 1159 2956 
Q 1356 3278 1631 3431 
Q 1906 3584 2284 3584 
Q 2666 3584 2933 3390 
Q 3200 3197 3328 2828 
z
" transform="scale(0.015625)"/>
      <path id="DejaVuSans-53" d="M 1159 525 
L 1159 -1331 
L 581 -1331 
L 581 3500 
L 1159 3500 
L 1159 2969 
Q 1341 3281 1617 3432 
Q 1894 3584 2278 3584 
Q 2916 3584 3314 3078 
Q 3713 2572 3713 1747 
Q 3713 922 3314 415 
Q 2916 -91 2278 -91 
Q 1894 -91 1617 61 
Q 1341 213 1159 525 
z
M 3116 1747 
Q 3116 2381 2855 2742 
Q 2594 3103 2138 3103 
Q 1681 3103 1420 2742 
Q 1159 2381 1159 1747 
Q 1159 1113 1420 752 
Q 1681 391 2138 391 
Q 2594 391 2855 752 
Q 3116 1113 3116 1747 
z
" transform="scale(0.015625)"/>
      <path id="DejaVuSans-2f" d="M 628 4666 
L 1259 4666 
L 1259 531 
L 3531 531 
L 3531 0 
L 628 0 
L 628 4666 
z
" transform="scale(0.015625)"/>
      <path id="DejaVuSans-35" d="M 2841 2188 
Q 3044 2119 3236 1894 
Q 3428 1669 3622 1275 
L 4263 0 
L 3584 0 
L 2988 1197 
Q 2756 1666 2539 1819 
Q 2322 1972 1947 1972 
L 1259 1972 
L 1259 0 
L 628 0 
L 628 4666 
L 2053 4666 
Q 2853 4666 3247 4331 
Q 3641 3997 3641 3322 
Q 3641 2881 3436 2590 
Q 3231 2300 2841 2188 
z
M 1259 4147 
L 1259 2491 
L 2053 2491 
Q 2509 2491 2742 2702 
Q 2975 2913 2975 3322 
Q 2975 3731 2742 3939 
Q 2509 4147 2053 4147 
L 1259 4147 
z
" transform="scale(0.015625)"/>
      <path id="DejaVuSans-4a" d="M 2906 1791 
Q 2906 2416 2648 2759 
Q 2391 3103 1925 3103 
Q 1463 3103 1205 2759 
Q 947 2416 947 1791 
Q 947 1169 1205 825 
Q 1463 481 1925 481 
Q 2391 481 2648 825 
Q 2906 1169 2906 1791 
z
M 3481 434 
Q 3481 -459 3084 -895 
Q 2688 -1331 1869 -1331 
Q 1566 -1331 1297 -1286 
Q 1028 -1241 775 -1147 
L 775 -588 
Q 1028 -725 1275 -790 
Q 1522 -856 1778 -856 
Q 2344 -856 2625 -561 
Q 2906 -266 2906 331 
L 2906 616 
Q 2728 306 2450 153 
Q 2172 0 1784 0 
Q 1141 0 747 490 
Q 353 981 353 1791 
Q 353 2603 747 3093 
Q 1141 3584 1784 3584 
Q 2172 3584 2450 3431 
Q 2728 3278 2906 2969 
L 2906 3500 
L 3481 3500 
L 3481 434 
z
" transform="scale(0.015625)"/>
      <path id="DejaVuSans-55" d="M 2631 2963 
Q 2534 3019 2420 3045 
Q 2306 3072 2169 3072 
Q 1681 3072 1420 2755 
Q 1159 2438 1159 1844 
L 1159 0 
L 581 0 
L 581 3500 
L 1159 3500 
L 1159 2956 
Q 1341 3275 1631 3429 
Q 1922 3584 2338 3584 
Q 2397 3584 2469 3576 
Q 2541 3569 2628 3553 
L 2631 2963 
z
" transform="scale(0.015625)"/>
      <path id="DejaVuSans-4c" d="M 603 3500 
L 1178 3500 
L 1178 0 
L 603 0 
L 603 3500 
z
M 603 4863 
L 1178 4863 
L 1178 4134 
L 603 4134 
L 603 4863 
z
" transform="scale(0.015625)"/>
      <path id="DejaVuSans-51" d="M 3513 2113 
L 3513 0 
L 2938 0 
L 2938 2094 
Q 2938 2591 2744 2837 
Q 2550 3084 2163 3084 
Q 1697 3084 1428 2787 
Q 1159 2491 1159 1978 
L 1159 0 
L 581 0 
L 581 3500 
L 1159 3500 
L 1159 2956 
Q 1366 3272 1645 3428 
Q 1925 3584 2291 3584 
Q 2894 3584 3203 3211 
Q 3513 2838 3513 2113 
z
" transform="scale(0.015625)"/>
      <path id="DejaVuSans-5a" d="M 269 3500 
L 844 3500 
L 1563 769 
L 2278 3500 
L 2956 3500 
L 3675 769 
L 4391 3500 
L 4966 3500 
L 4050 0 
L 3372 0 
L 2619 2869 
L 1863 0 
L 1184 0 
L 269 3500 
z
" transform="scale(0.015625)"/>
      <path id="DejaVuSans-46" d="M 3122 3366 
L 3122 2828 
Q 2878 2963 2633 3030 
Q 2388 3097 2138 3097 
Q 1578 3097 1268 2742 
Q 959 2388 959 1747 
Q 959 1106 1268 751 
Q 1578 397 2138 397 
Q 2388 397 2633 464 
Q 2878 531 3122 666 
L 3122 134 
Q 2881 22 2623 -34 
Q 2366 -91 2075 -91 
Q 1284 -91 818 406 
Q 353 903 353 1747 
Q 353 2603 823 3093 
Q 1294 3584 2113 3584 
Q 2378 3584 2631 3529 
Q 2884 3475 3122 3366 
z
" transform="scale(0.015625)"/>
     </defs>
     <use xlink:href="#DejaVuSans-29"/>
     <use xlink:href="#DejaVuSans-58" transform="translate(52.046875 0)"/>
     <use xlink:href="#DejaVuSans-4f" transform="translate(115.421875 0)"/>
     <use xlink:href="#DejaVuSans-4f" transform="translate(143.203125 0)"/>
     <use xlink:href="#DejaVuSans-10" transform="translate(170.984375 0)"/>
     <use xlink:href="#DejaVuSans-36" transform="translate(207.0625 0)"/>
     <use xlink:href="#DejaVuSans-44" transform="translate(270.546875 0)"/>
     <use xlink:href="#DejaVuSans-50" transform="translate(331.828125 0)"/>
     <use xlink:href="#DejaVuSans-53" transform="translate(429.234375 0)"/>
     <use xlink:href="#DejaVuSans-4f" transform="translate(492.71875 0)"/>
     <use xlink:href="#DejaVuSans-48" transform="translate(520.5 0)"/>
     <use xlink:href="#DejaVuSans-3" transform="translate(582.03125 0)"/>
     <use xlink:href="#DejaVuSans-32" transform="translate(613.8125 0)"/>
     <use xlink:href="#DejaVuSans-2f" transform="translate(692.53125 0)"/>
     <use xlink:href="#DejaVuSans-36" transform="translate(748.25 0)"/>
     <use xlink:href="#DejaVuSans-3" transform="translate(811.734375 0)"/>
     <use xlink:href="#DejaVuSans-35" transform="translate(843.515625 0)"/>
     <use xlink:href="#DejaVuSans-48" transform="translate(908.515625 0)"/>
     <use xlink:href="#DejaVuSans-4a" transform="translate(970.046875 0)"/>
     <use xlink:href="#DejaVuSans-55" transform="translate(1033.53125 0)"/>
     <use xlink:href="#DejaVuSans-48" transform="translate(1072.4375 0)"/>
     <use xlink:href="#DejaVuSans-56" transform="translate(1133.96875 0)"/>
     <use xlink:href="#DejaVuSans-56" transform="translate(1186.0625 0)"/>
     <use xlink:href="#DejaVuSans-4c" transform="translate(1238.15625 0)"/>
     <use xlink:href="#DejaVuSans-52" transform="translate(1265.9375 0)"/>
     <use xlink:href="#DejaVuSans-51" transform="translate(1327.125 0)"/>
     <use xlink:href="#DejaVuSans-3" transform="translate(1390.5 0)"/>
     <use xlink:href="#DejaVuSans-35" transform="translate(1422.28125 0)"/>
     <use xlink:href="#DejaVuSans-44" transform="translate(1489.5625 0)"/>
     <use xlink:href="#DejaVuSans-5a" transform="translate(1550.84375 0)"/>
     <use xlink:href="#DejaVuSans-3" transform="translate(1632.625 0)"/>
     <use xlink:href="#DejaVuSans-33" transform="translate(1664.40625 0)"/>
     <use xlink:href="#DejaVuSans-55" transform="translate(1722.953125 0)"/>
     <use xlink:href="#DejaVuSans-4c" transform="translate(1764.0625 0)"/>
     <use xlink:href="#DejaVuSans-46" transform="translate(1791.84375 0)"/>
     <use xlink:href="#DejaVuSans-48" transform="translate(1846.828125 0)"/>
     <use xlink:href="#DejaVuSans-3" transform="translate(1908.359375 0)"/>
     <use xlink:href="#DejaVuSans-36" transform="translate(1940.140625 0)"/>
     <use xlink:href="#DejaVuSans-53" transform="translate(2003.625 0)"/>
     <use xlink:href="#DejaVuSans-55" transform="translate(2067.109375 0)"/>
     <use xlink:href="#DejaVuSans-48" transform="translate(2106.015625 0)"/>
     <use xlink:href="#DejaVuSans-44" transform="translate(2167.546875 0)"/>
     <use xlink:href="#DejaVuSans-47" transform="translate(2228.828125 0)"/>
    </g>
   </g>
  </g>
 </g>
 <defs>
  <clipPath id="pd967763992">
   <rect x="53.04" y="25.917188" width="584.16" height="270.282812"/>
  </clipPath>
 </defs>
</svg>
